<?xml version="1.0" encoding="UTF-8" standalone="no"?>
<!DOCTYPE svg PUBLIC "-//W3C//DTD SVG 1.1//EN"
 "http://www.w3.org/Graphics/SVG/1.1/DTD/svg11.dtd">
<!-- Generated by graphviz version 9.0.0 (20230911.1827)
 -->
<!-- Title: Apps/Analysis.cpp Pages: 1 -->
<svg width="492pt" height="315pt"
 viewBox="0.00 0.00 491.50 314.75" xmlns="http://www.w3.org/2000/svg" xmlns:xlink="http://www.w3.org/1999/xlink">
<g id="graph0" class="graph" transform="scale(1 1) rotate(0) translate(4 310.75)">
<title>Apps/Analysis.cpp</title>
<!-- Node1 -->
<g id="Node000001" class="node">
<title>Node1</title>
<g id="a_Node000001"><a xlink:title=" ">
<polygon fill="#999999" stroke="#666666" points="420,-306.75 323.75,-306.75 323.75,-287.5 420,-287.5 420,-306.75"/>
<text text-anchor="middle" x="371.88" y="-293.25" font-family="Helvetica,sans-Serif" font-size="10.00">Apps/Analysis.cpp</text>
</a>
</g>
</g>
<!-- Node2 -->
<g id="Node000002" class="node">
<title>Node2</title>
<g id="a_Node000002"><a xlink:href="OscillatorFactory_8h.html" target="_top" xlink:title=" ">
<polygon fill="white" stroke="#666666" points="225.5,-251.5 84.25,-251.5 84.25,-232.25 225.5,-232.25 225.5,-251.5"/>
<text text-anchor="middle" x="154.88" y="-238" font-family="Helvetica,sans-Serif" font-size="10.00">Oscillator/OscillatorFactory.h</text>
</a>
</g>
</g>
<!-- Node1&#45;&gt;Node2 -->
<g id="edge1_Node000001_Node000002" class="edge">
<title>Node1&#45;&gt;Node2</title>
<g id="a_edge1_Node000001_Node000002"><a xlink:title=" ">
<path fill="none" stroke="#63b8ff" d="M335.06,-287.09C298.67,-278.16 242.79,-264.45 202.92,-254.66"/>
<polygon fill="#63b8ff" stroke="#63b8ff" points="203.88,-251.3 193.34,-252.31 202.21,-258.1 203.88,-251.3"/>
</a>
</g>
</g>
<!-- Node5 -->
<g id="Node000005" class="node">
<title>Node5</title>
<g id="a_Node000005"><a xlink:href="OscillatorConstants_8h.html" target="_top" xlink:title=" ">
<polygon fill="white" stroke="#666666" points="344,-74.5 187.75,-74.5 187.75,-55.25 344,-55.25 344,-74.5"/>
<text text-anchor="middle" x="265.88" y="-61" font-family="Helvetica,sans-Serif" font-size="10.00">Constants/OscillatorConstants.h</text>
</a>
</g>
</g>
<!-- Node1&#45;&gt;Node5 -->
<g id="edge18_Node000001_Node000005" class="edge">
<title>Node1&#45;&gt;Node5</title>
<g id="a_edge18_Node000001_Node000005"><a xlink:title=" ">
<path fill="none" stroke="#63b8ff" d="M367.72,-287.1C352.05,-253.07 296.35,-132.06 274.63,-84.89"/>
<polygon fill="#63b8ff" stroke="#63b8ff" points="277.88,-83.59 270.52,-75.97 271.52,-86.51 277.88,-83.59"/>
</a>
</g>
</g>
<!-- Node6 -->
<g id="Node000006" class="node">
<title>Node6</title>
<g id="a_Node000006"><a xlink:title=" ">
<polygon fill="#e0e0e0" stroke="#999999" points="392.5,-19.25 347.25,-19.25 347.25,0 392.5,0 392.5,-19.25"/>
<text text-anchor="middle" x="369.88" y="-5.75" font-family="Helvetica,sans-Serif" font-size="10.00">math.h</text>
</a>
</g>
</g>
<!-- Node1&#45;&gt;Node6 -->
<g id="edge20_Node000001_Node000006" class="edge">
<title>Node1&#45;&gt;Node6</title>
<g id="a_edge20_Node000001_Node000006"><a xlink:title=" ">
<path fill="none" stroke="#63b8ff" d="M371.88,-287.12C371.88,-268.53 371.88,-224.55 371.88,-187.62 371.88,-187.62 371.88,-187.62 371.88,-124.75 371.88,-91.8 371.03,-53.5 370.44,-30.71"/>
<polygon fill="#63b8ff" stroke="#63b8ff" points="373.95,-30.92 370.18,-21.02 366.95,-31.11 373.95,-30.92"/>
</a>
</g>
</g>
<!-- Node11 -->
<g id="Node000011" class="node">
<title>Node11</title>
<g id="a_Node000011"><a xlink:title=" ">
<polygon fill="#e0e0e0" stroke="#999999" points="463.62,-19.25 410.12,-19.25 410.12,0 463.62,0 463.62,-19.25"/>
<text text-anchor="middle" x="436.88" y="-5.75" font-family="Helvetica,sans-Serif" font-size="10.00">iostream</text>
</a>
</g>
</g>
<!-- Node1&#45;&gt;Node11 -->
<g id="edge19_Node000001_Node000011" class="edge">
<title>Node1&#45;&gt;Node11</title>
<g id="a_edge19_Node000001_Node000011"><a xlink:title=" ">
<path fill="none" stroke="#63b8ff" d="M377.32,-287.21C387.83,-269.13 409.88,-226.54 409.88,-187.62 409.88,-187.62 409.88,-187.62 409.88,-124.75 409.88,-90.91 421.26,-52.9 429.24,-30.4"/>
<polygon fill="#63b8ff" stroke="#63b8ff" points="432.52,-31.64 432.71,-21.04 425.95,-29.21 432.52,-31.64"/>
</a>
</g>
</g>
<!-- Node13 -->
<g id="Node000013" class="node">
<title>Node13</title>
<g id="a_Node000013"><a xlink:title=" ">
<polygon fill="#e0e0e0" stroke="#999999" points="483.5,-251.5 438.25,-251.5 438.25,-232.25 483.5,-232.25 483.5,-251.5"/>
<text text-anchor="middle" x="460.88" y="-238" font-family="Helvetica,sans-Serif" font-size="10.00">chrono</text>
</a>
</g>
</g>
<!-- Node1&#45;&gt;Node13 -->
<g id="edge21_Node000001_Node000013" class="edge">
<title>Node1&#45;&gt;Node13</title>
<g id="a_edge21_Node000001_Node000013"><a xlink:title=" ">
<path fill="none" stroke="#63b8ff" d="M386.97,-287.09C400.4,-279.06 420.29,-267.16 436.05,-257.73"/>
<polygon fill="#63b8ff" stroke="#63b8ff" points="437.62,-260.87 444.4,-252.73 434.03,-254.86 437.62,-260.87"/>
</a>
</g>
</g>
<!-- Node3 -->
<g id="Node000003" class="node">
<title>Node3</title>
<g id="a_Node000003"><a xlink:href="OscillatorBase_8h.html" target="_top" xlink:title=" ">
<polygon fill="white" stroke="#666666" points="198.5,-196.25 111.25,-196.25 111.25,-177 198.5,-177 198.5,-196.25"/>
<text text-anchor="middle" x="154.88" y="-182.75" font-family="Helvetica,sans-Serif" font-size="10.00">OscillatorBase.h</text>
</a>
</g>
</g>
<!-- Node2&#45;&gt;Node3 -->
<g id="edge2_Node000002_Node000003" class="edge">
<title>Node2&#45;&gt;Node3</title>
<g id="a_edge2_Node000002_Node000003"><a xlink:title=" ">
<path fill="none" stroke="#63b8ff" d="M154.88,-232.08C154.88,-225.57 154.88,-216.42 154.88,-208.12"/>
<polygon fill="#63b8ff" stroke="#63b8ff" points="158.38,-208.12 154.88,-198.12 151.38,-208.12 158.38,-208.12"/>
</a>
</g>
</g>
<!-- Node7 -->
<g id="Node000007" class="node">
<title>Node7</title>
<g id="a_Node000007"><a xlink:title=" ">
<polygon fill="#e0e0e0" stroke="#999999" points="85.75,-19.25 0,-19.25 0,0 85.75,0 85.75,-19.25"/>
<text text-anchor="middle" x="42.88" y="-5.75" font-family="Helvetica,sans-Serif" font-size="10.00">yaml&#45;cpp/yaml.h</text>
</a>
</g>
</g>
<!-- Node2&#45;&gt;Node7 -->
<g id="edge17_Node000002_Node000007" class="edge">
<title>Node2&#45;&gt;Node7</title>
<g id="a_edge17_Node000002_Node000007"><a xlink:title=" ">
<path fill="none" stroke="#63b8ff" d="M140.45,-231.91C117.13,-216.52 71.63,-182.68 50.88,-141 33.16,-105.41 35.95,-57.42 39.48,-30.71"/>
<polygon fill="#63b8ff" stroke="#63b8ff" points="42.92,-31.36 40.95,-20.95 36,-30.31 42.92,-31.36"/>
</a>
</g>
</g>
<!-- Node4 -->
<g id="Node000004" class="node">
<title>Node4</title>
<g id="a_Node000004"><a xlink:href="OscProbCalcerBase_8h.html" target="_top" xlink:title=" ">
<polygon fill="white" stroke="#666666" points="230.38,-141 79.38,-141 79.38,-110.5 230.38,-110.5 230.38,-141"/>
<text text-anchor="start" x="87.38" y="-127.5" font-family="Helvetica,sans-Serif" font-size="10.00">OscProbCalcer/OscProbCalcer</text>
<text text-anchor="middle" x="154.88" y="-116.25" font-family="Helvetica,sans-Serif" font-size="10.00">Base.h</text>
</a>
</g>
</g>
<!-- Node3&#45;&gt;Node4 -->
<g id="edge3_Node000003_Node000004" class="edge">
<title>Node3&#45;&gt;Node4</title>
<g id="a_edge3_Node000003_Node000004"><a xlink:title=" ">
<path fill="none" stroke="#63b8ff" d="M154.88,-176.68C154.88,-170.23 154.88,-161.16 154.88,-152.51"/>
<polygon fill="#63b8ff" stroke="#63b8ff" points="158.38,-152.8 154.88,-142.8 151.38,-152.8 158.38,-152.8"/>
</a>
</g>
</g>
<!-- Node3&#45;&gt;Node5 -->
<g id="edge15_Node000003_Node000005" class="edge">
<title>Node3&#45;&gt;Node5</title>
<g id="a_edge15_Node000003_Node000005"><a xlink:title=" ">
<path fill="none" stroke="#63b8ff" d="M184.06,-176.57C202.37,-169.54 225.2,-158.06 239.88,-141 253.36,-125.32 259.96,-102.27 263.12,-85.84"/>
<polygon fill="#63b8ff" stroke="#63b8ff" points="266.53,-86.72 264.68,-76.29 259.62,-85.6 266.53,-86.72"/>
</a>
</g>
</g>
<!-- Node3&#45;&gt;Node7 -->
<g id="edge16_Node000003_Node000007" class="edge">
<title>Node3&#45;&gt;Node7</title>
<g id="a_edge16_Node000003_Node000007"><a xlink:title=" ">
<path fill="none" stroke="#63b8ff" d="M123.27,-176.57C104.96,-169.71 83.02,-158.44 69.88,-141 45.26,-108.33 41.77,-58.52 41.97,-30.89"/>
<polygon fill="#63b8ff" stroke="#63b8ff" points="45.46,-31.18 42.23,-21.09 38.46,-31 45.46,-31.18"/>
</a>
</g>
</g>
<!-- Node4&#45;&gt;Node5 -->
<g id="edge4_Node000004_Node000005" class="edge">
<title>Node4&#45;&gt;Node5</title>
<g id="a_edge4_Node000004_Node000005"><a xlink:title=" ">
<path fill="none" stroke="#63b8ff" d="M182.6,-110.05C199.83,-100.91 221.87,-89.22 238.95,-80.16"/>
<polygon fill="#63b8ff" stroke="#63b8ff" points="240.32,-83.39 247.52,-75.61 237.04,-77.21 240.32,-83.39"/>
</a>
</g>
</g>
<!-- Node4&#45;&gt;Node7 -->
<g id="edge14_Node000004_Node000007" class="edge">
<title>Node4&#45;&gt;Node7</title>
<g id="a_edge14_Node000004_Node000007"><a xlink:title=" ">
<path fill="none" stroke="#63b8ff" d="M140.69,-110.3C120.01,-89.22 81.65,-50.13 59.61,-27.68"/>
<polygon fill="#63b8ff" stroke="#63b8ff" points="62.34,-25.46 52.84,-20.78 57.35,-30.37 62.34,-25.46"/>
</a>
</g>
</g>
<!-- Node10 -->
<g id="Node000010" class="node">
<title>Node10</title>
<g id="a_Node000010"><a xlink:title=" ">
<polygon fill="#e0e0e0" stroke="#999999" points="143.88,-19.25 103.88,-19.25 103.88,0 143.88,0 143.88,-19.25"/>
<text text-anchor="middle" x="123.88" y="-5.75" font-family="Helvetica,sans-Serif" font-size="10.00">string</text>
</a>
</g>
</g>
<!-- Node4&#45;&gt;Node10 -->
<g id="edge13_Node000004_Node000010" class="edge">
<title>Node4&#45;&gt;Node10</title>
<g id="a_edge13_Node000004_Node000010"><a xlink:title=" ">
<path fill="none" stroke="#63b8ff" d="M150.95,-110.3C145.48,-90.15 135.54,-53.56 129.34,-30.75"/>
<polygon fill="#63b8ff" stroke="#63b8ff" points="132.74,-29.89 126.74,-21.16 125.98,-31.73 132.74,-29.89"/>
</a>
</g>
</g>
<!-- Node12 -->
<g id="Node000012" class="node">
<title>Node12</title>
<g id="a_Node000012"><a xlink:title=" ">
<polygon fill="#e0e0e0" stroke="#999999" points="205.38,-19.25 162.38,-19.25 162.38,0 205.38,0 205.38,-19.25"/>
<text text-anchor="middle" x="183.88" y="-5.75" font-family="Helvetica,sans-Serif" font-size="10.00">vector</text>
</a>
</g>
</g>
<!-- Node4&#45;&gt;Node12 -->
<g id="edge12_Node000004_Node000012" class="edge">
<title>Node4&#45;&gt;Node12</title>
<g id="a_edge12_Node000004_Node000012"><a xlink:title=" ">
<path fill="none" stroke="#63b8ff" d="M158.55,-110.3C163.67,-90.15 172.97,-53.56 178.76,-30.75"/>
<polygon fill="#63b8ff" stroke="#63b8ff" points="182.13,-31.72 181.2,-21.16 175.34,-29.99 182.13,-31.72"/>
</a>
</g>
</g>
<!-- Node5&#45;&gt;Node6 -->
<g id="edge5_Node000005_Node000006" class="edge">
<title>Node5&#45;&gt;Node6</title>
<g id="a_edge5_Node000005_Node000006"><a xlink:title=" ">
<path fill="none" stroke="#63b8ff" d="M283.52,-54.84C299.5,-46.66 323.33,-34.46 341.91,-24.94"/>
<polygon fill="#63b8ff" stroke="#63b8ff" points="343.49,-28.07 350.8,-20.39 340.3,-21.83 343.49,-28.07"/>
</a>
</g>
</g>
<!-- Node5&#45;&gt;Node7 -->
<g id="edge6_Node000005_Node000007" class="edge">
<title>Node5&#45;&gt;Node7</title>
<g id="a_edge6_Node000005_Node000007"><a xlink:title=" ">
<path fill="none" stroke="#63b8ff" d="M227.79,-54.78C190.27,-45.82 132.78,-32.09 91.87,-22.32"/>
<polygon fill="#63b8ff" stroke="#63b8ff" points="92.81,-18.95 82.27,-20.03 91.19,-25.76 92.81,-18.95"/>
</a>
</g>
</g>
<!-- Node8 -->
<g id="Node000008" class="node">
<title>Node8</title>
<g id="a_Node000008"><a xlink:title=" ">
<polygon fill="#e0e0e0" stroke="#999999" points="329.5,-19.25 284.25,-19.25 284.25,0 329.5,0 329.5,-19.25"/>
<text text-anchor="middle" x="306.88" y="-5.75" font-family="Helvetica,sans-Serif" font-size="10.00">TFile.h</text>
</a>
</g>
</g>
<!-- Node5&#45;&gt;Node8 -->
<g id="edge7_Node000005_Node000008" class="edge">
<title>Node5&#45;&gt;Node8</title>
<g id="a_edge7_Node000005_Node000008"><a xlink:title=" ">
<path fill="none" stroke="#63b8ff" d="M272.65,-55.08C278.19,-47.88 286.22,-37.46 293.1,-28.51"/>
<polygon fill="#63b8ff" stroke="#63b8ff" points="295.71,-30.87 299.03,-20.81 290.16,-26.6 295.71,-30.87"/>
</a>
</g>
</g>
<!-- Node9 -->
<g id="Node000009" class="node">
<title>Node9</title>
<g id="a_Node000009"><a xlink:title=" ">
<polygon fill="#e0e0e0" stroke="#999999" points="266,-19.25 223.75,-19.25 223.75,0 266,0 266,-19.25"/>
<text text-anchor="middle" x="244.88" y="-5.75" font-family="Helvetica,sans-Serif" font-size="10.00">TH1.h</text>
</a>
</g>
</g>
<!-- Node5&#45;&gt;Node9 -->
<g id="edge8_Node000005_Node000009" class="edge">
<title>Node5&#45;&gt;Node9</title>
<g id="a_edge8_Node000005_Node000009"><a xlink:title=" ">
<path fill="none" stroke="#63b8ff" d="M262.41,-55.08C259.75,-48.34 255.98,-38.77 252.61,-30.24"/>
<polygon fill="#63b8ff" stroke="#63b8ff" points="255.9,-29.04 248.97,-21.02 249.39,-31.6 255.9,-29.04"/>
</a>
</g>
</g>
<!-- Node5&#45;&gt;Node10 -->
<g id="edge9_Node000005_Node000010" class="edge">
<title>Node5&#45;&gt;Node10</title>
<g id="a_edge9_Node000005_Node000010"><a xlink:title=" ">
<path fill="none" stroke="#63b8ff" d="M241.79,-54.84C217.69,-45.81 180.55,-31.88 154.41,-22.07"/>
<polygon fill="#63b8ff" stroke="#63b8ff" points="155.95,-18.92 145.36,-18.68 153.49,-25.47 155.95,-18.92"/>
</a>
</g>
</g>
<!-- Node5&#45;&gt;Node11 -->
<g id="edge10_Node000005_Node000011" class="edge">
<title>Node5&#45;&gt;Node11</title>
<g id="a_edge10_Node000005_Node000011"><a xlink:title=" ">
<path fill="none" stroke="#63b8ff" d="M294.88,-54.84C323.48,-45.94 367.35,-32.28 398.75,-22.5"/>
<polygon fill="#63b8ff" stroke="#63b8ff" points="399.75,-25.85 408.26,-19.54 397.67,-19.17 399.75,-25.85"/>
</a>
</g>
</g>
<!-- Node5&#45;&gt;Node12 -->
<g id="edge11_Node000005_Node000012" class="edge">
<title>Node5&#45;&gt;Node12</title>
<g id="a_edge11_Node000005_Node000012"><a xlink:title=" ">
<path fill="none" stroke="#63b8ff" d="M251.96,-54.84C239.71,-46.89 221.62,-35.14 207.16,-25.75"/>
<polygon fill="#63b8ff" stroke="#63b8ff" points="209.42,-23.04 199.12,-20.53 205.6,-28.91 209.42,-23.04"/>
</a>
</g>
</g>
</g>
</svg>
