<?xml version="1.0" encoding="UTF-8" standalone="no"?>
<!DOCTYPE svg PUBLIC "-//W3C//DTD SVG 1.1//EN"
 "http://www.w3.org/Graphics/SVG/1.1/DTD/svg11.dtd">
<!-- Generated by graphviz version 9.0.0 (20230911.1827)
 -->
<!-- Title: OscProbCalcerCHICLinear Pages: 1 -->
<svg width="768pt" height="320pt"
 viewBox="0.00 0.00 768.25 320.23" xmlns="http://www.w3.org/2000/svg" xmlns:xlink="http://www.w3.org/1999/xlink">
<g id="graph0" class="graph" transform="scale(1 1) rotate(0) translate(4 316.23)">
<title>OscProbCalcerCHICLinear</title>
<!-- Node1 -->
<g id="Node000001" class="node">
<title>Node1</title>
<g id="a_Node000001"><a xlink:title="Oscillation calculation engine for linear propagation in CHIC.">
<polygon fill="#999999" stroke="#666666" points="760.25,-140.6 627.25,-140.6 627.25,-121.35 760.25,-121.35 760.25,-140.6"/>
<text text-anchor="middle" x="693.75" y="-127.1" font-family="Helvetica,sans-Serif" font-size="10.00">OscProbCalcerCHICLinear</text>
</a>
</g>
</g>
<!-- Node2 -->
<g id="Node000002" class="node">
<title>Node2</title>
<g id="a_Node000002"><a xlink:href="classOscProbCalcerBase.html" target="_top" xlink:title="Oscillation calculation engine (CUDAProb3, ProbGPU, Prob3++, etc.) implementation agnostic base class...">
<polygon fill="white" stroke="#666666" points="536.5,-159.6 432,-159.6 432,-140.35 536.5,-140.35 536.5,-159.6"/>
<text text-anchor="middle" x="484.25" y="-146.1" font-family="Helvetica,sans-Serif" font-size="10.00">OscProbCalcerBase</text>
</a>
</g>
</g>
<!-- Node2&#45;&gt;Node1 -->
<g id="edge1_Node000001_Node000002" class="edge">
<title>Node2&#45;&gt;Node1</title>
<g id="a_edge1_Node000001_Node000002"><a xlink:title=" ">
<path fill="none" stroke="#63b8ff" d="M547.98,-144.23C572.94,-141.95 601.66,-139.32 626.91,-137"/>
<polygon fill="#63b8ff" stroke="#63b8ff" points="547.96,-140.72 538.32,-145.12 548.59,-147.69 547.96,-140.72"/>
</a>
</g>
</g>
<!-- Node3 -->
<g id="Node000003" class="node">
<title>Node3</title>
<g id="a_Node000003"><a xlink:title=" ">
<polygon fill="white" stroke="#666666" points="235.12,-304.6 147.12,-304.6 147.12,-285.35 235.12,-285.35 235.12,-304.6"/>
<text text-anchor="middle" x="191.12" y="-291.1" font-family="Helvetica,sans-Serif" font-size="10.00">std::vector&lt; int &gt;</text>
</a>
</g>
</g>
<!-- Node3&#45;&gt;Node2 -->
<g id="edge2_Node000002_Node000003" class="edge">
<title>Node3&#45;&gt;Node2</title>
<g id="a_edge2_Node000002_Node000003"><a xlink:title=" ">
<path fill="none" stroke="#9a32cd" stroke-dasharray="5,2" d="M246.77,-300.96C292.8,-303.27 358.62,-299.93 406.5,-269.98 449.06,-243.36 472.38,-183.5 480.22,-159.85"/>
<polygon fill="#9a32cd" stroke="#9a32cd" points="247.23,-297.49 237.03,-300.36 246.8,-304.47 247.23,-297.49"/>
</a>
</g>
<text text-anchor="middle" x="338.62" y="-302.73" font-family="Helvetica,sans-Serif" font-size="10.00" fill="grey"> fNeutrinoTypes</text>
</g>
<!-- Node4 -->
<g id="Node000004" class="node">
<title>Node4</title>
<g id="a_Node000004"><a xlink:title=" ">
<polygon fill="white" stroke="#666666" points="252.75,-267.23 129.5,-267.23 129.5,-236.73 252.75,-236.73 252.75,-267.23"/>
<text text-anchor="start" x="137.5" y="-253.73" font-family="Helvetica,sans-Serif" font-size="10.00">std::vector&lt; NuOscillator</text>
<text text-anchor="middle" x="191.12" y="-242.48" font-family="Helvetica,sans-Serif" font-size="10.00">::OscillationChannel &gt;</text>
</a>
</g>
</g>
<!-- Node4&#45;&gt;Node2 -->
<g id="edge3_Node000002_Node000004" class="edge">
<title>Node4&#45;&gt;Node2</title>
<g id="a_edge3_Node000002_Node000004"><a xlink:title=" ">
<path fill="none" stroke="#9a32cd" stroke-dasharray="5,2" d="M264.17,-255.74C307.44,-255.19 362.44,-249.39 406.5,-227.98 438.79,-212.28 465.24,-177.24 476.87,-159.98"/>
<polygon fill="#9a32cd" stroke="#9a32cd" points="264.38,-252.24 254.39,-255.76 264.4,-259.24 264.38,-252.24"/>
</a>
</g>
<text text-anchor="middle" x="338.62" y="-256.73" font-family="Helvetica,sans-Serif" font-size="10.00" fill="grey"> fOscillationChannels</text>
</g>
<!-- Node5 -->
<g id="Node000005" class="node">
<title>Node5</title>
<g id="a_Node000005"><a xlink:title=" ">
<polygon fill="white" stroke="#666666" points="251.62,-199.6 130.62,-199.6 130.62,-180.35 251.62,-180.35 251.62,-199.6"/>
<text text-anchor="middle" x="191.12" y="-186.1" font-family="Helvetica,sans-Serif" font-size="10.00">std::vector&lt; FLOAT_T &gt;</text>
</a>
</g>
</g>
<!-- Node5&#45;&gt;Node2 -->
<g id="edge4_Node000002_Node000005" class="edge">
<title>Node5&#45;&gt;Node2</title>
<g id="a_edge4_Node000002_Node000005"><a xlink:title=" ">
<path fill="none" stroke="#9a32cd" stroke-dasharray="5,2" d="M262.96,-181.18C304.76,-175.88 358.68,-168.84 406.5,-161.98 414.64,-160.81 423.26,-159.52 431.67,-158.22"/>
<polygon fill="#9a32cd" stroke="#9a32cd" points="262.77,-177.68 253.29,-182.4 263.65,-184.62 262.77,-177.68"/>
</a>
</g>
<text text-anchor="middle" x="338.62" y="-214.48" font-family="Helvetica,sans-Serif" font-size="10.00" fill="grey"> fCosineZArray</text>
<text text-anchor="middle" x="338.62" y="-203.23" font-family="Helvetica,sans-Serif" font-size="10.00" fill="grey">fEnergyArray</text>
<text text-anchor="middle" x="338.62" y="-191.98" font-family="Helvetica,sans-Serif" font-size="10.00" fill="grey">fOscParamsCurr</text>
<text text-anchor="middle" x="338.62" y="-180.73" font-family="Helvetica,sans-Serif" font-size="10.00" fill="grey">fWeightArray</text>
</g>
<!-- Node6 -->
<g id="Node000006" class="node">
<title>Node6</title>
<g id="a_Node000006"><a xlink:title=" ">
<polygon fill="white" stroke="#666666" points="220.12,-162.6 162.12,-162.6 162.12,-143.35 220.12,-143.35 220.12,-162.6"/>
<text text-anchor="middle" x="191.12" y="-149.1" font-family="Helvetica,sans-Serif" font-size="10.00">std::string</text>
</a>
</g>
</g>
<!-- Node6&#45;&gt;Node2 -->
<g id="edge5_Node000002_Node000006" class="edge">
<title>Node6&#45;&gt;Node2</title>
<g id="a_edge5_Node000002_Node000006"><a xlink:title=" ">
<path fill="none" stroke="#9a32cd" stroke-dasharray="5,2" d="M231.94,-151.64C244.37,-151.28 258.13,-150.93 270.75,-150.73 325.71,-149.84 388.68,-149.73 431.72,-149.8"/>
<polygon fill="#9a32cd" stroke="#9a32cd" points="231.91,-148.14 222.02,-151.95 232.12,-155.14 231.91,-148.14"/>
</a>
</g>
<text text-anchor="middle" x="338.62" y="-151.73" font-family="Helvetica,sans-Serif" font-size="10.00" fill="grey"> fImplementationName</text>
</g>
<!-- Node7 -->
<g id="Node000007" class="node">
<title>Node7</title>
<g id="a_Node000007"><a xlink:title=" ">
<polygon fill="white" stroke="#666666" points="92.5,-168.23 0,-168.23 0,-137.73 92.5,-137.73 92.5,-168.23"/>
<text text-anchor="start" x="8" y="-154.73" font-family="Helvetica,sans-Serif" font-size="10.00">std::basic_string&lt;</text>
<text text-anchor="middle" x="46.25" y="-143.48" font-family="Helvetica,sans-Serif" font-size="10.00"> Char &gt;</text>
</a>
</g>
</g>
<!-- Node7&#45;&gt;Node6 -->
<g id="edge6_Node000006_Node000007" class="edge">
<title>Node7&#45;&gt;Node6</title>
<g id="a_edge6_Node000006_Node000007"><a xlink:title=" ">
<path fill="none" stroke="#63b8ff" d="M104.3,-152.98C124.13,-152.98 145.51,-152.98 161.97,-152.98"/>
<polygon fill="#63b8ff" stroke="#63b8ff" points="104.36,-149.48 94.36,-152.98 104.36,-156.48 104.36,-149.48"/>
</a>
</g>
</g>
<!-- Node8 -->
<g id="Node000008" class="node">
<title>Node8</title>
<g id="a_Node000008"><a xlink:title=" ">
<polygon fill="white" stroke="#666666" points="241.88,-125.23 140.38,-125.23 140.38,-94.73 241.88,-94.73 241.88,-125.23"/>
<text text-anchor="start" x="148.38" y="-111.73" font-family="Helvetica,sans-Serif" font-size="10.00">std::vector&lt; FLOAT</text>
<text text-anchor="middle" x="191.12" y="-100.48" font-family="Helvetica,sans-Serif" font-size="10.00">_T * &gt;</text>
</a>
</g>
</g>
<!-- Node8&#45;&gt;Node2 -->
<g id="edge7_Node000002_Node000008" class="edge">
<title>Node8&#45;&gt;Node2</title>
<g id="a_edge7_Node000002_Node000008"><a xlink:title=" ">
<path fill="none" stroke="#9a32cd" stroke-dasharray="5,2" d="M253.54,-115.16C296.52,-119.19 355.19,-125.47 406.5,-133.73 417.12,-135.44 428.5,-137.64 439.15,-139.86"/>
<polygon fill="#9a32cd" stroke="#9a32cd" points="253.91,-111.68 243.63,-114.25 253.27,-118.65 253.91,-111.68"/>
</a>
</g>
<text text-anchor="middle" x="338.62" y="-134.73" font-family="Helvetica,sans-Serif" font-size="10.00" fill="grey"> fOscParams</text>
</g>
<!-- Node9 -->
<g id="Node000009" class="node">
<title>Node9</title>
<g id="a_Node000009"><a xlink:title=" ">
<polygon fill="white" stroke="#666666" points="250.88,-76.6 131.38,-76.6 131.38,-57.35 250.88,-57.35 250.88,-76.6"/>
<text text-anchor="middle" x="191.12" y="-63.1" font-family="Helvetica,sans-Serif" font-size="10.00">std::vector&lt; std::string &gt;</text>
</a>
</g>
</g>
<!-- Node9&#45;&gt;Node2 -->
<g id="edge8_Node000002_Node000009" class="edge">
<title>Node9&#45;&gt;Node2</title>
<g id="a_edge8_Node000002_Node000009"><a xlink:title=" ">
<path fill="none" stroke="#9a32cd" stroke-dasharray="5,2" d="M262.2,-57.83C307.47,-55.69 365.39,-60.45 406.5,-90.48 422.41,-102.1 409.86,-117.8 424.5,-130.98 428.56,-134.63 433.34,-137.59 438.38,-139.97"/>
<polygon fill="#9a32cd" stroke="#9a32cd" points="262.26,-54.32 252.49,-58.42 262.68,-61.3 262.26,-54.32"/>
</a>
</g>
<text text-anchor="start" x="270.75" y="-103.98" font-family="Helvetica,sans-Serif" font-size="10.00" fill="grey"> fExpectedOscillationParameter</text>
<text text-anchor="middle" x="338.62" y="-92.73" font-family="Helvetica,sans-Serif" font-size="10.00" fill="grey">Names</text>
</g>
<!-- Node10 -->
<g id="Node000010" class="node">
<title>Node10</title>
<g id="a_Node000010"><a xlink:title=" ">
<polygon fill="white" stroke="#666666" points="238.88,-30.6 143.38,-30.6 143.38,-11.35 238.88,-11.35 238.88,-30.6"/>
<text text-anchor="middle" x="191.12" y="-17.1" font-family="Helvetica,sans-Serif" font-size="10.00">std::vector&lt; bool &gt;</text>
</a>
</g>
</g>
<!-- Node10&#45;&gt;Node2 -->
<g id="edge9_Node000002_Node000010" class="edge">
<title>Node10&#45;&gt;Node2</title>
<g id="a_edge9_Node000002_Node000010"><a xlink:title=" ">
<path fill="none" stroke="#9a32cd" stroke-dasharray="5,2" d="M237.61,-8.42C285.63,1.82 360.61,8.8 406.5,-31.48 440.27,-61.12 394.92,-97.15 424.5,-130.98 427.68,-134.61 431.55,-137.55 435.78,-139.93"/>
<polygon fill="#9a32cd" stroke="#9a32cd" points="237.06,-4.96 228.08,-10.59 238.61,-11.79 237.06,-4.96"/>
</a>
</g>
<text text-anchor="start" x="280.5" y="-44.98" font-family="Helvetica,sans-Serif" font-size="10.00" fill="grey"> fOscillationParametersSet</text>
<text text-anchor="middle" x="338.62" y="-33.73" font-family="Helvetica,sans-Serif" font-size="10.00" fill="grey">Check</text>
</g>
<!-- Node11 -->
<g id="Node000011" class="node">
<title>Node11</title>
<g id="a_Node000011"><a xlink:title=" ">
<polygon fill="white" stroke="#666666" points="544,-121.6 424.5,-121.6 424.5,-102.35 544,-102.35 544,-121.6"/>
<text text-anchor="middle" x="484.25" y="-108.1" font-family="Helvetica,sans-Serif" font-size="10.00">std::unique_ptr&lt; CHIC &gt;</text>
</a>
</g>
</g>
<!-- Node11&#45;&gt;Node1 -->
<g id="edge10_Node000001_Node000011" class="edge">
<title>Node11&#45;&gt;Node1</title>
<g id="a_edge10_Node000001_Node000011"><a xlink:title=" ">
<path fill="none" stroke="#9a32cd" stroke-dasharray="5,2" d="M555.74,-111.5C557.85,-111.49 559.94,-111.48 562,-111.48 583,-111.41 588.39,-109.07 609.25,-111.48 625.37,-113.33 642.9,-117.14 657.72,-120.91"/>
<polygon fill="#9a32cd" stroke="#9a32cd" points="555.83,-108 545.85,-111.55 555.86,-115 555.83,-108"/>
</a>
</g>
<text text-anchor="middle" x="585.62" y="-123.98" font-family="Helvetica,sans-Serif" font-size="10.00" fill="grey"> chic_nu</text>
<text text-anchor="middle" x="585.62" y="-112.73" font-family="Helvetica,sans-Serif" font-size="10.00" fill="grey">chic_nubar</text>
</g>
</g>
</svg>
