<?xml version="1.0" encoding="UTF-8" standalone="no"?>
<!DOCTYPE svg PUBLIC "-//W3C//DTD SVG 1.1//EN"
 "http://www.w3.org/Graphics/SVG/1.1/DTD/svg11.dtd">
<!-- Generated by graphviz version 9.0.0 (20230911.1827)
 -->
<!-- Title: OscProbCalcerCUDAProb3 Pages: 1 -->
<svg width="835pt" height="308pt"
 viewBox="0.00 0.00 835.00 308.25" xmlns="http://www.w3.org/2000/svg" xmlns:xlink="http://www.w3.org/1999/xlink">
<g id="graph0" class="graph" transform="scale(1 1) rotate(0) translate(4 304.25)">
<title>OscProbCalcerCUDAProb3</title>
<!-- Node1 -->
<g id="Node000001" class="node">
<title>Node1</title>
<g id="a_Node000001"><a xlink:title="Oscillation calculation engine for linear and atmospheric propagation in CUDAProb3.">
<polygon fill="#999999" stroke="#666666" points="827,-114.25 691.75,-114.25 691.75,-95 827,-95 827,-114.25"/>
<text text-anchor="middle" x="759.38" y="-100.75" font-family="Helvetica,sans-Serif" font-size="10.00">OscProbCalcerCUDAProb3</text>
</a>
</g>
</g>
<!-- Node2 -->
<g id="Node000002" class="node">
<title>Node2</title>
<g id="a_Node000002"><a xlink:href="classOscProbCalcerBase.html" target="_top" xlink:title="Oscillation calculation engine (CUDAProb3, ProbGPU, Prob3++, etc.) implementation agnostic base class...">
<polygon fill="white" stroke="#666666" points="507.25,-181.25 402.75,-181.25 402.75,-162 507.25,-162 507.25,-181.25"/>
<text text-anchor="middle" x="455" y="-167.75" font-family="Helvetica,sans-Serif" font-size="10.00">OscProbCalcerBase</text>
</a>
</g>
</g>
<!-- Node2&#45;&gt;Node1 -->
<g id="edge1_Node000001_Node000002" class="edge">
<title>Node2&#45;&gt;Node1</title>
<g id="a_edge1_Node000001_Node000002"><a xlink:title=" ">
<path fill="none" stroke="#63b8ff" d="M512.75,-159.05C570.67,-146.22 659.44,-126.55 712.9,-114.7"/>
<polygon fill="#63b8ff" stroke="#63b8ff" points="512.08,-155.61 503.07,-161.19 513.59,-162.45 512.08,-155.61"/>
</a>
</g>
</g>
<!-- Node3 -->
<g id="Node000003" class="node">
<title>Node3</title>
<g id="a_Node000003"><a xlink:title=" ">
<polygon fill="white" stroke="#666666" points="235.12,-300.25 147.12,-300.25 147.12,-281 235.12,-281 235.12,-300.25"/>
<text text-anchor="middle" x="191.12" y="-286.75" font-family="Helvetica,sans-Serif" font-size="10.00">std::vector&lt; int &gt;</text>
</a>
</g>
</g>
<!-- Node3&#45;&gt;Node1 -->
<g id="edge7_Node000001_Node000003" class="edge">
<title>Node3&#45;&gt;Node1</title>
<g id="a_edge7_Node000001_Node000003"><a xlink:title=" ">
<path fill="none" stroke="#9a32cd" stroke-dasharray="5,2" d="M247.09,-294.46C282.35,-295.6 328.88,-294.65 369,-285.62 525,-250.53 692.94,-147.17 743.29,-114.59"/>
<polygon fill="#9a32cd" stroke="#9a32cd" points="247.23,-290.96 237.1,-294.06 246.95,-297.96 247.23,-290.96"/>
</a>
</g>
<text text-anchor="middle" x="455" y="-282.38" font-family="Helvetica,sans-Serif" font-size="10.00" fill="grey"> OscChannels</text>
</g>
<!-- Node3&#45;&gt;Node2 -->
<g id="edge2_Node000002_Node000003" class="edge">
<title>Node3&#45;&gt;Node2</title>
<g id="a_edge2_Node000002_Node000003"><a xlink:title=" ">
<path fill="none" stroke="#9a32cd" stroke-dasharray="5,2" d="M246.26,-279.1C296.2,-268.35 363.45,-253.55 369,-250.62 402.5,-232.95 432.64,-198.63 446.28,-181.64"/>
<polygon fill="#9a32cd" stroke="#9a32cd" points="245.79,-275.62 236.74,-281.14 247.26,-282.46 245.79,-275.62"/>
</a>
</g>
<text text-anchor="middle" x="319.88" y="-274.38" font-family="Helvetica,sans-Serif" font-size="10.00" fill="grey"> fNeutrinoTypes</text>
</g>
<!-- Node4 -->
<g id="Node000004" class="node">
<title>Node4</title>
<g id="a_Node000004"><a xlink:title=" ">
<polygon fill="white" stroke="#666666" points="252.75,-254.88 129.5,-254.88 129.5,-224.38 252.75,-224.38 252.75,-254.88"/>
<text text-anchor="start" x="137.5" y="-241.38" font-family="Helvetica,sans-Serif" font-size="10.00">std::vector&lt; NuOscillator</text>
<text text-anchor="middle" x="191.12" y="-230.12" font-family="Helvetica,sans-Serif" font-size="10.00">::OscillationChannel &gt;</text>
</a>
</g>
</g>
<!-- Node4&#45;&gt;Node2 -->
<g id="edge3_Node000002_Node000004" class="edge">
<title>Node4&#45;&gt;Node2</title>
<g id="a_edge3_Node000002_Node000004"><a xlink:title=" ">
<path fill="none" stroke="#9a32cd" stroke-dasharray="5,2" d="M264.34,-236.73C296.92,-233.88 335.52,-228.35 369,-217.62 395.37,-209.18 423.06,-192.51 439.41,-181.73"/>
<polygon fill="#9a32cd" stroke="#9a32cd" points="264.29,-233.22 254.6,-237.51 264.84,-240.2 264.29,-233.22"/>
</a>
</g>
<text text-anchor="middle" x="319.88" y="-237.38" font-family="Helvetica,sans-Serif" font-size="10.00" fill="grey"> fOscillationChannels</text>
</g>
<!-- Node5 -->
<g id="Node000005" class="node">
<title>Node5</title>
<g id="a_Node000005"><a xlink:title=" ">
<polygon fill="white" stroke="#666666" points="251.62,-181.25 130.62,-181.25 130.62,-162 251.62,-162 251.62,-181.25"/>
<text text-anchor="middle" x="191.12" y="-167.75" font-family="Helvetica,sans-Serif" font-size="10.00">std::vector&lt; FLOAT_T &gt;</text>
</a>
</g>
</g>
<!-- Node5&#45;&gt;Node2 -->
<g id="edge4_Node000002_Node000005" class="edge">
<title>Node5&#45;&gt;Node2</title>
<g id="a_edge4_Node000002_Node000005"><a xlink:title=" ">
<path fill="none" stroke="#9a32cd" stroke-dasharray="5,2" d="M263.37,-171.62C307.34,-171.62 362.73,-171.62 402.46,-171.62"/>
<polygon fill="#9a32cd" stroke="#9a32cd" points="263.39,-168.13 253.39,-171.63 263.39,-175.13 263.39,-168.13"/>
</a>
</g>
<text text-anchor="middle" x="319.88" y="-207.12" font-family="Helvetica,sans-Serif" font-size="10.00" fill="grey"> fCosineZArray</text>
<text text-anchor="middle" x="319.88" y="-195.88" font-family="Helvetica,sans-Serif" font-size="10.00" fill="grey">fEnergyArray</text>
<text text-anchor="middle" x="319.88" y="-184.62" font-family="Helvetica,sans-Serif" font-size="10.00" fill="grey">fOscParamsCurr</text>
<text text-anchor="middle" x="319.88" y="-173.38" font-family="Helvetica,sans-Serif" font-size="10.00" fill="grey">fWeightArray</text>
</g>
<!-- Node6 -->
<g id="Node000006" class="node">
<title>Node6</title>
<g id="a_Node000006"><a xlink:title=" ">
<polygon fill="white" stroke="#666666" points="220.12,-129.25 162.12,-129.25 162.12,-110 220.12,-110 220.12,-129.25"/>
<text text-anchor="middle" x="191.12" y="-115.75" font-family="Helvetica,sans-Serif" font-size="10.00">std::string</text>
</a>
</g>
</g>
<!-- Node6&#45;&gt;Node1 -->
<g id="edge9_Node000001_Node000006" class="edge">
<title>Node6&#45;&gt;Node1</title>
<g id="a_edge9_Node000001_Node000006"><a xlink:title=" ">
<path fill="none" stroke="#9a32cd" stroke-dasharray="5,2" d="M232.08,-118.57C328.08,-116.02 572.59,-109.55 691.46,-106.4"/>
<polygon fill="#9a32cd" stroke="#9a32cd" points="232.01,-115.07 222.11,-118.83 232.2,-122.06 232.01,-115.07"/>
</a>
</g>
<text text-anchor="middle" x="455" y="-126.62" font-family="Helvetica,sans-Serif" font-size="10.00" fill="grey"> EarthDensityFile</text>
<text text-anchor="middle" x="455" y="-115.38" font-family="Helvetica,sans-Serif" font-size="10.00" fill="grey">ProductionHeightsFile</text>
</g>
<!-- Node6&#45;&gt;Node2 -->
<g id="edge5_Node000002_Node000006" class="edge">
<title>Node6&#45;&gt;Node2</title>
<g id="a_edge5_Node000002_Node000006"><a xlink:title=" ">
<path fill="none" stroke="#9a32cd" stroke-dasharray="5,2" d="M231.67,-127.48C277.56,-136.59 353.35,-151.64 403.47,-161.59"/>
<polygon fill="#9a32cd" stroke="#9a32cd" points="232.37,-124.05 221.88,-125.53 231.01,-130.91 232.37,-124.05"/>
</a>
</g>
<text text-anchor="middle" x="319.88" y="-154.38" font-family="Helvetica,sans-Serif" font-size="10.00" fill="grey"> fImplementationName</text>
</g>
<!-- Node7 -->
<g id="Node000007" class="node">
<title>Node7</title>
<g id="a_Node000007"><a xlink:title=" ">
<polygon fill="white" stroke="#666666" points="92.5,-134.88 0,-134.88 0,-104.38 92.5,-104.38 92.5,-134.88"/>
<text text-anchor="start" x="8" y="-121.38" font-family="Helvetica,sans-Serif" font-size="10.00">std::basic_string&lt;</text>
<text text-anchor="middle" x="46.25" y="-110.12" font-family="Helvetica,sans-Serif" font-size="10.00"> Char &gt;</text>
</a>
</g>
</g>
<!-- Node7&#45;&gt;Node6 -->
<g id="edge6_Node000006_Node000007" class="edge">
<title>Node7&#45;&gt;Node6</title>
<g id="a_edge6_Node000006_Node000007"><a xlink:title=" ">
<path fill="none" stroke="#63b8ff" d="M104.3,-119.62C124.13,-119.62 145.51,-119.62 161.97,-119.62"/>
<polygon fill="#63b8ff" stroke="#63b8ff" points="104.36,-116.13 94.36,-119.63 104.36,-123.13 104.36,-116.13"/>
</a>
</g>
</g>
<!-- Node8 -->
<g id="Node000008" class="node">
<title>Node8</title>
<g id="a_Node000008"><a xlink:title=" ">
<polygon fill="white" stroke="#666666" points="523,-68.88 387,-68.88 387,-38.38 523,-38.38 523,-68.88"/>
<text text-anchor="start" x="395" y="-55.38" font-family="Helvetica,sans-Serif" font-size="10.00">std::unique_ptr&lt; cudaprob3</text>
<text text-anchor="middle" x="455" y="-44.12" font-family="Helvetica,sans-Serif" font-size="10.00">::Propagator&lt; FLOAT_T &gt; &gt;</text>
</a>
</g>
</g>
<!-- Node8&#45;&gt;Node1 -->
<g id="edge8_Node000001_Node000008" class="edge">
<title>Node8&#45;&gt;Node1</title>
<g id="a_edge8_Node000001_Node000008"><a xlink:title=" ">
<path fill="none" stroke="#9a32cd" stroke-dasharray="5,2" d="M534.65,-59.63C576.27,-63.64 628.09,-69.94 673.75,-79.38 692.52,-83.25 713.13,-89.37 729.32,-94.6"/>
<polygon fill="#9a32cd" stroke="#9a32cd" points="534.98,-56.15 524.7,-58.7 534.33,-63.12 534.98,-56.15"/>
</a>
</g>
<text text-anchor="middle" x="607.38" y="-80.38" font-family="Helvetica,sans-Serif" font-size="10.00" fill="grey"> propagator</text>
</g>
<!-- Node9 -->
<g id="Node000009" class="node">
<title>Node9</title>
<g id="a_Node000009"><a xlink:title=" ">
<polygon fill="white" stroke="#666666" points="514.75,-19.25 395.25,-19.25 395.25,0 514.75,0 514.75,-19.25"/>
<text text-anchor="middle" x="455" y="-5.75" font-family="Helvetica,sans-Serif" font-size="10.00">std::vector&lt; std::string &gt;</text>
</a>
</g>
</g>
<!-- Node9&#45;&gt;Node1 -->
<g id="edge10_Node000001_Node000009" class="edge">
<title>Node9&#45;&gt;Node1</title>
<g id="a_edge10_Node000001_Node000009"><a xlink:title=" ">
<path fill="none" stroke="#9a32cd" stroke-dasharray="5,2" d="M526.62,-7.41C570.56,-8.46 627.34,-14.32 673.75,-34.12 706.29,-48.01 735.99,-78.64 749.97,-94.57"/>
<polygon fill="#9a32cd" stroke="#9a32cd" points="526.73,-3.91 516.68,-7.26 526.63,-10.91 526.73,-3.91"/>
</a>
</g>
<text text-anchor="start" x="541" y="-47.62" font-family="Helvetica,sans-Serif" font-size="10.00" fill="grey"> ProductionHeightsHistFlavour</text>
<text text-anchor="middle" x="607.38" y="-36.38" font-family="Helvetica,sans-Serif" font-size="10.00" fill="grey">Suffixes</text>
</g>
</g>
</svg>
