<?xml version="1.0" encoding="UTF-8" standalone="no"?>
<!DOCTYPE svg PUBLIC "-//W3C//DTD SVG 1.1//EN"
 "http://www.w3.org/Graphics/SVG/1.1/DTD/svg11.dtd">
<!-- Generated by graphviz version 9.0.0 (20230911.1827)
 -->
<!-- Title: OscProbCalcerBase Pages: 1 -->
<svg width="311pt" height="360pt"
 viewBox="0.00 0.00 310.75 360.25" xmlns="http://www.w3.org/2000/svg" xmlns:xlink="http://www.w3.org/1999/xlink">
<g id="graph0" class="graph" transform="scale(1 1) rotate(0) translate(4 356.25)">
<title>OscProbCalcerBase</title>
<!-- Node1 -->
<g id="Node000001" class="node">
<title>Node1</title>
<g id="a_Node000001"><a xlink:title="Oscillation calculation engine (CUDAProb3, ProbGPU, Prob3++, etc.) implementation agnostic base class...">
<polygon fill="#999999" stroke="#666666" points="104.5,-185.25 0,-185.25 0,-166 104.5,-166 104.5,-185.25"/>
<text text-anchor="middle" x="52.25" y="-171.75" font-family="Helvetica,sans-Serif" font-size="10.00">OscProbCalcerBase</text>
</a>
</g>
</g>
<!-- Node2 -->
<g id="Node000002" class="node">
<title>Node2</title>
<g id="a_Node000002"><a xlink:href="classOscProbCalcerCHICLinear.html" target="_top" xlink:title="Oscillation calculation engine for linear propagation in CHIC.">
<polygon fill="white" stroke="#666666" points="288.12,-352.25 155.12,-352.25 155.12,-333 288.12,-333 288.12,-352.25"/>
<text text-anchor="middle" x="221.62" y="-338.75" font-family="Helvetica,sans-Serif" font-size="10.00">OscProbCalcerCHICLinear</text>
</a>
</g>
</g>
<!-- Node1&#45;&gt;Node2 -->
<g id="edge1_Node000001_Node000002" class="edge">
<title>Node1&#45;&gt;Node2</title>
<g id="a_edge1_Node000001_Node000002"><a xlink:title=" ">
<path fill="none" stroke="#63b8ff" d="M59.43,-196.4C70.25,-229.05 95.86,-292.01 140.5,-324.62 144.87,-327.82 149.72,-330.47 154.79,-332.65"/>
<polygon fill="#63b8ff" stroke="#63b8ff" points="62.79,-195.43 56.45,-186.94 56.11,-197.53 62.79,-195.43"/>
</a>
</g>
</g>
<!-- Node3 -->
<g id="Node000003" class="node">
<title>Node3</title>
<g id="a_Node000003"><a xlink:href="classOscProbCalcerCUDAProb3.html" target="_top" xlink:title="Oscillation calculation engine for linear and atmospheric propagation in CUDAProb3.">
<polygon fill="white" stroke="#666666" points="289.25,-315.25 154,-315.25 154,-296 289.25,-296 289.25,-315.25"/>
<text text-anchor="middle" x="221.62" y="-301.75" font-family="Helvetica,sans-Serif" font-size="10.00">OscProbCalcerCUDAProb3</text>
</a>
</g>
</g>
<!-- Node1&#45;&gt;Node3 -->
<g id="edge2_Node000001_Node000003" class="edge">
<title>Node1&#45;&gt;Node3</title>
<g id="a_edge2_Node000001_Node000003"><a xlink:title=" ">
<path fill="none" stroke="#63b8ff" d="M63.17,-195.57C76.92,-221.06 104.23,-264.63 140.5,-287.62 145.56,-290.83 151.11,-293.47 156.86,-295.64"/>
<polygon fill="#63b8ff" stroke="#63b8ff" points="66.39,-194.17 58.67,-186.91 60.17,-197.4 66.39,-194.17"/>
</a>
</g>
</g>
<!-- Node4 -->
<g id="Node000004" class="node">
<title>Node4</title>
<g id="a_Node000004"><a xlink:href="classOscProbCalcerCUDAProb3Linear.html" target="_top" xlink:title="Oscillation calculation engine for linear propagation in CUDAProb3.">
<polygon fill="white" stroke="#666666" points="302.75,-278.25 140.5,-278.25 140.5,-259 302.75,-259 302.75,-278.25"/>
<text text-anchor="middle" x="221.62" y="-264.75" font-family="Helvetica,sans-Serif" font-size="10.00">OscProbCalcerCUDAProb3Linear</text>
</a>
</g>
</g>
<!-- Node1&#45;&gt;Node4 -->
<g id="edge3_Node000001_Node000004" class="edge">
<title>Node1&#45;&gt;Node4</title>
<g id="a_edge3_Node000001_Node000004"><a xlink:title=" ">
<path fill="none" stroke="#63b8ff" d="M69.3,-193.83C85.54,-211.08 112.23,-236.42 140.5,-250.62 146.74,-253.76 153.53,-256.36 160.43,-258.5"/>
<polygon fill="#63b8ff" stroke="#63b8ff" points="72.16,-191.77 62.83,-186.76 67,-196.5 72.16,-191.77"/>
</a>
</g>
</g>
<!-- Node5 -->
<g id="Node000005" class="node">
<title>Node5</title>
<g id="a_Node000005"><a xlink:href="classOscProbCalcerGLoBESLinear.html" target="_top" xlink:title="Oscillation calculation engine for linear propagation in GLoBES.">
<polygon fill="white" stroke="#666666" points="295.25,-241.25 148,-241.25 148,-222 295.25,-222 295.25,-241.25"/>
<text text-anchor="middle" x="221.62" y="-227.75" font-family="Helvetica,sans-Serif" font-size="10.00">OscProbCalcerGLoBESLinear</text>
</a>
</g>
</g>
<!-- Node1&#45;&gt;Node5 -->
<g id="edge4_Node000001_Node000005" class="edge">
<title>Node1&#45;&gt;Node5</title>
<g id="a_edge4_Node000001_Node000005"><a xlink:title=" ">
<path fill="none" stroke="#63b8ff" d="M83.44,-190.46C99.99,-198.17 121.05,-207.27 140.5,-213.62 149.58,-216.59 159.4,-219.24 168.94,-221.53"/>
<polygon fill="#63b8ff" stroke="#63b8ff" points="85.18,-187.41 74.64,-186.3 82.18,-193.74 85.18,-187.41"/>
</a>
</g>
</g>
<!-- Node6 -->
<g id="Node000006" class="node">
<title>Node6</title>
<g id="a_Node000006"><a xlink:href="classOscProbCalcerNuFASTEarth.html" target="_top" xlink:title="Oscillation calculation engine for linear propagation in NuFAST.">
<polygon fill="white" stroke="#666666" points="293,-204.25 150.25,-204.25 150.25,-185 293,-185 293,-204.25"/>
<text text-anchor="middle" x="221.62" y="-190.75" font-family="Helvetica,sans-Serif" font-size="10.00">OscProbCalcerNuFASTEarth</text>
</a>
</g>
</g>
<!-- Node1&#45;&gt;Node6 -->
<g id="edge5_Node000001_Node000006" class="edge">
<title>Node1&#45;&gt;Node6</title>
<g id="a_edge5_Node000001_Node000006"><a xlink:title=" ">
<path fill="none" stroke="#63b8ff" d="M116.08,-182.76C127.09,-184.01 138.61,-185.32 149.82,-186.59"/>
<polygon fill="#63b8ff" stroke="#63b8ff" points="116.67,-179.3 106.34,-181.65 115.88,-186.26 116.67,-179.3"/>
</a>
</g>
</g>
<!-- Node7 -->
<g id="Node000007" class="node">
<title>Node7</title>
<g id="a_Node000007"><a xlink:href="classOscProbCalcerNuFASTLinear.html" target="_top" xlink:title="Oscillation calculation engine for linear propagation in NuFAST.">
<polygon fill="white" stroke="#666666" points="295.25,-167.25 148,-167.25 148,-148 295.25,-148 295.25,-167.25"/>
<text text-anchor="middle" x="221.62" y="-153.75" font-family="Helvetica,sans-Serif" font-size="10.00">OscProbCalcerNuFASTLinear</text>
</a>
</g>
</g>
<!-- Node1&#45;&gt;Node7 -->
<g id="edge6_Node000001_Node000007" class="edge">
<title>Node1&#45;&gt;Node7</title>
<g id="a_edge6_Node000001_Node000007"><a xlink:title=" ">
<path fill="none" stroke="#63b8ff" d="M116.2,-168.85C126.47,-167.75 137.19,-166.6 147.68,-165.47"/>
<polygon fill="#63b8ff" stroke="#63b8ff" points="115.91,-165.37 106.34,-169.92 116.66,-172.33 115.91,-165.37"/>
</a>
</g>
</g>
<!-- Node8 -->
<g id="Node000008" class="node">
<title>Node8</title>
<g id="a_Node000008"><a xlink:href="classOscProbCalcerNuSQUIDSLinear.html" target="_top" xlink:title="Oscillation calculation engine for linear propagation in NuSQUIDS.">
<polygon fill="white" stroke="#666666" points="301.62,-130.25 141.62,-130.25 141.62,-111 301.62,-111 301.62,-130.25"/>
<text text-anchor="middle" x="221.62" y="-116.75" font-family="Helvetica,sans-Serif" font-size="10.00">OscProbCalcerNuSQUIDSLinear</text>
</a>
</g>
</g>
<!-- Node1&#45;&gt;Node8 -->
<g id="edge7_Node000001_Node000008" class="edge">
<title>Node1&#45;&gt;Node8</title>
<g id="a_edge7_Node000001_Node000008"><a xlink:title=" ">
<path fill="none" stroke="#63b8ff" d="M84.14,-160.92C100.6,-153.49 121.35,-144.78 140.5,-138.62 149.73,-135.66 159.71,-133 169.39,-130.69"/>
<polygon fill="#63b8ff" stroke="#63b8ff" points="83.01,-157.59 75.38,-164.94 85.93,-163.95 83.01,-157.59"/>
</a>
</g>
</g>
<!-- Node9 -->
<g id="Node000009" class="node">
<title>Node9</title>
<g id="a_Node000009"><a xlink:href="classOscProbCalcerOscProb.html" target="_top" xlink:title="Oscillation calculation engine for propagation in OscProb.">
<polygon fill="white" stroke="#666666" points="281.75,-93.25 161.5,-93.25 161.5,-74 281.75,-74 281.75,-93.25"/>
<text text-anchor="middle" x="221.62" y="-79.75" font-family="Helvetica,sans-Serif" font-size="10.00">OscProbCalcerOscProb</text>
</a>
</g>
</g>
<!-- Node1&#45;&gt;Node9 -->
<g id="edge8_Node000001_Node000009" class="edge">
<title>Node1&#45;&gt;Node9</title>
<g id="a_edge8_Node000001_Node000009"><a xlink:title=" ">
<path fill="none" stroke="#63b8ff" d="M69.35,-157.67C85.63,-140.65 112.34,-115.65 140.5,-101.62 147.01,-98.38 154.1,-95.72 161.29,-93.53"/>
<polygon fill="#63b8ff" stroke="#63b8ff" points="67.12,-154.93 62.87,-164.64 72.24,-159.7 67.12,-154.93"/>
</a>
</g>
</g>
<!-- Node10 -->
<g id="Node000010" class="node">
<title>Node10</title>
<g id="a_Node000010"><a xlink:href="classOscProbCalcerProb3ppLinear.html" target="_top" xlink:title="Oscillation calculation engine for linear propagation in Prob3pp.">
<polygon fill="white" stroke="#666666" points="294.12,-56.25 149.12,-56.25 149.12,-37 294.12,-37 294.12,-56.25"/>
<text text-anchor="middle" x="221.62" y="-42.75" font-family="Helvetica,sans-Serif" font-size="10.00">OscProbCalcerProb3ppLinear</text>
</a>
</g>
</g>
<!-- Node1&#45;&gt;Node10 -->
<g id="edge9_Node000001_Node000010" class="edge">
<title>Node1&#45;&gt;Node10</title>
<g id="a_edge9_Node000001_Node000010"><a xlink:title=" ">
<path fill="none" stroke="#63b8ff" d="M63.22,-155.85C77.02,-130.59 104.38,-87.41 140.5,-64.62 145.56,-61.43 151.12,-58.8 156.88,-56.63"/>
<polygon fill="#63b8ff" stroke="#63b8ff" points="60.26,-153.95 58.7,-164.43 66.46,-157.21 60.26,-153.95"/>
</a>
</g>
</g>
<!-- Node11 -->
<g id="Node000011" class="node">
<title>Node11</title>
<g id="a_Node000011"><a xlink:href="classOscProbCalcerProbGPULinear.html" target="_top" xlink:title="Oscillation calculation engine for linear propagation in ProbGPU.">
<polygon fill="white" stroke="#666666" points="297.12,-19.25 146.12,-19.25 146.12,0 297.12,0 297.12,-19.25"/>
<text text-anchor="middle" x="221.62" y="-5.75" font-family="Helvetica,sans-Serif" font-size="10.00">OscProbCalcerProbGPULinear</text>
</a>
</g>
</g>
<!-- Node1&#45;&gt;Node11 -->
<g id="edge10_Node000001_Node000011" class="edge">
<title>Node1&#45;&gt;Node11</title>
<g id="a_edge10_Node000001_Node000011"><a xlink:title=" ">
<path fill="none" stroke="#63b8ff" d="M59.47,-154.99C70.35,-122.55 96.03,-60.02 140.5,-27.62 144.88,-24.44 149.72,-21.8 154.8,-19.61"/>
<polygon fill="#63b8ff" stroke="#63b8ff" points="56.18,-153.79 56.47,-164.38 62.85,-155.91 56.18,-153.79"/>
</a>
</g>
</g>
</g>
</svg>
