<?xml version="1.0" encoding="UTF-8" standalone="no"?>
<!DOCTYPE svg PUBLIC "-//W3C//DTD SVG 1.1//EN"
 "http://www.w3.org/Graphics/SVG/1.1/DTD/svg11.dtd">
<!-- Generated by graphviz version 9.0.0 (20230911.1827)
 -->
<!-- Title: OscProbCalcerProbGPULinear Pages: 1 -->
<svg width="725pt" height="312pt"
 viewBox="0.00 0.00 725.00 311.61" xmlns="http://www.w3.org/2000/svg" xmlns:xlink="http://www.w3.org/1999/xlink">
<g id="graph0" class="graph" transform="scale(1 1) rotate(0) translate(4 307.61)">
<title>OscProbCalcerProbGPULinear</title>
<!-- Node1 -->
<g id="Node000001" class="node">
<title>Node1</title>
<g id="a_Node000001"><a xlink:title="Oscillation calculation engine for linear propagation in ProbGPU.">
<polygon fill="#999999" stroke="#666666" points="717,-148.98 566,-148.98 566,-129.73 717,-129.73 717,-148.98"/>
<text text-anchor="middle" x="641.5" y="-135.48" font-family="Helvetica,sans-Serif" font-size="10.00">OscProbCalcerProbGPULinear</text>
</a>
</g>
</g>
<!-- Node2 -->
<g id="Node000002" class="node">
<title>Node2</title>
<g id="a_Node000002"><a xlink:href="classOscProbCalcerBase.html" target="_top" xlink:title="Oscillation calculation engine (CUDAProb3, ProbGPU, Prob3++, etc.) implementation agnostic base class...">
<polygon fill="white" stroke="#666666" points="529,-148.98 424.5,-148.98 424.5,-129.73 529,-129.73 529,-148.98"/>
<text text-anchor="middle" x="476.75" y="-135.48" font-family="Helvetica,sans-Serif" font-size="10.00">OscProbCalcerBase</text>
</a>
</g>
</g>
<!-- Node2&#45;&gt;Node1 -->
<g id="edge1_Node000001_Node000002" class="edge">
<title>Node2&#45;&gt;Node1</title>
<g id="a_edge1_Node000001_Node000002"><a xlink:title=" ">
<path fill="none" stroke="#63b8ff" d="M540.59,-139.36C548.77,-139.36 557.21,-139.36 565.56,-139.36"/>
<polygon fill="#63b8ff" stroke="#63b8ff" points="540.76,-135.86 530.76,-139.36 540.76,-142.86 540.76,-135.86"/>
</a>
</g>
</g>
<!-- Node3 -->
<g id="Node000003" class="node">
<title>Node3</title>
<g id="a_Node000003"><a xlink:title=" ">
<polygon fill="white" stroke="#666666" points="235.12,-293.98 147.12,-293.98 147.12,-274.73 235.12,-274.73 235.12,-293.98"/>
<text text-anchor="middle" x="191.12" y="-280.48" font-family="Helvetica,sans-Serif" font-size="10.00">std::vector&lt; int &gt;</text>
</a>
</g>
</g>
<!-- Node3&#45;&gt;Node2 -->
<g id="edge2_Node000002_Node000003" class="edge">
<title>Node3&#45;&gt;Node2</title>
<g id="a_edge2_Node000002_Node000003"><a xlink:title=" ">
<path fill="none" stroke="#9a32cd" stroke-dasharray="5,2" d="M246.71,-291.56C292.99,-294.8 359.18,-292.41 406.5,-261.36 447.84,-234.24 467.16,-173.42 473.39,-149.39"/>
<polygon fill="#9a32cd" stroke="#9a32cd" points="247.16,-288.09 236.91,-290.76 246.59,-295.07 247.16,-288.09"/>
</a>
</g>
<text text-anchor="middle" x="338.62" y="-294.11" font-family="Helvetica,sans-Serif" font-size="10.00" fill="grey"> fNeutrinoTypes</text>
</g>
<!-- Node4 -->
<g id="Node000004" class="node">
<title>Node4</title>
<g id="a_Node000004"><a xlink:title=" ">
<polygon fill="white" stroke="#666666" points="252.75,-256.61 129.5,-256.61 129.5,-226.11 252.75,-226.11 252.75,-256.61"/>
<text text-anchor="start" x="137.5" y="-243.11" font-family="Helvetica,sans-Serif" font-size="10.00">std::vector&lt; NuOscillator</text>
<text text-anchor="middle" x="191.12" y="-231.86" font-family="Helvetica,sans-Serif" font-size="10.00">::OscillationChannel &gt;</text>
</a>
</g>
</g>
<!-- Node4&#45;&gt;Node2 -->
<g id="edge3_Node000002_Node000004" class="edge">
<title>Node4&#45;&gt;Node2</title>
<g id="a_edge3_Node000002_Node000004"><a xlink:title=" ">
<path fill="none" stroke="#9a32cd" stroke-dasharray="5,2" d="M264.15,-246.43C307.64,-246.47 362.89,-241.01 406.5,-218.36 437.25,-202.39 460.5,-166.61 470.45,-149.22"/>
<polygon fill="#9a32cd" stroke="#9a32cd" points="264.35,-242.93 254.3,-246.31 264.26,-249.93 264.35,-242.93"/>
</a>
</g>
<text text-anchor="middle" x="338.62" y="-248.11" font-family="Helvetica,sans-Serif" font-size="10.00" fill="grey"> fOscillationChannels</text>
</g>
<!-- Node5 -->
<g id="Node000005" class="node">
<title>Node5</title>
<g id="a_Node000005"><a xlink:title=" ">
<polygon fill="white" stroke="#666666" points="251.62,-188.98 130.62,-188.98 130.62,-169.73 251.62,-169.73 251.62,-188.98"/>
<text text-anchor="middle" x="191.12" y="-175.48" font-family="Helvetica,sans-Serif" font-size="10.00">std::vector&lt; FLOAT_T &gt;</text>
</a>
</g>
</g>
<!-- Node5&#45;&gt;Node2 -->
<g id="edge4_Node000002_Node000005" class="edge">
<title>Node5&#45;&gt;Node2</title>
<g id="a_edge4_Node000002_Node000005"><a xlink:title=" ">
<path fill="none" stroke="#9a32cd" stroke-dasharray="5,2" d="M263,-170.86C304.82,-165.65 358.74,-158.61 406.5,-151.36 412.29,-150.48 418.34,-149.51 424.36,-148.51"/>
<polygon fill="#9a32cd" stroke="#9a32cd" points="262.82,-167.35 253.32,-172.05 263.68,-174.3 262.82,-167.35"/>
</a>
</g>
<text text-anchor="middle" x="338.62" y="-204.86" font-family="Helvetica,sans-Serif" font-size="10.00" fill="grey"> fCosineZArray</text>
<text text-anchor="middle" x="338.62" y="-193.61" font-family="Helvetica,sans-Serif" font-size="10.00" fill="grey">fEnergyArray</text>
<text text-anchor="middle" x="338.62" y="-182.36" font-family="Helvetica,sans-Serif" font-size="10.00" fill="grey">fOscParamsCurr</text>
<text text-anchor="middle" x="338.62" y="-171.11" font-family="Helvetica,sans-Serif" font-size="10.00" fill="grey">fWeightArray</text>
</g>
<!-- Node6 -->
<g id="Node000006" class="node">
<title>Node6</title>
<g id="a_Node000006"><a xlink:title=" ">
<polygon fill="white" stroke="#666666" points="220.12,-151.98 162.12,-151.98 162.12,-132.73 220.12,-132.73 220.12,-151.98"/>
<text text-anchor="middle" x="191.12" y="-138.48" font-family="Helvetica,sans-Serif" font-size="10.00">std::string</text>
</a>
</g>
</g>
<!-- Node6&#45;&gt;Node2 -->
<g id="edge5_Node000002_Node000006" class="edge">
<title>Node6&#45;&gt;Node2</title>
<g id="a_edge5_Node000002_Node000006"><a xlink:title=" ">
<path fill="none" stroke="#9a32cd" stroke-dasharray="5,2" d="M231.94,-141.03C244.37,-140.66 258.13,-140.31 270.75,-140.11 323.06,-139.27 382.89,-139.14 424.36,-139.19"/>
<polygon fill="#9a32cd" stroke="#9a32cd" points="231.91,-137.53 222.02,-141.33 232.12,-144.52 231.91,-137.53"/>
</a>
</g>
<text text-anchor="middle" x="338.62" y="-141.11" font-family="Helvetica,sans-Serif" font-size="10.00" fill="grey"> fImplementationName</text>
</g>
<!-- Node7 -->
<g id="Node000007" class="node">
<title>Node7</title>
<g id="a_Node000007"><a xlink:title=" ">
<polygon fill="white" stroke="#666666" points="92.5,-157.61 0,-157.61 0,-127.11 92.5,-127.11 92.5,-157.61"/>
<text text-anchor="start" x="8" y="-144.11" font-family="Helvetica,sans-Serif" font-size="10.00">std::basic_string&lt;</text>
<text text-anchor="middle" x="46.25" y="-132.86" font-family="Helvetica,sans-Serif" font-size="10.00"> Char &gt;</text>
</a>
</g>
</g>
<!-- Node7&#45;&gt;Node6 -->
<g id="edge6_Node000006_Node000007" class="edge">
<title>Node7&#45;&gt;Node6</title>
<g id="a_edge6_Node000006_Node000007"><a xlink:title=" ">
<path fill="none" stroke="#63b8ff" d="M104.3,-142.36C124.13,-142.36 145.51,-142.36 161.97,-142.36"/>
<polygon fill="#63b8ff" stroke="#63b8ff" points="104.36,-138.86 94.36,-142.36 104.36,-145.86 104.36,-138.86"/>
</a>
</g>
</g>
<!-- Node8 -->
<g id="Node000008" class="node">
<title>Node8</title>
<g id="a_Node000008"><a xlink:title=" ">
<polygon fill="white" stroke="#666666" points="241.88,-114.61 140.38,-114.61 140.38,-84.11 241.88,-84.11 241.88,-114.61"/>
<text text-anchor="start" x="148.38" y="-101.11" font-family="Helvetica,sans-Serif" font-size="10.00">std::vector&lt; FLOAT</text>
<text text-anchor="middle" x="191.12" y="-89.86" font-family="Helvetica,sans-Serif" font-size="10.00">_T * &gt;</text>
</a>
</g>
</g>
<!-- Node8&#45;&gt;Node2 -->
<g id="edge7_Node000002_Node000008" class="edge">
<title>Node8&#45;&gt;Node2</title>
<g id="a_edge7_Node000002_Node000008"><a xlink:title=" ">
<path fill="none" stroke="#9a32cd" stroke-dasharray="5,2" d="M253.59,-104.2C296.6,-108.06 355.29,-114.3 406.5,-123.11 416.24,-124.79 426.65,-127 436.37,-129.25"/>
<polygon fill="#9a32cd" stroke="#9a32cd" points="253.95,-100.71 243.69,-103.32 253.34,-107.69 253.95,-100.71"/>
</a>
</g>
<text text-anchor="middle" x="338.62" y="-125.11" font-family="Helvetica,sans-Serif" font-size="10.00" fill="grey"> fOscParams</text>
</g>
<!-- Node9 -->
<g id="Node000009" class="node">
<title>Node9</title>
<g id="a_Node000009"><a xlink:title=" ">
<polygon fill="white" stroke="#666666" points="250.88,-65.98 131.38,-65.98 131.38,-46.73 250.88,-46.73 250.88,-65.98"/>
<text text-anchor="middle" x="191.12" y="-52.48" font-family="Helvetica,sans-Serif" font-size="10.00">std::vector&lt; std::string &gt;</text>
</a>
</g>
</g>
<!-- Node9&#45;&gt;Node2 -->
<g id="edge8_Node000002_Node000009" class="edge">
<title>Node9&#45;&gt;Node2</title>
<g id="a_edge8_Node000002_Node000009"><a xlink:title=" ">
<path fill="none" stroke="#9a32cd" stroke-dasharray="5,2" d="M262.2,-53.71C305.43,-54.53 361.1,-60.15 406.5,-79.86 432.38,-91.09 455.75,-115.47 467.59,-129.28"/>
<polygon fill="#9a32cd" stroke="#9a32cd" points="262.47,-50.21 252.43,-53.61 262.4,-57.21 262.47,-50.21"/>
</a>
</g>
<text text-anchor="start" x="270.75" y="-93.36" font-family="Helvetica,sans-Serif" font-size="10.00" fill="grey"> fExpectedOscillationParameter</text>
<text text-anchor="middle" x="338.62" y="-82.11" font-family="Helvetica,sans-Serif" font-size="10.00" fill="grey">Names</text>
</g>
<!-- Node10 -->
<g id="Node000010" class="node">
<title>Node10</title>
<g id="a_Node000010"><a xlink:title=" ">
<polygon fill="white" stroke="#666666" points="238.88,-19.98 143.38,-19.98 143.38,-0.73 238.88,-0.73 238.88,-19.98"/>
<text text-anchor="middle" x="191.12" y="-6.48" font-family="Helvetica,sans-Serif" font-size="10.00">std::vector&lt; bool &gt;</text>
</a>
</g>
</g>
<!-- Node10&#45;&gt;Node2 -->
<g id="edge9_Node000002_Node000010" class="edge">
<title>Node10&#45;&gt;Node2</title>
<g id="a_edge9_Node000002_Node000010"><a xlink:title=" ">
<path fill="none" stroke="#9a32cd" stroke-dasharray="5,2" d="M250.54,-1.58C296.29,2.26 359.79,0.67 406.5,-27.86 445.59,-51.73 465.99,-106.85 472.95,-129.44"/>
<polygon fill="#9a32cd" stroke="#9a32cd" points="250.43,1.92 240.82,-2.52 251.11,-5.04 250.43,1.92"/>
</a>
</g>
<text text-anchor="start" x="280.5" y="-41.36" font-family="Helvetica,sans-Serif" font-size="10.00" fill="grey"> fOscillationParametersSet</text>
<text text-anchor="middle" x="338.62" y="-30.11" font-family="Helvetica,sans-Serif" font-size="10.00" fill="grey">Check</text>
</g>
</g>
</svg>
