<?xml version="1.0" encoding="UTF-8" standalone="no"?>
<!DOCTYPE svg PUBLIC "-//W3C//DTD SVG 1.1//EN"
 "http://www.w3.org/Graphics/SVG/1.1/DTD/svg11.dtd">
<!-- Generated by graphviz version 9.0.0 (20230911.1827)
 -->
<!-- Title: OscillatorSubSampling Pages: 1 -->
<svg width="1047pt" height="365pt"
 viewBox="0.00 0.00 1046.75 364.88" xmlns="http://www.w3.org/2000/svg" xmlns:xlink="http://www.w3.org/1999/xlink">
<g id="graph0" class="graph" transform="scale(1 1) rotate(0) translate(4 360.88)">
<title>OscillatorSubSampling</title>
<!-- Node1 -->
<g id="Node000001" class="node">
<title>Node1</title>
<g id="a_Node000001"><a xlink:title="SubSampling Oscillation calculation implementation class.">
<polygon fill="#999999" stroke="#666666" points="1038.75,-193.88 923.75,-193.88 923.75,-174.62 1038.75,-174.62 1038.75,-193.88"/>
<text text-anchor="middle" x="981.25" y="-180.38" font-family="Helvetica,sans-Serif" font-size="10.00">OscillatorSubSampling</text>
</a>
</g>
</g>
<!-- Node2 -->
<g id="Node000002" class="node">
<title>Node2</title>
<g id="a_Node000002"><a xlink:href="classOscillatorBase.html" target="_top" xlink:title="Oscillation calculation (binned, unbinned, etc.) implementation agnostic base class.">
<polygon fill="white" stroke="#666666" points="768.12,-212.88 688.38,-212.88 688.38,-193.62 768.12,-193.62 768.12,-212.88"/>
<text text-anchor="middle" x="728.25" y="-199.38" font-family="Helvetica,sans-Serif" font-size="10.00">OscillatorBase</text>
</a>
</g>
</g>
<!-- Node2&#45;&gt;Node1 -->
<g id="edge1_Node000001_Node000002" class="edge">
<title>Node2&#45;&gt;Node1</title>
<g id="a_edge1_Node000001_Node000002"><a xlink:title=" ">
<path fill="none" stroke="#63b8ff" d="M779.72,-199.43C821.35,-196.28 880.37,-191.81 923.61,-188.54"/>
<polygon fill="#63b8ff" stroke="#63b8ff" points="779.69,-195.92 769.98,-200.17 780.21,-202.9 779.69,-195.92"/>
</a>
</g>
</g>
<!-- Node3 -->
<g id="Node000003" class="node">
<title>Node3</title>
<g id="a_Node000003"><a xlink:href="classOscProbCalcerBase.html" target="_top" xlink:title="Oscillation calculation engine (CUDAProb3, ProbGPU, Prob3++, etc.) implementation agnostic base class...">
<polygon fill="white" stroke="#666666" points="491.5,-272.88 387,-272.88 387,-253.62 491.5,-253.62 491.5,-272.88"/>
<text text-anchor="middle" x="439.25" y="-259.38" font-family="Helvetica,sans-Serif" font-size="10.00">OscProbCalcerBase</text>
</a>
</g>
</g>
<!-- Node3&#45;&gt;Node2 -->
<g id="edge2_Node000002_Node000003" class="edge">
<title>Node3&#45;&gt;Node2</title>
<g id="a_edge2_Node000002_Node000003"><a xlink:title=" ">
<path fill="none" stroke="#9a32cd" stroke-dasharray="5,2" d="M503.27,-264.79C546.08,-264.18 603.52,-260.08 652,-245.25 675.18,-238.16 699.15,-223.22 713.64,-213.21"/>
<polygon fill="#9a32cd" stroke="#9a32cd" points="503.37,-261.29 493.39,-264.86 503.42,-268.29 503.37,-261.29"/>
</a>
</g>
<text text-anchor="middle" x="580.75" y="-266" font-family="Helvetica,sans-Serif" font-size="10.00" fill="grey"> fOscProbCalcer</text>
</g>
<!-- Node4 -->
<g id="Node000004" class="node">
<title>Node4</title>
<g id="a_Node000004"><a xlink:title=" ">
<polygon fill="white" stroke="#666666" points="235.12,-356.88 147.12,-356.88 147.12,-337.62 235.12,-337.62 235.12,-356.88"/>
<text text-anchor="middle" x="191.12" y="-343.38" font-family="Helvetica,sans-Serif" font-size="10.00">std::vector&lt; int &gt;</text>
</a>
</g>
</g>
<!-- Node4&#45;&gt;Node1 -->
<g id="edge12_Node000001_Node000004" class="edge">
<title>Node4&#45;&gt;Node1</title>
<g id="a_edge12_Node000001_Node000004"><a xlink:title=" ">
<path fill="none" stroke="#9a32cd" stroke-dasharray="5,2" d="M246.76,-345.72C352.63,-341.64 592.4,-326.97 786.5,-275.25 840.25,-260.93 855.99,-262.12 905.75,-237.25 929.89,-225.19 954.82,-205.77 968.85,-194.09"/>
<polygon fill="#9a32cd" stroke="#9a32cd" points="246.8,-342.21 236.94,-346.08 247.06,-349.21 246.8,-342.21"/>
</a>
</g>
<text text-anchor="middle" x="580.75" y="-326" font-family="Helvetica,sans-Serif" font-size="10.00" fill="grey"> NeutrinoTypes</text>
</g>
<!-- Node4&#45;&gt;Node3 -->
<g id="edge3_Node000003_Node000004" class="edge">
<title>Node4&#45;&gt;Node3</title>
<g id="a_edge3_Node000003_Node000004"><a xlink:title=" ">
<path fill="none" stroke="#9a32cd" stroke-dasharray="5,2" d="M236.19,-333.86C272.12,-322.74 324.1,-306.22 369,-290.25 383.83,-284.97 400.26,-278.59 413.38,-273.36"/>
<polygon fill="#9a32cd" stroke="#9a32cd" points="235.55,-330.39 227.02,-336.68 237.61,-337.08 235.55,-330.39"/>
</a>
</g>
<text text-anchor="middle" x="319.88" y="-324" font-family="Helvetica,sans-Serif" font-size="10.00" fill="grey"> fNeutrinoTypes</text>
</g>
<!-- Node5 -->
<g id="Node000005" class="node">
<title>Node5</title>
<g id="a_Node000005"><a xlink:title=" ">
<polygon fill="white" stroke="#666666" points="252.75,-303.5 129.5,-303.5 129.5,-273 252.75,-273 252.75,-303.5"/>
<text text-anchor="start" x="137.5" y="-290" font-family="Helvetica,sans-Serif" font-size="10.00">std::vector&lt; NuOscillator</text>
<text text-anchor="middle" x="191.12" y="-278.75" font-family="Helvetica,sans-Serif" font-size="10.00">::OscillationChannel &gt;</text>
</a>
</g>
</g>
<!-- Node5&#45;&gt;Node1 -->
<g id="edge11_Node000001_Node000005" class="edge">
<title>Node5&#45;&gt;Node1</title>
<g id="a_edge11_Node000001_Node000005"><a xlink:title=" ">
<path fill="none" stroke="#9a32cd" stroke-dasharray="5,2" d="M264.61,-288.21C296.61,-288.1 334.68,-287.83 369,-287.25 494.81,-285.12 527.63,-298.35 652,-279.25 767.87,-261.46 793.35,-240.54 905.75,-207.25 919.64,-203.14 934.93,-198.44 948.03,-194.37"/>
<polygon fill="#9a32cd" stroke="#9a32cd" points="264.62,-284.71 254.63,-288.24 264.64,-291.71 264.62,-284.71"/>
</a>
</g>
<text text-anchor="middle" x="580.75" y="-291" font-family="Helvetica,sans-Serif" font-size="10.00" fill="grey"> OscillationChannels</text>
</g>
<!-- Node5&#45;&gt;Node3 -->
<g id="edge4_Node000003_Node000005" class="edge">
<title>Node5&#45;&gt;Node3</title>
<g id="a_edge4_Node000003_Node000005"><a xlink:title=" ">
<path fill="none" stroke="#9a32cd" stroke-dasharray="5,2" d="M264.18,-276.79C266.4,-276.52 268.59,-276.25 270.75,-276 309.57,-271.51 353.64,-268.22 386.83,-266.11"/>
<polygon fill="#9a32cd" stroke="#9a32cd" points="263.96,-273.29 254.51,-278.08 264.89,-280.23 263.96,-273.29"/>
</a>
</g>
<text text-anchor="middle" x="319.88" y="-277" font-family="Helvetica,sans-Serif" font-size="10.00" fill="grey"> fOscillationChannels</text>
</g>
<!-- Node6 -->
<g id="Node000006" class="node">
<title>Node6</title>
<g id="a_Node000006"><a xlink:title=" ">
<polygon fill="white" stroke="#666666" points="251.62,-199.88 130.62,-199.88 130.62,-180.62 251.62,-180.62 251.62,-199.88"/>
<text text-anchor="middle" x="191.12" y="-186.38" font-family="Helvetica,sans-Serif" font-size="10.00">std::vector&lt; FLOAT_T &gt;</text>
</a>
</g>
</g>
<!-- Node6&#45;&gt;Node1 -->
<g id="edge9_Node000001_Node000006" class="edge">
<title>Node6&#45;&gt;Node1</title>
<g id="a_edge9_Node000001_Node000006"><a xlink:title=" ">
<path fill="none" stroke="#9a32cd" stroke-dasharray="5,2" d="M263.19,-182.25C327.43,-175.44 424.66,-166.2 509.5,-162.5 658.87,-155.98 834.88,-169.85 923.37,-178.33"/>
<polygon fill="#9a32cd" stroke="#9a32cd" points="263.06,-178.74 253.49,-183.29 263.8,-185.7 263.06,-178.74"/>
</a>
</g>
<text text-anchor="middle" x="580.75" y="-231.5" font-family="Helvetica,sans-Serif" font-size="10.00" fill="grey"> AveragedOscillationProbabilities</text>
<text text-anchor="middle" x="580.75" y="-220.25" font-family="Helvetica,sans-Serif" font-size="10.00" fill="grey">CoarseCosineZAxisBinEdges</text>
<text text-anchor="middle" x="580.75" y="-209" font-family="Helvetica,sans-Serif" font-size="10.00" fill="grey">CoarseEnergyAxisBinEdges</text>
<text text-anchor="middle" x="580.75" y="-197.75" font-family="Helvetica,sans-Serif" font-size="10.00" fill="grey">FineCosineZAxisBinCenters</text>
<text text-anchor="middle" x="580.75" y="-186.5" font-family="Helvetica,sans-Serif" font-size="10.00" fill="grey">FineCosineZAxisBinEdges</text>
<text text-anchor="middle" x="580.75" y="-175.25" font-family="Helvetica,sans-Serif" font-size="10.00" fill="grey">FineEnergyAxisBinCenters</text>
<text text-anchor="middle" x="580.75" y="-164" font-family="Helvetica,sans-Serif" font-size="10.00" fill="grey">FineEnergyAxisBinEdges</text>
</g>
<!-- Node6&#45;&gt;Node3 -->
<g id="edge5_Node000003_Node000006" class="edge">
<title>Node6&#45;&gt;Node3</title>
<g id="a_edge5_Node000003_Node000006"><a xlink:title=" ">
<path fill="none" stroke="#9a32cd" stroke-dasharray="5,2" d="M263.27,-194.67C296.27,-198.43 335.51,-205.39 369,-218.25 390.95,-226.68 413.2,-242.78 426.35,-253.26"/>
<polygon fill="#9a32cd" stroke="#9a32cd" points="263.7,-191.2 253.39,-193.63 262.97,-198.16 263.7,-191.2"/>
</a>
</g>
<text text-anchor="middle" x="319.88" y="-253.75" font-family="Helvetica,sans-Serif" font-size="10.00" fill="grey"> fCosineZArray</text>
<text text-anchor="middle" x="319.88" y="-242.5" font-family="Helvetica,sans-Serif" font-size="10.00" fill="grey">fEnergyArray</text>
<text text-anchor="middle" x="319.88" y="-231.25" font-family="Helvetica,sans-Serif" font-size="10.00" fill="grey">fOscParamsCurr</text>
<text text-anchor="middle" x="319.88" y="-220" font-family="Helvetica,sans-Serif" font-size="10.00" fill="grey">fWeightArray</text>
</g>
<!-- Node7 -->
<g id="Node000007" class="node">
<title>Node7</title>
<g id="a_Node000007"><a xlink:title=" ">
<polygon fill="white" stroke="#666666" points="220.12,-124.88 162.12,-124.88 162.12,-105.62 220.12,-105.62 220.12,-124.88"/>
<text text-anchor="middle" x="191.12" y="-111.38" font-family="Helvetica,sans-Serif" font-size="10.00">std::string</text>
</a>
</g>
</g>
<!-- Node7&#45;&gt;Node1 -->
<g id="edge13_Node000001_Node000007" class="edge">
<title>Node7&#45;&gt;Node1</title>
<g id="a_edge13_Node000001_Node000007"><a xlink:title=" ">
<path fill="none" stroke="#9a32cd" stroke-dasharray="5,2" d="M231.55,-102.58C311.37,-78.68 497.63,-31.76 652,-60 775.18,-82.53 912.11,-148.95 961.35,-174.28"/>
<polygon fill="#9a32cd" stroke="#9a32cd" points="230.56,-99.23 222.01,-105.49 232.6,-105.92 230.56,-99.23"/>
</a>
</g>
<text text-anchor="middle" x="580.75" y="-106" font-family="Helvetica,sans-Serif" font-size="10.00" fill="grey"> CoarseCosineZAxisHistName</text>
<text text-anchor="middle" x="580.75" y="-94.75" font-family="Helvetica,sans-Serif" font-size="10.00" fill="grey">CoarseEnergyAxisHistName</text>
<text text-anchor="middle" x="580.75" y="-83.5" font-family="Helvetica,sans-Serif" font-size="10.00" fill="grey">FileName</text>
<text text-anchor="middle" x="580.75" y="-72.25" font-family="Helvetica,sans-Serif" font-size="10.00" fill="grey">FineCosineZAxisHistName</text>
<text text-anchor="middle" x="580.75" y="-61" font-family="Helvetica,sans-Serif" font-size="10.00" fill="grey">FineEnergyAxisHistName</text>
</g>
<!-- Node7&#45;&gt;Node2 -->
<g id="edge8_Node000002_Node000007" class="edge">
<title>Node7&#45;&gt;Node2</title>
<g id="a_edge8_Node000002_Node000007"><a xlink:title=" ">
<path fill="none" stroke="#9a32cd" stroke-dasharray="5,2" d="M231.93,-114.62C329.06,-113.58 575.85,-113.98 652,-143.25 680.07,-154.04 705.87,-179.32 718.71,-193.38"/>
<polygon fill="#9a32cd" stroke="#9a32cd" points="232.05,-111.12 222.09,-114.74 232.13,-118.12 232.05,-111.12"/>
</a>
</g>
<text text-anchor="middle" x="439.25" y="-121" font-family="Helvetica,sans-Serif" font-size="10.00" fill="grey"> fCalculationTypeName</text>
</g>
<!-- Node7&#45;&gt;Node3 -->
<g id="edge6_Node000003_Node000007" class="edge">
<title>Node7&#45;&gt;Node3</title>
<g id="a_edge6_Node000003_Node000007"><a xlink:title=" ">
<path fill="none" stroke="#9a32cd" stroke-dasharray="5,2" d="M231.37,-123.34C269.19,-132.52 326.73,-150.21 369,-180 398.04,-200.47 421.95,-236.09 432.47,-253.33"/>
<polygon fill="#9a32cd" stroke="#9a32cd" points="232.32,-119.97 221.78,-121.11 230.73,-126.79 232.32,-119.97"/>
</a>
</g>
<text text-anchor="middle" x="319.88" y="-181" font-family="Helvetica,sans-Serif" font-size="10.00" fill="grey"> fImplementationName</text>
</g>
<!-- Node8 -->
<g id="Node000008" class="node">
<title>Node8</title>
<g id="a_Node000008"><a xlink:title=" ">
<polygon fill="white" stroke="#666666" points="92.5,-130.5 0,-130.5 0,-100 92.5,-100 92.5,-130.5"/>
<text text-anchor="start" x="8" y="-117" font-family="Helvetica,sans-Serif" font-size="10.00">std::basic_string&lt;</text>
<text text-anchor="middle" x="46.25" y="-105.75" font-family="Helvetica,sans-Serif" font-size="10.00"> Char &gt;</text>
</a>
</g>
</g>
<!-- Node8&#45;&gt;Node7 -->
<g id="edge7_Node000007_Node000008" class="edge">
<title>Node8&#45;&gt;Node7</title>
<g id="a_edge7_Node000007_Node000008"><a xlink:title=" ">
<path fill="none" stroke="#63b8ff" d="M104.3,-115.25C124.13,-115.25 145.51,-115.25 161.97,-115.25"/>
<polygon fill="#63b8ff" stroke="#63b8ff" points="104.36,-111.75 94.36,-115.25 104.36,-118.75 104.36,-111.75"/>
</a>
</g>
</g>
<!-- Node9 -->
<g id="Node000009" class="node">
<title>Node9</title>
<g id="a_Node000009"><a xlink:title=" ">
<polygon fill="white" stroke="#666666" points="786.5,-30.5 670,-30.5 670,0 786.5,0 786.5,-30.5"/>
<text text-anchor="start" x="678" y="-17" font-family="Helvetica,sans-Serif" font-size="10.00">std::vector&lt; std::vector</text>
<text text-anchor="middle" x="728.25" y="-5.75" font-family="Helvetica,sans-Serif" font-size="10.00">&lt; const FLOAT_T * &gt; &gt;</text>
</a>
</g>
</g>
<!-- Node9&#45;&gt;Node1 -->
<g id="edge10_Node000001_Node000009" class="edge">
<title>Node9&#45;&gt;Node1</title>
<g id="a_edge10_Node000001_Node000009"><a xlink:title=" ">
<path fill="none" stroke="#9a32cd" stroke-dasharray="5,2" d="M797.9,-1.67C832.92,1.49 874.57,-0.93 905.75,-21.75 960.21,-58.12 975.5,-144.93 979.2,-174.32"/>
<polygon fill="#9a32cd" stroke="#9a32cd" points="797.86,1.85 788.29,-2.71 798.61,-5.11 797.86,1.85"/>
</a>
</g>
<text text-anchor="start" x="804.5" y="-34.25" font-family="Helvetica,sans-Serif" font-size="10.00" fill="grey"> OscillationProbabilities</text>
<text text-anchor="middle" x="855.12" y="-23" font-family="Helvetica,sans-Serif" font-size="10.00" fill="grey">ToAverage</text>
</g>
</g>
</svg>
