<?xml version="1.0" encoding="UTF-8" standalone="no"?>
<!DOCTYPE svg PUBLIC "-//W3C//DTD SVG 1.1//EN"
 "http://www.w3.org/Graphics/SVG/1.1/DTD/svg11.dtd">
<!-- Generated by graphviz version 9.0.0 (20230911.1827)
 -->
<!-- Title: OscillatorBase Pages: 1 -->
<svg width="687pt" height="196pt"
 viewBox="0.00 0.00 686.50 195.88" xmlns="http://www.w3.org/2000/svg" xmlns:xlink="http://www.w3.org/1999/xlink">
<g id="graph0" class="graph" transform="scale(1 1) rotate(0) translate(4 191.88)">
<title>OscillatorBase</title>
<!-- Node1 -->
<g id="Node000001" class="node">
<title>Node1</title>
<g id="a_Node000001"><a xlink:title="Oscillation calculation (binned, unbinned, etc.) implementation agnostic base class.">
<polygon fill="#999999" stroke="#666666" points="678.5,-25.88 598.75,-25.88 598.75,-6.62 678.5,-6.62 678.5,-25.88"/>
<text text-anchor="middle" x="638.62" y="-12.38" font-family="Helvetica,sans-Serif" font-size="10.00">OscillatorBase</text>
</a>
</g>
</g>
<!-- Node2 -->
<g id="Node000002" class="node">
<title>Node2</title>
<g id="a_Node000002"><a xlink:href="classOscProbCalcerBase.html" target="_top" xlink:title="Oscillation calculation engine (CUDAProb3, ProbGPU, Prob3++, etc.) implementation agnostic base class...">
<polygon fill="white" stroke="#666666" points="491.5,-76.88 387,-76.88 387,-57.62 491.5,-57.62 491.5,-76.88"/>
<text text-anchor="middle" x="439.25" y="-63.38" font-family="Helvetica,sans-Serif" font-size="10.00">OscProbCalcerBase</text>
</a>
</g>
</g>
<!-- Node2&#45;&gt;Node1 -->
<g id="edge1_Node000001_Node000002" class="edge">
<title>Node2&#45;&gt;Node1</title>
<g id="a_edge1_Node000001_Node000002"><a xlink:title=" ">
<path fill="none" stroke="#9a32cd" stroke-dasharray="5,2" d="M490.24,-54.33C523.9,-45.64 567.64,-34.33 598.71,-26.31"/>
<polygon fill="#9a32cd" stroke="#9a32cd" points="489.52,-50.9 480.71,-56.8 491.27,-57.68 489.52,-50.9"/>
</a>
</g>
<text text-anchor="middle" x="545.12" y="-51" font-family="Helvetica,sans-Serif" font-size="10.00" fill="grey"> fOscProbCalcer</text>
</g>
<!-- Node3 -->
<g id="Node000003" class="node">
<title>Node3</title>
<g id="a_Node000003"><a xlink:title=" ">
<polygon fill="white" stroke="#666666" points="235.12,-187.88 147.12,-187.88 147.12,-168.62 235.12,-168.62 235.12,-187.88"/>
<text text-anchor="middle" x="191.12" y="-174.38" font-family="Helvetica,sans-Serif" font-size="10.00">std::vector&lt; int &gt;</text>
</a>
</g>
</g>
<!-- Node3&#45;&gt;Node2 -->
<g id="edge2_Node000002_Node000003" class="edge">
<title>Node3&#45;&gt;Node2</title>
<g id="a_edge2_Node000002_Node000003"><a xlink:title=" ">
<path fill="none" stroke="#9a32cd" stroke-dasharray="5,2" d="M247.04,-178.04C283.69,-175.72 331.8,-168.33 369,-147.25 399.21,-130.14 422.56,-94.69 432.71,-77.3"/>
<polygon fill="#9a32cd" stroke="#9a32cd" points="246.89,-174.54 237.08,-178.55 247.24,-181.53 246.89,-174.54"/>
</a>
</g>
<text text-anchor="middle" x="319.88" y="-177" font-family="Helvetica,sans-Serif" font-size="10.00" fill="grey"> fNeutrinoTypes</text>
</g>
<!-- Node4 -->
<g id="Node000004" class="node">
<title>Node4</title>
<g id="a_Node000004"><a xlink:title=" ">
<polygon fill="white" stroke="#666666" points="252.75,-150.5 129.5,-150.5 129.5,-120 252.75,-120 252.75,-150.5"/>
<text text-anchor="start" x="137.5" y="-137" font-family="Helvetica,sans-Serif" font-size="10.00">std::vector&lt; NuOscillator</text>
<text text-anchor="middle" x="191.12" y="-125.75" font-family="Helvetica,sans-Serif" font-size="10.00">::OscillationChannel &gt;</text>
</a>
</g>
</g>
<!-- Node4&#45;&gt;Node2 -->
<g id="edge3_Node000002_Node000004" class="edge">
<title>Node4&#45;&gt;Node2</title>
<g id="a_edge3_Node000002_Node000004"><a xlink:title=" ">
<path fill="none" stroke="#9a32cd" stroke-dasharray="5,2" d="M264.44,-133.78C297.2,-131.22 335.91,-125.52 369,-113.25 391.46,-104.92 413.91,-88.05 426.92,-77.22"/>
<polygon fill="#9a32cd" stroke="#9a32cd" points="264.37,-130.27 254.63,-134.45 264.84,-137.26 264.37,-130.27"/>
</a>
</g>
<text text-anchor="middle" x="319.88" y="-134" font-family="Helvetica,sans-Serif" font-size="10.00" fill="grey"> fOscillationChannels</text>
</g>
<!-- Node5 -->
<g id="Node000005" class="node">
<title>Node5</title>
<g id="a_Node000005"><a xlink:title=" ">
<polygon fill="white" stroke="#666666" points="251.62,-76.88 130.62,-76.88 130.62,-57.62 251.62,-57.62 251.62,-76.88"/>
<text text-anchor="middle" x="191.12" y="-63.38" font-family="Helvetica,sans-Serif" font-size="10.00">std::vector&lt; FLOAT_T &gt;</text>
</a>
</g>
</g>
<!-- Node5&#45;&gt;Node2 -->
<g id="edge4_Node000002_Node000005" class="edge">
<title>Node5&#45;&gt;Node2</title>
<g id="a_edge4_Node000002_Node000005"><a xlink:title=" ">
<path fill="none" stroke="#9a32cd" stroke-dasharray="5,2" d="M263.44,-67.25C302.91,-67.25 351.08,-67.25 386.85,-67.25"/>
<polygon fill="#9a32cd" stroke="#9a32cd" points="263.53,-63.75 253.53,-67.25 263.53,-70.75 263.53,-63.75"/>
</a>
</g>
<text text-anchor="middle" x="319.88" y="-102.75" font-family="Helvetica,sans-Serif" font-size="10.00" fill="grey"> fCosineZArray</text>
<text text-anchor="middle" x="319.88" y="-91.5" font-family="Helvetica,sans-Serif" font-size="10.00" fill="grey">fEnergyArray</text>
<text text-anchor="middle" x="319.88" y="-80.25" font-family="Helvetica,sans-Serif" font-size="10.00" fill="grey">fOscParamsCurr</text>
<text text-anchor="middle" x="319.88" y="-69" font-family="Helvetica,sans-Serif" font-size="10.00" fill="grey">fWeightArray</text>
</g>
<!-- Node6 -->
<g id="Node000006" class="node">
<title>Node6</title>
<g id="a_Node000006"><a xlink:title=" ">
<polygon fill="white" stroke="#666666" points="220.12,-24.88 162.12,-24.88 162.12,-5.62 220.12,-5.62 220.12,-24.88"/>
<text text-anchor="middle" x="191.12" y="-11.38" font-family="Helvetica,sans-Serif" font-size="10.00">std::string</text>
</a>
</g>
</g>
<!-- Node6&#45;&gt;Node1 -->
<g id="edge7_Node000001_Node000006" class="edge">
<title>Node6&#45;&gt;Node1</title>
<g id="a_edge7_Node000001_Node000006"><a xlink:title=" ">
<path fill="none" stroke="#9a32cd" stroke-dasharray="5,2" d="M231.74,-15.34C316.41,-15.53 514.14,-15.97 598.44,-16.16"/>
<polygon fill="#9a32cd" stroke="#9a32cd" points="231.85,-11.84 221.84,-15.32 231.84,-18.84 231.85,-11.84"/>
</a>
</g>
<text text-anchor="middle" x="439.25" y="-18" font-family="Helvetica,sans-Serif" font-size="10.00" fill="grey"> fCalculationTypeName</text>
</g>
<!-- Node6&#45;&gt;Node2 -->
<g id="edge5_Node000002_Node000006" class="edge">
<title>Node6&#45;&gt;Node2</title>
<g id="a_edge5_Node000002_Node000006"><a xlink:title=" ">
<path fill="none" stroke="#9a32cd" stroke-dasharray="5,2" d="M231.28,-23.25C267.14,-30.6 321.68,-41.87 369,-52 376.7,-53.65 384.88,-55.43 392.82,-57.16"/>
<polygon fill="#9a32cd" stroke="#9a32cd" points="232.31,-19.88 221.81,-21.31 230.91,-26.74 232.31,-19.88"/>
</a>
</g>
<text text-anchor="middle" x="319.88" y="-53" font-family="Helvetica,sans-Serif" font-size="10.00" fill="grey"> fImplementationName</text>
</g>
<!-- Node7 -->
<g id="Node000007" class="node">
<title>Node7</title>
<g id="a_Node000007"><a xlink:title=" ">
<polygon fill="white" stroke="#666666" points="92.5,-30.5 0,-30.5 0,0 92.5,0 92.5,-30.5"/>
<text text-anchor="start" x="8" y="-17" font-family="Helvetica,sans-Serif" font-size="10.00">std::basic_string&lt;</text>
<text text-anchor="middle" x="46.25" y="-5.75" font-family="Helvetica,sans-Serif" font-size="10.00"> Char &gt;</text>
</a>
</g>
</g>
<!-- Node7&#45;&gt;Node6 -->
<g id="edge6_Node000006_Node000007" class="edge">
<title>Node7&#45;&gt;Node6</title>
<g id="a_edge6_Node000006_Node000007"><a xlink:title=" ">
<path fill="none" stroke="#63b8ff" d="M104.3,-15.25C124.13,-15.25 145.51,-15.25 161.97,-15.25"/>
<polygon fill="#63b8ff" stroke="#63b8ff" points="104.36,-11.75 94.36,-15.25 104.36,-18.75 104.36,-11.75"/>
</a>
</g>
</g>
</g>
</svg>
