<?xml version="1.0" encoding="UTF-8" standalone="no"?>
<!DOCTYPE svg PUBLIC "-//W3C//DTD SVG 1.1//EN"
 "http://www.w3.org/Graphics/SVG/1.1/DTD/svg11.dtd">
<!-- Generated by graphviz version 9.0.0 (20230911.1827)
 -->
<!-- Title: OscProbCalcerCHICLinear Pages: 1 -->
<svg width="731pt" height="181pt"
 viewBox="0.00 0.00 730.75 181.31" xmlns="http://www.w3.org/2000/svg" xmlns:xlink="http://www.w3.org/1999/xlink">
<g id="graph0" class="graph" transform="scale(1 1) rotate(0) translate(4 177.31)">
<title>OscProbCalcerCHICLinear</title>
<!-- Node1 -->
<g id="Node000001" class="node">
<title>Node1</title>
<g id="a_Node000001"><a xlink:title="Oscillation calculation engine for linear propagation in CHIC.">
<polygon fill="#999999" stroke="#666666" points="722.75,-77.31 589.75,-77.31 589.75,-58.06 722.75,-58.06 722.75,-77.31"/>
<text text-anchor="middle" x="656.25" y="-63.81" font-family="Helvetica,sans-Serif" font-size="10.00">OscProbCalcerCHICLinear</text>
</a>
</g>
</g>
<!-- Node2 -->
<g id="Node000002" class="node">
<title>Node2</title>
<g id="a_Node000002"><a xlink:href="classOscProbCalcerBase.html" target="_top" xlink:title="Oscillation calculation engine (CUDAProb3, ProbGPU, Prob3++, etc.) implementation agnostic base class...">
<polygon fill="white" stroke="#666666" points="499,-96.31 394.5,-96.31 394.5,-77.06 499,-77.06 499,-96.31"/>
<text text-anchor="middle" x="446.75" y="-82.81" font-family="Helvetica,sans-Serif" font-size="10.00">OscProbCalcerBase</text>
</a>
</g>
</g>
<!-- Node2&#45;&gt;Node1 -->
<g id="edge1_Node000001_Node000002" class="edge">
<title>Node2&#45;&gt;Node1</title>
<g id="a_edge1_Node000001_Node000002"><a xlink:title=" ">
<path fill="none" stroke="#63b8ff" d="M510.48,-80.95C535.44,-78.66 564.16,-76.03 589.41,-73.72"/>
<polygon fill="#63b8ff" stroke="#63b8ff" points="510.46,-77.43 500.82,-81.83 511.09,-84.4 510.46,-77.43"/>
</a>
</g>
</g>
<!-- Node3 -->
<g id="Node000003" class="node">
<title>Node3</title>
<g id="a_Node000003"><a xlink:title=" ">
<polygon fill="white" stroke="#666666" points="235.12,-173.31 147.12,-173.31 147.12,-154.06 235.12,-154.06 235.12,-173.31"/>
<text text-anchor="middle" x="191.12" y="-159.81" font-family="Helvetica,sans-Serif" font-size="10.00">std::vector&lt; int &gt;</text>
</a>
</g>
</g>
<!-- Node3&#45;&gt;Node2 -->
<g id="edge2_Node000002_Node000003" class="edge">
<title>Node3&#45;&gt;Node2</title>
<g id="a_edge2_Node000002_Node000003"><a xlink:title=" ">
<path fill="none" stroke="#9a32cd" stroke-dasharray="5,2" d="M246.61,-155.73C282.11,-149.64 329.07,-139.85 369,-125.69 390.69,-117.99 414.06,-105.44 429.24,-96.66"/>
<polygon fill="#9a32cd" stroke="#9a32cd" points="246.3,-152.24 237.01,-157.33 247.45,-159.14 246.3,-152.24"/>
</a>
</g>
<text text-anchor="middle" x="319.88" y="-151.44" font-family="Helvetica,sans-Serif" font-size="10.00" fill="grey"> fNeutrinoTypes</text>
</g>
<!-- Node4 -->
<g id="Node000004" class="node">
<title>Node4</title>
<g id="a_Node000004"><a xlink:title=" ">
<polygon fill="white" stroke="#666666" points="252.75,-135.94 129.5,-135.94 129.5,-105.44 252.75,-105.44 252.75,-135.94"/>
<text text-anchor="start" x="137.5" y="-122.44" font-family="Helvetica,sans-Serif" font-size="10.00">std::vector&lt; NuOscillator</text>
<text text-anchor="middle" x="191.12" y="-111.19" font-family="Helvetica,sans-Serif" font-size="10.00">::OscillationChannel &gt;</text>
</a>
</g>
</g>
<!-- Node4&#45;&gt;Node2 -->
<g id="edge3_Node000002_Node000004" class="edge">
<title>Node4&#45;&gt;Node2</title>
<g id="a_edge3_Node000002_Node000004"><a xlink:title=" ">
<path fill="none" stroke="#9a32cd" stroke-dasharray="5,2" d="M264.25,-112.24C296.35,-108.34 334.6,-103.52 369,-98.69 377.15,-97.55 385.77,-96.27 394.18,-94.98"/>
<polygon fill="#9a32cd" stroke="#9a32cd" points="264.18,-108.72 254.67,-113.39 265.02,-115.67 264.18,-108.72"/>
</a>
</g>
<text text-anchor="middle" x="319.88" y="-112.44" font-family="Helvetica,sans-Serif" font-size="10.00" fill="grey"> fOscillationChannels</text>
</g>
<!-- Node5 -->
<g id="Node000005" class="node">
<title>Node5</title>
<g id="a_Node000005"><a xlink:title=" ">
<polygon fill="white" stroke="#666666" points="251.62,-62.31 130.62,-62.31 130.62,-43.06 251.62,-43.06 251.62,-62.31"/>
<text text-anchor="middle" x="191.12" y="-48.81" font-family="Helvetica,sans-Serif" font-size="10.00">std::vector&lt; FLOAT_T &gt;</text>
</a>
</g>
</g>
<!-- Node5&#45;&gt;Node2 -->
<g id="edge4_Node000002_Node000005" class="edge">
<title>Node5&#45;&gt;Node2</title>
<g id="a_edge4_Node000002_Node000005"><a xlink:title=" ">
<path fill="none" stroke="#9a32cd" stroke-dasharray="5,2" d="M247,-40.77C283.04,-35.55 330.47,-33.73 369,-49.69 379.45,-54.02 377.35,-61.78 387,-67.69 392.76,-71.21 399.24,-74.15 405.75,-76.58"/>
<polygon fill="#9a32cd" stroke="#9a32cd" points="246.55,-37.3 237.22,-42.33 247.65,-44.21 246.55,-37.3"/>
</a>
</g>
<text text-anchor="middle" x="319.88" y="-85.19" font-family="Helvetica,sans-Serif" font-size="10.00" fill="grey"> fCosineZArray</text>
<text text-anchor="middle" x="319.88" y="-73.94" font-family="Helvetica,sans-Serif" font-size="10.00" fill="grey">fEnergyArray</text>
<text text-anchor="middle" x="319.88" y="-62.69" font-family="Helvetica,sans-Serif" font-size="10.00" fill="grey">fOscParamsCurr</text>
<text text-anchor="middle" x="319.88" y="-51.44" font-family="Helvetica,sans-Serif" font-size="10.00" fill="grey">fWeightArray</text>
</g>
<!-- Node6 -->
<g id="Node000006" class="node">
<title>Node6</title>
<g id="a_Node000006"><a xlink:title=" ">
<polygon fill="white" stroke="#666666" points="220.12,-25.31 162.12,-25.31 162.12,-6.06 220.12,-6.06 220.12,-25.31"/>
<text text-anchor="middle" x="191.12" y="-11.81" font-family="Helvetica,sans-Serif" font-size="10.00">std::string</text>
</a>
</g>
</g>
<!-- Node6&#45;&gt;Node2 -->
<g id="edge5_Node000002_Node000006" class="edge">
<title>Node6&#45;&gt;Node2</title>
<g id="a_edge5_Node000002_Node000006"><a xlink:title=" ">
<path fill="none" stroke="#9a32cd" stroke-dasharray="5,2" d="M231.34,-5.82C269.99,1.49 328.91,5.89 369,-22.44 386.68,-34.93 371.2,-52.9 387,-67.69 390.91,-71.35 395.54,-74.31 400.45,-76.7"/>
<polygon fill="#9a32cd" stroke="#9a32cd" points="231.1,-2.29 222.01,-7.73 232.51,-9.15 231.1,-2.29"/>
</a>
</g>
<text text-anchor="middle" x="319.88" y="-24.44" font-family="Helvetica,sans-Serif" font-size="10.00" fill="grey"> fImplementationName</text>
</g>
<!-- Node7 -->
<g id="Node000007" class="node">
<title>Node7</title>
<g id="a_Node000007"><a xlink:title=" ">
<polygon fill="white" stroke="#666666" points="92.5,-30.94 0,-30.94 0,-0.44 92.5,-0.44 92.5,-30.94"/>
<text text-anchor="start" x="8" y="-17.44" font-family="Helvetica,sans-Serif" font-size="10.00">std::basic_string&lt;</text>
<text text-anchor="middle" x="46.25" y="-6.19" font-family="Helvetica,sans-Serif" font-size="10.00"> Char &gt;</text>
</a>
</g>
</g>
<!-- Node7&#45;&gt;Node6 -->
<g id="edge6_Node000006_Node000007" class="edge">
<title>Node7&#45;&gt;Node6</title>
<g id="a_edge6_Node000006_Node000007"><a xlink:title=" ">
<path fill="none" stroke="#63b8ff" d="M104.3,-15.69C124.13,-15.69 145.51,-15.69 161.97,-15.69"/>
<polygon fill="#63b8ff" stroke="#63b8ff" points="104.36,-12.19 94.36,-15.69 104.36,-19.19 104.36,-12.19"/>
</a>
</g>
</g>
<!-- Node8 -->
<g id="Node000008" class="node">
<title>Node8</title>
<g id="a_Node000008"><a xlink:title=" ">
<polygon fill="white" stroke="#666666" points="506.5,-58.31 387,-58.31 387,-39.06 506.5,-39.06 506.5,-58.31"/>
<text text-anchor="middle" x="446.75" y="-44.81" font-family="Helvetica,sans-Serif" font-size="10.00">std::unique_ptr&lt; CHIC &gt;</text>
</a>
</g>
</g>
<!-- Node8&#45;&gt;Node1 -->
<g id="edge7_Node000001_Node000008" class="edge">
<title>Node8&#45;&gt;Node1</title>
<g id="a_edge7_Node000001_Node000008"><a xlink:title=" ">
<path fill="none" stroke="#9a32cd" stroke-dasharray="5,2" d="M518.24,-48.21C520.35,-48.2 522.44,-48.2 524.5,-48.19 545.5,-48.12 550.89,-45.79 571.75,-48.19 587.87,-50.05 605.4,-53.86 620.22,-57.62"/>
<polygon fill="#9a32cd" stroke="#9a32cd" points="518.33,-44.71 508.35,-48.26 518.36,-51.71 518.33,-44.71"/>
</a>
</g>
<text text-anchor="middle" x="548.12" y="-61.69" font-family="Helvetica,sans-Serif" font-size="10.00" fill="grey"> chic_nu</text>
<text text-anchor="middle" x="548.12" y="-50.44" font-family="Helvetica,sans-Serif" font-size="10.00" fill="grey">chic_nubar</text>
</g>
</g>
</svg>
