<?xml version="1.0" encoding="UTF-8" standalone="no"?>
<!DOCTYPE svg PUBLIC "-//W3C//DTD SVG 1.1//EN"
 "http://www.w3.org/Graphics/SVG/1.1/DTD/svg11.dtd">
<!-- Generated by graphviz version 12.2.0 (20241103.1931)
 -->
<!-- Title: OscProbCalcerCUDAProb3 Pages: 1 -->
<!--zoomable 422 -->

<svg id="main" version="1.1" xmlns="http://www.w3.org/2000/svg" xmlns:xlink="http://www.w3.org/1999/xlink" xml:space="preserve" onload="init(evt)">

<style type="text/css"><![CDATA[
.node, .edge {opacity: 0.7;}
.node.selected, .edge.selected {opacity: 1;}
.edge:hover path { stroke: red; }
.edge:hover polygon { stroke: red; fill: red; }
]]></style>

<defs>
  <circle id="rim" cx="0" cy="0" r="7"/>
  <circle id="rim2" cx="0" cy="0" r="3.5"/>
  <g id="zoomPlus">
    <use xlink:href="#rim" fill="#404040"><set attributeName="fill" to="#808080" begin="zoomplus.mouseover" end="zoomplus.mouseout"/></use>
    <path d="M-4,0h8M0,-4v8" fill="none" stroke="white" stroke-width="1.5" pointer-events="none"/>
  </g>
  <g id="zoomMin">
    <use xlink:href="#rim" fill="#404040"><set attributeName="fill" to="#808080" begin="zoomminus.mouseover" end="zoomminus.mouseout"/></use>
    <path d="M-4,0h8" fill="none" stroke="white" stroke-width="1.5" pointer-events="none"/>
  </g>
  <g id="arrowUp" transform="translate(30 24)">
    <use xlink:href="#rim"/>
    <path pointer-events="none" fill="none" stroke="white" stroke-width="1.5" d="M0,-3.0v7 M-2.5,-0.5L0,-3.0L2.5,-0.5"/>
  </g>
  <g id="arrowRight" transform="rotate(90) translate(36 -43)">
    <use xlink:href="#rim"/>
    <path pointer-events="none" fill="none" stroke="white" stroke-width="1.5" d="M0,-3.0v7 M-2.5,-0.5L0,-3.0L2.5,-0.5"/>
  </g>
  <g id="arrowDown" transform="rotate(180) translate(-30 -48)">
    <use xlink:href="#rim"/>
    <path pointer-events="none" fill="none" stroke="white" stroke-width="1.5" d="M0,-3.0v7 M-2.5,-0.5L0,-3.0L2.5,-0.5"/>
  </g>
  <g id="arrowLeft" transform="rotate(270) translate(-36 17)">
    <use xlink:href="#rim"/>
    <path pointer-events="none" fill="none" stroke="white" stroke-width="1.5" d="M0,-3.0v7 M-2.5,-0.5L0,-3.0L2.5,-0.5"/>
  </g>
  <g id="resetDef">
    <use xlink:href="#rim2" fill="#404040"><set attributeName="fill" to="#808080" begin="reset.mouseover" end="reset.mouseout"/></use>
  </g>
</defs>
<script type="application/ecmascript">
var viewWidth = 788;
var viewHeight = 422;
var sectionId = 'dynsection-1';
</script>
<script type="application/ecmascript" xlink:href="svg.min.js"/>
<svg id="graph" class="graph">
<g id="viewport">
<title>OscProbCalcerCUDAProb3</title>
<!-- Node1 -->
<g id="Node000001" class="node">
<title>Node1</title>
<g id="a_Node000001"><a xlink:title="Oscillation calculation engine for linear and atmospheric propagation in CUDAProb3.">
<polygon fill="#999999" stroke="#666666" points="779.75,-222.88 644.5,-222.88 644.5,-203.62 779.75,-203.62 779.75,-222.88"/>
<text text-anchor="middle" x="712.12" y="-209.38" font-family="Helvetica,sans-Serif" font-size="10.00">OscProbCalcerCUDAProb3</text>
</a>
</g>
</g>
<!-- Node2 -->
<g id="Node000002" class="node">
<title>Node2</title>
<g id="a_Node000002"><a xlink:href="classOscProbCalcerBase.html" target="_top" xlink:title="Oscillation calculation engine (CUDAProb3, ProbGPU, Prob3++, etc.) implementation agnostic base class...">
<polygon fill="white" stroke="#666666" points="544.75,-222.88 440.25,-222.88 440.25,-203.62 544.75,-203.62 544.75,-222.88"/>
<text text-anchor="middle" x="492.5" y="-209.38" font-family="Helvetica,sans-Serif" font-size="10.00">OscProbCalcerBase</text>
</a>
</g>
</g>
<!-- Node2&#45;&gt;Node1 -->
<g id="edge1_Node000001_Node000002" class="edge">
<title>Node2&#45;&gt;Node1</title>
<g id="a_edge1_Node000001_Node000002"><a xlink:title=" ">
<path fill="none" stroke="#63b8ff" d="M556.54,-213.25C584.05,-213.25 616.32,-213.25 644.25,-213.25"/>
<polygon fill="#63b8ff" stroke="#63b8ff" points="556.59,-209.75 546.59,-213.25 556.59,-216.75 556.59,-209.75"/>
</a>
</g>
</g>
<!-- Node3 -->
<g id="Node000003" class="node">
<title>Node3</title>
<g id="a_Node000003"><a xlink:title=" ">
<polygon fill="white" stroke="#666666" points="235.12,-408.88 147.12,-408.88 147.12,-389.62 235.12,-389.62 235.12,-408.88"/>
<text text-anchor="middle" x="191.12" y="-395.38" font-family="Helvetica,sans-Serif" font-size="10.00">std::vector&lt; int &gt;</text>
</a>
</g>
</g>
<!-- Node3&#45;&gt;Node1 -->
<g id="edge10_Node000001_Node000003" class="edge">
<title>Node3&#45;&gt;Node1</title>
<g id="a_edge10_Node000001_Node000003"><a xlink:title=" ">
<path fill="none" stroke="#9a32cd" stroke-dasharray="5,2" d="M246.47,-406.31C321.99,-413.45 460.62,-416.62 560.5,-361.25 627.19,-324.28 684.95,-249.68 704.26,-223.01"/>
<polygon fill="#9a32cd" stroke="#9a32cd" points="247.16,-402.87 236.86,-405.34 246.46,-409.83 247.16,-402.87"/>
</a>
</g>
<text text-anchor="middle" x="492.5" y="-404.86" font-family="Helvetica,sans-Serif" font-size="10.00" fill="grey"> OscChannels</text>
</g>
<!-- Node3&#45;&gt;Node2 -->
<g id="edge2_Node000002_Node000003" class="edge">
<title>Node3&#45;&gt;Node2</title>
<g id="a_edge2_Node000002_Node000003"><a xlink:title=" ">
<path fill="none" stroke="#9a32cd" stroke-dasharray="5,2" d="M246.46,-389.68C301.19,-379.24 381.06,-361.55 406.5,-343.25 451.16,-311.13 478.62,-247.65 487.93,-223.19"/>
<polygon fill="#9a32cd" stroke="#9a32cd" points="245.86,-386.23 236.68,-391.52 247.15,-393.11 245.86,-386.23"/>
</a>
</g>
<text text-anchor="middle" x="338.62" y="-386.21" font-family="Helvetica,sans-Serif" font-size="10.00" fill="grey"> fNeutrinoTypes</text>
</g>
<!-- Node4 -->
<g id="Node000004" class="node">
<title>Node4</title>
<g id="a_Node000004"><a xlink:title=" ">
<polygon fill="white" stroke="#666666" points="252.75,-140.5 129.5,-140.5 129.5,-110 252.75,-110 252.75,-140.5"/>
<text text-anchor="start" x="137.5" y="-127" font-family="Helvetica,sans-Serif" font-size="10.00">std::vector&lt; NuOscillator</text>
<text text-anchor="middle" x="191.12" y="-115.75" font-family="Helvetica,sans-Serif" font-size="10.00">::OscillationChannel &gt;</text>
</a>
</g>
</g>
<!-- Node4&#45;&gt;Node2 -->
<g id="edge3_Node000002_Node000004" class="edge">
<title>Node4&#45;&gt;Node2</title>
<g id="a_edge3_Node000002_Node000004"><a xlink:title=" ">
<path fill="none" stroke="#9a32cd" stroke-dasharray="5,2" d="M264.53,-127.02C307.08,-130.07 361.24,-137.48 406.5,-155 436.03,-166.43 465.36,-189.9 480.65,-203.3"/>
<polygon fill="#9a32cd" stroke="#9a32cd" points="264.84,-123.53 254.64,-126.39 264.39,-130.52 264.84,-123.53"/>
</a>
</g>
<text text-anchor="middle" x="338.62" y="-156.75" font-family="Helvetica,sans-Serif" font-size="10.00" fill="grey"> fOscillationChannels</text>
</g>
<!-- Node5 -->
<g id="Node000005" class="node">
<title>Node5</title>
<g id="a_Node000005"><a xlink:title=" ">
<polygon fill="white" stroke="#666666" points="251.62,-264.88 130.62,-264.88 130.62,-245.62 251.62,-245.62 251.62,-264.88"/>
<text text-anchor="middle" x="191.12" y="-251.38" font-family="Helvetica,sans-Serif" font-size="10.00">std::vector&lt; FLOAT_T &gt;</text>
</a>
</g>
</g>
<!-- Node5&#45;&gt;Node2 -->
<g id="edge4_Node000002_Node000005" class="edge">
<title>Node5&#45;&gt;Node2</title>
<g id="a_edge4_Node000002_Node000005"><a xlink:title=" ">
<path fill="none" stroke="#9a32cd" stroke-dasharray="5,2" d="M262.9,-245.37C304.68,-239.53 358.6,-231.98 406.5,-225.25 417.27,-223.74 428.81,-222.11 439.81,-220.56"/>
<polygon fill="#9a32cd" stroke="#9a32cd" points="262.65,-241.87 253.23,-246.72 263.62,-248.8 262.65,-241.87"/>
</a>
</g>
<text text-anchor="middle" x="338.62" y="-279.34" font-family="Helvetica,sans-Serif" font-size="10.00" fill="grey"> fCosineZArray</text>
<text text-anchor="middle" x="338.62" y="-268.09" font-family="Helvetica,sans-Serif" font-size="10.00" fill="grey">fEnergyArray</text>
<text text-anchor="middle" x="338.62" y="-256.84" font-family="Helvetica,sans-Serif" font-size="10.00" fill="grey">fOscParamsCurr</text>
<text text-anchor="middle" x="338.62" y="-245.59" font-family="Helvetica,sans-Serif" font-size="10.00" fill="grey">fWeightArray</text>
</g>
<!-- Node6 -->
<g id="Node000006" class="node">
<title>Node6</title>
<g id="a_Node000006"><a xlink:title=" ">
<polygon fill="white" stroke="#666666" points="220.12,-84.88 162.12,-84.88 162.12,-65.62 220.12,-65.62 220.12,-84.88"/>
<text text-anchor="middle" x="191.12" y="-71.38" font-family="Helvetica,sans-Serif" font-size="10.00">std::string</text>
</a>
</g>
</g>
<!-- Node6&#45;&gt;Node1 -->
<g id="edge12_Node000001_Node000006" class="edge">
<title>Node6&#45;&gt;Node1</title>
<g id="a_edge12_Node000001_Node000006"><a xlink:title=" ">
<path fill="none" stroke="#9a32cd" stroke-dasharray="5,2" d="M231.77,-71.65C275.21,-68.74 346.69,-67.03 406.5,-80.25 522.86,-105.96 649.71,-176.73 694.41,-203.14"/>
<polygon fill="#9a32cd" stroke="#9a32cd" points="231.52,-68.16 221.8,-72.38 232.03,-75.14 231.52,-68.16"/>
</a>
</g>
<text text-anchor="middle" x="492.5" y="-145.86" font-family="Helvetica,sans-Serif" font-size="10.00" fill="grey"> EarthDensityFile</text>
<text text-anchor="middle" x="492.5" y="-134.61" font-family="Helvetica,sans-Serif" font-size="10.00" fill="grey">ProductionHeightsFile</text>
</g>
<!-- Node6&#45;&gt;Node2 -->
<g id="edge5_Node000002_Node000006" class="edge">
<title>Node6&#45;&gt;Node2</title>
<g id="a_edge5_Node000002_Node000006"><a xlink:title=" ">
<path fill="none" stroke="#9a32cd" stroke-dasharray="5,2" d="M231.97,-78.78C285.54,-84.09 377.42,-95.31 406.5,-112 445.71,-134.51 474.91,-182.33 486.28,-203.18"/>
<polygon fill="#9a32cd" stroke="#9a32cd" points="232.32,-75.3 222.03,-77.83 231.64,-82.27 232.32,-75.3"/>
</a>
</g>
<text text-anchor="middle" x="338.62" y="-113.75" font-family="Helvetica,sans-Serif" font-size="10.00" fill="grey"> fImplementationName</text>
</g>
<!-- Node7 -->
<g id="Node000007" class="node">
<title>Node7</title>
<g id="a_Node000007"><a xlink:title=" ">
<polygon fill="white" stroke="#666666" points="92.5,-90.5 0,-90.5 0,-60 92.5,-60 92.5,-90.5"/>
<text text-anchor="start" x="8" y="-77" font-family="Helvetica,sans-Serif" font-size="10.00">std::basic_string&lt;</text>
<text text-anchor="middle" x="46.25" y="-65.75" font-family="Helvetica,sans-Serif" font-size="10.00"> Char &gt;</text>
</a>
</g>
</g>
<!-- Node7&#45;&gt;Node6 -->
<g id="edge6_Node000006_Node000007" class="edge">
<title>Node7&#45;&gt;Node6</title>
<g id="a_edge6_Node000006_Node000007"><a xlink:title=" ">
<path fill="none" stroke="#63b8ff" d="M104.3,-75.25C124.13,-75.25 145.51,-75.25 161.97,-75.25"/>
<polygon fill="#63b8ff" stroke="#63b8ff" points="104.36,-71.75 94.36,-75.25 104.36,-78.75 104.36,-71.75"/>
</a>
</g>
</g>
<!-- Node8 -->
<g id="Node000008" class="node">
<title>Node8</title>
<g id="a_Node000008"><a xlink:title=" ">
<polygon fill="white" stroke="#666666" points="241.88,-227.5 140.38,-227.5 140.38,-197 241.88,-197 241.88,-227.5"/>
<text text-anchor="start" x="148.38" y="-214" font-family="Helvetica,sans-Serif" font-size="10.00">std::vector&lt; FLOAT</text>
<text text-anchor="middle" x="191.12" y="-202.75" font-family="Helvetica,sans-Serif" font-size="10.00">_T * &gt;</text>
</a>
</g>
</g>
<!-- Node8&#45;&gt;Node2 -->
<g id="edge7_Node000002_Node000008" class="edge">
<title>Node8&#45;&gt;Node2</title>
<g id="a_edge7_Node000002_Node000008"><a xlink:title=" ">
<path fill="none" stroke="#9a32cd" stroke-dasharray="5,2" d="M253.57,-212.46C308.56,-212.64 388.25,-212.91 439.97,-213.08"/>
<polygon fill="#9a32cd" stroke="#9a32cd" points="253.76,-208.96 243.75,-212.42 253.74,-215.96 253.76,-208.96"/>
</a>
</g>
<text text-anchor="middle" x="338.62" y="-214.7" font-family="Helvetica,sans-Serif" font-size="10.00" fill="grey"> fOscParams</text>
</g>
<!-- Node9 -->
<g id="Node000009" class="node">
<title>Node9</title>
<g id="a_Node000009"><a xlink:title=" ">
<polygon fill="white" stroke="#666666" points="250.88,-343.88 131.38,-343.88 131.38,-324.62 250.88,-324.62 250.88,-343.88"/>
<text text-anchor="middle" x="191.12" y="-330.38" font-family="Helvetica,sans-Serif" font-size="10.00">std::vector&lt; std::string &gt;</text>
</a>
</g>
</g>
<!-- Node9&#45;&gt;Node1 -->
<g id="edge13_Node000001_Node000009" class="edge">
<title>Node9&#45;&gt;Node1</title>
<g id="a_edge13_Node000001_Node000009"><a xlink:title=" ">
<path fill="none" stroke="#9a32cd" stroke-dasharray="5,2" d="M262.23,-343.54C304.43,-347.24 359,-348.69 406.5,-339.25 521.86,-316.33 648.31,-249.02 693.71,-223.35"/>
<polygon fill="#9a32cd" stroke="#9a32cd" points="262.74,-340.07 252.46,-342.61 262.08,-347.04 262.74,-340.07"/>
</a>
</g>
<text text-anchor="start" x="426.12" y="-348.05" font-family="Helvetica,sans-Serif" font-size="10.00" fill="grey"> ProductionHeightsHistFlavour</text>
<text text-anchor="middle" x="492.5" y="-336.8" font-family="Helvetica,sans-Serif" font-size="10.00" fill="grey">Suffixes</text>
</g>
<!-- Node9&#45;&gt;Node2 -->
<g id="edge8_Node000002_Node000009" class="edge">
<title>Node9&#45;&gt;Node2</title>
<g id="a_edge8_Node000002_Node000009"><a xlink:title=" ">
<path fill="none" stroke="#9a32cd" stroke-dasharray="5,2" d="M246.87,-321.72C254.86,-319.99 263.01,-318.28 270.75,-316.75 330.82,-304.87 351.72,-320.61 406.5,-293.25 440.76,-276.13 470.77,-240.69 484.12,-223.3"/>
<polygon fill="#9a32cd" stroke="#9a32cd" points="246.21,-318.28 237.19,-323.84 247.71,-325.11 246.21,-318.28"/>
</a>
</g>
<text text-anchor="start" x="270.75" y="-329.75" font-family="Helvetica,sans-Serif" font-size="10.00" fill="grey"> fExpectedOscillationParameter</text>
<text text-anchor="middle" x="338.62" y="-318.5" font-family="Helvetica,sans-Serif" font-size="10.00" fill="grey">Names</text>
</g>
<!-- Node10 -->
<g id="Node000010" class="node">
<title>Node10</title>
<g id="a_Node000010"><a xlink:title=" ">
<polygon fill="white" stroke="#666666" points="238.88,-177.88 143.38,-177.88 143.38,-158.62 238.88,-158.62 238.88,-177.88"/>
<text text-anchor="middle" x="191.12" y="-164.38" font-family="Helvetica,sans-Serif" font-size="10.00">std::vector&lt; bool &gt;</text>
</a>
</g>
</g>
<!-- Node10&#45;&gt;Node2 -->
<g id="edge9_Node000002_Node000010" class="edge">
<title>Node10&#45;&gt;Node2</title>
<g id="a_edge9_Node000002_Node000010"><a xlink:title=" ">
<path fill="none" stroke="#9a32cd" stroke-dasharray="5,2" d="M250.46,-169.37C293.86,-171.09 354.34,-175.33 406.5,-185.75 426.88,-189.82 449.21,-197.17 465.87,-203.24"/>
<polygon fill="#9a32cd" stroke="#9a32cd" points="250.61,-165.88 240.49,-169.02 250.36,-172.87 250.61,-165.88"/>
</a>
</g>
<text text-anchor="start" x="280.5" y="-198.75" font-family="Helvetica,sans-Serif" font-size="10.00" fill="grey"> fOscillationParametersSet</text>
<text text-anchor="middle" x="338.62" y="-187.5" font-family="Helvetica,sans-Serif" font-size="10.00" fill="grey">Check</text>
</g>
<!-- Node11 -->
<g id="Node000011" class="node">
<title>Node11</title>
<g id="a_Node000011"><a xlink:title=" ">
<polygon fill="white" stroke="#666666" points="560.5,-30.5 424.5,-30.5 424.5,0 560.5,0 560.5,-30.5"/>
<text text-anchor="start" x="432.5" y="-17" font-family="Helvetica,sans-Serif" font-size="10.00">std::unique_ptr&lt; cudaprob3</text>
<text text-anchor="middle" x="492.5" y="-5.75" font-family="Helvetica,sans-Serif" font-size="10.00">::Propagator&lt; FLOAT_T &gt; &gt;</text>
</a>
</g>
</g>
<!-- Node11&#45;&gt;Node1 -->
<g id="edge11_Node000001_Node000011" class="edge">
<title>Node11&#45;&gt;Node1</title>
<g id="a_edge11_Node000001_Node000011"><a xlink:title=" ">
<path fill="none" stroke="#9a32cd" stroke-dasharray="5,2" d="M572.25,-18.37C591.48,-22.24 610.96,-29.12 626.5,-41 682.62,-83.9 703.83,-173.87 709.46,-203.54"/>
<polygon fill="#9a32cd" stroke="#9a32cd" points="572.94,-14.93 562.49,-16.68 571.75,-21.83 572.94,-14.93"/>
</a>
</g>
<text text-anchor="middle" x="602.5" y="-42.75" font-family="Helvetica,sans-Serif" font-size="10.00" fill="grey"> propagator</text>
</g>
</g>
</svg>

<g id="navigator" transform="translate(0 0)" fill="#404254">
  <rect fill="#f2f5e9" fill-opacity="0.5" stroke="#606060" stroke-width=".5" x="0" y="0" width="60" height="60"/>
  <use id="zoomplus" xlink:href="#zoomPlus" x="17" y="9" onmousedown="handleZoom(evt,'in')"/>
  <use id="zoomminus" xlink:href="#zoomMin" x="42" y="9" onmousedown="handleZoom(evt,'out')"/>
  <use id="reset" xlink:href="#resetDef" x="30" y="36" onmousedown="handleReset()"/>
   <use id="arrowup" xlink:href="#arrowUp" x="0" y="0" onmousedown="handlePan(0,-1)"/>
  <use id="arrowright" xlink:href="#arrowRight" x="0" y="0" onmousedown="handlePan(1,0)"/>
  <use id="arrowdown" xlink:href="#arrowDown" x="0" y="0" onmousedown="handlePan(0,1)"/>
  <use id="arrowleft" xlink:href="#arrowLeft" x="0" y="0" onmousedown="handlePan(-1,0)"/>
</g>
<svg viewBox="0 0 15 15" width="100%" height="30px" preserveAspectRatio="xMaxYMin meet">
 <g id="arrow_out" transform="scale(0.3 0.3)">
  <a xlink:href="classOscProbCalcerCUDAProb3__coll__graph_org.svg" target="_base">
   <rect id="button" ry="5" rx="5" y="6" x="6" height="38" width="38"
        fill="#f2f5e9" fill-opacity="0.5" stroke="#606060" stroke-width="1.0"/>
   <path id="arrow"
     d="M 11.500037,31.436501 C 11.940474,20.09759 22.043105,11.32322 32.158766,21.979434 L 37.068811,17.246167 C 37.068811,17.246167 37.088388,32 37.088388,32 L 22.160133,31.978069 C 22.160133,31.978069 26.997745,27.140456 26.997745,27.140456 C 18.528582,18.264221 13.291696,25.230495 11.500037,31.436501 z"
     style="fill:#404040;"/>
  </a>
 </g>
</svg>

<style type='text/css'>
<![CDATA[
[data-mouse-over-selected='false'] { opacity: 0.7; }
[data-mouse-over-selected='true']  { opacity: 1.0; }
]]>
</style>
<script type="application/ecmascript"><![CDATA[
document.addEventListener('DOMContentLoaded', (event) => {
  highlightEdges();
  highlightAdjacentNodes();
});
]]></script>
</svg>
