<?xml version="1.0" encoding="UTF-8" standalone="no"?>
<!DOCTYPE svg PUBLIC "-//W3C//DTD SVG 1.1//EN"
 "http://www.w3.org/Graphics/SVG/1.1/DTD/svg11.dtd">
<!-- Generated by graphviz version 12.2.0 (20241103.1931)
 -->
<!-- Title: OscillatorBinned Pages: 1 -->
<!--zoomable 350 -->

<svg id="main" version="1.1" xmlns="http://www.w3.org/2000/svg" xmlns:xlink="http://www.w3.org/1999/xlink" xml:space="preserve" onload="init(evt)">

<style type="text/css"><![CDATA[
.node, .edge {opacity: 0.7;}
.node.selected, .edge.selected {opacity: 1;}
.edge:hover path { stroke: red; }
.edge:hover polygon { stroke: red; fill: red; }
]]></style>

<defs>
  <circle id="rim" cx="0" cy="0" r="7"/>
  <circle id="rim2" cx="0" cy="0" r="3.5"/>
  <g id="zoomPlus">
    <use xlink:href="#rim" fill="#404040"><set attributeName="fill" to="#808080" begin="zoomplus.mouseover" end="zoomplus.mouseout"/></use>
    <path d="M-4,0h8M0,-4v8" fill="none" stroke="white" stroke-width="1.5" pointer-events="none"/>
  </g>
  <g id="zoomMin">
    <use xlink:href="#rim" fill="#404040"><set attributeName="fill" to="#808080" begin="zoomminus.mouseover" end="zoomminus.mouseout"/></use>
    <path d="M-4,0h8" fill="none" stroke="white" stroke-width="1.5" pointer-events="none"/>
  </g>
  <g id="arrowUp" transform="translate(30 24)">
    <use xlink:href="#rim"/>
    <path pointer-events="none" fill="none" stroke="white" stroke-width="1.5" d="M0,-3.0v7 M-2.5,-0.5L0,-3.0L2.5,-0.5"/>
  </g>
  <g id="arrowRight" transform="rotate(90) translate(36 -43)">
    <use xlink:href="#rim"/>
    <path pointer-events="none" fill="none" stroke="white" stroke-width="1.5" d="M0,-3.0v7 M-2.5,-0.5L0,-3.0L2.5,-0.5"/>
  </g>
  <g id="arrowDown" transform="rotate(180) translate(-30 -48)">
    <use xlink:href="#rim"/>
    <path pointer-events="none" fill="none" stroke="white" stroke-width="1.5" d="M0,-3.0v7 M-2.5,-0.5L0,-3.0L2.5,-0.5"/>
  </g>
  <g id="arrowLeft" transform="rotate(270) translate(-36 17)">
    <use xlink:href="#rim"/>
    <path pointer-events="none" fill="none" stroke="white" stroke-width="1.5" d="M0,-3.0v7 M-2.5,-0.5L0,-3.0L2.5,-0.5"/>
  </g>
  <g id="resetDef">
    <use xlink:href="#rim2" fill="#404040"><set attributeName="fill" to="#808080" begin="reset.mouseover" end="reset.mouseout"/></use>
  </g>
</defs>
<script type="application/ecmascript">
var viewWidth = 882;
var viewHeight = 350;
var sectionId = 'dynsection-1';
</script>
<script type="application/ecmascript" xlink:href="svg.min.js"/>
<svg id="graph" class="graph">
<g id="viewport">
<title>OscillatorBinned</title>
<!-- Node1 -->
<g id="Node000001" class="node">
<title>Node1</title>
<g id="a_Node000001"><a xlink:title="Binned Oscillation calculation implementation class.">
<polygon fill="#999999" stroke="#666666" points="874,-78.92 786.75,-78.92 786.75,-59.67 874,-59.67 874,-78.92"/>
<text text-anchor="middle" x="830.38" y="-65.42" font-family="Helvetica,sans-Serif" font-size="10.00">OscillatorBinned</text>
</a>
</g>
</g>
<!-- Node2 -->
<g id="Node000002" class="node">
<title>Node2</title>
<g id="a_Node000002"><a xlink:href="classOscillatorBase.html" target="_top" xlink:title="Oscillation calculation (binned, unbinned, etc.) implementation agnostic base class.">
<polygon fill="white" stroke="#666666" points="749.75,-78.92 670,-78.92 670,-59.67 749.75,-59.67 749.75,-78.92"/>
<text text-anchor="middle" x="709.88" y="-65.42" font-family="Helvetica,sans-Serif" font-size="10.00">OscillatorBase</text>
</a>
</g>
</g>
<!-- Node2&#45;&gt;Node1 -->
<g id="edge1_Node000001_Node000002" class="edge">
<title>Node2&#45;&gt;Node1</title>
<g id="a_edge1_Node000001_Node000002"><a xlink:title=" ">
<path fill="none" stroke="#63b8ff" d="M761.29,-69.29C769.72,-69.29 778.39,-69.29 786.61,-69.29"/>
<polygon fill="#63b8ff" stroke="#63b8ff" points="761.52,-65.79 751.52,-69.29 761.52,-72.79 761.52,-65.79"/>
</a>
</g>
</g>
<!-- Node3 -->
<g id="Node000003" class="node">
<title>Node3</title>
<g id="a_Node000003"><a xlink:href="classOscProbCalcerBase.html" target="_top" xlink:title="Oscillation calculation engine (CUDAProb3, ProbGPU, Prob3++, etc.) implementation agnostic base class...">
<polygon fill="white" stroke="#666666" points="529,-166.92 424.5,-166.92 424.5,-147.67 529,-147.67 529,-166.92"/>
<text text-anchor="middle" x="476.75" y="-153.42" font-family="Helvetica,sans-Serif" font-size="10.00">OscProbCalcerBase</text>
</a>
</g>
</g>
<!-- Node3&#45;&gt;Node2 -->
<g id="edge2_Node000002_Node000003" class="edge">
<title>Node3&#45;&gt;Node2</title>
<g id="a_edge2_Node000002_Node000003"><a xlink:title=" ">
<path fill="none" stroke="#9a32cd" stroke-dasharray="5,2" d="M514.86,-143.16C561.71,-125.33 641.12,-95.09 682.32,-79.41"/>
<polygon fill="#9a32cd" stroke="#9a32cd" points="513.78,-139.83 505.68,-146.66 516.27,-146.37 513.78,-139.83"/>
</a>
</g>
<text text-anchor="middle" x="599.5" y="-130.58" font-family="Helvetica,sans-Serif" font-size="10.00" fill="grey"> fOscProbCalcer</text>
</g>
<!-- Node4 -->
<g id="Node000004" class="node">
<title>Node4</title>
<g id="a_Node000004"><a xlink:title=" ">
<polygon fill="white" stroke="#666666" points="235.12,-227.92 147.12,-227.92 147.12,-208.67 235.12,-208.67 235.12,-227.92"/>
<text text-anchor="middle" x="191.12" y="-214.42" font-family="Helvetica,sans-Serif" font-size="10.00">std::vector&lt; int &gt;</text>
</a>
</g>
</g>
<!-- Node4&#45;&gt;Node3 -->
<g id="edge3_Node000003_Node000004" class="edge">
<title>Node4&#45;&gt;Node3</title>
<g id="a_edge3_Node000003_Node000004"><a xlink:title=" ">
<path fill="none" stroke="#9a32cd" stroke-dasharray="5,2" d="M246.71,-213.42C290.47,-208.66 353.17,-199.97 406.5,-185.29 423.13,-180.72 441.17,-173.34 454.67,-167.31"/>
<polygon fill="#9a32cd" stroke="#9a32cd" points="246.53,-209.91 236.95,-214.44 247.26,-216.88 246.53,-209.91"/>
</a>
</g>
<text text-anchor="middle" x="338.62" y="-211.86" font-family="Helvetica,sans-Serif" font-size="10.00" fill="grey"> fNeutrinoTypes</text>
</g>
<!-- Node5 -->
<g id="Node000005" class="node">
<title>Node5</title>
<g id="a_Node000005"><a xlink:title=" ">
<polygon fill="white" stroke="#666666" points="252.75,-190.54 129.5,-190.54 129.5,-160.04 252.75,-160.04 252.75,-190.54"/>
<text text-anchor="start" x="137.5" y="-177.04" font-family="Helvetica,sans-Serif" font-size="10.00">std::vector&lt; NuOscillator</text>
<text text-anchor="middle" x="191.12" y="-165.79" font-family="Helvetica,sans-Serif" font-size="10.00">::OscillationChannel &gt;</text>
</a>
</g>
</g>
<!-- Node5&#45;&gt;Node3 -->
<g id="edge4_Node000003_Node000005" class="edge">
<title>Node5&#45;&gt;Node3</title>
<g id="a_edge4_Node000003_Node000005"><a xlink:title=" ">
<path fill="none" stroke="#9a32cd" stroke-dasharray="5,2" d="M264.33,-170.71C314.19,-167.55 379.31,-163.41 424.04,-160.58"/>
<polygon fill="#9a32cd" stroke="#9a32cd" points="264.24,-167.21 254.48,-171.34 264.68,-174.2 264.24,-167.21"/>
</a>
</g>
<text text-anchor="middle" x="338.62" y="-171.73" font-family="Helvetica,sans-Serif" font-size="10.00" fill="grey"> fOscillationChannels</text>
</g>
<!-- Node6 -->
<g id="Node000006" class="node">
<title>Node6</title>
<g id="a_Node000006"><a xlink:title=" ">
<polygon fill="white" stroke="#666666" points="251.62,-334.92 130.62,-334.92 130.62,-315.67 251.62,-315.67 251.62,-334.92"/>
<text text-anchor="middle" x="191.12" y="-321.42" font-family="Helvetica,sans-Serif" font-size="10.00">std::vector&lt; FLOAT_T &gt;</text>
</a>
</g>
</g>
<!-- Node6&#45;&gt;Node1 -->
<g id="edge13_Node000001_Node000006" class="edge">
<title>Node6&#45;&gt;Node1</title>
<g id="a_edge13_Node000001_Node000006"><a xlink:title=" ">
<path fill="none" stroke="#9a32cd" stroke-dasharray="5,2" d="M255.57,-336.95C298.91,-342.53 357.19,-345.33 406.5,-331.29 590.9,-278.8 773.49,-120.32 818.74,-79.15"/>
<polygon fill="#9a32cd" stroke="#9a32cd" points="256.21,-333.5 245.82,-335.6 255.25,-340.44 256.21,-333.5"/>
</a>
</g>
<text text-anchor="middle" x="599.5" y="-306.58" font-family="Helvetica,sans-Serif" font-size="10.00" fill="grey"> CosineZAxisBinCenters</text>
<text text-anchor="middle" x="599.5" y="-295.33" font-family="Helvetica,sans-Serif" font-size="10.00" fill="grey">CosineZAxisBinEdges</text>
<text text-anchor="middle" x="599.5" y="-284.08" font-family="Helvetica,sans-Serif" font-size="10.00" fill="grey">EnergyAxisBinCenters</text>
<text text-anchor="middle" x="599.5" y="-272.83" font-family="Helvetica,sans-Serif" font-size="10.00" fill="grey">EnergyAxisBinEdges</text>
</g>
<!-- Node6&#45;&gt;Node3 -->
<g id="edge5_Node000003_Node000006" class="edge">
<title>Node6&#45;&gt;Node3</title>
<g id="a_edge5_Node000003_Node000006"><a xlink:title=" ">
<path fill="none" stroke="#9a32cd" stroke-dasharray="5,2" d="M218.69,-309.68C233.55,-301.57 252.68,-292.17 270.75,-286.29 328.95,-267.39 355.31,-296.83 406.5,-263.29 443.09,-239.32 464.64,-188.57 472.42,-167.15"/>
<polygon fill="#9a32cd" stroke="#9a32cd" points="217.03,-306.6 210.01,-314.54 220.45,-312.7 217.03,-306.6"/>
</a>
</g>
<text text-anchor="middle" x="338.62" y="-321.79" font-family="Helvetica,sans-Serif" font-size="10.00" fill="grey"> fCosineZArray</text>
<text text-anchor="middle" x="338.62" y="-310.54" font-family="Helvetica,sans-Serif" font-size="10.00" fill="grey">fEnergyArray</text>
<text text-anchor="middle" x="338.62" y="-299.29" font-family="Helvetica,sans-Serif" font-size="10.00" fill="grey">fOscParamsCurr</text>
<text text-anchor="middle" x="338.62" y="-288.04" font-family="Helvetica,sans-Serif" font-size="10.00" fill="grey">fWeightArray</text>
</g>
<!-- Node7 -->
<g id="Node000007" class="node">
<title>Node7</title>
<g id="a_Node000007"><a xlink:title=" ">
<polygon fill="white" stroke="#666666" points="220.12,-30.92 162.12,-30.92 162.12,-11.67 220.12,-11.67 220.12,-30.92"/>
<text text-anchor="middle" x="191.12" y="-17.42" font-family="Helvetica,sans-Serif" font-size="10.00">std::string</text>
</a>
</g>
</g>
<!-- Node7&#45;&gt;Node1 -->
<g id="edge12_Node000001_Node000007" class="edge">
<title>Node7&#45;&gt;Node1</title>
<g id="a_edge12_Node000001_Node000007"><a xlink:title=" ">
<path fill="none" stroke="#9a32cd" stroke-dasharray="5,2" d="M231.62,-15.97C311.56,-6.21 498.03,11.49 652,-12.54 708.86,-21.42 772.4,-45.39 805.85,-59.17"/>
<polygon fill="#9a32cd" stroke="#9a32cd" points="231.6,-12.45 222.12,-17.16 232.47,-19.39 231.6,-12.45"/>
</a>
</g>
<text text-anchor="middle" x="599.5" y="-36.79" font-family="Helvetica,sans-Serif" font-size="10.00" fill="grey"> CosineZAxisHistName</text>
<text text-anchor="middle" x="599.5" y="-25.54" font-family="Helvetica,sans-Serif" font-size="10.00" fill="grey">EnergyAxisHistName</text>
<text text-anchor="middle" x="599.5" y="-14.29" font-family="Helvetica,sans-Serif" font-size="10.00" fill="grey">FileName</text>
</g>
<!-- Node7&#45;&gt;Node2 -->
<g id="edge11_Node000002_Node000007" class="edge">
<title>Node7&#45;&gt;Node2</title>
<g id="a_edge11_Node000002_Node000007"><a xlink:title=" ">
<path fill="none" stroke="#9a32cd" stroke-dasharray="5,2" d="M231.98,-23.34C275.06,-25.68 345.71,-29.89 406.5,-35.29 501.21,-43.71 612.23,-57.1 669.79,-64.31"/>
<polygon fill="#9a32cd" stroke="#9a32cd" points="232.28,-19.85 222.1,-22.81 231.9,-26.84 232.28,-19.85"/>
</a>
</g>
<text text-anchor="middle" x="476.75" y="-49.16" font-family="Helvetica,sans-Serif" font-size="10.00" fill="grey"> fCalculationTypeName</text>
</g>
<!-- Node7&#45;&gt;Node3 -->
<g id="edge6_Node000003_Node000007" class="edge">
<title>Node7&#45;&gt;Node3</title>
<g id="a_edge6_Node000003_Node000007"><a xlink:title=" ">
<path fill="none" stroke="#9a32cd" stroke-dasharray="5,2" d="M231.87,-28.24C289.72,-38.58 391.86,-57.8 406.5,-67.04 438.73,-87.4 461.72,-128.36 471.09,-147.28"/>
<polygon fill="#9a32cd" stroke="#9a32cd" points="232.54,-24.8 222.08,-26.5 231.31,-31.7 232.54,-24.8"/>
</a>
</g>
<text text-anchor="middle" x="338.62" y="-68.79" font-family="Helvetica,sans-Serif" font-size="10.00" fill="grey"> fImplementationName</text>
</g>
<!-- Node8 -->
<g id="Node000008" class="node">
<title>Node8</title>
<g id="a_Node000008"><a xlink:title=" ">
<polygon fill="white" stroke="#666666" points="92.5,-36.54 0,-36.54 0,-6.04 92.5,-6.04 92.5,-36.54"/>
<text text-anchor="start" x="8" y="-23.04" font-family="Helvetica,sans-Serif" font-size="10.00">std::basic_string&lt;</text>
<text text-anchor="middle" x="46.25" y="-11.79" font-family="Helvetica,sans-Serif" font-size="10.00"> Char &gt;</text>
</a>
</g>
</g>
<!-- Node8&#45;&gt;Node7 -->
<g id="edge7_Node000007_Node000008" class="edge">
<title>Node8&#45;&gt;Node7</title>
<g id="a_edge7_Node000007_Node000008"><a xlink:title=" ">
<path fill="none" stroke="#63b8ff" d="M104.3,-21.29C124.13,-21.29 145.51,-21.29 161.97,-21.29"/>
<polygon fill="#63b8ff" stroke="#63b8ff" points="104.36,-17.79 94.36,-21.29 104.36,-24.79 104.36,-17.79"/>
</a>
</g>
</g>
<!-- Node9 -->
<g id="Node000009" class="node">
<title>Node9</title>
<g id="a_Node000009"><a xlink:title=" ">
<polygon fill="white" stroke="#666666" points="241.88,-276.54 140.38,-276.54 140.38,-246.04 241.88,-246.04 241.88,-276.54"/>
<text text-anchor="start" x="148.38" y="-263.04" font-family="Helvetica,sans-Serif" font-size="10.00">std::vector&lt; FLOAT</text>
<text text-anchor="middle" x="191.12" y="-251.79" font-family="Helvetica,sans-Serif" font-size="10.00">_T * &gt;</text>
</a>
</g>
</g>
<!-- Node9&#45;&gt;Node3 -->
<g id="edge8_Node000003_Node000009" class="edge">
<title>Node9&#45;&gt;Node3</title>
<g id="a_edge8_Node000003_Node000009"><a xlink:title=" ">
<path fill="none" stroke="#9a32cd" stroke-dasharray="5,2" d="M253.68,-252.88C312.12,-244.58 393,-232.17 406.5,-225.29 433.97,-211.29 457.55,-182.56 468.77,-167.31"/>
<polygon fill="#9a32cd" stroke="#9a32cd" points="253.23,-249.41 243.82,-254.27 254.21,-256.34 253.23,-249.41"/>
</a>
</g>
<text text-anchor="middle" x="338.62" y="-251.84" font-family="Helvetica,sans-Serif" font-size="10.00" fill="grey"> fOscParams</text>
</g>
<!-- Node10 -->
<g id="Node000010" class="node">
<title>Node10</title>
<g id="a_Node000010"><a xlink:title=" ">
<polygon fill="white" stroke="#666666" points="250.88,-141.92 131.38,-141.92 131.38,-122.67 250.88,-122.67 250.88,-141.92"/>
<text text-anchor="middle" x="191.12" y="-128.42" font-family="Helvetica,sans-Serif" font-size="10.00">std::vector&lt; std::string &gt;</text>
</a>
</g>
</g>
<!-- Node10&#45;&gt;Node3 -->
<g id="edge9_Node000003_Node000010" class="edge">
<title>Node10&#45;&gt;Node3</title>
<g id="a_edge9_Node000003_Node000010"><a xlink:title=" ">
<path fill="none" stroke="#9a32cd" stroke-dasharray="5,2" d="M262.45,-128.44C304.51,-127.37 358.86,-128.17 406.5,-135.79 421.04,-138.12 436.76,-142.81 449.54,-147.22"/>
<polygon fill="#9a32cd" stroke="#9a32cd" points="262.61,-124.93 252.72,-128.73 262.82,-131.93 262.61,-124.93"/>
</a>
</g>
<text text-anchor="start" x="270.75" y="-148.79" font-family="Helvetica,sans-Serif" font-size="10.00" fill="grey"> fExpectedOscillationParameter</text>
<text text-anchor="middle" x="338.62" y="-137.54" font-family="Helvetica,sans-Serif" font-size="10.00" fill="grey">Names</text>
</g>
<!-- Node11 -->
<g id="Node000011" class="node">
<title>Node11</title>
<g id="a_Node000011"><a xlink:title=" ">
<polygon fill="white" stroke="#666666" points="238.88,-97.92 143.38,-97.92 143.38,-78.67 238.88,-78.67 238.88,-97.92"/>
<text text-anchor="middle" x="191.12" y="-84.42" font-family="Helvetica,sans-Serif" font-size="10.00">std::vector&lt; bool &gt;</text>
</a>
</g>
</g>
<!-- Node11&#45;&gt;Node3 -->
<g id="edge10_Node000003_Node000011" class="edge">
<title>Node11&#45;&gt;Node3</title>
<g id="a_edge10_Node000003_Node000011"><a xlink:title=" ">
<path fill="none" stroke="#9a32cd" stroke-dasharray="5,2" d="M250.45,-82.66C294.75,-80.56 356.38,-82.4 406.5,-101.79 431.79,-111.58 455.04,-134.14 467.1,-147.29"/>
<polygon fill="#9a32cd" stroke="#9a32cd" points="250.31,-79.16 240.52,-83.22 250.7,-86.15 250.31,-79.16"/>
</a>
</g>
<text text-anchor="start" x="280.5" y="-114.79" font-family="Helvetica,sans-Serif" font-size="10.00" fill="grey"> fOscillationParametersSet</text>
<text text-anchor="middle" x="338.62" y="-103.54" font-family="Helvetica,sans-Serif" font-size="10.00" fill="grey">Check</text>
</g>
</g>
</svg>

<g id="navigator" transform="translate(0 0)" fill="#404254">
  <rect fill="#f2f5e9" fill-opacity="0.5" stroke="#606060" stroke-width=".5" x="0" y="0" width="60" height="60"/>
  <use id="zoomplus" xlink:href="#zoomPlus" x="17" y="9" onmousedown="handleZoom(evt,'in')"/>
  <use id="zoomminus" xlink:href="#zoomMin" x="42" y="9" onmousedown="handleZoom(evt,'out')"/>
  <use id="reset" xlink:href="#resetDef" x="30" y="36" onmousedown="handleReset()"/>
   <use id="arrowup" xlink:href="#arrowUp" x="0" y="0" onmousedown="handlePan(0,-1)"/>
  <use id="arrowright" xlink:href="#arrowRight" x="0" y="0" onmousedown="handlePan(1,0)"/>
  <use id="arrowdown" xlink:href="#arrowDown" x="0" y="0" onmousedown="handlePan(0,1)"/>
  <use id="arrowleft" xlink:href="#arrowLeft" x="0" y="0" onmousedown="handlePan(-1,0)"/>
</g>
<svg viewBox="0 0 15 15" width="100%" height="30px" preserveAspectRatio="xMaxYMin meet">
 <g id="arrow_out" transform="scale(0.3 0.3)">
  <a xlink:href="classOscillatorBinned__coll__graph_org.svg" target="_base">
   <rect id="button" ry="5" rx="5" y="6" x="6" height="38" width="38"
        fill="#f2f5e9" fill-opacity="0.5" stroke="#606060" stroke-width="1.0"/>
   <path id="arrow"
     d="M 11.500037,31.436501 C 11.940474,20.09759 22.043105,11.32322 32.158766,21.979434 L 37.068811,17.246167 C 37.068811,17.246167 37.088388,32 37.088388,32 L 22.160133,31.978069 C 22.160133,31.978069 26.997745,27.140456 26.997745,27.140456 C 18.528582,18.264221 13.291696,25.230495 11.500037,31.436501 z"
     style="fill:#404040;"/>
  </a>
 </g>
</svg>

<style type='text/css'>
<![CDATA[
[data-mouse-over-selected='false'] { opacity: 0.7; }
[data-mouse-over-selected='true']  { opacity: 1.0; }
]]>
</style>
<script type="application/ecmascript"><![CDATA[
document.addEventListener('DOMContentLoaded', (event) => {
  highlightEdges();
  highlightAdjacentNodes();
});
]]></script>
</svg>
