<?xml version="1.0" encoding="UTF-8" standalone="no"?>
<!DOCTYPE svg PUBLIC "-//W3C//DTD SVG 1.1//EN"
 "http://www.w3.org/Graphics/SVG/1.1/DTD/svg11.dtd">
<!-- Generated by graphviz version 9.0.0 (20230911.1827)
 -->
<!-- Title: OscProbCalcerBase Pages: 1 -->
<svg width="311pt" height="397pt"
 viewBox="0.00 0.00 310.75 397.25" xmlns="http://www.w3.org/2000/svg" xmlns:xlink="http://www.w3.org/1999/xlink">
<g id="graph0" class="graph" transform="scale(1 1) rotate(0) translate(4 393.25)">
<title>OscProbCalcerBase</title>
<!-- Node1 -->
<g id="Node000001" class="node">
<title>Node1</title>
<g id="a_Node000001"><a xlink:title="Oscillation calculation engine (CUDAProb3, ProbGPU, Prob3++, etc.) implementation agnostic base class...">
<polygon fill="#999999" stroke="#666666" points="104.5,-204.25 0,-204.25 0,-185 104.5,-185 104.5,-204.25"/>
<text text-anchor="middle" x="52.25" y="-190.75" font-family="Helvetica,sans-Serif" font-size="10.00">OscProbCalcerBase</text>
</a>
</g>
</g>
<!-- Node2 -->
<g id="Node000002" class="node">
<title>Node2</title>
<g id="a_Node000002"><a xlink:href="classOscProbCalcerCHICLinear.html" target="_top" xlink:title="Oscillation calculation engine for linear propagation in CHIC.">
<polygon fill="white" stroke="#666666" points="288.12,-389.25 155.12,-389.25 155.12,-370 288.12,-370 288.12,-389.25"/>
<text text-anchor="middle" x="221.62" y="-375.75" font-family="Helvetica,sans-Serif" font-size="10.00">OscProbCalcerCHICLinear</text>
</a>
</g>
</g>
<!-- Node1&#45;&gt;Node2 -->
<g id="edge1_Node000001_Node000002" class="edge">
<title>Node1&#45;&gt;Node2</title>
<g id="a_edge1_Node000001_Node000002"><a xlink:title=" ">
<path fill="none" stroke="#63b8ff" d="M58.01,-215.36C67.35,-251.08 91.54,-324.01 140.5,-361.62 144.91,-365.01 149.83,-367.79 155.02,-370.05"/>
<polygon fill="#63b8ff" stroke="#63b8ff" points="61.47,-214.74 55.68,-205.86 54.67,-216.41 61.47,-214.74"/>
</a>
</g>
</g>
<!-- Node3 -->
<g id="Node000003" class="node">
<title>Node3</title>
<g id="a_Node000003"><a xlink:href="classOscProbCalcerCUDAProb3.html" target="_top" xlink:title="Oscillation calculation engine for linear and atmospheric propagation in CUDAProb3.">
<polygon fill="white" stroke="#666666" points="289.25,-352.25 154,-352.25 154,-333 289.25,-333 289.25,-352.25"/>
<text text-anchor="middle" x="221.62" y="-338.75" font-family="Helvetica,sans-Serif" font-size="10.00">OscProbCalcerCUDAProb3</text>
</a>
</g>
</g>
<!-- Node1&#45;&gt;Node3 -->
<g id="edge2_Node000001_Node000003" class="edge">
<title>Node1&#45;&gt;Node3</title>
<g id="a_edge2_Node000001_Node000003"><a xlink:title=" ">
<path fill="none" stroke="#63b8ff" d="M61.22,-215.23C73.6,-244.36 100.29,-297.09 140.5,-324.62 145.09,-327.77 150.14,-330.37 155.4,-332.52"/>
<polygon fill="#63b8ff" stroke="#63b8ff" points="64.51,-214.01 57.49,-206.06 58.02,-216.64 64.51,-214.01"/>
</a>
</g>
</g>
<!-- Node4 -->
<g id="Node000004" class="node">
<title>Node4</title>
<g id="a_Node000004"><a xlink:href="classOscProbCalcerCUDAProb3Linear.html" target="_top" xlink:title="Oscillation calculation engine for linear propagation in CUDAProb3.">
<polygon fill="white" stroke="#666666" points="302.75,-315.25 140.5,-315.25 140.5,-296 302.75,-296 302.75,-315.25"/>
<text text-anchor="middle" x="221.62" y="-301.75" font-family="Helvetica,sans-Serif" font-size="10.00">OscProbCalcerCUDAProb3Linear</text>
</a>
</g>
</g>
<!-- Node1&#45;&gt;Node4 -->
<g id="edge3_Node000001_Node000004" class="edge">
<title>Node1&#45;&gt;Node4</title>
<g id="a_edge3_Node000001_Node000004"><a xlink:title=" ">
<path fill="none" stroke="#63b8ff" d="M65.99,-213.99C81.14,-235.41 108.45,-269.31 140.5,-287.62 146.07,-290.81 152.16,-293.43 158.41,-295.59"/>
<polygon fill="#63b8ff" stroke="#63b8ff" points="68.95,-212.12 60.42,-205.85 63.18,-216.08 68.95,-212.12"/>
</a>
</g>
</g>
<!-- Node5 -->
<g id="Node000005" class="node">
<title>Node5</title>
<g id="a_Node000005"><a xlink:href="classOscProbCalcerGLoBESLinear.html" target="_top" xlink:title="Oscillation calculation engine for linear propagation in GLoBES.">
<polygon fill="white" stroke="#666666" points="295.25,-278.25 148,-278.25 148,-259 295.25,-259 295.25,-278.25"/>
<text text-anchor="middle" x="221.62" y="-264.75" font-family="Helvetica,sans-Serif" font-size="10.00">OscProbCalcerGLoBESLinear</text>
</a>
</g>
</g>
<!-- Node1&#45;&gt;Node5 -->
<g id="edge4_Node000001_Node000005" class="edge">
<title>Node1&#45;&gt;Node5</title>
<g id="a_edge4_Node000001_Node000005"><a xlink:title=" ">
<path fill="none" stroke="#63b8ff" d="M74.79,-211.5C91.76,-224.02 116.48,-240.59 140.5,-250.62 148,-253.76 156.13,-256.39 164.24,-258.58"/>
<polygon fill="#63b8ff" stroke="#63b8ff" points="77.05,-208.83 66.96,-205.59 72.83,-214.41 77.05,-208.83"/>
</a>
</g>
</g>
<!-- Node6 -->
<g id="Node000006" class="node">
<title>Node6</title>
<g id="a_Node000006"><a xlink:href="classOscProbCalcerNuFASTEarth.html" target="_top" xlink:title="Oscillation calculation engine for linear propagation in NuFAST.">
<polygon fill="white" stroke="#666666" points="293,-241.25 150.25,-241.25 150.25,-222 293,-222 293,-241.25"/>
<text text-anchor="middle" x="221.62" y="-227.75" font-family="Helvetica,sans-Serif" font-size="10.00">OscProbCalcerNuFASTEarth</text>
</a>
</g>
</g>
<!-- Node1&#45;&gt;Node6 -->
<g id="edge5_Node000001_Node000006" class="edge">
<title>Node1&#45;&gt;Node6</title>
<g id="a_edge5_Node000001_Node000006"><a xlink:title=" ">
<path fill="none" stroke="#63b8ff" d="M110.1,-207.19C131.24,-211.87 154.93,-217.1 174.94,-221.53"/>
<polygon fill="#63b8ff" stroke="#63b8ff" points="110.98,-203.8 100.46,-205.06 109.47,-210.64 110.98,-203.8"/>
</a>
</g>
</g>
<!-- Node7 -->
<g id="Node000007" class="node">
<title>Node7</title>
<g id="a_Node000007"><a xlink:href="classOscProbCalcerNuFASTLinear.html" target="_top" xlink:title="Oscillation calculation engine for linear propagation in NuFAST.">
<polygon fill="white" stroke="#666666" points="295.25,-204.25 148,-204.25 148,-185 295.25,-185 295.25,-204.25"/>
<text text-anchor="middle" x="221.62" y="-190.75" font-family="Helvetica,sans-Serif" font-size="10.00">OscProbCalcerNuFASTLinear</text>
</a>
</g>
</g>
<!-- Node1&#45;&gt;Node7 -->
<g id="edge6_Node000001_Node000007" class="edge">
<title>Node1&#45;&gt;Node7</title>
<g id="a_edge6_Node000001_Node000007"><a xlink:title=" ">
<path fill="none" stroke="#63b8ff" d="M116.2,-194.62C126.47,-194.62 137.19,-194.62 147.68,-194.62"/>
<polygon fill="#63b8ff" stroke="#63b8ff" points="116.35,-191.13 106.35,-194.63 116.35,-198.13 116.35,-191.13"/>
</a>
</g>
</g>
<!-- Node8 -->
<g id="Node000008" class="node">
<title>Node8</title>
<g id="a_Node000008"><a xlink:href="classOscProbCalcerNuSQUIDSLinear.html" target="_top" xlink:title="Oscillation calculation engine for linear propagation in NuSQUIDS.">
<polygon fill="white" stroke="#666666" points="301.62,-167.25 141.62,-167.25 141.62,-148 301.62,-148 301.62,-167.25"/>
<text text-anchor="middle" x="221.62" y="-153.75" font-family="Helvetica,sans-Serif" font-size="10.00">OscProbCalcerNuSQUIDSLinear</text>
</a>
</g>
</g>
<!-- Node1&#45;&gt;Node8 -->
<g id="edge7_Node000001_Node000008" class="edge">
<title>Node1&#45;&gt;Node8</title>
<g id="a_edge7_Node000001_Node000008"><a xlink:title=" ">
<path fill="none" stroke="#63b8ff" d="M110.1,-182.06C131.24,-177.38 154.93,-172.15 174.94,-167.72"/>
<polygon fill="#63b8ff" stroke="#63b8ff" points="109.47,-178.61 100.46,-184.19 110.98,-185.45 109.47,-178.61"/>
</a>
</g>
</g>
<!-- Node9 -->
<g id="Node000009" class="node">
<title>Node9</title>
<g id="a_Node000009"><a xlink:href="classOscProbCalcerOscLibLinear.html" target="_top" xlink:title="Oscillation calculation engine for linear propagation in NuFAST.">
<polygon fill="white" stroke="#666666" points="291.88,-130.25 151.38,-130.25 151.38,-111 291.88,-111 291.88,-130.25"/>
<text text-anchor="middle" x="221.62" y="-116.75" font-family="Helvetica,sans-Serif" font-size="10.00">OscProbCalcerOscLibLinear</text>
</a>
</g>
</g>
<!-- Node1&#45;&gt;Node9 -->
<g id="edge8_Node000001_Node000009" class="edge">
<title>Node1&#45;&gt;Node9</title>
<g id="a_edge8_Node000001_Node000009"><a xlink:title=" ">
<path fill="none" stroke="#63b8ff" d="M74.79,-177.75C91.76,-165.23 116.48,-148.66 140.5,-138.62 148,-135.49 156.13,-132.86 164.24,-130.67"/>
<polygon fill="#63b8ff" stroke="#63b8ff" points="72.83,-174.84 66.96,-183.66 77.05,-180.42 72.83,-174.84"/>
</a>
</g>
</g>
<!-- Node10 -->
<g id="Node000010" class="node">
<title>Node10</title>
<g id="a_Node000010"><a xlink:href="classOscProbCalcerOscProb.html" target="_top" xlink:title="Oscillation calculation engine for propagation in OscProb.">
<polygon fill="white" stroke="#666666" points="281.75,-93.25 161.5,-93.25 161.5,-74 281.75,-74 281.75,-93.25"/>
<text text-anchor="middle" x="221.62" y="-79.75" font-family="Helvetica,sans-Serif" font-size="10.00">OscProbCalcerOscProb</text>
</a>
</g>
</g>
<!-- Node1&#45;&gt;Node10 -->
<g id="edge9_Node000001_Node000010" class="edge">
<title>Node1&#45;&gt;Node10</title>
<g id="a_edge9_Node000001_Node000010"><a xlink:title=" ">
<path fill="none" stroke="#63b8ff" d="M65.99,-175.26C81.14,-153.84 108.45,-119.94 140.5,-101.62 146.94,-97.95 154.06,-95.02 161.34,-92.69"/>
<polygon fill="#63b8ff" stroke="#63b8ff" points="63.18,-173.17 60.42,-183.4 68.95,-177.13 63.18,-173.17"/>
</a>
</g>
</g>
<!-- Node11 -->
<g id="Node000011" class="node">
<title>Node11</title>
<g id="a_Node000011"><a xlink:href="classOscProbCalcerProb3ppLinear.html" target="_top" xlink:title="Oscillation calculation engine for linear propagation in Prob3pp.">
<polygon fill="white" stroke="#666666" points="294.12,-56.25 149.12,-56.25 149.12,-37 294.12,-37 294.12,-56.25"/>
<text text-anchor="middle" x="221.62" y="-42.75" font-family="Helvetica,sans-Serif" font-size="10.00">OscProbCalcerProb3ppLinear</text>
</a>
</g>
</g>
<!-- Node1&#45;&gt;Node11 -->
<g id="edge10_Node000001_Node000011" class="edge">
<title>Node1&#45;&gt;Node11</title>
<g id="a_edge10_Node000001_Node000011"><a xlink:title=" ">
<path fill="none" stroke="#63b8ff" d="M61.22,-174.02C73.6,-144.89 100.29,-92.16 140.5,-64.62 145.09,-61.48 150.14,-58.88 155.4,-56.73"/>
<polygon fill="#63b8ff" stroke="#63b8ff" points="58.02,-172.61 57.49,-183.19 64.51,-175.24 58.02,-172.61"/>
</a>
</g>
</g>
<!-- Node12 -->
<g id="Node000012" class="node">
<title>Node12</title>
<g id="a_Node000012"><a xlink:href="classOscProbCalcerProbGPULinear.html" target="_top" xlink:title="Oscillation calculation engine for linear propagation in ProbGPU.">
<polygon fill="white" stroke="#666666" points="297.12,-19.25 146.12,-19.25 146.12,0 297.12,0 297.12,-19.25"/>
<text text-anchor="middle" x="221.62" y="-5.75" font-family="Helvetica,sans-Serif" font-size="10.00">OscProbCalcerProbGPULinear</text>
</a>
</g>
</g>
<!-- Node1&#45;&gt;Node12 -->
<g id="edge11_Node000001_Node000012" class="edge">
<title>Node1&#45;&gt;Node12</title>
<g id="a_edge11_Node000001_Node000012"><a xlink:title=" ">
<path fill="none" stroke="#63b8ff" d="M58.01,-173.89C67.35,-138.17 91.54,-65.24 140.5,-27.62 144.57,-24.5 149.08,-21.89 153.83,-19.73"/>
<polygon fill="#63b8ff" stroke="#63b8ff" points="54.67,-172.84 55.68,-183.39 61.47,-174.51 54.67,-172.84"/>
</a>
</g>
</g>
</g>
</svg>
