<?xml version="1.0" encoding="UTF-8" standalone="no"?>
<!DOCTYPE svg PUBLIC "-//W3C//DTD SVG 1.1//EN"
 "http://www.w3.org/Graphics/SVG/1.1/DTD/svg11.dtd">
<!-- Generated by graphviz version 12.2.0 (20241103.1931)
 -->
<!-- Title: OscillatorSubSampling Pages: 1 -->
<svg width="1084pt" height="513pt"
 viewBox="0.00 0.00 1084.25 512.85" xmlns="http://www.w3.org/2000/svg" xmlns:xlink="http://www.w3.org/1999/xlink">
<g id="graph0" class="graph" transform="scale(1 1) rotate(0) translate(4 508.85)">
<title>OscillatorSubSampling</title>
<!-- Node1 -->
<g id="Node000001" class="node">
<title>Node1</title>
<g id="a_Node000001"><a xlink:title="SubSampling Oscillation calculation implementation class.">
<polygon fill="#999999" stroke="#666666" points="1076.25,-360.21 961.25,-360.21 961.25,-340.96 1076.25,-340.96 1076.25,-360.21"/>
<text text-anchor="middle" x="1018.75" y="-346.71" font-family="Helvetica,sans-Serif" font-size="10.00">OscillatorSubSampling</text>
</a>
</g>
</g>
<!-- Node2 -->
<g id="Node000002" class="node">
<title>Node2</title>
<g id="a_Node000002"><a xlink:href="classOscillatorBase.html" target="_top" xlink:title="Oscillation calculation (binned, unbinned, etc.) implementation agnostic base class.">
<polygon fill="white" stroke="#666666" points="805.62,-265.21 725.88,-265.21 725.88,-245.96 805.62,-245.96 805.62,-265.21"/>
<text text-anchor="middle" x="765.75" y="-251.71" font-family="Helvetica,sans-Serif" font-size="10.00">OscillatorBase</text>
</a>
</g>
</g>
<!-- Node2&#45;&gt;Node1 -->
<g id="edge1_Node000001_Node000002" class="edge">
<title>Node2&#45;&gt;Node1</title>
<g id="a_edge1_Node000001_Node000002"><a xlink:title=" ">
<path fill="none" stroke="#63b8ff" d="M803.74,-269.59C855.01,-288.99 946.41,-323.59 991.34,-340.59"/>
<polygon fill="#63b8ff" stroke="#63b8ff" points="805.14,-266.38 794.55,-266.11 802.67,-272.92 805.14,-266.38"/>
</a>
</g>
</g>
<!-- Node3 -->
<g id="Node000003" class="node">
<title>Node3</title>
<g id="a_Node000003"><a xlink:href="classOscProbCalcerBase.html" target="_top" xlink:title="Oscillation calculation engine (CUDAProb3, ProbGPU, Prob3++, etc.) implementation agnostic base class...">
<polygon fill="white" stroke="#666666" points="529,-265.21 424.5,-265.21 424.5,-245.96 529,-245.96 529,-265.21"/>
<text text-anchor="middle" x="476.75" y="-251.71" font-family="Helvetica,sans-Serif" font-size="10.00">OscProbCalcerBase</text>
</a>
</g>
</g>
<!-- Node3&#45;&gt;Node2 -->
<g id="edge2_Node000002_Node000003" class="edge">
<title>Node3&#45;&gt;Node2</title>
<g id="a_edge2_Node000002_Node000003"><a xlink:title=" ">
<path fill="none" stroke="#9a32cd" stroke-dasharray="5,2" d="M540.67,-255.59C597.02,-255.59 677.89,-255.59 725.5,-255.59"/>
<polygon fill="#9a32cd" stroke="#9a32cd" points="540.9,-252.09 530.9,-255.59 540.9,-259.09 540.9,-252.09"/>
</a>
</g>
<text text-anchor="middle" x="618.25" y="-257.34" font-family="Helvetica,sans-Serif" font-size="10.00" fill="grey"> fOscProbCalcer</text>
</g>
<!-- Node4 -->
<g id="Node000004" class="node">
<title>Node4</title>
<g id="a_Node000004"><a xlink:title=" ">
<polygon fill="white" stroke="#666666" points="235.12,-341.21 147.12,-341.21 147.12,-321.96 235.12,-321.96 235.12,-341.21"/>
<text text-anchor="middle" x="191.12" y="-327.71" font-family="Helvetica,sans-Serif" font-size="10.00">std::vector&lt; int &gt;</text>
</a>
</g>
</g>
<!-- Node4&#45;&gt;Node1 -->
<g id="edge15_Node000001_Node000004" class="edge">
<title>Node4&#45;&gt;Node1</title>
<g id="a_edge15_Node000001_Node000004"><a xlink:title=" ">
<path fill="none" stroke="#9a32cd" stroke-dasharray="5,2" d="M212.18,-348.91C227.19,-360.67 248.84,-375.21 270.75,-381.59 328.68,-398.45 346.19,-383.11 406.5,-381.59 610.71,-376.41 852.93,-361.53 960.9,-354.43"/>
<polygon fill="#9a32cd" stroke="#9a32cd" points="214.47,-346.26 204.51,-342.65 210.04,-351.68 214.47,-346.26"/>
</a>
</g>
<text text-anchor="middle" x="618.25" y="-378.56" font-family="Helvetica,sans-Serif" font-size="10.00" fill="grey"> NeutrinoTypes</text>
</g>
<!-- Node4&#45;&gt;Node3 -->
<g id="edge3_Node000003_Node000004" class="edge">
<title>Node4&#45;&gt;Node3</title>
<g id="a_edge3_Node000003_Node000004"><a xlink:title=" ">
<path fill="none" stroke="#9a32cd" stroke-dasharray="5,2" d="M225.91,-317.41C239.63,-312.08 255.76,-306.34 270.75,-302.34 329.85,-286.54 347.22,-294.71 406.5,-279.59 421.17,-275.84 437.17,-270.39 450.08,-265.63"/>
<polygon fill="#9a32cd" stroke="#9a32cd" points="224.89,-314.05 216.89,-321 227.48,-320.55 224.89,-314.05"/>
</a>
</g>
<text text-anchor="middle" x="338.62" y="-304.09" font-family="Helvetica,sans-Serif" font-size="10.00" fill="grey"> fNeutrinoTypes</text>
</g>
<!-- Node5 -->
<g id="Node000005" class="node">
<title>Node5</title>
<g id="a_Node000005"><a xlink:title=" ">
<polygon fill="white" stroke="#666666" points="252.75,-494.84 129.5,-494.84 129.5,-464.34 252.75,-464.34 252.75,-494.84"/>
<text text-anchor="start" x="137.5" y="-481.34" font-family="Helvetica,sans-Serif" font-size="10.00">std::vector&lt; NuOscillator</text>
<text text-anchor="middle" x="191.12" y="-470.09" font-family="Helvetica,sans-Serif" font-size="10.00">::OscillationChannel &gt;</text>
</a>
</g>
</g>
<!-- Node5&#45;&gt;Node1 -->
<g id="edge14_Node000001_Node000005" class="edge">
<title>Node5&#45;&gt;Node1</title>
<g id="a_edge14_Node000001_Node000005"><a xlink:title=" ">
<path fill="none" stroke="#9a32cd" stroke-dasharray="5,2" d="M264.48,-485.32C266.59,-485.42 268.69,-485.51 270.75,-485.59 331.04,-487.88 346.17,-485.8 406.5,-485.59 532.28,-485.14 565.58,-505.14 689.5,-483.59 807.25,-463.11 834.89,-444.99 943.25,-394.59 964.77,-384.58 988.1,-370.16 1002.82,-360.59"/>
<polygon fill="#9a32cd" stroke="#9a32cd" points="264.74,-481.83 254.56,-484.78 264.36,-488.82 264.74,-481.83"/>
</a>
</g>
<text text-anchor="middle" x="618.25" y="-495.35" font-family="Helvetica,sans-Serif" font-size="10.00" fill="grey"> OscillationChannels</text>
</g>
<!-- Node5&#45;&gt;Node3 -->
<g id="edge4_Node000003_Node000005" class="edge">
<title>Node5&#45;&gt;Node3</title>
<g id="a_edge4_Node000003_Node000005"><a xlink:title=" ">
<path fill="none" stroke="#9a32cd" stroke-dasharray="5,2" d="M264.14,-471.54C309.69,-463.1 367.19,-445.84 406.5,-410.59 452.14,-369.66 469.33,-292.91 474.17,-265.57"/>
<polygon fill="#9a32cd" stroke="#9a32cd" points="263.58,-468.09 254.32,-473.24 264.77,-474.98 263.58,-468.09"/>
</a>
</g>
<text text-anchor="middle" x="338.62" y="-471.89" font-family="Helvetica,sans-Serif" font-size="10.00" fill="grey"> fOscillationChannels</text>
</g>
<!-- Node6 -->
<g id="Node000006" class="node">
<title>Node6</title>
<g id="a_Node000006"><a xlink:title=" ">
<polygon fill="white" stroke="#666666" points="251.62,-408.21 130.62,-408.21 130.62,-388.96 251.62,-388.96 251.62,-408.21"/>
<text text-anchor="middle" x="191.12" y="-394.71" font-family="Helvetica,sans-Serif" font-size="10.00">std::vector&lt; FLOAT_T &gt;</text>
</a>
</g>
</g>
<!-- Node6&#45;&gt;Node1 -->
<g id="edge12_Node000001_Node000006" class="edge">
<title>Node6&#45;&gt;Node1</title>
<g id="a_edge12_Node000001_Node000006"><a xlink:title=" ">
<path fill="none" stroke="#9a32cd" stroke-dasharray="5,2" d="M263.17,-399.59C304.91,-400.01 358.71,-400.26 406.5,-399.59 645.33,-396.21 708.29,-415.57 943.25,-372.59 958.64,-369.77 975.38,-364.99 989.08,-360.6"/>
<polygon fill="#9a32cd" stroke="#9a32cd" points="263.28,-396.09 253.24,-399.48 263.21,-403.09 263.28,-396.09"/>
</a>
</g>
<text text-anchor="middle" x="618.25" y="-470.34" font-family="Helvetica,sans-Serif" font-size="10.00" fill="grey"> AveragedOscillationProbabilities</text>
<text text-anchor="middle" x="618.25" y="-459.09" font-family="Helvetica,sans-Serif" font-size="10.00" fill="grey">CoarseCosineZAxisBinEdges</text>
<text text-anchor="middle" x="618.25" y="-447.84" font-family="Helvetica,sans-Serif" font-size="10.00" fill="grey">CoarseEnergyAxisBinEdges</text>
<text text-anchor="middle" x="618.25" y="-436.59" font-family="Helvetica,sans-Serif" font-size="10.00" fill="grey">FineCosineZAxisBinCenters</text>
<text text-anchor="middle" x="618.25" y="-425.34" font-family="Helvetica,sans-Serif" font-size="10.00" fill="grey">FineCosineZAxisBinEdges</text>
<text text-anchor="middle" x="618.25" y="-414.09" font-family="Helvetica,sans-Serif" font-size="10.00" fill="grey">FineEnergyAxisBinCenters</text>
<text text-anchor="middle" x="618.25" y="-402.84" font-family="Helvetica,sans-Serif" font-size="10.00" fill="grey">FineEnergyAxisBinEdges</text>
</g>
<!-- Node6&#45;&gt;Node3 -->
<g id="edge5_Node000003_Node000006" class="edge">
<title>Node6&#45;&gt;Node3</title>
<g id="a_edge5_Node000003_Node000006"><a xlink:title=" ">
<path fill="none" stroke="#9a32cd" stroke-dasharray="5,2" d="M221.87,-383.73C236.45,-376.67 254.36,-368.32 270.75,-361.59 329.94,-337.26 350.92,-345.3 406.5,-313.59 430.2,-300.06 453.67,-278.13 466.28,-265.46"/>
<polygon fill="#9a32cd" stroke="#9a32cd" points="220.72,-380.4 213.27,-387.93 223.8,-386.68 220.72,-380.4"/>
</a>
</g>
<text text-anchor="middle" x="338.62" y="-397.09" font-family="Helvetica,sans-Serif" font-size="10.00" fill="grey"> fCosineZArray</text>
<text text-anchor="middle" x="338.62" y="-385.84" font-family="Helvetica,sans-Serif" font-size="10.00" fill="grey">fEnergyArray</text>
<text text-anchor="middle" x="338.62" y="-374.59" font-family="Helvetica,sans-Serif" font-size="10.00" fill="grey">fOscParamsCurr</text>
<text text-anchor="middle" x="338.62" y="-363.34" font-family="Helvetica,sans-Serif" font-size="10.00" fill="grey">fWeightArray</text>
</g>
<!-- Node7 -->
<g id="Node000007" class="node">
<title>Node7</title>
<g id="a_Node000007"><a xlink:title=" ">
<polygon fill="white" stroke="#666666" points="220.12,-118.21 162.12,-118.21 162.12,-98.96 220.12,-98.96 220.12,-118.21"/>
<text text-anchor="middle" x="191.12" y="-104.71" font-family="Helvetica,sans-Serif" font-size="10.00">std::string</text>
</a>
</g>
</g>
<!-- Node7&#45;&gt;Node1 -->
<g id="edge16_Node000001_Node000007" class="edge">
<title>Node7&#45;&gt;Node1</title>
<g id="a_edge16_Node000001_Node000007"><a xlink:title=" ">
<path fill="none" stroke="#9a32cd" stroke-dasharray="5,2" d="M231.81,-100.14C317.72,-83.58 526.33,-52.75 689.5,-104.34 839.62,-151.79 975.18,-300.83 1009.44,-340.7"/>
<polygon fill="#9a32cd" stroke="#9a32cd" points="231.14,-96.7 222.01,-102.08 232.49,-103.57 231.14,-96.7"/>
</a>
</g>
<text text-anchor="middle" x="618.25" y="-151.09" font-family="Helvetica,sans-Serif" font-size="10.00" fill="grey"> CoarseCosineZAxisHistName</text>
<text text-anchor="middle" x="618.25" y="-139.84" font-family="Helvetica,sans-Serif" font-size="10.00" fill="grey">CoarseEnergyAxisHistName</text>
<text text-anchor="middle" x="618.25" y="-128.59" font-family="Helvetica,sans-Serif" font-size="10.00" fill="grey">FileName</text>
<text text-anchor="middle" x="618.25" y="-117.34" font-family="Helvetica,sans-Serif" font-size="10.00" fill="grey">FineCosineZAxisHistName</text>
<text text-anchor="middle" x="618.25" y="-106.09" font-family="Helvetica,sans-Serif" font-size="10.00" fill="grey">FineEnergyAxisHistName</text>
</g>
<!-- Node7&#45;&gt;Node2 -->
<g id="edge11_Node000002_Node000007" class="edge">
<title>Node7&#45;&gt;Node2</title>
<g id="a_edge11_Node000002_Node000007"><a xlink:title=" ">
<path fill="none" stroke="#9a32cd" stroke-dasharray="5,2" d="M232.05,-107.76C275.46,-107.66 346.65,-109.81 406.5,-122.59 540.16,-151.12 690.68,-219.85 744.39,-245.61"/>
<polygon fill="#9a32cd" stroke="#9a32cd" points="232.06,-104.26 222.09,-107.83 232.11,-111.26 232.06,-104.26"/>
</a>
</g>
<text text-anchor="middle" x="476.75" y="-157.27" font-family="Helvetica,sans-Serif" font-size="10.00" fill="grey"> fCalculationTypeName</text>
</g>
<!-- Node7&#45;&gt;Node3 -->
<g id="edge6_Node000003_Node000007" class="edge">
<title>Node7&#45;&gt;Node3</title>
<g id="a_edge6_Node000003_Node000007"><a xlink:title=" ">
<path fill="none" stroke="#9a32cd" stroke-dasharray="5,2" d="M231.49,-115.55C289.34,-126.04 392.07,-145.66 406.5,-155.34 441.12,-178.54 463.46,-225.4 471.93,-245.76"/>
<polygon fill="#9a32cd" stroke="#9a32cd" points="232.16,-112.12 221.7,-113.79 230.92,-119.01 232.16,-112.12"/>
</a>
</g>
<text text-anchor="middle" x="338.62" y="-157.09" font-family="Helvetica,sans-Serif" font-size="10.00" fill="grey"> fImplementationName</text>
</g>
<!-- Node8 -->
<g id="Node000008" class="node">
<title>Node8</title>
<g id="a_Node000008"><a xlink:title=" ">
<polygon fill="white" stroke="#666666" points="92.5,-123.84 0,-123.84 0,-93.34 92.5,-93.34 92.5,-123.84"/>
<text text-anchor="start" x="8" y="-110.34" font-family="Helvetica,sans-Serif" font-size="10.00">std::basic_string&lt;</text>
<text text-anchor="middle" x="46.25" y="-99.09" font-family="Helvetica,sans-Serif" font-size="10.00"> Char &gt;</text>
</a>
</g>
</g>
<!-- Node8&#45;&gt;Node7 -->
<g id="edge7_Node000007_Node000008" class="edge">
<title>Node8&#45;&gt;Node7</title>
<g id="a_edge7_Node000007_Node000008"><a xlink:title=" ">
<path fill="none" stroke="#63b8ff" d="M104.3,-108.59C124.13,-108.59 145.51,-108.59 161.97,-108.59"/>
<polygon fill="#63b8ff" stroke="#63b8ff" points="104.36,-105.09 94.36,-108.59 104.36,-112.09 104.36,-105.09"/>
</a>
</g>
</g>
<!-- Node9 -->
<g id="Node000009" class="node">
<title>Node9</title>
<g id="a_Node000009"><a xlink:title=" ">
<polygon fill="white" stroke="#666666" points="241.88,-185.84 140.38,-185.84 140.38,-155.34 241.88,-155.34 241.88,-185.84"/>
<text text-anchor="start" x="148.38" y="-172.34" font-family="Helvetica,sans-Serif" font-size="10.00">std::vector&lt; FLOAT</text>
<text text-anchor="middle" x="191.12" y="-161.09" font-family="Helvetica,sans-Serif" font-size="10.00">_T * &gt;</text>
</a>
</g>
</g>
<!-- Node9&#45;&gt;Node3 -->
<g id="edge8_Node000003_Node000009" class="edge">
<title>Node9&#45;&gt;Node3</title>
<g id="a_edge8_Node000003_Node000009"><a xlink:title=" ">
<path fill="none" stroke="#9a32cd" stroke-dasharray="5,2" d="M253.74,-169.59C297.94,-170.99 358,-177.27 406.5,-198.34 431.68,-209.27 454.97,-232.23 467.07,-245.51"/>
<polygon fill="#9a32cd" stroke="#9a32cd" points="253.89,-166.1 243.81,-169.37 253.72,-173.1 253.89,-166.1"/>
</a>
</g>
<text text-anchor="middle" x="338.62" y="-200.09" font-family="Helvetica,sans-Serif" font-size="10.00" fill="grey"> fOscParams</text>
</g>
<!-- Node10 -->
<g id="Node000010" class="node">
<title>Node10</title>
<g id="a_Node000010"><a xlink:title=" ">
<polygon fill="white" stroke="#666666" points="250.88,-265.21 131.38,-265.21 131.38,-245.96 250.88,-245.96 250.88,-265.21"/>
<text text-anchor="middle" x="191.12" y="-251.71" font-family="Helvetica,sans-Serif" font-size="10.00">std::vector&lt; std::string &gt;</text>
</a>
</g>
</g>
<!-- Node10&#45;&gt;Node3 -->
<g id="edge9_Node000003_Node000010" class="edge">
<title>Node10&#45;&gt;Node3</title>
<g id="a_edge9_Node000003_Node000010"><a xlink:title=" ">
<path fill="none" stroke="#9a32cd" stroke-dasharray="5,2" d="M262.65,-255.59C312.83,-255.59 379.09,-255.59 424.33,-255.59"/>
<polygon fill="#9a32cd" stroke="#9a32cd" points="262.75,-252.09 252.75,-255.59 262.75,-259.09 262.75,-252.09"/>
</a>
</g>
<text text-anchor="start" x="270.75" y="-268.59" font-family="Helvetica,sans-Serif" font-size="10.00" fill="grey"> fExpectedOscillationParameter</text>
<text text-anchor="middle" x="338.62" y="-257.34" font-family="Helvetica,sans-Serif" font-size="10.00" fill="grey">Names</text>
</g>
<!-- Node11 -->
<g id="Node000011" class="node">
<title>Node11</title>
<g id="a_Node000011"><a xlink:title=" ">
<polygon fill="white" stroke="#666666" points="238.88,-223.21 143.38,-223.21 143.38,-203.96 238.88,-203.96 238.88,-223.21"/>
<text text-anchor="middle" x="191.12" y="-209.71" font-family="Helvetica,sans-Serif" font-size="10.00">std::vector&lt; bool &gt;</text>
</a>
</g>
</g>
<!-- Node11&#45;&gt;Node3 -->
<g id="edge10_Node000003_Node000011" class="edge">
<title>Node11&#45;&gt;Node3</title>
<g id="a_edge10_Node000003_Node000011"><a xlink:title=" ">
<path fill="none" stroke="#9a32cd" stroke-dasharray="5,2" d="M250.62,-213.22C294.1,-214.05 354.62,-217.55 406.5,-229.09 423.09,-232.77 440.98,-239.71 454.42,-245.55"/>
<polygon fill="#9a32cd" stroke="#9a32cd" points="250.68,-209.72 240.63,-213.07 250.57,-216.72 250.68,-209.72"/>
</a>
</g>
<text text-anchor="start" x="280.5" y="-242.09" font-family="Helvetica,sans-Serif" font-size="10.00" fill="grey"> fOscillationParametersSet</text>
<text text-anchor="middle" x="338.62" y="-230.84" font-family="Helvetica,sans-Serif" font-size="10.00" fill="grey">Check</text>
</g>
<!-- Node12 -->
<g id="Node000012" class="node">
<title>Node12</title>
<g id="a_Node000012"><a xlink:title=" ">
<polygon fill="white" stroke="#666666" points="824,-32.84 707.5,-32.84 707.5,-2.34 824,-2.34 824,-32.84"/>
<text text-anchor="start" x="715.5" y="-19.34" font-family="Helvetica,sans-Serif" font-size="10.00">std::vector&lt; std::vector</text>
<text text-anchor="middle" x="765.75" y="-8.09" font-family="Helvetica,sans-Serif" font-size="10.00">&lt; const FLOAT_T * &gt; &gt;</text>
</a>
</g>
</g>
<!-- Node12&#45;&gt;Node1 -->
<g id="edge13_Node000001_Node000012" class="edge">
<title>Node12&#45;&gt;Node1</title>
<g id="a_edge13_Node000001_Node000012"><a xlink:title=" ">
<path fill="none" stroke="#9a32cd" stroke-dasharray="5,2" d="M835.71,-1.65C871.59,2.45 913.95,0.18 943.25,-24.09 994.08,-66.17 1013.34,-290.34 1017.06,-340.59"/>
<polygon fill="#9a32cd" stroke="#9a32cd" points="835.26,1.82 825.82,-2.99 836.2,-5.12 835.26,1.82"/>
</a>
</g>
<text text-anchor="start" x="842" y="-37.09" font-family="Helvetica,sans-Serif" font-size="10.00" fill="grey"> OscillationProbabilities</text>
<text text-anchor="middle" x="892.62" y="-25.84" font-family="Helvetica,sans-Serif" font-size="10.00" fill="grey">ToAverage</text>
</g>
</g>
</svg>
