<?xml version="1.0" encoding="UTF-8" standalone="no"?>
<!DOCTYPE svg PUBLIC "-//W3C//DTD SVG 1.1//EN"
 "http://www.w3.org/Graphics/SVG/1.1/DTD/svg11.dtd">
<!-- Generated by graphviz version 9.0.0 (20230911.1827)
 -->
<!-- Title: OscillatorBinned Pages: 1 -->
<svg width="696pt" height="363pt"
 viewBox="0.00 0.00 695.75 362.75" xmlns="http://www.w3.org/2000/svg" xmlns:xlink="http://www.w3.org/1999/xlink">
<g id="graph0" class="graph" transform="scale(1 1) rotate(0) translate(4 358.75)">
<title>OscillatorBinned</title>
<!-- Node1 -->
<g id="Node000001" class="node">
<title>Node1</title>
<g id="a_Node000001"><a xlink:title="Binned Oscillation calculation implementation class.">
<polygon fill="#999999" stroke="#666666" points="471.12,-19.25 383.88,-19.25 383.88,0 471.12,0 471.12,-19.25"/>
<text text-anchor="middle" x="427.5" y="-5.75" font-family="Helvetica,sans-Serif" font-size="10.00">OscillatorBinned</text>
</a>
</g>
</g>
<!-- Node2 -->
<g id="Node000002" class="node">
<title>Node2</title>
<g id="a_Node000002"><a xlink:href="classOscillatorBase.html" target="_top" xlink:title="Oscillation calculation (binned, unbinned, etc.) implementation agnostic base class.">
<polygon fill="white" stroke="#666666" points="467.38,-75.5 387.62,-75.5 387.62,-56.25 467.38,-56.25 467.38,-75.5"/>
<text text-anchor="middle" x="427.5" y="-62" font-family="Helvetica,sans-Serif" font-size="10.00">OscillatorBase</text>
</a>
</g>
</g>
<!-- Node2&#45;&gt;Node1 -->
<g id="edge1_Node000001_Node000002" class="edge">
<title>Node2&#45;&gt;Node1</title>
<g id="a_edge1_Node000001_Node000002"><a xlink:title=" ">
<path fill="none" stroke="#63b8ff" d="M427.5,-44.69C427.5,-35.98 427.5,-26.24 427.5,-19.42"/>
<polygon fill="#63b8ff" stroke="#63b8ff" points="424,-44.4 427.5,-54.4 431,-44.4 424,-44.4"/>
</a>
</g>
</g>
<!-- Node3 -->
<g id="Node000003" class="node">
<title>Node3</title>
<g id="a_Node000003"><a xlink:href="classOscProbCalcerBase.html" target="_top" xlink:title="Oscillation calculation engine (CUDAProb3, ProbGPU, Prob3++, etc.) implementation agnostic base class...">
<polygon fill="white" stroke="#666666" points="330.75,-175.75 226.25,-175.75 226.25,-156.5 330.75,-156.5 330.75,-175.75"/>
<text text-anchor="middle" x="278.5" y="-162.25" font-family="Helvetica,sans-Serif" font-size="10.00">OscProbCalcerBase</text>
</a>
</g>
</g>
<!-- Node3&#45;&gt;Node2 -->
<g id="edge2_Node000002_Node000003" class="edge">
<title>Node3&#45;&gt;Node2</title>
<g id="a_edge2_Node000002_Node000003"><a xlink:title=" ">
<path fill="none" stroke="#9a32cd" stroke-dasharray="5,2" d="M301.54,-149.93C332.94,-129.23 388.2,-92.79 413.78,-75.92"/>
<polygon fill="#9a32cd" stroke="#9a32cd" points="299.94,-146.8 293.51,-155.22 303.79,-152.64 299.94,-146.8"/>
</a>
</g>
<text text-anchor="middle" x="418.12" y="-112.12" font-family="Helvetica,sans-Serif" font-size="10.00" fill="grey"> fOscProbCalcer</text>
</g>
<!-- Node4 -->
<g id="Node000004" class="node">
<title>Node4</title>
<g id="a_Node000004"><a xlink:title=" ">
<polygon fill="white" stroke="#666666" points="228.5,-281.62 140.5,-281.62 140.5,-262.38 228.5,-262.38 228.5,-281.62"/>
<text text-anchor="middle" x="184.5" y="-268.12" font-family="Helvetica,sans-Serif" font-size="10.00">std::vector&lt; int &gt;</text>
</a>
</g>
</g>
<!-- Node4&#45;&gt;Node3 -->
<g id="edge3_Node000003_Node000004" class="edge">
<title>Node4&#45;&gt;Node3</title>
<g id="a_edge3_Node000003_Node000004"><a xlink:title=" ">
<path fill="none" stroke="#9a32cd" stroke-dasharray="5,2" d="M183.69,-250.61C184.12,-233.45 187.46,-209.28 201.25,-193.75 208.41,-185.69 218.13,-180.07 228.25,-176.15"/>
<polygon fill="#9a32cd" stroke="#9a32cd" points="180.19,-250.4 183.79,-260.37 187.19,-250.33 180.19,-250.4"/>
</a>
</g>
<text text-anchor="middle" x="235.62" y="-212.38" font-family="Helvetica,sans-Serif" font-size="10.00" fill="grey"> fNeutrinoTypes</text>
</g>
<!-- Node5 -->
<g id="Node000005" class="node">
<title>Node5</title>
<g id="a_Node000005"><a xlink:title=" ">
<polygon fill="white" stroke="#666666" points="370.12,-287.25 246.88,-287.25 246.88,-256.75 370.12,-256.75 370.12,-287.25"/>
<text text-anchor="start" x="254.88" y="-273.75" font-family="Helvetica,sans-Serif" font-size="10.00">std::vector&lt; NuOscillator</text>
<text text-anchor="middle" x="308.5" y="-262.5" font-family="Helvetica,sans-Serif" font-size="10.00">::OscillationChannel &gt;</text>
</a>
</g>
</g>
<!-- Node5&#45;&gt;Node3 -->
<g id="edge4_Node000003_Node000005" class="edge">
<title>Node5&#45;&gt;Node3</title>
<g id="a_edge4_Node000003_Node000005"><a xlink:title=" ">
<path fill="none" stroke="#9a32cd" stroke-dasharray="5,2" d="M284.71,-247.59C282.83,-244.78 281.2,-241.82 280,-238.75 271.67,-217.43 274.54,-189.76 276.81,-175.88"/>
<polygon fill="#9a32cd" stroke="#9a32cd" points="281.86,-249.64 290.83,-255.28 287.33,-245.28 281.86,-249.64"/>
</a>
</g>
<text text-anchor="middle" x="325.25" y="-212.38" font-family="Helvetica,sans-Serif" font-size="10.00" fill="grey"> fOscillationChannels</text>
</g>
<!-- Node6 -->
<g id="Node000006" class="node">
<title>Node6</title>
<g id="a_Node000006"><a xlink:title=" ">
<polygon fill="white" stroke="#666666" points="121,-281.62 0,-281.62 0,-262.38 121,-262.38 121,-281.62"/>
<text text-anchor="middle" x="60.5" y="-268.12" font-family="Helvetica,sans-Serif" font-size="10.00">std::vector&lt; FLOAT_T &gt;</text>
</a>
</g>
</g>
<!-- Node6&#45;&gt;Node1 -->
<g id="edge10_Node000001_Node000006" class="edge">
<title>Node6&#45;&gt;Node1</title>
<g id="a_edge10_Node000001_Node000006"><a xlink:title=" ">
<path fill="none" stroke="#9a32cd" stroke-dasharray="5,2" d="M59.46,-251.08C59.52,-234.56 61.81,-211.05 72.5,-193.75 142.03,-81.21 305.04,-34.71 383.62,-18.32"/>
<polygon fill="#9a32cd" stroke="#9a32cd" points="55.95,-250.72 59.71,-260.63 62.95,-250.54 55.95,-250.72"/>
</a>
</g>
<text text-anchor="middle" x="233" y="-129" font-family="Helvetica,sans-Serif" font-size="10.00" fill="grey"> CosineZAxisBinCenters</text>
<text text-anchor="middle" x="233" y="-117.75" font-family="Helvetica,sans-Serif" font-size="10.00" fill="grey">CosineZAxisBinEdges</text>
<text text-anchor="middle" x="233" y="-106.5" font-family="Helvetica,sans-Serif" font-size="10.00" fill="grey">EnergyAxisBinCenters</text>
<text text-anchor="middle" x="233" y="-95.25" font-family="Helvetica,sans-Serif" font-size="10.00" fill="grey">EnergyAxisBinEdges</text>
</g>
<!-- Node6&#45;&gt;Node3 -->
<g id="edge5_Node000003_Node000006" class="edge">
<title>Node6&#45;&gt;Node3</title>
<g id="a_edge5_Node000003_Node000006"><a xlink:title=" ">
<path fill="none" stroke="#9a32cd" stroke-dasharray="5,2" d="M67.06,-251.34C74.14,-233.32 87.25,-207.42 107.75,-193.75 126.66,-181.14 182.99,-174.13 225.82,-170.51"/>
<polygon fill="#9a32cd" stroke="#9a32cd" points="63.8,-250.05 63.69,-260.65 70.38,-252.43 63.8,-250.05"/>
</a>
</g>
<text text-anchor="middle" x="144.88" y="-229.25" font-family="Helvetica,sans-Serif" font-size="10.00" fill="grey"> fCosineZArray</text>
<text text-anchor="middle" x="144.88" y="-218" font-family="Helvetica,sans-Serif" font-size="10.00" fill="grey">fEnergyArray</text>
<text text-anchor="middle" x="144.88" y="-206.75" font-family="Helvetica,sans-Serif" font-size="10.00" fill="grey">fOscParamsCurr</text>
<text text-anchor="middle" x="144.88" y="-195.5" font-family="Helvetica,sans-Serif" font-size="10.00" fill="grey">fWeightArray</text>
</g>
<!-- Node7 -->
<g id="Node000007" class="node">
<title>Node7</title>
<g id="a_Node000007"><a xlink:title=" ">
<polygon fill="white" stroke="#666666" points="535.5,-281.62 477.5,-281.62 477.5,-262.38 535.5,-262.38 535.5,-281.62"/>
<text text-anchor="middle" x="506.5" y="-268.12" font-family="Helvetica,sans-Serif" font-size="10.00">std::string</text>
</a>
</g>
</g>
<!-- Node7&#45;&gt;Node1 -->
<g id="edge9_Node000001_Node000007" class="edge">
<title>Node7&#45;&gt;Node1</title>
<g id="a_edge9_Node000001_Node000007"><a xlink:title=" ">
<path fill="none" stroke="#9a32cd" stroke-dasharray="5,2" d="M532.91,-256.23C565.64,-235.82 615.01,-196.92 596.5,-156.5 564.96,-87.6 483.03,-38.86 446.07,-19.67"/>
<polygon fill="#9a32cd" stroke="#9a32cd" points="531.44,-253.03 524.67,-261.17 535.05,-259.03 531.44,-253.03"/>
</a>
</g>
<text text-anchor="middle" x="637.12" y="-123.38" font-family="Helvetica,sans-Serif" font-size="10.00" fill="grey"> CosineZAxisHistName</text>
<text text-anchor="middle" x="637.12" y="-112.12" font-family="Helvetica,sans-Serif" font-size="10.00" fill="grey">EnergyAxisHistName</text>
<text text-anchor="middle" x="637.12" y="-100.88" font-family="Helvetica,sans-Serif" font-size="10.00" fill="grey">FileName</text>
</g>
<!-- Node7&#45;&gt;Node2 -->
<g id="edge8_Node000002_Node000007" class="edge">
<title>Node7&#45;&gt;Node2</title>
<g id="a_edge8_Node000002_Node000007"><a xlink:title=" ">
<path fill="none" stroke="#9a32cd" stroke-dasharray="5,2" d="M505.05,-250.64C501.7,-215.74 490.96,-143.42 457.5,-93.5 452.93,-86.67 446.19,-80.48 440.27,-75.79"/>
<polygon fill="#9a32cd" stroke="#9a32cd" points="501.55,-250.88 505.87,-260.55 508.53,-250.3 501.55,-250.88"/>
</a>
</g>
<text text-anchor="middle" x="541.75" y="-162.25" font-family="Helvetica,sans-Serif" font-size="10.00" fill="grey"> fCalculationTypeName</text>
</g>
<!-- Node7&#45;&gt;Node3 -->
<g id="edge6_Node000003_Node000007" class="edge">
<title>Node7&#45;&gt;Node3</title>
<g id="a_edge6_Node000003_Node000007"><a xlink:title=" ">
<path fill="none" stroke="#9a32cd" stroke-dasharray="5,2" d="M466.01,-267.39C442.82,-263.51 414.43,-255.45 394.25,-238.75 376.98,-224.46 388.77,-208.03 371.5,-193.75 359.98,-184.23 345.23,-178.11 330.89,-174.18"/>
<polygon fill="#9a32cd" stroke="#9a32cd" points="465.35,-270.83 475.75,-268.81 466.35,-263.9 465.35,-270.83"/>
</a>
</g>
<text text-anchor="middle" x="442.62" y="-212.38" font-family="Helvetica,sans-Serif" font-size="10.00" fill="grey"> fImplementationName</text>
</g>
<!-- Node8 -->
<g id="Node000008" class="node">
<title>Node8</title>
<g id="a_Node000008"><a xlink:title=" ">
<polygon fill="white" stroke="#666666" points="552.75,-354.75 460.25,-354.75 460.25,-324.25 552.75,-324.25 552.75,-354.75"/>
<text text-anchor="start" x="468.25" y="-341.25" font-family="Helvetica,sans-Serif" font-size="10.00">std::basic_string&lt;</text>
<text text-anchor="middle" x="506.5" y="-330" font-family="Helvetica,sans-Serif" font-size="10.00"> Char &gt;</text>
</a>
</g>
</g>
<!-- Node8&#45;&gt;Node7 -->
<g id="edge7_Node000007_Node000008" class="edge">
<title>Node8&#45;&gt;Node7</title>
<g id="a_edge7_Node000007_Node000008"><a xlink:title=" ">
<path fill="none" stroke="#63b8ff" d="M506.5,-312.49C506.5,-301.71 506.5,-289.92 506.5,-282.05"/>
<polygon fill="#63b8ff" stroke="#63b8ff" points="503,-312.45 506.5,-322.45 510,-312.45 503,-312.45"/>
</a>
</g>
</g>
</g>
</svg>
