<?xml version="1.0" encoding="UTF-8" standalone="no"?>
<!DOCTYPE svg PUBLIC "-//W3C//DTD SVG 1.1//EN"
 "http://www.w3.org/Graphics/SVG/1.1/DTD/svg11.dtd">
<!-- Generated by graphviz version 9.0.0 (20230911.1827)
 -->
<!-- Title: OscillatorBinned Pages: 1 -->
<svg width="882pt" height="352pt"
 viewBox="0.00 0.00 882.00 351.60" xmlns="http://www.w3.org/2000/svg" xmlns:xlink="http://www.w3.org/1999/xlink">
<g id="graph0" class="graph" transform="scale(1 1) rotate(0) translate(4 347.6)">
<title>OscillatorBinned</title>
<!-- Node1 -->
<g id="Node000001" class="node">
<title>Node1</title>
<g id="a_Node000001"><a xlink:title="Binned Oscillation calculation implementation class.">
<polygon fill="#999999" stroke="#666666" points="874,-68.46 786.75,-68.46 786.75,-49.21 874,-49.21 874,-68.46"/>
<text text-anchor="middle" x="830.38" y="-54.96" font-family="Helvetica,sans-Serif" font-size="10.00">OscillatorBinned</text>
</a>
</g>
</g>
<!-- Node2 -->
<g id="Node000002" class="node">
<title>Node2</title>
<g id="a_Node000002"><a xlink:href="classOscillatorBase.html" target="_top" xlink:title="Oscillation calculation (binned, unbinned, etc.) implementation agnostic base class.">
<polygon fill="white" stroke="#666666" points="749.75,-68.46 670,-68.46 670,-49.21 749.75,-49.21 749.75,-68.46"/>
<text text-anchor="middle" x="709.88" y="-54.96" font-family="Helvetica,sans-Serif" font-size="10.00">OscillatorBase</text>
</a>
</g>
</g>
<!-- Node2&#45;&gt;Node1 -->
<g id="edge1_Node000001_Node000002" class="edge">
<title>Node2&#45;&gt;Node1</title>
<g id="a_edge1_Node000001_Node000002"><a xlink:title=" ">
<path fill="none" stroke="#63b8ff" d="M761.29,-58.83C769.72,-58.83 778.39,-58.83 786.61,-58.83"/>
<polygon fill="#63b8ff" stroke="#63b8ff" points="761.52,-55.33 751.52,-58.83 761.52,-62.33 761.52,-55.33"/>
</a>
</g>
</g>
<!-- Node3 -->
<g id="Node000003" class="node">
<title>Node3</title>
<g id="a_Node000003"><a xlink:href="classOscProbCalcerBase.html" target="_top" xlink:title="Oscillation calculation engine (CUDAProb3, ProbGPU, Prob3++, etc.) implementation agnostic base class...">
<polygon fill="white" stroke="#666666" points="529,-168.46 424.5,-168.46 424.5,-149.21 529,-149.21 529,-168.46"/>
<text text-anchor="middle" x="476.75" y="-154.96" font-family="Helvetica,sans-Serif" font-size="10.00">OscProbCalcerBase</text>
</a>
</g>
</g>
<!-- Node3&#45;&gt;Node2 -->
<g id="edge2_Node000002_Node000003" class="edge">
<title>Node3&#45;&gt;Node2</title>
<g id="a_edge2_Node000002_Node000003"><a xlink:title=" ">
<path fill="none" stroke="#9a32cd" stroke-dasharray="5,2" d="M511.11,-144.4C558.59,-123.86 644.44,-86.71 685.62,-68.9"/>
<polygon fill="#9a32cd" stroke="#9a32cd" points="509.93,-141.1 502.15,-148.28 512.71,-147.52 509.93,-141.1"/>
</a>
</g>
<text text-anchor="middle" x="599.5" y="-128.58" font-family="Helvetica,sans-Serif" font-size="10.00" fill="grey"> fOscProbCalcer</text>
</g>
<!-- Node4 -->
<g id="Node000004" class="node">
<title>Node4</title>
<g id="a_Node000004"><a xlink:title=" ">
<polygon fill="white" stroke="#666666" points="235.12,-229.46 147.12,-229.46 147.12,-210.21 235.12,-210.21 235.12,-229.46"/>
<text text-anchor="middle" x="191.12" y="-215.96" font-family="Helvetica,sans-Serif" font-size="10.00">std::vector&lt; int &gt;</text>
</a>
</g>
</g>
<!-- Node4&#45;&gt;Node3 -->
<g id="edge3_Node000003_Node000004" class="edge">
<title>Node4&#45;&gt;Node3</title>
<g id="a_edge3_Node000003_Node000004"><a xlink:title=" ">
<path fill="none" stroke="#9a32cd" stroke-dasharray="5,2" d="M246.65,-214.46C290.39,-209.36 353.08,-200.3 406.5,-185.83 422.69,-181.45 440.3,-174.55 453.7,-168.83"/>
<polygon fill="#9a32cd" stroke="#9a32cd" points="246.45,-210.96 236.91,-215.56 247.24,-217.91 246.45,-210.96"/>
</a>
</g>
<text text-anchor="middle" x="338.62" y="-212.58" font-family="Helvetica,sans-Serif" font-size="10.00" fill="grey"> fNeutrinoTypes</text>
</g>
<!-- Node5 -->
<g id="Node000005" class="node">
<title>Node5</title>
<g id="a_Node000005"><a xlink:title=" ">
<polygon fill="white" stroke="#666666" points="252.75,-192.08 129.5,-192.08 129.5,-161.58 252.75,-161.58 252.75,-192.08"/>
<text text-anchor="start" x="137.5" y="-178.58" font-family="Helvetica,sans-Serif" font-size="10.00">std::vector&lt; NuOscillator</text>
<text text-anchor="middle" x="191.12" y="-167.33" font-family="Helvetica,sans-Serif" font-size="10.00">::OscillationChannel &gt;</text>
</a>
</g>
</g>
<!-- Node5&#45;&gt;Node3 -->
<g id="edge4_Node000003_Node000005" class="edge">
<title>Node5&#45;&gt;Node3</title>
<g id="a_edge4_Node000003_Node000005"><a xlink:title=" ">
<path fill="none" stroke="#9a32cd" stroke-dasharray="5,2" d="M264.33,-172.25C314.19,-169.09 379.31,-164.95 424.04,-162.12"/>
<polygon fill="#9a32cd" stroke="#9a32cd" points="264.24,-168.75 254.48,-172.88 264.68,-175.74 264.24,-168.75"/>
</a>
</g>
<text text-anchor="middle" x="338.62" y="-172.58" font-family="Helvetica,sans-Serif" font-size="10.00" fill="grey"> fOscillationChannels</text>
</g>
<!-- Node6 -->
<g id="Node000006" class="node">
<title>Node6</title>
<g id="a_Node000006"><a xlink:title=" ">
<polygon fill="white" stroke="#666666" points="251.62,-336.46 130.62,-336.46 130.62,-317.21 251.62,-317.21 251.62,-336.46"/>
<text text-anchor="middle" x="191.12" y="-322.96" font-family="Helvetica,sans-Serif" font-size="10.00">std::vector&lt; FLOAT_T &gt;</text>
</a>
</g>
</g>
<!-- Node6&#45;&gt;Node1 -->
<g id="edge13_Node000001_Node000006" class="edge">
<title>Node6&#45;&gt;Node1</title>
<g id="a_edge13_Node000001_Node000006"><a xlink:title=" ">
<path fill="none" stroke="#9a32cd" stroke-dasharray="5,2" d="M253.93,-338.58C297.48,-344.45 356.68,-347.56 406.5,-332.83 593.16,-277.65 774.79,-111.41 819.14,-68.85"/>
<polygon fill="#9a32cd" stroke="#9a32cd" points="254.54,-335.13 244.15,-337.16 253.54,-342.06 254.54,-335.13"/>
</a>
</g>
<text text-anchor="middle" x="599.5" y="-304.33" font-family="Helvetica,sans-Serif" font-size="10.00" fill="grey"> CosineZAxisBinCenters</text>
<text text-anchor="middle" x="599.5" y="-293.08" font-family="Helvetica,sans-Serif" font-size="10.00" fill="grey">CosineZAxisBinEdges</text>
<text text-anchor="middle" x="599.5" y="-281.83" font-family="Helvetica,sans-Serif" font-size="10.00" fill="grey">EnergyAxisBinCenters</text>
<text text-anchor="middle" x="599.5" y="-270.58" font-family="Helvetica,sans-Serif" font-size="10.00" fill="grey">EnergyAxisBinEdges</text>
</g>
<!-- Node6&#45;&gt;Node3 -->
<g id="edge5_Node000003_Node000006" class="edge">
<title>Node6&#45;&gt;Node3</title>
<g id="a_edge5_Node000003_Node000006"><a xlink:title=" ">
<path fill="none" stroke="#9a32cd" stroke-dasharray="5,2" d="M218.69,-311.22C233.55,-303.11 252.68,-293.71 270.75,-287.83 328.95,-268.93 355.31,-298.37 406.5,-264.83 443.09,-240.86 464.64,-190.11 472.42,-168.69"/>
<polygon fill="#9a32cd" stroke="#9a32cd" points="217.03,-308.14 210.01,-316.08 220.45,-314.24 217.03,-308.14"/>
</a>
</g>
<text text-anchor="middle" x="338.62" y="-323.33" font-family="Helvetica,sans-Serif" font-size="10.00" fill="grey"> fCosineZArray</text>
<text text-anchor="middle" x="338.62" y="-312.08" font-family="Helvetica,sans-Serif" font-size="10.00" fill="grey">fEnergyArray</text>
<text text-anchor="middle" x="338.62" y="-300.83" font-family="Helvetica,sans-Serif" font-size="10.00" fill="grey">fOscParamsCurr</text>
<text text-anchor="middle" x="338.62" y="-289.58" font-family="Helvetica,sans-Serif" font-size="10.00" fill="grey">fWeightArray</text>
</g>
<!-- Node7 -->
<g id="Node000007" class="node">
<title>Node7</title>
<g id="a_Node000007"><a xlink:title=" ">
<polygon fill="white" stroke="#666666" points="220.12,-32.46 162.12,-32.46 162.12,-13.21 220.12,-13.21 220.12,-32.46"/>
<text text-anchor="middle" x="191.12" y="-18.96" font-family="Helvetica,sans-Serif" font-size="10.00">std::string</text>
</a>
</g>
</g>
<!-- Node7&#45;&gt;Node1 -->
<g id="edge12_Node000001_Node000007" class="edge">
<title>Node7&#45;&gt;Node1</title>
<g id="a_edge12_Node000001_Node000007"><a xlink:title=" ">
<path fill="none" stroke="#9a32cd" stroke-dasharray="5,2" d="M231.54,-17.48C311.33,-7.59 497.53,10.76 652,-10.08 706.28,-17.41 767.44,-36.8 801.9,-48.8"/>
<polygon fill="#9a32cd" stroke="#9a32cd" points="231.53,-13.96 222.05,-18.69 232.41,-20.9 231.53,-13.96"/>
</a>
</g>
<text text-anchor="middle" x="599.5" y="-35.08" font-family="Helvetica,sans-Serif" font-size="10.00" fill="grey"> CosineZAxisHistName</text>
<text text-anchor="middle" x="599.5" y="-23.83" font-family="Helvetica,sans-Serif" font-size="10.00" fill="grey">EnergyAxisHistName</text>
<text text-anchor="middle" x="599.5" y="-12.58" font-family="Helvetica,sans-Serif" font-size="10.00" fill="grey">FileName</text>
</g>
<!-- Node7&#45;&gt;Node2 -->
<g id="edge11_Node000002_Node000007" class="edge">
<title>Node7&#45;&gt;Node2</title>
<g id="a_edge11_Node000002_Node000007"><a xlink:title=" ">
<path fill="none" stroke="#9a32cd" stroke-dasharray="5,2" d="M231.94,-25.35C274.99,-28.08 345.62,-32.63 406.5,-36.83 501.02,-43.36 612.11,-51.58 669.74,-55.89"/>
<polygon fill="#9a32cd" stroke="#9a32cd" points="232.28,-21.86 222.07,-24.72 231.83,-28.85 232.28,-21.86"/>
</a>
</g>
<text text-anchor="middle" x="476.75" y="-47.58" font-family="Helvetica,sans-Serif" font-size="10.00" fill="grey"> fCalculationTypeName</text>
</g>
<!-- Node7&#45;&gt;Node3 -->
<g id="edge6_Node000003_Node000007" class="edge">
<title>Node7&#45;&gt;Node3</title>
<g id="a_edge6_Node000003_Node000007"><a xlink:title=" ">
<path fill="none" stroke="#9a32cd" stroke-dasharray="5,2" d="M231.87,-29.78C289.72,-40.12 391.86,-59.34 406.5,-68.58 438.73,-88.94 461.72,-129.9 471.09,-148.83"/>
<polygon fill="#9a32cd" stroke="#9a32cd" points="232.54,-26.34 222.08,-28.04 231.31,-33.24 232.54,-26.34"/>
</a>
</g>
<text text-anchor="middle" x="338.62" y="-70.58" font-family="Helvetica,sans-Serif" font-size="10.00" fill="grey"> fImplementationName</text>
</g>
<!-- Node8 -->
<g id="Node000008" class="node">
<title>Node8</title>
<g id="a_Node000008"><a xlink:title=" ">
<polygon fill="white" stroke="#666666" points="92.5,-38.08 0,-38.08 0,-7.58 92.5,-7.58 92.5,-38.08"/>
<text text-anchor="start" x="8" y="-24.58" font-family="Helvetica,sans-Serif" font-size="10.00">std::basic_string&lt;</text>
<text text-anchor="middle" x="46.25" y="-13.33" font-family="Helvetica,sans-Serif" font-size="10.00"> Char &gt;</text>
</a>
</g>
</g>
<!-- Node8&#45;&gt;Node7 -->
<g id="edge7_Node000007_Node000008" class="edge">
<title>Node8&#45;&gt;Node7</title>
<g id="a_edge7_Node000007_Node000008"><a xlink:title=" ">
<path fill="none" stroke="#63b8ff" d="M104.3,-22.83C124.13,-22.83 145.51,-22.83 161.97,-22.83"/>
<polygon fill="#63b8ff" stroke="#63b8ff" points="104.36,-19.33 94.36,-22.83 104.36,-26.33 104.36,-19.33"/>
</a>
</g>
</g>
<!-- Node9 -->
<g id="Node000009" class="node">
<title>Node9</title>
<g id="a_Node000009"><a xlink:title=" ">
<polygon fill="white" stroke="#666666" points="241.88,-278.08 140.38,-278.08 140.38,-247.58 241.88,-247.58 241.88,-278.08"/>
<text text-anchor="start" x="148.38" y="-264.58" font-family="Helvetica,sans-Serif" font-size="10.00">std::vector&lt; FLOAT</text>
<text text-anchor="middle" x="191.12" y="-253.33" font-family="Helvetica,sans-Serif" font-size="10.00">_T * &gt;</text>
</a>
</g>
</g>
<!-- Node9&#45;&gt;Node3 -->
<g id="edge8_Node000003_Node000009" class="edge">
<title>Node9&#45;&gt;Node3</title>
<g id="a_edge8_Node000003_Node000009"><a xlink:title=" ">
<path fill="none" stroke="#9a32cd" stroke-dasharray="5,2" d="M253.67,-254.1C312.11,-245.5 392.98,-232.7 406.5,-225.83 433.65,-212.05 457.19,-184 468.54,-168.94"/>
<polygon fill="#9a32cd" stroke="#9a32cd" points="253.2,-250.63 243.81,-255.54 254.21,-257.56 253.2,-250.63"/>
</a>
</g>
<text text-anchor="middle" x="338.62" y="-252.58" font-family="Helvetica,sans-Serif" font-size="10.00" fill="grey"> fOscParams</text>
</g>
<!-- Node10 -->
<g id="Node000010" class="node">
<title>Node10</title>
<g id="a_Node000010"><a xlink:title=" ">
<polygon fill="white" stroke="#666666" points="250.88,-143.46 131.38,-143.46 131.38,-124.21 250.88,-124.21 250.88,-143.46"/>
<text text-anchor="middle" x="191.12" y="-129.96" font-family="Helvetica,sans-Serif" font-size="10.00">std::vector&lt; std::string &gt;</text>
</a>
</g>
</g>
<!-- Node10&#45;&gt;Node3 -->
<g id="edge9_Node000003_Node000010" class="edge">
<title>Node10&#45;&gt;Node3</title>
<g id="a_edge9_Node000003_Node000010"><a xlink:title=" ">
<path fill="none" stroke="#9a32cd" stroke-dasharray="5,2" d="M262.47,-129.34C304.54,-127.97 358.9,-128.51 406.5,-136.33 421.59,-138.82 437.89,-143.98 450.88,-148.73"/>
<polygon fill="#9a32cd" stroke="#9a32cd" points="262.6,-125.83 252.74,-129.7 262.87,-132.83 262.6,-125.83"/>
</a>
</g>
<text text-anchor="start" x="270.75" y="-149.83" font-family="Helvetica,sans-Serif" font-size="10.00" fill="grey"> fExpectedOscillationParameter</text>
<text text-anchor="middle" x="338.62" y="-138.58" font-family="Helvetica,sans-Serif" font-size="10.00" fill="grey">Names</text>
</g>
<!-- Node11 -->
<g id="Node000011" class="node">
<title>Node11</title>
<g id="a_Node000011"><a xlink:title=" ">
<polygon fill="white" stroke="#666666" points="238.88,-99.46 143.38,-99.46 143.38,-80.21 238.88,-80.21 238.88,-99.46"/>
<text text-anchor="middle" x="191.12" y="-85.96" font-family="Helvetica,sans-Serif" font-size="10.00">std::vector&lt; bool &gt;</text>
</a>
</g>
</g>
<!-- Node11&#45;&gt;Node3 -->
<g id="edge10_Node000003_Node000011" class="edge">
<title>Node11&#45;&gt;Node3</title>
<g id="a_edge10_Node000003_Node000011"><a xlink:title=" ">
<path fill="none" stroke="#9a32cd" stroke-dasharray="5,2" d="M250.48,-83.74C294.79,-81.33 356.43,-82.84 406.5,-102.33 432.24,-112.36 455.66,-135.76 467.55,-149.09"/>
<polygon fill="#9a32cd" stroke="#9a32cd" points="250.31,-80.24 240.55,-84.37 250.75,-87.23 250.31,-80.24"/>
</a>
</g>
<text text-anchor="start" x="280.5" y="-115.83" font-family="Helvetica,sans-Serif" font-size="10.00" fill="grey"> fOscillationParametersSet</text>
<text text-anchor="middle" x="338.62" y="-104.58" font-family="Helvetica,sans-Serif" font-size="10.00" fill="grey">Check</text>
</g>
</g>
</svg>
