<?xml version="1.0" encoding="UTF-8" standalone="no"?>
<!DOCTYPE svg PUBLIC "-//W3C//DTD SVG 1.1//EN"
 "http://www.w3.org/Graphics/SVG/1.1/DTD/svg11.dtd">
<!-- Generated by graphviz version 12.2.0 (20241103.1931)
 -->
<!-- Title: OscProbCalcerOscProb Pages: 1 -->
<!--zoomable 330 -->

<svg id="main" version="1.1" xmlns="http://www.w3.org/2000/svg" xmlns:xlink="http://www.w3.org/1999/xlink" xml:space="preserve" onload="init(evt)">

<style type="text/css"><![CDATA[
.node, .edge {opacity: 0.7;}
.node.selected, .edge.selected {opacity: 1;}
.edge:hover path { stroke: red; }
.edge:hover polygon { stroke: red; fill: red; }
]]></style>

<defs>
  <circle id="rim" cx="0" cy="0" r="7"/>
  <circle id="rim2" cx="0" cy="0" r="3.5"/>
  <g id="zoomPlus">
    <use xlink:href="#rim" fill="#404040"><set attributeName="fill" to="#808080" begin="zoomplus.mouseover" end="zoomplus.mouseout"/></use>
    <path d="M-4,0h8M0,-4v8" fill="none" stroke="white" stroke-width="1.5" pointer-events="none"/>
  </g>
  <g id="zoomMin">
    <use xlink:href="#rim" fill="#404040"><set attributeName="fill" to="#808080" begin="zoomminus.mouseover" end="zoomminus.mouseout"/></use>
    <path d="M-4,0h8" fill="none" stroke="white" stroke-width="1.5" pointer-events="none"/>
  </g>
  <g id="arrowUp" transform="translate(30 24)">
    <use xlink:href="#rim"/>
    <path pointer-events="none" fill="none" stroke="white" stroke-width="1.5" d="M0,-3.0v7 M-2.5,-0.5L0,-3.0L2.5,-0.5"/>
  </g>
  <g id="arrowRight" transform="rotate(90) translate(36 -43)">
    <use xlink:href="#rim"/>
    <path pointer-events="none" fill="none" stroke="white" stroke-width="1.5" d="M0,-3.0v7 M-2.5,-0.5L0,-3.0L2.5,-0.5"/>
  </g>
  <g id="arrowDown" transform="rotate(180) translate(-30 -48)">
    <use xlink:href="#rim"/>
    <path pointer-events="none" fill="none" stroke="white" stroke-width="1.5" d="M0,-3.0v7 M-2.5,-0.5L0,-3.0L2.5,-0.5"/>
  </g>
  <g id="arrowLeft" transform="rotate(270) translate(-36 17)">
    <use xlink:href="#rim"/>
    <path pointer-events="none" fill="none" stroke="white" stroke-width="1.5" d="M0,-3.0v7 M-2.5,-0.5L0,-3.0L2.5,-0.5"/>
  </g>
  <g id="resetDef">
    <use xlink:href="#rim2" fill="#404040"><set attributeName="fill" to="#808080" begin="reset.mouseover" end="reset.mouseout"/></use>
  </g>
</defs>
<script type="application/ecmascript">
var viewWidth = 694;
var viewHeight = 330;
var sectionId = 'dynsection-1';
</script>
<script type="application/ecmascript" xlink:href="svg.min.js"/>
<svg id="graph" class="graph">
<g id="viewport">
<title>OscProbCalcerOscProb</title>
<!-- Node1 -->
<g id="Node000001" class="node">
<title>Node1</title>
<g id="a_Node000001"><a xlink:title="Oscillation calculation engine for propagation in OscProb.">
<polygon fill="#999999" stroke="#666666" points="686.25,-21.88 566,-21.88 566,-2.62 686.25,-2.62 686.25,-21.88"/>
<text text-anchor="middle" x="626.12" y="-8.38" font-family="Helvetica,sans-Serif" font-size="10.00">OscProbCalcerOscProb</text>
</a>
</g>
</g>
<!-- Node2 -->
<g id="Node000002" class="node">
<title>Node2</title>
<g id="a_Node000002"><a xlink:href="classOscProbCalcerBase.html" target="_top" xlink:title="Oscillation calculation engine (CUDAProb3, ProbGPU, Prob3++, etc.) implementation agnostic base class...">
<polygon fill="white" stroke="#666666" points="529,-139.88 424.5,-139.88 424.5,-120.62 529,-120.62 529,-139.88"/>
<text text-anchor="middle" x="476.75" y="-126.38" font-family="Helvetica,sans-Serif" font-size="10.00">OscProbCalcerBase</text>
</a>
</g>
</g>
<!-- Node2&#45;&gt;Node1 -->
<g id="edge1_Node000001_Node000002" class="edge">
<title>Node2&#45;&gt;Node1</title>
<g id="a_edge1_Node000001_Node000002"><a xlink:title=" ">
<path fill="none" stroke="#63b8ff" d="M499.1,-113.15C530.31,-88.17 587.39,-42.47 612.59,-22.29"/>
<polygon fill="#63b8ff" stroke="#63b8ff" points="497.12,-110.26 491.5,-119.24 501.49,-115.73 497.12,-110.26"/>
</a>
</g>
</g>
<!-- Node3 -->
<g id="Node000003" class="node">
<title>Node3</title>
<g id="a_Node000003"><a xlink:title=" ">
<polygon fill="white" stroke="#666666" points="235.12,-262.88 147.12,-262.88 147.12,-243.62 235.12,-243.62 235.12,-262.88"/>
<text text-anchor="middle" x="191.12" y="-249.38" font-family="Helvetica,sans-Serif" font-size="10.00">std::vector&lt; int &gt;</text>
</a>
</g>
</g>
<!-- Node3&#45;&gt;Node2 -->
<g id="edge2_Node000002_Node000003" class="edge">
<title>Node3&#45;&gt;Node2</title>
<g id="a_edge2_Node000002_Node000003"><a xlink:title=" ">
<path fill="none" stroke="#9a32cd" stroke-dasharray="5,2" d="M246.62,-252.8C301.09,-251.45 380.37,-246.77 406.5,-231.25 442.69,-209.75 464.33,-161.09 472.27,-140.14"/>
<polygon fill="#9a32cd" stroke="#9a32cd" points="246.84,-249.3 236.92,-253.01 246.99,-256.29 246.84,-249.3"/>
</a>
</g>
<text text-anchor="middle" x="338.62" y="-253.7" font-family="Helvetica,sans-Serif" font-size="10.00" fill="grey"> fNeutrinoTypes</text>
</g>
<!-- Node4 -->
<g id="Node000004" class="node">
<title>Node4</title>
<g id="a_Node000004"><a xlink:title=" ">
<polygon fill="white" stroke="#666666" points="252.75,-225.5 129.5,-225.5 129.5,-195 252.75,-195 252.75,-225.5"/>
<text text-anchor="start" x="137.5" y="-212" font-family="Helvetica,sans-Serif" font-size="10.00">std::vector&lt; NuOscillator</text>
<text text-anchor="middle" x="191.12" y="-200.75" font-family="Helvetica,sans-Serif" font-size="10.00">::OscillationChannel &gt;</text>
</a>
</g>
</g>
<!-- Node4&#45;&gt;Node2 -->
<g id="edge3_Node000002_Node000004" class="edge">
<title>Node4&#45;&gt;Node2</title>
<g id="a_edge3_Node000002_Node000004"><a xlink:title=" ">
<path fill="none" stroke="#9a32cd" stroke-dasharray="5,2" d="M264.36,-215.96C307.31,-216.62 361.94,-212.55 406.5,-193.25 433.65,-181.5 457.19,-154.61 468.54,-140.05"/>
<polygon fill="#9a32cd" stroke="#9a32cd" points="264.45,-212.47 254.37,-215.71 264.28,-219.46 264.45,-212.47"/>
</a>
</g>
<text text-anchor="middle" x="338.62" y="-217.78" font-family="Helvetica,sans-Serif" font-size="10.00" fill="grey"> fOscillationChannels</text>
</g>
<!-- Node5 -->
<g id="Node000005" class="node">
<title>Node5</title>
<g id="a_Node000005"><a xlink:title=" ">
<polygon fill="white" stroke="#666666" points="251.62,-164.88 130.62,-164.88 130.62,-145.62 251.62,-145.62 251.62,-164.88"/>
<text text-anchor="middle" x="191.12" y="-151.38" font-family="Helvetica,sans-Serif" font-size="10.00">std::vector&lt; FLOAT_T &gt;</text>
</a>
</g>
</g>
<!-- Node5&#45;&gt;Node2 -->
<g id="edge4_Node000002_Node000005" class="edge">
<title>Node5&#45;&gt;Node2</title>
<g id="a_edge4_Node000002_Node000005"><a xlink:title=" ">
<path fill="none" stroke="#9a32cd" stroke-dasharray="5,2" d="M263.15,-148.92C265.71,-148.7 268.25,-148.47 270.75,-148.25 323.06,-143.62 382.89,-138.38 424.36,-134.75"/>
<polygon fill="#9a32cd" stroke="#9a32cd" points="262.96,-145.43 253.3,-149.8 263.57,-152.4 262.96,-145.43"/>
</a>
</g>
<text text-anchor="middle" x="338.62" y="-183.75" font-family="Helvetica,sans-Serif" font-size="10.00" fill="grey"> fCosineZArray</text>
<text text-anchor="middle" x="338.62" y="-172.5" font-family="Helvetica,sans-Serif" font-size="10.00" fill="grey">fEnergyArray</text>
<text text-anchor="middle" x="338.62" y="-161.25" font-family="Helvetica,sans-Serif" font-size="10.00" fill="grey">fOscParamsCurr</text>
<text text-anchor="middle" x="338.62" y="-150" font-family="Helvetica,sans-Serif" font-size="10.00" fill="grey">fWeightArray</text>
</g>
<!-- Node6 -->
<g id="Node000006" class="node">
<title>Node6</title>
<g id="a_Node000006"><a xlink:title=" ">
<polygon fill="white" stroke="#666666" points="220.12,-24.88 162.12,-24.88 162.12,-5.62 220.12,-5.62 220.12,-24.88"/>
<text text-anchor="middle" x="191.12" y="-11.38" font-family="Helvetica,sans-Serif" font-size="10.00">std::string</text>
</a>
</g>
</g>
<!-- Node6&#45;&gt;Node1 -->
<g id="edge10_Node000001_Node000006" class="edge">
<title>Node6&#45;&gt;Node1</title>
<g id="a_edge10_Node000001_Node000006"><a xlink:title=" ">
<path fill="none" stroke="#9a32cd" stroke-dasharray="5,2" d="M231.94,-14.69C244.37,-14.53 258.13,-14.37 270.75,-14.25 374.41,-13.3 495.14,-12.73 565.56,-12.46"/>
<polygon fill="#9a32cd" stroke="#9a32cd" points="231.98,-11.19 222.02,-14.82 232.07,-18.19 231.98,-11.19"/>
</a>
</g>
<text text-anchor="middle" x="476.75" y="-14.88" font-family="Helvetica,sans-Serif" font-size="10.00" fill="grey"> fPremFile</text>
</g>
<!-- Node6&#45;&gt;Node2 -->
<g id="edge5_Node000002_Node000006" class="edge">
<title>Node6&#45;&gt;Node2</title>
<g id="a_edge5_Node000002_Node000006"><a xlink:title=" ">
<path fill="none" stroke="#9a32cd" stroke-dasharray="5,2" d="M231.92,-12.93C277.12,-12.08 351.7,-16.2 406.5,-47 437.8,-64.59 460.94,-102.27 470.68,-120.28"/>
<polygon fill="#9a32cd" stroke="#9a32cd" points="231.95,-9.43 222.06,-13.22 232.15,-16.43 231.95,-9.43"/>
</a>
</g>
<text text-anchor="middle" x="338.62" y="-48.75" font-family="Helvetica,sans-Serif" font-size="10.00" fill="grey"> fImplementationName</text>
</g>
<!-- Node7 -->
<g id="Node000007" class="node">
<title>Node7</title>
<g id="a_Node000007"><a xlink:title=" ">
<polygon fill="white" stroke="#666666" points="92.5,-30.5 0,-30.5 0,0 92.5,0 92.5,-30.5"/>
<text text-anchor="start" x="8" y="-17" font-family="Helvetica,sans-Serif" font-size="10.00">std::basic_string&lt;</text>
<text text-anchor="middle" x="46.25" y="-5.75" font-family="Helvetica,sans-Serif" font-size="10.00"> Char &gt;</text>
</a>
</g>
</g>
<!-- Node7&#45;&gt;Node6 -->
<g id="edge6_Node000006_Node000007" class="edge">
<title>Node7&#45;&gt;Node6</title>
<g id="a_edge6_Node000006_Node000007"><a xlink:title=" ">
<path fill="none" stroke="#63b8ff" d="M104.3,-15.25C124.13,-15.25 145.51,-15.25 161.97,-15.25"/>
<polygon fill="#63b8ff" stroke="#63b8ff" points="104.36,-11.75 94.36,-15.25 104.36,-18.75 104.36,-11.75"/>
</a>
</g>
</g>
<!-- Node8 -->
<g id="Node000008" class="node">
<title>Node8</title>
<g id="a_Node000008"><a xlink:title=" ">
<polygon fill="white" stroke="#666666" points="241.88,-127.5 140.38,-127.5 140.38,-97 241.88,-97 241.88,-127.5"/>
<text text-anchor="start" x="148.38" y="-114" font-family="Helvetica,sans-Serif" font-size="10.00">std::vector&lt; FLOAT</text>
<text text-anchor="middle" x="191.12" y="-102.75" font-family="Helvetica,sans-Serif" font-size="10.00">_T * &gt;</text>
</a>
</g>
</g>
<!-- Node8&#45;&gt;Node2 -->
<g id="edge7_Node000002_Node000008" class="edge">
<title>Node8&#45;&gt;Node2</title>
<g id="a_edge7_Node000002_Node000008"><a xlink:title=" ">
<path fill="none" stroke="#9a32cd" stroke-dasharray="5,2" d="M253.55,-109.15C296.54,-107.85 355.22,-107.85 406.5,-114 417.41,-115.31 429.11,-117.67 439.72,-120.2"/>
<polygon fill="#9a32cd" stroke="#9a32cd" points="253.53,-105.65 243.65,-109.48 253.76,-112.64 253.53,-105.65"/>
</a>
</g>
<text text-anchor="middle" x="338.62" y="-115.75" font-family="Helvetica,sans-Serif" font-size="10.00" fill="grey"> fOscParams</text>
</g>
<!-- Node9 -->
<g id="Node000009" class="node">
<title>Node9</title>
<g id="a_Node000009"><a xlink:title=" ">
<polygon fill="white" stroke="#666666" points="250.88,-76.88 131.38,-76.88 131.38,-57.62 250.88,-57.62 250.88,-76.88"/>
<text text-anchor="middle" x="191.12" y="-63.38" font-family="Helvetica,sans-Serif" font-size="10.00">std::vector&lt; std::string &gt;</text>
</a>
</g>
</g>
<!-- Node9&#45;&gt;Node2 -->
<g id="edge8_Node000002_Node000009" class="edge">
<title>Node9&#45;&gt;Node2</title>
<g id="a_edge8_Node000002_Node000009"><a xlink:title=" ">
<path fill="none" stroke="#9a32cd" stroke-dasharray="5,2" d="M262.59,-62.61C305.37,-62.07 360.42,-65.49 406.5,-81.75 430.03,-90.05 452.85,-108.72 465.52,-120.32"/>
<polygon fill="#9a32cd" stroke="#9a32cd" points="262.59,-59.11 252.67,-62.82 262.74,-66.11 262.59,-59.11"/>
</a>
</g>
<text text-anchor="start" x="270.75" y="-94.75" font-family="Helvetica,sans-Serif" font-size="10.00" fill="grey"> fExpectedOscillationParameter</text>
<text text-anchor="middle" x="338.62" y="-83.5" font-family="Helvetica,sans-Serif" font-size="10.00" fill="grey">Names</text>
</g>
<!-- Node10 -->
<g id="Node000010" class="node">
<title>Node10</title>
<g id="a_Node000010"><a xlink:title=" ">
<polygon fill="white" stroke="#666666" points="238.88,-299.88 143.38,-299.88 143.38,-280.62 238.88,-280.62 238.88,-299.88"/>
<text text-anchor="middle" x="191.12" y="-286.38" font-family="Helvetica,sans-Serif" font-size="10.00">std::vector&lt; bool &gt;</text>
</a>
</g>
</g>
<!-- Node10&#45;&gt;Node2 -->
<g id="edge9_Node000002_Node000010" class="edge">
<title>Node10&#45;&gt;Node2</title>
<g id="a_edge9_Node000002_Node000010"><a xlink:title=" ">
<path fill="none" stroke="#9a32cd" stroke-dasharray="5,2" d="M250.53,-298.28C296.84,-301.5 361.08,-298.64 406.5,-267.25 451.66,-236.03 468.98,-166.35 474.03,-140.31"/>
<polygon fill="#9a32cd" stroke="#9a32cd" points="250.93,-294.8 240.68,-297.46 250.36,-301.77 250.93,-294.8"/>
</a>
</g>
<text text-anchor="start" x="280.5" y="-312.3" font-family="Helvetica,sans-Serif" font-size="10.00" fill="grey"> fOscillationParametersSet</text>
<text text-anchor="middle" x="338.62" y="-301.05" font-family="Helvetica,sans-Serif" font-size="10.00" fill="grey">Check</text>
</g>
</g>
</svg>

<g id="navigator" transform="translate(0 0)" fill="#404254">
  <rect fill="#f2f5e9" fill-opacity="0.5" stroke="#606060" stroke-width=".5" x="0" y="0" width="60" height="60"/>
  <use id="zoomplus" xlink:href="#zoomPlus" x="17" y="9" onmousedown="handleZoom(evt,'in')"/>
  <use id="zoomminus" xlink:href="#zoomMin" x="42" y="9" onmousedown="handleZoom(evt,'out')"/>
  <use id="reset" xlink:href="#resetDef" x="30" y="36" onmousedown="handleReset()"/>
   <use id="arrowup" xlink:href="#arrowUp" x="0" y="0" onmousedown="handlePan(0,-1)"/>
  <use id="arrowright" xlink:href="#arrowRight" x="0" y="0" onmousedown="handlePan(1,0)"/>
  <use id="arrowdown" xlink:href="#arrowDown" x="0" y="0" onmousedown="handlePan(0,1)"/>
  <use id="arrowleft" xlink:href="#arrowLeft" x="0" y="0" onmousedown="handlePan(-1,0)"/>
</g>
<svg viewBox="0 0 15 15" width="100%" height="30px" preserveAspectRatio="xMaxYMin meet">
 <g id="arrow_out" transform="scale(0.3 0.3)">
  <a xlink:href="classOscProbCalcerOscProb__coll__graph_org.svg" target="_base">
   <rect id="button" ry="5" rx="5" y="6" x="6" height="38" width="38"
        fill="#f2f5e9" fill-opacity="0.5" stroke="#606060" stroke-width="1.0"/>
   <path id="arrow"
     d="M 11.500037,31.436501 C 11.940474,20.09759 22.043105,11.32322 32.158766,21.979434 L 37.068811,17.246167 C 37.068811,17.246167 37.088388,32 37.088388,32 L 22.160133,31.978069 C 22.160133,31.978069 26.997745,27.140456 26.997745,27.140456 C 18.528582,18.264221 13.291696,25.230495 11.500037,31.436501 z"
     style="fill:#404040;"/>
  </a>
 </g>
</svg>

<style type='text/css'>
<![CDATA[
[data-mouse-over-selected='false'] { opacity: 0.7; }
[data-mouse-over-selected='true']  { opacity: 1.0; }
]]>
</style>
<script type="application/ecmascript"><![CDATA[
document.addEventListener('DOMContentLoaded', (event) => {
  highlightEdges();
  highlightAdjacentNodes();
});
]]></script>
</svg>
