<?xml version="1.0" encoding="UTF-8" standalone="no"?>
<!DOCTYPE svg PUBLIC "-//W3C//DTD SVG 1.1//EN"
 "http://www.w3.org/Graphics/SVG/1.1/DTD/svg11.dtd">
<!-- Generated by graphviz version 9.0.0 (20230911.1827)
 -->
<!-- Title: OscProbCalcerBase Pages: 1 -->
<svg width="311pt" height="286pt"
 viewBox="0.00 0.00 310.75 286.25" xmlns="http://www.w3.org/2000/svg" xmlns:xlink="http://www.w3.org/1999/xlink">

<svg id="main" version="1.1" xmlns="http://www.w3.org/2000/svg" xmlns:xlink="http://www.w3.org/1999/xlink" xml:space="preserve" onload="init(evt)">
<style type="text/css"><![CDATA[
.node, .edge {opacity: 0.7;}
.node.selected, .edge.selected {opacity: 1;}
.edge:hover path { stroke: red; }
.edge:hover polygon { stroke: red; fill: red; }
]]></style>
<script type="application/ecmascript" xlink:href="svg.min.js"/>
<svg id="graph" class="graph">
<g id="graph0" class="graph" transform="scale(1 1) rotate(0) translate(4 282.25)">
<title>OscProbCalcerBase</title>
<!-- Node1 -->
<g id="Node000001" class="node">
<title>Node1</title>
<g id="a_Node000001"><a xlink:title="Oscillation calculation engine (CUDAProb3, ProbGPU, Prob3++, etc.) implementation agnostic base class...">
<polygon fill="#999999" stroke="#666666" points="104.5,-148.25 0,-148.25 0,-129 104.5,-129 104.5,-148.25"/>
<text text-anchor="middle" x="52.25" y="-134.75" font-family="Helvetica,sans-Serif" font-size="10.00">OscProbCalcerBase</text>
</a>
</g>
</g>
<!-- Node2 -->
<g id="Node000002" class="node">
<title>Node2</title>
<g id="a_Node000002"><a xlink:href="classOscProbCalcerCUDAProb3.html" target="_top" xlink:title="Oscillation calculation engine for linear and atmospheric propagation in CUDAProb3.">
<polygon fill="white" stroke="#666666" points="289.25,-278.25 154,-278.25 154,-259 289.25,-259 289.25,-278.25"/>
<text text-anchor="middle" x="221.62" y="-264.75" font-family="Helvetica,sans-Serif" font-size="10.00">OscProbCalcerCUDAProb3</text>
</a>
</g>
</g>
<!-- Node1&#45;&gt;Node2 -->
<g id="edge1_Node000001_Node000002" class="edge">
<title>Node1&#45;&gt;Node2</title>
<g id="a_edge1_Node000001_Node000002"><a xlink:title=" ">
<path fill="none" stroke="#63b8ff" d="M63.17,-158.57C76.92,-184.06 104.23,-227.63 140.5,-250.62 145.56,-253.83 151.11,-256.47 156.86,-258.64"/>
<polygon fill="#63b8ff" stroke="#63b8ff" points="66.39,-157.17 58.67,-149.91 60.17,-160.4 66.39,-157.17"/>
</a>
</g>
</g>
<!-- Node3 -->
<g id="Node000003" class="node">
<title>Node3</title>
<g id="a_Node000003"><a xlink:href="classOscProbCalcerCUDAProb3Linear.html" target="_top" xlink:title="Oscillation calculation engine for linear propagation in CUDAProb3.">
<polygon fill="white" stroke="#666666" points="302.75,-241.25 140.5,-241.25 140.5,-222 302.75,-222 302.75,-241.25"/>
<text text-anchor="middle" x="221.62" y="-227.75" font-family="Helvetica,sans-Serif" font-size="10.00">OscProbCalcerCUDAProb3Linear</text>
</a>
</g>
</g>
<!-- Node1&#45;&gt;Node3 -->
<g id="edge2_Node000001_Node000003" class="edge">
<title>Node1&#45;&gt;Node3</title>
<g id="a_edge2_Node000001_Node000003"><a xlink:title=" ">
<path fill="none" stroke="#63b8ff" d="M69.3,-156.83C85.54,-174.08 112.23,-199.42 140.5,-213.62 146.74,-216.76 153.53,-219.36 160.43,-221.5"/>
<polygon fill="#63b8ff" stroke="#63b8ff" points="72.16,-154.77 62.83,-149.76 67,-159.5 72.16,-154.77"/>
</a>
</g>
</g>
<!-- Node4 -->
<g id="Node000004" class="node">
<title>Node4</title>
<g id="a_Node000004"><a xlink:href="classOscProbCalcerGLoBESLinear.html" target="_top" xlink:title="Oscillation calculation engine for linear propagation in GLoBES.">
<polygon fill="white" stroke="#666666" points="295.25,-204.25 148,-204.25 148,-185 295.25,-185 295.25,-204.25"/>
<text text-anchor="middle" x="221.62" y="-190.75" font-family="Helvetica,sans-Serif" font-size="10.00">OscProbCalcerGLoBESLinear</text>
</a>
</g>
</g>
<!-- Node1&#45;&gt;Node4 -->
<g id="edge3_Node000001_Node000004" class="edge">
<title>Node1&#45;&gt;Node4</title>
<g id="a_edge3_Node000001_Node000004"><a xlink:title=" ">
<path fill="none" stroke="#63b8ff" d="M83.44,-153.46C99.99,-161.17 121.05,-170.27 140.5,-176.62 149.58,-179.59 159.4,-182.24 168.94,-184.53"/>
<polygon fill="#63b8ff" stroke="#63b8ff" points="85.18,-150.41 74.64,-149.3 82.18,-156.74 85.18,-150.41"/>
</a>
</g>
</g>
<!-- Node5 -->
<g id="Node000005" class="node">
<title>Node5</title>
<g id="a_Node000005"><a xlink:href="classOscProbCalcerNuFASTLinear.html" target="_top" xlink:title="Oscillation calculation engine for linear propagation in NuFAST.">
<polygon fill="white" stroke="#666666" points="295.25,-167.25 148,-167.25 148,-148 295.25,-148 295.25,-167.25"/>
<text text-anchor="middle" x="221.62" y="-153.75" font-family="Helvetica,sans-Serif" font-size="10.00">OscProbCalcerNuFASTLinear</text>
</a>
</g>
</g>
<!-- Node1&#45;&gt;Node5 -->
<g id="edge4_Node000001_Node000005" class="edge">
<title>Node1&#45;&gt;Node5</title>
<g id="a_edge4_Node000001_Node000005"><a xlink:title=" ">
<path fill="none" stroke="#63b8ff" d="M116.2,-145.77C126.47,-146.94 137.19,-148.15 147.68,-149.34"/>
<polygon fill="#63b8ff" stroke="#63b8ff" points="116.67,-142.3 106.34,-144.65 115.88,-149.26 116.67,-142.3"/>
</a>
</g>
</g>
<!-- Node6 -->
<g id="Node000006" class="node">
<title>Node6</title>
<g id="a_Node000006"><a xlink:href="classOscProbCalcerNuSQUIDSLinear.html" target="_top" xlink:title="Oscillation calculation engine for linear propagation in NuSQUIDS.">
<polygon fill="white" stroke="#666666" points="301.62,-130.25 141.62,-130.25 141.62,-111 301.62,-111 301.62,-130.25"/>
<text text-anchor="middle" x="221.62" y="-116.75" font-family="Helvetica,sans-Serif" font-size="10.00">OscProbCalcerNuSQUIDSLinear</text>
</a>
</g>
</g>
<!-- Node1&#45;&gt;Node6 -->
<g id="edge5_Node000001_Node000006" class="edge">
<title>Node1&#45;&gt;Node6</title>
<g id="a_edge5_Node000001_Node000006"><a xlink:title=" ">
<path fill="none" stroke="#63b8ff" d="M116.17,-131.86C124.34,-130.98 132.8,-130.07 141.2,-129.17"/>
<polygon fill="#63b8ff" stroke="#63b8ff" points="115.91,-128.37 106.34,-132.92 116.66,-135.33 115.91,-128.37"/>
</a>
</g>
</g>
<!-- Node7 -->
<g id="Node000007" class="node">
<title>Node7</title>
<g id="a_Node000007"><a xlink:href="classOscProbCalcerOscProb.html" target="_top" xlink:title="Oscillation calculation engine for propagation in OscProb.">
<polygon fill="white" stroke="#666666" points="281.75,-93.25 161.5,-93.25 161.5,-74 281.75,-74 281.75,-93.25"/>
<text text-anchor="middle" x="221.62" y="-79.75" font-family="Helvetica,sans-Serif" font-size="10.00">OscProbCalcerOscProb</text>
</a>
</g>
</g>
<!-- Node1&#45;&gt;Node7 -->
<g id="edge6_Node000001_Node000007" class="edge">
<title>Node1&#45;&gt;Node7</title>
<g id="a_edge6_Node000001_Node000007"><a xlink:title=" ">
<path fill="none" stroke="#63b8ff" d="M84.14,-123.92C100.6,-116.49 121.35,-107.78 140.5,-101.62 149.73,-98.66 159.71,-96 169.39,-93.69"/>
<polygon fill="#63b8ff" stroke="#63b8ff" points="83.01,-120.59 75.38,-127.94 85.93,-126.95 83.01,-120.59"/>
</a>
</g>
</g>
<!-- Node8 -->
<g id="Node000008" class="node">
<title>Node8</title>
<g id="a_Node000008"><a xlink:href="classOscProbCalcerProb3ppLinear.html" target="_top" xlink:title="Oscillation calculation engine for linear propagation in Prob3pp.">
<polygon fill="white" stroke="#666666" points="294.12,-56.25 149.12,-56.25 149.12,-37 294.12,-37 294.12,-56.25"/>
<text text-anchor="middle" x="221.62" y="-42.75" font-family="Helvetica,sans-Serif" font-size="10.00">OscProbCalcerProb3ppLinear</text>
</a>
</g>
</g>
<!-- Node1&#45;&gt;Node8 -->
<g id="edge7_Node000001_Node000008" class="edge">
<title>Node1&#45;&gt;Node8</title>
<g id="a_edge7_Node000001_Node000008"><a xlink:title=" ">
<path fill="none" stroke="#63b8ff" d="M69.35,-120.67C85.63,-103.65 112.34,-78.65 140.5,-64.62 146.88,-61.45 153.83,-58.82 160.87,-56.66"/>
<polygon fill="#63b8ff" stroke="#63b8ff" points="67.12,-117.93 62.87,-127.64 72.24,-122.7 67.12,-117.93"/>
</a>
</g>
</g>
<!-- Node9 -->
<g id="Node000009" class="node">
<title>Node9</title>
<g id="a_Node000009"><a xlink:href="classOscProbCalcerProbGPULinear.html" target="_top" xlink:title="Oscillation calculation engine for linear propagation in ProbGPU.">
<polygon fill="white" stroke="#666666" points="297.12,-19.25 146.12,-19.25 146.12,0 297.12,0 297.12,-19.25"/>
<text text-anchor="middle" x="221.62" y="-5.75" font-family="Helvetica,sans-Serif" font-size="10.00">OscProbCalcerProbGPULinear</text>
</a>
</g>
</g>
<!-- Node1&#45;&gt;Node9 -->
<g id="edge8_Node000001_Node000009" class="edge">
<title>Node1&#45;&gt;Node9</title>
<g id="a_edge8_Node000001_Node000009"><a xlink:title=" ">
<path fill="none" stroke="#63b8ff" d="M63.22,-118.85C77.02,-93.59 104.38,-50.41 140.5,-27.62 145.56,-24.43 151.12,-21.8 156.88,-19.63"/>
<polygon fill="#63b8ff" stroke="#63b8ff" points="60.26,-116.95 58.7,-127.43 66.46,-120.21 60.26,-116.95"/>
</a>
</g>
</g>
</g>
</svg>
</svg>

<style type='text/css'>
<![CDATA[
[data-mouse-over-selected='false'] { opacity: 0.7; }
[data-mouse-over-selected='true']  { opacity: 1.0; }
]]>
</style>
<script type="application/ecmascript"><![CDATA[
document.addEventListener('DOMContentLoaded', (event) => {
  highlightEdges();
  highlightAdjacentNodes();
});
]]></script>
</svg>
