<?xml version="1.0" encoding="UTF-8" standalone="no"?>
<!DOCTYPE svg PUBLIC "-//W3C//DTD SVG 1.1//EN"
 "http://www.w3.org/Graphics/SVG/1.1/DTD/svg11.dtd">
<!-- Generated by graphviz version 9.0.0 (20230911.1827)
 -->
<!-- Title: OscillatorBinned Pages: 1 -->
<!--zoomable 363 -->

<svg id="main" version="1.1" xmlns="http://www.w3.org/2000/svg" xmlns:xlink="http://www.w3.org/1999/xlink" xml:space="preserve" onload="init(evt)">
<style type="text/css"><![CDATA[
.node, .edge {opacity: 0.7;}
.node.selected, .edge.selected {opacity: 1;}
.edge:hover path { stroke: red; }
.edge:hover polygon { stroke: red; fill: red; }
]]></style>

<defs>
  <circle id="rim" cx="0" cy="0" r="7"/>
  <circle id="rim2" cx="0" cy="0" r="3.5"/>
  <g id="zoomPlus">
    <use xlink:href="#rim" fill="#404040"><set attributeName="fill" to="#808080" begin="zoomplus.mouseover" end="zoomplus.mouseout"/></use>
    <path d="M-4,0h8M0,-4v8" fill="none" stroke="white" stroke-width="1.5" pointer-events="none"/>
  </g>
  <g id="zoomMin">
    <use xlink:href="#rim" fill="#404040"><set attributeName="fill" to="#808080" begin="zoomminus.mouseover" end="zoomminus.mouseout"/></use>
    <path d="M-4,0h8" fill="none" stroke="white" stroke-width="1.5" pointer-events="none"/>
  </g>
  <g id="arrowUp" transform="translate(30 24)">
    <use xlink:href="#rim"/>
    <path pointer-events="none" fill="none" stroke="white" stroke-width="1.5" d="M0,-3.0v7 M-2.5,-0.5L0,-3.0L2.5,-0.5"/>
  </g>
  <g id="arrowRight" transform="rotate(90) translate(36 -43)">
    <use xlink:href="#rim"/>
    <path pointer-events="none" fill="none" stroke="white" stroke-width="1.5" d="M0,-3.0v7 M-2.5,-0.5L0,-3.0L2.5,-0.5"/>
  </g>
  <g id="arrowDown" transform="rotate(180) translate(-30 -48)">
    <use xlink:href="#rim"/>
    <path pointer-events="none" fill="none" stroke="white" stroke-width="1.5" d="M0,-3.0v7 M-2.5,-0.5L0,-3.0L2.5,-0.5"/>
  </g>
  <g id="arrowLeft" transform="rotate(270) translate(-36 17)">
    <use xlink:href="#rim"/>
    <path pointer-events="none" fill="none" stroke="white" stroke-width="1.5" d="M0,-3.0v7 M-2.5,-0.5L0,-3.0L2.5,-0.5"/>
  </g>
  <g id="resetDef">
    <use xlink:href="#rim2" fill="#404040"><set attributeName="fill" to="#808080" begin="reset.mouseover" end="reset.mouseout"/></use>
  </g>
</defs>
<script type="application/ecmascript">
var viewWidth = 696;
var viewHeight = 363;
var sectionId = 'dynsection-1';
</script>
<script type="application/ecmascript" xlink:href="svg.min.js"/>
<svg id="graph" class="graph">
<g id="viewport">
<title>OscillatorBinned</title>
<!-- Node1 -->
<g id="Node000001" class="node">
<title>Node1</title>
<g id="a_Node000001"><a xlink:title="Binned Oscillation calculation implementation class.">
<polygon fill="#999999" stroke="#666666" points="471.12,-19.25 383.88,-19.25 383.88,0 471.12,0 471.12,-19.25"/>
<text text-anchor="middle" x="427.5" y="-5.75" font-family="Helvetica,sans-Serif" font-size="10.00">OscillatorBinned</text>
</a>
</g>
</g>
<!-- Node2 -->
<g id="Node000002" class="node">
<title>Node2</title>
<g id="a_Node000002"><a xlink:href="classOscillatorBase.html" target="_top" xlink:title="Oscillation calculation (binned, unbinned, etc.) implementation agnostic base class.">
<polygon fill="white" stroke="#666666" points="467.38,-75.5 387.62,-75.5 387.62,-56.25 467.38,-56.25 467.38,-75.5"/>
<text text-anchor="middle" x="427.5" y="-62" font-family="Helvetica,sans-Serif" font-size="10.00">OscillatorBase</text>
</a>
</g>
</g>
<!-- Node2&#45;&gt;Node1 -->
<g id="edge1_Node000001_Node000002" class="edge">
<title>Node2&#45;&gt;Node1</title>
<g id="a_edge1_Node000001_Node000002"><a xlink:title=" ">
<path fill="none" stroke="#63b8ff" d="M427.5,-44.69C427.5,-35.98 427.5,-26.24 427.5,-19.42"/>
<polygon fill="#63b8ff" stroke="#63b8ff" points="424,-44.4 427.5,-54.4 431,-44.4 424,-44.4"/>
</a>
</g>
</g>
<!-- Node3 -->
<g id="Node000003" class="node">
<title>Node3</title>
<g id="a_Node000003"><a xlink:href="classOscProbCalcerBase.html" target="_top" xlink:title="Oscillation calculation engine (CUDAProb3, ProbGPU, Prob3++, etc.) implementation agnostic base class...">
<polygon fill="white" stroke="#666666" points="330.75,-175.75 226.25,-175.75 226.25,-156.5 330.75,-156.5 330.75,-175.75"/>
<text text-anchor="middle" x="278.5" y="-162.25" font-family="Helvetica,sans-Serif" font-size="10.00">OscProbCalcerBase</text>
</a>
</g>
</g>
<!-- Node3&#45;&gt;Node2 -->
<g id="edge2_Node000002_Node000003" class="edge">
<title>Node3&#45;&gt;Node2</title>
<g id="a_edge2_Node000002_Node000003"><a xlink:title=" ">
<path fill="none" stroke="#9a32cd" stroke-dasharray="5,2" d="M301.54,-149.93C332.94,-129.23 388.2,-92.79 413.78,-75.92"/>
<polygon fill="#9a32cd" stroke="#9a32cd" points="299.94,-146.8 293.51,-155.22 303.79,-152.64 299.94,-146.8"/>
</a>
</g>
<text text-anchor="middle" x="418.12" y="-112.12" font-family="Helvetica,sans-Serif" font-size="10.00" fill="grey"> fOscProbCalcer</text>
</g>
<!-- Node4 -->
<g id="Node000004" class="node">
<title>Node4</title>
<g id="a_Node000004"><a xlink:title=" ">
<polygon fill="white" stroke="#666666" points="228.5,-281.62 140.5,-281.62 140.5,-262.38 228.5,-262.38 228.5,-281.62"/>
<text text-anchor="middle" x="184.5" y="-268.12" font-family="Helvetica,sans-Serif" font-size="10.00">std::vector&lt; int &gt;</text>
</a>
</g>
</g>
<!-- Node4&#45;&gt;Node3 -->
<g id="edge3_Node000003_Node000004" class="edge">
<title>Node4&#45;&gt;Node3</title>
<g id="a_edge3_Node000003_Node000004"><a xlink:title=" ">
<path fill="none" stroke="#9a32cd" stroke-dasharray="5,2" d="M183.69,-250.61C184.12,-233.45 187.46,-209.28 201.25,-193.75 208.41,-185.69 218.13,-180.07 228.25,-176.15"/>
<polygon fill="#9a32cd" stroke="#9a32cd" points="180.19,-250.4 183.79,-260.37 187.19,-250.33 180.19,-250.4"/>
</a>
</g>
<text text-anchor="middle" x="235.62" y="-212.38" font-family="Helvetica,sans-Serif" font-size="10.00" fill="grey"> fNeutrinoTypes</text>
</g>
<!-- Node5 -->
<g id="Node000005" class="node">
<title>Node5</title>
<g id="a_Node000005"><a xlink:title=" ">
<polygon fill="white" stroke="#666666" points="370.12,-287.25 246.88,-287.25 246.88,-256.75 370.12,-256.75 370.12,-287.25"/>
<text text-anchor="start" x="254.88" y="-273.75" font-family="Helvetica,sans-Serif" font-size="10.00">std::vector&lt; NuOscillator</text>
<text text-anchor="middle" x="308.5" y="-262.5" font-family="Helvetica,sans-Serif" font-size="10.00">::OscillationChannel &gt;</text>
</a>
</g>
</g>
<!-- Node5&#45;&gt;Node3 -->
<g id="edge4_Node000003_Node000005" class="edge">
<title>Node5&#45;&gt;Node3</title>
<g id="a_edge4_Node000003_Node000005"><a xlink:title=" ">
<path fill="none" stroke="#9a32cd" stroke-dasharray="5,2" d="M284.71,-247.59C282.83,-244.78 281.2,-241.82 280,-238.75 271.67,-217.43 274.54,-189.76 276.81,-175.88"/>
<polygon fill="#9a32cd" stroke="#9a32cd" points="281.86,-249.64 290.83,-255.28 287.33,-245.28 281.86,-249.64"/>
</a>
</g>
<text text-anchor="middle" x="325.25" y="-212.38" font-family="Helvetica,sans-Serif" font-size="10.00" fill="grey"> fOscillationChannels</text>
</g>
<!-- Node6 -->
<g id="Node000006" class="node">
<title>Node6</title>
<g id="a_Node000006"><a xlink:title=" ">
<polygon fill="white" stroke="#666666" points="121,-281.62 0,-281.62 0,-262.38 121,-262.38 121,-281.62"/>
<text text-anchor="middle" x="60.5" y="-268.12" font-family="Helvetica,sans-Serif" font-size="10.00">std::vector&lt; FLOAT_T &gt;</text>
</a>
</g>
</g>
<!-- Node6&#45;&gt;Node1 -->
<g id="edge10_Node000001_Node000006" class="edge">
<title>Node6&#45;&gt;Node1</title>
<g id="a_edge10_Node000001_Node000006"><a xlink:title=" ">
<path fill="none" stroke="#9a32cd" stroke-dasharray="5,2" d="M59.46,-251.08C59.52,-234.56 61.81,-211.05 72.5,-193.75 142.03,-81.21 305.04,-34.71 383.62,-18.32"/>
<polygon fill="#9a32cd" stroke="#9a32cd" points="55.95,-250.72 59.71,-260.63 62.95,-250.54 55.95,-250.72"/>
</a>
</g>
<text text-anchor="middle" x="233" y="-129" font-family="Helvetica,sans-Serif" font-size="10.00" fill="grey"> CosineZAxisBinCenters</text>
<text text-anchor="middle" x="233" y="-117.75" font-family="Helvetica,sans-Serif" font-size="10.00" fill="grey">CosineZAxisBinEdges</text>
<text text-anchor="middle" x="233" y="-106.5" font-family="Helvetica,sans-Serif" font-size="10.00" fill="grey">EnergyAxisBinCenters</text>
<text text-anchor="middle" x="233" y="-95.25" font-family="Helvetica,sans-Serif" font-size="10.00" fill="grey">EnergyAxisBinEdges</text>
</g>
<!-- Node6&#45;&gt;Node3 -->
<g id="edge5_Node000003_Node000006" class="edge">
<title>Node6&#45;&gt;Node3</title>
<g id="a_edge5_Node000003_Node000006"><a xlink:title=" ">
<path fill="none" stroke="#9a32cd" stroke-dasharray="5,2" d="M67.06,-251.34C74.14,-233.32 87.25,-207.42 107.75,-193.75 126.66,-181.14 182.99,-174.13 225.82,-170.51"/>
<polygon fill="#9a32cd" stroke="#9a32cd" points="63.8,-250.05 63.69,-260.65 70.38,-252.43 63.8,-250.05"/>
</a>
</g>
<text text-anchor="middle" x="144.88" y="-229.25" font-family="Helvetica,sans-Serif" font-size="10.00" fill="grey"> fCosineZArray</text>
<text text-anchor="middle" x="144.88" y="-218" font-family="Helvetica,sans-Serif" font-size="10.00" fill="grey">fEnergyArray</text>
<text text-anchor="middle" x="144.88" y="-206.75" font-family="Helvetica,sans-Serif" font-size="10.00" fill="grey">fOscParamsCurr</text>
<text text-anchor="middle" x="144.88" y="-195.5" font-family="Helvetica,sans-Serif" font-size="10.00" fill="grey">fWeightArray</text>
</g>
<!-- Node7 -->
<g id="Node000007" class="node">
<title>Node7</title>
<g id="a_Node000007"><a xlink:title=" ">
<polygon fill="white" stroke="#666666" points="535.5,-281.62 477.5,-281.62 477.5,-262.38 535.5,-262.38 535.5,-281.62"/>
<text text-anchor="middle" x="506.5" y="-268.12" font-family="Helvetica,sans-Serif" font-size="10.00">std::string</text>
</a>
</g>
</g>
<!-- Node7&#45;&gt;Node1 -->
<g id="edge9_Node000001_Node000007" class="edge">
<title>Node7&#45;&gt;Node1</title>
<g id="a_edge9_Node000001_Node000007"><a xlink:title=" ">
<path fill="none" stroke="#9a32cd" stroke-dasharray="5,2" d="M532.91,-256.23C565.64,-235.82 615.01,-196.92 596.5,-156.5 564.96,-87.6 483.03,-38.86 446.07,-19.67"/>
<polygon fill="#9a32cd" stroke="#9a32cd" points="531.44,-253.03 524.67,-261.17 535.05,-259.03 531.44,-253.03"/>
</a>
</g>
<text text-anchor="middle" x="637.12" y="-123.38" font-family="Helvetica,sans-Serif" font-size="10.00" fill="grey"> CosineZAxisHistName</text>
<text text-anchor="middle" x="637.12" y="-112.12" font-family="Helvetica,sans-Serif" font-size="10.00" fill="grey">EnergyAxisHistName</text>
<text text-anchor="middle" x="637.12" y="-100.88" font-family="Helvetica,sans-Serif" font-size="10.00" fill="grey">FileName</text>
</g>
<!-- Node7&#45;&gt;Node2 -->
<g id="edge8_Node000002_Node000007" class="edge">
<title>Node7&#45;&gt;Node2</title>
<g id="a_edge8_Node000002_Node000007"><a xlink:title=" ">
<path fill="none" stroke="#9a32cd" stroke-dasharray="5,2" d="M505.05,-250.64C501.7,-215.74 490.96,-143.42 457.5,-93.5 452.93,-86.67 446.19,-80.48 440.27,-75.79"/>
<polygon fill="#9a32cd" stroke="#9a32cd" points="501.55,-250.88 505.87,-260.55 508.53,-250.3 501.55,-250.88"/>
</a>
</g>
<text text-anchor="middle" x="541.75" y="-162.25" font-family="Helvetica,sans-Serif" font-size="10.00" fill="grey"> fCalculationTypeName</text>
</g>
<!-- Node7&#45;&gt;Node3 -->
<g id="edge6_Node000003_Node000007" class="edge">
<title>Node7&#45;&gt;Node3</title>
<g id="a_edge6_Node000003_Node000007"><a xlink:title=" ">
<path fill="none" stroke="#9a32cd" stroke-dasharray="5,2" d="M466.01,-267.39C442.82,-263.51 414.43,-255.45 394.25,-238.75 376.98,-224.46 388.77,-208.03 371.5,-193.75 359.98,-184.23 345.23,-178.11 330.89,-174.18"/>
<polygon fill="#9a32cd" stroke="#9a32cd" points="465.35,-270.83 475.75,-268.81 466.35,-263.9 465.35,-270.83"/>
</a>
</g>
<text text-anchor="middle" x="442.62" y="-212.38" font-family="Helvetica,sans-Serif" font-size="10.00" fill="grey"> fImplementationName</text>
</g>
<!-- Node8 -->
<g id="Node000008" class="node">
<title>Node8</title>
<g id="a_Node000008"><a xlink:title=" ">
<polygon fill="white" stroke="#666666" points="552.75,-354.75 460.25,-354.75 460.25,-324.25 552.75,-324.25 552.75,-354.75"/>
<text text-anchor="start" x="468.25" y="-341.25" font-family="Helvetica,sans-Serif" font-size="10.00">std::basic_string&lt;</text>
<text text-anchor="middle" x="506.5" y="-330" font-family="Helvetica,sans-Serif" font-size="10.00"> Char &gt;</text>
</a>
</g>
</g>
<!-- Node8&#45;&gt;Node7 -->
<g id="edge7_Node000007_Node000008" class="edge">
<title>Node8&#45;&gt;Node7</title>
<g id="a_edge7_Node000007_Node000008"><a xlink:title=" ">
<path fill="none" stroke="#63b8ff" d="M506.5,-312.49C506.5,-301.71 506.5,-289.92 506.5,-282.05"/>
<polygon fill="#63b8ff" stroke="#63b8ff" points="503,-312.45 506.5,-322.45 510,-312.45 503,-312.45"/>
</a>
</g>
</g>
</g>
</svg>

<g id="navigator" transform="translate(0 0)" fill="#404254">
  <rect fill="#f2f5e9" fill-opacity="0.5" stroke="#606060" stroke-width=".5" x="0" y="0" width="60" height="60"/>
  <use id="zoomplus" xlink:href="#zoomPlus" x="17" y="9" onmousedown="handleZoom(evt,'in')"/>
  <use id="zoomminus" xlink:href="#zoomMin" x="42" y="9" onmousedown="handleZoom(evt,'out')"/>
  <use id="reset" xlink:href="#resetDef" x="30" y="36" onmousedown="handleReset()"/>
   <use id="arrowup" xlink:href="#arrowUp" x="0" y="0" onmousedown="handlePan(0,-1)"/>
  <use id="arrowright" xlink:href="#arrowRight" x="0" y="0" onmousedown="handlePan(1,0)"/>
  <use id="arrowdown" xlink:href="#arrowDown" x="0" y="0" onmousedown="handlePan(0,1)"/>
  <use id="arrowleft" xlink:href="#arrowLeft" x="0" y="0" onmousedown="handlePan(-1,0)"/>
</g>
<svg viewBox="0 0 15 15" width="100%" height="30px" preserveAspectRatio="xMaxYMin meet">
 <g id="arrow_out" transform="scale(0.3 0.3)">
  <a xlink:href="classOscillatorBinned__coll__graph_org.svg" target="_base">
   <rect id="button" ry="5" rx="5" y="6" x="6" height="38" width="38"
        fill="#f2f5e9" fill-opacity="0.5" stroke="#606060" stroke-width="1.0"/>
   <path id="arrow"
     d="M 11.500037,31.436501 C 11.940474,20.09759 22.043105,11.32322 32.158766,21.979434 L 37.068811,17.246167 C 37.068811,17.246167 37.088388,32 37.088388,32 L 22.160133,31.978069 C 22.160133,31.978069 26.997745,27.140456 26.997745,27.140456 C 18.528582,18.264221 13.291696,25.230495 11.500037,31.436501 z"
     style="fill:#404040;"/>
  </a>
 </g>
</svg>

<style type='text/css'>
<![CDATA[
[data-mouse-over-selected='false'] { opacity: 0.7; }
[data-mouse-over-selected='true']  { opacity: 1.0; }
]]>
</style>
<script type="application/ecmascript"><![CDATA[
document.addEventListener('DOMContentLoaded', (event) => {
  highlightEdges();
  highlightAdjacentNodes();
});
]]></script>
</svg>
