<?xml version="1.0" encoding="UTF-8" standalone="no"?>
<!DOCTYPE svg PUBLIC "-//W3C//DTD SVG 1.1//EN"
 "http://www.w3.org/Graphics/SVG/1.1/DTD/svg11.dtd">
<!-- Generated by graphviz version 9.0.0 (20230911.1827)
 -->
<!-- Title: OscProbCalcerCUDAProb3Linear Pages: 1 -->
<svg width="834pt" height="325pt"
 viewBox="0.00 0.00 834.25 325.26" xmlns="http://www.w3.org/2000/svg" xmlns:xlink="http://www.w3.org/1999/xlink">
<g id="graph0" class="graph" transform="scale(1 1) rotate(0) translate(4 321.26)">
<title>OscProbCalcerCUDAProb3Linear</title>
<!-- Node1 -->
<g id="Node000001" class="node">
<title>Node1</title>
<g id="a_Node000001"><a xlink:title="Oscillation calculation engine for linear propagation in CUDAProb3.">
<polygon fill="#999999" stroke="#666666" points="826.25,-181.26 664,-181.26 664,-162.01 826.25,-162.01 826.25,-181.26"/>
<text text-anchor="middle" x="745.12" y="-167.76" font-family="Helvetica,sans-Serif" font-size="10.00">OscProbCalcerCUDAProb3Linear</text>
</a>
</g>
</g>
<!-- Node2 -->
<g id="Node000002" class="node">
<title>Node2</title>
<g id="a_Node000002"><a xlink:href="classOscProbCalcerBase.html" target="_top" xlink:title="Oscillation calculation engine (CUDAProb3, ProbGPU, Prob3++, etc.) implementation agnostic base class...">
<polygon fill="white" stroke="#666666" points="554.5,-181.26 450,-181.26 450,-162.01 554.5,-162.01 554.5,-181.26"/>
<text text-anchor="middle" x="502.25" y="-167.76" font-family="Helvetica,sans-Serif" font-size="10.00">OscProbCalcerBase</text>
</a>
</g>
</g>
<!-- Node2&#45;&gt;Node1 -->
<g id="edge1_Node000001_Node000002" class="edge">
<title>Node2&#45;&gt;Node1</title>
<g id="a_edge1_Node000001_Node000002"><a xlink:title=" ">
<path fill="none" stroke="#63b8ff" d="M566.42,-171.64C596.16,-171.64 631.97,-171.64 663.63,-171.64"/>
<polygon fill="#63b8ff" stroke="#63b8ff" points="566.44,-168.14 556.44,-171.64 566.44,-175.14 566.44,-168.14"/>
</a>
</g>
</g>
<!-- Node3 -->
<g id="Node000003" class="node">
<title>Node3</title>
<g id="a_Node000003"><a xlink:title=" ">
<polygon fill="white" stroke="#666666" points="235.12,-317.26 147.12,-317.26 147.12,-298.01 235.12,-298.01 235.12,-317.26"/>
<text text-anchor="middle" x="191.12" y="-303.76" font-family="Helvetica,sans-Serif" font-size="10.00">std::vector&lt; int &gt;</text>
</a>
</g>
</g>
<!-- Node3&#45;&gt;Node1 -->
<g id="edge10_Node000001_Node000003" class="edge">
<title>Node3&#45;&gt;Node1</title>
<g id="a_edge10_Node000001_Node000003"><a xlink:title=" ">
<path fill="none" stroke="#9a32cd" stroke-dasharray="5,2" d="M246.54,-311.51C290.22,-313.4 352.88,-313.33 406.5,-302.64 533.83,-277.26 675.42,-207.59 725.42,-181.59"/>
<polygon fill="#9a32cd" stroke="#9a32cd" points="246.98,-308.03 236.82,-311.04 246.64,-315.02 246.98,-308.03"/>
</a>
</g>
<text text-anchor="middle" x="502.25" y="-299.39" font-family="Helvetica,sans-Serif" font-size="10.00" fill="grey"> OscChannels</text>
</g>
<!-- Node3&#45;&gt;Node2 -->
<g id="edge2_Node000002_Node000003" class="edge">
<title>Node3&#45;&gt;Node2</title>
<g id="a_edge2_Node000002_Node000003"><a xlink:title=" ">
<path fill="none" stroke="#9a32cd" stroke-dasharray="5,2" d="M246.61,-296.21C254.7,-294.56 262.94,-292.91 270.75,-291.39 330.95,-279.68 352.2,-295.15 406.5,-266.64 446.72,-245.52 480.64,-201.46 494.52,-181.65"/>
<polygon fill="#9a32cd" stroke="#9a32cd" points="245.92,-292.78 236.83,-298.21 247.33,-299.63 245.92,-292.78"/>
</a>
</g>
<text text-anchor="middle" x="338.62" y="-292.39" font-family="Helvetica,sans-Serif" font-size="10.00" fill="grey"> fNeutrinoTypes</text>
</g>
<!-- Node4 -->
<g id="Node000004" class="node">
<title>Node4</title>
<g id="a_Node000004"><a xlink:title=" ">
<polygon fill="white" stroke="#666666" points="252.75,-271.89 129.5,-271.89 129.5,-241.39 252.75,-241.39 252.75,-271.89"/>
<text text-anchor="start" x="137.5" y="-258.39" font-family="Helvetica,sans-Serif" font-size="10.00">std::vector&lt; NuOscillator</text>
<text text-anchor="middle" x="191.12" y="-247.14" font-family="Helvetica,sans-Serif" font-size="10.00">::OscillationChannel &gt;</text>
</a>
</g>
</g>
<!-- Node4&#45;&gt;Node2 -->
<g id="edge3_Node000002_Node000004" class="edge">
<title>Node4&#45;&gt;Node2</title>
<g id="a_edge3_Node000002_Node000004"><a xlink:title=" ">
<path fill="none" stroke="#9a32cd" stroke-dasharray="5,2" d="M264.33,-252.94C316.12,-249.59 381.07,-243.76 406.5,-234.64 440.15,-222.56 473.58,-196.07 490.28,-181.58"/>
<polygon fill="#9a32cd" stroke="#9a32cd" points="264.43,-249.43 254.67,-253.55 264.87,-256.42 264.43,-249.43"/>
</a>
</g>
<text text-anchor="middle" x="338.62" y="-253.39" font-family="Helvetica,sans-Serif" font-size="10.00" fill="grey"> fOscillationChannels</text>
</g>
<!-- Node5 -->
<g id="Node000005" class="node">
<title>Node5</title>
<g id="a_Node000005"><a xlink:title=" ">
<polygon fill="white" stroke="#666666" points="251.62,-204.26 130.62,-204.26 130.62,-185.01 251.62,-185.01 251.62,-204.26"/>
<text text-anchor="middle" x="191.12" y="-190.76" font-family="Helvetica,sans-Serif" font-size="10.00">std::vector&lt; FLOAT_T &gt;</text>
</a>
</g>
</g>
<!-- Node5&#45;&gt;Node2 -->
<g id="edge4_Node000002_Node000005" class="edge">
<title>Node5&#45;&gt;Node2</title>
<g id="a_edge4_Node000002_Node000005"><a xlink:title=" ">
<path fill="none" stroke="#9a32cd" stroke-dasharray="5,2" d="M263.53,-189.33C320.43,-185.09 398.72,-179.27 449.66,-175.48"/>
<polygon fill="#9a32cd" stroke="#9a32cd" points="263.32,-185.83 253.6,-190.07 263.84,-192.81 263.32,-185.83"/>
</a>
</g>
<text text-anchor="middle" x="338.62" y="-223.14" font-family="Helvetica,sans-Serif" font-size="10.00" fill="grey"> fCosineZArray</text>
<text text-anchor="middle" x="338.62" y="-211.89" font-family="Helvetica,sans-Serif" font-size="10.00" fill="grey">fEnergyArray</text>
<text text-anchor="middle" x="338.62" y="-200.64" font-family="Helvetica,sans-Serif" font-size="10.00" fill="grey">fOscParamsCurr</text>
<text text-anchor="middle" x="338.62" y="-189.39" font-family="Helvetica,sans-Serif" font-size="10.00" fill="grey">fWeightArray</text>
</g>
<!-- Node6 -->
<g id="Node000006" class="node">
<title>Node6</title>
<g id="a_Node000006"><a xlink:title=" ">
<polygon fill="white" stroke="#666666" points="220.12,-167.26 162.12,-167.26 162.12,-148.01 220.12,-148.01 220.12,-167.26"/>
<text text-anchor="middle" x="191.12" y="-153.76" font-family="Helvetica,sans-Serif" font-size="10.00">std::string</text>
</a>
</g>
</g>
<!-- Node6&#45;&gt;Node2 -->
<g id="edge5_Node000002_Node000006" class="edge">
<title>Node6&#45;&gt;Node2</title>
<g id="a_edge5_Node000002_Node000006"><a xlink:title=" ">
<path fill="none" stroke="#9a32cd" stroke-dasharray="5,2" d="M231.94,-156.28C244.37,-155.91 258.13,-155.57 270.75,-155.39 331.08,-154.53 346.38,-150.27 406.5,-155.39 421.3,-156.65 437.26,-159 451.79,-161.53"/>
<polygon fill="#9a32cd" stroke="#9a32cd" points="231.91,-152.78 222.02,-156.59 232.12,-159.78 231.91,-152.78"/>
</a>
</g>
<text text-anchor="middle" x="338.62" y="-156.39" font-family="Helvetica,sans-Serif" font-size="10.00" fill="grey"> fImplementationName</text>
</g>
<!-- Node7 -->
<g id="Node000007" class="node">
<title>Node7</title>
<g id="a_Node000007"><a xlink:title=" ">
<polygon fill="white" stroke="#666666" points="92.5,-172.89 0,-172.89 0,-142.39 92.5,-142.39 92.5,-172.89"/>
<text text-anchor="start" x="8" y="-159.39" font-family="Helvetica,sans-Serif" font-size="10.00">std::basic_string&lt;</text>
<text text-anchor="middle" x="46.25" y="-148.14" font-family="Helvetica,sans-Serif" font-size="10.00"> Char &gt;</text>
</a>
</g>
</g>
<!-- Node7&#45;&gt;Node6 -->
<g id="edge6_Node000006_Node000007" class="edge">
<title>Node7&#45;&gt;Node6</title>
<g id="a_edge6_Node000006_Node000007"><a xlink:title=" ">
<path fill="none" stroke="#63b8ff" d="M104.3,-157.64C124.13,-157.64 145.51,-157.64 161.97,-157.64"/>
<polygon fill="#63b8ff" stroke="#63b8ff" points="104.36,-154.14 94.36,-157.64 104.36,-161.14 104.36,-154.14"/>
</a>
</g>
</g>
<!-- Node8 -->
<g id="Node000008" class="node">
<title>Node8</title>
<g id="a_Node000008"><a xlink:title=" ">
<polygon fill="white" stroke="#666666" points="241.88,-129.89 140.38,-129.89 140.38,-99.39 241.88,-99.39 241.88,-129.89"/>
<text text-anchor="start" x="148.38" y="-116.39" font-family="Helvetica,sans-Serif" font-size="10.00">std::vector&lt; FLOAT</text>
<text text-anchor="middle" x="191.12" y="-105.14" font-family="Helvetica,sans-Serif" font-size="10.00">_T * &gt;</text>
</a>
</g>
</g>
<!-- Node8&#45;&gt;Node2 -->
<g id="edge7_Node000002_Node000008" class="edge">
<title>Node8&#45;&gt;Node2</title>
<g id="a_edge7_Node000002_Node000008"><a xlink:title=" ">
<path fill="none" stroke="#9a32cd" stroke-dasharray="5,2" d="M253.75,-111.72C297.96,-111.84 358.01,-116.64 406.5,-137.39 416.14,-141.51 415.17,-147.87 424.5,-152.64 432.32,-156.64 441.03,-159.83 449.69,-162.36"/>
<polygon fill="#9a32cd" stroke="#9a32cd" points="253.79,-108.22 243.82,-111.78 253.84,-115.22 253.79,-108.22"/>
</a>
</g>
<text text-anchor="middle" x="338.62" y="-138.39" font-family="Helvetica,sans-Serif" font-size="10.00" fill="grey"> fOscParams</text>
</g>
<!-- Node9 -->
<g id="Node000009" class="node">
<title>Node9</title>
<g id="a_Node000009"><a xlink:title=" ">
<polygon fill="white" stroke="#666666" points="250.88,-81.26 131.38,-81.26 131.38,-62.01 250.88,-62.01 250.88,-81.26"/>
<text text-anchor="middle" x="191.12" y="-67.76" font-family="Helvetica,sans-Serif" font-size="10.00">std::vector&lt; std::string &gt;</text>
</a>
</g>
</g>
<!-- Node9&#45;&gt;Node2 -->
<g id="edge8_Node000002_Node000009" class="edge">
<title>Node9&#45;&gt;Node2</title>
<g id="a_edge8_Node000002_Node000009"><a xlink:title=" ">
<path fill="none" stroke="#9a32cd" stroke-dasharray="5,2" d="M244.41,-59.6C292.04,-51.91 361.6,-49.31 406.5,-86.14 430.17,-105.56 402.62,-131.22 424.5,-152.64 431.47,-159.46 440.47,-163.95 449.85,-166.89"/>
<polygon fill="#9a32cd" stroke="#9a32cd" points="243.84,-56.15 234.6,-61.33 245.05,-63.05 243.84,-56.15"/>
</a>
</g>
<text text-anchor="start" x="270.75" y="-99.64" font-family="Helvetica,sans-Serif" font-size="10.00" fill="grey"> fExpectedOscillationParameter</text>
<text text-anchor="middle" x="338.62" y="-88.39" font-family="Helvetica,sans-Serif" font-size="10.00" fill="grey">Names</text>
</g>
<!-- Node10 -->
<g id="Node000010" class="node">
<title>Node10</title>
<g id="a_Node000010"><a xlink:title=" ">
<polygon fill="white" stroke="#666666" points="238.88,-35.26 143.38,-35.26 143.38,-16.01 238.88,-16.01 238.88,-35.26"/>
<text text-anchor="middle" x="191.12" y="-21.76" font-family="Helvetica,sans-Serif" font-size="10.00">std::vector&lt; bool &gt;</text>
</a>
</g>
</g>
<!-- Node10&#45;&gt;Node2 -->
<g id="edge9_Node000002_Node000010" class="edge">
<title>Node10&#45;&gt;Node2</title>
<g id="a_edge9_Node000002_Node000010"><a xlink:title=" ">
<path fill="none" stroke="#9a32cd" stroke-dasharray="5,2" d="M232.07,-12.49C279.72,0.43 358.88,12.73 406.5,-29.14 448.16,-65.77 387.24,-111.54 424.5,-152.64 431.14,-159.96 440.11,-164.67 449.59,-167.65"/>
<polygon fill="#9a32cd" stroke="#9a32cd" points="231.36,-9.05 222.71,-15.17 233.28,-15.79 231.36,-9.05"/>
</a>
</g>
<text text-anchor="start" x="280.5" y="-42.64" font-family="Helvetica,sans-Serif" font-size="10.00" fill="grey"> fOscillationParametersSet</text>
<text text-anchor="middle" x="338.62" y="-31.39" font-family="Helvetica,sans-Serif" font-size="10.00" fill="grey">Check</text>
</g>
<!-- Node11 -->
<g id="Node000011" class="node">
<title>Node11</title>
<g id="a_Node000011"><a xlink:title=" ">
<polygon fill="white" stroke="#666666" points="580,-143.89 424.5,-143.89 424.5,-113.39 580,-113.39 580,-143.89"/>
<text text-anchor="start" x="432.5" y="-130.39" font-family="Helvetica,sans-Serif" font-size="10.00">std::unique_ptr&lt; cudaprob3linear</text>
<text text-anchor="middle" x="502.25" y="-119.14" font-family="Helvetica,sans-Serif" font-size="10.00">::Propagator&lt; FLOAT_T &gt; &gt;</text>
</a>
</g>
</g>
<!-- Node11&#45;&gt;Node1 -->
<g id="edge11_Node000001_Node000011" class="edge">
<title>Node11&#45;&gt;Node1</title>
<g id="a_edge11_Node000001_Node000011"><a xlink:title=" ">
<path fill="none" stroke="#9a32cd" stroke-dasharray="5,2" d="M591.64,-144.42C623.69,-150.14 659.01,-156.45 687.58,-161.55"/>
<polygon fill="#9a32cd" stroke="#9a32cd" points="592.41,-141 581.95,-142.69 591.18,-147.89 592.41,-141"/>
</a>
</g>
<text text-anchor="middle" x="622" y="-155.39" font-family="Helvetica,sans-Serif" font-size="10.00" fill="grey"> propagator</text>
</g>
</g>
</svg>
