<?xml version="1.0" encoding="UTF-8" standalone="no"?>
<!DOCTYPE svg PUBLIC "-//W3C//DTD SVG 1.1//EN"
 "http://www.w3.org/Graphics/SVG/1.1/DTD/svg11.dtd">
<!-- Generated by graphviz version 9.0.0 (20230911.1827)
 -->
<!-- Title: OscProbCalcerNuSQUIDSLinear Pages: 1 -->
<svg width="734pt" height="329pt"
 viewBox="0.00 0.00 734.00 328.75" xmlns="http://www.w3.org/2000/svg" xmlns:xlink="http://www.w3.org/1999/xlink">
<g id="graph0" class="graph" transform="scale(1 1) rotate(0) translate(4 324.75)">
<title>OscProbCalcerNuSQUIDSLinear</title>
<!-- Node1 -->
<g id="Node000001" class="node">
<title>Node1</title>
<g id="a_Node000001"><a xlink:title="Oscillation calculation engine for linear propagation in NuSQUIDS.">
<polygon fill="#999999" stroke="#666666" points="726,-21.88 566,-21.88 566,-2.62 726,-2.62 726,-21.88"/>
<text text-anchor="middle" x="646" y="-8.38" font-family="Helvetica,sans-Serif" font-size="10.00">OscProbCalcerNuSQUIDSLinear</text>
</a>
</g>
</g>
<!-- Node2 -->
<g id="Node000002" class="node">
<title>Node2</title>
<g id="a_Node000002"><a xlink:href="classOscProbCalcerBase.html" target="_top" xlink:title="Oscillation calculation engine (CUDAProb3, ProbGPU, Prob3++, etc.) implementation agnostic base class...">
<polygon fill="white" stroke="#666666" points="529,-139.88 424.5,-139.88 424.5,-120.62 529,-120.62 529,-139.88"/>
<text text-anchor="middle" x="476.75" y="-126.38" font-family="Helvetica,sans-Serif" font-size="10.00">OscProbCalcerBase</text>
</a>
</g>
</g>
<!-- Node2&#45;&gt;Node1 -->
<g id="edge1_Node000001_Node000002" class="edge">
<title>Node2&#45;&gt;Node1</title>
<g id="a_edge1_Node000001_Node000002"><a xlink:title=" ">
<path fill="none" stroke="#63b8ff" d="M501.08,-113.79C536.28,-88.96 601.92,-42.64 630.78,-22.29"/>
<polygon fill="#63b8ff" stroke="#63b8ff" points="499.4,-110.69 493.25,-119.32 503.44,-116.41 499.4,-110.69"/>
</a>
</g>
</g>
<!-- Node3 -->
<g id="Node000003" class="node">
<title>Node3</title>
<g id="a_Node000003"><a xlink:title=" ">
<polygon fill="white" stroke="#666666" points="235.12,-262.88 147.12,-262.88 147.12,-243.62 235.12,-243.62 235.12,-262.88"/>
<text text-anchor="middle" x="191.12" y="-249.38" font-family="Helvetica,sans-Serif" font-size="10.00">std::vector&lt; int &gt;</text>
</a>
</g>
</g>
<!-- Node3&#45;&gt;Node2 -->
<g id="edge2_Node000002_Node000003" class="edge">
<title>Node3&#45;&gt;Node2</title>
<g id="a_edge2_Node000002_Node000003"><a xlink:title=" ">
<path fill="none" stroke="#9a32cd" stroke-dasharray="5,2" d="M246.62,-252.5C301.08,-250.86 380.36,-245.78 406.5,-230.25 442.27,-209 463.99,-161.24 472.11,-140.35"/>
<polygon fill="#9a32cd" stroke="#9a32cd" points="246.82,-248.99 236.91,-252.76 247,-255.99 246.82,-248.99"/>
</a>
</g>
<text text-anchor="middle" x="338.62" y="-253" font-family="Helvetica,sans-Serif" font-size="10.00" fill="grey"> fNeutrinoTypes</text>
</g>
<!-- Node4 -->
<g id="Node000004" class="node">
<title>Node4</title>
<g id="a_Node000004"><a xlink:title=" ">
<polygon fill="white" stroke="#666666" points="252.75,-225.5 129.5,-225.5 129.5,-195 252.75,-195 252.75,-225.5"/>
<text text-anchor="start" x="137.5" y="-212" font-family="Helvetica,sans-Serif" font-size="10.00">std::vector&lt; NuOscillator</text>
<text text-anchor="middle" x="191.12" y="-200.75" font-family="Helvetica,sans-Serif" font-size="10.00">::OscillationChannel &gt;</text>
</a>
</g>
</g>
<!-- Node4&#45;&gt;Node2 -->
<g id="edge3_Node000002_Node000004" class="edge">
<title>Node4&#45;&gt;Node2</title>
<g id="a_edge3_Node000002_Node000004"><a xlink:title=" ">
<path fill="none" stroke="#9a32cd" stroke-dasharray="5,2" d="M264.36,-215.96C307.31,-216.62 361.94,-212.55 406.5,-193.25 433.65,-181.5 457.19,-154.61 468.54,-140.05"/>
<polygon fill="#9a32cd" stroke="#9a32cd" points="264.45,-212.47 254.37,-215.71 264.28,-219.46 264.45,-212.47"/>
</a>
</g>
<text text-anchor="middle" x="338.62" y="-217" font-family="Helvetica,sans-Serif" font-size="10.00" fill="grey"> fOscillationChannels</text>
</g>
<!-- Node5 -->
<g id="Node000005" class="node">
<title>Node5</title>
<g id="a_Node000005"><a xlink:title=" ">
<polygon fill="white" stroke="#666666" points="251.62,-164.88 130.62,-164.88 130.62,-145.62 251.62,-145.62 251.62,-164.88"/>
<text text-anchor="middle" x="191.12" y="-151.38" font-family="Helvetica,sans-Serif" font-size="10.00">std::vector&lt; FLOAT_T &gt;</text>
</a>
</g>
</g>
<!-- Node5&#45;&gt;Node2 -->
<g id="edge4_Node000002_Node000005" class="edge">
<title>Node5&#45;&gt;Node2</title>
<g id="a_edge4_Node000002_Node000005"><a xlink:title=" ">
<path fill="none" stroke="#9a32cd" stroke-dasharray="5,2" d="M263.15,-148.92C265.71,-148.7 268.25,-148.47 270.75,-148.25 323.06,-143.62 382.89,-138.38 424.36,-134.75"/>
<polygon fill="#9a32cd" stroke="#9a32cd" points="262.96,-145.43 253.3,-149.8 263.57,-152.4 262.96,-145.43"/>
</a>
</g>
<text text-anchor="middle" x="338.62" y="-183.75" font-family="Helvetica,sans-Serif" font-size="10.00" fill="grey"> fCosineZArray</text>
<text text-anchor="middle" x="338.62" y="-172.5" font-family="Helvetica,sans-Serif" font-size="10.00" fill="grey">fEnergyArray</text>
<text text-anchor="middle" x="338.62" y="-161.25" font-family="Helvetica,sans-Serif" font-size="10.00" fill="grey">fOscParamsCurr</text>
<text text-anchor="middle" x="338.62" y="-150" font-family="Helvetica,sans-Serif" font-size="10.00" fill="grey">fWeightArray</text>
</g>
<!-- Node6 -->
<g id="Node000006" class="node">
<title>Node6</title>
<g id="a_Node000006"><a xlink:title=" ">
<polygon fill="white" stroke="#666666" points="220.12,-24.88 162.12,-24.88 162.12,-5.62 220.12,-5.62 220.12,-24.88"/>
<text text-anchor="middle" x="191.12" y="-11.38" font-family="Helvetica,sans-Serif" font-size="10.00">std::string</text>
</a>
</g>
</g>
<!-- Node6&#45;&gt;Node1 -->
<g id="edge10_Node000001_Node000006" class="edge">
<title>Node6&#45;&gt;Node1</title>
<g id="a_edge10_Node000001_Node000006"><a xlink:title=" ">
<path fill="none" stroke="#9a32cd" stroke-dasharray="5,2" d="M231.94,-14.69C244.37,-14.53 258.13,-14.36 270.75,-14.25 372.59,-13.33 490.03,-12.79 565.78,-12.5"/>
<polygon fill="#9a32cd" stroke="#9a32cd" points="231.98,-11.19 222.02,-14.82 232.07,-18.19 231.98,-11.19"/>
</a>
</g>
<text text-anchor="middle" x="476.75" y="-15" font-family="Helvetica,sans-Serif" font-size="10.00" fill="grey"> decoherence_model</text>
</g>
<!-- Node6&#45;&gt;Node2 -->
<g id="edge5_Node000002_Node000006" class="edge">
<title>Node6&#45;&gt;Node2</title>
<g id="a_edge5_Node000002_Node000006"><a xlink:title=" ">
<path fill="none" stroke="#9a32cd" stroke-dasharray="5,2" d="M231.9,-13.22C277.08,-12.67 351.64,-17.22 406.5,-48 437.43,-65.35 460.59,-102.26 470.48,-120.13"/>
<polygon fill="#9a32cd" stroke="#9a32cd" points="231.96,-9.72 222.04,-13.44 232.12,-16.71 231.96,-9.72"/>
</a>
</g>
<text text-anchor="middle" x="338.62" y="-50" font-family="Helvetica,sans-Serif" font-size="10.00" fill="grey"> fImplementationName</text>
</g>
<!-- Node7 -->
<g id="Node000007" class="node">
<title>Node7</title>
<g id="a_Node000007"><a xlink:title=" ">
<polygon fill="white" stroke="#666666" points="92.5,-30.5 0,-30.5 0,0 92.5,0 92.5,-30.5"/>
<text text-anchor="start" x="8" y="-17" font-family="Helvetica,sans-Serif" font-size="10.00">std::basic_string&lt;</text>
<text text-anchor="middle" x="46.25" y="-5.75" font-family="Helvetica,sans-Serif" font-size="10.00"> Char &gt;</text>
</a>
</g>
</g>
<!-- Node7&#45;&gt;Node6 -->
<g id="edge6_Node000006_Node000007" class="edge">
<title>Node7&#45;&gt;Node6</title>
<g id="a_edge6_Node000006_Node000007"><a xlink:title=" ">
<path fill="none" stroke="#63b8ff" d="M104.3,-15.25C124.13,-15.25 145.51,-15.25 161.97,-15.25"/>
<polygon fill="#63b8ff" stroke="#63b8ff" points="104.36,-11.75 94.36,-15.25 104.36,-18.75 104.36,-11.75"/>
</a>
</g>
</g>
<!-- Node8 -->
<g id="Node000008" class="node">
<title>Node8</title>
<g id="a_Node000008"><a xlink:title=" ">
<polygon fill="white" stroke="#666666" points="241.88,-127.5 140.38,-127.5 140.38,-97 241.88,-97 241.88,-127.5"/>
<text text-anchor="start" x="148.38" y="-114" font-family="Helvetica,sans-Serif" font-size="10.00">std::vector&lt; FLOAT</text>
<text text-anchor="middle" x="191.12" y="-102.75" font-family="Helvetica,sans-Serif" font-size="10.00">_T * &gt;</text>
</a>
</g>
</g>
<!-- Node8&#45;&gt;Node2 -->
<g id="edge7_Node000002_Node000008" class="edge">
<title>Node8&#45;&gt;Node2</title>
<g id="a_edge7_Node000002_Node000008"><a xlink:title=" ">
<path fill="none" stroke="#9a32cd" stroke-dasharray="5,2" d="M253.55,-109.15C296.54,-107.85 355.22,-107.85 406.5,-114 417.41,-115.31 429.11,-117.67 439.72,-120.2"/>
<polygon fill="#9a32cd" stroke="#9a32cd" points="253.53,-105.65 243.65,-109.48 253.76,-112.64 253.53,-105.65"/>
</a>
</g>
<text text-anchor="middle" x="338.62" y="-115" font-family="Helvetica,sans-Serif" font-size="10.00" fill="grey"> fOscParams</text>
</g>
<!-- Node9 -->
<g id="Node000009" class="node">
<title>Node9</title>
<g id="a_Node000009"><a xlink:title=" ">
<polygon fill="white" stroke="#666666" points="250.88,-76.88 131.38,-76.88 131.38,-57.62 250.88,-57.62 250.88,-76.88"/>
<text text-anchor="middle" x="191.12" y="-63.38" font-family="Helvetica,sans-Serif" font-size="10.00">std::vector&lt; std::string &gt;</text>
</a>
</g>
</g>
<!-- Node9&#45;&gt;Node2 -->
<g id="edge8_Node000002_Node000009" class="edge">
<title>Node9&#45;&gt;Node2</title>
<g id="a_edge8_Node000002_Node000009"><a xlink:title=" ">
<path fill="none" stroke="#9a32cd" stroke-dasharray="5,2" d="M262.59,-62.61C305.37,-62.07 360.42,-65.49 406.5,-81.75 430.03,-90.05 452.85,-108.72 465.52,-120.32"/>
<polygon fill="#9a32cd" stroke="#9a32cd" points="262.59,-59.11 252.67,-62.82 262.74,-66.11 262.59,-59.11"/>
</a>
</g>
<text text-anchor="start" x="270.75" y="-95.25" font-family="Helvetica,sans-Serif" font-size="10.00" fill="grey"> fExpectedOscillationParameter</text>
<text text-anchor="middle" x="338.62" y="-84" font-family="Helvetica,sans-Serif" font-size="10.00" fill="grey">Names</text>
</g>
<!-- Node10 -->
<g id="Node000010" class="node">
<title>Node10</title>
<g id="a_Node000010"><a xlink:title=" ">
<polygon fill="white" stroke="#666666" points="238.88,-299.88 143.38,-299.88 143.38,-280.62 238.88,-280.62 238.88,-299.88"/>
<text text-anchor="middle" x="191.12" y="-286.38" font-family="Helvetica,sans-Serif" font-size="10.00">std::vector&lt; bool &gt;</text>
</a>
</g>
</g>
<!-- Node10&#45;&gt;Node2 -->
<g id="edge9_Node000002_Node000010" class="edge">
<title>Node10&#45;&gt;Node2</title>
<g id="a_edge9_Node000002_Node000010"><a xlink:title=" ">
<path fill="none" stroke="#9a32cd" stroke-dasharray="5,2" d="M250.53,-297.92C296.84,-300.87 361.09,-297.7 406.5,-266.25 451.37,-235.18 468.87,-166.05 473.99,-140.23"/>
<polygon fill="#9a32cd" stroke="#9a32cd" points="250.92,-294.44 240.68,-297.16 250.38,-301.42 250.92,-294.44"/>
</a>
</g>
<text text-anchor="start" x="280.5" y="-311.25" font-family="Helvetica,sans-Serif" font-size="10.00" fill="grey"> fOscillationParametersSet</text>
<text text-anchor="middle" x="338.62" y="-300" font-family="Helvetica,sans-Serif" font-size="10.00" fill="grey">Check</text>
</g>
</g>
</svg>
