<?xml version="1.0" encoding="UTF-8" standalone="no"?>
<!DOCTYPE svg PUBLIC "-//W3C//DTD SVG 1.1//EN"
 "http://www.w3.org/Graphics/SVG/1.1/DTD/svg11.dtd">
<!-- Generated by graphviz version 12.2.0 (20241103.1931)
 -->
<!-- Title: OscProbCalcerCHICLinear Pages: 1 -->
<svg width="768pt" height="321pt"
 viewBox="0.00 0.00 768.25 321.29" xmlns="http://www.w3.org/2000/svg" xmlns:xlink="http://www.w3.org/1999/xlink">
<g id="graph0" class="graph" transform="scale(1 1) rotate(0) translate(4 317.29)">
<title>OscProbCalcerCHICLinear</title>
<!-- Node1 -->
<g id="Node000001" class="node">
<title>Node1</title>
<g id="a_Node000001"><a xlink:title="Oscillation calculation engine for linear propagation in CHIC.">
<polygon fill="#999999" stroke="#666666" points="760.25,-140.6 627.25,-140.6 627.25,-121.35 760.25,-121.35 760.25,-140.6"/>
<text text-anchor="middle" x="693.75" y="-127.1" font-family="Helvetica,sans-Serif" font-size="10.00">OscProbCalcerCHICLinear</text>
</a>
</g>
</g>
<!-- Node2 -->
<g id="Node000002" class="node">
<title>Node2</title>
<g id="a_Node000002"><a xlink:href="classOscProbCalcerBase.html" target="_top" xlink:title="Oscillation calculation engine (CUDAProb3, ProbGPU, Prob3++, etc.) implementation agnostic base class...">
<polygon fill="white" stroke="#666666" points="536.5,-159.6 432,-159.6 432,-140.35 536.5,-140.35 536.5,-159.6"/>
<text text-anchor="middle" x="484.25" y="-146.1" font-family="Helvetica,sans-Serif" font-size="10.00">OscProbCalcerBase</text>
</a>
</g>
</g>
<!-- Node2&#45;&gt;Node1 -->
<g id="edge1_Node000001_Node000002" class="edge">
<title>Node2&#45;&gt;Node1</title>
<g id="a_edge1_Node000001_Node000002"><a xlink:title=" ">
<path fill="none" stroke="#63b8ff" d="M547.98,-144.23C572.94,-141.95 601.66,-139.32 626.91,-137"/>
<polygon fill="#63b8ff" stroke="#63b8ff" points="547.96,-140.72 538.32,-145.12 548.59,-147.69 547.96,-140.72"/>
</a>
</g>
</g>
<!-- Node3 -->
<g id="Node000003" class="node">
<title>Node3</title>
<g id="a_Node000003"><a xlink:title=" ">
<polygon fill="white" stroke="#666666" points="235.12,-304.6 147.12,-304.6 147.12,-285.35 235.12,-285.35 235.12,-304.6"/>
<text text-anchor="middle" x="191.12" y="-291.1" font-family="Helvetica,sans-Serif" font-size="10.00">std::vector&lt; int &gt;</text>
</a>
</g>
</g>
<!-- Node3&#45;&gt;Node2 -->
<g id="edge2_Node000002_Node000003" class="edge">
<title>Node3&#45;&gt;Node2</title>
<g id="a_edge2_Node000002_Node000003"><a xlink:title=" ">
<path fill="none" stroke="#9a32cd" stroke-dasharray="5,2" d="M246.78,-301.31C292.81,-303.9 358.63,-300.89 406.5,-270.98 449.33,-244.22 472.49,-183.81 480.25,-159.95"/>
<polygon fill="#9a32cd" stroke="#9a32cd" points="247.25,-297.84 237.04,-300.65 246.78,-304.82 247.25,-297.84"/>
</a>
</g>
<text text-anchor="middle" x="338.62" y="-303.79" font-family="Helvetica,sans-Serif" font-size="10.00" fill="grey"> fNeutrinoTypes</text>
</g>
<!-- Node4 -->
<g id="Node000004" class="node">
<title>Node4</title>
<g id="a_Node000004"><a xlink:title=" ">
<polygon fill="white" stroke="#666666" points="252.75,-267.23 129.5,-267.23 129.5,-236.73 252.75,-236.73 252.75,-267.23"/>
<text text-anchor="start" x="137.5" y="-253.73" font-family="Helvetica,sans-Serif" font-size="10.00">std::vector&lt; NuOscillator</text>
<text text-anchor="middle" x="191.12" y="-242.48" font-family="Helvetica,sans-Serif" font-size="10.00">::OscillationChannel &gt;</text>
</a>
</g>
</g>
<!-- Node4&#45;&gt;Node2 -->
<g id="edge3_Node000002_Node000004" class="edge">
<title>Node4&#45;&gt;Node2</title>
<g id="a_edge3_Node000002_Node000004"><a xlink:title=" ">
<path fill="none" stroke="#9a32cd" stroke-dasharray="5,2" d="M264.2,-256.24C307.48,-255.96 362.48,-250.42 406.5,-228.98 439.16,-213.06 465.62,-177.25 477.09,-159.85"/>
<polygon fill="#9a32cd" stroke="#9a32cd" points="264.43,-252.74 254.41,-256.2 264.4,-259.74 264.43,-252.74"/>
</a>
</g>
<text text-anchor="middle" x="338.62" y="-257.88" font-family="Helvetica,sans-Serif" font-size="10.00" fill="grey"> fOscillationChannels</text>
</g>
<!-- Node5 -->
<g id="Node000005" class="node">
<title>Node5</title>
<g id="a_Node000005"><a xlink:title=" ">
<polygon fill="white" stroke="#666666" points="251.62,-199.6 130.62,-199.6 130.62,-180.35 251.62,-180.35 251.62,-199.6"/>
<text text-anchor="middle" x="191.12" y="-186.1" font-family="Helvetica,sans-Serif" font-size="10.00">std::vector&lt; FLOAT_T &gt;</text>
</a>
</g>
</g>
<!-- Node5&#45;&gt;Node2 -->
<g id="edge4_Node000002_Node000005" class="edge">
<title>Node5&#45;&gt;Node2</title>
<g id="a_edge4_Node000002_Node000005"><a xlink:title=" ">
<path fill="none" stroke="#9a32cd" stroke-dasharray="5,2" d="M262.96,-181.18C304.76,-175.88 358.68,-168.84 406.5,-161.98 414.64,-160.81 423.26,-159.52 431.67,-158.22"/>
<polygon fill="#9a32cd" stroke="#9a32cd" points="262.77,-177.68 253.29,-182.4 263.65,-184.62 262.77,-177.68"/>
</a>
</g>
<text text-anchor="middle" x="338.62" y="-215.29" font-family="Helvetica,sans-Serif" font-size="10.00" fill="grey"> fCosineZArray</text>
<text text-anchor="middle" x="338.62" y="-204.04" font-family="Helvetica,sans-Serif" font-size="10.00" fill="grey">fEnergyArray</text>
<text text-anchor="middle" x="338.62" y="-192.79" font-family="Helvetica,sans-Serif" font-size="10.00" fill="grey">fOscParamsCurr</text>
<text text-anchor="middle" x="338.62" y="-181.54" font-family="Helvetica,sans-Serif" font-size="10.00" fill="grey">fWeightArray</text>
</g>
<!-- Node6 -->
<g id="Node000006" class="node">
<title>Node6</title>
<g id="a_Node000006"><a xlink:title=" ">
<polygon fill="white" stroke="#666666" points="220.12,-162.6 162.12,-162.6 162.12,-143.35 220.12,-143.35 220.12,-162.6"/>
<text text-anchor="middle" x="191.12" y="-149.1" font-family="Helvetica,sans-Serif" font-size="10.00">std::string</text>
</a>
</g>
</g>
<!-- Node6&#45;&gt;Node2 -->
<g id="edge5_Node000002_Node000006" class="edge">
<title>Node6&#45;&gt;Node2</title>
<g id="a_edge5_Node000002_Node000006"><a xlink:title=" ">
<path fill="none" stroke="#9a32cd" stroke-dasharray="5,2" d="M231.94,-151.64C244.37,-151.28 258.13,-150.93 270.75,-150.73 325.71,-149.84 388.68,-149.73 431.72,-149.8"/>
<polygon fill="#9a32cd" stroke="#9a32cd" points="231.91,-148.14 222.02,-151.95 232.12,-155.14 231.91,-148.14"/>
</a>
</g>
<text text-anchor="middle" x="338.62" y="-152.48" font-family="Helvetica,sans-Serif" font-size="10.00" fill="grey"> fImplementationName</text>
</g>
<!-- Node7 -->
<g id="Node000007" class="node">
<title>Node7</title>
<g id="a_Node000007"><a xlink:title=" ">
<polygon fill="white" stroke="#666666" points="92.5,-168.23 0,-168.23 0,-137.73 92.5,-137.73 92.5,-168.23"/>
<text text-anchor="start" x="8" y="-154.73" font-family="Helvetica,sans-Serif" font-size="10.00">std::basic_string&lt;</text>
<text text-anchor="middle" x="46.25" y="-143.48" font-family="Helvetica,sans-Serif" font-size="10.00"> Char &gt;</text>
</a>
</g>
</g>
<!-- Node7&#45;&gt;Node6 -->
<g id="edge6_Node000006_Node000007" class="edge">
<title>Node7&#45;&gt;Node6</title>
<g id="a_edge6_Node000006_Node000007"><a xlink:title=" ">
<path fill="none" stroke="#63b8ff" d="M104.3,-152.98C124.13,-152.98 145.51,-152.98 161.97,-152.98"/>
<polygon fill="#63b8ff" stroke="#63b8ff" points="104.36,-149.48 94.36,-152.98 104.36,-156.48 104.36,-149.48"/>
</a>
</g>
</g>
<!-- Node8 -->
<g id="Node000008" class="node">
<title>Node8</title>
<g id="a_Node000008"><a xlink:title=" ">
<polygon fill="white" stroke="#666666" points="241.88,-125.23 140.38,-125.23 140.38,-94.73 241.88,-94.73 241.88,-125.23"/>
<text text-anchor="start" x="148.38" y="-111.73" font-family="Helvetica,sans-Serif" font-size="10.00">std::vector&lt; FLOAT</text>
<text text-anchor="middle" x="191.12" y="-100.48" font-family="Helvetica,sans-Serif" font-size="10.00">_T * &gt;</text>
</a>
</g>
</g>
<!-- Node8&#45;&gt;Node2 -->
<g id="edge7_Node000002_Node000008" class="edge">
<title>Node8&#45;&gt;Node2</title>
<g id="a_edge7_Node000002_Node000008"><a xlink:title=" ">
<path fill="none" stroke="#9a32cd" stroke-dasharray="5,2" d="M253.5,-115.73C296.46,-120.08 355.13,-126.67 406.5,-134.73 415.89,-136.2 425.89,-138.01 435.46,-139.86"/>
<polygon fill="#9a32cd" stroke="#9a32cd" points="253.9,-112.25 243.6,-114.74 253.2,-119.21 253.9,-112.25"/>
</a>
</g>
<text text-anchor="middle" x="338.62" y="-136.48" font-family="Helvetica,sans-Serif" font-size="10.00" fill="grey"> fOscParams</text>
</g>
<!-- Node9 -->
<g id="Node000009" class="node">
<title>Node9</title>
<g id="a_Node000009"><a xlink:title=" ">
<polygon fill="white" stroke="#666666" points="250.88,-76.6 131.38,-76.6 131.38,-57.35 250.88,-57.35 250.88,-76.6"/>
<text text-anchor="middle" x="191.12" y="-63.1" font-family="Helvetica,sans-Serif" font-size="10.00">std::vector&lt; std::string &gt;</text>
</a>
</g>
</g>
<!-- Node9&#45;&gt;Node2 -->
<g id="edge8_Node000002_Node000009" class="edge">
<title>Node9&#45;&gt;Node2</title>
<g id="a_edge8_Node000002_Node000009"><a xlink:title=" ">
<path fill="none" stroke="#9a32cd" stroke-dasharray="5,2" d="M262.14,-58.33C307.38,-56.48 365.3,-61.53 406.5,-91.48 422.11,-102.82 410.1,-118.14 424.5,-130.98 428.58,-134.61 433.37,-137.56 438.42,-139.94"/>
<polygon fill="#9a32cd" stroke="#9a32cd" points="262.23,-54.82 252.43,-58.86 262.61,-61.81 262.23,-54.82"/>
</a>
</g>
<text text-anchor="start" x="270.75" y="-104.48" font-family="Helvetica,sans-Serif" font-size="10.00" fill="grey"> fExpectedOscillationParameter</text>
<text text-anchor="middle" x="338.62" y="-93.23" font-family="Helvetica,sans-Serif" font-size="10.00" fill="grey">Names</text>
</g>
<!-- Node10 -->
<g id="Node000010" class="node">
<title>Node10</title>
<g id="a_Node000010"><a xlink:title=" ">
<polygon fill="white" stroke="#666666" points="238.88,-30.6 143.38,-30.6 143.38,-11.35 238.88,-11.35 238.88,-30.6"/>
<text text-anchor="middle" x="191.12" y="-17.1" font-family="Helvetica,sans-Serif" font-size="10.00">std::vector&lt; bool &gt;</text>
</a>
</g>
</g>
<!-- Node10&#45;&gt;Node2 -->
<g id="edge9_Node000002_Node000010" class="edge">
<title>Node10&#45;&gt;Node2</title>
<g id="a_edge9_Node000002_Node000010"><a xlink:title=" ">
<path fill="none" stroke="#9a32cd" stroke-dasharray="5,2" d="M237.61,-8.42C285.63,1.82 360.61,8.8 406.5,-31.48 440.27,-61.12 394.92,-97.15 424.5,-130.98 427.68,-134.61 431.55,-137.55 435.78,-139.93"/>
<polygon fill="#9a32cd" stroke="#9a32cd" points="237.06,-4.96 228.08,-10.59 238.61,-11.79 237.06,-4.96"/>
</a>
</g>
<text text-anchor="start" x="280.5" y="-44.48" font-family="Helvetica,sans-Serif" font-size="10.00" fill="grey"> fOscillationParametersSet</text>
<text text-anchor="middle" x="338.62" y="-33.23" font-family="Helvetica,sans-Serif" font-size="10.00" fill="grey">Check</text>
</g>
<!-- Node11 -->
<g id="Node000011" class="node">
<title>Node11</title>
<g id="a_Node000011"><a xlink:title=" ">
<polygon fill="white" stroke="#666666" points="544,-121.6 424.5,-121.6 424.5,-102.35 544,-102.35 544,-121.6"/>
<text text-anchor="middle" x="484.25" y="-108.1" font-family="Helvetica,sans-Serif" font-size="10.00">std::unique_ptr&lt; CHIC &gt;</text>
</a>
</g>
</g>
<!-- Node11&#45;&gt;Node1 -->
<g id="edge10_Node000001_Node000011" class="edge">
<title>Node11&#45;&gt;Node1</title>
<g id="a_edge10_Node000001_Node000011"><a xlink:title=" ">
<path fill="none" stroke="#9a32cd" stroke-dasharray="5,2" d="M555.7,-109.65C573.23,-109.79 591.96,-110.55 609.25,-112.48 624.45,-114.17 640.93,-117.5 655.21,-120.87"/>
<polygon fill="#9a32cd" stroke="#9a32cd" points="555.89,-106.15 545.89,-109.64 555.88,-113.15 555.89,-106.15"/>
</a>
</g>
<text text-anchor="middle" x="585.62" y="-125.48" font-family="Helvetica,sans-Serif" font-size="10.00" fill="grey"> chic_nu</text>
<text text-anchor="middle" x="585.62" y="-114.23" font-family="Helvetica,sans-Serif" font-size="10.00" fill="grey">chic_nubar</text>
</g>
</g>
</svg>
