<?xml version="1.0" encoding="UTF-8" standalone="no"?>
<!DOCTYPE svg PUBLIC "-//W3C//DTD SVG 1.1//EN"
 "http://www.w3.org/Graphics/SVG/1.1/DTD/svg11.dtd">
<!-- Generated by graphviz version 12.2.0 (20241103.1931)
 -->
<!-- Title: OscProbCalcerCUDAProb3Linear Pages: 1 -->
<svg width="834pt" height="326pt"
 viewBox="0.00 0.00 834.25 325.86" xmlns="http://www.w3.org/2000/svg" xmlns:xlink="http://www.w3.org/1999/xlink">
<g id="graph0" class="graph" transform="scale(1 1) rotate(0) translate(4 321.86)">
<title>OscProbCalcerCUDAProb3Linear</title>
<!-- Node1 -->
<g id="Node000001" class="node">
<title>Node1</title>
<g id="a_Node000001"><a xlink:title="Oscillation calculation engine for linear propagation in CUDAProb3.">
<polygon fill="#999999" stroke="#666666" points="826.25,-181.86 664,-181.86 664,-162.61 826.25,-162.61 826.25,-181.86"/>
<text text-anchor="middle" x="745.12" y="-168.36" font-family="Helvetica,sans-Serif" font-size="10.00">OscProbCalcerCUDAProb3Linear</text>
</a>
</g>
</g>
<!-- Node2 -->
<g id="Node000002" class="node">
<title>Node2</title>
<g id="a_Node000002"><a xlink:href="classOscProbCalcerBase.html" target="_top" xlink:title="Oscillation calculation engine (CUDAProb3, ProbGPU, Prob3++, etc.) implementation agnostic base class...">
<polygon fill="white" stroke="#666666" points="554.5,-181.86 450,-181.86 450,-162.61 554.5,-162.61 554.5,-181.86"/>
<text text-anchor="middle" x="502.25" y="-168.36" font-family="Helvetica,sans-Serif" font-size="10.00">OscProbCalcerBase</text>
</a>
</g>
</g>
<!-- Node2&#45;&gt;Node1 -->
<g id="edge1_Node000001_Node000002" class="edge">
<title>Node2&#45;&gt;Node1</title>
<g id="a_edge1_Node000001_Node000002"><a xlink:title=" ">
<path fill="none" stroke="#63b8ff" d="M566.42,-172.23C596.16,-172.23 631.97,-172.23 663.63,-172.23"/>
<polygon fill="#63b8ff" stroke="#63b8ff" points="566.44,-168.73 556.44,-172.23 566.44,-175.73 566.44,-168.73"/>
</a>
</g>
</g>
<!-- Node3 -->
<g id="Node000003" class="node">
<title>Node3</title>
<g id="a_Node000003"><a xlink:title=" ">
<polygon fill="white" stroke="#666666" points="235.12,-317.86 147.12,-317.86 147.12,-298.61 235.12,-298.61 235.12,-317.86"/>
<text text-anchor="middle" x="191.12" y="-304.36" font-family="Helvetica,sans-Serif" font-size="10.00">std::vector&lt; int &gt;</text>
</a>
</g>
</g>
<!-- Node3&#45;&gt;Node1 -->
<g id="edge10_Node000001_Node000003" class="edge">
<title>Node3&#45;&gt;Node1</title>
<g id="a_edge10_Node000001_Node000003"><a xlink:title=" ">
<path fill="none" stroke="#9a32cd" stroke-dasharray="5,2" d="M246.54,-312.11C290.22,-313.99 352.88,-313.92 406.5,-303.23 533.83,-277.86 675.42,-208.18 725.42,-182.19"/>
<polygon fill="#9a32cd" stroke="#9a32cd" points="246.98,-308.63 236.82,-311.64 246.64,-315.62 246.98,-308.63"/>
</a>
</g>
<text text-anchor="middle" x="502.25" y="-300.4" font-family="Helvetica,sans-Serif" font-size="10.00" fill="grey"> OscChannels</text>
</g>
<!-- Node3&#45;&gt;Node2 -->
<g id="edge2_Node000002_Node000003" class="edge">
<title>Node3&#45;&gt;Node2</title>
<g id="a_edge2_Node000002_Node000003"><a xlink:title=" ">
<path fill="none" stroke="#9a32cd" stroke-dasharray="5,2" d="M246.6,-296.75C254.69,-295.11 262.93,-293.48 270.75,-291.98 330.91,-280.51 352.24,-296.66 406.5,-268.23 447.16,-246.94 481.1,-201.98 494.78,-182.07"/>
<polygon fill="#9a32cd" stroke="#9a32cd" points="245.91,-293.32 236.82,-298.75 247.32,-300.18 245.91,-293.32"/>
</a>
</g>
<text text-anchor="middle" x="338.62" y="-293.73" font-family="Helvetica,sans-Serif" font-size="10.00" fill="grey"> fNeutrinoTypes</text>
</g>
<!-- Node4 -->
<g id="Node000004" class="node">
<title>Node4</title>
<g id="a_Node000004"><a xlink:title=" ">
<polygon fill="white" stroke="#666666" points="252.75,-272.48 129.5,-272.48 129.5,-241.98 252.75,-241.98 252.75,-272.48"/>
<text text-anchor="start" x="137.5" y="-258.98" font-family="Helvetica,sans-Serif" font-size="10.00">std::vector&lt; NuOscillator</text>
<text text-anchor="middle" x="191.12" y="-247.73" font-family="Helvetica,sans-Serif" font-size="10.00">::OscillationChannel &gt;</text>
</a>
</g>
</g>
<!-- Node4&#45;&gt;Node2 -->
<g id="edge3_Node000002_Node000004" class="edge">
<title>Node4&#45;&gt;Node2</title>
<g id="a_edge3_Node000002_Node000004"><a xlink:title=" ">
<path fill="none" stroke="#9a32cd" stroke-dasharray="5,2" d="M264.33,-253.54C316.12,-250.19 381.07,-244.36 406.5,-235.23 440.15,-223.16 473.58,-196.67 490.28,-182.18"/>
<polygon fill="#9a32cd" stroke="#9a32cd" points="264.43,-250.03 254.67,-254.14 264.87,-257.01 264.43,-250.03"/>
</a>
</g>
<text text-anchor="middle" x="338.62" y="-254.85" font-family="Helvetica,sans-Serif" font-size="10.00" fill="grey"> fOscillationChannels</text>
</g>
<!-- Node5 -->
<g id="Node000005" class="node">
<title>Node5</title>
<g id="a_Node000005"><a xlink:title=" ">
<polygon fill="white" stroke="#666666" points="251.62,-204.86 130.62,-204.86 130.62,-185.61 251.62,-185.61 251.62,-204.86"/>
<text text-anchor="middle" x="191.12" y="-191.36" font-family="Helvetica,sans-Serif" font-size="10.00">std::vector&lt; FLOAT_T &gt;</text>
</a>
</g>
</g>
<!-- Node5&#45;&gt;Node2 -->
<g id="edge4_Node000002_Node000005" class="edge">
<title>Node5&#45;&gt;Node2</title>
<g id="a_edge4_Node000002_Node000005"><a xlink:title=" ">
<path fill="none" stroke="#9a32cd" stroke-dasharray="5,2" d="M263.53,-189.92C320.43,-185.69 398.72,-179.86 449.66,-176.07"/>
<polygon fill="#9a32cd" stroke="#9a32cd" points="263.32,-186.43 253.6,-190.66 263.84,-193.41 263.32,-186.43"/>
</a>
</g>
<text text-anchor="middle" x="338.62" y="-224.57" font-family="Helvetica,sans-Serif" font-size="10.00" fill="grey"> fCosineZArray</text>
<text text-anchor="middle" x="338.62" y="-213.32" font-family="Helvetica,sans-Serif" font-size="10.00" fill="grey">fEnergyArray</text>
<text text-anchor="middle" x="338.62" y="-202.07" font-family="Helvetica,sans-Serif" font-size="10.00" fill="grey">fOscParamsCurr</text>
<text text-anchor="middle" x="338.62" y="-190.82" font-family="Helvetica,sans-Serif" font-size="10.00" fill="grey">fWeightArray</text>
</g>
<!-- Node6 -->
<g id="Node000006" class="node">
<title>Node6</title>
<g id="a_Node000006"><a xlink:title=" ">
<polygon fill="white" stroke="#666666" points="220.12,-167.86 162.12,-167.86 162.12,-148.61 220.12,-148.61 220.12,-167.86"/>
<text text-anchor="middle" x="191.12" y="-154.36" font-family="Helvetica,sans-Serif" font-size="10.00">std::string</text>
</a>
</g>
</g>
<!-- Node6&#45;&gt;Node2 -->
<g id="edge5_Node000002_Node000006" class="edge">
<title>Node6&#45;&gt;Node2</title>
<g id="a_edge5_Node000002_Node000006"><a xlink:title=" ">
<path fill="none" stroke="#9a32cd" stroke-dasharray="5,2" d="M231.94,-156.87C244.37,-156.51 258.13,-156.17 270.75,-155.98 331.08,-155.12 346.38,-150.87 406.5,-155.98 421.3,-157.24 437.26,-159.59 451.79,-162.12"/>
<polygon fill="#9a32cd" stroke="#9a32cd" points="231.91,-153.37 222.02,-157.18 232.12,-160.37 231.91,-153.37"/>
</a>
</g>
<text text-anchor="middle" x="338.62" y="-157.73" font-family="Helvetica,sans-Serif" font-size="10.00" fill="grey"> fImplementationName</text>
</g>
<!-- Node7 -->
<g id="Node000007" class="node">
<title>Node7</title>
<g id="a_Node000007"><a xlink:title=" ">
<polygon fill="white" stroke="#666666" points="92.5,-173.48 0,-173.48 0,-142.98 92.5,-142.98 92.5,-173.48"/>
<text text-anchor="start" x="8" y="-159.98" font-family="Helvetica,sans-Serif" font-size="10.00">std::basic_string&lt;</text>
<text text-anchor="middle" x="46.25" y="-148.73" font-family="Helvetica,sans-Serif" font-size="10.00"> Char &gt;</text>
</a>
</g>
</g>
<!-- Node7&#45;&gt;Node6 -->
<g id="edge6_Node000006_Node000007" class="edge">
<title>Node7&#45;&gt;Node6</title>
<g id="a_edge6_Node000006_Node000007"><a xlink:title=" ">
<path fill="none" stroke="#63b8ff" d="M104.3,-158.23C124.13,-158.23 145.51,-158.23 161.97,-158.23"/>
<polygon fill="#63b8ff" stroke="#63b8ff" points="104.36,-154.73 94.36,-158.23 104.36,-161.73 104.36,-154.73"/>
</a>
</g>
</g>
<!-- Node8 -->
<g id="Node000008" class="node">
<title>Node8</title>
<g id="a_Node000008"><a xlink:title=" ">
<polygon fill="white" stroke="#666666" points="241.88,-130.48 140.38,-130.48 140.38,-99.98 241.88,-99.98 241.88,-130.48"/>
<text text-anchor="start" x="148.38" y="-116.98" font-family="Helvetica,sans-Serif" font-size="10.00">std::vector&lt; FLOAT</text>
<text text-anchor="middle" x="191.12" y="-105.73" font-family="Helvetica,sans-Serif" font-size="10.00">_T * &gt;</text>
</a>
</g>
</g>
<!-- Node8&#45;&gt;Node2 -->
<g id="edge7_Node000002_Node000008" class="edge">
<title>Node8&#45;&gt;Node2</title>
<g id="a_edge7_Node000002_Node000008"><a xlink:title=" ">
<path fill="none" stroke="#9a32cd" stroke-dasharray="5,2" d="M253.75,-112.32C297.96,-112.44 358.01,-117.24 406.5,-137.98 416.14,-142.11 415.17,-148.46 424.5,-153.23 432.32,-157.24 441.03,-160.42 449.69,-162.95"/>
<polygon fill="#9a32cd" stroke="#9a32cd" points="253.79,-108.82 243.82,-112.38 253.84,-115.82 253.79,-108.82"/>
</a>
</g>
<text text-anchor="middle" x="338.62" y="-139.73" font-family="Helvetica,sans-Serif" font-size="10.00" fill="grey"> fOscParams</text>
</g>
<!-- Node9 -->
<g id="Node000009" class="node">
<title>Node9</title>
<g id="a_Node000009"><a xlink:title=" ">
<polygon fill="white" stroke="#666666" points="250.88,-81.86 131.38,-81.86 131.38,-62.61 250.88,-62.61 250.88,-81.86"/>
<text text-anchor="middle" x="191.12" y="-68.36" font-family="Helvetica,sans-Serif" font-size="10.00">std::vector&lt; std::string &gt;</text>
</a>
</g>
</g>
<!-- Node9&#45;&gt;Node2 -->
<g id="edge8_Node000002_Node000009" class="edge">
<title>Node9&#45;&gt;Node2</title>
<g id="a_edge8_Node000002_Node000009"><a xlink:title=" ">
<path fill="none" stroke="#9a32cd" stroke-dasharray="5,2" d="M243.15,-60.09C290.8,-51.96 361.2,-48.61 406.5,-85.73 430.51,-105.42 402.35,-131.48 424.5,-153.23 431.45,-160.06 440.45,-164.57 449.83,-167.51"/>
<polygon fill="#9a32cd" stroke="#9a32cd" points="242.53,-56.64 233.34,-61.9 243.81,-63.52 242.53,-56.64"/>
</a>
</g>
<text text-anchor="start" x="270.75" y="-98.73" font-family="Helvetica,sans-Serif" font-size="10.00" fill="grey"> fExpectedOscillationParameter</text>
<text text-anchor="middle" x="338.62" y="-87.48" font-family="Helvetica,sans-Serif" font-size="10.00" fill="grey">Names</text>
</g>
<!-- Node10 -->
<g id="Node000010" class="node">
<title>Node10</title>
<g id="a_Node000010"><a xlink:title=" ">
<polygon fill="white" stroke="#666666" points="238.88,-35.86 143.38,-35.86 143.38,-16.61 238.88,-16.61 238.88,-35.86"/>
<text text-anchor="middle" x="191.12" y="-22.36" font-family="Helvetica,sans-Serif" font-size="10.00">std::vector&lt; bool &gt;</text>
</a>
</g>
</g>
<!-- Node10&#45;&gt;Node2 -->
<g id="edge9_Node000002_Node000010" class="edge">
<title>Node10&#45;&gt;Node2</title>
<g id="a_edge9_Node000002_Node000010"><a xlink:title=" ">
<path fill="none" stroke="#9a32cd" stroke-dasharray="5,2" d="M231.66,-12.96C279.24,0.26 358.68,13.16 406.5,-28.73 448.55,-65.58 386.97,-111.79 424.5,-153.23 431.13,-160.56 440.11,-165.27 449.58,-168.25"/>
<polygon fill="#9a32cd" stroke="#9a32cd" points="230.93,-9.53 222.32,-15.7 232.9,-16.25 230.93,-9.53"/>
</a>
</g>
<text text-anchor="start" x="280.5" y="-41.73" font-family="Helvetica,sans-Serif" font-size="10.00" fill="grey"> fOscillationParametersSet</text>
<text text-anchor="middle" x="338.62" y="-30.48" font-family="Helvetica,sans-Serif" font-size="10.00" fill="grey">Check</text>
</g>
<!-- Node11 -->
<g id="Node000011" class="node">
<title>Node11</title>
<g id="a_Node000011"><a xlink:title=" ">
<polygon fill="white" stroke="#666666" points="580,-144.48 424.5,-144.48 424.5,-113.98 580,-113.98 580,-144.48"/>
<text text-anchor="start" x="432.5" y="-130.98" font-family="Helvetica,sans-Serif" font-size="10.00">std::unique_ptr&lt; cudaprob3linear</text>
<text text-anchor="middle" x="502.25" y="-119.73" font-family="Helvetica,sans-Serif" font-size="10.00">::Propagator&lt; FLOAT_T &gt; &gt;</text>
</a>
</g>
</g>
<!-- Node11&#45;&gt;Node1 -->
<g id="edge11_Node000001_Node000011" class="edge">
<title>Node11&#45;&gt;Node1</title>
<g id="a_edge11_Node000001_Node000011"><a xlink:title=" ">
<path fill="none" stroke="#9a32cd" stroke-dasharray="5,2" d="M591.64,-145.01C623.69,-150.74 659.01,-157.04 687.58,-162.14"/>
<polygon fill="#9a32cd" stroke="#9a32cd" points="592.41,-141.6 581.95,-143.28 591.18,-148.49 592.41,-141.6"/>
</a>
</g>
<text text-anchor="middle" x="622" y="-156.34" font-family="Helvetica,sans-Serif" font-size="10.00" fill="grey"> propagator</text>
</g>
</g>
</svg>
