<?xml version="1.0" encoding="UTF-8" standalone="no"?>
<!DOCTYPE svg PUBLIC "-//W3C//DTD SVG 1.1//EN"
 "http://www.w3.org/Graphics/SVG/1.1/DTD/svg11.dtd">
<!-- Generated by graphviz version 9.0.0 (20230911.1827)
 -->
<!-- Title: Graphical Class Hierarchy Pages: 1 -->
<svg width="311pt" height="323pt"
 viewBox="0.00 0.00 310.75 323.25" xmlns="http://www.w3.org/2000/svg" xmlns:xlink="http://www.w3.org/1999/xlink">
<g id="graph0" class="graph" transform="scale(1 1) rotate(0) translate(4 319.25)">
<title>Graphical Class Hierarchy</title>
<!-- Node0 -->
<g id="Node000000" class="node">
<title>Node0</title>
<g id="a_Node000000"><a xlink:href="classOscProbCalcerBase.html" target="_top" xlink:title="Oscillation calculation engine (CUDAProb3, ProbGPU, Prob3++, etc.) implementation agnostic base class...">
<polygon fill="white" stroke="#666666" points="104.5,-167.25 0,-167.25 0,-148 104.5,-148 104.5,-167.25"/>
<text text-anchor="middle" x="52.25" y="-153.75" font-family="Helvetica,sans-Serif" font-size="10.00">OscProbCalcerBase</text>
</a>
</g>
</g>
<!-- Node1 -->
<g id="Node000001" class="node">
<title>Node1</title>
<g id="a_Node000001"><a xlink:href="classOscProbCalcerCHICLinear.html" target="_top" xlink:title="Oscillation calculation engine for linear propagation in CHIC.">
<polygon fill="white" stroke="#666666" points="288.12,-315.25 155.12,-315.25 155.12,-296 288.12,-296 288.12,-315.25"/>
<text text-anchor="middle" x="221.62" y="-301.75" font-family="Helvetica,sans-Serif" font-size="10.00">OscProbCalcerCHICLinear</text>
</a>
</g>
</g>
<!-- Node0&#45;&gt;Node1 -->
<g id="edge4_Node000000_Node000001" class="edge">
<title>Node0&#45;&gt;Node1</title>
<g id="a_edge4_Node000000_Node000001"><a xlink:title=" ">
<path fill="none" stroke="#63b8ff" d="M61.22,-178.23C73.6,-207.36 100.29,-260.09 140.5,-287.62 145.09,-290.77 150.14,-293.37 155.4,-295.52"/>
<polygon fill="#63b8ff" stroke="#63b8ff" points="64.51,-177.01 57.49,-169.06 58.02,-179.64 64.51,-177.01"/>
</a>
</g>
</g>
<!-- Node2 -->
<g id="Node000002" class="node">
<title>Node2</title>
<g id="a_Node000002"><a xlink:href="classOscProbCalcerCUDAProb3.html" target="_top" xlink:title="Oscillation calculation engine for linear and atmospheric propagation in CUDAProb3.">
<polygon fill="white" stroke="#666666" points="289.25,-278.25 154,-278.25 154,-259 289.25,-259 289.25,-278.25"/>
<text text-anchor="middle" x="221.62" y="-264.75" font-family="Helvetica,sans-Serif" font-size="10.00">OscProbCalcerCUDAProb3</text>
</a>
</g>
</g>
<!-- Node0&#45;&gt;Node2 -->
<g id="edge5_Node000000_Node000002" class="edge">
<title>Node0&#45;&gt;Node2</title>
<g id="a_edge5_Node000000_Node000002"><a xlink:title=" ">
<path fill="none" stroke="#63b8ff" d="M65.99,-176.99C81.14,-198.41 108.45,-232.31 140.5,-250.62 146.07,-253.81 152.16,-256.43 158.41,-258.59"/>
<polygon fill="#63b8ff" stroke="#63b8ff" points="68.95,-175.12 60.42,-168.85 63.18,-179.08 68.95,-175.12"/>
</a>
</g>
</g>
<!-- Node3 -->
<g id="Node000003" class="node">
<title>Node3</title>
<g id="a_Node000003"><a xlink:href="classOscProbCalcerCUDAProb3Linear.html" target="_top" xlink:title="Oscillation calculation engine for linear propagation in CUDAProb3.">
<polygon fill="white" stroke="#666666" points="302.75,-241.25 140.5,-241.25 140.5,-222 302.75,-222 302.75,-241.25"/>
<text text-anchor="middle" x="221.62" y="-227.75" font-family="Helvetica,sans-Serif" font-size="10.00">OscProbCalcerCUDAProb3Linear</text>
</a>
</g>
</g>
<!-- Node0&#45;&gt;Node3 -->
<g id="edge6_Node000000_Node000003" class="edge">
<title>Node0&#45;&gt;Node3</title>
<g id="a_edge6_Node000000_Node000003"><a xlink:title=" ">
<path fill="none" stroke="#63b8ff" d="M74.79,-174.5C91.76,-187.02 116.48,-203.59 140.5,-213.62 148,-216.76 156.13,-219.39 164.24,-221.58"/>
<polygon fill="#63b8ff" stroke="#63b8ff" points="77.05,-171.83 66.96,-168.59 72.83,-177.41 77.05,-171.83"/>
</a>
</g>
</g>
<!-- Node4 -->
<g id="Node000004" class="node">
<title>Node4</title>
<g id="a_Node000004"><a xlink:href="classOscProbCalcerGLoBESLinear.html" target="_top" xlink:title="Oscillation calculation engine for linear propagation in GLoBES.">
<polygon fill="white" stroke="#666666" points="295.25,-204.25 148,-204.25 148,-185 295.25,-185 295.25,-204.25"/>
<text text-anchor="middle" x="221.62" y="-190.75" font-family="Helvetica,sans-Serif" font-size="10.00">OscProbCalcerGLoBESLinear</text>
</a>
</g>
</g>
<!-- Node0&#45;&gt;Node4 -->
<g id="edge7_Node000000_Node000004" class="edge">
<title>Node0&#45;&gt;Node4</title>
<g id="a_edge7_Node000000_Node000004"><a xlink:title=" ">
<path fill="none" stroke="#63b8ff" d="M110.1,-170.19C131.24,-174.87 154.93,-180.1 174.94,-184.53"/>
<polygon fill="#63b8ff" stroke="#63b8ff" points="110.98,-166.8 100.46,-168.06 109.47,-173.64 110.98,-166.8"/>
</a>
</g>
</g>
<!-- Node5 -->
<g id="Node000005" class="node">
<title>Node5</title>
<g id="a_Node000005"><a xlink:href="classOscProbCalcerNuFASTLinear.html" target="_top" xlink:title="Oscillation calculation engine for linear propagation in NuFAST.">
<polygon fill="white" stroke="#666666" points="295.25,-167.25 148,-167.25 148,-148 295.25,-148 295.25,-167.25"/>
<text text-anchor="middle" x="221.62" y="-153.75" font-family="Helvetica,sans-Serif" font-size="10.00">OscProbCalcerNuFASTLinear</text>
</a>
</g>
</g>
<!-- Node0&#45;&gt;Node5 -->
<g id="edge8_Node000000_Node000005" class="edge">
<title>Node0&#45;&gt;Node5</title>
<g id="a_edge8_Node000000_Node000005"><a xlink:title=" ">
<path fill="none" stroke="#63b8ff" d="M116.2,-157.62C126.47,-157.62 137.19,-157.62 147.68,-157.62"/>
<polygon fill="#63b8ff" stroke="#63b8ff" points="116.35,-154.13 106.35,-157.63 116.35,-161.13 116.35,-154.13"/>
</a>
</g>
</g>
<!-- Node6 -->
<g id="Node000006" class="node">
<title>Node6</title>
<g id="a_Node000006"><a xlink:href="classOscProbCalcerNuSQUIDSLinear.html" target="_top" xlink:title="Oscillation calculation engine for linear propagation in NuSQUIDS.">
<polygon fill="white" stroke="#666666" points="301.62,-130.25 141.62,-130.25 141.62,-111 301.62,-111 301.62,-130.25"/>
<text text-anchor="middle" x="221.62" y="-116.75" font-family="Helvetica,sans-Serif" font-size="10.00">OscProbCalcerNuSQUIDSLinear</text>
</a>
</g>
</g>
<!-- Node0&#45;&gt;Node6 -->
<g id="edge9_Node000000_Node000006" class="edge">
<title>Node0&#45;&gt;Node6</title>
<g id="a_edge9_Node000000_Node000006"><a xlink:title=" ">
<path fill="none" stroke="#63b8ff" d="M110.1,-145.06C131.24,-140.38 154.93,-135.15 174.94,-130.72"/>
<polygon fill="#63b8ff" stroke="#63b8ff" points="109.47,-141.61 100.46,-147.19 110.98,-148.45 109.47,-141.61"/>
</a>
</g>
</g>
<!-- Node7 -->
<g id="Node000007" class="node">
<title>Node7</title>
<g id="a_Node000007"><a xlink:href="classOscProbCalcerOscProb.html" target="_top" xlink:title="Oscillation calculation engine for propagation in OscProb.">
<polygon fill="white" stroke="#666666" points="281.75,-93.25 161.5,-93.25 161.5,-74 281.75,-74 281.75,-93.25"/>
<text text-anchor="middle" x="221.62" y="-79.75" font-family="Helvetica,sans-Serif" font-size="10.00">OscProbCalcerOscProb</text>
</a>
</g>
</g>
<!-- Node0&#45;&gt;Node7 -->
<g id="edge10_Node000000_Node000007" class="edge">
<title>Node0&#45;&gt;Node7</title>
<g id="a_edge10_Node000000_Node000007"><a xlink:title=" ">
<path fill="none" stroke="#63b8ff" d="M74.79,-140.75C91.76,-128.23 116.48,-111.66 140.5,-101.62 148,-98.49 156.13,-95.86 164.24,-93.67"/>
<polygon fill="#63b8ff" stroke="#63b8ff" points="72.83,-137.84 66.96,-146.66 77.05,-143.42 72.83,-137.84"/>
</a>
</g>
</g>
<!-- Node8 -->
<g id="Node000008" class="node">
<title>Node8</title>
<g id="a_Node000008"><a xlink:href="classOscProbCalcerProb3ppLinear.html" target="_top" xlink:title="Oscillation calculation engine for linear propagation in Prob3pp.">
<polygon fill="white" stroke="#666666" points="294.12,-56.25 149.12,-56.25 149.12,-37 294.12,-37 294.12,-56.25"/>
<text text-anchor="middle" x="221.62" y="-42.75" font-family="Helvetica,sans-Serif" font-size="10.00">OscProbCalcerProb3ppLinear</text>
</a>
</g>
</g>
<!-- Node0&#45;&gt;Node8 -->
<g id="edge11_Node000000_Node000008" class="edge">
<title>Node0&#45;&gt;Node8</title>
<g id="a_edge11_Node000000_Node000008"><a xlink:title=" ">
<path fill="none" stroke="#63b8ff" d="M65.99,-138.26C81.14,-116.84 108.45,-82.94 140.5,-64.62 146.07,-61.44 152.16,-58.82 158.41,-56.66"/>
<polygon fill="#63b8ff" stroke="#63b8ff" points="63.18,-136.17 60.42,-146.4 68.95,-140.13 63.18,-136.17"/>
</a>
</g>
</g>
<!-- Node9 -->
<g id="Node000009" class="node">
<title>Node9</title>
<g id="a_Node000009"><a xlink:href="classOscProbCalcerProbGPULinear.html" target="_top" xlink:title="Oscillation calculation engine for linear propagation in ProbGPU.">
<polygon fill="white" stroke="#666666" points="297.12,-19.25 146.12,-19.25 146.12,0 297.12,0 297.12,-19.25"/>
<text text-anchor="middle" x="221.62" y="-5.75" font-family="Helvetica,sans-Serif" font-size="10.00">OscProbCalcerProbGPULinear</text>
</a>
</g>
</g>
<!-- Node0&#45;&gt;Node9 -->
<g id="edge12_Node000000_Node000009" class="edge">
<title>Node0&#45;&gt;Node9</title>
<g id="a_edge12_Node000000_Node000009"><a xlink:title=" ">
<path fill="none" stroke="#63b8ff" d="M61.22,-137.02C73.6,-107.89 100.29,-55.16 140.5,-27.62 145.09,-24.48 150.14,-21.88 155.4,-19.73"/>
<polygon fill="#63b8ff" stroke="#63b8ff" points="58.02,-135.61 57.49,-146.19 64.51,-138.24 58.02,-135.61"/>
</a>
</g>
</g>
</g>
</svg>
