<?xml version="1.0" encoding="UTF-8" standalone="no"?>
<!DOCTYPE svg PUBLIC "-//W3C//DTD SVG 1.1//EN"
 "http://www.w3.org/Graphics/SVG/1.1/DTD/svg11.dtd">
<!-- Generated by graphviz version 9.0.0 (20230911.1827)
 -->
<!-- Title: Graphical Class Hierarchy Pages: 1 -->
<svg width="311pt" height="249pt"
 viewBox="0.00 0.00 310.75 249.25" xmlns="http://www.w3.org/2000/svg" xmlns:xlink="http://www.w3.org/1999/xlink">
<g id="graph0" class="graph" transform="scale(1 1) rotate(0) translate(4 245.25)">
<title>Graphical Class Hierarchy</title>
<!-- Node0 -->
<g id="Node000000" class="node">
<title>Node0</title>
<g id="a_Node000000"><a xlink:href="classOscProbCalcerBase.html" target="_top" xlink:title="Oscillation calculation engine (CUDAProb3, ProbGPU, Prob3++, etc.) implementation agnostic base class...">
<polygon fill="white" stroke="#666666" points="104.5,-130.25 0,-130.25 0,-111 104.5,-111 104.5,-130.25"/>
<text text-anchor="middle" x="52.25" y="-116.75" font-family="Helvetica,sans-Serif" font-size="10.00">OscProbCalcerBase</text>
</a>
</g>
</g>
<!-- Node1 -->
<g id="Node000001" class="node">
<title>Node1</title>
<g id="a_Node000001"><a xlink:href="classOscProbCalcerCUDAProb3.html" target="_top" xlink:title="Oscillation calculation engine for linear and atmospheric propagation in CUDAProb3.">
<polygon fill="white" stroke="#666666" points="289.25,-241.25 154,-241.25 154,-222 289.25,-222 289.25,-241.25"/>
<text text-anchor="middle" x="221.62" y="-227.75" font-family="Helvetica,sans-Serif" font-size="10.00">OscProbCalcerCUDAProb3</text>
</a>
</g>
</g>
<!-- Node0&#45;&gt;Node1 -->
<g id="edge4_Node000000_Node000001" class="edge">
<title>Node0&#45;&gt;Node1</title>
<g id="a_edge4_Node000000_Node000001"><a xlink:title=" ">
<path fill="none" stroke="#63b8ff" d="M65.99,-139.99C81.14,-161.41 108.45,-195.31 140.5,-213.62 146.07,-216.81 152.16,-219.43 158.41,-221.59"/>
<polygon fill="#63b8ff" stroke="#63b8ff" points="68.95,-138.12 60.42,-131.85 63.18,-142.08 68.95,-138.12"/>
</a>
</g>
</g>
<!-- Node2 -->
<g id="Node000002" class="node">
<title>Node2</title>
<g id="a_Node000002"><a xlink:href="classOscProbCalcerCUDAProb3Linear.html" target="_top" xlink:title="Oscillation calculation engine for linear propagation in CUDAProb3.">
<polygon fill="white" stroke="#666666" points="302.75,-204.25 140.5,-204.25 140.5,-185 302.75,-185 302.75,-204.25"/>
<text text-anchor="middle" x="221.62" y="-190.75" font-family="Helvetica,sans-Serif" font-size="10.00">OscProbCalcerCUDAProb3Linear</text>
</a>
</g>
</g>
<!-- Node0&#45;&gt;Node2 -->
<g id="edge5_Node000000_Node000002" class="edge">
<title>Node0&#45;&gt;Node2</title>
<g id="a_edge5_Node000000_Node000002"><a xlink:title=" ">
<path fill="none" stroke="#63b8ff" d="M74.79,-137.5C91.76,-150.02 116.48,-166.59 140.5,-176.62 148,-179.76 156.13,-182.39 164.24,-184.58"/>
<polygon fill="#63b8ff" stroke="#63b8ff" points="77.05,-134.83 66.96,-131.59 72.83,-140.41 77.05,-134.83"/>
</a>
</g>
</g>
<!-- Node3 -->
<g id="Node000003" class="node">
<title>Node3</title>
<g id="a_Node000003"><a xlink:href="classOscProbCalcerNuFASTLinear.html" target="_top" xlink:title="Oscillation calculation engine for linear propagation in NuFAST.">
<polygon fill="white" stroke="#666666" points="295.25,-167.25 148,-167.25 148,-148 295.25,-148 295.25,-167.25"/>
<text text-anchor="middle" x="221.62" y="-153.75" font-family="Helvetica,sans-Serif" font-size="10.00">OscProbCalcerNuFASTLinear</text>
</a>
</g>
</g>
<!-- Node0&#45;&gt;Node3 -->
<g id="edge6_Node000000_Node000003" class="edge">
<title>Node0&#45;&gt;Node3</title>
<g id="a_edge6_Node000000_Node000003"><a xlink:title=" ">
<path fill="none" stroke="#63b8ff" d="M110.1,-133.19C131.24,-137.87 154.93,-143.1 174.94,-147.53"/>
<polygon fill="#63b8ff" stroke="#63b8ff" points="110.98,-129.8 100.46,-131.06 109.47,-136.64 110.98,-129.8"/>
</a>
</g>
</g>
<!-- Node4 -->
<g id="Node000004" class="node">
<title>Node4</title>
<g id="a_Node000004"><a xlink:href="classOscProbCalcerNuSQUIDSLinear.html" target="_top" xlink:title="Oscillation calculation engine for linear propagation in NuSQUIDS.">
<polygon fill="white" stroke="#666666" points="301.62,-130.25 141.62,-130.25 141.62,-111 301.62,-111 301.62,-130.25"/>
<text text-anchor="middle" x="221.62" y="-116.75" font-family="Helvetica,sans-Serif" font-size="10.00">OscProbCalcerNuSQUIDSLinear</text>
</a>
</g>
</g>
<!-- Node0&#45;&gt;Node4 -->
<g id="edge7_Node000000_Node000004" class="edge">
<title>Node0&#45;&gt;Node4</title>
<g id="a_edge7_Node000000_Node000004"><a xlink:title=" ">
<path fill="none" stroke="#63b8ff" d="M116.17,-120.62C124.34,-120.62 132.8,-120.62 141.2,-120.62"/>
<polygon fill="#63b8ff" stroke="#63b8ff" points="116.35,-117.13 106.35,-120.63 116.35,-124.13 116.35,-117.13"/>
</a>
</g>
</g>
<!-- Node5 -->
<g id="Node000005" class="node">
<title>Node5</title>
<g id="a_Node000005"><a xlink:href="classOscProbCalcerOscProb.html" target="_top" xlink:title="Oscillation calculation engine for linear propagation in NuFAST.">
<polygon fill="white" stroke="#666666" points="281.75,-93.25 161.5,-93.25 161.5,-74 281.75,-74 281.75,-93.25"/>
<text text-anchor="middle" x="221.62" y="-79.75" font-family="Helvetica,sans-Serif" font-size="10.00">OscProbCalcerOscProb</text>
</a>
</g>
</g>
<!-- Node0&#45;&gt;Node5 -->
<g id="edge8_Node000000_Node000005" class="edge">
<title>Node0&#45;&gt;Node5</title>
<g id="a_edge8_Node000000_Node000005"><a xlink:title=" ">
<path fill="none" stroke="#63b8ff" d="M110.1,-108.06C131.24,-103.38 154.93,-98.15 174.94,-93.72"/>
<polygon fill="#63b8ff" stroke="#63b8ff" points="109.47,-104.61 100.46,-110.19 110.98,-111.45 109.47,-104.61"/>
</a>
</g>
</g>
<!-- Node6 -->
<g id="Node000006" class="node">
<title>Node6</title>
<g id="a_Node000006"><a xlink:href="classOscProbCalcerProb3ppLinear.html" target="_top" xlink:title="Oscillation calculation engine for linear propagation in Prob3pp.">
<polygon fill="white" stroke="#666666" points="294.12,-56.25 149.12,-56.25 149.12,-37 294.12,-37 294.12,-56.25"/>
<text text-anchor="middle" x="221.62" y="-42.75" font-family="Helvetica,sans-Serif" font-size="10.00">OscProbCalcerProb3ppLinear</text>
</a>
</g>
</g>
<!-- Node0&#45;&gt;Node6 -->
<g id="edge9_Node000000_Node000006" class="edge">
<title>Node0&#45;&gt;Node6</title>
<g id="a_edge9_Node000000_Node000006"><a xlink:title=" ">
<path fill="none" stroke="#63b8ff" d="M74.79,-103.75C91.76,-91.23 116.48,-74.66 140.5,-64.62 148,-61.49 156.13,-58.86 164.24,-56.67"/>
<polygon fill="#63b8ff" stroke="#63b8ff" points="72.83,-100.84 66.96,-109.66 77.05,-106.42 72.83,-100.84"/>
</a>
</g>
</g>
<!-- Node7 -->
<g id="Node000007" class="node">
<title>Node7</title>
<g id="a_Node000007"><a xlink:href="classOscProbCalcerProbGPULinear.html" target="_top" xlink:title="Oscillation calculation engine for linear propagation in ProbGPU.">
<polygon fill="white" stroke="#666666" points="297.12,-19.25 146.12,-19.25 146.12,0 297.12,0 297.12,-19.25"/>
<text text-anchor="middle" x="221.62" y="-5.75" font-family="Helvetica,sans-Serif" font-size="10.00">OscProbCalcerProbGPULinear</text>
</a>
</g>
</g>
<!-- Node0&#45;&gt;Node7 -->
<g id="edge10_Node000000_Node000007" class="edge">
<title>Node0&#45;&gt;Node7</title>
<g id="a_edge10_Node000000_Node000007"><a xlink:title=" ">
<path fill="none" stroke="#63b8ff" d="M65.99,-101.26C81.14,-79.84 108.45,-45.94 140.5,-27.62 146.07,-24.44 152.16,-21.82 158.41,-19.66"/>
<polygon fill="#63b8ff" stroke="#63b8ff" points="63.18,-99.17 60.42,-109.4 68.95,-103.13 63.18,-99.17"/>
</a>
</g>
</g>
</g>
</svg>
