<?xml version="1.0" encoding="UTF-8" standalone="no"?>
<!DOCTYPE svg PUBLIC "-//W3C//DTD SVG 1.1//EN"
 "http://www.w3.org/Graphics/SVG/1.1/DTD/svg11.dtd">
<!-- Generated by graphviz version 9.0.0 (20230911.1827)
 -->
<!-- Title: Graphical Class Hierarchy Pages: 1 -->
<svg width="239pt" height="101pt"
 viewBox="0.00 0.00 238.75 101.25" xmlns="http://www.w3.org/2000/svg" xmlns:xlink="http://www.w3.org/1999/xlink">
<g id="graph0" class="graph" transform="scale(1 1) rotate(0) translate(4 97.25)">
<title>Graphical Class Hierarchy</title>
<!-- Node0 -->
<g id="Node000000" class="node">
<title>Node0</title>
<g id="a_Node000000"><a xlink:href="classOscillatorBase.html" target="_top" xlink:title="Oscillation calculation (binned, unbinned, etc.) implementation agnostic base class.">
<polygon fill="white" stroke="#666666" points="79.75,-56.25 0,-56.25 0,-37 79.75,-37 79.75,-56.25"/>
<text text-anchor="middle" x="39.88" y="-42.75" font-family="Helvetica,sans-Serif" font-size="10.00">OscillatorBase</text>
</a>
</g>
</g>
<!-- Node1 -->
<g id="Node000001" class="node">
<title>Node1</title>
<g id="a_Node000001"><a xlink:href="classOscillatorBinned.html" target="_top" xlink:title="Binned Oscillation calculation implementation class.">
<polygon fill="white" stroke="#666666" points="216.88,-93.25 129.62,-93.25 129.62,-74 216.88,-74 216.88,-93.25"/>
<text text-anchor="middle" x="173.25" y="-79.75" font-family="Helvetica,sans-Serif" font-size="10.00">OscillatorBinned</text>
</a>
</g>
</g>
<!-- Node0&#45;&gt;Node1 -->
<g id="edge1_Node000000_Node000001" class="edge">
<title>Node0&#45;&gt;Node1</title>
<g id="a_edge1_Node000000_Node000001"><a xlink:title=" ">
<path fill="none" stroke="#63b8ff" d="M87.57,-59.78C103.63,-64.3 121.34,-69.29 136.39,-73.53"/>
<polygon fill="#63b8ff" stroke="#63b8ff" points="88.81,-56.49 78.23,-57.15 86.91,-63.23 88.81,-56.49"/>
</a>
</g>
</g>
<!-- Node2 -->
<g id="Node000002" class="node">
<title>Node2</title>
<g id="a_Node000002"><a xlink:href="classOscillatorSubSampling.html" target="_top" xlink:title="SubSampling Oscillation calculation implementation class.">
<polygon fill="white" stroke="#666666" points="230.75,-56.25 115.75,-56.25 115.75,-37 230.75,-37 230.75,-56.25"/>
<text text-anchor="middle" x="173.25" y="-42.75" font-family="Helvetica,sans-Serif" font-size="10.00">OscillatorSubSampling</text>
</a>
</g>
</g>
<!-- Node0&#45;&gt;Node2 -->
<g id="edge2_Node000000_Node000002" class="edge">
<title>Node0&#45;&gt;Node2</title>
<g id="a_edge2_Node000000_Node000002"><a xlink:title=" ">
<path fill="none" stroke="#63b8ff" d="M91.3,-46.62C99.25,-46.62 107.51,-46.62 115.59,-46.62"/>
<polygon fill="#63b8ff" stroke="#63b8ff" points="91.45,-43.13 81.45,-46.63 91.45,-50.13 91.45,-43.13"/>
</a>
</g>
</g>
<!-- Node3 -->
<g id="Node000003" class="node">
<title>Node3</title>
<g id="a_Node000003"><a xlink:href="classOscillatorUnbinned.html" target="_top" xlink:title="Unbinned Oscillation calculation implementation class.">
<polygon fill="white" stroke="#666666" points="222.5,-19.25 124,-19.25 124,0 222.5,0 222.5,-19.25"/>
<text text-anchor="middle" x="173.25" y="-5.75" font-family="Helvetica,sans-Serif" font-size="10.00">OscillatorUnbinned</text>
</a>
</g>
</g>
<!-- Node0&#45;&gt;Node3 -->
<g id="edge3_Node000000_Node000003" class="edge">
<title>Node0&#45;&gt;Node3</title>
<g id="a_edge3_Node000000_Node000003"><a xlink:title=" ">
<path fill="none" stroke="#63b8ff" d="M87.57,-33.47C103.63,-28.95 121.34,-23.96 136.39,-19.72"/>
<polygon fill="#63b8ff" stroke="#63b8ff" points="86.91,-30.02 78.23,-36.1 88.81,-36.76 86.91,-30.02"/>
</a>
</g>
</g>
</g>
</svg>
