<?xml version="1.0" encoding="UTF-8" standalone="no"?>
<!DOCTYPE svg PUBLIC "-//W3C//DTD SVG 1.1//EN"
 "http://www.w3.org/Graphics/SVG/1.1/DTD/svg11.dtd">
<!-- Generated by graphviz version 12.2.0 (20241103.1931)
 -->
<!-- Title: Apps/MakeExampleBinning.cpp Pages: 1 -->
<svg width="471pt" height="138pt"
 viewBox="0.00 0.00 471.12 137.75" xmlns="http://www.w3.org/2000/svg" xmlns:xlink="http://www.w3.org/1999/xlink">
<g id="graph0" class="graph" transform="scale(1 1) rotate(0) translate(4 133.75)">
<title>Apps/MakeExampleBinning.cpp</title>
<!-- Node1 -->
<g id="Node000001" class="node">
<title>Node1</title>
<g id="a_Node000001"><a xlink:title=" ">
<polygon fill="#999999" stroke="#666666" points="380.88,-129.75 228.38,-129.75 228.38,-110.5 380.88,-110.5 380.88,-129.75"/>
<text text-anchor="middle" x="304.62" y="-116.25" font-family="Helvetica,sans-Serif" font-size="10.00">Apps/MakeExampleBinning.cpp</text>
</a>
</g>
</g>
<!-- Node2 -->
<g id="Node000002" class="node">
<title>Node2</title>
<g id="a_Node000002"><a xlink:href="OscillatorConstants_8h.html" target="_top" xlink:title=" ">
<polygon fill="white" stroke="#666666" points="329.75,-74.5 173.5,-74.5 173.5,-55.25 329.75,-55.25 329.75,-74.5"/>
<text text-anchor="middle" x="251.62" y="-61" font-family="Helvetica,sans-Serif" font-size="10.00">Constants/OscillatorConstants.h</text>
</a>
</g>
</g>
<!-- Node1&#45;&gt;Node2 -->
<g id="edge1_Node000001_Node000002" class="edge">
<title>Node1&#45;&gt;Node2</title>
<g id="a_edge1_Node000001_Node000002"><a xlink:title=" ">
<path fill="none" stroke="#63b8ff" d="M295.87,-110.33C288.48,-102.9 277.66,-92.04 268.58,-82.91"/>
<polygon fill="#63b8ff" stroke="#63b8ff" points="271.17,-80.55 261.63,-75.93 266.21,-85.49 271.17,-80.55"/>
</a>
</g>
</g>
<!-- Node5 -->
<g id="Node000005" class="node">
<title>Node5</title>
<g id="a_Node000005"><a xlink:title=" ">
<polygon fill="#e0e0e0" stroke="#999999" points="45.25,-19.25 0,-19.25 0,0 45.25,0 45.25,-19.25"/>
<text text-anchor="middle" x="22.62" y="-5.75" font-family="Helvetica,sans-Serif" font-size="10.00">TFile.h</text>
</a>
</g>
</g>
<!-- Node1&#45;&gt;Node5 -->
<g id="edge10_Node000001_Node000005" class="edge">
<title>Node1&#45;&gt;Node5</title>
<g id="a_edge10_Node000001_Node000005"><a xlink:title=" ">
<path fill="none" stroke="#63b8ff" d="M272.57,-110.04C243.96,-101.67 201.08,-88.46 164.62,-74.5 124.33,-59.07 79.08,-38.05 50.72,-24.41"/>
<polygon fill="#63b8ff" stroke="#63b8ff" points="52.61,-21.44 42.09,-20.23 49.56,-27.74 52.61,-21.44"/>
</a>
</g>
</g>
<!-- Node9 -->
<g id="Node000009" class="node">
<title>Node9</title>
<g id="a_Node000009"><a xlink:title=" ">
<polygon fill="#e0e0e0" stroke="#999999" points="463.12,-19.25 420.12,-19.25 420.12,0 463.12,0 463.12,-19.25"/>
<text text-anchor="middle" x="441.62" y="-5.75" font-family="Helvetica,sans-Serif" font-size="10.00">vector</text>
</a>
</g>
</g>
<!-- Node1&#45;&gt;Node9 -->
<g id="edge9_Node000001_Node000009" class="edge">
<title>Node1&#45;&gt;Node9</title>
<g id="a_edge9_Node000001_Node000009"><a xlink:title=" ">
<path fill="none" stroke="#63b8ff" d="M314.25,-110.09C327.95,-97.39 354.02,-73.72 377.62,-55.25 390.71,-45.01 405.95,-34.34 418.27,-26"/>
<polygon fill="#63b8ff" stroke="#63b8ff" points="420.21,-28.92 426.57,-20.45 416.31,-23.1 420.21,-28.92"/>
</a>
</g>
</g>
<!-- Node10 -->
<g id="Node000010" class="node">
<title>Node10</title>
<g id="a_Node000010"><a xlink:title=" ">
<polygon fill="#e0e0e0" stroke="#999999" points="435.12,-74.5 386.12,-74.5 386.12,-55.25 435.12,-55.25 435.12,-74.5"/>
<text text-anchor="middle" x="410.62" y="-61" font-family="Helvetica,sans-Serif" font-size="10.00">TH1D.h</text>
</a>
</g>
</g>
<!-- Node1&#45;&gt;Node10 -->
<g id="edge11_Node000001_Node000010" class="edge">
<title>Node1&#45;&gt;Node10</title>
<g id="a_edge11_Node000001_Node000010"><a xlink:title=" ">
<path fill="none" stroke="#63b8ff" d="M322.61,-110.09C338.98,-101.87 363.41,-89.59 382.39,-80.06"/>
<polygon fill="#63b8ff" stroke="#63b8ff" points="383.84,-83.25 391.2,-75.63 380.7,-76.99 383.84,-83.25"/>
</a>
</g>
</g>
<!-- Node3 -->
<g id="Node000003" class="node">
<title>Node3</title>
<g id="a_Node000003"><a xlink:title=" ">
<polygon fill="#e0e0e0" stroke="#999999" points="108.25,-19.25 63,-19.25 63,0 108.25,0 108.25,-19.25"/>
<text text-anchor="middle" x="85.62" y="-5.75" font-family="Helvetica,sans-Serif" font-size="10.00">math.h</text>
</a>
</g>
</g>
<!-- Node2&#45;&gt;Node3 -->
<g id="edge2_Node000002_Node000003" class="edge">
<title>Node2&#45;&gt;Node3</title>
<g id="a_edge2_Node000002_Node000003"><a xlink:title=" ">
<path fill="none" stroke="#63b8ff" d="M223.47,-54.84C194.63,-45.59 149.81,-31.22 119.16,-21.38"/>
<polygon fill="#63b8ff" stroke="#63b8ff" points="120.6,-18.17 110.01,-18.45 118.46,-24.83 120.6,-18.17"/>
</a>
</g>
</g>
<!-- Node4 -->
<g id="Node000004" class="node">
<title>Node4</title>
<g id="a_Node000004"><a xlink:title=" ">
<polygon fill="#e0e0e0" stroke="#999999" points="212.5,-19.25 126.75,-19.25 126.75,0 212.5,0 212.5,-19.25"/>
<text text-anchor="middle" x="169.62" y="-5.75" font-family="Helvetica,sans-Serif" font-size="10.00">yaml&#45;cpp/yaml.h</text>
</a>
</g>
</g>
<!-- Node2&#45;&gt;Node4 -->
<g id="edge3_Node000002_Node000004" class="edge">
<title>Node2&#45;&gt;Node4</title>
<g id="a_edge3_Node000002_Node000004"><a xlink:title=" ">
<path fill="none" stroke="#63b8ff" d="M237.71,-54.84C225.46,-46.89 207.37,-35.14 192.91,-25.75"/>
<polygon fill="#63b8ff" stroke="#63b8ff" points="195.17,-23.04 184.87,-20.53 191.35,-28.91 195.17,-23.04"/>
</a>
</g>
</g>
<!-- Node2&#45;&gt;Node5 -->
<g id="edge4_Node000002_Node000005" class="edge">
<title>Node2&#45;&gt;Node5</title>
<g id="a_edge4_Node000002_Node000005"><a xlink:title=" ">
<path fill="none" stroke="#63b8ff" d="M208.61,-54.82C170.83,-46.73 114.15,-34.25 56.72,-19.95"/>
<polygon fill="#63b8ff" stroke="#63b8ff" points="57.63,-16.57 47.08,-17.53 55.93,-23.36 57.63,-16.57"/>
</a>
</g>
</g>
<!-- Node6 -->
<g id="Node000006" class="node">
<title>Node6</title>
<g id="a_Node000006"><a xlink:title=" ">
<polygon fill="#e0e0e0" stroke="#999999" points="272.75,-19.25 230.5,-19.25 230.5,0 272.75,0 272.75,-19.25"/>
<text text-anchor="middle" x="251.62" y="-5.75" font-family="Helvetica,sans-Serif" font-size="10.00">TH1.h</text>
</a>
</g>
</g>
<!-- Node2&#45;&gt;Node6 -->
<g id="edge5_Node000002_Node000006" class="edge">
<title>Node2&#45;&gt;Node6</title>
<g id="a_edge5_Node000002_Node000006"><a xlink:title=" ">
<path fill="none" stroke="#63b8ff" d="M251.62,-55.08C251.62,-48.57 251.62,-39.42 251.62,-31.12"/>
<polygon fill="#63b8ff" stroke="#63b8ff" points="255.13,-31.12 251.63,-21.12 248.13,-31.12 255.13,-31.12"/>
</a>
</g>
</g>
<!-- Node7 -->
<g id="Node000007" class="node">
<title>Node7</title>
<g id="a_Node000007"><a xlink:title=" ">
<polygon fill="#e0e0e0" stroke="#999999" points="330.62,-19.25 290.62,-19.25 290.62,0 330.62,0 330.62,-19.25"/>
<text text-anchor="middle" x="310.62" y="-5.75" font-family="Helvetica,sans-Serif" font-size="10.00">string</text>
</a>
</g>
</g>
<!-- Node2&#45;&gt;Node7 -->
<g id="edge6_Node000002_Node000007" class="edge">
<title>Node2&#45;&gt;Node7</title>
<g id="a_edge6_Node000002_Node000007"><a xlink:title=" ">
<path fill="none" stroke="#63b8ff" d="M261.63,-54.84C269.99,-47.3 282.12,-36.35 292.23,-27.23"/>
<polygon fill="#63b8ff" stroke="#63b8ff" points="294.56,-29.84 299.64,-20.54 289.87,-24.64 294.56,-29.84"/>
</a>
</g>
</g>
<!-- Node8 -->
<g id="Node000008" class="node">
<title>Node8</title>
<g id="a_Node000008"><a xlink:title=" ">
<polygon fill="#e0e0e0" stroke="#999999" points="402.38,-19.25 348.88,-19.25 348.88,0 402.38,0 402.38,-19.25"/>
<text text-anchor="middle" x="375.62" y="-5.75" font-family="Helvetica,sans-Serif" font-size="10.00">iostream</text>
</a>
</g>
</g>
<!-- Node2&#45;&gt;Node8 -->
<g id="edge7_Node000002_Node000008" class="edge">
<title>Node2&#45;&gt;Node8</title>
<g id="a_edge7_Node000002_Node000008"><a xlink:title=" ">
<path fill="none" stroke="#63b8ff" d="M272.66,-54.84C292.26,-46.43 321.73,-33.77 344.13,-24.15"/>
<polygon fill="#63b8ff" stroke="#63b8ff" points="345.29,-27.46 353.1,-20.3 342.53,-21.03 345.29,-27.46"/>
</a>
</g>
</g>
<!-- Node2&#45;&gt;Node9 -->
<g id="edge8_Node000002_Node000009" class="edge">
<title>Node2&#45;&gt;Node9</title>
<g id="a_edge8_Node000002_Node000009"><a xlink:title=" ">
<path fill="none" stroke="#63b8ff" d="M284.43,-54.81C314.52,-46.47 360.59,-33.67 408.72,-20.06"/>
<polygon fill="#63b8ff" stroke="#63b8ff" points="409.55,-23.46 418.22,-17.37 407.64,-16.73 409.55,-23.46"/>
</a>
</g>
</g>
</g>
</svg>
