<?xml version="1.0" encoding="UTF-8" standalone="no"?>
<!DOCTYPE svg PUBLIC "-//W3C//DTD SVG 1.1//EN"
 "http://www.w3.org/Graphics/SVG/1.1/DTD/svg11.dtd">
<!-- Generated by graphviz version 9.0.0 (20230911.1827)
 -->
<!-- Title: Oscillator/OscillatorFactory.h Pages: 1 -->
<svg width="449pt" height="260pt"
 viewBox="0.00 0.00 449.00 259.50" xmlns="http://www.w3.org/2000/svg" xmlns:xlink="http://www.w3.org/1999/xlink">

<svg id="main" version="1.1" xmlns="http://www.w3.org/2000/svg" xmlns:xlink="http://www.w3.org/1999/xlink" xml:space="preserve" onload="init(evt)">
<style type="text/css"><![CDATA[
.node, .edge {opacity: 0.7;}
.node.selected, .edge.selected {opacity: 1;}
.edge:hover path { stroke: red; }
.edge:hover polygon { stroke: red; fill: red; }
]]></style>
<script type="application/ecmascript" xlink:href="svg.min.js"/>
<svg id="graph" class="graph">
<g id="graph0" class="graph" transform="scale(1 1) rotate(0) translate(4 255.5)">
<title>Oscillator/OscillatorFactory.h</title>
<!-- Node1 -->
<g id="Node000001" class="node">
<title>Node1</title>
<g id="a_Node000001"><a xlink:title=" ">
<polygon fill="#999999" stroke="#666666" points="430.75,-251.5 289.5,-251.5 289.5,-232.25 430.75,-232.25 430.75,-251.5"/>
<text text-anchor="middle" x="360.12" y="-238" font-family="Helvetica,sans-Serif" font-size="10.00">Oscillator/OscillatorFactory.h</text>
</a>
</g>
</g>
<!-- Node2 -->
<g id="Node000002" class="node">
<title>Node2</title>
<g id="a_Node000002"><a xlink:href="OscillatorBase_8h.html" target="_top" xlink:title=" ">
<polygon fill="white" stroke="#666666" points="367.75,-196.25 280.5,-196.25 280.5,-177 367.75,-177 367.75,-196.25"/>
<text text-anchor="middle" x="324.12" y="-182.75" font-family="Helvetica,sans-Serif" font-size="10.00">OscillatorBase.h</text>
</a>
</g>
</g>
<!-- Node1&#45;&gt;Node2 -->
<g id="edge1_Node000001_Node000002" class="edge">
<title>Node1&#45;&gt;Node2</title>
<g id="a_edge1_Node000001_Node000002"><a xlink:title=" ">
<path fill="none" stroke="#63b8ff" d="M354.18,-232.08C349.41,-225.03 342.56,-214.9 336.6,-206.08"/>
<polygon fill="#63b8ff" stroke="#63b8ff" points="339.55,-204.19 331.05,-197.86 333.75,-208.11 339.55,-204.19"/>
</a>
</g>
</g>
<!-- Node11 -->
<g id="Node000011" class="node">
<title>Node11</title>
<g id="a_Node000011"><a xlink:title=" ">
<polygon fill="#e0e0e0" stroke="#999999" points="441,-74.5 355.25,-74.5 355.25,-55.25 441,-55.25 441,-74.5"/>
<text text-anchor="middle" x="398.12" y="-61" font-family="Helvetica,sans-Serif" font-size="10.00">yaml&#45;cpp/yaml.h</text>
</a>
</g>
</g>
<!-- Node1&#45;&gt;Node11 -->
<g id="edge15_Node000001_Node000011" class="edge">
<title>Node1&#45;&gt;Node11</title>
<g id="a_edge15_Node000001_Node000011"><a xlink:title=" ">
<path fill="none" stroke="#63b8ff" d="M363.68,-232.05C367.25,-223.09 372.81,-208.79 377.12,-196.25 385.48,-171.95 389.63,-166.3 394.12,-141 397.41,-122.51 398.27,-101.1 398.39,-85.88"/>
<polygon fill="#63b8ff" stroke="#63b8ff" points="401.89,-86.25 398.36,-76.26 394.89,-86.27 401.89,-86.25"/>
</a>
</g>
</g>
<!-- Node3 -->
<g id="Node000003" class="node">
<title>Node3</title>
<g id="a_Node000003"><a xlink:href="OscProbCalcerBase_8h.html" target="_top" xlink:title=" ">
<polygon fill="white" stroke="#666666" points="364.62,-141 213.62,-141 213.62,-110.5 364.62,-110.5 364.62,-141"/>
<text text-anchor="start" x="221.62" y="-127.5" font-family="Helvetica,sans-Serif" font-size="10.00">OscProbCalcer/OscProbCalcer</text>
<text text-anchor="middle" x="289.12" y="-116.25" font-family="Helvetica,sans-Serif" font-size="10.00">Base.h</text>
</a>
</g>
</g>
<!-- Node2&#45;&gt;Node3 -->
<g id="edge2_Node000002_Node000003" class="edge">
<title>Node2&#45;&gt;Node3</title>
<g id="a_edge2_Node000002_Node000003"><a xlink:title=" ">
<path fill="none" stroke="#63b8ff" d="M318.81,-176.68C314.75,-169.86 308.96,-160.12 303.57,-151.05"/>
<polygon fill="#63b8ff" stroke="#63b8ff" points="306.66,-149.39 298.54,-142.58 300.64,-152.97 306.66,-149.39"/>
</a>
</g>
</g>
<!-- Node4 -->
<g id="Node000004" class="node">
<title>Node4</title>
<g id="a_Node000004"><a xlink:href="OscillatorConstants_8h.html" target="_top" xlink:title=" ">
<polygon fill="white" stroke="#666666" points="261.25,-74.5 105,-74.5 105,-55.25 261.25,-55.25 261.25,-74.5"/>
<text text-anchor="middle" x="183.12" y="-61" font-family="Helvetica,sans-Serif" font-size="10.00">Constants/OscillatorConstants.h</text>
</a>
</g>
</g>
<!-- Node2&#45;&gt;Node4 -->
<g id="edge13_Node000002_Node000004" class="edge">
<title>Node2&#45;&gt;Node4</title>
<g id="a_edge13_Node000002_Node000004"><a xlink:title=" ">
<path fill="none" stroke="#63b8ff" d="M280.04,-179.36C254.56,-173.53 223.76,-162.35 204.12,-141 190.39,-126.07 185.54,-102.88 183.88,-86.22"/>
<polygon fill="#63b8ff" stroke="#63b8ff" points="187.39,-86.25 183.23,-76.5 180.4,-86.71 187.39,-86.25"/>
</a>
</g>
</g>
<!-- Node2&#45;&gt;Node11 -->
<g id="edge14_Node000002_Node000011" class="edge">
<title>Node2&#45;&gt;Node11</title>
<g id="a_edge14_Node000002_Node000011"><a xlink:title=" ">
<path fill="none" stroke="#63b8ff" d="M337.86,-176.54C349.09,-168.44 364.62,-155.64 374.12,-141 385.06,-124.14 391.35,-101.92 394.72,-86.03"/>
<polygon fill="#63b8ff" stroke="#63b8ff" points="398.13,-86.83 396.55,-76.35 391.25,-85.52 398.13,-86.83"/>
</a>
</g>
</g>
<!-- Node3&#45;&gt;Node4 -->
<g id="edge3_Node000003_Node000004" class="edge">
<title>Node3&#45;&gt;Node4</title>
<g id="a_edge3_Node000003_Node000004"><a xlink:title=" ">
<path fill="none" stroke="#63b8ff" d="M262.65,-110.05C246.35,-100.99 225.55,-89.44 209.3,-80.41"/>
<polygon fill="#63b8ff" stroke="#63b8ff" points="211.15,-77.43 200.7,-75.64 207.75,-83.55 211.15,-77.43"/>
</a>
</g>
</g>
<!-- Node8 -->
<g id="Node000008" class="node">
<title>Node8</title>
<g id="a_Node000008"><a xlink:title=" ">
<polygon fill="#e0e0e0" stroke="#999999" points="298.12,-19.25 258.12,-19.25 258.12,0 298.12,0 298.12,-19.25"/>
<text text-anchor="middle" x="278.12" y="-5.75" font-family="Helvetica,sans-Serif" font-size="10.00">string</text>
</a>
</g>
</g>
<!-- Node3&#45;&gt;Node8 -->
<g id="edge11_Node000003_Node000008" class="edge">
<title>Node3&#45;&gt;Node8</title>
<g id="a_edge11_Node000003_Node000008"><a xlink:title=" ">
<path fill="none" stroke="#63b8ff" d="M287.73,-110.3C285.8,-90.25 282.3,-53.9 280.1,-31.07"/>
<polygon fill="#63b8ff" stroke="#63b8ff" points="283.59,-30.82 279.14,-21.2 276.62,-31.49 283.59,-30.82"/>
</a>
</g>
</g>
<!-- Node10 -->
<g id="Node000010" class="node">
<title>Node10</title>
<g id="a_Node000010"><a xlink:title=" ">
<polygon fill="#e0e0e0" stroke="#999999" points="359.62,-19.25 316.62,-19.25 316.62,0 359.62,0 359.62,-19.25"/>
<text text-anchor="middle" x="338.12" y="-5.75" font-family="Helvetica,sans-Serif" font-size="10.00">vector</text>
</a>
</g>
</g>
<!-- Node3&#45;&gt;Node10 -->
<g id="edge10_Node000003_Node000010" class="edge">
<title>Node3&#45;&gt;Node10</title>
<g id="a_edge10_Node000003_Node000010"><a xlink:title=" ">
<path fill="none" stroke="#63b8ff" d="M295.33,-110.3C304.06,-89.97 319.98,-52.88 329.75,-30.12"/>
<polygon fill="#63b8ff" stroke="#63b8ff" points="332.9,-31.66 333.63,-21.09 326.47,-28.9 332.9,-31.66"/>
</a>
</g>
</g>
<!-- Node3&#45;&gt;Node11 -->
<g id="edge12_Node000003_Node000011" class="edge">
<title>Node3&#45;&gt;Node11</title>
<g id="a_edge12_Node000003_Node000011"><a xlink:title=" ">
<path fill="none" stroke="#63b8ff" d="M316.35,-110.05C333.27,-100.91 354.91,-89.22 371.68,-80.16"/>
<polygon fill="#63b8ff" stroke="#63b8ff" points="372.94,-83.46 380.08,-75.62 369.62,-77.3 372.94,-83.46"/>
</a>
</g>
</g>
<!-- Node5 -->
<g id="Node000005" class="node">
<title>Node5</title>
<g id="a_Node000005"><a xlink:title=" ">
<polygon fill="#e0e0e0" stroke="#999999" points="176.75,-19.25 131.5,-19.25 131.5,0 176.75,0 176.75,-19.25"/>
<text text-anchor="middle" x="154.12" y="-5.75" font-family="Helvetica,sans-Serif" font-size="10.00">math.h</text>
</a>
</g>
</g>
<!-- Node4&#45;&gt;Node5 -->
<g id="edge4_Node000004_Node000005" class="edge">
<title>Node4&#45;&gt;Node5</title>
<g id="a_edge4_Node000004_Node000005"><a xlink:title=" ">
<path fill="none" stroke="#63b8ff" d="M178.34,-55.08C174.58,-48.19 169.22,-38.34 164.49,-29.66"/>
<polygon fill="#63b8ff" stroke="#63b8ff" points="167.6,-28.05 159.74,-20.94 161.45,-31.39 167.6,-28.05"/>
</a>
</g>
</g>
<!-- Node6 -->
<g id="Node000006" class="node">
<title>Node6</title>
<g id="a_Node000006"><a xlink:title=" ">
<polygon fill="#e0e0e0" stroke="#999999" points="239.75,-19.25 194.5,-19.25 194.5,0 239.75,0 239.75,-19.25"/>
<text text-anchor="middle" x="217.12" y="-5.75" font-family="Helvetica,sans-Serif" font-size="10.00">TFile.h</text>
</a>
</g>
</g>
<!-- Node4&#45;&gt;Node6 -->
<g id="edge5_Node000004_Node000006" class="edge">
<title>Node4&#45;&gt;Node6</title>
<g id="a_edge5_Node000004_Node000006"><a xlink:title=" ">
<path fill="none" stroke="#63b8ff" d="M188.74,-55.08C193.24,-48.03 199.71,-37.9 205.34,-29.08"/>
<polygon fill="#63b8ff" stroke="#63b8ff" points="208.14,-31.2 210.57,-20.88 202.24,-27.43 208.14,-31.2"/>
</a>
</g>
</g>
<!-- Node7 -->
<g id="Node000007" class="node">
<title>Node7</title>
<g id="a_Node000007"><a xlink:title=" ">
<polygon fill="#e0e0e0" stroke="#999999" points="42.25,-19.25 0,-19.25 0,0 42.25,0 42.25,-19.25"/>
<text text-anchor="middle" x="21.12" y="-5.75" font-family="Helvetica,sans-Serif" font-size="10.00">TH1.h</text>
</a>
</g>
</g>
<!-- Node4&#45;&gt;Node7 -->
<g id="edge6_Node000004_Node000007" class="edge">
<title>Node4&#45;&gt;Node7</title>
<g id="a_edge6_Node000004_Node000007"><a xlink:title=" ">
<path fill="none" stroke="#63b8ff" d="M155.64,-54.84C127.31,-45.53 83.15,-31.01 53.23,-21.18"/>
<polygon fill="#63b8ff" stroke="#63b8ff" points="54.55,-17.93 43.96,-18.13 52.36,-24.58 54.55,-17.93"/>
</a>
</g>
</g>
<!-- Node4&#45;&gt;Node8 -->
<g id="edge7_Node000004_Node000008" class="edge">
<title>Node4&#45;&gt;Node8</title>
<g id="a_edge7_Node000004_Node000008"><a xlink:title=" ">
<path fill="none" stroke="#63b8ff" d="M199.24,-54.84C213.71,-46.73 235.2,-34.68 252.11,-25.21"/>
<polygon fill="#63b8ff" stroke="#63b8ff" points="253.6,-28.39 260.61,-20.44 250.18,-22.28 253.6,-28.39"/>
</a>
</g>
</g>
<!-- Node9 -->
<g id="Node000009" class="node">
<title>Node9</title>
<g id="a_Node000009"><a xlink:title=" ">
<polygon fill="#e0e0e0" stroke="#999999" points="113.88,-19.25 60.38,-19.25 60.38,0 113.88,0 113.88,-19.25"/>
<text text-anchor="middle" x="87.12" y="-5.75" font-family="Helvetica,sans-Serif" font-size="10.00">iostream</text>
</a>
</g>
</g>
<!-- Node4&#45;&gt;Node9 -->
<g id="edge8_Node000004_Node000009" class="edge">
<title>Node4&#45;&gt;Node9</title>
<g id="a_edge8_Node000004_Node000009"><a xlink:title=" ">
<path fill="none" stroke="#63b8ff" d="M166.84,-54.84C152.22,-46.73 130.5,-34.68 113.42,-25.21"/>
<polygon fill="#63b8ff" stroke="#63b8ff" points="115.26,-22.23 104.81,-20.44 111.86,-28.35 115.26,-22.23"/>
</a>
</g>
</g>
<!-- Node4&#45;&gt;Node10 -->
<g id="edge9_Node000004_Node000010" class="edge">
<title>Node4&#45;&gt;Node10</title>
<g id="a_edge9_Node000004_Node000010"><a xlink:title=" ">
<path fill="none" stroke="#63b8ff" d="M209.42,-54.84C235.95,-45.73 276.98,-31.63 305.56,-21.81"/>
<polygon fill="#63b8ff" stroke="#63b8ff" points="306.47,-25.2 314.79,-18.64 304.19,-18.58 306.47,-25.2"/>
</a>
</g>
</g>
</g>
</svg>
</svg>

<style type='text/css'>
<![CDATA[
[data-mouse-over-selected='false'] { opacity: 0.7; }
[data-mouse-over-selected='true']  { opacity: 1.0; }
]]>
</style>
<script type="application/ecmascript"><![CDATA[
document.addEventListener('DOMContentLoaded', (event) => {
  highlightEdges();
  highlightAdjacentNodes();
});
]]></script>
</svg>
