<?xml version="1.0" encoding="UTF-8" standalone="no"?>
<!DOCTYPE svg PUBLIC "-//W3C//DTD SVG 1.1//EN"
 "http://www.w3.org/Graphics/SVG/1.1/DTD/svg11.dtd">
<!-- Generated by graphviz version 9.0.0 (20230911.1827)
 -->
<!-- Title: Oscillator/OscillatorBase.h Pages: 1 -->
<svg width="1605pt" height="160pt"
 viewBox="0.00 0.00 1605.12 160.25" xmlns="http://www.w3.org/2000/svg" xmlns:xlink="http://www.w3.org/1999/xlink">
<g id="graph0" class="graph" transform="scale(1 1) rotate(0) translate(4 156.25)">
<title>Oscillator/OscillatorBase.h</title>
<!-- Node1 -->
<g id="Node000001" class="node">
<title>Node1</title>
<g id="a_Node000001"><a xlink:title=" ">
<polygon fill="#999999" stroke="#666666" points="942.5,-152.25 811,-152.25 811,-133 942.5,-133 942.5,-152.25"/>
<text text-anchor="middle" x="876.75" y="-138.75" font-family="Helvetica,sans-Serif" font-size="10.00">Oscillator/OscillatorBase.h</text>
</a>
</g>
</g>
<!-- Node2 -->
<g id="Node000002" class="node">
<title>Node2</title>
<g id="a_Node000002"><a xlink:href="OscillatorBase_8cpp.html" target="_top" xlink:title=" ">
<polygon fill="white" stroke="#666666" points="630.75,-91.38 488.75,-91.38 488.75,-72.12 630.75,-72.12 630.75,-91.38"/>
<text text-anchor="middle" x="559.75" y="-77.88" font-family="Helvetica,sans-Serif" font-size="10.00">Oscillator/OscillatorBase.cpp</text>
</a>
</g>
</g>
<!-- Node1&#45;&gt;Node2 -->
<g id="edge1_Node000001_Node000002" class="edge">
<title>Node1&#45;&gt;Node2</title>
<g id="a_edge1_Node000001_Node000002"><a xlink:title=" ">
<path fill="none" stroke="#63b8ff" d="M816.67,-130.47C756.37,-119.27 664.63,-102.23 608.64,-91.83"/>
<polygon fill="#63b8ff" stroke="#63b8ff" points="815.95,-133.89 826.43,-132.28 817.23,-127.01 815.95,-133.89"/>
</a>
</g>
</g>
<!-- Node3 -->
<g id="Node000003" class="node">
<title>Node3</title>
<g id="a_Node000003"><a xlink:href="OscillatorBinned_8h.html" target="_top" xlink:title=" ">
<polygon fill="white" stroke="#666666" points="788.25,-91.38 649.25,-91.38 649.25,-72.12 788.25,-72.12 788.25,-91.38"/>
<text text-anchor="middle" x="718.75" y="-77.88" font-family="Helvetica,sans-Serif" font-size="10.00">Oscillator/OscillatorBinned.h</text>
</a>
</g>
</g>
<!-- Node1&#45;&gt;Node3 -->
<g id="edge2_Node000001_Node000003" class="edge">
<title>Node1&#45;&gt;Node3</title>
<g id="a_edge2_Node000001_Node000003"><a xlink:title=" ">
<path fill="none" stroke="#63b8ff" d="M841.99,-128.67C812.04,-117.51 769.57,-101.69 743.12,-91.83"/>
<polygon fill="#63b8ff" stroke="#63b8ff" points="840.4,-131.81 850.99,-132.03 842.84,-125.25 840.4,-131.81"/>
</a>
</g>
</g>
<!-- Node6 -->
<g id="Node000006" class="node">
<title>Node6</title>
<g id="a_Node000006"><a xlink:href="OscillatorFactory_8h.html" target="_top" xlink:title=" ">
<polygon fill="white" stroke="#666666" points="947.38,-91.38 806.12,-91.38 806.12,-72.12 947.38,-72.12 947.38,-91.38"/>
<text text-anchor="middle" x="876.75" y="-77.88" font-family="Helvetica,sans-Serif" font-size="10.00">Oscillator/OscillatorFactory.h</text>
</a>
</g>
</g>
<!-- Node1&#45;&gt;Node6 -->
<g id="edge5_Node000001_Node000006" class="edge">
<title>Node1&#45;&gt;Node6</title>
<g id="a_edge5_Node000001_Node000006"><a xlink:title=" ">
<path fill="none" stroke="#63b8ff" d="M876.75,-121.2C876.75,-111.17 876.75,-99.58 876.75,-91.78"/>
<polygon fill="#63b8ff" stroke="#63b8ff" points="873.25,-121.17 876.75,-131.17 880.25,-121.17 873.25,-121.17"/>
</a>
</g>
</g>
<!-- Node13 -->
<g id="Node000013" class="node">
<title>Node13</title>
<g id="a_Node000013"><a xlink:href="OscillatorSubSampling_8h.html" target="_top" xlink:title=" ">
<polygon fill="white" stroke="#666666" points="1188.12,-97 1069.38,-97 1069.38,-66.5 1188.12,-66.5 1188.12,-97"/>
<text text-anchor="start" x="1077.38" y="-83.5" font-family="Helvetica,sans-Serif" font-size="10.00">Oscillator/OscillatorSub</text>
<text text-anchor="middle" x="1128.75" y="-72.25" font-family="Helvetica,sans-Serif" font-size="10.00">Sampling.h</text>
</a>
</g>
</g>
<!-- Node1&#45;&gt;Node13 -->
<g id="edge13_Node000001_Node000013" class="edge">
<title>Node1&#45;&gt;Node13</title>
<g id="a_edge13_Node000001_Node000013"><a xlink:title=" ">
<path fill="none" stroke="#63b8ff" d="M926.65,-129.97C967.65,-120.39 1025.82,-106.8 1069.24,-96.65"/>
<polygon fill="#63b8ff" stroke="#63b8ff" points="925.99,-126.53 917.05,-132.21 927.58,-133.34 925.99,-126.53"/>
</a>
</g>
</g>
<!-- Node15 -->
<g id="Node000015" class="node">
<title>Node15</title>
<g id="a_Node000015"><a xlink:href="OscillatorUnbinned_8h.html" target="_top" xlink:title=" ">
<polygon fill="white" stroke="#666666" points="1356.88,-91.38 1206.62,-91.38 1206.62,-72.12 1356.88,-72.12 1356.88,-91.38"/>
<text text-anchor="middle" x="1281.75" y="-77.88" font-family="Helvetica,sans-Serif" font-size="10.00">Oscillator/OscillatorUnbinned.h</text>
</a>
</g>
</g>
<!-- Node1&#45;&gt;Node15 -->
<g id="edge16_Node000001_Node000015" class="edge">
<title>Node1&#45;&gt;Node15</title>
<g id="a_edge16_Node000001_Node000015"><a xlink:title=" ">
<path fill="none" stroke="#63b8ff" d="M954.06,-131.45C1018.92,-122.77 1113.98,-109.71 1196.75,-97 1207.1,-95.41 1218.15,-93.63 1228.74,-91.87"/>
<polygon fill="#63b8ff" stroke="#63b8ff" points="953.66,-127.97 944.21,-132.77 954.59,-134.91 953.66,-127.97"/>
</a>
</g>
</g>
<!-- Node4 -->
<g id="Node000004" class="node">
<title>Node4</title>
<g id="a_Node000004"><a xlink:href="OscillatorBinned_8cpp.html" target="_top" xlink:title=" ">
<polygon fill="white" stroke="#666666" points="149.5,-24.88 0,-24.88 0,-5.63 149.5,-5.63 149.5,-24.88"/>
<text text-anchor="middle" x="74.75" y="-11.38" font-family="Helvetica,sans-Serif" font-size="10.00">Oscillator/OscillatorBinned.cpp</text>
</a>
</g>
</g>
<!-- Node3&#45;&gt;Node4 -->
<g id="edge3_Node000003_Node000004" class="edge">
<title>Node3&#45;&gt;Node4</title>
<g id="a_edge3_Node000003_Node000004"><a xlink:title=" ">
<path fill="none" stroke="#63b8ff" d="M661.81,-69.75C654.41,-68.54 646.91,-67.41 639.75,-66.5 427.09,-39.44 371.55,-56.46 158.75,-30.5 147.3,-29.1 135.03,-27.23 123.5,-25.31"/>
<polygon fill="#63b8ff" stroke="#63b8ff" points="660.98,-73.16 671.43,-71.4 662.16,-66.26 660.98,-73.16"/>
</a>
</g>
</g>
<!-- Node5 -->
<g id="Node000005" class="node">
<title>Node5</title>
<g id="a_Node000005"><a xlink:href="OscillatorFactory_8cpp.html" target="_top" xlink:title=" ">
<polygon fill="white" stroke="#666666" points="1281.62,-24.88 1129.88,-24.88 1129.88,-5.63 1281.62,-5.63 1281.62,-24.88"/>
<text text-anchor="middle" x="1205.75" y="-11.38" font-family="Helvetica,sans-Serif" font-size="10.00">Oscillator/OscillatorFactory.cpp</text>
</a>
</g>
</g>
<!-- Node3&#45;&gt;Node5 -->
<g id="edge4_Node000003_Node000005" class="edge">
<title>Node3&#45;&gt;Node5</title>
<g id="a_edge4_Node000003_Node000005"><a xlink:title=" ">
<path fill="none" stroke="#63b8ff" d="M776.86,-69.67C783.55,-68.53 790.29,-67.45 796.75,-66.5 940.1,-45.47 977.25,-50.49 1120.75,-30.5 1131.57,-28.99 1143.13,-27.19 1154.13,-25.37"/>
<polygon fill="#63b8ff" stroke="#63b8ff" points="776.42,-66.19 767.17,-71.37 777.63,-73.09 776.42,-66.19"/>
</a>
</g>
</g>
<!-- Node6&#45;&gt;Node5 -->
<g id="edge12_Node000006_Node000005" class="edge">
<title>Node6&#45;&gt;Node5</title>
<g id="a_edge12_Node000006_Node000005"><a xlink:title=" ">
<path fill="none" stroke="#63b8ff" d="M934.28,-69.47C998.21,-56.94 1100.2,-36.94 1159.28,-25.36"/>
<polygon fill="#63b8ff" stroke="#63b8ff" points="933.81,-66 924.68,-71.35 935.16,-72.87 933.81,-66"/>
</a>
</g>
</g>
<!-- Node7 -->
<g id="Node000007" class="node">
<title>Node7</title>
<g id="a_Node000007"><a xlink:href="Analysis_8cpp.html" target="_top" xlink:title=" ">
<polygon fill="white" stroke="#666666" points="263.88,-24.88 167.62,-24.88 167.62,-5.63 263.88,-5.63 263.88,-24.88"/>
<text text-anchor="middle" x="215.75" y="-11.38" font-family="Helvetica,sans-Serif" font-size="10.00">Apps/Analysis.cpp</text>
</a>
</g>
</g>
<!-- Node6&#45;&gt;Node7 -->
<g id="edge6_Node000006_Node000007" class="edge">
<title>Node6&#45;&gt;Node7</title>
<g id="a_edge6_Node000006_Node000007"><a xlink:title=" ">
<path fill="none" stroke="#63b8ff" d="M819.65,-69.81C811.97,-68.56 804.18,-67.41 796.75,-66.5 565.06,-37.99 503.32,-66.95 272.75,-30.5 264.59,-29.21 255.89,-27.31 247.8,-25.31"/>
<polygon fill="#63b8ff" stroke="#63b8ff" points="818.83,-73.22 829.27,-71.43 820,-66.32 818.83,-73.22"/>
</a>
</g>
</g>
<!-- Node8 -->
<g id="Node000008" class="node">
<title>Node8</title>
<g id="a_Node000008"><a xlink:href="CompareOscillationProbabilities_8cpp.html" target="_top" xlink:title=" ">
<polygon fill="white" stroke="#666666" points="479.5,-24.88 282,-24.88 282,-5.63 479.5,-5.63 479.5,-24.88"/>
<text text-anchor="middle" x="380.75" y="-11.38" font-family="Helvetica,sans-Serif" font-size="10.00">Apps/CompareOscillationProbabilities.cpp</text>
</a>
</g>
</g>
<!-- Node6&#45;&gt;Node8 -->
<g id="edge7_Node000006_Node000008" class="edge">
<title>Node6&#45;&gt;Node8</title>
<g id="a_edge7_Node000006_Node000008"><a xlink:title=" ">
<path fill="none" stroke="#63b8ff" d="M817.39,-69.77C810.44,-68.6 803.45,-67.49 796.75,-66.5 660.4,-46.41 625.52,-47.51 488.75,-30.5 475.8,-28.89 461.99,-27.11 448.71,-25.37"/>
<polygon fill="#63b8ff" stroke="#63b8ff" points="816.66,-73.19 827.11,-71.44 817.84,-66.3 816.66,-73.19"/>
</a>
</g>
</g>
<!-- Node9 -->
<g id="Node000009" class="node">
<title>Node9</title>
<g id="a_Node000009"><a xlink:href="DragRace_8cpp.html" target="_top" xlink:title=" ">
<polygon fill="white" stroke="#666666" points="599.88,-24.88 497.62,-24.88 497.62,-5.63 599.88,-5.63 599.88,-24.88"/>
<text text-anchor="middle" x="548.75" y="-11.38" font-family="Helvetica,sans-Serif" font-size="10.00">Apps/DragRace.cpp</text>
</a>
</g>
</g>
<!-- Node6&#45;&gt;Node9 -->
<g id="edge8_Node000006_Node000009" class="edge">
<title>Node6&#45;&gt;Node9</title>
<g id="a_edge8_Node000006_Node000009"><a xlink:title=" ">
<path fill="none" stroke="#63b8ff" d="M815.37,-69.59C748.92,-57.45 647.27,-38.68 608.75,-30.5 601.31,-28.92 593.39,-27.12 585.81,-25.35"/>
<polygon fill="#63b8ff" stroke="#63b8ff" points="814.58,-73.01 825.04,-71.36 815.83,-66.12 814.58,-73.01"/>
</a>
</g>
</g>
<!-- Node10 -->
<g id="Node000010" class="node">
<title>Node10</title>
<g id="a_Node000010"><a xlink:href="LegacyModeExample_8cpp.html" target="_top" xlink:title=" ">
<polygon fill="white" stroke="#666666" points="769.62,-24.88 617.88,-24.88 617.88,-5.63 769.62,-5.63 769.62,-24.88"/>
<text text-anchor="middle" x="693.75" y="-11.38" font-family="Helvetica,sans-Serif" font-size="10.00">Apps/LegacyModeExample.cpp</text>
</a>
</g>
</g>
<!-- Node6&#45;&gt;Node10 -->
<g id="edge9_Node000006_Node000010" class="edge">
<title>Node6&#45;&gt;Node10</title>
<g id="a_edge9_Node000006_Node000010"><a xlink:title=" ">
<path fill="none" stroke="#63b8ff" d="M840.44,-67.95C804.69,-55.35 751,-36.43 719.45,-25.31"/>
<polygon fill="#63b8ff" stroke="#63b8ff" points="838.9,-71.12 849.49,-71.14 841.22,-64.52 838.9,-71.12"/>
</a>
</g>
</g>
<!-- Node11 -->
<g id="Node000011" class="node">
<title>Node11</title>
<g id="a_Node000011"><a xlink:href="OscProbCalcerComparison_8cpp.html" target="_top" xlink:title=" ">
<polygon fill="white" stroke="#666666" points="965.38,-24.88 788.12,-24.88 788.12,-5.63 965.38,-5.63 965.38,-24.88"/>
<text text-anchor="middle" x="876.75" y="-11.38" font-family="Helvetica,sans-Serif" font-size="10.00">Apps/OscProbCalcerComparison.cpp</text>
</a>
</g>
</g>
<!-- Node6&#45;&gt;Node11 -->
<g id="edge10_Node000006_Node000011" class="edge">
<title>Node6&#45;&gt;Node11</title>
<g id="a_edge10_Node000006_Node000011"><a xlink:title=" ">
<path fill="none" stroke="#63b8ff" d="M876.75,-60.27C876.75,-48.44 876.75,-34.16 876.75,-25.14"/>
<polygon fill="#63b8ff" stroke="#63b8ff" points="873.25,-60.27 876.75,-70.27 880.25,-60.27 873.25,-60.27"/>
</a>
</g>
</g>
<!-- Node12 -->
<g id="Node000012" class="node">
<title>Node12</title>
<g id="a_Node000012"><a xlink:href="SingleOscillator_8cpp.html" target="_top" xlink:title=" ">
<polygon fill="white" stroke="#666666" points="1111.62,-24.88 983.88,-24.88 983.88,-5.63 1111.62,-5.63 1111.62,-24.88"/>
<text text-anchor="middle" x="1047.75" y="-11.38" font-family="Helvetica,sans-Serif" font-size="10.00">Apps/SingleOscillator.cpp</text>
</a>
</g>
</g>
<!-- Node6&#45;&gt;Node12 -->
<g id="edge11_Node000006_Node000012" class="edge">
<title>Node6&#45;&gt;Node12</title>
<g id="a_edge11_Node000006_Node000012"><a xlink:title=" ">
<path fill="none" stroke="#63b8ff" d="M911.54,-67.63C944.94,-55.03 994.51,-36.33 1023.74,-25.31"/>
<polygon fill="#63b8ff" stroke="#63b8ff" points="910.42,-64.31 902.3,-71.11 912.9,-70.86 910.42,-64.31"/>
</a>
</g>
</g>
<!-- Node13&#45;&gt;Node5 -->
<g id="edge14_Node000013_Node000005" class="edge">
<title>Node13&#45;&gt;Node5</title>
<g id="a_edge14_Node000013_Node000005"><a xlink:title=" ">
<path fill="none" stroke="#63b8ff" d="M1154.87,-58.87C1168.68,-47.3 1184.87,-33.74 1195.22,-25.07"/>
<polygon fill="#63b8ff" stroke="#63b8ff" points="1152.8,-56.04 1147.38,-65.14 1157.3,-61.4 1152.8,-56.04"/>
</a>
</g>
</g>
<!-- Node14 -->
<g id="Node000014" class="node">
<title>Node14</title>
<g id="a_Node000014"><a xlink:href="OscillatorSubSampling_8cpp.html" target="_top" xlink:title=" ">
<polygon fill="white" stroke="#666666" points="1418.12,-30.5 1299.38,-30.5 1299.38,0 1418.12,0 1418.12,-30.5"/>
<text text-anchor="start" x="1307.38" y="-17" font-family="Helvetica,sans-Serif" font-size="10.00">Oscillator/OscillatorSub</text>
<text text-anchor="middle" x="1358.75" y="-5.75" font-family="Helvetica,sans-Serif" font-size="10.00">Sampling.cpp</text>
</a>
</g>
</g>
<!-- Node13&#45;&gt;Node14 -->
<g id="edge15_Node000013_Node000014" class="edge">
<title>Node13&#45;&gt;Node14</title>
<g id="a_edge15_Node000013_Node000014"><a xlink:title=" ">
<path fill="none" stroke="#63b8ff" d="M1192.1,-62.99C1228.06,-52.9 1272.54,-40.43 1306.5,-30.9"/>
<polygon fill="#63b8ff" stroke="#63b8ff" points="1191.37,-59.55 1182.69,-65.62 1193.26,-66.29 1191.37,-59.55"/>
</a>
</g>
</g>
<!-- Node15&#45;&gt;Node5 -->
<g id="edge17_Node000015_Node000005" class="edge">
<title>Node15&#45;&gt;Node5</title>
<g id="a_edge17_Node000015_Node000005"><a xlink:title=" ">
<path fill="none" stroke="#63b8ff" d="M1262.8,-64.67C1248.08,-52.17 1228.21,-35.31 1216.23,-25.14"/>
<polygon fill="#63b8ff" stroke="#63b8ff" points="1260.14,-67 1270.03,-70.8 1264.67,-61.66 1260.14,-67"/>
</a>
</g>
</g>
<!-- Node16 -->
<g id="Node000016" class="node">
<title>Node16</title>
<g id="a_Node000016"><a xlink:href="OscillatorUnbinned_8cpp.html" target="_top" xlink:title=" ">
<polygon fill="white" stroke="#666666" points="1597.12,-24.88 1436.38,-24.88 1436.38,-5.63 1597.12,-5.63 1597.12,-24.88"/>
<text text-anchor="middle" x="1516.75" y="-11.38" font-family="Helvetica,sans-Serif" font-size="10.00">Oscillator/OscillatorUnbinned.cpp</text>
</a>
</g>
</g>
<!-- Node15&#45;&gt;Node16 -->
<g id="edge18_Node000015_Node000016" class="edge">
<title>Node15&#45;&gt;Node16</title>
<g id="a_edge18_Node000015_Node000016"><a xlink:title=" ">
<path fill="none" stroke="#63b8ff" d="M1326.02,-68.6C1371.89,-56.01 1442.54,-36.62 1483.75,-25.31"/>
<polygon fill="#63b8ff" stroke="#63b8ff" points="1325.1,-65.22 1316.38,-71.24 1326.95,-71.97 1325.1,-65.22"/>
</a>
</g>
</g>
</g>
</svg>
