<?xml version="1.0" encoding="UTF-8" standalone="no"?>
<!DOCTYPE svg PUBLIC "-//W3C//DTD SVG 1.1//EN"
 "http://www.w3.org/Graphics/SVG/1.1/DTD/svg11.dtd">
<!-- Generated by graphviz version 9.0.0 (20230911.1827)
 -->
<!-- Title: Oscillator/OscillatorUnbinned.h Pages: 1 -->
<svg width="338pt" height="83pt"
 viewBox="0.00 0.00 338.25 82.50" xmlns="http://www.w3.org/2000/svg" xmlns:xlink="http://www.w3.org/1999/xlink">
<g id="graph0" class="graph" transform="scale(1 1) rotate(0) translate(4 78.5)">
<title>Oscillator/OscillatorUnbinned.h</title>
<!-- Node1 -->
<g id="Node000001" class="node">
<title>Node1</title>
<g id="a_Node000001"><a xlink:title=" ">
<polygon fill="#999999" stroke="#666666" points="238,-74.5 87.75,-74.5 87.75,-55.25 238,-55.25 238,-74.5"/>
<text text-anchor="middle" x="162.88" y="-61" font-family="Helvetica,sans-Serif" font-size="10.00">Oscillator/OscillatorUnbinned.h</text>
</a>
</g>
</g>
<!-- Node2 -->
<g id="Node000002" class="node">
<title>Node2</title>
<g id="a_Node000002"><a xlink:href="OscillatorFactory_8cpp.html" target="_top" xlink:title=" ">
<polygon fill="white" stroke="#666666" points="151.75,-19.25 0,-19.25 0,0 151.75,0 151.75,-19.25"/>
<text text-anchor="middle" x="75.88" y="-5.75" font-family="Helvetica,sans-Serif" font-size="10.00">Oscillator/OscillatorFactory.cpp</text>
</a>
</g>
</g>
<!-- Node1&#45;&gt;Node2 -->
<g id="edge1_Node000001_Node000002" class="edge">
<title>Node1&#45;&gt;Node2</title>
<g id="a_edge1_Node000001_Node000002"><a xlink:title=" ">
<path fill="none" stroke="#63b8ff" d="M138.69,-49.07C123.3,-39.65 103.85,-27.75 90.71,-19.7"/>
<polygon fill="#63b8ff" stroke="#63b8ff" points="136.47,-51.82 146.83,-54.05 140.12,-45.85 136.47,-51.82"/>
</a>
</g>
</g>
<!-- Node3 -->
<g id="Node000003" class="node">
<title>Node3</title>
<g id="a_Node000003"><a xlink:href="OscillatorUnbinned_8cpp.html" target="_top" xlink:title=" ">
<polygon fill="white" stroke="#666666" points="330.25,-19.25 169.5,-19.25 169.5,0 330.25,0 330.25,-19.25"/>
<text text-anchor="middle" x="249.88" y="-5.75" font-family="Helvetica,sans-Serif" font-size="10.00">Oscillator/OscillatorUnbinned.cpp</text>
</a>
</g>
</g>
<!-- Node1&#45;&gt;Node3 -->
<g id="edge2_Node000001_Node000003" class="edge">
<title>Node1&#45;&gt;Node3</title>
<g id="a_edge2_Node000001_Node000003"><a xlink:title=" ">
<path fill="none" stroke="#63b8ff" d="M187.06,-49.07C202.45,-39.65 221.9,-27.75 235.04,-19.7"/>
<polygon fill="#63b8ff" stroke="#63b8ff" points="185.63,-45.85 178.92,-54.05 189.28,-51.82 185.63,-45.85"/>
</a>
</g>
</g>
</g>
</svg>
