<?xml version="1.0" encoding="UTF-8" standalone="no"?>
<!DOCTYPE svg PUBLIC "-//W3C//DTD SVG 1.1//EN"
 "http://www.w3.org/Graphics/SVG/1.1/DTD/svg11.dtd">
<!-- Generated by graphviz version 9.0.0 (20230911.1827)
 -->
<!-- Title: Oscillator/OscillatorBase.cpp Pages: 1 -->
<svg width="473pt" height="271pt"
 viewBox="0.00 0.00 472.62 270.75" xmlns="http://www.w3.org/2000/svg" xmlns:xlink="http://www.w3.org/1999/xlink">
<g id="graph0" class="graph" transform="scale(1 1) rotate(0) translate(4 266.75)">
<title>Oscillator/OscillatorBase.cpp</title>
<!-- Node1 -->
<g id="Node000001" class="node">
<title>Node1</title>
<g id="a_Node000001"><a xlink:title=" ">
<polygon fill="#999999" stroke="#666666" points="404.88,-262.75 262.88,-262.75 262.88,-243.5 404.88,-243.5 404.88,-262.75"/>
<text text-anchor="middle" x="333.88" y="-249.25" font-family="Helvetica,sans-Serif" font-size="10.00">Oscillator/OscillatorBase.cpp</text>
</a>
</g>
</g>
<!-- Node2 -->
<g id="Node000002" class="node">
<title>Node2</title>
<g id="a_Node000002"><a xlink:href="OscillatorBase_8h.html" target="_top" xlink:title=" ">
<polygon fill="white" stroke="#666666" points="240.62,-201.88 109.12,-201.88 109.12,-182.62 240.62,-182.62 240.62,-201.88"/>
<text text-anchor="middle" x="174.88" y="-188.38" font-family="Helvetica,sans-Serif" font-size="10.00">Oscillator/OscillatorBase.h</text>
</a>
</g>
</g>
<!-- Node1&#45;&gt;Node2 -->
<g id="edge1_Node000001_Node000002" class="edge">
<title>Node1&#45;&gt;Node2</title>
<g id="a_edge1_Node000001_Node000002"><a xlink:title=" ">
<path fill="none" stroke="#63b8ff" d="M309.38,-243.05C282.77,-233.2 240.03,-217.38 209.88,-206.21"/>
<polygon fill="#63b8ff" stroke="#63b8ff" points="211.41,-203.05 200.82,-202.86 208.98,-209.61 211.41,-203.05"/>
</a>
</g>
</g>
<!-- Node10 -->
<g id="Node000010" class="node">
<title>Node10</title>
<g id="a_Node000010"><a xlink:title=" ">
<polygon fill="#e0e0e0" stroke="#999999" points="464.62,-19.25 411.12,-19.25 411.12,0 464.62,0 464.62,-19.25"/>
<text text-anchor="middle" x="437.88" y="-5.75" font-family="Helvetica,sans-Serif" font-size="10.00">iostream</text>
</a>
</g>
</g>
<!-- Node1&#45;&gt;Node10 -->
<g id="edge18_Node000001_Node000010" class="edge">
<title>Node1&#45;&gt;Node10</title>
<g id="a_edge18_Node000001_Node000010"><a xlink:title=" ">
<path fill="none" stroke="#63b8ff" d="M367.45,-243.09C385.72,-236.36 406.97,-225.21 418.88,-207.5 455.88,-152.45 447.86,-68.39 441.69,-30.44"/>
<polygon fill="#63b8ff" stroke="#63b8ff" points="445.2,-30.17 440,-20.93 438.31,-31.39 445.2,-30.17"/>
</a>
</g>
</g>
<!-- Node12 -->
<g id="Node000012" class="node">
<title>Node12</title>
<g id="a_Node000012"><a xlink:href="OscProbCalcerFactory_8h.html" target="_top" xlink:title=" ">
<polygon fill="white" stroke="#666666" points="409.38,-207.5 258.38,-207.5 258.38,-177 409.38,-177 409.38,-207.5"/>
<text text-anchor="start" x="266.38" y="-194" font-family="Helvetica,sans-Serif" font-size="10.00">OscProbCalcer/OscProbCalcer</text>
<text text-anchor="middle" x="333.88" y="-182.75" font-family="Helvetica,sans-Serif" font-size="10.00">Factory.h</text>
</a>
</g>
</g>
<!-- Node1&#45;&gt;Node12 -->
<g id="edge16_Node000001_Node000012" class="edge">
<title>Node1&#45;&gt;Node12</title>
<g id="a_edge16_Node000001_Node000012"><a xlink:title=" ">
<path fill="none" stroke="#63b8ff" d="M333.88,-243.18C333.88,-236.73 333.88,-227.66 333.88,-219.01"/>
<polygon fill="#63b8ff" stroke="#63b8ff" points="337.38,-219.3 333.88,-209.3 330.38,-219.3 337.38,-219.3"/>
</a>
</g>
</g>
<!-- Node3 -->
<g id="Node000003" class="node">
<title>Node3</title>
<g id="a_Node000003"><a xlink:href="OscProbCalcerBase_8h.html" target="_top" xlink:title=" ">
<polygon fill="white" stroke="#666666" points="379.38,-141 228.38,-141 228.38,-110.5 379.38,-110.5 379.38,-141"/>
<text text-anchor="start" x="236.38" y="-127.5" font-family="Helvetica,sans-Serif" font-size="10.00">OscProbCalcer/OscProbCalcer</text>
<text text-anchor="middle" x="303.88" y="-116.25" font-family="Helvetica,sans-Serif" font-size="10.00">Base.h</text>
</a>
</g>
</g>
<!-- Node2&#45;&gt;Node3 -->
<g id="edge2_Node000002_Node000003" class="edge">
<title>Node2&#45;&gt;Node3</title>
<g id="a_edge2_Node000002_Node000003"><a xlink:title=" ">
<path fill="none" stroke="#63b8ff" d="M193.08,-182.15C211.6,-172.89 240.86,-158.26 264.67,-146.35"/>
<polygon fill="#63b8ff" stroke="#63b8ff" points="266.09,-149.56 273.47,-141.95 262.96,-143.29 266.09,-149.56"/>
</a>
</g>
</g>
<!-- Node4 -->
<g id="Node000004" class="node">
<title>Node4</title>
<g id="a_Node000004"><a xlink:href="OscillatorConstants_8h.html" target="_top" xlink:title=" ">
<polygon fill="white" stroke="#666666" points="285,-74.5 128.75,-74.5 128.75,-55.25 285,-55.25 285,-74.5"/>
<text text-anchor="middle" x="206.88" y="-61" font-family="Helvetica,sans-Serif" font-size="10.00">Constants/OscillatorConstants.h</text>
</a>
</g>
</g>
<!-- Node2&#45;&gt;Node4 -->
<g id="edge14_Node000002_Node000004" class="edge">
<title>Node2&#45;&gt;Node4</title>
<g id="a_edge14_Node000002_Node000004"><a xlink:title=" ">
<path fill="none" stroke="#63b8ff" d="M177.18,-182.23C182.3,-162.17 194.73,-113.45 201.78,-85.83"/>
<polygon fill="#63b8ff" stroke="#63b8ff" points="205.14,-86.83 204.22,-76.28 198.36,-85.1 205.14,-86.83"/>
</a>
</g>
</g>
<!-- Node6 -->
<g id="Node000006" class="node">
<title>Node6</title>
<g id="a_Node000006"><a xlink:title=" ">
<polygon fill="#e0e0e0" stroke="#999999" points="85.75,-19.25 0,-19.25 0,0 85.75,0 85.75,-19.25"/>
<text text-anchor="middle" x="42.88" y="-5.75" font-family="Helvetica,sans-Serif" font-size="10.00">yaml&#45;cpp/yaml.h</text>
</a>
</g>
</g>
<!-- Node2&#45;&gt;Node6 -->
<g id="edge15_Node000002_Node000006" class="edge">
<title>Node2&#45;&gt;Node6</title>
<g id="a_edge15_Node000002_Node000006"><a xlink:title=" ">
<path fill="none" stroke="#63b8ff" d="M168.15,-182.19C153.62,-162.6 118.22,-114.79 88.88,-74.5 77.7,-59.16 65.11,-41.67 55.93,-28.87"/>
<polygon fill="#63b8ff" stroke="#63b8ff" points="58.95,-27.06 50.28,-20.97 53.26,-31.14 58.95,-27.06"/>
</a>
</g>
</g>
<!-- Node3&#45;&gt;Node4 -->
<g id="edge3_Node000003_Node000004" class="edge">
<title>Node3&#45;&gt;Node4</title>
<g id="a_edge3_Node000003_Node000004"><a xlink:title=" ">
<path fill="none" stroke="#63b8ff" d="M279.9,-110.2C265.13,-101.23 246.24,-89.77 231.38,-80.75"/>
<polygon fill="#63b8ff" stroke="#63b8ff" points="233.49,-77.93 223.12,-75.74 229.86,-83.92 233.49,-77.93"/>
</a>
</g>
</g>
<!-- Node3&#45;&gt;Node6 -->
<g id="edge13_Node000003_Node000006" class="edge">
<title>Node3&#45;&gt;Node6</title>
<g id="a_edge13_Node000003_Node000006"><a xlink:title=" ">
<path fill="none" stroke="#63b8ff" d="M228.21,-111.7C193.87,-103.89 153.51,-91.99 119.88,-74.5 96.39,-62.29 73.59,-41.98 58.97,-27.55"/>
<polygon fill="#63b8ff" stroke="#63b8ff" points="61.56,-25.19 52.05,-20.52 56.57,-30.1 61.56,-25.19"/>
</a>
</g>
</g>
<!-- Node9 -->
<g id="Node000009" class="node">
<title>Node9</title>
<g id="a_Node000009"><a xlink:title=" ">
<polygon fill="#e0e0e0" stroke="#999999" points="392.88,-19.25 352.88,-19.25 352.88,0 392.88,0 392.88,-19.25"/>
<text text-anchor="middle" x="372.88" y="-5.75" font-family="Helvetica,sans-Serif" font-size="10.00">string</text>
</a>
</g>
</g>
<!-- Node3&#45;&gt;Node9 -->
<g id="edge12_Node000003_Node000009" class="edge">
<title>Node3&#45;&gt;Node9</title>
<g id="a_edge12_Node000003_Node000009"><a xlink:title=" ">
<path fill="none" stroke="#63b8ff" d="M312.61,-110.3C325.02,-89.78 347.74,-52.2 361.46,-29.5"/>
<polygon fill="#63b8ff" stroke="#63b8ff" points="364.43,-31.36 366.61,-20.99 358.44,-27.74 364.43,-31.36"/>
</a>
</g>
</g>
<!-- Node11 -->
<g id="Node000011" class="node">
<title>Node11</title>
<g id="a_Node000011"><a xlink:title=" ">
<polygon fill="#e0e0e0" stroke="#999999" points="334.38,-19.25 291.38,-19.25 291.38,0 334.38,0 334.38,-19.25"/>
<text text-anchor="middle" x="312.88" y="-5.75" font-family="Helvetica,sans-Serif" font-size="10.00">vector</text>
</a>
</g>
</g>
<!-- Node3&#45;&gt;Node11 -->
<g id="edge11_Node000003_Node000011" class="edge">
<title>Node3&#45;&gt;Node11</title>
<g id="a_edge11_Node000003_Node000011"><a xlink:title=" ">
<path fill="none" stroke="#63b8ff" d="M305.01,-110.3C306.6,-90.25 309.46,-53.9 311.26,-31.07"/>
<polygon fill="#63b8ff" stroke="#63b8ff" points="314.74,-31.45 312.04,-21.21 307.77,-30.9 314.74,-31.45"/>
</a>
</g>
</g>
<!-- Node5 -->
<g id="Node000005" class="node">
<title>Node5</title>
<g id="a_Node000005"><a xlink:title=" ">
<polygon fill="#e0e0e0" stroke="#999999" points="149.5,-19.25 104.25,-19.25 104.25,0 149.5,0 149.5,-19.25"/>
<text text-anchor="middle" x="126.88" y="-5.75" font-family="Helvetica,sans-Serif" font-size="10.00">math.h</text>
</a>
</g>
</g>
<!-- Node4&#45;&gt;Node5 -->
<g id="edge4_Node000004_Node000005" class="edge">
<title>Node4&#45;&gt;Node5</title>
<g id="a_edge4_Node000004_Node000005"><a xlink:title=" ">
<path fill="none" stroke="#63b8ff" d="M193.3,-54.84C181.47,-46.96 164.04,-35.36 150,-26.02"/>
<polygon fill="#63b8ff" stroke="#63b8ff" points="152.04,-23.17 141.77,-20.54 148.16,-29 152.04,-23.17"/>
</a>
</g>
</g>
<!-- Node4&#45;&gt;Node6 -->
<g id="edge5_Node000004_Node000006" class="edge">
<title>Node4&#45;&gt;Node6</title>
<g id="a_edge5_Node000004_Node000006"><a xlink:title=" ">
<path fill="none" stroke="#63b8ff" d="M179.05,-54.84C152.31,-46.16 111.66,-32.96 81.73,-23.24"/>
<polygon fill="#63b8ff" stroke="#63b8ff" points="82.86,-19.93 72.27,-20.17 80.7,-26.59 82.86,-19.93"/>
</a>
</g>
</g>
<!-- Node7 -->
<g id="Node000007" class="node">
<title>Node7</title>
<g id="a_Node000007"><a xlink:title=" ">
<polygon fill="#e0e0e0" stroke="#999999" points="212.5,-19.25 167.25,-19.25 167.25,0 212.5,0 212.5,-19.25"/>
<text text-anchor="middle" x="189.88" y="-5.75" font-family="Helvetica,sans-Serif" font-size="10.00">TFile.h</text>
</a>
</g>
</g>
<!-- Node4&#45;&gt;Node7 -->
<g id="edge6_Node000004_Node000007" class="edge">
<title>Node4&#45;&gt;Node7</title>
<g id="a_edge6_Node000004_Node000007"><a xlink:title=" ">
<path fill="none" stroke="#63b8ff" d="M204.07,-55.08C201.94,-48.42 198.93,-38.99 196.23,-30.53"/>
<polygon fill="#63b8ff" stroke="#63b8ff" points="199.58,-29.51 193.2,-21.05 192.91,-31.64 199.58,-29.51"/>
</a>
</g>
</g>
<!-- Node8 -->
<g id="Node000008" class="node">
<title>Node8</title>
<g id="a_Node000008"><a xlink:title=" ">
<polygon fill="#e0e0e0" stroke="#999999" points="273,-19.25 230.75,-19.25 230.75,0 273,0 273,-19.25"/>
<text text-anchor="middle" x="251.88" y="-5.75" font-family="Helvetica,sans-Serif" font-size="10.00">TH1.h</text>
</a>
</g>
</g>
<!-- Node4&#45;&gt;Node8 -->
<g id="edge7_Node000004_Node000008" class="edge">
<title>Node4&#45;&gt;Node8</title>
<g id="a_edge7_Node000004_Node000008"><a xlink:title=" ">
<path fill="none" stroke="#63b8ff" d="M214.31,-55.08C220.46,-47.8 229.39,-37.23 237,-28.23"/>
<polygon fill="#63b8ff" stroke="#63b8ff" points="239.52,-30.66 243.31,-20.77 234.18,-26.14 239.52,-30.66"/>
</a>
</g>
</g>
<!-- Node4&#45;&gt;Node9 -->
<g id="edge8_Node000004_Node000009" class="edge">
<title>Node4&#45;&gt;Node9</title>
<g id="a_edge8_Node000004_Node000009"><a xlink:title=" ">
<path fill="none" stroke="#63b8ff" d="M235.03,-54.84C264.56,-45.37 310.85,-30.52 341.52,-20.68"/>
<polygon fill="#63b8ff" stroke="#63b8ff" points="342.55,-24.03 351.01,-17.64 340.41,-17.36 342.55,-24.03"/>
</a>
</g>
</g>
<!-- Node4&#45;&gt;Node10 -->
<g id="edge9_Node000004_Node000010" class="edge">
<title>Node4&#45;&gt;Node10</title>
<g id="a_edge9_Node000004_Node000010"><a xlink:title=" ">
<path fill="none" stroke="#63b8ff" d="M247.24,-54.76C284.38,-46.35 341.29,-33.39 399.81,-19.72"/>
<polygon fill="#63b8ff" stroke="#63b8ff" points="400.34,-23.19 409.28,-17.5 398.75,-16.37 400.34,-23.19"/>
</a>
</g>
</g>
<!-- Node4&#45;&gt;Node11 -->
<g id="edge10_Node000004_Node000011" class="edge">
<title>Node4&#45;&gt;Node11</title>
<g id="a_edge10_Node000004_Node000011"><a xlink:title=" ">
<path fill="none" stroke="#63b8ff" d="M224.86,-54.84C241.23,-46.62 265.66,-34.34 284.64,-24.81"/>
<polygon fill="#63b8ff" stroke="#63b8ff" points="286.09,-28 293.45,-20.38 282.95,-21.74 286.09,-28"/>
</a>
</g>
</g>
<!-- Node12&#45;&gt;Node3 -->
<g id="edge17_Node000012_Node000003" class="edge">
<title>Node12&#45;&gt;Node3</title>
<g id="a_edge17_Node000012_Node000003"><a xlink:title=" ">
<path fill="none" stroke="#63b8ff" d="M327.07,-176.61C323.62,-169.19 319.33,-159.97 315.38,-151.49"/>
<polygon fill="#63b8ff" stroke="#63b8ff" points="318.68,-150.29 311.29,-142.7 312.34,-153.24 318.68,-150.29"/>
</a>
</g>
</g>
</g>
</svg>
