<?xml version="1.0" encoding="UTF-8" standalone="no"?>
<!DOCTYPE svg PUBLIC "-//W3C//DTD SVG 1.1//EN"
 "http://www.w3.org/Graphics/SVG/1.1/DTD/svg11.dtd">
<!-- Generated by graphviz version 9.0.0 (20230911.1827)
 -->
<!-- Title: Constants/OscillatorConstants.h Pages: 1 -->
<svg width="472pt" height="83pt"
 viewBox="0.00 0.00 472.12 82.50" xmlns="http://www.w3.org/2000/svg" xmlns:xlink="http://www.w3.org/1999/xlink">
<g id="graph0" class="graph" transform="scale(1 1) rotate(0) translate(4 78.5)">
<title>Constants/OscillatorConstants.h</title>
<!-- Node1 -->
<g id="Node000001" class="node">
<title>Node1</title>
<g id="a_Node000001"><a xlink:title=" ">
<polygon fill="#999999" stroke="#666666" points="330.75,-74.5 174.5,-74.5 174.5,-55.25 330.75,-55.25 330.75,-74.5"/>
<text text-anchor="middle" x="252.62" y="-61" font-family="Helvetica,sans-Serif" font-size="10.00">Constants/OscillatorConstants.h</text>
</a>
</g>
</g>
<!-- Node2 -->
<g id="Node000002" class="node">
<title>Node2</title>
<g id="a_Node000002"><a xlink:title=" ">
<polygon fill="#e0e0e0" stroke="#999999" points="45.25,-19.25 0,-19.25 0,0 45.25,0 45.25,-19.25"/>
<text text-anchor="middle" x="22.62" y="-5.75" font-family="Helvetica,sans-Serif" font-size="10.00">math.h</text>
</a>
</g>
</g>
<!-- Node1&#45;&gt;Node2 -->
<g id="edge1_Node000001_Node000002" class="edge">
<title>Node1&#45;&gt;Node2</title>
<g id="a_edge1_Node000001_Node000002"><a xlink:title=" ">
<path fill="none" stroke="#63b8ff" d="M210.02,-54.81C172.19,-46.64 115.16,-34.04 56.61,-19.66"/>
<polygon fill="#63b8ff" stroke="#63b8ff" points="57.68,-16.32 47.14,-17.32 56.01,-23.12 57.68,-16.32"/>
</a>
</g>
</g>
<!-- Node3 -->
<g id="Node000003" class="node">
<title>Node3</title>
<g id="a_Node000003"><a xlink:title=" ">
<polygon fill="#e0e0e0" stroke="#999999" points="149.5,-19.25 63.75,-19.25 63.75,0 149.5,0 149.5,-19.25"/>
<text text-anchor="middle" x="106.62" y="-5.75" font-family="Helvetica,sans-Serif" font-size="10.00">yaml&#45;cpp/yaml.h</text>
</a>
</g>
</g>
<!-- Node1&#45;&gt;Node3 -->
<g id="edge2_Node000001_Node000003" class="edge">
<title>Node1&#45;&gt;Node3</title>
<g id="a_edge2_Node000001_Node000003"><a xlink:title=" ">
<path fill="none" stroke="#63b8ff" d="M227.86,-54.84C204.37,-46.27 168.81,-33.31 142.27,-23.63"/>
<polygon fill="#63b8ff" stroke="#63b8ff" points="143.53,-20.36 132.94,-20.22 141.13,-26.94 143.53,-20.36"/>
</a>
</g>
</g>
<!-- Node4 -->
<g id="Node000004" class="node">
<title>Node4</title>
<g id="a_Node000004"><a xlink:title=" ">
<polygon fill="#e0e0e0" stroke="#999999" points="213.25,-19.25 168,-19.25 168,0 213.25,0 213.25,-19.25"/>
<text text-anchor="middle" x="190.62" y="-5.75" font-family="Helvetica,sans-Serif" font-size="10.00">TFile.h</text>
</a>
</g>
</g>
<!-- Node1&#45;&gt;Node4 -->
<g id="edge3_Node000001_Node000004" class="edge">
<title>Node1&#45;&gt;Node4</title>
<g id="a_edge3_Node000001_Node000004"><a xlink:title=" ">
<path fill="none" stroke="#63b8ff" d="M242.11,-54.84C233.24,-47.22 220.31,-36.12 209.64,-26.95"/>
<polygon fill="#63b8ff" stroke="#63b8ff" points="212,-24.37 202.14,-20.51 207.44,-29.68 212,-24.37"/>
</a>
</g>
</g>
<!-- Node5 -->
<g id="Node000005" class="node">
<title>Node5</title>
<g id="a_Node000005"><a xlink:title=" ">
<polygon fill="#e0e0e0" stroke="#999999" points="273.75,-19.25 231.5,-19.25 231.5,0 273.75,0 273.75,-19.25"/>
<text text-anchor="middle" x="252.62" y="-5.75" font-family="Helvetica,sans-Serif" font-size="10.00">TH1.h</text>
</a>
</g>
</g>
<!-- Node1&#45;&gt;Node5 -->
<g id="edge4_Node000001_Node000005" class="edge">
<title>Node1&#45;&gt;Node5</title>
<g id="a_edge4_Node000001_Node000005"><a xlink:title=" ">
<path fill="none" stroke="#63b8ff" d="M252.62,-55.08C252.62,-48.57 252.62,-39.42 252.62,-31.12"/>
<polygon fill="#63b8ff" stroke="#63b8ff" points="256.13,-31.12 252.63,-21.12 249.13,-31.12 256.13,-31.12"/>
</a>
</g>
</g>
<!-- Node6 -->
<g id="Node000006" class="node">
<title>Node6</title>
<g id="a_Node000006"><a xlink:title=" ">
<polygon fill="#e0e0e0" stroke="#999999" points="331.62,-19.25 291.62,-19.25 291.62,0 331.62,0 331.62,-19.25"/>
<text text-anchor="middle" x="311.62" y="-5.75" font-family="Helvetica,sans-Serif" font-size="10.00">string</text>
</a>
</g>
</g>
<!-- Node1&#45;&gt;Node6 -->
<g id="edge5_Node000001_Node000006" class="edge">
<title>Node1&#45;&gt;Node6</title>
<g id="a_edge5_Node000001_Node000006"><a xlink:title=" ">
<path fill="none" stroke="#63b8ff" d="M262.63,-54.84C270.99,-47.3 283.12,-36.35 293.23,-27.23"/>
<polygon fill="#63b8ff" stroke="#63b8ff" points="295.56,-29.84 300.64,-20.54 290.87,-24.64 295.56,-29.84"/>
</a>
</g>
</g>
<!-- Node7 -->
<g id="Node000007" class="node">
<title>Node7</title>
<g id="a_Node000007"><a xlink:title=" ">
<polygon fill="#e0e0e0" stroke="#999999" points="403.38,-19.25 349.88,-19.25 349.88,0 403.38,0 403.38,-19.25"/>
<text text-anchor="middle" x="376.62" y="-5.75" font-family="Helvetica,sans-Serif" font-size="10.00">iostream</text>
</a>
</g>
</g>
<!-- Node1&#45;&gt;Node7 -->
<g id="edge6_Node000001_Node000007" class="edge">
<title>Node1&#45;&gt;Node7</title>
<g id="a_edge6_Node000001_Node000007"><a xlink:title=" ">
<path fill="none" stroke="#63b8ff" d="M273.66,-54.84C293.26,-46.43 322.73,-33.77 345.13,-24.15"/>
<polygon fill="#63b8ff" stroke="#63b8ff" points="346.29,-27.46 354.1,-20.3 343.53,-21.03 346.29,-27.46"/>
</a>
</g>
</g>
<!-- Node8 -->
<g id="Node000008" class="node">
<title>Node8</title>
<g id="a_Node000008"><a xlink:title=" ">
<polygon fill="#e0e0e0" stroke="#999999" points="464.12,-19.25 421.12,-19.25 421.12,0 464.12,0 464.12,-19.25"/>
<text text-anchor="middle" x="442.62" y="-5.75" font-family="Helvetica,sans-Serif" font-size="10.00">vector</text>
</a>
</g>
</g>
<!-- Node1&#45;&gt;Node8 -->
<g id="edge7_Node000001_Node000008" class="edge">
<title>Node1&#45;&gt;Node8</title>
<g id="a_edge7_Node000001_Node000008"><a xlink:title=" ">
<path fill="none" stroke="#63b8ff" d="M285.43,-54.81C315.52,-46.47 361.59,-33.67 409.72,-20.06"/>
<polygon fill="#63b8ff" stroke="#63b8ff" points="410.55,-23.46 419.22,-17.37 408.64,-16.73 410.55,-23.46"/>
</a>
</g>
</g>
</g>
</svg>
