<?xml version="1.0" encoding="UTF-8" standalone="no"?>
<!DOCTYPE svg PUBLIC "-//W3C//DTD SVG 1.1//EN"
 "http://www.w3.org/Graphics/SVG/1.1/DTD/svg11.dtd">
<!-- Generated by graphviz version 9.0.0 (20230911.1827)
 -->
<!-- Title: Constants/OscillatorConstants.h Pages: 1 -->
<svg width="367pt" height="83pt"
 viewBox="0.00 0.00 367.12 82.50" xmlns="http://www.w3.org/2000/svg" xmlns:xlink="http://www.w3.org/1999/xlink">
<g id="graph0" class="graph" transform="scale(1 1) rotate(0) translate(4 78.5)">
<title>Constants/OscillatorConstants.h</title>
<!-- Node1 -->
<g id="Node000001" class="node">
<title>Node1</title>
<g id="a_Node000001"><a xlink:title=" ">
<polygon fill="#999999" stroke="#666666" points="254.75,-74.5 98.5,-74.5 98.5,-55.25 254.75,-55.25 254.75,-74.5"/>
<text text-anchor="middle" x="176.62" y="-61" font-family="Helvetica,sans-Serif" font-size="10.00">Constants/OscillatorConstants.h</text>
</a>
</g>
</g>
<!-- Node2 -->
<g id="Node000002" class="node">
<title>Node2</title>
<g id="a_Node000002"><a xlink:title=" ">
<polygon fill="#e0e0e0" stroke="#999999" points="45.25,-19.25 0,-19.25 0,0 45.25,0 45.25,-19.25"/>
<text text-anchor="middle" x="22.62" y="-5.75" font-family="Helvetica,sans-Serif" font-size="10.00">math.h</text>
</a>
</g>
</g>
<!-- Node1&#45;&gt;Node2 -->
<g id="edge1_Node000001_Node000002" class="edge">
<title>Node1&#45;&gt;Node2</title>
<g id="a_edge1_Node000001_Node000002"><a xlink:title=" ">
<path fill="none" stroke="#63b8ff" d="M150.5,-54.84C124.44,-45.83 84.31,-31.95 55.96,-22.15"/>
<polygon fill="#63b8ff" stroke="#63b8ff" points="57.38,-18.94 46.79,-18.98 55.1,-25.56 57.38,-18.94"/>
</a>
</g>
</g>
<!-- Node3 -->
<g id="Node000003" class="node">
<title>Node3</title>
<g id="a_Node000003"><a xlink:title=" ">
<polygon fill="#e0e0e0" stroke="#999999" points="108.25,-19.25 63,-19.25 63,0 108.25,0 108.25,-19.25"/>
<text text-anchor="middle" x="85.62" y="-5.75" font-family="Helvetica,sans-Serif" font-size="10.00">TFile.h</text>
</a>
</g>
</g>
<!-- Node1&#45;&gt;Node3 -->
<g id="edge2_Node000001_Node000003" class="edge">
<title>Node1&#45;&gt;Node3</title>
<g id="a_edge2_Node000001_Node000003"><a xlink:title=" ">
<path fill="none" stroke="#63b8ff" d="M161.19,-54.84C147.46,-46.81 127.13,-34.91 111.01,-25.48"/>
<polygon fill="#63b8ff" stroke="#63b8ff" points="112.84,-22.5 102.44,-20.47 109.31,-28.54 112.84,-22.5"/>
</a>
</g>
</g>
<!-- Node4 -->
<g id="Node000004" class="node">
<title>Node4</title>
<g id="a_Node000004"><a xlink:title=" ">
<polygon fill="#e0e0e0" stroke="#999999" points="168.75,-19.25 126.5,-19.25 126.5,0 168.75,0 168.75,-19.25"/>
<text text-anchor="middle" x="147.62" y="-5.75" font-family="Helvetica,sans-Serif" font-size="10.00">TH1.h</text>
</a>
</g>
</g>
<!-- Node1&#45;&gt;Node4 -->
<g id="edge3_Node000001_Node000004" class="edge">
<title>Node1&#45;&gt;Node4</title>
<g id="a_edge3_Node000001_Node000004"><a xlink:title=" ">
<path fill="none" stroke="#63b8ff" d="M171.84,-55.08C168.08,-48.19 162.72,-38.34 157.99,-29.66"/>
<polygon fill="#63b8ff" stroke="#63b8ff" points="161.1,-28.05 153.24,-20.94 154.95,-31.39 161.1,-28.05"/>
</a>
</g>
</g>
<!-- Node5 -->
<g id="Node000005" class="node">
<title>Node5</title>
<g id="a_Node000005"><a xlink:title=" ">
<polygon fill="#e0e0e0" stroke="#999999" points="226.62,-19.25 186.62,-19.25 186.62,0 226.62,0 226.62,-19.25"/>
<text text-anchor="middle" x="206.62" y="-5.75" font-family="Helvetica,sans-Serif" font-size="10.00">string</text>
</a>
</g>
</g>
<!-- Node1&#45;&gt;Node5 -->
<g id="edge4_Node000001_Node000005" class="edge">
<title>Node1&#45;&gt;Node5</title>
<g id="a_edge4_Node000001_Node000005"><a xlink:title=" ">
<path fill="none" stroke="#63b8ff" d="M181.58,-55.08C185.51,-48.11 191.14,-38.12 196.06,-29.37"/>
<polygon fill="#63b8ff" stroke="#63b8ff" points="198.96,-31.36 200.82,-20.93 192.86,-27.92 198.96,-31.36"/>
</a>
</g>
</g>
<!-- Node6 -->
<g id="Node000006" class="node">
<title>Node6</title>
<g id="a_Node000006"><a xlink:title=" ">
<polygon fill="#e0e0e0" stroke="#999999" points="298.38,-19.25 244.88,-19.25 244.88,0 298.38,0 298.38,-19.25"/>
<text text-anchor="middle" x="271.62" y="-5.75" font-family="Helvetica,sans-Serif" font-size="10.00">iostream</text>
</a>
</g>
</g>
<!-- Node1&#45;&gt;Node6 -->
<g id="edge5_Node000001_Node000006" class="edge">
<title>Node1&#45;&gt;Node6</title>
<g id="a_edge5_Node000001_Node000006"><a xlink:title=" ">
<path fill="none" stroke="#63b8ff" d="M192.74,-54.84C207.21,-46.73 228.7,-34.68 245.61,-25.21"/>
<polygon fill="#63b8ff" stroke="#63b8ff" points="247.1,-28.39 254.11,-20.44 243.68,-22.28 247.1,-28.39"/>
</a>
</g>
</g>
<!-- Node7 -->
<g id="Node000007" class="node">
<title>Node7</title>
<g id="a_Node000007"><a xlink:title=" ">
<polygon fill="#e0e0e0" stroke="#999999" points="359.12,-19.25 316.12,-19.25 316.12,0 359.12,0 359.12,-19.25"/>
<text text-anchor="middle" x="337.62" y="-5.75" font-family="Helvetica,sans-Serif" font-size="10.00">vector</text>
</a>
</g>
</g>
<!-- Node1&#45;&gt;Node7 -->
<g id="edge6_Node000001_Node000007" class="edge">
<title>Node1&#45;&gt;Node7</title>
<g id="a_edge6_Node000001_Node000007"><a xlink:title=" ">
<path fill="none" stroke="#63b8ff" d="M203.94,-54.84C231.94,-45.58 275.48,-31.18 305.21,-21.35"/>
<polygon fill="#63b8ff" stroke="#63b8ff" points="306.04,-24.76 314.43,-18.3 303.84,-18.11 306.04,-24.76"/>
</a>
</g>
</g>
</g>
</svg>
