<?xml version="1.0" encoding="UTF-8" standalone="no"?>
<!DOCTYPE svg PUBLIC "-//W3C//DTD SVG 1.1//EN"
 "http://www.w3.org/Graphics/SVG/1.1/DTD/svg11.dtd">
<!-- Generated by graphviz version 9.0.0 (20230911.1827)
 -->
<!-- Title: Constants/OscillatorConstants.h Pages: 1 -->
<svg width="2854pt" height="293pt"
 viewBox="0.00 0.00 2853.62 293.25" xmlns="http://www.w3.org/2000/svg" xmlns:xlink="http://www.w3.org/1999/xlink">
<g id="graph0" class="graph" transform="scale(1 1) rotate(0) translate(4 289.25)">
<title>Constants/OscillatorConstants.h</title>
<!-- Node1 -->
<g id="Node000001" class="node">
<title>Node1</title>
<g id="a_Node000001"><a xlink:title=" ">
<polygon fill="#999999" stroke="#666666" points="905.25,-285.25 749,-285.25 749,-266 905.25,-266 905.25,-285.25"/>
<text text-anchor="middle" x="827.12" y="-271.75" font-family="Helvetica,sans-Serif" font-size="10.00">Constants/OscillatorConstants.h</text>
</a>
</g>
</g>
<!-- Node2 -->
<g id="Node000002" class="node">
<title>Node2</title>
<g id="a_Node000002"><a xlink:href="Analysis_8cpp.html" target="_top" xlink:title=" ">
<polygon fill="white" stroke="#666666" points="96.25,-24.88 0,-24.88 0,-5.63 96.25,-5.63 96.25,-24.88"/>
<text text-anchor="middle" x="48.12" y="-11.38" font-family="Helvetica,sans-Serif" font-size="10.00">Apps/Analysis.cpp</text>
</a>
</g>
</g>
<!-- Node1&#45;&gt;Node2 -->
<g id="edge1_Node000001_Node000002" class="edge">
<title>Node1&#45;&gt;Node2</title>
<g id="a_edge1_Node000001_Node000002"><a xlink:title=" ">
<path fill="none" stroke="#63b8ff" d="M737.46,-269.53C633.25,-262.83 468.04,-249.56 409.12,-230 257.74,-179.75 101.17,-59.05 59.08,-25.21"/>
<polygon fill="#63b8ff" stroke="#63b8ff" points="737.2,-273.02 747.4,-270.16 737.64,-266.04 737.2,-273.02"/>
</a>
</g>
</g>
<!-- Node3 -->
<g id="Node000003" class="node">
<title>Node3</title>
<g id="a_Node000003"><a xlink:href="DragRace_8cpp.html" target="_top" xlink:title=" ">
<polygon fill="white" stroke="#666666" points="216.25,-24.88 114,-24.88 114,-5.63 216.25,-5.63 216.25,-24.88"/>
<text text-anchor="middle" x="165.12" y="-11.38" font-family="Helvetica,sans-Serif" font-size="10.00">Apps/DragRace.cpp</text>
</a>
</g>
</g>
<!-- Node1&#45;&gt;Node3 -->
<g id="edge2_Node000001_Node000003" class="edge">
<title>Node1&#45;&gt;Node3</title>
<g id="a_edge2_Node000001_Node000003"><a xlink:title=" ">
<path fill="none" stroke="#63b8ff" d="M737.37,-273.76C665.99,-270.56 564.61,-260.34 481.12,-230 344.8,-180.46 210.46,-59.25 174.48,-25.25"/>
<polygon fill="#63b8ff" stroke="#63b8ff" points="736.91,-277.25 747.05,-274.15 737.2,-270.25 736.91,-277.25"/>
</a>
</g>
</g>
<!-- Node4 -->
<g id="Node000004" class="node">
<title>Node4</title>
<g id="a_Node000004"><a xlink:href="MakeExampleBinning_8cpp.html" target="_top" xlink:title=" ">
<polygon fill="white" stroke="#666666" points="1917.38,-224.38 1764.88,-224.38 1764.88,-205.12 1917.38,-205.12 1917.38,-224.38"/>
<text text-anchor="middle" x="1841.12" y="-210.88" font-family="Helvetica,sans-Serif" font-size="10.00">Apps/MakeExampleBinning.cpp</text>
</a>
</g>
</g>
<!-- Node1&#45;&gt;Node4 -->
<g id="edge3_Node000001_Node000004" class="edge">
<title>Node1&#45;&gt;Node4</title>
<g id="a_edge3_Node000001_Node000004"><a xlink:title=" ">
<path fill="none" stroke="#63b8ff" d="M916.79,-273.83C1082.86,-271.58 1449.31,-262.97 1756.12,-230 1768.18,-228.71 1781.11,-226.8 1793.16,-224.81"/>
<polygon fill="#63b8ff" stroke="#63b8ff" points="917.14,-270.33 907.18,-273.96 917.23,-277.33 917.14,-270.33"/>
</a>
</g>
</g>
<!-- Node5 -->
<g id="Node000005" class="node">
<title>Node5</title>
<g id="a_Node000005"><a xlink:href="OscProbCalcerComparison_8cpp.html" target="_top" xlink:title=" ">
<polygon fill="white" stroke="#666666" points="411.75,-24.88 234.5,-24.88 234.5,-5.63 411.75,-5.63 411.75,-24.88"/>
<text text-anchor="middle" x="323.12" y="-11.38" font-family="Helvetica,sans-Serif" font-size="10.00">Apps/OscProbCalcerComparison.cpp</text>
</a>
</g>
</g>
<!-- Node1&#45;&gt;Node5 -->
<g id="edge4_Node000001_Node000005" class="edge">
<title>Node1&#45;&gt;Node5</title>
<g id="a_edge4_Node000001_Node000005"><a xlink:title=" ">
<path fill="none" stroke="#63b8ff" d="M737.53,-267.61C627.41,-253.99 442.8,-214.03 342.12,-97 324.19,-76.15 322.44,-41.46 322.71,-25.19"/>
<polygon fill="#63b8ff" stroke="#63b8ff" points="737.09,-271.08 747.43,-268.78 737.91,-264.13 737.09,-271.08"/>
</a>
</g>
</g>
<!-- Node6 -->
<g id="Node000006" class="node">
<title>Node6</title>
<g id="a_Node000006"><a xlink:href="SingleOscProbCalcer_8cpp.html" target="_top" xlink:title=" ">
<polygon fill="white" stroke="#666666" points="1324.38,-91.38 1171.88,-91.38 1171.88,-72.12 1324.38,-72.12 1324.38,-91.38"/>
<text text-anchor="middle" x="1248.12" y="-77.88" font-family="Helvetica,sans-Serif" font-size="10.00">Apps/SingleOscProbCalcer.cpp</text>
</a>
</g>
</g>
<!-- Node1&#45;&gt;Node6 -->
<g id="edge5_Node000001_Node000006" class="edge">
<title>Node1&#45;&gt;Node6</title>
<g id="a_edge5_Node000001_Node000006"><a xlink:title=" ">
<path fill="none" stroke="#63b8ff" d="M855.33,-260.57C907.94,-234.51 1024.83,-177.28 1125.12,-133 1159.52,-117.81 1199.98,-101.59 1224.84,-91.81"/>
<polygon fill="#63b8ff" stroke="#63b8ff" points="853.86,-257.4 846.46,-264.98 856.97,-263.67 853.86,-257.4"/>
</a>
</g>
</g>
<!-- Node7 -->
<g id="Node000007" class="node">
<title>Node7</title>
<g id="a_Node000007"><a xlink:href="SingleOscillator_8cpp.html" target="_top" xlink:title=" ">
<polygon fill="white" stroke="#666666" points="558,-24.88 430.25,-24.88 430.25,-5.63 558,-5.63 558,-24.88"/>
<text text-anchor="middle" x="494.12" y="-11.38" font-family="Helvetica,sans-Serif" font-size="10.00">Apps/SingleOscillator.cpp</text>
</a>
</g>
</g>
<!-- Node1&#45;&gt;Node7 -->
<g id="edge6_Node000001_Node000007" class="edge">
<title>Node1&#45;&gt;Node7</title>
<g id="a_edge6_Node000001_Node000007"><a xlink:title=" ">
<path fill="none" stroke="#63b8ff" d="M794.93,-261.18C737.77,-236.02 617.31,-177.05 540.12,-97 518.85,-74.93 503.81,-41.14 497.48,-25.18"/>
<polygon fill="#63b8ff" stroke="#63b8ff" points="793.21,-264.25 803.78,-265.02 796,-257.83 793.21,-264.25"/>
</a>
</g>
</g>
<!-- Node8 -->
<g id="Node000008" class="node">
<title>Node8</title>
<g id="a_Node000008"><a xlink:href="OscProbCalcerBase_8h.html" target="_top" xlink:title=" ">
<polygon fill="white" stroke="#666666" points="1746.62,-230 1595.62,-230 1595.62,-199.5 1746.62,-199.5 1746.62,-230"/>
<text text-anchor="start" x="1603.62" y="-216.5" font-family="Helvetica,sans-Serif" font-size="10.00">OscProbCalcer/OscProbCalcer</text>
<text text-anchor="middle" x="1671.12" y="-205.25" font-family="Helvetica,sans-Serif" font-size="10.00">Base.h</text>
</a>
</g>
</g>
<!-- Node1&#45;&gt;Node8 -->
<g id="edge7_Node000001_Node000008" class="edge">
<title>Node1&#45;&gt;Node8</title>
<g id="a_edge7_Node000001_Node000008"><a xlink:title=" ">
<path fill="none" stroke="#63b8ff" d="M916.59,-268.38C1083.48,-256.74 1439.43,-231.91 1595.33,-221.04"/>
<polygon fill="#63b8ff" stroke="#63b8ff" points="916.63,-264.87 906.9,-269.06 917.12,-271.86 916.63,-264.87"/>
</a>
</g>
</g>
<!-- Node15 -->
<g id="Node000015" class="node">
<title>Node15</title>
<g id="a_Node000015"><a xlink:href="OscProbCalcer__CUDAProb3Linear_8h.html" target="_top" xlink:title=" ">
<polygon fill="white" stroke="#666666" points="1831.62,-163.5 1680.62,-163.5 1680.62,-133 1831.62,-133 1831.62,-163.5"/>
<text text-anchor="start" x="1688.62" y="-150" font-family="Helvetica,sans-Serif" font-size="10.00">OscProbCalcer/OscProbCalcer</text>
<text text-anchor="middle" x="1756.12" y="-138.75" font-family="Helvetica,sans-Serif" font-size="10.00">_CUDAProb3Linear.h</text>
</a>
</g>
</g>
<!-- Node1&#45;&gt;Node15 -->
<g id="edge47_Node000001_Node000015" class="edge">
<title>Node1&#45;&gt;Node15</title>
<g id="a_edge47_Node000001_Node000015"><a xlink:title=" ">
<path fill="none" stroke="#63b8ff" d="M915.08,-264.15C1068.85,-245.6 1396.45,-205 1672.12,-163.5 1674.76,-163.1 1677.44,-162.69 1680.14,-162.27"/>
<polygon fill="#63b8ff" stroke="#63b8ff" points="914.88,-260.65 905.37,-265.32 915.72,-267.6 914.88,-260.65"/>
</a>
</g>
</g>
<!-- Node29 -->
<g id="Node000029" class="node">
<title>Node29</title>
<g id="a_Node000029"><a xlink:href="OscillatorBase_8h.html" target="_top" xlink:title=" ">
<polygon fill="white" stroke="#666666" points="892.88,-157.88 761.38,-157.88 761.38,-138.62 892.88,-138.62 892.88,-157.88"/>
<text text-anchor="middle" x="827.12" y="-144.38" font-family="Helvetica,sans-Serif" font-size="10.00">Oscillator/OscillatorBase.h</text>
</a>
</g>
</g>
<!-- Node1&#45;&gt;Node29 -->
<g id="edge48_Node000001_Node000029" class="edge">
<title>Node1&#45;&gt;Node29</title>
<g id="a_edge48_Node000001_Node000029"><a xlink:title=" ">
<path fill="none" stroke="#63b8ff" d="M827.12,-254.18C827.12,-226.44 827.12,-178.08 827.12,-158.18"/>
<polygon fill="#63b8ff" stroke="#63b8ff" points="823.63,-254.09 827.13,-264.09 830.63,-254.09 823.63,-254.09"/>
</a>
</g>
</g>
<!-- Node8&#45;&gt;Node6 -->
<g id="edge8_Node000008_Node000006" class="edge">
<title>Node8&#45;&gt;Node6</title>
<g id="a_edge8_Node000008_Node000006"><a xlink:title=" ">
<path fill="none" stroke="#63b8ff" d="M1584.18,-206.81C1499.07,-198.96 1376.12,-184.46 1333.12,-163.5 1314.92,-154.62 1273.66,-110.75 1256.18,-91.66"/>
<polygon fill="#63b8ff" stroke="#63b8ff" points="1583.62,-210.27 1593.9,-207.69 1584.25,-203.3 1583.62,-210.27"/>
</a>
</g>
</g>
<!-- Node9 -->
<g id="Node000009" class="node">
<title>Node9</title>
<g id="a_Node000009"><a xlink:href="OscProbCalcerBase_8cpp.html" target="_top" xlink:title=" ">
<polygon fill="white" stroke="#666666" points="1493.62,-163.5 1342.62,-163.5 1342.62,-133 1493.62,-133 1493.62,-163.5"/>
<text text-anchor="start" x="1350.62" y="-150" font-family="Helvetica,sans-Serif" font-size="10.00">OscProbCalcer/OscProbCalcer</text>
<text text-anchor="middle" x="1418.12" y="-138.75" font-family="Helvetica,sans-Serif" font-size="10.00">Base.cpp</text>
</a>
</g>
</g>
<!-- Node8&#45;&gt;Node9 -->
<g id="edge9_Node000008_Node000009" class="edge">
<title>Node8&#45;&gt;Node9</title>
<g id="a_edge9_Node000008_Node000009"><a xlink:title=" ">
<path fill="none" stroke="#63b8ff" d="M1602.47,-196.25C1562.72,-186.11 1513.28,-173.51 1475.6,-163.9"/>
<polygon fill="#63b8ff" stroke="#63b8ff" points="1601.38,-199.58 1611.93,-198.66 1603.11,-192.8 1601.38,-199.58"/>
</a>
</g>
</g>
<!-- Node10 -->
<g id="Node000010" class="node">
<title>Node10</title>
<g id="a_Node000010"><a xlink:href="OscProbCalcerFactory_8h.html" target="_top" xlink:title=" ">
<polygon fill="white" stroke="#666666" points="1285.62,-163.5 1134.62,-163.5 1134.62,-133 1285.62,-133 1285.62,-163.5"/>
<text text-anchor="start" x="1142.62" y="-150" font-family="Helvetica,sans-Serif" font-size="10.00">OscProbCalcer/OscProbCalcer</text>
<text text-anchor="middle" x="1210.12" y="-138.75" font-family="Helvetica,sans-Serif" font-size="10.00">Factory.h</text>
</a>
</g>
</g>
<!-- Node8&#45;&gt;Node10 -->
<g id="edge10_Node000008_Node000010" class="edge">
<title>Node8&#45;&gt;Node10</title>
<g id="a_edge10_Node000008_Node000010"><a xlink:title=" ">
<path fill="none" stroke="#63b8ff" d="M1584.09,-202.52C1508.86,-192.68 1397.23,-177.76 1300.12,-163.5 1295.43,-162.81 1290.6,-162.09 1285.73,-161.35"/>
<polygon fill="#63b8ff" stroke="#63b8ff" points="1583.51,-205.98 1593.88,-203.8 1584.42,-199.03 1583.51,-205.98"/>
</a>
</g>
</g>
<!-- Node13 -->
<g id="Node000013" class="node">
<title>Node13</title>
<g id="a_Node000013"><a xlink:href="OscProbCalcer__CUDAProb3_8h.html" target="_top" xlink:title=" ">
<polygon fill="white" stroke="#666666" points="1662.62,-163.5 1511.62,-163.5 1511.62,-133 1662.62,-133 1662.62,-163.5"/>
<text text-anchor="start" x="1519.62" y="-150" font-family="Helvetica,sans-Serif" font-size="10.00">OscProbCalcer/OscProbCalcer</text>
<text text-anchor="middle" x="1587.12" y="-138.75" font-family="Helvetica,sans-Serif" font-size="10.00">_CUDAProb3.h</text>
</a>
</g>
</g>
<!-- Node8&#45;&gt;Node13 -->
<g id="edge14_Node000008_Node000013" class="edge">
<title>Node8&#45;&gt;Node13</title>
<g id="a_edge14_Node000008_Node000013"><a xlink:title=" ">
<path fill="none" stroke="#63b8ff" d="M1643.18,-192.29C1631.01,-182.94 1617.05,-172.23 1606.11,-163.83"/>
<polygon fill="#63b8ff" stroke="#63b8ff" points="1640.8,-194.88 1650.86,-198.19 1645.06,-189.33 1640.8,-194.88"/>
</a>
</g>
</g>
<!-- Node8&#45;&gt;Node15 -->
<g id="edge16_Node000008_Node000015" class="edge">
<title>Node8&#45;&gt;Node15</title>
<g id="a_edge16_Node000008_Node000015"><a xlink:title=" ">
<path fill="none" stroke="#63b8ff" d="M1699.4,-192.29C1711.72,-182.94 1725.84,-172.23 1736.91,-163.83"/>
<polygon fill="#63b8ff" stroke="#63b8ff" points="1697.47,-189.37 1691.62,-198.2 1701.7,-194.94 1697.47,-189.37"/>
</a>
</g>
</g>
<!-- Node17 -->
<g id="Node000017" class="node">
<title>Node17</title>
<g id="a_Node000017"><a xlink:href="OscProbCalcer__GLoBESLinear_8h.html" target="_top" xlink:title=" ">
<polygon fill="white" stroke="#666666" points="2000.62,-163.5 1849.62,-163.5 1849.62,-133 2000.62,-133 2000.62,-163.5"/>
<text text-anchor="start" x="1857.62" y="-150" font-family="Helvetica,sans-Serif" font-size="10.00">OscProbCalcer/OscProbCalcer</text>
<text text-anchor="middle" x="1925.12" y="-138.75" font-family="Helvetica,sans-Serif" font-size="10.00">_GLoBESLinear.h</text>
</a>
</g>
</g>
<!-- Node8&#45;&gt;Node17 -->
<g id="edge18_Node000008_Node000017" class="edge">
<title>Node8&#45;&gt;Node17</title>
<g id="a_edge18_Node000008_Node000017"><a xlink:title=" ">
<path fill="none" stroke="#63b8ff" d="M1740.06,-196.25C1779.95,-186.11 1829.6,-173.51 1867.42,-163.9"/>
<polygon fill="#63b8ff" stroke="#63b8ff" points="1739.38,-192.81 1730.55,-198.66 1741.1,-199.59 1739.38,-192.81"/>
</a>
</g>
</g>
<!-- Node19 -->
<g id="Node000019" class="node">
<title>Node19</title>
<g id="a_Node000019"><a xlink:href="OscProbCalcer__NuFASTLinear_8h.html" target="_top" xlink:title=" ">
<polygon fill="white" stroke="#666666" points="2169.62,-163.5 2018.62,-163.5 2018.62,-133 2169.62,-133 2169.62,-163.5"/>
<text text-anchor="start" x="2026.62" y="-150" font-family="Helvetica,sans-Serif" font-size="10.00">OscProbCalcer/OscProbCalcer</text>
<text text-anchor="middle" x="2094.12" y="-138.75" font-family="Helvetica,sans-Serif" font-size="10.00">_NuFASTLinear.h</text>
</a>
</g>
</g>
<!-- Node8&#45;&gt;Node19 -->
<g id="edge20_Node000008_Node000019" class="edge">
<title>Node8&#45;&gt;Node19</title>
<g id="a_edge20_Node000008_Node000019"><a xlink:title=" ">
<path fill="none" stroke="#63b8ff" d="M1758.25,-199.2C1870.68,-181.99 1900.99,-180.49 2010.12,-163.5 2012.76,-163.09 2015.43,-162.67 2018.13,-162.24"/>
<polygon fill="#63b8ff" stroke="#63b8ff" points="1757.96,-195.7 1748.61,-200.68 1759.02,-202.62 1757.96,-195.7"/>
</a>
</g>
</g>
<!-- Node21 -->
<g id="Node000021" class="node">
<title>Node21</title>
<g id="a_Node000021"><a xlink:href="OscProbCalcer__NuSQUIDSLinear_8h.html" target="_top" xlink:title=" ">
<polygon fill="white" stroke="#666666" points="2338.62,-163.5 2187.62,-163.5 2187.62,-133 2338.62,-133 2338.62,-163.5"/>
<text text-anchor="start" x="2195.62" y="-150" font-family="Helvetica,sans-Serif" font-size="10.00">OscProbCalcer/OscProbCalcer</text>
<text text-anchor="middle" x="2263.12" y="-138.75" font-family="Helvetica,sans-Serif" font-size="10.00">_NuSQUIDSLinear.h</text>
</a>
</g>
</g>
<!-- Node8&#45;&gt;Node21 -->
<g id="edge22_Node000008_Node000021" class="edge">
<title>Node8&#45;&gt;Node21</title>
<g id="a_edge22_Node000008_Node000021"><a xlink:title=" ">
<path fill="none" stroke="#63b8ff" d="M1758.41,-199.29C1945.27,-176.31 1995.61,-186.83 2179.12,-163.5 2181.77,-163.16 2184.45,-162.81 2187.16,-162.43"/>
<polygon fill="#63b8ff" stroke="#63b8ff" points="1758.07,-195.8 1748.58,-200.52 1758.94,-202.75 1758.07,-195.8"/>
</a>
</g>
</g>
<!-- Node23 -->
<g id="Node000023" class="node">
<title>Node23</title>
<g id="a_Node000023"><a xlink:href="OscProbCalcer__OscProb_8h.html" target="_top" xlink:title=" ">
<polygon fill="white" stroke="#666666" points="2507.62,-163.5 2356.62,-163.5 2356.62,-133 2507.62,-133 2507.62,-163.5"/>
<text text-anchor="start" x="2364.62" y="-150" font-family="Helvetica,sans-Serif" font-size="10.00">OscProbCalcer/OscProbCalcer</text>
<text text-anchor="middle" x="2432.12" y="-138.75" font-family="Helvetica,sans-Serif" font-size="10.00">_OscProb.h</text>
</a>
</g>
</g>
<!-- Node8&#45;&gt;Node23 -->
<g id="edge24_Node000008_Node000023" class="edge">
<title>Node8&#45;&gt;Node23</title>
<g id="a_edge24_Node000008_Node000023"><a xlink:title=" ">
<path fill="none" stroke="#63b8ff" d="M1758.46,-199.33C2020,-170.33 2089.96,-193.16 2348.12,-163.5 2350.77,-163.2 2353.46,-162.86 2356.17,-162.51"/>
<polygon fill="#63b8ff" stroke="#63b8ff" points="1758.12,-195.85 1748.57,-200.44 1758.9,-202.8 1758.12,-195.85"/>
</a>
</g>
</g>
<!-- Node25 -->
<g id="Node000025" class="node">
<title>Node25</title>
<g id="a_Node000025"><a xlink:href="OscProbCalcer__Prob3ppLinear_8h.html" target="_top" xlink:title=" ">
<polygon fill="white" stroke="#666666" points="2676.62,-163.5 2525.62,-163.5 2525.62,-133 2676.62,-133 2676.62,-163.5"/>
<text text-anchor="start" x="2533.62" y="-150" font-family="Helvetica,sans-Serif" font-size="10.00">OscProbCalcer/OscProbCalcer</text>
<text text-anchor="middle" x="2601.12" y="-138.75" font-family="Helvetica,sans-Serif" font-size="10.00">_Prob3ppLinear.h</text>
</a>
</g>
</g>
<!-- Node8&#45;&gt;Node25 -->
<g id="edge26_Node000008_Node000025" class="edge">
<title>Node8&#45;&gt;Node25</title>
<g id="a_edge26_Node000008_Node000025"><a xlink:title=" ">
<path fill="none" stroke="#63b8ff" d="M1758.12,-199.39C2094.71,-164.22 2184.1,-199.49 2517.12,-163.5 2519.77,-163.21 2522.46,-162.9 2525.18,-162.56"/>
<polygon fill="#63b8ff" stroke="#63b8ff" points="1758.14,-195.87 1748.57,-200.4 1758.88,-202.83 1758.14,-195.87"/>
</a>
</g>
</g>
<!-- Node27 -->
<g id="Node000027" class="node">
<title>Node27</title>
<g id="a_Node000027"><a xlink:href="OscProbCalcer__ProbGPULinear_8h.html" target="_top" xlink:title=" ">
<polygon fill="white" stroke="#666666" points="2845.62,-163.5 2694.62,-163.5 2694.62,-133 2845.62,-133 2845.62,-163.5"/>
<text text-anchor="start" x="2702.62" y="-150" font-family="Helvetica,sans-Serif" font-size="10.00">OscProbCalcer/OscProbCalcer</text>
<text text-anchor="middle" x="2770.12" y="-138.75" font-family="Helvetica,sans-Serif" font-size="10.00">_ProbGPULinear.h</text>
</a>
</g>
</g>
<!-- Node8&#45;&gt;Node27 -->
<g id="edge28_Node000008_Node000027" class="edge">
<title>Node8&#45;&gt;Node27</title>
<g id="a_edge28_Node000008_Node000027"><a xlink:title=" ">
<path fill="none" stroke="#63b8ff" d="M1758.38,-199.38C2169.56,-158.1 2278.41,-205.8 2686.12,-163.5 2688.77,-163.23 2691.46,-162.92 2694.18,-162.59"/>
<polygon fill="#63b8ff" stroke="#63b8ff" points="1758.16,-195.88 1748.57,-200.37 1758.87,-202.84 1758.16,-195.88"/>
</a>
</g>
</g>
<!-- Node8&#45;&gt;Node29 -->
<g id="edge30_Node000008_Node000029" class="edge">
<title>Node8&#45;&gt;Node29</title>
<g id="a_edge30_Node000008_Node000029"><a xlink:title=" ">
<path fill="none" stroke="#63b8ff" d="M1584.13,-207.1C1414.77,-194.16 1044.18,-165.84 893.16,-154.3"/>
<polygon fill="#63b8ff" stroke="#63b8ff" points="1583.74,-210.58 1593.97,-207.85 1584.27,-203.6 1583.74,-210.58"/>
</a>
</g>
</g>
<!-- Node10&#45;&gt;Node6 -->
<g id="edge11_Node000010_Node000006" class="edge">
<title>Node10&#45;&gt;Node6</title>
<g id="a_edge11_Node000010_Node000006"><a xlink:title=" ">
<path fill="none" stroke="#63b8ff" d="M1224.39,-123.03C1230.88,-112.01 1238.16,-99.66 1242.93,-91.57"/>
<polygon fill="#63b8ff" stroke="#63b8ff" points="1221.58,-120.92 1219.52,-131.31 1227.61,-124.47 1221.58,-120.92"/>
</a>
</g>
</g>
<!-- Node11 -->
<g id="Node000011" class="node">
<title>Node11</title>
<g id="a_Node000011"><a xlink:href="OscProbCalcerFactory_8cpp.html" target="_top" xlink:title=" ">
<polygon fill="white" stroke="#666666" points="1493.62,-97 1342.62,-97 1342.62,-66.5 1493.62,-66.5 1493.62,-97"/>
<text text-anchor="start" x="1350.62" y="-83.5" font-family="Helvetica,sans-Serif" font-size="10.00">OscProbCalcer/OscProbCalcer</text>
<text text-anchor="middle" x="1418.12" y="-72.25" font-family="Helvetica,sans-Serif" font-size="10.00">Factory.cpp</text>
</a>
</g>
</g>
<!-- Node10&#45;&gt;Node11 -->
<g id="edge12_Node000010_Node000011" class="edge">
<title>Node10&#45;&gt;Node11</title>
<g id="a_edge12_Node000010_Node000011"><a xlink:title=" ">
<path fill="none" stroke="#63b8ff" d="M1268.26,-129.22C1300.63,-119.18 1340.43,-106.84 1370.87,-97.4"/>
<polygon fill="#63b8ff" stroke="#63b8ff" points="1267.54,-125.78 1259.03,-132.08 1269.62,-132.47 1267.54,-125.78"/>
</a>
</g>
</g>
<!-- Node12 -->
<g id="Node000012" class="node">
<title>Node12</title>
<g id="a_Node000012"><a xlink:href="OscillatorBase_8cpp.html" target="_top" xlink:title=" ">
<polygon fill="white" stroke="#666666" points="1154.12,-91.38 1012.12,-91.38 1012.12,-72.12 1154.12,-72.12 1154.12,-91.38"/>
<text text-anchor="middle" x="1083.12" y="-77.88" font-family="Helvetica,sans-Serif" font-size="10.00">Oscillator/OscillatorBase.cpp</text>
</a>
</g>
</g>
<!-- Node10&#45;&gt;Node12 -->
<g id="edge13_Node000010_Node000012" class="edge">
<title>Node10&#45;&gt;Node12</title>
<g id="a_edge13_Node000010_Node000012"><a xlink:title=" ">
<path fill="none" stroke="#63b8ff" d="M1171.29,-127.53C1147.81,-115.6 1119.02,-100.98 1100.87,-91.76"/>
<polygon fill="#63b8ff" stroke="#63b8ff" points="1169.46,-130.52 1179.96,-131.93 1172.63,-124.28 1169.46,-130.52"/>
</a>
</g>
</g>
<!-- Node14 -->
<g id="Node000014" class="node">
<title>Node14</title>
<g id="a_Node000014"><a xlink:href="OscProbCalcer__CUDAProb3_8cpp.html" target="_top" xlink:title=" ">
<polygon fill="white" stroke="#666666" points="1662.62,-97 1511.62,-97 1511.62,-66.5 1662.62,-66.5 1662.62,-97"/>
<text text-anchor="start" x="1519.62" y="-83.5" font-family="Helvetica,sans-Serif" font-size="10.00">OscProbCalcer/OscProbCalcer</text>
<text text-anchor="middle" x="1587.12" y="-72.25" font-family="Helvetica,sans-Serif" font-size="10.00">_CUDAProb3.cpp</text>
</a>
</g>
</g>
<!-- Node13&#45;&gt;Node14 -->
<g id="edge15_Node000013_Node000014" class="edge">
<title>Node13&#45;&gt;Node14</title>
<g id="a_edge15_Node000013_Node000014"><a xlink:title=" ">
<path fill="none" stroke="#63b8ff" d="M1587.12,-121.31C1587.12,-113.14 1587.12,-104.41 1587.12,-97.33"/>
<polygon fill="#63b8ff" stroke="#63b8ff" points="1583.63,-121.1 1587.13,-131.1 1590.63,-121.1 1583.63,-121.1"/>
</a>
</g>
</g>
<!-- Node16 -->
<g id="Node000016" class="node">
<title>Node16</title>
<g id="a_Node000016"><a xlink:href="OscProbCalcer__CUDAProb3Linear_8cpp.html" target="_top" xlink:title=" ">
<polygon fill="white" stroke="#666666" points="1831.62,-97 1680.62,-97 1680.62,-66.5 1831.62,-66.5 1831.62,-97"/>
<text text-anchor="start" x="1688.62" y="-83.5" font-family="Helvetica,sans-Serif" font-size="10.00">OscProbCalcer/OscProbCalcer</text>
<text text-anchor="middle" x="1756.12" y="-72.25" font-family="Helvetica,sans-Serif" font-size="10.00">_CUDAProb3Linear.cpp</text>
</a>
</g>
</g>
<!-- Node15&#45;&gt;Node16 -->
<g id="edge17_Node000015_Node000016" class="edge">
<title>Node15&#45;&gt;Node16</title>
<g id="a_edge17_Node000015_Node000016"><a xlink:title=" ">
<path fill="none" stroke="#63b8ff" d="M1756.12,-121.31C1756.12,-113.14 1756.12,-104.41 1756.12,-97.33"/>
<polygon fill="#63b8ff" stroke="#63b8ff" points="1752.63,-121.1 1756.13,-131.1 1759.63,-121.1 1752.63,-121.1"/>
</a>
</g>
</g>
<!-- Node18 -->
<g id="Node000018" class="node">
<title>Node18</title>
<g id="a_Node000018"><a xlink:href="OscProbCalcer__GLoBESLinear_8cpp.html" target="_top" xlink:title=" ">
<polygon fill="white" stroke="#666666" points="2000.62,-97 1849.62,-97 1849.62,-66.5 2000.62,-66.5 2000.62,-97"/>
<text text-anchor="start" x="1857.62" y="-83.5" font-family="Helvetica,sans-Serif" font-size="10.00">OscProbCalcer/OscProbCalcer</text>
<text text-anchor="middle" x="1925.12" y="-72.25" font-family="Helvetica,sans-Serif" font-size="10.00">_GLoBESLinear.cpp</text>
</a>
</g>
</g>
<!-- Node17&#45;&gt;Node18 -->
<g id="edge19_Node000017_Node000018" class="edge">
<title>Node17&#45;&gt;Node18</title>
<g id="a_edge19_Node000017_Node000018"><a xlink:title=" ">
<path fill="none" stroke="#63b8ff" d="M1925.12,-121.31C1925.12,-113.14 1925.12,-104.41 1925.12,-97.33"/>
<polygon fill="#63b8ff" stroke="#63b8ff" points="1921.63,-121.1 1925.13,-131.1 1928.63,-121.1 1921.63,-121.1"/>
</a>
</g>
</g>
<!-- Node20 -->
<g id="Node000020" class="node">
<title>Node20</title>
<g id="a_Node000020"><a xlink:href="OscProbCalcer__NuFASTLinear_8cpp.html" target="_top" xlink:title=" ">
<polygon fill="white" stroke="#666666" points="2169.62,-97 2018.62,-97 2018.62,-66.5 2169.62,-66.5 2169.62,-97"/>
<text text-anchor="start" x="2026.62" y="-83.5" font-family="Helvetica,sans-Serif" font-size="10.00">OscProbCalcer/OscProbCalcer</text>
<text text-anchor="middle" x="2094.12" y="-72.25" font-family="Helvetica,sans-Serif" font-size="10.00">_NuFASTLinear.cpp</text>
</a>
</g>
</g>
<!-- Node19&#45;&gt;Node20 -->
<g id="edge21_Node000019_Node000020" class="edge">
<title>Node19&#45;&gt;Node20</title>
<g id="a_edge21_Node000019_Node000020"><a xlink:title=" ">
<path fill="none" stroke="#63b8ff" d="M2094.12,-121.31C2094.12,-113.14 2094.12,-104.41 2094.12,-97.33"/>
<polygon fill="#63b8ff" stroke="#63b8ff" points="2090.63,-121.1 2094.13,-131.1 2097.63,-121.1 2090.63,-121.1"/>
</a>
</g>
</g>
<!-- Node22 -->
<g id="Node000022" class="node">
<title>Node22</title>
<g id="a_Node000022"><a xlink:href="OscProbCalcer__NuSQUIDSLinear_8cpp.html" target="_top" xlink:title=" ">
<polygon fill="white" stroke="#666666" points="2338.62,-97 2187.62,-97 2187.62,-66.5 2338.62,-66.5 2338.62,-97"/>
<text text-anchor="start" x="2195.62" y="-83.5" font-family="Helvetica,sans-Serif" font-size="10.00">OscProbCalcer/OscProbCalcer</text>
<text text-anchor="middle" x="2263.12" y="-72.25" font-family="Helvetica,sans-Serif" font-size="10.00">_NuSQUIDSLinear.cpp</text>
</a>
</g>
</g>
<!-- Node21&#45;&gt;Node22 -->
<g id="edge23_Node000021_Node000022" class="edge">
<title>Node21&#45;&gt;Node22</title>
<g id="a_edge23_Node000021_Node000022"><a xlink:title=" ">
<path fill="none" stroke="#63b8ff" d="M2263.12,-121.31C2263.12,-113.14 2263.12,-104.41 2263.12,-97.33"/>
<polygon fill="#63b8ff" stroke="#63b8ff" points="2259.63,-121.1 2263.13,-131.1 2266.63,-121.1 2259.63,-121.1"/>
</a>
</g>
</g>
<!-- Node24 -->
<g id="Node000024" class="node">
<title>Node24</title>
<g id="a_Node000024"><a xlink:href="OscProbCalcer__OscProb_8cpp.html" target="_top" xlink:title=" ">
<polygon fill="white" stroke="#666666" points="2507.62,-97 2356.62,-97 2356.62,-66.5 2507.62,-66.5 2507.62,-97"/>
<text text-anchor="start" x="2364.62" y="-83.5" font-family="Helvetica,sans-Serif" font-size="10.00">OscProbCalcer/OscProbCalcer</text>
<text text-anchor="middle" x="2432.12" y="-72.25" font-family="Helvetica,sans-Serif" font-size="10.00">_OscProb.cpp</text>
</a>
</g>
</g>
<!-- Node23&#45;&gt;Node24 -->
<g id="edge25_Node000023_Node000024" class="edge">
<title>Node23&#45;&gt;Node24</title>
<g id="a_edge25_Node000023_Node000024"><a xlink:title=" ">
<path fill="none" stroke="#63b8ff" d="M2432.12,-121.31C2432.12,-113.14 2432.12,-104.41 2432.12,-97.33"/>
<polygon fill="#63b8ff" stroke="#63b8ff" points="2428.63,-121.1 2432.13,-131.1 2435.63,-121.1 2428.63,-121.1"/>
</a>
</g>
</g>
<!-- Node26 -->
<g id="Node000026" class="node">
<title>Node26</title>
<g id="a_Node000026"><a xlink:href="OscProbCalcer__Prob3ppLinear_8cpp.html" target="_top" xlink:title=" ">
<polygon fill="white" stroke="#666666" points="2676.62,-97 2525.62,-97 2525.62,-66.5 2676.62,-66.5 2676.62,-97"/>
<text text-anchor="start" x="2533.62" y="-83.5" font-family="Helvetica,sans-Serif" font-size="10.00">OscProbCalcer/OscProbCalcer</text>
<text text-anchor="middle" x="2601.12" y="-72.25" font-family="Helvetica,sans-Serif" font-size="10.00">_Prob3ppLinear.cpp</text>
</a>
</g>
</g>
<!-- Node25&#45;&gt;Node26 -->
<g id="edge27_Node000025_Node000026" class="edge">
<title>Node25&#45;&gt;Node26</title>
<g id="a_edge27_Node000025_Node000026"><a xlink:title=" ">
<path fill="none" stroke="#63b8ff" d="M2601.12,-121.31C2601.12,-113.14 2601.12,-104.41 2601.12,-97.33"/>
<polygon fill="#63b8ff" stroke="#63b8ff" points="2597.63,-121.1 2601.13,-131.1 2604.63,-121.1 2597.63,-121.1"/>
</a>
</g>
</g>
<!-- Node28 -->
<g id="Node000028" class="node">
<title>Node28</title>
<g id="a_Node000028"><a xlink:href="OscProbCalcer__ProbGPULinear_8cpp.html" target="_top" xlink:title=" ">
<polygon fill="white" stroke="#666666" points="2845.62,-97 2694.62,-97 2694.62,-66.5 2845.62,-66.5 2845.62,-97"/>
<text text-anchor="start" x="2702.62" y="-83.5" font-family="Helvetica,sans-Serif" font-size="10.00">OscProbCalcer/OscProbCalcer</text>
<text text-anchor="middle" x="2770.12" y="-72.25" font-family="Helvetica,sans-Serif" font-size="10.00">_ProbGPULinear.cpp</text>
</a>
</g>
</g>
<!-- Node27&#45;&gt;Node28 -->
<g id="edge29_Node000027_Node000028" class="edge">
<title>Node27&#45;&gt;Node28</title>
<g id="a_edge29_Node000027_Node000028"><a xlink:title=" ">
<path fill="none" stroke="#63b8ff" d="M2770.12,-121.31C2770.12,-113.14 2770.12,-104.41 2770.12,-97.33"/>
<polygon fill="#63b8ff" stroke="#63b8ff" points="2766.63,-121.1 2770.13,-131.1 2773.63,-121.1 2766.63,-121.1"/>
</a>
</g>
</g>
<!-- Node29&#45;&gt;Node12 -->
<g id="edge31_Node000029_Node000012" class="edge">
<title>Node29&#45;&gt;Node12</title>
<g id="a_edge31_Node000029_Node000012"><a xlink:title=" ">
<path fill="none" stroke="#63b8ff" d="M874.4,-135.34C924.35,-122.76 1002,-103.19 1047.17,-91.81"/>
<polygon fill="#63b8ff" stroke="#63b8ff" points="873.57,-131.94 864.73,-137.78 875.28,-138.73 873.57,-131.94"/>
</a>
</g>
</g>
<!-- Node30 -->
<g id="Node000030" class="node">
<title>Node30</title>
<g id="a_Node000030"><a xlink:href="OscillatorBinned_8h.html" target="_top" xlink:title=" ">
<polygon fill="white" stroke="#666666" points="688.62,-91.38 549.62,-91.38 549.62,-72.12 688.62,-72.12 688.62,-91.38"/>
<text text-anchor="middle" x="619.12" y="-77.88" font-family="Helvetica,sans-Serif" font-size="10.00">Oscillator/OscillatorBinned.h</text>
</a>
</g>
</g>
<!-- Node29&#45;&gt;Node30 -->
<g id="edge32_Node000029_Node000030" class="edge">
<title>Node29&#45;&gt;Node30</title>
<g id="a_edge32_Node000029_Node000030"><a xlink:title=" ">
<path fill="none" stroke="#63b8ff" d="M786.91,-134.78C746.28,-122.18 684.5,-103.02 648.34,-91.81"/>
<polygon fill="#63b8ff" stroke="#63b8ff" points="785.73,-138.08 796.32,-137.7 787.8,-131.39 785.73,-138.08"/>
</a>
</g>
</g>
<!-- Node33 -->
<g id="Node000033" class="node">
<title>Node33</title>
<g id="a_Node000033"><a xlink:href="OscillatorFactory_8h.html" target="_top" xlink:title=" ">
<polygon fill="white" stroke="#666666" points="492.75,-91.38 351.5,-91.38 351.5,-72.12 492.75,-72.12 492.75,-91.38"/>
<text text-anchor="middle" x="422.12" y="-77.88" font-family="Helvetica,sans-Serif" font-size="10.00">Oscillator/OscillatorFactory.h</text>
</a>
</g>
</g>
<!-- Node29&#45;&gt;Node33 -->
<g id="edge35_Node000029_Node000033" class="edge">
<title>Node29&#45;&gt;Node33</title>
<g id="a_edge35_Node000029_Node000033"><a xlink:title=" ">
<path fill="none" stroke="#63b8ff" d="M758.74,-136.36C680.22,-123.85 552.81,-103.56 479.33,-91.86"/>
<polygon fill="#63b8ff" stroke="#63b8ff" points="758.04,-139.79 768.46,-137.91 759.14,-132.88 758.04,-139.79"/>
</a>
</g>
</g>
<!-- Node34 -->
<g id="Node000034" class="node">
<title>Node34</title>
<g id="a_Node000034"><a xlink:href="OscillatorSubSampling_8h.html" target="_top" xlink:title=" ">
<polygon fill="white" stroke="#666666" points="825.5,-97 706.75,-97 706.75,-66.5 825.5,-66.5 825.5,-97"/>
<text text-anchor="start" x="714.75" y="-83.5" font-family="Helvetica,sans-Serif" font-size="10.00">Oscillator/OscillatorSub</text>
<text text-anchor="middle" x="766.12" y="-72.25" font-family="Helvetica,sans-Serif" font-size="10.00">Sampling.h</text>
</a>
</g>
</g>
<!-- Node29&#45;&gt;Node34 -->
<g id="edge41_Node000029_Node000034" class="edge">
<title>Node29&#45;&gt;Node34</title>
<g id="a_edge41_Node000029_Node000034"><a xlink:title=" ">
<path fill="none" stroke="#63b8ff" d="M810.87,-130.06C801.14,-119.77 788.9,-106.84 779.69,-97.09"/>
<polygon fill="#63b8ff" stroke="#63b8ff" points="808.19,-132.32 817.6,-137.18 813.27,-127.51 808.19,-132.32"/>
</a>
</g>
</g>
<!-- Node36 -->
<g id="Node000036" class="node">
<title>Node36</title>
<g id="a_Node000036"><a xlink:href="OscillatorUnbinned_8h.html" target="_top" xlink:title=" ">
<polygon fill="white" stroke="#666666" points="994.25,-91.38 844,-91.38 844,-72.12 994.25,-72.12 994.25,-91.38"/>
<text text-anchor="middle" x="919.12" y="-77.88" font-family="Helvetica,sans-Serif" font-size="10.00">Oscillator/OscillatorUnbinned.h</text>
</a>
</g>
</g>
<!-- Node29&#45;&gt;Node36 -->
<g id="edge44_Node000029_Node000036" class="edge">
<title>Node29&#45;&gt;Node36</title>
<g id="a_edge44_Node000029_Node000036"><a xlink:title=" ">
<path fill="none" stroke="#63b8ff" d="M849.01,-131.91C866.81,-119.43 891.32,-102.25 906.14,-91.85"/>
<polygon fill="#63b8ff" stroke="#63b8ff" points="847.34,-128.81 841.16,-137.41 851.35,-134.54 847.34,-128.81"/>
</a>
</g>
</g>
<!-- Node31 -->
<g id="Node000031" class="node">
<title>Node31</title>
<g id="a_Node000031"><a xlink:href="OscillatorBinned_8cpp.html" target="_top" xlink:title=" ">
<polygon fill="white" stroke="#666666" points="725.88,-24.88 576.38,-24.88 576.38,-5.63 725.88,-5.63 725.88,-24.88"/>
<text text-anchor="middle" x="651.12" y="-11.38" font-family="Helvetica,sans-Serif" font-size="10.00">Oscillator/OscillatorBinned.cpp</text>
</a>
</g>
</g>
<!-- Node30&#45;&gt;Node31 -->
<g id="edge33_Node000030_Node000031" class="edge">
<title>Node30&#45;&gt;Node31</title>
<g id="a_edge33_Node000030_Node000031"><a xlink:title=" ">
<path fill="none" stroke="#63b8ff" d="M628.54,-61.77C634.55,-49.67 642.05,-34.55 646.71,-25.14"/>
<polygon fill="#63b8ff" stroke="#63b8ff" points="625.56,-59.91 624.25,-70.43 631.83,-63.02 625.56,-59.91"/>
</a>
</g>
</g>
<!-- Node32 -->
<g id="Node000032" class="node">
<title>Node32</title>
<g id="a_Node000032"><a xlink:href="OscillatorFactory_8cpp.html" target="_top" xlink:title=" ">
<polygon fill="white" stroke="#666666" points="896,-24.88 744.25,-24.88 744.25,-5.63 896,-5.63 896,-24.88"/>
<text text-anchor="middle" x="820.12" y="-11.38" font-family="Helvetica,sans-Serif" font-size="10.00">Oscillator/OscillatorFactory.cpp</text>
</a>
</g>
</g>
<!-- Node30&#45;&gt;Node32 -->
<g id="edge34_Node000030_Node000032" class="edge">
<title>Node30&#45;&gt;Node32</title>
<g id="a_edge34_Node000030_Node000032"><a xlink:title=" ">
<path fill="none" stroke="#63b8ff" d="M658.24,-68.2C697.5,-55.6 757.02,-36.5 791.9,-25.31"/>
<polygon fill="#63b8ff" stroke="#63b8ff" points="657.39,-64.79 648.94,-71.18 659.53,-71.46 657.39,-64.79"/>
</a>
</g>
</g>
<!-- Node33&#45;&gt;Node2 -->
<g id="edge36_Node000033_Node000002" class="edge">
<title>Node33&#45;&gt;Node2</title>
<g id="a_edge36_Node000033_Node000002"><a xlink:title=" ">
<path fill="none" stroke="#63b8ff" d="M342.21,-70.06C277.9,-60.99 185.35,-46.85 105.12,-30.5 97.73,-28.99 89.85,-27.17 82.38,-25.33"/>
<polygon fill="#63b8ff" stroke="#63b8ff" points="341.6,-73.51 351.98,-71.43 342.57,-66.58 341.6,-73.51"/>
</a>
</g>
</g>
<!-- Node33&#45;&gt;Node3 -->
<g id="edge37_Node000033_Node000003" class="edge">
<title>Node33&#45;&gt;Node3</title>
<g id="a_edge37_Node000033_Node000003"><a xlink:title=" ">
<path fill="none" stroke="#63b8ff" d="M374.98,-68.92C324.85,-56.34 246.67,-36.71 201.22,-25.31"/>
<polygon fill="#63b8ff" stroke="#63b8ff" points="373.83,-72.24 384.38,-71.28 375.53,-65.45 373.83,-72.24"/>
</a>
</g>
</g>
<!-- Node33&#45;&gt;Node5 -->
<g id="edge38_Node000033_Node000005" class="edge">
<title>Node33&#45;&gt;Node5</title>
<g id="a_edge38_Node000033_Node000005"><a xlink:title=" ">
<path fill="none" stroke="#63b8ff" d="M398.84,-65.58C379.67,-53.09 353.12,-35.8 337.09,-25.35"/>
<polygon fill="#63b8ff" stroke="#63b8ff" points="396.8,-68.43 407.09,-70.96 400.62,-62.56 396.8,-68.43"/>
</a>
</g>
</g>
<!-- Node33&#45;&gt;Node7 -->
<g id="edge39_Node000033_Node000007" class="edge">
<title>Node33&#45;&gt;Node7</title>
<g id="a_edge39_Node000033_Node000007"><a xlink:title=" ">
<path fill="none" stroke="#63b8ff" d="M440.48,-64.31C454.38,-51.86 472.95,-35.22 484.2,-25.14"/>
<polygon fill="#63b8ff" stroke="#63b8ff" points="438.38,-61.49 433.26,-70.77 443.05,-66.71 438.38,-61.49"/>
</a>
</g>
</g>
<!-- Node33&#45;&gt;Node32 -->
<g id="edge40_Node000033_Node000032" class="edge">
<title>Node33&#45;&gt;Node32</title>
<g id="a_edge40_Node000033_Node000032"><a xlink:title=" ">
<path fill="none" stroke="#63b8ff" d="M490.6,-69.9C554.02,-59.81 650.97,-44.31 735.12,-30.5 745.17,-28.85 755.87,-27.07 766.18,-25.35"/>
<polygon fill="#63b8ff" stroke="#63b8ff" points="490.37,-66.39 481.04,-71.42 491.47,-73.3 490.37,-66.39"/>
</a>
</g>
</g>
<!-- Node34&#45;&gt;Node32 -->
<g id="edge42_Node000034_Node000032" class="edge">
<title>Node34&#45;&gt;Node32</title>
<g id="a_edge42_Node000034_Node000032"><a xlink:title=" ">
<path fill="none" stroke="#63b8ff" d="M785.56,-57.54C794.99,-46.27 805.76,-33.41 812.74,-25.07"/>
<polygon fill="#63b8ff" stroke="#63b8ff" points="783.09,-55.04 779.35,-64.95 788.45,-59.53 783.09,-55.04"/>
</a>
</g>
</g>
<!-- Node35 -->
<g id="Node000035" class="node">
<title>Node35</title>
<g id="a_Node000035"><a xlink:href="OscillatorSubSampling_8cpp.html" target="_top" xlink:title=" ">
<polygon fill="white" stroke="#666666" points="1032.5,-30.5 913.75,-30.5 913.75,0 1032.5,0 1032.5,-30.5"/>
<text text-anchor="start" x="921.75" y="-17" font-family="Helvetica,sans-Serif" font-size="10.00">Oscillator/OscillatorSub</text>
<text text-anchor="middle" x="973.12" y="-5.75" font-family="Helvetica,sans-Serif" font-size="10.00">Sampling.cpp</text>
</a>
</g>
</g>
<!-- Node34&#45;&gt;Node35 -->
<g id="edge43_Node000034_Node000035" class="edge">
<title>Node34&#45;&gt;Node35</title>
<g id="a_edge43_Node000034_Node000035"><a xlink:title=" ">
<path fill="none" stroke="#63b8ff" d="M823.98,-62.72C856.2,-52.68 895.8,-40.34 926.1,-30.9"/>
<polygon fill="#63b8ff" stroke="#63b8ff" points="823.31,-59.27 814.8,-65.58 825.39,-65.95 823.31,-59.27"/>
</a>
</g>
</g>
<!-- Node36&#45;&gt;Node32 -->
<g id="edge45_Node000036_Node000032" class="edge">
<title>Node36&#45;&gt;Node32</title>
<g id="a_edge45_Node000036_Node000032"><a xlink:title=" ">
<path fill="none" stroke="#63b8ff" d="M895.84,-65.58C876.67,-53.09 850.12,-35.8 834.09,-25.35"/>
<polygon fill="#63b8ff" stroke="#63b8ff" points="893.8,-68.43 904.09,-70.96 897.62,-62.56 893.8,-68.43"/>
</a>
</g>
</g>
<!-- Node37 -->
<g id="Node000037" class="node">
<title>Node37</title>
<g id="a_Node000037"><a xlink:href="OscillatorUnbinned_8cpp.html" target="_top" xlink:title=" ">
<polygon fill="white" stroke="#666666" points="1211.5,-24.88 1050.75,-24.88 1050.75,-5.63 1211.5,-5.63 1211.5,-24.88"/>
<text text-anchor="middle" x="1131.12" y="-11.38" font-family="Helvetica,sans-Serif" font-size="10.00">Oscillator/OscillatorUnbinned.cpp</text>
</a>
</g>
</g>
<!-- Node36&#45;&gt;Node37 -->
<g id="edge46_Node000036_Node000037" class="edge">
<title>Node36&#45;&gt;Node37</title>
<g id="a_edge46_Node000036_Node000037"><a xlink:title=" ">
<path fill="none" stroke="#63b8ff" d="M959.85,-68.36C1001.26,-55.76 1064.41,-36.55 1101.35,-25.31"/>
<polygon fill="#63b8ff" stroke="#63b8ff" points="959.05,-64.95 950.5,-71.2 961.08,-71.64 959.05,-64.95"/>
</a>
</g>
</g>
</g>
</svg>
