<?xml version="1.0" encoding="UTF-8" standalone="no"?>
<!DOCTYPE svg PUBLIC "-//W3C//DTD SVG 1.1//EN"
 "http://www.w3.org/Graphics/SVG/1.1/DTD/svg11.dtd">
<!-- Generated by graphviz version 12.2.0 (20241103.1931)
 -->
<!-- Title: Oscillator/OscillatorSubSampling.cpp Pages: 1 -->
<svg width="472pt" height="337pt"
 viewBox="0.00 0.00 471.62 337.25" xmlns="http://www.w3.org/2000/svg" xmlns:xlink="http://www.w3.org/1999/xlink">
<g id="graph0" class="graph" transform="scale(1 1) rotate(0) translate(4 333.25)">
<title>Oscillator/OscillatorSubSampling.cpp</title>
<!-- Node1 -->
<g id="Node000001" class="node">
<title>Node1</title>
<g id="a_Node000001"><a xlink:title=" ">
<polygon fill="#999999" stroke="#666666" points="433.25,-329.25 314.5,-329.25 314.5,-298.75 433.25,-298.75 433.25,-329.25"/>
<text text-anchor="start" x="322.5" y="-315.75" font-family="Helvetica,sans-Serif" font-size="10.00">Oscillator/OscillatorSub</text>
<text text-anchor="middle" x="373.88" y="-304.5" font-family="Helvetica,sans-Serif" font-size="10.00">Sampling.cpp</text>
</a>
</g>
</g>
<!-- Node2 -->
<g id="Node000002" class="node">
<title>Node2</title>
<g id="a_Node000002"><a xlink:href="OscillatorSubSampling_8h.html" target="_top" xlink:title=" ">
<polygon fill="white" stroke="#666666" points="265.25,-262.75 146.5,-262.75 146.5,-232.25 265.25,-232.25 265.25,-262.75"/>
<text text-anchor="start" x="154.5" y="-249.25" font-family="Helvetica,sans-Serif" font-size="10.00">Oscillator/OscillatorSub</text>
<text text-anchor="middle" x="205.88" y="-238" font-family="Helvetica,sans-Serif" font-size="10.00">Sampling.h</text>
</a>
</g>
</g>
<!-- Node1&#45;&gt;Node2 -->
<g id="edge1_Node000001_Node000002" class="edge">
<title>Node1&#45;&gt;Node2</title>
<g id="a_edge1_Node000001_Node000002"><a xlink:title=" ">
<path fill="none" stroke="#63b8ff" d="M335.75,-298.36C311.78,-289.16 280.62,-277.2 254.82,-267.29"/>
<polygon fill="#63b8ff" stroke="#63b8ff" points="256.14,-264.05 245.55,-263.73 253.63,-270.58 256.14,-264.05"/>
</a>
</g>
</g>
<!-- Node8 -->
<g id="Node000008" class="node">
<title>Node8</title>
<g id="a_Node000008"><a xlink:title=" ">
<polygon fill="#e0e0e0" stroke="#999999" points="331.5,-19.25 286.25,-19.25 286.25,0 331.5,0 331.5,-19.25"/>
<text text-anchor="middle" x="308.88" y="-5.75" font-family="Helvetica,sans-Serif" font-size="10.00">TFile.h</text>
</a>
</g>
</g>
<!-- Node1&#45;&gt;Node8 -->
<g id="edge18_Node000001_Node000008" class="edge">
<title>Node1&#45;&gt;Node8</title>
<g id="a_edge18_Node000001_Node000008"><a xlink:title=" ">
<path fill="none" stroke="#63b8ff" d="M370.21,-298.44C364.69,-275.18 354.88,-228.13 354.88,-187.62 354.88,-187.62 354.88,-187.62 354.88,-124.75 354.88,-88.93 335.14,-51.08 321.52,-29.22"/>
<polygon fill="#63b8ff" stroke="#63b8ff" points="324.48,-27.34 316.1,-20.86 318.61,-31.15 324.48,-27.34"/>
</a>
</g>
</g>
<!-- Node9 -->
<g id="Node000009" class="node">
<title>Node9</title>
<g id="a_Node000009"><a xlink:title=" ">
<polygon fill="#e0e0e0" stroke="#999999" points="392,-19.25 349.75,-19.25 349.75,0 392,0 392,-19.25"/>
<text text-anchor="middle" x="370.88" y="-5.75" font-family="Helvetica,sans-Serif" font-size="10.00">TH1.h</text>
</a>
</g>
</g>
<!-- Node1&#45;&gt;Node9 -->
<g id="edge19_Node000001_Node000009" class="edge">
<title>Node1&#45;&gt;Node9</title>
<g id="a_edge19_Node000001_Node000009"><a xlink:title=" ">
<path fill="none" stroke="#63b8ff" d="M377.54,-298.44C383.06,-275.18 392.88,-228.13 392.88,-187.62 392.88,-187.62 392.88,-187.62 392.88,-124.75 392.88,-91.21 383.6,-53.11 377.09,-30.51"/>
<polygon fill="#63b8ff" stroke="#63b8ff" points="380.51,-29.7 374.28,-21.13 373.8,-31.72 380.51,-29.7"/>
</a>
</g>
</g>
<!-- Node11 -->
<g id="Node000011" class="node">
<title>Node11</title>
<g id="a_Node000011"><a xlink:title=" ">
<polygon fill="#e0e0e0" stroke="#999999" points="463.62,-19.25 410.12,-19.25 410.12,0 463.62,0 463.62,-19.25"/>
<text text-anchor="middle" x="436.88" y="-5.75" font-family="Helvetica,sans-Serif" font-size="10.00">iostream</text>
</a>
</g>
</g>
<!-- Node1&#45;&gt;Node11 -->
<g id="edge17_Node000001_Node000011" class="edge">
<title>Node1&#45;&gt;Node11</title>
<g id="a_edge17_Node000001_Node000011"><a xlink:title=" ">
<path fill="none" stroke="#63b8ff" d="M386.51,-298.3C404.38,-275.97 434.88,-231.44 434.88,-187.62 434.88,-187.62 434.88,-187.62 434.88,-124.75 434.88,-91.8 435.72,-53.5 436.31,-30.71"/>
<polygon fill="#63b8ff" stroke="#63b8ff" points="439.8,-31.11 436.57,-21.02 432.8,-30.92 439.8,-31.11"/>
</a>
</g>
</g>
<!-- Node3 -->
<g id="Node000003" class="node">
<title>Node3</title>
<g id="a_Node000003"><a xlink:href="OscillatorBase_8h.html" target="_top" xlink:title=" ">
<polygon fill="white" stroke="#666666" points="217.5,-196.25 130.25,-196.25 130.25,-177 217.5,-177 217.5,-196.25"/>
<text text-anchor="middle" x="173.88" y="-182.75" font-family="Helvetica,sans-Serif" font-size="10.00">OscillatorBase.h</text>
</a>
</g>
</g>
<!-- Node2&#45;&gt;Node3 -->
<g id="edge2_Node000002_Node000003" class="edge">
<title>Node2&#45;&gt;Node3</title>
<g id="a_edge2_Node000002_Node000003"><a xlink:title=" ">
<path fill="none" stroke="#63b8ff" d="M197.96,-231.95C193.84,-224.36 188.75,-214.99 184.31,-206.82"/>
<polygon fill="#63b8ff" stroke="#63b8ff" points="187.38,-205.15 179.53,-198.03 181.23,-208.49 187.38,-205.15"/>
</a>
</g>
</g>
<!-- Node4 -->
<g id="Node000004" class="node">
<title>Node4</title>
<g id="a_Node000004"><a xlink:href="OscProbCalcerBase_8h.html" target="_top" xlink:title=" ">
<polygon fill="white" stroke="#666666" points="218.38,-141 67.38,-141 67.38,-110.5 218.38,-110.5 218.38,-141"/>
<text text-anchor="start" x="75.38" y="-127.5" font-family="Helvetica,sans-Serif" font-size="10.00">OscProbCalcer/OscProbCalcer</text>
<text text-anchor="middle" x="142.88" y="-116.25" font-family="Helvetica,sans-Serif" font-size="10.00">Base.h</text>
</a>
</g>
</g>
<!-- Node3&#45;&gt;Node4 -->
<g id="edge3_Node000003_Node000004" class="edge">
<title>Node3&#45;&gt;Node4</title>
<g id="a_edge3_Node000003_Node000004"><a xlink:title=" ">
<path fill="none" stroke="#63b8ff" d="M169.17,-176.68C165.61,-169.93 160.55,-160.33 155.82,-151.34"/>
<polygon fill="#63b8ff" stroke="#63b8ff" points="158.99,-149.84 151.23,-142.62 152.79,-153.1 158.99,-149.84"/>
</a>
</g>
</g>
<!-- Node5 -->
<g id="Node000005" class="node">
<title>Node5</title>
<g id="a_Node000005"><a xlink:href="OscillatorConstants_8h.html" target="_top" xlink:title=" ">
<polygon fill="white" stroke="#666666" points="327,-74.5 170.75,-74.5 170.75,-55.25 327,-55.25 327,-74.5"/>
<text text-anchor="middle" x="248.88" y="-61" font-family="Helvetica,sans-Serif" font-size="10.00">Constants/OscillatorConstants.h</text>
</a>
</g>
</g>
<!-- Node3&#45;&gt;Node5 -->
<g id="edge15_Node000003_Node000005" class="edge">
<title>Node3&#45;&gt;Node5</title>
<g id="a_edge15_Node000003_Node000005"><a xlink:title=" ">
<path fill="none" stroke="#63b8ff" d="M189.36,-176.56C201.55,-168.65 218.07,-156.09 227.88,-141 238.71,-124.34 244.02,-102.09 246.58,-86.13"/>
<polygon fill="#63b8ff" stroke="#63b8ff" points="250.03,-86.8 247.9,-76.42 243.09,-85.86 250.03,-86.8"/>
</a>
</g>
</g>
<!-- Node7 -->
<g id="Node000007" class="node">
<title>Node7</title>
<g id="a_Node000007"><a xlink:title=" ">
<polygon fill="#e0e0e0" stroke="#999999" points="85.75,-19.25 0,-19.25 0,0 85.75,0 85.75,-19.25"/>
<text text-anchor="middle" x="42.88" y="-5.75" font-family="Helvetica,sans-Serif" font-size="10.00">yaml&#45;cpp/yaml.h</text>
</a>
</g>
</g>
<!-- Node3&#45;&gt;Node7 -->
<g id="edge16_Node000003_Node000007" class="edge">
<title>Node3&#45;&gt;Node7</title>
<g id="a_edge16_Node000003_Node000007"><a xlink:title=" ">
<path fill="none" stroke="#63b8ff" d="M129.86,-179.74C105.14,-174.05 75.91,-162.89 58.88,-141 33.98,-109.01 35.94,-58.58 39.47,-30.74"/>
<polygon fill="#63b8ff" stroke="#63b8ff" points="42.88,-31.6 40.89,-21.19 35.96,-30.57 42.88,-31.6"/>
</a>
</g>
</g>
<!-- Node4&#45;&gt;Node5 -->
<g id="edge4_Node000004_Node000005" class="edge">
<title>Node4&#45;&gt;Node5</title>
<g id="a_edge4_Node000004_Node000005"><a xlink:title=" ">
<path fill="none" stroke="#63b8ff" d="M169.35,-110.05C185.65,-100.99 206.45,-89.44 222.7,-80.41"/>
<polygon fill="#63b8ff" stroke="#63b8ff" points="224.25,-83.55 231.3,-75.64 220.85,-77.43 224.25,-83.55"/>
</a>
</g>
</g>
<!-- Node4&#45;&gt;Node7 -->
<g id="edge14_Node000004_Node000007" class="edge">
<title>Node4&#45;&gt;Node7</title>
<g id="a_edge14_Node000004_Node000007"><a xlink:title=" ">
<path fill="none" stroke="#63b8ff" d="M130.21,-110.3C111.91,-89.41 78.1,-50.82 58.34,-28.28"/>
<polygon fill="#63b8ff" stroke="#63b8ff" points="61.05,-26.05 51.82,-20.84 55.78,-30.66 61.05,-26.05"/>
</a>
</g>
</g>
<!-- Node10 -->
<g id="Node000010" class="node">
<title>Node10</title>
<g id="a_Node000010"><a xlink:title=" ">
<polygon fill="#e0e0e0" stroke="#999999" points="204.88,-19.25 164.88,-19.25 164.88,0 204.88,0 204.88,-19.25"/>
<text text-anchor="middle" x="184.88" y="-5.75" font-family="Helvetica,sans-Serif" font-size="10.00">string</text>
</a>
</g>
</g>
<!-- Node4&#45;&gt;Node10 -->
<g id="edge13_Node000004_Node000010" class="edge">
<title>Node4&#45;&gt;Node10</title>
<g id="a_edge13_Node000004_Node000010"><a xlink:title=" ">
<path fill="none" stroke="#63b8ff" d="M145.94,-110.09C149.15,-95.82 154.7,-73.67 161.88,-55.25 165.27,-46.53 169.87,-37.27 174.06,-29.46"/>
<polygon fill="#63b8ff" stroke="#63b8ff" points="177.01,-31.36 178.81,-20.92 170.89,-27.96 177.01,-31.36"/>
</a>
</g>
</g>
<!-- Node12 -->
<g id="Node000012" class="node">
<title>Node12</title>
<g id="a_Node000012"><a xlink:title=" ">
<polygon fill="#e0e0e0" stroke="#999999" points="146.38,-19.25 103.38,-19.25 103.38,0 146.38,0 146.38,-19.25"/>
<text text-anchor="middle" x="124.88" y="-5.75" font-family="Helvetica,sans-Serif" font-size="10.00">vector</text>
</a>
</g>
</g>
<!-- Node4&#45;&gt;Node12 -->
<g id="edge12_Node000004_Node000012" class="edge">
<title>Node4&#45;&gt;Node12</title>
<g id="a_edge12_Node000004_Node000012"><a xlink:title=" ">
<path fill="none" stroke="#63b8ff" d="M138.02,-110.42C134.86,-100.46 130.95,-86.82 128.88,-74.5 126.43,-60.03 125.45,-43.48 125.06,-30.86"/>
<polygon fill="#63b8ff" stroke="#63b8ff" points="128.56,-30.81 124.87,-20.88 121.56,-30.95 128.56,-30.81"/>
</a>
</g>
</g>
<!-- Node6 -->
<g id="Node000006" class="node">
<title>Node6</title>
<g id="a_Node000006"><a xlink:title=" ">
<polygon fill="#e0e0e0" stroke="#999999" points="268.5,-19.25 223.25,-19.25 223.25,0 268.5,0 268.5,-19.25"/>
<text text-anchor="middle" x="245.88" y="-5.75" font-family="Helvetica,sans-Serif" font-size="10.00">math.h</text>
</a>
</g>
</g>
<!-- Node5&#45;&gt;Node6 -->
<g id="edge5_Node000005_Node000006" class="edge">
<title>Node5&#45;&gt;Node6</title>
<g id="a_edge5_Node000005_Node000006"><a xlink:title=" ">
<path fill="none" stroke="#63b8ff" d="M248.38,-55.08C248.01,-48.49 247.49,-39.21 247.01,-30.82"/>
<polygon fill="#63b8ff" stroke="#63b8ff" points="250.52,-30.91 246.47,-21.12 243.53,-31.3 250.52,-30.91"/>
</a>
</g>
</g>
<!-- Node5&#45;&gt;Node7 -->
<g id="edge6_Node000005_Node000007" class="edge">
<title>Node5&#45;&gt;Node7</title>
<g id="a_edge6_Node000005_Node000007"><a xlink:title=" ">
<path fill="none" stroke="#63b8ff" d="M213.93,-54.84C179.45,-45.93 126.56,-32.26 88.72,-22.48"/>
<polygon fill="#63b8ff" stroke="#63b8ff" points="90.01,-19.2 79.46,-20.08 88.26,-25.97 90.01,-19.2"/>
</a>
</g>
</g>
<!-- Node5&#45;&gt;Node8 -->
<g id="edge7_Node000005_Node000008" class="edge">
<title>Node5&#45;&gt;Node8</title>
<g id="a_edge7_Node000005_Node000008"><a xlink:title=" ">
<path fill="none" stroke="#63b8ff" d="M259.05,-54.84C267.64,-47.22 280.14,-36.12 290.48,-26.95"/>
<polygon fill="#63b8ff" stroke="#63b8ff" points="292.56,-29.79 297.72,-20.53 287.91,-24.55 292.56,-29.79"/>
</a>
</g>
</g>
<!-- Node5&#45;&gt;Node9 -->
<g id="edge8_Node000005_Node000009" class="edge">
<title>Node5&#45;&gt;Node9</title>
<g id="a_edge8_Node000005_Node000009"><a xlink:title=" ">
<path fill="none" stroke="#63b8ff" d="M269.57,-54.84C288.76,-46.47 317.59,-33.88 339.59,-24.28"/>
<polygon fill="#63b8ff" stroke="#63b8ff" points="340.93,-27.52 348.69,-20.31 338.13,-21.1 340.93,-27.52"/>
</a>
</g>
</g>
<!-- Node5&#45;&gt;Node10 -->
<g id="edge9_Node000005_Node000010" class="edge">
<title>Node5&#45;&gt;Node10</title>
<g id="a_edge9_Node000005_Node000010"><a xlink:title=" ">
<path fill="none" stroke="#63b8ff" d="M238.02,-54.84C228.77,-47.15 215.25,-35.9 204.17,-26.68"/>
<polygon fill="#63b8ff" stroke="#63b8ff" points="206.66,-24.2 196.73,-20.49 202.18,-29.58 206.66,-24.2"/>
</a>
</g>
</g>
<!-- Node5&#45;&gt;Node11 -->
<g id="edge10_Node000005_Node000011" class="edge">
<title>Node5&#45;&gt;Node11</title>
<g id="a_edge10_Node000005_Node000011"><a xlink:title=" ">
<path fill="none" stroke="#63b8ff" d="M280.77,-54.84C313.47,-45.58 364.34,-31.17 399.06,-21.34"/>
<polygon fill="#63b8ff" stroke="#63b8ff" points="399.59,-24.82 408.26,-18.73 397.69,-18.09 399.59,-24.82"/>
</a>
</g>
</g>
<!-- Node5&#45;&gt;Node12 -->
<g id="edge11_Node000005_Node000012" class="edge">
<title>Node5&#45;&gt;Node12</title>
<g id="a_edge11_Node000005_Node000012"><a xlink:title=" ">
<path fill="none" stroke="#63b8ff" d="M227.84,-54.84C208.24,-46.43 178.77,-33.77 156.37,-24.15"/>
<polygon fill="#63b8ff" stroke="#63b8ff" points="157.97,-21.03 147.4,-20.3 155.21,-27.46 157.97,-21.03"/>
</a>
</g>
</g>
</g>
</svg>
