<?xml version="1.0" encoding="UTF-8" standalone="no"?>
<!DOCTYPE svg PUBLIC "-//W3C//DTD SVG 1.1//EN"
 "http://www.w3.org/Graphics/SVG/1.1/DTD/svg11.dtd">
<!-- Generated by graphviz version 9.0.0 (20230911.1827)
 -->
<!-- Title: Constants/OscillatorConstants.h Pages: 1 -->
<svg width="3193pt" height="293pt"
 viewBox="0.00 0.00 3192.62 293.25" xmlns="http://www.w3.org/2000/svg" xmlns:xlink="http://www.w3.org/1999/xlink">
<g id="graph0" class="graph" transform="scale(1 1) rotate(0) translate(4 289.25)">
<title>Constants/OscillatorConstants.h</title>
<!-- Node1 -->
<g id="Node000001" class="node">
<title>Node1</title>
<g id="a_Node000001"><a xlink:title=" ">
<polygon fill="#999999" stroke="#666666" points="920.25,-285.25 764,-285.25 764,-266 920.25,-266 920.25,-285.25"/>
<text text-anchor="middle" x="842.12" y="-271.75" font-family="Helvetica,sans-Serif" font-size="10.00">Constants/OscillatorConstants.h</text>
</a>
</g>
</g>
<!-- Node2 -->
<g id="Node000002" class="node">
<title>Node2</title>
<g id="a_Node000002"><a xlink:href="Analysis_8cpp.html" target="_top" xlink:title=" ">
<polygon fill="white" stroke="#666666" points="96.25,-24.88 0,-24.88 0,-5.63 96.25,-5.63 96.25,-24.88"/>
<text text-anchor="middle" x="48.12" y="-11.38" font-family="Helvetica,sans-Serif" font-size="10.00">Apps/Analysis.cpp</text>
</a>
</g>
</g>
<!-- Node1&#45;&gt;Node2 -->
<g id="edge1_Node000001_Node000002" class="edge">
<title>Node1&#45;&gt;Node2</title>
<g id="a_edge1_Node000001_Node000002"><a xlink:title=" ">
<path fill="none" stroke="#63b8ff" d="M752.49,-269.81C645.48,-263.28 473.27,-250.07 412.12,-230 259.64,-179.94 101.66,-59.1 59.18,-25.22"/>
<polygon fill="#63b8ff" stroke="#63b8ff" points="752.22,-273.3 762.41,-270.41 752.64,-266.31 752.22,-273.3"/>
</a>
</g>
</g>
<!-- Node3 -->
<g id="Node000003" class="node">
<title>Node3</title>
<g id="a_Node000003"><a xlink:href="DragRace_8cpp.html" target="_top" xlink:title=" ">
<polygon fill="white" stroke="#666666" points="216.25,-24.88 114,-24.88 114,-5.63 216.25,-5.63 216.25,-24.88"/>
<text text-anchor="middle" x="165.12" y="-11.38" font-family="Helvetica,sans-Serif" font-size="10.00">Apps/DragRace.cpp</text>
</a>
</g>
</g>
<!-- Node1&#45;&gt;Node3 -->
<g id="edge2_Node000001_Node000003" class="edge">
<title>Node1&#45;&gt;Node3</title>
<g id="a_edge2_Node000001_Node000003"><a xlink:title=" ">
<path fill="none" stroke="#63b8ff" d="M752.58,-274.01C678.86,-271.03 572.63,-260.98 485.12,-230 347.2,-181.18 211.07,-59.46 174.6,-25.29"/>
<polygon fill="#63b8ff" stroke="#63b8ff" points="752.03,-277.49 762.15,-274.36 752.29,-270.49 752.03,-277.49"/>
</a>
</g>
</g>
<!-- Node4 -->
<g id="Node000004" class="node">
<title>Node4</title>
<g id="a_Node000004"><a xlink:href="MakeExampleBinning_8cpp.html" target="_top" xlink:title=" ">
<polygon fill="white" stroke="#666666" points="2210.38,-224.38 2057.88,-224.38 2057.88,-205.12 2210.38,-205.12 2210.38,-224.38"/>
<text text-anchor="middle" x="2134.12" y="-210.88" font-family="Helvetica,sans-Serif" font-size="10.00">Apps/MakeExampleBinning.cpp</text>
</a>
</g>
</g>
<!-- Node1&#45;&gt;Node4 -->
<g id="edge3_Node000001_Node000004" class="edge">
<title>Node1&#45;&gt;Node4</title>
<g id="a_edge3_Node000001_Node000004"><a xlink:title=" ">
<path fill="none" stroke="#63b8ff" d="M932.07,-274.96C1132.33,-274.91 1629.99,-270.33 2044.12,-230 2057.04,-228.74 2070.91,-226.83 2083.81,-224.81"/>
<polygon fill="#63b8ff" stroke="#63b8ff" points="932.26,-271.46 922.26,-274.96 932.26,-278.46 932.26,-271.46"/>
</a>
</g>
</g>
<!-- Node5 -->
<g id="Node000005" class="node">
<title>Node5</title>
<g id="a_Node000005"><a xlink:href="OscProbCalcerComparison_8cpp.html" target="_top" xlink:title=" ">
<polygon fill="white" stroke="#666666" points="411.75,-24.88 234.5,-24.88 234.5,-5.63 411.75,-5.63 411.75,-24.88"/>
<text text-anchor="middle" x="323.12" y="-11.38" font-family="Helvetica,sans-Serif" font-size="10.00">Apps/OscProbCalcerComparison.cpp</text>
</a>
</g>
</g>
<!-- Node1&#45;&gt;Node5 -->
<g id="edge4_Node000001_Node000005" class="edge">
<title>Node1&#45;&gt;Node5</title>
<g id="a_edge4_Node000001_Node000005"><a xlink:title=" ">
<path fill="none" stroke="#63b8ff" d="M752.42,-268.88C639.18,-256.59 446.57,-218.03 342.12,-97 324.15,-76.17 322.42,-41.47 322.7,-25.2"/>
<polygon fill="#63b8ff" stroke="#63b8ff" points="751.99,-272.36 762.3,-269.9 752.71,-265.39 751.99,-272.36"/>
</a>
</g>
</g>
<!-- Node6 -->
<g id="Node000006" class="node">
<title>Node6</title>
<g id="a_Node000006"><a xlink:href="SingleOscProbCalcer_8cpp.html" target="_top" xlink:title=" ">
<polygon fill="white" stroke="#666666" points="1494.38,-91.38 1341.88,-91.38 1341.88,-72.12 1494.38,-72.12 1494.38,-91.38"/>
<text text-anchor="middle" x="1418.12" y="-77.88" font-family="Helvetica,sans-Serif" font-size="10.00">Apps/SingleOscProbCalcer.cpp</text>
</a>
</g>
</g>
<!-- Node1&#45;&gt;Node6 -->
<g id="edge5_Node000001_Node000006" class="edge">
<title>Node1&#45;&gt;Node6</title>
<g id="a_edge5_Node000001_Node000006"><a xlink:title=" ">
<path fill="none" stroke="#63b8ff" d="M931.75,-271.37C1037.48,-263.97 1215.39,-240.07 1346.12,-163.5 1377.41,-145.18 1402.44,-108.59 1412.87,-91.69"/>
<polygon fill="#63b8ff" stroke="#63b8ff" points="931.74,-267.87 921.99,-272.02 932.2,-274.85 931.74,-267.87"/>
</a>
</g>
</g>
<!-- Node7 -->
<g id="Node000007" class="node">
<title>Node7</title>
<g id="a_Node000007"><a xlink:href="SingleOscillator_8cpp.html" target="_top" xlink:title=" ">
<polygon fill="white" stroke="#666666" points="558,-24.88 430.25,-24.88 430.25,-5.63 558,-5.63 558,-24.88"/>
<text text-anchor="middle" x="494.12" y="-11.38" font-family="Helvetica,sans-Serif" font-size="10.00">Apps/SingleOscillator.cpp</text>
</a>
</g>
</g>
<!-- Node1&#45;&gt;Node7 -->
<g id="edge6_Node000001_Node000007" class="edge">
<title>Node1&#45;&gt;Node7</title>
<g id="a_edge6_Node000001_Node000007"><a xlink:title=" ">
<path fill="none" stroke="#63b8ff" d="M807.7,-261.4C747.29,-236.8 620.95,-178.95 540.12,-97 518.6,-75.17 503.69,-41.27 497.43,-25.23"/>
<polygon fill="#63b8ff" stroke="#63b8ff" points="806.19,-264.57 816.78,-265.04 808.8,-258.07 806.19,-264.57"/>
</a>
</g>
</g>
<!-- Node8 -->
<g id="Node000008" class="node">
<title>Node8</title>
<g id="a_Node000008"><a xlink:href="OscProbCalcerBase_8h.html" target="_top" xlink:title=" ">
<polygon fill="white" stroke="#666666" points="2001.62,-230 1850.62,-230 1850.62,-199.5 2001.62,-199.5 2001.62,-230"/>
<text text-anchor="start" x="1858.62" y="-216.5" font-family="Helvetica,sans-Serif" font-size="10.00">OscProbCalcer/OscProbCalcer</text>
<text text-anchor="middle" x="1926.12" y="-205.25" font-family="Helvetica,sans-Serif" font-size="10.00">Base.h</text>
</a>
</g>
</g>
<!-- Node1&#45;&gt;Node8 -->
<g id="edge7_Node000001_Node000008" class="edge">
<title>Node1&#45;&gt;Node8</title>
<g id="a_edge7_Node000001_Node000008"><a xlink:title=" ">
<path fill="none" stroke="#63b8ff" d="M931.73,-269.76C1140.46,-258.42 1656.08,-230.42 1850.4,-219.86"/>
<polygon fill="#63b8ff" stroke="#63b8ff" points="931.83,-266.25 922.03,-270.29 932.21,-273.24 931.83,-266.25"/>
</a>
</g>
</g>
<!-- Node17 -->
<g id="Node000017" class="node">
<title>Node17</title>
<g id="a_Node000017"><a xlink:href="OscProbCalcer__CUDAProb3Linear_8h.html" target="_top" xlink:title=" ">
<polygon fill="white" stroke="#666666" points="3184.62,-163.5 3033.62,-163.5 3033.62,-133 3184.62,-133 3184.62,-163.5"/>
<text text-anchor="start" x="3041.62" y="-150" font-family="Helvetica,sans-Serif" font-size="10.00">OscProbCalcer/OscProbCalcer</text>
<text text-anchor="middle" x="3109.12" y="-138.75" font-family="Helvetica,sans-Serif" font-size="10.00">_CUDAProb3Linear.h</text>
</a>
</g>
</g>
<!-- Node1&#45;&gt;Node17 -->
<g id="edge49_Node000001_Node000017" class="edge">
<title>Node1&#45;&gt;Node17</title>
<g id="a_edge49_Node000001_Node000017"><a xlink:title=" ">
<path fill="none" stroke="#63b8ff" d="M932.04,-274.43C1188.44,-273.43 1911.22,-267.29 2011.12,-230 2031.41,-222.43 2028.83,-207.06 2049.12,-199.5 2150.82,-161.62 2917.18,-174.6 3025.12,-163.5 3027.77,-163.23 3030.46,-162.92 3033.18,-162.59"/>
<polygon fill="#63b8ff" stroke="#63b8ff" points="932.05,-270.93 922.06,-274.47 932.07,-277.93 932.05,-270.93"/>
</a>
</g>
</g>
<!-- Node31 -->
<g id="Node000031" class="node">
<title>Node31</title>
<g id="a_Node000031"><a xlink:href="OscillatorBase_8h.html" target="_top" xlink:title=" ">
<polygon fill="white" stroke="#666666" points="907.88,-157.88 776.38,-157.88 776.38,-138.62 907.88,-138.62 907.88,-157.88"/>
<text text-anchor="middle" x="842.12" y="-144.38" font-family="Helvetica,sans-Serif" font-size="10.00">Oscillator/OscillatorBase.h</text>
</a>
</g>
</g>
<!-- Node1&#45;&gt;Node31 -->
<g id="edge50_Node000001_Node000031" class="edge">
<title>Node1&#45;&gt;Node31</title>
<g id="a_edge50_Node000001_Node000031"><a xlink:title=" ">
<path fill="none" stroke="#63b8ff" d="M842.12,-254.18C842.12,-226.44 842.12,-178.08 842.12,-158.18"/>
<polygon fill="#63b8ff" stroke="#63b8ff" points="838.63,-254.09 842.13,-264.09 845.63,-254.09 838.63,-254.09"/>
</a>
</g>
</g>
<!-- Node8&#45;&gt;Node6 -->
<g id="edge8_Node000008_Node000006" class="edge">
<title>Node8&#45;&gt;Node6</title>
<g id="a_edge8_Node000008_Node000006"><a xlink:title=" ">
<path fill="none" stroke="#63b8ff" d="M1839.07,-209.78C1733.29,-203.85 1561.79,-190.38 1504.12,-163.5 1468.11,-146.71 1437.29,-109 1424.48,-91.71"/>
<polygon fill="#63b8ff" stroke="#63b8ff" points="1838.68,-213.26 1848.85,-210.31 1839.06,-206.27 1838.68,-213.26"/>
</a>
</g>
</g>
<!-- Node9 -->
<g id="Node000009" class="node">
<title>Node9</title>
<g id="a_Node000009"><a xlink:href="OscProbCalcerBase_8cpp.html" target="_top" xlink:title=" ">
<polygon fill="white" stroke="#666666" points="3015.62,-163.5 2864.62,-163.5 2864.62,-133 3015.62,-133 3015.62,-163.5"/>
<text text-anchor="start" x="2872.62" y="-150" font-family="Helvetica,sans-Serif" font-size="10.00">OscProbCalcer/OscProbCalcer</text>
<text text-anchor="middle" x="2940.12" y="-138.75" font-family="Helvetica,sans-Serif" font-size="10.00">Base.cpp</text>
</a>
</g>
</g>
<!-- Node8&#45;&gt;Node9 -->
<g id="edge9_Node000008_Node000009" class="edge">
<title>Node8&#45;&gt;Node9</title>
<g id="a_edge9_Node000008_Node000009"><a xlink:title=" ">
<path fill="none" stroke="#63b8ff" d="M2013.01,-199.82C2014.05,-199.71 2015.09,-199.6 2016.12,-199.5 2387.94,-162.22 2484.52,-202.83 2856.12,-163.5 2858.77,-163.22 2861.46,-162.91 2864.18,-162.57"/>
<polygon fill="#63b8ff" stroke="#63b8ff" points="2012.7,-196.34 2003.17,-200.97 2013.51,-203.29 2012.7,-196.34"/>
</a>
</g>
</g>
<!-- Node10 -->
<g id="Node000010" class="node">
<title>Node10</title>
<g id="a_Node000010"><a xlink:href="OscProbCalcerFactory_8h.html" target="_top" xlink:title=" ">
<polygon fill="white" stroke="#666666" points="1337.62,-163.5 1186.62,-163.5 1186.62,-133 1337.62,-133 1337.62,-163.5"/>
<text text-anchor="start" x="1194.62" y="-150" font-family="Helvetica,sans-Serif" font-size="10.00">OscProbCalcer/OscProbCalcer</text>
<text text-anchor="middle" x="1262.12" y="-138.75" font-family="Helvetica,sans-Serif" font-size="10.00">Factory.h</text>
</a>
</g>
</g>
<!-- Node8&#45;&gt;Node10 -->
<g id="edge10_Node000008_Node000010" class="edge">
<title>Node8&#45;&gt;Node10</title>
<g id="a_edge10_Node000008_Node000010"><a xlink:title=" ">
<path fill="none" stroke="#63b8ff" d="M1839.12,-205.3C1708.07,-192.57 1462.18,-168.68 1338,-156.62"/>
<polygon fill="#63b8ff" stroke="#63b8ff" points="1838.48,-208.75 1848.77,-206.24 1839.16,-201.79 1838.48,-208.75"/>
</a>
</g>
</g>
<!-- Node13 -->
<g id="Node000013" class="node">
<title>Node13</title>
<g id="a_Node000013"><a xlink:href="OscProbCalcer__CHICLinear_8h.html" target="_top" xlink:title=" ">
<polygon fill="white" stroke="#666666" points="1663.62,-163.5 1512.62,-163.5 1512.62,-133 1663.62,-133 1663.62,-163.5"/>
<text text-anchor="start" x="1520.62" y="-150" font-family="Helvetica,sans-Serif" font-size="10.00">OscProbCalcer/OscProbCalcer</text>
<text text-anchor="middle" x="1588.12" y="-138.75" font-family="Helvetica,sans-Serif" font-size="10.00">_CHICLinear.h</text>
</a>
</g>
</g>
<!-- Node8&#45;&gt;Node13 -->
<g id="edge14_Node000008_Node000013" class="edge">
<title>Node8&#45;&gt;Node13</title>
<g id="a_edge14_Node000008_Node000013"><a xlink:title=" ">
<path fill="none" stroke="#63b8ff" d="M1839.29,-197.18C1785.1,-186.84 1716.01,-173.65 1664.02,-163.73"/>
<polygon fill="#63b8ff" stroke="#63b8ff" points="1838.31,-200.55 1848.78,-198.99 1839.62,-193.68 1838.31,-200.55"/>
</a>
</g>
</g>
<!-- Node15 -->
<g id="Node000015" class="node">
<title>Node15</title>
<g id="a_Node000015"><a xlink:href="OscProbCalcer__CUDAProb3_8h.html" target="_top" xlink:title=" ">
<polygon fill="white" stroke="#666666" points="1832.62,-163.5 1681.62,-163.5 1681.62,-133 1832.62,-133 1832.62,-163.5"/>
<text text-anchor="start" x="1689.62" y="-150" font-family="Helvetica,sans-Serif" font-size="10.00">OscProbCalcer/OscProbCalcer</text>
<text text-anchor="middle" x="1757.12" y="-138.75" font-family="Helvetica,sans-Serif" font-size="10.00">_CUDAProb3.h</text>
</a>
</g>
</g>
<!-- Node8&#45;&gt;Node15 -->
<g id="edge16_Node000008_Node000015" class="edge">
<title>Node8&#45;&gt;Node15</title>
<g id="a_edge16_Node000008_Node000015"><a xlink:title=" ">
<path fill="none" stroke="#63b8ff" d="M1877.04,-195.01C1851.11,-185.12 1819.76,-173.15 1795.61,-163.94"/>
<polygon fill="#63b8ff" stroke="#63b8ff" points="1875.77,-198.28 1886.36,-198.57 1878.27,-191.74 1875.77,-198.28"/>
</a>
</g>
</g>
<!-- Node8&#45;&gt;Node17 -->
<g id="edge18_Node000008_Node000017" class="edge">
<title>Node8&#45;&gt;Node17</title>
<g id="a_edge18_Node000008_Node000017"><a xlink:title=" ">
<path fill="none" stroke="#63b8ff" d="M2013.01,-199.81C2014.05,-199.7 2015.09,-199.6 2016.12,-199.5 2462.77,-156.33 2578.72,-209.13 3025.12,-163.5 3027.77,-163.23 3030.47,-162.93 3033.18,-162.6"/>
<polygon fill="#63b8ff" stroke="#63b8ff" points="2012.7,-196.32 2003.17,-200.94 2013.5,-203.28 2012.7,-196.32"/>
</a>
</g>
</g>
<!-- Node19 -->
<g id="Node000019" class="node">
<title>Node19</title>
<g id="a_Node000019"><a xlink:href="OscProbCalcer__GLoBESLinear_8h.html" target="_top" xlink:title=" ">
<polygon fill="white" stroke="#666666" points="2001.62,-163.5 1850.62,-163.5 1850.62,-133 2001.62,-133 2001.62,-163.5"/>
<text text-anchor="start" x="1858.62" y="-150" font-family="Helvetica,sans-Serif" font-size="10.00">OscProbCalcer/OscProbCalcer</text>
<text text-anchor="middle" x="1926.12" y="-138.75" font-family="Helvetica,sans-Serif" font-size="10.00">_GLoBESLinear.h</text>
</a>
</g>
</g>
<!-- Node8&#45;&gt;Node19 -->
<g id="edge20_Node000008_Node000019" class="edge">
<title>Node8&#45;&gt;Node19</title>
<g id="a_edge20_Node000008_Node000019"><a xlink:title=" ">
<path fill="none" stroke="#63b8ff" d="M1926.12,-187.81C1926.12,-179.64 1926.12,-170.91 1926.12,-163.83"/>
<polygon fill="#63b8ff" stroke="#63b8ff" points="1922.63,-187.6 1926.13,-197.6 1929.63,-187.6 1922.63,-187.6"/>
</a>
</g>
</g>
<!-- Node21 -->
<g id="Node000021" class="node">
<title>Node21</title>
<g id="a_Node000021"><a xlink:href="OscProbCalcer__NuFASTLinear_8h.html" target="_top" xlink:title=" ">
<polygon fill="white" stroke="#666666" points="2170.62,-163.5 2019.62,-163.5 2019.62,-133 2170.62,-133 2170.62,-163.5"/>
<text text-anchor="start" x="2027.62" y="-150" font-family="Helvetica,sans-Serif" font-size="10.00">OscProbCalcer/OscProbCalcer</text>
<text text-anchor="middle" x="2095.12" y="-138.75" font-family="Helvetica,sans-Serif" font-size="10.00">_NuFASTLinear.h</text>
</a>
</g>
</g>
<!-- Node8&#45;&gt;Node21 -->
<g id="edge22_Node000008_Node000021" class="edge">
<title>Node8&#45;&gt;Node21</title>
<g id="a_edge22_Node000008_Node000021"><a xlink:title=" ">
<path fill="none" stroke="#63b8ff" d="M1975.21,-195.01C2001.14,-185.12 2032.49,-173.15 2056.64,-163.94"/>
<polygon fill="#63b8ff" stroke="#63b8ff" points="1973.98,-191.74 1965.89,-198.57 1976.48,-198.28 1973.98,-191.74"/>
</a>
</g>
</g>
<!-- Node23 -->
<g id="Node000023" class="node">
<title>Node23</title>
<g id="a_Node000023"><a xlink:href="OscProbCalcer__NuSQUIDSLinear_8h.html" target="_top" xlink:title=" ">
<polygon fill="white" stroke="#666666" points="2339.62,-163.5 2188.62,-163.5 2188.62,-133 2339.62,-133 2339.62,-163.5"/>
<text text-anchor="start" x="2196.62" y="-150" font-family="Helvetica,sans-Serif" font-size="10.00">OscProbCalcer/OscProbCalcer</text>
<text text-anchor="middle" x="2264.12" y="-138.75" font-family="Helvetica,sans-Serif" font-size="10.00">_NuSQUIDSLinear.h</text>
</a>
</g>
</g>
<!-- Node8&#45;&gt;Node23 -->
<g id="edge24_Node000008_Node000023" class="edge">
<title>Node8&#45;&gt;Node23</title>
<g id="a_edge24_Node000008_Node000023"><a xlink:title=" ">
<path fill="none" stroke="#63b8ff" d="M2012.96,-197.18C2067.15,-186.84 2136.24,-173.65 2188.23,-163.73"/>
<polygon fill="#63b8ff" stroke="#63b8ff" points="2012.63,-193.68 2003.47,-198.99 2013.94,-200.55 2012.63,-193.68"/>
</a>
</g>
</g>
<!-- Node25 -->
<g id="Node000025" class="node">
<title>Node25</title>
<g id="a_Node000025"><a xlink:href="OscProbCalcer__OscProb_8h.html" target="_top" xlink:title=" ">
<polygon fill="white" stroke="#666666" points="2508.62,-163.5 2357.62,-163.5 2357.62,-133 2508.62,-133 2508.62,-163.5"/>
<text text-anchor="start" x="2365.62" y="-150" font-family="Helvetica,sans-Serif" font-size="10.00">OscProbCalcer/OscProbCalcer</text>
<text text-anchor="middle" x="2433.12" y="-138.75" font-family="Helvetica,sans-Serif" font-size="10.00">_OscProb.h</text>
</a>
</g>
</g>
<!-- Node8&#45;&gt;Node25 -->
<g id="edge26_Node000008_Node000025" class="edge">
<title>Node8&#45;&gt;Node25</title>
<g id="a_edge26_Node000008_Node000025"><a xlink:title=" ">
<path fill="none" stroke="#63b8ff" d="M2013.02,-199.92C2014.06,-199.78 2015.1,-199.64 2016.12,-199.5 2163.69,-179.85 2201.68,-183.96 2349.12,-163.5 2351.76,-163.13 2354.44,-162.75 2357.15,-162.35"/>
<polygon fill="#63b8ff" stroke="#63b8ff" points="2012.62,-196.44 2003.21,-201.3 2013.6,-203.37 2012.62,-196.44"/>
</a>
</g>
</g>
<!-- Node27 -->
<g id="Node000027" class="node">
<title>Node27</title>
<g id="a_Node000027"><a xlink:href="OscProbCalcer__Prob3ppLinear_8h.html" target="_top" xlink:title=" ">
<polygon fill="white" stroke="#666666" points="2677.62,-163.5 2526.62,-163.5 2526.62,-133 2677.62,-133 2677.62,-163.5"/>
<text text-anchor="start" x="2534.62" y="-150" font-family="Helvetica,sans-Serif" font-size="10.00">OscProbCalcer/OscProbCalcer</text>
<text text-anchor="middle" x="2602.12" y="-138.75" font-family="Helvetica,sans-Serif" font-size="10.00">_Prob3ppLinear.h</text>
</a>
</g>
</g>
<!-- Node8&#45;&gt;Node27 -->
<g id="edge28_Node000008_Node000027" class="edge">
<title>Node8&#45;&gt;Node27</title>
<g id="a_edge28_Node000008_Node000027"><a xlink:title=" ">
<path fill="none" stroke="#63b8ff" d="M2013.01,-199.86C2014.06,-199.74 2015.09,-199.62 2016.12,-199.5 2238.35,-173.99 2296.04,-190.24 2518.12,-163.5 2520.77,-163.18 2523.46,-162.84 2526.17,-162.47"/>
<polygon fill="#63b8ff" stroke="#63b8ff" points="2012.66,-196.38 2003.18,-201.12 2013.55,-203.33 2012.66,-196.38"/>
</a>
</g>
</g>
<!-- Node29 -->
<g id="Node000029" class="node">
<title>Node29</title>
<g id="a_Node000029"><a xlink:href="OscProbCalcer__ProbGPULinear_8h.html" target="_top" xlink:title=" ">
<polygon fill="white" stroke="#666666" points="2846.62,-163.5 2695.62,-163.5 2695.62,-133 2846.62,-133 2846.62,-163.5"/>
<text text-anchor="start" x="2703.62" y="-150" font-family="Helvetica,sans-Serif" font-size="10.00">OscProbCalcer/OscProbCalcer</text>
<text text-anchor="middle" x="2771.12" y="-138.75" font-family="Helvetica,sans-Serif" font-size="10.00">_ProbGPULinear.h</text>
</a>
</g>
</g>
<!-- Node8&#45;&gt;Node29 -->
<g id="edge30_Node000008_Node000029" class="edge">
<title>Node8&#45;&gt;Node29</title>
<g id="a_edge30_Node000008_Node000029"><a xlink:title=" ">
<path fill="none" stroke="#63b8ff" d="M2013.01,-199.84C2014.05,-199.72 2015.09,-199.61 2016.12,-199.5 2313.12,-168.11 2390.31,-196.53 2687.12,-163.5 2689.77,-163.21 2692.46,-162.88 2695.17,-162.54"/>
<polygon fill="#63b8ff" stroke="#63b8ff" points="2012.68,-196.35 2003.17,-201.03 2013.52,-203.3 2012.68,-196.35"/>
</a>
</g>
</g>
<!-- Node8&#45;&gt;Node31 -->
<g id="edge32_Node000008_Node000031" class="edge">
<title>Node8&#45;&gt;Node31</title>
<g id="a_edge32_Node000008_Node000031"><a xlink:title=" ">
<path fill="none" stroke="#63b8ff" d="M1839.04,-208.57C1628.44,-196.04 1095.2,-164.31 908.17,-153.18"/>
<polygon fill="#63b8ff" stroke="#63b8ff" points="1838.63,-212.05 1848.82,-209.15 1839.05,-205.06 1838.63,-212.05"/>
</a>
</g>
</g>
<!-- Node10&#45;&gt;Node6 -->
<g id="edge11_Node000010_Node000006" class="edge">
<title>Node10&#45;&gt;Node6</title>
<g id="a_edge11_Node000010_Node000006"><a xlink:title=" ">
<path fill="none" stroke="#63b8ff" d="M1307.9,-128.32C1337.07,-116.26 1373.53,-101.19 1396.33,-91.76"/>
<polygon fill="#63b8ff" stroke="#63b8ff" points="1306.83,-124.98 1298.92,-132.04 1309.5,-131.45 1306.83,-124.98"/>
</a>
</g>
</g>
<!-- Node11 -->
<g id="Node000011" class="node">
<title>Node11</title>
<g id="a_Node000011"><a xlink:href="OscProbCalcerFactory_8cpp.html" target="_top" xlink:title=" ">
<polygon fill="white" stroke="#666666" points="1323.62,-97 1172.62,-97 1172.62,-66.5 1323.62,-66.5 1323.62,-97"/>
<text text-anchor="start" x="1180.62" y="-83.5" font-family="Helvetica,sans-Serif" font-size="10.00">OscProbCalcer/OscProbCalcer</text>
<text text-anchor="middle" x="1248.12" y="-72.25" font-family="Helvetica,sans-Serif" font-size="10.00">Factory.cpp</text>
</a>
</g>
</g>
<!-- Node10&#45;&gt;Node11 -->
<g id="edge12_Node000010_Node000011" class="edge">
<title>Node10&#45;&gt;Node11</title>
<g id="a_edge12_Node000010_Node000011"><a xlink:title=" ">
<path fill="none" stroke="#63b8ff" d="M1256.56,-121.59C1254.77,-113.34 1252.84,-104.49 1251.29,-97.33"/>
<polygon fill="#63b8ff" stroke="#63b8ff" points="1253.09,-122.1 1258.63,-131.13 1259.93,-120.62 1253.09,-122.1"/>
</a>
</g>
</g>
<!-- Node12 -->
<g id="Node000012" class="node">
<title>Node12</title>
<g id="a_Node000012"><a xlink:href="OscillatorBase_8cpp.html" target="_top" xlink:title=" ">
<polygon fill="white" stroke="#666666" points="1154.12,-91.38 1012.12,-91.38 1012.12,-72.12 1154.12,-72.12 1154.12,-91.38"/>
<text text-anchor="middle" x="1083.12" y="-77.88" font-family="Helvetica,sans-Serif" font-size="10.00">Oscillator/OscillatorBase.cpp</text>
</a>
</g>
</g>
<!-- Node10&#45;&gt;Node12 -->
<g id="edge13_Node000010_Node000012" class="edge">
<title>Node10&#45;&gt;Node12</title>
<g id="a_edge13_Node000010_Node000012"><a xlink:title=" ">
<path fill="none" stroke="#63b8ff" d="M1210.95,-128.81C1177.37,-116.71 1134.92,-101.41 1108.39,-91.85"/>
<polygon fill="#63b8ff" stroke="#63b8ff" points="1209.49,-132 1220.08,-132.1 1211.86,-125.42 1209.49,-132"/>
</a>
</g>
</g>
<!-- Node14 -->
<g id="Node000014" class="node">
<title>Node14</title>
<g id="a_Node000014"><a xlink:href="OscProbCalcer__CHICLinear_8cpp.html" target="_top" xlink:title=" ">
<polygon fill="white" stroke="#666666" points="1663.62,-97 1512.62,-97 1512.62,-66.5 1663.62,-66.5 1663.62,-97"/>
<text text-anchor="start" x="1520.62" y="-83.5" font-family="Helvetica,sans-Serif" font-size="10.00">OscProbCalcer/OscProbCalcer</text>
<text text-anchor="middle" x="1588.12" y="-72.25" font-family="Helvetica,sans-Serif" font-size="10.00">_CHICLinear.cpp</text>
</a>
</g>
</g>
<!-- Node13&#45;&gt;Node14 -->
<g id="edge15_Node000013_Node000014" class="edge">
<title>Node13&#45;&gt;Node14</title>
<g id="a_edge15_Node000013_Node000014"><a xlink:title=" ">
<path fill="none" stroke="#63b8ff" d="M1588.12,-121.31C1588.12,-113.14 1588.12,-104.41 1588.12,-97.33"/>
<polygon fill="#63b8ff" stroke="#63b8ff" points="1584.63,-121.1 1588.13,-131.1 1591.63,-121.1 1584.63,-121.1"/>
</a>
</g>
</g>
<!-- Node16 -->
<g id="Node000016" class="node">
<title>Node16</title>
<g id="a_Node000016"><a xlink:href="OscProbCalcer__CUDAProb3_8cpp.html" target="_top" xlink:title=" ">
<polygon fill="white" stroke="#666666" points="1832.62,-97 1681.62,-97 1681.62,-66.5 1832.62,-66.5 1832.62,-97"/>
<text text-anchor="start" x="1689.62" y="-83.5" font-family="Helvetica,sans-Serif" font-size="10.00">OscProbCalcer/OscProbCalcer</text>
<text text-anchor="middle" x="1757.12" y="-72.25" font-family="Helvetica,sans-Serif" font-size="10.00">_CUDAProb3.cpp</text>
</a>
</g>
</g>
<!-- Node15&#45;&gt;Node16 -->
<g id="edge17_Node000015_Node000016" class="edge">
<title>Node15&#45;&gt;Node16</title>
<g id="a_edge17_Node000015_Node000016"><a xlink:title=" ">
<path fill="none" stroke="#63b8ff" d="M1757.12,-121.31C1757.12,-113.14 1757.12,-104.41 1757.12,-97.33"/>
<polygon fill="#63b8ff" stroke="#63b8ff" points="1753.63,-121.1 1757.13,-131.1 1760.63,-121.1 1753.63,-121.1"/>
</a>
</g>
</g>
<!-- Node18 -->
<g id="Node000018" class="node">
<title>Node18</title>
<g id="a_Node000018"><a xlink:href="OscProbCalcer__CUDAProb3Linear_8cpp.html" target="_top" xlink:title=" ">
<polygon fill="white" stroke="#666666" points="3184.62,-97 3033.62,-97 3033.62,-66.5 3184.62,-66.5 3184.62,-97"/>
<text text-anchor="start" x="3041.62" y="-83.5" font-family="Helvetica,sans-Serif" font-size="10.00">OscProbCalcer/OscProbCalcer</text>
<text text-anchor="middle" x="3109.12" y="-72.25" font-family="Helvetica,sans-Serif" font-size="10.00">_CUDAProb3Linear.cpp</text>
</a>
</g>
</g>
<!-- Node17&#45;&gt;Node18 -->
<g id="edge19_Node000017_Node000018" class="edge">
<title>Node17&#45;&gt;Node18</title>
<g id="a_edge19_Node000017_Node000018"><a xlink:title=" ">
<path fill="none" stroke="#63b8ff" d="M3109.12,-121.31C3109.12,-113.14 3109.12,-104.41 3109.12,-97.33"/>
<polygon fill="#63b8ff" stroke="#63b8ff" points="3105.63,-121.1 3109.13,-131.1 3112.63,-121.1 3105.63,-121.1"/>
</a>
</g>
</g>
<!-- Node20 -->
<g id="Node000020" class="node">
<title>Node20</title>
<g id="a_Node000020"><a xlink:href="OscProbCalcer__GLoBESLinear_8cpp.html" target="_top" xlink:title=" ">
<polygon fill="white" stroke="#666666" points="2001.62,-97 1850.62,-97 1850.62,-66.5 2001.62,-66.5 2001.62,-97"/>
<text text-anchor="start" x="1858.62" y="-83.5" font-family="Helvetica,sans-Serif" font-size="10.00">OscProbCalcer/OscProbCalcer</text>
<text text-anchor="middle" x="1926.12" y="-72.25" font-family="Helvetica,sans-Serif" font-size="10.00">_GLoBESLinear.cpp</text>
</a>
</g>
</g>
<!-- Node19&#45;&gt;Node20 -->
<g id="edge21_Node000019_Node000020" class="edge">
<title>Node19&#45;&gt;Node20</title>
<g id="a_edge21_Node000019_Node000020"><a xlink:title=" ">
<path fill="none" stroke="#63b8ff" d="M1926.12,-121.31C1926.12,-113.14 1926.12,-104.41 1926.12,-97.33"/>
<polygon fill="#63b8ff" stroke="#63b8ff" points="1922.63,-121.1 1926.13,-131.1 1929.63,-121.1 1922.63,-121.1"/>
</a>
</g>
</g>
<!-- Node22 -->
<g id="Node000022" class="node">
<title>Node22</title>
<g id="a_Node000022"><a xlink:href="OscProbCalcer__NuFASTLinear_8cpp.html" target="_top" xlink:title=" ">
<polygon fill="white" stroke="#666666" points="2170.62,-97 2019.62,-97 2019.62,-66.5 2170.62,-66.5 2170.62,-97"/>
<text text-anchor="start" x="2027.62" y="-83.5" font-family="Helvetica,sans-Serif" font-size="10.00">OscProbCalcer/OscProbCalcer</text>
<text text-anchor="middle" x="2095.12" y="-72.25" font-family="Helvetica,sans-Serif" font-size="10.00">_NuFASTLinear.cpp</text>
</a>
</g>
</g>
<!-- Node21&#45;&gt;Node22 -->
<g id="edge23_Node000021_Node000022" class="edge">
<title>Node21&#45;&gt;Node22</title>
<g id="a_edge23_Node000021_Node000022"><a xlink:title=" ">
<path fill="none" stroke="#63b8ff" d="M2095.12,-121.31C2095.12,-113.14 2095.12,-104.41 2095.12,-97.33"/>
<polygon fill="#63b8ff" stroke="#63b8ff" points="2091.63,-121.1 2095.13,-131.1 2098.63,-121.1 2091.63,-121.1"/>
</a>
</g>
</g>
<!-- Node24 -->
<g id="Node000024" class="node">
<title>Node24</title>
<g id="a_Node000024"><a xlink:href="OscProbCalcer__NuSQUIDSLinear_8cpp.html" target="_top" xlink:title=" ">
<polygon fill="white" stroke="#666666" points="2339.62,-97 2188.62,-97 2188.62,-66.5 2339.62,-66.5 2339.62,-97"/>
<text text-anchor="start" x="2196.62" y="-83.5" font-family="Helvetica,sans-Serif" font-size="10.00">OscProbCalcer/OscProbCalcer</text>
<text text-anchor="middle" x="2264.12" y="-72.25" font-family="Helvetica,sans-Serif" font-size="10.00">_NuSQUIDSLinear.cpp</text>
</a>
</g>
</g>
<!-- Node23&#45;&gt;Node24 -->
<g id="edge25_Node000023_Node000024" class="edge">
<title>Node23&#45;&gt;Node24</title>
<g id="a_edge25_Node000023_Node000024"><a xlink:title=" ">
<path fill="none" stroke="#63b8ff" d="M2264.12,-121.31C2264.12,-113.14 2264.12,-104.41 2264.12,-97.33"/>
<polygon fill="#63b8ff" stroke="#63b8ff" points="2260.63,-121.1 2264.13,-131.1 2267.63,-121.1 2260.63,-121.1"/>
</a>
</g>
</g>
<!-- Node26 -->
<g id="Node000026" class="node">
<title>Node26</title>
<g id="a_Node000026"><a xlink:href="OscProbCalcer__OscProb_8cpp.html" target="_top" xlink:title=" ">
<polygon fill="white" stroke="#666666" points="2508.62,-97 2357.62,-97 2357.62,-66.5 2508.62,-66.5 2508.62,-97"/>
<text text-anchor="start" x="2365.62" y="-83.5" font-family="Helvetica,sans-Serif" font-size="10.00">OscProbCalcer/OscProbCalcer</text>
<text text-anchor="middle" x="2433.12" y="-72.25" font-family="Helvetica,sans-Serif" font-size="10.00">_OscProb.cpp</text>
</a>
</g>
</g>
<!-- Node25&#45;&gt;Node26 -->
<g id="edge27_Node000025_Node000026" class="edge">
<title>Node25&#45;&gt;Node26</title>
<g id="a_edge27_Node000025_Node000026"><a xlink:title=" ">
<path fill="none" stroke="#63b8ff" d="M2433.12,-121.31C2433.12,-113.14 2433.12,-104.41 2433.12,-97.33"/>
<polygon fill="#63b8ff" stroke="#63b8ff" points="2429.63,-121.1 2433.13,-131.1 2436.63,-121.1 2429.63,-121.1"/>
</a>
</g>
</g>
<!-- Node28 -->
<g id="Node000028" class="node">
<title>Node28</title>
<g id="a_Node000028"><a xlink:href="OscProbCalcer__Prob3ppLinear_8cpp.html" target="_top" xlink:title=" ">
<polygon fill="white" stroke="#666666" points="2677.62,-97 2526.62,-97 2526.62,-66.5 2677.62,-66.5 2677.62,-97"/>
<text text-anchor="start" x="2534.62" y="-83.5" font-family="Helvetica,sans-Serif" font-size="10.00">OscProbCalcer/OscProbCalcer</text>
<text text-anchor="middle" x="2602.12" y="-72.25" font-family="Helvetica,sans-Serif" font-size="10.00">_Prob3ppLinear.cpp</text>
</a>
</g>
</g>
<!-- Node27&#45;&gt;Node28 -->
<g id="edge29_Node000027_Node000028" class="edge">
<title>Node27&#45;&gt;Node28</title>
<g id="a_edge29_Node000027_Node000028"><a xlink:title=" ">
<path fill="none" stroke="#63b8ff" d="M2602.12,-121.31C2602.12,-113.14 2602.12,-104.41 2602.12,-97.33"/>
<polygon fill="#63b8ff" stroke="#63b8ff" points="2598.63,-121.1 2602.13,-131.1 2605.63,-121.1 2598.63,-121.1"/>
</a>
</g>
</g>
<!-- Node30 -->
<g id="Node000030" class="node">
<title>Node30</title>
<g id="a_Node000030"><a xlink:href="OscProbCalcer__ProbGPULinear_8cpp.html" target="_top" xlink:title=" ">
<polygon fill="white" stroke="#666666" points="2846.62,-97 2695.62,-97 2695.62,-66.5 2846.62,-66.5 2846.62,-97"/>
<text text-anchor="start" x="2703.62" y="-83.5" font-family="Helvetica,sans-Serif" font-size="10.00">OscProbCalcer/OscProbCalcer</text>
<text text-anchor="middle" x="2771.12" y="-72.25" font-family="Helvetica,sans-Serif" font-size="10.00">_ProbGPULinear.cpp</text>
</a>
</g>
</g>
<!-- Node29&#45;&gt;Node30 -->
<g id="edge31_Node000029_Node000030" class="edge">
<title>Node29&#45;&gt;Node30</title>
<g id="a_edge31_Node000029_Node000030"><a xlink:title=" ">
<path fill="none" stroke="#63b8ff" d="M2771.12,-121.31C2771.12,-113.14 2771.12,-104.41 2771.12,-97.33"/>
<polygon fill="#63b8ff" stroke="#63b8ff" points="2767.63,-121.1 2771.13,-131.1 2774.63,-121.1 2767.63,-121.1"/>
</a>
</g>
</g>
<!-- Node31&#45;&gt;Node12 -->
<g id="edge33_Node000031_Node000012" class="edge">
<title>Node31&#45;&gt;Node12</title>
<g id="a_edge33_Node000031_Node000012"><a xlink:title=" ">
<path fill="none" stroke="#63b8ff" d="M887.22,-135.18C934.26,-122.59 1006.93,-103.14 1049.28,-91.81"/>
<polygon fill="#63b8ff" stroke="#63b8ff" points="886.36,-131.79 877.61,-137.75 888.17,-138.55 886.36,-131.79"/>
</a>
</g>
</g>
<!-- Node32 -->
<g id="Node000032" class="node">
<title>Node32</title>
<g id="a_Node000032"><a xlink:href="OscillatorBinned_8h.html" target="_top" xlink:title=" ">
<polygon fill="white" stroke="#666666" points="688.62,-91.38 549.62,-91.38 549.62,-72.12 688.62,-72.12 688.62,-91.38"/>
<text text-anchor="middle" x="619.12" y="-77.88" font-family="Helvetica,sans-Serif" font-size="10.00">Oscillator/OscillatorBinned.h</text>
</a>
</g>
</g>
<!-- Node31&#45;&gt;Node32 -->
<g id="edge34_Node000031_Node000032" class="edge">
<title>Node31&#45;&gt;Node32</title>
<g id="a_edge34_Node000031_Node000032"><a xlink:title=" ">
<path fill="none" stroke="#63b8ff" d="M799.84,-135.02C756.3,-122.43 689.46,-103.09 650.44,-91.81"/>
<polygon fill="#63b8ff" stroke="#63b8ff" points="798.61,-138.31 809.19,-137.72 800.56,-131.58 798.61,-138.31"/>
</a>
</g>
</g>
<!-- Node35 -->
<g id="Node000035" class="node">
<title>Node35</title>
<g id="a_Node000035"><a xlink:href="OscillatorFactory_8h.html" target="_top" xlink:title=" ">
<polygon fill="white" stroke="#666666" points="492.75,-91.38 351.5,-91.38 351.5,-72.12 492.75,-72.12 492.75,-91.38"/>
<text text-anchor="middle" x="422.12" y="-77.88" font-family="Helvetica,sans-Serif" font-size="10.00">Oscillator/OscillatorFactory.h</text>
</a>
</g>
</g>
<!-- Node31&#45;&gt;Node35 -->
<g id="edge37_Node000031_Node000035" class="edge">
<title>Node31&#45;&gt;Node35</title>
<g id="a_edge37_Node000031_Node000035"><a xlink:title=" ">
<path fill="none" stroke="#63b8ff" d="M771.71,-136.44C690.32,-123.94 557.81,-103.59 481.45,-91.86"/>
<polygon fill="#63b8ff" stroke="#63b8ff" points="770.93,-139.86 781.34,-137.92 771.99,-132.94 770.93,-139.86"/>
</a>
</g>
</g>
<!-- Node36 -->
<g id="Node000036" class="node">
<title>Node36</title>
<g id="a_Node000036"><a xlink:href="OscillatorSubSampling_8h.html" target="_top" xlink:title=" ">
<polygon fill="white" stroke="#666666" points="825.5,-97 706.75,-97 706.75,-66.5 825.5,-66.5 825.5,-97"/>
<text text-anchor="start" x="714.75" y="-83.5" font-family="Helvetica,sans-Serif" font-size="10.00">Oscillator/OscillatorSub</text>
<text text-anchor="middle" x="766.12" y="-72.25" font-family="Helvetica,sans-Serif" font-size="10.00">Sampling.h</text>
</a>
</g>
</g>
<!-- Node31&#45;&gt;Node36 -->
<g id="edge43_Node000031_Node000036" class="edge">
<title>Node31&#45;&gt;Node36</title>
<g id="a_edge43_Node000031_Node000036"><a xlink:title=" ">
<path fill="none" stroke="#63b8ff" d="M823.03,-131.04C810.82,-120.69 795.13,-107.37 783.32,-97.34"/>
<polygon fill="#63b8ff" stroke="#63b8ff" points="820.51,-133.5 830.4,-137.3 825.04,-128.16 820.51,-133.5"/>
</a>
</g>
</g>
<!-- Node38 -->
<g id="Node000038" class="node">
<title>Node38</title>
<g id="a_Node000038"><a xlink:href="OscillatorUnbinned_8h.html" target="_top" xlink:title=" ">
<polygon fill="white" stroke="#666666" points="994.25,-91.38 844,-91.38 844,-72.12 994.25,-72.12 994.25,-91.38"/>
<text text-anchor="middle" x="919.12" y="-77.88" font-family="Helvetica,sans-Serif" font-size="10.00">Oscillator/OscillatorUnbinned.h</text>
</a>
</g>
</g>
<!-- Node31&#45;&gt;Node38 -->
<g id="edge46_Node000031_Node000038" class="edge">
<title>Node31&#45;&gt;Node38</title>
<g id="a_edge46_Node000031_Node000038"><a xlink:title=" ">
<path fill="none" stroke="#63b8ff" d="M861.33,-131.17C876.24,-118.67 896.37,-101.81 908.51,-91.64"/>
<polygon fill="#63b8ff" stroke="#63b8ff" points="859.41,-128.21 853.99,-137.31 863.91,-133.57 859.41,-128.21"/>
</a>
</g>
</g>
<!-- Node33 -->
<g id="Node000033" class="node">
<title>Node33</title>
<g id="a_Node000033"><a xlink:href="OscillatorBinned_8cpp.html" target="_top" xlink:title=" ">
<polygon fill="white" stroke="#666666" points="725.88,-24.88 576.38,-24.88 576.38,-5.63 725.88,-5.63 725.88,-24.88"/>
<text text-anchor="middle" x="651.12" y="-11.38" font-family="Helvetica,sans-Serif" font-size="10.00">Oscillator/OscillatorBinned.cpp</text>
</a>
</g>
</g>
<!-- Node32&#45;&gt;Node33 -->
<g id="edge35_Node000032_Node000033" class="edge">
<title>Node32&#45;&gt;Node33</title>
<g id="a_edge35_Node000032_Node000033"><a xlink:title=" ">
<path fill="none" stroke="#63b8ff" d="M628.54,-61.77C634.55,-49.67 642.05,-34.55 646.71,-25.14"/>
<polygon fill="#63b8ff" stroke="#63b8ff" points="625.56,-59.91 624.25,-70.43 631.83,-63.02 625.56,-59.91"/>
</a>
</g>
</g>
<!-- Node34 -->
<g id="Node000034" class="node">
<title>Node34</title>
<g id="a_Node000034"><a xlink:href="OscillatorFactory_8cpp.html" target="_top" xlink:title=" ">
<polygon fill="white" stroke="#666666" points="896,-24.88 744.25,-24.88 744.25,-5.63 896,-5.63 896,-24.88"/>
<text text-anchor="middle" x="820.12" y="-11.38" font-family="Helvetica,sans-Serif" font-size="10.00">Oscillator/OscillatorFactory.cpp</text>
</a>
</g>
</g>
<!-- Node32&#45;&gt;Node34 -->
<g id="edge36_Node000032_Node000034" class="edge">
<title>Node32&#45;&gt;Node34</title>
<g id="a_edge36_Node000032_Node000034"><a xlink:title=" ">
<path fill="none" stroke="#63b8ff" d="M658.24,-68.2C697.5,-55.6 757.02,-36.5 791.9,-25.31"/>
<polygon fill="#63b8ff" stroke="#63b8ff" points="657.39,-64.79 648.94,-71.18 659.53,-71.46 657.39,-64.79"/>
</a>
</g>
</g>
<!-- Node35&#45;&gt;Node2 -->
<g id="edge38_Node000035_Node000002" class="edge">
<title>Node35&#45;&gt;Node2</title>
<g id="a_edge38_Node000035_Node000002"><a xlink:title=" ">
<path fill="none" stroke="#63b8ff" d="M342.21,-70.06C277.9,-60.99 185.35,-46.85 105.12,-30.5 97.73,-28.99 89.85,-27.17 82.38,-25.33"/>
<polygon fill="#63b8ff" stroke="#63b8ff" points="341.6,-73.51 351.98,-71.43 342.57,-66.58 341.6,-73.51"/>
</a>
</g>
</g>
<!-- Node35&#45;&gt;Node3 -->
<g id="edge39_Node000035_Node000003" class="edge">
<title>Node35&#45;&gt;Node3</title>
<g id="a_edge39_Node000035_Node000003"><a xlink:title=" ">
<path fill="none" stroke="#63b8ff" d="M374.98,-68.92C324.85,-56.34 246.67,-36.71 201.22,-25.31"/>
<polygon fill="#63b8ff" stroke="#63b8ff" points="373.83,-72.24 384.38,-71.28 375.53,-65.45 373.83,-72.24"/>
</a>
</g>
</g>
<!-- Node35&#45;&gt;Node5 -->
<g id="edge40_Node000035_Node000005" class="edge">
<title>Node35&#45;&gt;Node5</title>
<g id="a_edge40_Node000035_Node000005"><a xlink:title=" ">
<path fill="none" stroke="#63b8ff" d="M398.84,-65.58C379.67,-53.09 353.12,-35.8 337.09,-25.35"/>
<polygon fill="#63b8ff" stroke="#63b8ff" points="396.8,-68.43 407.09,-70.96 400.62,-62.56 396.8,-68.43"/>
</a>
</g>
</g>
<!-- Node35&#45;&gt;Node7 -->
<g id="edge41_Node000035_Node000007" class="edge">
<title>Node35&#45;&gt;Node7</title>
<g id="a_edge41_Node000035_Node000007"><a xlink:title=" ">
<path fill="none" stroke="#63b8ff" d="M440.48,-64.31C454.38,-51.86 472.95,-35.22 484.2,-25.14"/>
<polygon fill="#63b8ff" stroke="#63b8ff" points="438.38,-61.49 433.26,-70.77 443.05,-66.71 438.38,-61.49"/>
</a>
</g>
</g>
<!-- Node35&#45;&gt;Node34 -->
<g id="edge42_Node000035_Node000034" class="edge">
<title>Node35&#45;&gt;Node34</title>
<g id="a_edge42_Node000035_Node000034"><a xlink:title=" ">
<path fill="none" stroke="#63b8ff" d="M490.6,-69.9C554.02,-59.81 650.97,-44.31 735.12,-30.5 745.17,-28.85 755.87,-27.07 766.18,-25.35"/>
<polygon fill="#63b8ff" stroke="#63b8ff" points="490.37,-66.39 481.04,-71.42 491.47,-73.3 490.37,-66.39"/>
</a>
</g>
</g>
<!-- Node36&#45;&gt;Node34 -->
<g id="edge44_Node000036_Node000034" class="edge">
<title>Node36&#45;&gt;Node34</title>
<g id="a_edge44_Node000036_Node000034"><a xlink:title=" ">
<path fill="none" stroke="#63b8ff" d="M785.56,-57.54C794.99,-46.27 805.76,-33.41 812.74,-25.07"/>
<polygon fill="#63b8ff" stroke="#63b8ff" points="783.09,-55.04 779.35,-64.95 788.45,-59.53 783.09,-55.04"/>
</a>
</g>
</g>
<!-- Node37 -->
<g id="Node000037" class="node">
<title>Node37</title>
<g id="a_Node000037"><a xlink:href="OscillatorSubSampling_8cpp.html" target="_top" xlink:title=" ">
<polygon fill="white" stroke="#666666" points="1032.5,-30.5 913.75,-30.5 913.75,0 1032.5,0 1032.5,-30.5"/>
<text text-anchor="start" x="921.75" y="-17" font-family="Helvetica,sans-Serif" font-size="10.00">Oscillator/OscillatorSub</text>
<text text-anchor="middle" x="973.12" y="-5.75" font-family="Helvetica,sans-Serif" font-size="10.00">Sampling.cpp</text>
</a>
</g>
</g>
<!-- Node36&#45;&gt;Node37 -->
<g id="edge45_Node000036_Node000037" class="edge">
<title>Node36&#45;&gt;Node37</title>
<g id="a_edge45_Node000036_Node000037"><a xlink:title=" ">
<path fill="none" stroke="#63b8ff" d="M823.98,-62.72C856.2,-52.68 895.8,-40.34 926.1,-30.9"/>
<polygon fill="#63b8ff" stroke="#63b8ff" points="823.31,-59.27 814.8,-65.58 825.39,-65.95 823.31,-59.27"/>
</a>
</g>
</g>
<!-- Node38&#45;&gt;Node34 -->
<g id="edge47_Node000038_Node000034" class="edge">
<title>Node38&#45;&gt;Node34</title>
<g id="a_edge47_Node000038_Node000034"><a xlink:title=" ">
<path fill="none" stroke="#63b8ff" d="M895.84,-65.58C876.67,-53.09 850.12,-35.8 834.09,-25.35"/>
<polygon fill="#63b8ff" stroke="#63b8ff" points="893.8,-68.43 904.09,-70.96 897.62,-62.56 893.8,-68.43"/>
</a>
</g>
</g>
<!-- Node39 -->
<g id="Node000039" class="node">
<title>Node39</title>
<g id="a_Node000039"><a xlink:href="OscillatorUnbinned_8cpp.html" target="_top" xlink:title=" ">
<polygon fill="white" stroke="#666666" points="1211.5,-24.88 1050.75,-24.88 1050.75,-5.63 1211.5,-5.63 1211.5,-24.88"/>
<text text-anchor="middle" x="1131.12" y="-11.38" font-family="Helvetica,sans-Serif" font-size="10.00">Oscillator/OscillatorUnbinned.cpp</text>
</a>
</g>
</g>
<!-- Node38&#45;&gt;Node39 -->
<g id="edge48_Node000038_Node000039" class="edge">
<title>Node38&#45;&gt;Node39</title>
<g id="a_edge48_Node000038_Node000039"><a xlink:title=" ">
<path fill="none" stroke="#63b8ff" d="M959.85,-68.36C1001.26,-55.76 1064.41,-36.55 1101.35,-25.31"/>
<polygon fill="#63b8ff" stroke="#63b8ff" points="959.05,-64.95 950.5,-71.2 961.08,-71.64 959.05,-64.95"/>
</a>
</g>
</g>
</g>
</svg>
