<?xml version="1.0" encoding="UTF-8" standalone="no"?>
<!DOCTYPE svg PUBLIC "-//W3C//DTD SVG 1.1//EN"
 "http://www.w3.org/Graphics/SVG/1.1/DTD/svg11.dtd">
<!-- Generated by graphviz version 12.2.0 (20241103.1931)
 -->
<!-- Title: Oscillator/OscillatorFactory.cpp Pages: 1 -->
<!--zoomable 315 -->

<svg id="main" version="1.1" xmlns="http://www.w3.org/2000/svg" xmlns:xlink="http://www.w3.org/1999/xlink" xml:space="preserve" onload="init(evt)">

<style type="text/css"><![CDATA[
.node, .edge {opacity: 0.7;}
.node.selected, .edge.selected {opacity: 1;}
.edge:hover path { stroke: red; }
.edge:hover polygon { stroke: red; fill: red; }
]]></style>

<defs>
  <circle id="rim" cx="0" cy="0" r="7"/>
  <circle id="rim2" cx="0" cy="0" r="3.5"/>
  <g id="zoomPlus">
    <use xlink:href="#rim" fill="#404040"><set attributeName="fill" to="#808080" begin="zoomplus.mouseover" end="zoomplus.mouseout"/></use>
    <path d="M-4,0h8M0,-4v8" fill="none" stroke="white" stroke-width="1.5" pointer-events="none"/>
  </g>
  <g id="zoomMin">
    <use xlink:href="#rim" fill="#404040"><set attributeName="fill" to="#808080" begin="zoomminus.mouseover" end="zoomminus.mouseout"/></use>
    <path d="M-4,0h8" fill="none" stroke="white" stroke-width="1.5" pointer-events="none"/>
  </g>
  <g id="arrowUp" transform="translate(30 24)">
    <use xlink:href="#rim"/>
    <path pointer-events="none" fill="none" stroke="white" stroke-width="1.5" d="M0,-3.0v7 M-2.5,-0.5L0,-3.0L2.5,-0.5"/>
  </g>
  <g id="arrowRight" transform="rotate(90) translate(36 -43)">
    <use xlink:href="#rim"/>
    <path pointer-events="none" fill="none" stroke="white" stroke-width="1.5" d="M0,-3.0v7 M-2.5,-0.5L0,-3.0L2.5,-0.5"/>
  </g>
  <g id="arrowDown" transform="rotate(180) translate(-30 -48)">
    <use xlink:href="#rim"/>
    <path pointer-events="none" fill="none" stroke="white" stroke-width="1.5" d="M0,-3.0v7 M-2.5,-0.5L0,-3.0L2.5,-0.5"/>
  </g>
  <g id="arrowLeft" transform="rotate(270) translate(-36 17)">
    <use xlink:href="#rim"/>
    <path pointer-events="none" fill="none" stroke="white" stroke-width="1.5" d="M0,-3.0v7 M-2.5,-0.5L0,-3.0L2.5,-0.5"/>
  </g>
  <g id="resetDef">
    <use xlink:href="#rim2" fill="#404040"><set attributeName="fill" to="#808080" begin="reset.mouseover" end="reset.mouseout"/></use>
  </g>
</defs>
<script type="application/ecmascript">
var viewWidth = 575;
var viewHeight = 315;
var sectionId = 'dynsection-0';
</script>
<script type="application/ecmascript" xlink:href="svg.min.js"/>
<svg id="graph" class="graph">
<g id="viewport">
<title>Oscillator/OscillatorFactory.cpp</title>
<!-- Node1 -->
<g id="Node000001" class="node">
<title>Node1</title>
<g id="a_Node000001"><a xlink:title=" ">
<polygon fill="#999999" stroke="#666666" points="400.5,-306.75 248.75,-306.75 248.75,-287.5 400.5,-287.5 400.5,-306.75"/>
<text text-anchor="middle" x="324.62" y="-293.25" font-family="Helvetica,sans-Serif" font-size="10.00">Oscillator/OscillatorFactory.cpp</text>
</a>
</g>
</g>
<!-- Node2 -->
<g id="Node000002" class="node">
<title>Node2</title>
<g id="a_Node000002"><a xlink:href="OscillatorFactory_8h.html" target="_top" xlink:title=" ">
<polygon fill="white" stroke="#666666" points="141.25,-251.5 0,-251.5 0,-232.25 141.25,-232.25 141.25,-251.5"/>
<text text-anchor="middle" x="70.62" y="-238" font-family="Helvetica,sans-Serif" font-size="10.00">Oscillator/OscillatorFactory.h</text>
</a>
</g>
</g>
<!-- Node1&#45;&gt;Node2 -->
<g id="edge1_Node000001_Node000002" class="edge">
<title>Node1&#45;&gt;Node2</title>
<g id="a_edge1_Node000001_Node000002"><a xlink:title=" ">
<path fill="none" stroke="#63b8ff" d="M281.25,-287.03C238.05,-277.98 171.62,-264.05 124.94,-254.26"/>
<polygon fill="#63b8ff" stroke="#63b8ff" points="125.81,-250.87 115.3,-252.24 124.37,-257.72 125.81,-250.87"/>
</a>
</g>
</g>
<!-- Node11 -->
<g id="Node000011" class="node">
<title>Node11</title>
<g id="a_Node000011"><a xlink:title=" ">
<polygon fill="#e0e0e0" stroke="#999999" points="567.38,-19.25 513.88,-19.25 513.88,0 567.38,0 567.38,-19.25"/>
<text text-anchor="middle" x="540.62" y="-5.75" font-family="Helvetica,sans-Serif" font-size="10.00">iostream</text>
</a>
</g>
</g>
<!-- Node1&#45;&gt;Node11 -->
<g id="edge24_Node000001_Node000011" class="edge">
<title>Node1&#45;&gt;Node11</title>
<g id="a_edge24_Node000001_Node000011"><a xlink:title=" ">
<path fill="none" stroke="#63b8ff" d="M400.92,-287.38C450.16,-280.24 508.32,-268.54 526.62,-251.5 548.31,-231.32 545.62,-217.24 545.62,-187.62 545.62,-187.62 545.62,-187.62 545.62,-124.75 545.62,-91.77 543.52,-53.48 542.04,-30.7"/>
<polygon fill="#63b8ff" stroke="#63b8ff" points="545.55,-30.75 541.38,-21.01 538.56,-31.22 545.55,-30.75"/>
</a>
</g>
</g>
<!-- Node13 -->
<g id="Node000013" class="node">
<title>Node13</title>
<g id="a_Node000013"><a xlink:href="OscillatorBinned_8h.html" target="_top" xlink:title=" ">
<polygon fill="white" stroke="#666666" points="254,-251.5 159.25,-251.5 159.25,-232.25 254,-232.25 254,-251.5"/>
<text text-anchor="middle" x="206.62" y="-238" font-family="Helvetica,sans-Serif" font-size="10.00">OscillatorBinned.h</text>
</a>
</g>
</g>
<!-- Node1&#45;&gt;Node13 -->
<g id="edge18_Node000001_Node000013" class="edge">
<title>Node1&#45;&gt;Node13</title>
<g id="a_edge18_Node000001_Node000013"><a xlink:title=" ">
<path fill="none" stroke="#63b8ff" d="M304.61,-287.09C286.13,-278.75 258.42,-266.25 237.18,-256.66"/>
<polygon fill="#63b8ff" stroke="#63b8ff" points="238.67,-253.5 228.12,-252.58 235.8,-259.88 238.67,-253.5"/>
</a>
</g>
</g>
<!-- Node14 -->
<g id="Node000014" class="node">
<title>Node14</title>
<g id="a_Node000014"><a xlink:href="OscillatorUnbinned_8h.html" target="_top" xlink:title=" ">
<polygon fill="white" stroke="#666666" points="377.62,-251.5 271.62,-251.5 271.62,-232.25 377.62,-232.25 377.62,-251.5"/>
<text text-anchor="middle" x="324.62" y="-238" font-family="Helvetica,sans-Serif" font-size="10.00">OscillatorUnbinned.h</text>
</a>
</g>
</g>
<!-- Node1&#45;&gt;Node14 -->
<g id="edge20_Node000001_Node000014" class="edge">
<title>Node1&#45;&gt;Node14</title>
<g id="a_edge20_Node000001_Node000014"><a xlink:title=" ">
<path fill="none" stroke="#63b8ff" d="M324.62,-287.33C324.62,-280.82 324.62,-271.67 324.62,-263.37"/>
<polygon fill="#63b8ff" stroke="#63b8ff" points="328.13,-263.37 324.63,-253.37 321.13,-263.37 328.13,-263.37"/>
</a>
</g>
</g>
<!-- Node15 -->
<g id="Node000015" class="node">
<title>Node15</title>
<g id="a_Node000015"><a xlink:href="OscillatorSubSampling_8h.html" target="_top" xlink:title=" ">
<polygon fill="white" stroke="#666666" points="517.88,-251.5 395.38,-251.5 395.38,-232.25 517.88,-232.25 517.88,-251.5"/>
<text text-anchor="middle" x="456.62" y="-238" font-family="Helvetica,sans-Serif" font-size="10.00">OscillatorSubSampling.h</text>
</a>
</g>
</g>
<!-- Node1&#45;&gt;Node15 -->
<g id="edge22_Node000001_Node000015" class="edge">
<title>Node1&#45;&gt;Node15</title>
<g id="a_edge22_Node000001_Node000015"><a xlink:title=" ">
<path fill="none" stroke="#63b8ff" d="M347.02,-287.09C368.07,-278.6 399.83,-265.79 423.75,-256.14"/>
<polygon fill="#63b8ff" stroke="#63b8ff" points="424.76,-259.51 432.72,-252.52 422.14,-253.01 424.76,-259.51"/>
</a>
</g>
</g>
<!-- Node3 -->
<g id="Node000003" class="node">
<title>Node3</title>
<g id="a_Node000003"><a xlink:href="OscillatorBase_8h.html" target="_top" xlink:title=" ">
<polygon fill="white" stroke="#666666" points="288.25,-196.25 201,-196.25 201,-177 288.25,-177 288.25,-196.25"/>
<text text-anchor="middle" x="244.62" y="-182.75" font-family="Helvetica,sans-Serif" font-size="10.00">OscillatorBase.h</text>
</a>
</g>
</g>
<!-- Node2&#45;&gt;Node3 -->
<g id="edge2_Node000002_Node000003" class="edge">
<title>Node2&#45;&gt;Node3</title>
<g id="a_edge2_Node000002_Node000003"><a xlink:title=" ">
<path fill="none" stroke="#63b8ff" d="M100.14,-231.84C128.76,-223.08 172.41,-209.73 204.24,-199.98"/>
<polygon fill="#63b8ff" stroke="#63b8ff" points="204.98,-203.42 213.52,-197.15 202.93,-196.73 204.98,-203.42"/>
</a>
</g>
</g>
<!-- Node7 -->
<g id="Node000007" class="node">
<title>Node7</title>
<g id="a_Node000007"><a xlink:title=" ">
<polygon fill="#e0e0e0" stroke="#999999" points="178.5,-19.25 92.75,-19.25 92.75,0 178.5,0 178.5,-19.25"/>
<text text-anchor="middle" x="135.62" y="-5.75" font-family="Helvetica,sans-Serif" font-size="10.00">yaml&#45;cpp/yaml.h</text>
</a>
</g>
</g>
<!-- Node2&#45;&gt;Node7 -->
<g id="edge17_Node000002_Node000007" class="edge">
<title>Node2&#45;&gt;Node7</title>
<g id="a_edge17_Node000002_Node000007"><a xlink:title=" ">
<path fill="none" stroke="#63b8ff" d="M73.17,-231.85C82.74,-197.96 116.65,-77.84 130.09,-30.25"/>
<polygon fill="#63b8ff" stroke="#63b8ff" points="133.4,-31.37 132.75,-20.8 126.67,-29.47 133.4,-31.37"/>
</a>
</g>
</g>
<!-- Node4 -->
<g id="Node000004" class="node">
<title>Node4</title>
<g id="a_Node000004"><a xlink:href="OscProbCalcerBase_8h.html" target="_top" xlink:title=" ">
<polygon fill="white" stroke="#666666" points="320.12,-141 169.12,-141 169.12,-110.5 320.12,-110.5 320.12,-141"/>
<text text-anchor="start" x="177.12" y="-127.5" font-family="Helvetica,sans-Serif" font-size="10.00">OscProbCalcer/OscProbCalcer</text>
<text text-anchor="middle" x="244.62" y="-116.25" font-family="Helvetica,sans-Serif" font-size="10.00">Base.h</text>
</a>
</g>
</g>
<!-- Node3&#45;&gt;Node4 -->
<g id="edge3_Node000003_Node000004" class="edge">
<title>Node3&#45;&gt;Node4</title>
<g id="a_edge3_Node000003_Node000004"><a xlink:title=" ">
<path fill="none" stroke="#63b8ff" d="M244.62,-176.68C244.62,-170.23 244.62,-161.16 244.62,-152.51"/>
<polygon fill="#63b8ff" stroke="#63b8ff" points="248.13,-152.8 244.63,-142.8 241.13,-152.8 248.13,-152.8"/>
</a>
</g>
</g>
<!-- Node5 -->
<g id="Node000005" class="node">
<title>Node5</title>
<g id="a_Node000005"><a xlink:href="OscillatorConstants_8h.html" target="_top" xlink:title=" ">
<polygon fill="white" stroke="#666666" points="433.75,-74.5 277.5,-74.5 277.5,-55.25 433.75,-55.25 433.75,-74.5"/>
<text text-anchor="middle" x="355.62" y="-61" font-family="Helvetica,sans-Serif" font-size="10.00">Constants/OscillatorConstants.h</text>
</a>
</g>
</g>
<!-- Node3&#45;&gt;Node5 -->
<g id="edge15_Node000003_Node000005" class="edge">
<title>Node3&#45;&gt;Node5</title>
<g id="a_edge15_Node000003_Node000005"><a xlink:title=" ">
<path fill="none" stroke="#63b8ff" d="M273.81,-176.57C292.12,-169.54 314.95,-158.06 329.62,-141 343.11,-125.32 349.71,-102.27 352.87,-85.84"/>
<polygon fill="#63b8ff" stroke="#63b8ff" points="356.28,-86.72 354.43,-76.29 349.37,-85.6 356.28,-86.72"/>
</a>
</g>
</g>
<!-- Node3&#45;&gt;Node7 -->
<g id="edge16_Node000003_Node000007" class="edge">
<title>Node3&#45;&gt;Node7</title>
<g id="a_edge16_Node000003_Node000007"><a xlink:title=" ">
<path fill="none" stroke="#63b8ff" d="M212.46,-176.52C194.19,-169.68 172.47,-158.45 159.62,-141 135.47,-108.2 133.25,-58.45 134.17,-30.85"/>
<polygon fill="#63b8ff" stroke="#63b8ff" points="137.65,-31.25 134.69,-21.07 130.66,-30.87 137.65,-31.25"/>
</a>
</g>
</g>
<!-- Node4&#45;&gt;Node5 -->
<g id="edge4_Node000004_Node000005" class="edge">
<title>Node4&#45;&gt;Node5</title>
<g id="a_edge4_Node000004_Node000005"><a xlink:title=" ">
<path fill="none" stroke="#63b8ff" d="M272.35,-110.05C289.58,-100.91 311.62,-89.22 328.7,-80.16"/>
<polygon fill="#63b8ff" stroke="#63b8ff" points="330.07,-83.39 337.27,-75.61 326.79,-77.21 330.07,-83.39"/>
</a>
</g>
</g>
<!-- Node4&#45;&gt;Node7 -->
<g id="edge14_Node000004_Node000007" class="edge">
<title>Node4&#45;&gt;Node7</title>
<g id="a_edge14_Node000004_Node000007"><a xlink:title=" ">
<path fill="none" stroke="#63b8ff" d="M230.82,-110.3C210.78,-89.31 173.69,-50.48 152.2,-27.98"/>
<polygon fill="#63b8ff" stroke="#63b8ff" points="154.77,-25.61 145.34,-20.79 149.71,-30.44 154.77,-25.61"/>
</a>
</g>
</g>
<!-- Node10 -->
<g id="Node000010" class="node">
<title>Node10</title>
<g id="a_Node000010"><a xlink:title=" ">
<polygon fill="#e0e0e0" stroke="#999999" points="236.62,-19.25 196.62,-19.25 196.62,0 236.62,0 236.62,-19.25"/>
<text text-anchor="middle" x="216.62" y="-5.75" font-family="Helvetica,sans-Serif" font-size="10.00">string</text>
</a>
</g>
</g>
<!-- Node4&#45;&gt;Node10 -->
<g id="edge13_Node000004_Node000010" class="edge">
<title>Node4&#45;&gt;Node10</title>
<g id="a_edge13_Node000004_Node000010"><a xlink:title=" ">
<path fill="none" stroke="#63b8ff" d="M241.08,-110.3C236.14,-90.15 227.16,-53.56 221.56,-30.75"/>
<polygon fill="#63b8ff" stroke="#63b8ff" points="224.99,-30.05 219.21,-21.17 218.2,-31.71 224.99,-30.05"/>
</a>
</g>
</g>
<!-- Node12 -->
<g id="Node000012" class="node">
<title>Node12</title>
<g id="a_Node000012"><a xlink:title=" ">
<polygon fill="#e0e0e0" stroke="#999999" points="298.12,-19.25 255.12,-19.25 255.12,0 298.12,0 298.12,-19.25"/>
<text text-anchor="middle" x="276.62" y="-5.75" font-family="Helvetica,sans-Serif" font-size="10.00">vector</text>
</a>
</g>
</g>
<!-- Node4&#45;&gt;Node12 -->
<g id="edge12_Node000004_Node000012" class="edge">
<title>Node4&#45;&gt;Node12</title>
<g id="a_edge12_Node000004_Node000012"><a xlink:title=" ">
<path fill="none" stroke="#63b8ff" d="M248.68,-110.3C254.33,-90.15 264.59,-53.56 270.98,-30.75"/>
<polygon fill="#63b8ff" stroke="#63b8ff" points="274.34,-31.73 273.67,-21.16 267.6,-29.84 274.34,-31.73"/>
</a>
</g>
</g>
<!-- Node6 -->
<g id="Node000006" class="node">
<title>Node6</title>
<g id="a_Node000006"><a xlink:title=" ">
<polygon fill="#e0e0e0" stroke="#999999" points="485.25,-19.25 440,-19.25 440,0 485.25,0 485.25,-19.25"/>
<text text-anchor="middle" x="462.62" y="-5.75" font-family="Helvetica,sans-Serif" font-size="10.00">math.h</text>
</a>
</g>
</g>
<!-- Node5&#45;&gt;Node6 -->
<g id="edge5_Node000005_Node000006" class="edge">
<title>Node5&#45;&gt;Node6</title>
<g id="a_edge5_Node000005_Node000006"><a xlink:title=" ">
<path fill="none" stroke="#63b8ff" d="M373.78,-54.84C390.3,-46.62 414.97,-34.34 434.12,-24.81"/>
<polygon fill="#63b8ff" stroke="#63b8ff" points="435.64,-27.97 443.03,-20.38 432.52,-21.7 435.64,-27.97"/>
</a>
</g>
</g>
<!-- Node5&#45;&gt;Node7 -->
<g id="edge6_Node000005_Node000007" class="edge">
<title>Node5&#45;&gt;Node7</title>
<g id="a_edge6_Node000005_Node000007"><a xlink:title=" ">
<path fill="none" stroke="#63b8ff" d="M318.3,-54.84C281.33,-45.89 224.51,-32.14 184.07,-22.35"/>
<polygon fill="#63b8ff" stroke="#63b8ff" points="185.14,-19.01 174.6,-20.06 183.5,-25.81 185.14,-19.01"/>
</a>
</g>
</g>
<!-- Node8 -->
<g id="Node000008" class="node">
<title>Node8</title>
<g id="a_Node000008"><a xlink:title=" ">
<polygon fill="#e0e0e0" stroke="#999999" points="361.25,-19.25 316,-19.25 316,0 361.25,0 361.25,-19.25"/>
<text text-anchor="middle" x="338.62" y="-5.75" font-family="Helvetica,sans-Serif" font-size="10.00">TFile.h</text>
</a>
</g>
</g>
<!-- Node5&#45;&gt;Node8 -->
<g id="edge7_Node000005_Node000008" class="edge">
<title>Node5&#45;&gt;Node8</title>
<g id="a_edge7_Node000005_Node000008"><a xlink:title=" ">
<path fill="none" stroke="#63b8ff" d="M352.82,-55.08C350.69,-48.42 347.68,-38.99 344.98,-30.53"/>
<polygon fill="#63b8ff" stroke="#63b8ff" points="348.33,-29.51 341.95,-21.05 341.66,-31.64 348.33,-29.51"/>
</a>
</g>
</g>
<!-- Node9 -->
<g id="Node000009" class="node">
<title>Node9</title>
<g id="a_Node000009"><a xlink:title=" ">
<polygon fill="#e0e0e0" stroke="#999999" points="421.75,-19.25 379.5,-19.25 379.5,0 421.75,0 421.75,-19.25"/>
<text text-anchor="middle" x="400.62" y="-5.75" font-family="Helvetica,sans-Serif" font-size="10.00">TH1.h</text>
</a>
</g>
</g>
<!-- Node5&#45;&gt;Node9 -->
<g id="edge8_Node000005_Node000009" class="edge">
<title>Node5&#45;&gt;Node9</title>
<g id="a_edge8_Node000005_Node000009"><a xlink:title=" ">
<path fill="none" stroke="#63b8ff" d="M363.06,-55.08C369.21,-47.8 378.14,-37.23 385.75,-28.23"/>
<polygon fill="#63b8ff" stroke="#63b8ff" points="388.27,-30.66 392.06,-20.77 382.93,-26.14 388.27,-30.66"/>
</a>
</g>
</g>
<!-- Node5&#45;&gt;Node10 -->
<g id="edge9_Node000005_Node000010" class="edge">
<title>Node5&#45;&gt;Node10</title>
<g id="a_edge9_Node000005_Node000010"><a xlink:title=" ">
<path fill="none" stroke="#63b8ff" d="M332.05,-54.84C308.7,-45.9 272.84,-32.16 247.3,-22.37"/>
<polygon fill="#63b8ff" stroke="#63b8ff" points="248.71,-19.17 238.12,-18.86 246.2,-25.7 248.71,-19.17"/>
</a>
</g>
</g>
<!-- Node5&#45;&gt;Node11 -->
<g id="edge10_Node000005_Node000011" class="edge">
<title>Node5&#45;&gt;Node11</title>
<g id="a_edge10_Node000005_Node000011"><a xlink:title=" ">
<path fill="none" stroke="#63b8ff" d="M387.01,-54.84C418.96,-45.64 468.53,-31.38 502.67,-21.55"/>
<polygon fill="#63b8ff" stroke="#63b8ff" points="503.51,-24.95 512.15,-18.82 501.58,-18.22 503.51,-24.95"/>
</a>
</g>
</g>
<!-- Node5&#45;&gt;Node12 -->
<g id="edge11_Node000005_Node000012" class="edge">
<title>Node5&#45;&gt;Node12</title>
<g id="a_edge11_Node000005_Node000012"><a xlink:title=" ">
<path fill="none" stroke="#63b8ff" d="M342.22,-54.84C330.53,-46.96 313.32,-35.36 299.46,-26.02"/>
<polygon fill="#63b8ff" stroke="#63b8ff" points="301.6,-23.24 291.35,-20.55 297.68,-29.04 301.6,-23.24"/>
</a>
</g>
</g>
<!-- Node13&#45;&gt;Node3 -->
<g id="edge19_Node000013_Node000003" class="edge">
<title>Node13&#45;&gt;Node3</title>
<g id="a_edge19_Node000013_Node000003"><a xlink:title=" ">
<path fill="none" stroke="#63b8ff" d="M212.9,-232.08C217.98,-224.96 225.32,-214.68 231.66,-205.8"/>
<polygon fill="#63b8ff" stroke="#63b8ff" points="234.37,-208.01 237.33,-197.84 228.68,-203.95 234.37,-208.01"/>
</a>
</g>
</g>
<!-- Node14&#45;&gt;Node3 -->
<g id="edge21_Node000014_Node000003" class="edge">
<title>Node14&#45;&gt;Node3</title>
<g id="a_edge21_Node000014_Node000003"><a xlink:title=" ">
<path fill="none" stroke="#63b8ff" d="M311.05,-231.84C299.22,-223.96 281.79,-212.36 267.75,-203.02"/>
<polygon fill="#63b8ff" stroke="#63b8ff" points="269.79,-200.17 259.52,-197.54 265.91,-206 269.79,-200.17"/>
</a>
</g>
</g>
<!-- Node15&#45;&gt;Node3 -->
<g id="edge23_Node000015_Node000003" class="edge">
<title>Node15&#45;&gt;Node3</title>
<g id="a_edge23_Node000015_Node000003"><a xlink:title=" ">
<path fill="none" stroke="#63b8ff" d="M420.66,-231.84C385.18,-222.93 330.75,-209.26 291.81,-199.48"/>
<polygon fill="#63b8ff" stroke="#63b8ff" points="292.78,-196.11 282.23,-197.07 291.08,-202.9 292.78,-196.11"/>
</a>
</g>
</g>
</g>
</svg>

<g id="navigator" transform="translate(0 0)" fill="#404254">
  <rect fill="#f2f5e9" fill-opacity="0.5" stroke="#606060" stroke-width=".5" x="0" y="0" width="60" height="60"/>
  <use id="zoomplus" xlink:href="#zoomPlus" x="17" y="9" onmousedown="handleZoom(evt,'in')"/>
  <use id="zoomminus" xlink:href="#zoomMin" x="42" y="9" onmousedown="handleZoom(evt,'out')"/>
  <use id="reset" xlink:href="#resetDef" x="30" y="36" onmousedown="handleReset()"/>
   <use id="arrowup" xlink:href="#arrowUp" x="0" y="0" onmousedown="handlePan(0,-1)"/>
  <use id="arrowright" xlink:href="#arrowRight" x="0" y="0" onmousedown="handlePan(1,0)"/>
  <use id="arrowdown" xlink:href="#arrowDown" x="0" y="0" onmousedown="handlePan(0,1)"/>
  <use id="arrowleft" xlink:href="#arrowLeft" x="0" y="0" onmousedown="handlePan(-1,0)"/>
</g>
<svg viewBox="0 0 15 15" width="100%" height="30px" preserveAspectRatio="xMaxYMin meet">
 <g id="arrow_out" transform="scale(0.3 0.3)">
  <a xlink:href="OscillatorFactory_8cpp__incl_org.svg" target="_base">
   <rect id="button" ry="5" rx="5" y="6" x="6" height="38" width="38"
        fill="#f2f5e9" fill-opacity="0.5" stroke="#606060" stroke-width="1.0"/>
   <path id="arrow"
     d="M 11.500037,31.436501 C 11.940474,20.09759 22.043105,11.32322 32.158766,21.979434 L 37.068811,17.246167 C 37.068811,17.246167 37.088388,32 37.088388,32 L 22.160133,31.978069 C 22.160133,31.978069 26.997745,27.140456 26.997745,27.140456 C 18.528582,18.264221 13.291696,25.230495 11.500037,31.436501 z"
     style="fill:#404040;"/>
  </a>
 </g>
</svg>

<style type='text/css'>
<![CDATA[
[data-mouse-over-selected='false'] { opacity: 0.7; }
[data-mouse-over-selected='true']  { opacity: 1.0; }
]]>
</style>
<script type="application/ecmascript"><![CDATA[
document.addEventListener('DOMContentLoaded', (event) => {
  highlightEdges();
  highlightAdjacentNodes();
});
]]></script>
</svg>
