<?xml version="1.0" encoding="UTF-8" standalone="no"?>
<!DOCTYPE svg PUBLIC "-//W3C//DTD SVG 1.1//EN"
 "http://www.w3.org/Graphics/SVG/1.1/DTD/svg11.dtd">
<!-- Generated by graphviz version 9.0.0 (20230911.1827)
 -->
<!-- Title: Oscillator/OscillatorFactory.h Pages: 1 -->
<svg width="1122pt" height="83pt"
 viewBox="0.00 0.00 1122.00 82.50" xmlns="http://www.w3.org/2000/svg" xmlns:xlink="http://www.w3.org/1999/xlink">
<g id="graph0" class="graph" transform="scale(1 1) rotate(0) translate(4 78.5)">
<title>Oscillator/OscillatorFactory.h</title>
<!-- Node1 -->
<g id="Node000001" class="node">
<title>Node1</title>
<g id="a_Node000001"><a xlink:title=" ">
<polygon fill="#999999" stroke="#666666" points="596.75,-74.5 455.5,-74.5 455.5,-55.25 596.75,-55.25 596.75,-74.5"/>
<text text-anchor="middle" x="526.12" y="-61" font-family="Helvetica,sans-Serif" font-size="10.00">Oscillator/OscillatorFactory.h</text>
</a>
</g>
</g>
<!-- Node2 -->
<g id="Node000002" class="node">
<title>Node2</title>
<g id="a_Node000002"><a xlink:href="Analysis_8cpp.html" target="_top" xlink:title=" ">
<polygon fill="white" stroke="#666666" points="96.25,-19.25 0,-19.25 0,0 96.25,0 96.25,-19.25"/>
<text text-anchor="middle" x="48.12" y="-5.75" font-family="Helvetica,sans-Serif" font-size="10.00">Apps/Analysis.cpp</text>
</a>
</g>
</g>
<!-- Node1&#45;&gt;Node2 -->
<g id="edge1_Node000001_Node000002" class="edge">
<title>Node1&#45;&gt;Node2</title>
<g id="a_edge1_Node000001_Node000002"><a xlink:title=" ">
<path fill="none" stroke="#63b8ff" d="M443.86,-56.25C358.91,-48.12 222.56,-34.35 105.12,-19.25 102.35,-18.89 99.49,-18.51 96.61,-18.11"/>
<polygon fill="#63b8ff" stroke="#63b8ff" points="443.45,-59.73 453.74,-57.19 444.12,-52.76 443.45,-59.73"/>
</a>
</g>
</g>
<!-- Node3 -->
<g id="Node000003" class="node">
<title>Node3</title>
<g id="a_Node000003"><a xlink:href="CompareOscillationProbabilities_8cpp.html" target="_top" xlink:title=" ">
<polygon fill="white" stroke="#666666" points="311.88,-19.25 114.38,-19.25 114.38,0 311.88,0 311.88,-19.25"/>
<text text-anchor="middle" x="213.12" y="-5.75" font-family="Helvetica,sans-Serif" font-size="10.00">Apps/CompareOscillationProbabilities.cpp</text>
</a>
</g>
</g>
<!-- Node1&#45;&gt;Node3 -->
<g id="edge2_Node000001_Node000003" class="edge">
<title>Node1&#45;&gt;Node3</title>
<g id="a_edge2_Node000001_Node000003"><a xlink:title=" ">
<path fill="none" stroke="#63b8ff" d="M461.51,-52.88C403.9,-43.08 320.57,-28.9 266.62,-19.73"/>
<polygon fill="#63b8ff" stroke="#63b8ff" points="460.74,-56.3 471.18,-54.53 461.91,-49.4 460.74,-56.3"/>
</a>
</g>
</g>
<!-- Node4 -->
<g id="Node000004" class="node">
<title>Node4</title>
<g id="a_Node000004"><a xlink:href="DragRace_8cpp.html" target="_top" xlink:title=" ">
<polygon fill="white" stroke="#666666" points="432.25,-19.25 330,-19.25 330,0 432.25,0 432.25,-19.25"/>
<text text-anchor="middle" x="381.12" y="-5.75" font-family="Helvetica,sans-Serif" font-size="10.00">Apps/DragRace.cpp</text>
</a>
</g>
</g>
<!-- Node1&#45;&gt;Node4 -->
<g id="edge3_Node000001_Node000004" class="edge">
<title>Node1&#45;&gt;Node4</title>
<g id="a_edge3_Node000001_Node000004"><a xlink:title=" ">
<path fill="none" stroke="#63b8ff" d="M490.86,-50.92C464.53,-41.25 429.21,-28.29 405.84,-19.7"/>
<polygon fill="#63b8ff" stroke="#63b8ff" points="489.51,-54.16 500.11,-54.32 491.93,-47.59 489.51,-54.16"/>
</a>
</g>
</g>
<!-- Node5 -->
<g id="Node000005" class="node">
<title>Node5</title>
<g id="a_Node000005"><a xlink:href="LegacyModeExample_8cpp.html" target="_top" xlink:title=" ">
<polygon fill="white" stroke="#666666" points="602,-19.25 450.25,-19.25 450.25,0 602,0 602,-19.25"/>
<text text-anchor="middle" x="526.12" y="-5.75" font-family="Helvetica,sans-Serif" font-size="10.00">Apps/LegacyModeExample.cpp</text>
</a>
</g>
</g>
<!-- Node1&#45;&gt;Node5 -->
<g id="edge4_Node000001_Node000005" class="edge">
<title>Node1&#45;&gt;Node5</title>
<g id="a_edge4_Node000001_Node000005"><a xlink:title=" ">
<path fill="none" stroke="#63b8ff" d="M526.12,-43.63C526.12,-35.34 526.12,-26.17 526.12,-19.61"/>
<polygon fill="#63b8ff" stroke="#63b8ff" points="522.63,-43.57 526.13,-53.57 529.63,-43.57 522.63,-43.57"/>
</a>
</g>
</g>
<!-- Node6 -->
<g id="Node000006" class="node">
<title>Node6</title>
<g id="a_Node000006"><a xlink:href="OscProbCalcerComparison_8cpp.html" target="_top" xlink:title=" ">
<polygon fill="white" stroke="#666666" points="797.75,-19.25 620.5,-19.25 620.5,0 797.75,0 797.75,-19.25"/>
<text text-anchor="middle" x="709.12" y="-5.75" font-family="Helvetica,sans-Serif" font-size="10.00">Apps/OscProbCalcerComparison.cpp</text>
</a>
</g>
</g>
<!-- Node1&#45;&gt;Node6 -->
<g id="edge5_Node000001_Node000006" class="edge">
<title>Node1&#45;&gt;Node6</title>
<g id="a_edge5_Node000001_Node000006"><a xlink:title=" ">
<path fill="none" stroke="#63b8ff" d="M567.99,-51.69C601.46,-41.95 647.64,-28.52 677.93,-19.7"/>
<polygon fill="#63b8ff" stroke="#63b8ff" points="567.25,-48.26 558.62,-54.42 569.2,-54.99 567.25,-48.26"/>
</a>
</g>
</g>
<!-- Node7 -->
<g id="Node000007" class="node">
<title>Node7</title>
<g id="a_Node000007"><a xlink:href="SingleOscillator_8cpp.html" target="_top" xlink:title=" ">
<polygon fill="white" stroke="#666666" points="944,-19.25 816.25,-19.25 816.25,0 944,0 944,-19.25"/>
<text text-anchor="middle" x="880.12" y="-5.75" font-family="Helvetica,sans-Serif" font-size="10.00">Apps/SingleOscillator.cpp</text>
</a>
</g>
</g>
<!-- Node1&#45;&gt;Node7 -->
<g id="edge6_Node000001_Node000007" class="edge">
<title>Node1&#45;&gt;Node7</title>
<g id="a_edge6_Node000001_Node000007"><a xlink:title=" ">
<path fill="none" stroke="#63b8ff" d="M597.58,-53.13C662.79,-43.32 758.1,-28.98 819.63,-19.73"/>
<polygon fill="#63b8ff" stroke="#63b8ff" points="597.44,-49.61 588.07,-54.56 598.48,-56.53 597.44,-49.61"/>
</a>
</g>
</g>
<!-- Node8 -->
<g id="Node000008" class="node">
<title>Node8</title>
<g id="a_Node000008"><a xlink:href="OscillatorFactory_8cpp.html" target="_top" xlink:title=" ">
<polygon fill="white" stroke="#666666" points="1114,-19.25 962.25,-19.25 962.25,0 1114,0 1114,-19.25"/>
<text text-anchor="middle" x="1038.12" y="-5.75" font-family="Helvetica,sans-Serif" font-size="10.00">Oscillator/OscillatorFactory.cpp</text>
</a>
</g>
</g>
<!-- Node1&#45;&gt;Node8 -->
<g id="edge7_Node000001_Node000008" class="edge">
<title>Node1&#45;&gt;Node8</title>
<g id="a_edge7_Node000001_Node000008"><a xlink:title=" ">
<path fill="none" stroke="#63b8ff" d="M608.33,-55.33C705.88,-45.18 867.24,-28.4 962.03,-18.54"/>
<polygon fill="#63b8ff" stroke="#63b8ff" points="608.14,-51.83 598.55,-56.34 608.86,-58.79 608.14,-51.83"/>
</a>
</g>
</g>
</g>
</svg>
