<?xml version="1.0" encoding="UTF-8" standalone="no"?>
<!DOCTYPE svg PUBLIC "-//W3C//DTD SVG 1.1//EN"
 "http://www.w3.org/Graphics/SVG/1.1/DTD/svg11.dtd">
<!-- Generated by graphviz version 9.0.0 (20230911.1827)
 -->
<!-- Title: Constants/OscillatorConstants.h Pages: 1 -->
<svg width="2800pt" height="293pt"
 viewBox="0.00 0.00 2800.38 293.25" xmlns="http://www.w3.org/2000/svg" xmlns:xlink="http://www.w3.org/1999/xlink">
<g id="graph0" class="graph" transform="scale(1 1) rotate(0) translate(4 289.25)">
<title>Constants/OscillatorConstants.h</title>
<!-- Node1 -->
<g id="Node000001" class="node">
<title>Node1</title>
<g id="a_Node000001"><a xlink:title=" ">
<polygon fill="#999999" stroke="#666666" points="920.25,-285.25 764,-285.25 764,-266 920.25,-266 920.25,-285.25"/>
<text text-anchor="middle" x="842.12" y="-271.75" font-family="Helvetica,sans-Serif" font-size="10.00">Constants/OscillatorConstants.h</text>
</a>
</g>
</g>
<!-- Node2 -->
<g id="Node000002" class="node">
<title>Node2</title>
<g id="a_Node000002"><a xlink:href="Analysis_8cpp.html" target="_top" xlink:title=" ">
<polygon fill="white" stroke="#666666" points="96.25,-24.88 0,-24.88 0,-5.63 96.25,-5.63 96.25,-24.88"/>
<text text-anchor="middle" x="48.12" y="-11.38" font-family="Helvetica,sans-Serif" font-size="10.00">Apps/Analysis.cpp</text>
</a>
</g>
</g>
<!-- Node1&#45;&gt;Node2 -->
<g id="edge1_Node000001_Node000002" class="edge">
<title>Node1&#45;&gt;Node2</title>
<g id="a_edge1_Node000001_Node000002"><a xlink:title=" ">
<path fill="none" stroke="#63b8ff" d="M752.49,-269.81C645.48,-263.28 473.27,-250.07 412.12,-230 259.64,-179.94 101.66,-59.1 59.18,-25.22"/>
<polygon fill="#63b8ff" stroke="#63b8ff" points="752.22,-273.3 762.41,-270.41 752.64,-266.31 752.22,-273.3"/>
</a>
</g>
</g>
<!-- Node3 -->
<g id="Node000003" class="node">
<title>Node3</title>
<g id="a_Node000003"><a xlink:href="DragRace_8cpp.html" target="_top" xlink:title=" ">
<polygon fill="white" stroke="#666666" points="216.25,-24.88 114,-24.88 114,-5.63 216.25,-5.63 216.25,-24.88"/>
<text text-anchor="middle" x="165.12" y="-11.38" font-family="Helvetica,sans-Serif" font-size="10.00">Apps/DragRace.cpp</text>
</a>
</g>
</g>
<!-- Node1&#45;&gt;Node3 -->
<g id="edge2_Node000001_Node000003" class="edge">
<title>Node1&#45;&gt;Node3</title>
<g id="a_edge2_Node000001_Node000003"><a xlink:title=" ">
<path fill="none" stroke="#63b8ff" d="M752.58,-274.01C678.86,-271.03 572.63,-260.98 485.12,-230 347.2,-181.18 211.07,-59.46 174.6,-25.29"/>
<polygon fill="#63b8ff" stroke="#63b8ff" points="752.03,-277.49 762.15,-274.36 752.29,-270.49 752.03,-277.49"/>
</a>
</g>
</g>
<!-- Node4 -->
<g id="Node000004" class="node">
<title>Node4</title>
<g id="a_Node000004"><a xlink:href="MakeExampleBinning_8cpp.html" target="_top" xlink:title=" ">
<polygon fill="white" stroke="#666666" points="2792.38,-224.38 2639.88,-224.38 2639.88,-205.12 2792.38,-205.12 2792.38,-224.38"/>
<text text-anchor="middle" x="2716.12" y="-210.88" font-family="Helvetica,sans-Serif" font-size="10.00">Apps/MakeExampleBinning.cpp</text>
</a>
</g>
</g>
<!-- Node1&#45;&gt;Node4 -->
<g id="edge3_Node000001_Node000004" class="edge">
<title>Node1&#45;&gt;Node4</title>
<g id="a_edge3_Node000001_Node000004"><a xlink:title=" ">
<path fill="none" stroke="#63b8ff" d="M931.99,-273.95C1245.81,-271.34 2291.93,-260.5 2626.12,-230 2639.2,-228.81 2653.26,-226.89 2666.29,-224.84"/>
<polygon fill="#63b8ff" stroke="#63b8ff" points="932.18,-270.45 922.21,-274.03 932.24,-277.45 932.18,-270.45"/>
</a>
</g>
</g>
<!-- Node5 -->
<g id="Node000005" class="node">
<title>Node5</title>
<g id="a_Node000005"><a xlink:href="OscProbCalcerComparison_8cpp.html" target="_top" xlink:title=" ">
<polygon fill="white" stroke="#666666" points="411.75,-24.88 234.5,-24.88 234.5,-5.63 411.75,-5.63 411.75,-24.88"/>
<text text-anchor="middle" x="323.12" y="-11.38" font-family="Helvetica,sans-Serif" font-size="10.00">Apps/OscProbCalcerComparison.cpp</text>
</a>
</g>
</g>
<!-- Node1&#45;&gt;Node5 -->
<g id="edge4_Node000001_Node000005" class="edge">
<title>Node1&#45;&gt;Node5</title>
<g id="a_edge4_Node000001_Node000005"><a xlink:title=" ">
<path fill="none" stroke="#63b8ff" d="M752.42,-268.88C639.18,-256.59 446.57,-218.03 342.12,-97 324.15,-76.17 322.42,-41.47 322.7,-25.2"/>
<polygon fill="#63b8ff" stroke="#63b8ff" points="751.99,-272.36 762.3,-269.9 752.71,-265.39 751.99,-272.36"/>
</a>
</g>
</g>
<!-- Node6 -->
<g id="Node000006" class="node">
<title>Node6</title>
<g id="a_Node000006"><a xlink:href="SingleOscProbCalcer_8cpp.html" target="_top" xlink:title=" ">
<polygon fill="white" stroke="#666666" points="2508.38,-91.38 2355.88,-91.38 2355.88,-72.12 2508.38,-72.12 2508.38,-91.38"/>
<text text-anchor="middle" x="2432.12" y="-77.88" font-family="Helvetica,sans-Serif" font-size="10.00">Apps/SingleOscProbCalcer.cpp</text>
</a>
</g>
</g>
<!-- Node1&#45;&gt;Node6 -->
<g id="edge5_Node000001_Node000006" class="edge">
<title>Node1&#45;&gt;Node6</title>
<g id="a_edge5_Node000001_Node000006"><a xlink:title=" ">
<path fill="none" stroke="#63b8ff" d="M932.13,-272.23C1277.35,-262.61 2500.36,-224.34 2555.12,-163.5 2585.12,-130.18 2516.18,-104.59 2469.86,-91.8"/>
<polygon fill="#63b8ff" stroke="#63b8ff" points="932.12,-268.73 922.22,-272.51 932.31,-275.73 932.12,-268.73"/>
</a>
</g>
</g>
<!-- Node7 -->
<g id="Node000007" class="node">
<title>Node7</title>
<g id="a_Node000007"><a xlink:href="SingleOscillator_8cpp.html" target="_top" xlink:title=" ">
<polygon fill="white" stroke="#666666" points="558,-24.88 430.25,-24.88 430.25,-5.63 558,-5.63 558,-24.88"/>
<text text-anchor="middle" x="494.12" y="-11.38" font-family="Helvetica,sans-Serif" font-size="10.00">Apps/SingleOscillator.cpp</text>
</a>
</g>
</g>
<!-- Node1&#45;&gt;Node7 -->
<g id="edge6_Node000001_Node000007" class="edge">
<title>Node1&#45;&gt;Node7</title>
<g id="a_edge6_Node000001_Node000007"><a xlink:title=" ">
<path fill="none" stroke="#63b8ff" d="M807.7,-261.4C747.29,-236.8 620.95,-178.95 540.12,-97 518.6,-75.17 503.69,-41.27 497.43,-25.23"/>
<polygon fill="#63b8ff" stroke="#63b8ff" points="806.19,-264.57 816.78,-265.04 808.8,-258.07 806.19,-264.57"/>
</a>
</g>
</g>
<!-- Node8 -->
<g id="Node000008" class="node">
<title>Node8</title>
<g id="a_Node000008"><a xlink:href="OscProbCalcerBase_8h.html" target="_top" xlink:title=" ">
<polygon fill="white" stroke="#666666" points="1914.62,-230 1763.62,-230 1763.62,-199.5 1914.62,-199.5 1914.62,-230"/>
<text text-anchor="start" x="1771.62" y="-216.5" font-family="Helvetica,sans-Serif" font-size="10.00">OscProbCalcer/OscProbCalcer</text>
<text text-anchor="middle" x="1839.12" y="-205.25" font-family="Helvetica,sans-Serif" font-size="10.00">Base.h</text>
</a>
</g>
</g>
<!-- Node1&#45;&gt;Node8 -->
<g id="edge7_Node000001_Node000008" class="edge">
<title>Node1&#45;&gt;Node8</title>
<g id="a_edge7_Node000001_Node000008"><a xlink:title=" ">
<path fill="none" stroke="#63b8ff" d="M931.64,-269.34C1125.72,-257.88 1582.32,-230.91 1763.31,-220.23"/>
<polygon fill="#63b8ff" stroke="#63b8ff" points="931.65,-265.83 921.87,-269.92 932.06,-272.82 931.65,-265.83"/>
</a>
</g>
</g>
<!-- Node15 -->
<g id="Node000015" class="node">
<title>Node15</title>
<g id="a_Node000015"><a xlink:href="OscProbCalcer__CUDAProb3Linear_8h.html" target="_top" xlink:title=" ">
<polygon fill="white" stroke="#666666" points="2753.62,-163.5 2602.62,-163.5 2602.62,-133 2753.62,-133 2753.62,-163.5"/>
<text text-anchor="start" x="2610.62" y="-150" font-family="Helvetica,sans-Serif" font-size="10.00">OscProbCalcer/OscProbCalcer</text>
<text text-anchor="middle" x="2678.12" y="-138.75" font-family="Helvetica,sans-Serif" font-size="10.00">_CUDAProb3Linear.h</text>
</a>
</g>
</g>
<!-- Node1&#45;&gt;Node15 -->
<g id="edge45_Node000001_Node000015" class="edge">
<title>Node1&#45;&gt;Node15</title>
<g id="a_edge45_Node000001_Node000015"><a xlink:title=" ">
<path fill="none" stroke="#63b8ff" d="M931.98,-274.05C1278.24,-271.61 2510.68,-260.79 2588.12,-230 2605.88,-222.94 2643.88,-185.11 2664.36,-163.82"/>
<polygon fill="#63b8ff" stroke="#63b8ff" points="932.01,-270.55 922.04,-274.12 932.06,-277.55 932.01,-270.55"/>
</a>
</g>
</g>
<!-- Node27 -->
<g id="Node000027" class="node">
<title>Node27</title>
<g id="a_Node000027"><a xlink:href="OscillatorBase_8h.html" target="_top" xlink:title=" ">
<polygon fill="white" stroke="#666666" points="907.88,-157.88 776.38,-157.88 776.38,-138.62 907.88,-138.62 907.88,-157.88"/>
<text text-anchor="middle" x="842.12" y="-144.38" font-family="Helvetica,sans-Serif" font-size="10.00">Oscillator/OscillatorBase.h</text>
</a>
</g>
</g>
<!-- Node1&#45;&gt;Node27 -->
<g id="edge46_Node000001_Node000027" class="edge">
<title>Node1&#45;&gt;Node27</title>
<g id="a_edge46_Node000001_Node000027"><a xlink:title=" ">
<path fill="none" stroke="#63b8ff" d="M842.12,-254.18C842.12,-226.44 842.12,-178.08 842.12,-158.18"/>
<polygon fill="#63b8ff" stroke="#63b8ff" points="838.63,-254.09 842.13,-264.09 845.63,-254.09 838.63,-254.09"/>
</a>
</g>
</g>
<!-- Node8&#45;&gt;Node6 -->
<g id="edge8_Node000008_Node000006" class="edge">
<title>Node8&#45;&gt;Node6</title>
<g id="a_edge8_Node000008_Node000006"><a xlink:title=" ">
<path fill="none" stroke="#63b8ff" d="M1926.41,-211.91C2051.41,-208.13 2274.35,-196.8 2347.12,-163.5 2365.54,-155.07 2406.69,-110.95 2424.1,-91.72"/>
<polygon fill="#63b8ff" stroke="#63b8ff" points="1926.4,-208.41 1916.51,-212.2 1926.61,-215.4 1926.4,-208.41"/>
</a>
</g>
</g>
<!-- Node9 -->
<g id="Node000009" class="node">
<title>Node9</title>
<g id="a_Node000009"><a xlink:href="OscProbCalcerBase_8cpp.html" target="_top" xlink:title=" ">
<polygon fill="white" stroke="#666666" points="2545.62,-163.5 2394.62,-163.5 2394.62,-133 2545.62,-133 2545.62,-163.5"/>
<text text-anchor="start" x="2402.62" y="-150" font-family="Helvetica,sans-Serif" font-size="10.00">OscProbCalcer/OscProbCalcer</text>
<text text-anchor="middle" x="2470.12" y="-138.75" font-family="Helvetica,sans-Serif" font-size="10.00">Base.cpp</text>
</a>
</g>
</g>
<!-- Node8&#45;&gt;Node9 -->
<g id="edge9_Node000008_Node000009" class="edge">
<title>Node8&#45;&gt;Node9</title>
<g id="a_edge9_Node000008_Node000009"><a xlink:title=" ">
<path fill="none" stroke="#63b8ff" d="M1926.39,-207.38C2033.48,-199.17 2220.51,-183.53 2380.12,-163.5 2384.83,-162.91 2389.68,-162.26 2394.55,-161.58"/>
<polygon fill="#63b8ff" stroke="#63b8ff" points="1926.22,-203.89 1916.51,-208.14 1926.75,-210.87 1926.22,-203.89"/>
</a>
</g>
</g>
<!-- Node10 -->
<g id="Node000010" class="node">
<title>Node10</title>
<g id="a_Node000010"><a xlink:href="OscProbCalcerFactory_8h.html" target="_top" xlink:title=" ">
<polygon fill="white" stroke="#666666" points="2337.62,-163.5 2186.62,-163.5 2186.62,-133 2337.62,-133 2337.62,-163.5"/>
<text text-anchor="start" x="2194.62" y="-150" font-family="Helvetica,sans-Serif" font-size="10.00">OscProbCalcer/OscProbCalcer</text>
<text text-anchor="middle" x="2262.12" y="-138.75" font-family="Helvetica,sans-Serif" font-size="10.00">Factory.h</text>
</a>
</g>
</g>
<!-- Node8&#45;&gt;Node10 -->
<g id="edge10_Node000008_Node000010" class="edge">
<title>Node8&#45;&gt;Node10</title>
<g id="a_edge10_Node000008_Node000010"><a xlink:title=" ">
<path fill="none" stroke="#63b8ff" d="M1926.09,-201.37C1994.62,-191.49 2092.55,-177.1 2178.12,-163.5 2180.75,-163.08 2183.43,-162.65 2186.13,-162.22"/>
<polygon fill="#63b8ff" stroke="#63b8ff" points="1925.83,-197.87 1916.43,-202.76 1926.82,-204.8 1925.83,-197.87"/>
</a>
</g>
</g>
<!-- Node13 -->
<g id="Node000013" class="node">
<title>Node13</title>
<g id="a_Node000013"><a xlink:href="OscProbCalcer__CUDAProb3_8h.html" target="_top" xlink:title=" ">
<polygon fill="white" stroke="#666666" points="1323.62,-163.5 1172.62,-163.5 1172.62,-133 1323.62,-133 1323.62,-163.5"/>
<text text-anchor="start" x="1180.62" y="-150" font-family="Helvetica,sans-Serif" font-size="10.00">OscProbCalcer/OscProbCalcer</text>
<text text-anchor="middle" x="1248.12" y="-138.75" font-family="Helvetica,sans-Serif" font-size="10.00">_CUDAProb3.h</text>
</a>
</g>
</g>
<!-- Node8&#45;&gt;Node13 -->
<g id="edge14_Node000008_Node000013" class="edge">
<title>Node8&#45;&gt;Node13</title>
<g id="a_edge14_Node000008_Node000013"><a xlink:title=" ">
<path fill="none" stroke="#63b8ff" d="M1751.97,-206.96C1650.79,-198.65 1479,-183.21 1332.12,-163.5 1329.49,-163.15 1326.8,-162.77 1324.1,-162.38"/>
<polygon fill="#63b8ff" stroke="#63b8ff" points="1751.59,-210.44 1761.84,-207.76 1752.16,-203.46 1751.59,-210.44"/>
</a>
</g>
</g>
<!-- Node8&#45;&gt;Node15 -->
<g id="edge16_Node000008_Node000015" class="edge">
<title>Node8&#45;&gt;Node15</title>
<g id="a_edge16_Node000008_Node000015"><a xlink:title=" ">
<path fill="none" stroke="#63b8ff" d="M1926.45,-208.9C2061.42,-201.11 2328.77,-184.54 2555.12,-163.5 2570.43,-162.08 2586.78,-160.34 2602.4,-158.57"/>
<polygon fill="#63b8ff" stroke="#63b8ff" points="1926.28,-205.4 1916.5,-209.47 1926.68,-212.39 1926.28,-205.4"/>
</a>
</g>
</g>
<!-- Node17 -->
<g id="Node000017" class="node">
<title>Node17</title>
<g id="a_Node000017"><a xlink:href="OscProbCalcer__NuFASTLinear_8h.html" target="_top" xlink:title=" ">
<polygon fill="white" stroke="#666666" points="1492.62,-163.5 1341.62,-163.5 1341.62,-133 1492.62,-133 1492.62,-163.5"/>
<text text-anchor="start" x="1349.62" y="-150" font-family="Helvetica,sans-Serif" font-size="10.00">OscProbCalcer/OscProbCalcer</text>
<text text-anchor="middle" x="1417.12" y="-138.75" font-family="Helvetica,sans-Serif" font-size="10.00">_NuFASTLinear.h</text>
</a>
</g>
</g>
<!-- Node8&#45;&gt;Node17 -->
<g id="edge18_Node000008_Node000017" class="edge">
<title>Node8&#45;&gt;Node17</title>
<g id="a_edge18_Node000008_Node000017"><a xlink:title=" ">
<path fill="none" stroke="#63b8ff" d="M1752.35,-201.25C1684.25,-191.34 1587.08,-176.95 1502.12,-163.5 1499.17,-163.03 1496.16,-162.55 1493.11,-162.06"/>
<polygon fill="#63b8ff" stroke="#63b8ff" points="1751.55,-204.67 1761.95,-202.65 1752.55,-197.74 1751.55,-204.67"/>
</a>
</g>
</g>
<!-- Node19 -->
<g id="Node000019" class="node">
<title>Node19</title>
<g id="a_Node000019"><a xlink:href="OscProbCalcer__NuSQUIDSLinear_8h.html" target="_top" xlink:title=" ">
<polygon fill="white" stroke="#666666" points="1661.62,-163.5 1510.62,-163.5 1510.62,-133 1661.62,-133 1661.62,-163.5"/>
<text text-anchor="start" x="1518.62" y="-150" font-family="Helvetica,sans-Serif" font-size="10.00">OscProbCalcer/OscProbCalcer</text>
<text text-anchor="middle" x="1586.12" y="-138.75" font-family="Helvetica,sans-Serif" font-size="10.00">_NuSQUIDSLinear.h</text>
</a>
</g>
</g>
<!-- Node8&#45;&gt;Node19 -->
<g id="edge20_Node000008_Node000019" class="edge">
<title>Node8&#45;&gt;Node19</title>
<g id="a_edge20_Node000008_Node000019"><a xlink:title=" ">
<path fill="none" stroke="#63b8ff" d="M1770.47,-196.25C1730.72,-186.11 1681.28,-173.51 1643.6,-163.9"/>
<polygon fill="#63b8ff" stroke="#63b8ff" points="1769.38,-199.58 1779.93,-198.66 1771.11,-192.8 1769.38,-199.58"/>
</a>
</g>
</g>
<!-- Node21 -->
<g id="Node000021" class="node">
<title>Node21</title>
<g id="a_Node000021"><a xlink:href="OscProbCalcer__OscProb_8h.html" target="_top" xlink:title=" ">
<polygon fill="white" stroke="#666666" points="1830.62,-163.5 1679.62,-163.5 1679.62,-133 1830.62,-133 1830.62,-163.5"/>
<text text-anchor="start" x="1687.62" y="-150" font-family="Helvetica,sans-Serif" font-size="10.00">OscProbCalcer/OscProbCalcer</text>
<text text-anchor="middle" x="1755.12" y="-138.75" font-family="Helvetica,sans-Serif" font-size="10.00">_OscProb.h</text>
</a>
</g>
</g>
<!-- Node8&#45;&gt;Node21 -->
<g id="edge22_Node000008_Node000021" class="edge">
<title>Node8&#45;&gt;Node21</title>
<g id="a_edge22_Node000008_Node000021"><a xlink:title=" ">
<path fill="none" stroke="#63b8ff" d="M1811.18,-192.29C1799.01,-182.94 1785.05,-172.23 1774.11,-163.83"/>
<polygon fill="#63b8ff" stroke="#63b8ff" points="1808.8,-194.88 1818.86,-198.19 1813.06,-189.33 1808.8,-194.88"/>
</a>
</g>
</g>
<!-- Node23 -->
<g id="Node000023" class="node">
<title>Node23</title>
<g id="a_Node000023"><a xlink:href="OscProbCalcer__Prob3ppLinear_8h.html" target="_top" xlink:title=" ">
<polygon fill="white" stroke="#666666" points="1999.62,-163.5 1848.62,-163.5 1848.62,-133 1999.62,-133 1999.62,-163.5"/>
<text text-anchor="start" x="1856.62" y="-150" font-family="Helvetica,sans-Serif" font-size="10.00">OscProbCalcer/OscProbCalcer</text>
<text text-anchor="middle" x="1924.12" y="-138.75" font-family="Helvetica,sans-Serif" font-size="10.00">_Prob3ppLinear.h</text>
</a>
</g>
</g>
<!-- Node8&#45;&gt;Node23 -->
<g id="edge24_Node000008_Node000023" class="edge">
<title>Node8&#45;&gt;Node23</title>
<g id="a_edge24_Node000008_Node000023"><a xlink:title=" ">
<path fill="none" stroke="#63b8ff" d="M1867.4,-192.29C1879.72,-182.94 1893.84,-172.23 1904.91,-163.83"/>
<polygon fill="#63b8ff" stroke="#63b8ff" points="1865.47,-189.37 1859.62,-198.2 1869.7,-194.94 1865.47,-189.37"/>
</a>
</g>
</g>
<!-- Node25 -->
<g id="Node000025" class="node">
<title>Node25</title>
<g id="a_Node000025"><a xlink:href="OscProbCalcer__ProbGPULinear_8h.html" target="_top" xlink:title=" ">
<polygon fill="white" stroke="#666666" points="2168.62,-163.5 2017.62,-163.5 2017.62,-133 2168.62,-133 2168.62,-163.5"/>
<text text-anchor="start" x="2025.62" y="-150" font-family="Helvetica,sans-Serif" font-size="10.00">OscProbCalcer/OscProbCalcer</text>
<text text-anchor="middle" x="2093.12" y="-138.75" font-family="Helvetica,sans-Serif" font-size="10.00">_ProbGPULinear.h</text>
</a>
</g>
</g>
<!-- Node8&#45;&gt;Node25 -->
<g id="edge26_Node000008_Node000025" class="edge">
<title>Node8&#45;&gt;Node25</title>
<g id="a_edge26_Node000008_Node000025"><a xlink:title=" ">
<path fill="none" stroke="#63b8ff" d="M1908.06,-196.25C1947.95,-186.11 1997.6,-173.51 2035.42,-163.9"/>
<polygon fill="#63b8ff" stroke="#63b8ff" points="1907.38,-192.81 1898.55,-198.66 1909.1,-199.59 1907.38,-192.81"/>
</a>
</g>
</g>
<!-- Node8&#45;&gt;Node27 -->
<g id="edge28_Node000008_Node000027" class="edge">
<title>Node8&#45;&gt;Node27</title>
<g id="a_edge28_Node000008_Node000027"><a xlink:title=" ">
<path fill="none" stroke="#63b8ff" d="M1751.97,-208.11C1555.7,-195.41 1082.61,-164.81 908.17,-153.52"/>
<polygon fill="#63b8ff" stroke="#63b8ff" points="1751.65,-211.6 1761.86,-208.75 1752.11,-204.61 1751.65,-211.6"/>
</a>
</g>
</g>
<!-- Node10&#45;&gt;Node6 -->
<g id="edge11_Node000010_Node000006" class="edge">
<title>Node10&#45;&gt;Node6</title>
<g id="a_edge11_Node000010_Node000006"><a xlink:title=" ">
<path fill="none" stroke="#63b8ff" d="M2311.17,-128.64C2343.1,-116.53 2383.31,-101.27 2408.38,-91.76"/>
<polygon fill="#63b8ff" stroke="#63b8ff" points="2310.22,-125.26 2302.12,-132.08 2312.71,-131.8 2310.22,-125.26"/>
</a>
</g>
</g>
<!-- Node11 -->
<g id="Node000011" class="node">
<title>Node11</title>
<g id="a_Node000011"><a xlink:href="OscProbCalcerFactory_8cpp.html" target="_top" xlink:title=" ">
<polygon fill="white" stroke="#666666" points="2337.62,-97 2186.62,-97 2186.62,-66.5 2337.62,-66.5 2337.62,-97"/>
<text text-anchor="start" x="2194.62" y="-83.5" font-family="Helvetica,sans-Serif" font-size="10.00">OscProbCalcer/OscProbCalcer</text>
<text text-anchor="middle" x="2262.12" y="-72.25" font-family="Helvetica,sans-Serif" font-size="10.00">Factory.cpp</text>
</a>
</g>
</g>
<!-- Node10&#45;&gt;Node11 -->
<g id="edge12_Node000010_Node000011" class="edge">
<title>Node10&#45;&gt;Node11</title>
<g id="a_edge12_Node000010_Node000011"><a xlink:title=" ">
<path fill="none" stroke="#63b8ff" d="M2262.12,-121.31C2262.12,-113.14 2262.12,-104.41 2262.12,-97.33"/>
<polygon fill="#63b8ff" stroke="#63b8ff" points="2258.63,-121.1 2262.13,-131.1 2265.63,-121.1 2258.63,-121.1"/>
</a>
</g>
</g>
<!-- Node12 -->
<g id="Node000012" class="node">
<title>Node12</title>
<g id="a_Node000012"><a xlink:href="OscillatorBase_8cpp.html" target="_top" xlink:title=" ">
<polygon fill="white" stroke="#666666" points="1154.12,-91.38 1012.12,-91.38 1012.12,-72.12 1154.12,-72.12 1154.12,-91.38"/>
<text text-anchor="middle" x="1083.12" y="-77.88" font-family="Helvetica,sans-Serif" font-size="10.00">Oscillator/OscillatorBase.cpp</text>
</a>
</g>
</g>
<!-- Node10&#45;&gt;Node12 -->
<g id="edge13_Node000010_Node000012" class="edge">
<title>Node10&#45;&gt;Node12</title>
<g id="a_edge13_Node000010_Node000012"><a xlink:title=" ">
<path fill="none" stroke="#63b8ff" d="M2174.87,-132.76C1727.1,-88.1 1608.27,-144.3 1163.12,-97 1151.62,-95.78 1139.28,-93.88 1127.82,-91.86"/>
<polygon fill="#63b8ff" stroke="#63b8ff" points="2174.37,-136.23 2184.67,-133.75 2175.08,-129.26 2174.37,-136.23"/>
</a>
</g>
</g>
<!-- Node14 -->
<g id="Node000014" class="node">
<title>Node14</title>
<g id="a_Node000014"><a xlink:href="OscProbCalcer__CUDAProb3_8cpp.html" target="_top" xlink:title=" ">
<polygon fill="white" stroke="#666666" points="1323.62,-97 1172.62,-97 1172.62,-66.5 1323.62,-66.5 1323.62,-97"/>
<text text-anchor="start" x="1180.62" y="-83.5" font-family="Helvetica,sans-Serif" font-size="10.00">OscProbCalcer/OscProbCalcer</text>
<text text-anchor="middle" x="1248.12" y="-72.25" font-family="Helvetica,sans-Serif" font-size="10.00">_CUDAProb3.cpp</text>
</a>
</g>
</g>
<!-- Node13&#45;&gt;Node14 -->
<g id="edge15_Node000013_Node000014" class="edge">
<title>Node13&#45;&gt;Node14</title>
<g id="a_edge15_Node000013_Node000014"><a xlink:title=" ">
<path fill="none" stroke="#63b8ff" d="M1248.12,-121.31C1248.12,-113.14 1248.12,-104.41 1248.12,-97.33"/>
<polygon fill="#63b8ff" stroke="#63b8ff" points="1244.63,-121.1 1248.13,-131.1 1251.63,-121.1 1244.63,-121.1"/>
</a>
</g>
</g>
<!-- Node16 -->
<g id="Node000016" class="node">
<title>Node16</title>
<g id="a_Node000016"><a xlink:href="OscProbCalcer__CUDAProb3Linear_8cpp.html" target="_top" xlink:title=" ">
<polygon fill="white" stroke="#666666" points="2753.62,-97 2602.62,-97 2602.62,-66.5 2753.62,-66.5 2753.62,-97"/>
<text text-anchor="start" x="2610.62" y="-83.5" font-family="Helvetica,sans-Serif" font-size="10.00">OscProbCalcer/OscProbCalcer</text>
<text text-anchor="middle" x="2678.12" y="-72.25" font-family="Helvetica,sans-Serif" font-size="10.00">_CUDAProb3Linear.cpp</text>
</a>
</g>
</g>
<!-- Node15&#45;&gt;Node16 -->
<g id="edge17_Node000015_Node000016" class="edge">
<title>Node15&#45;&gt;Node16</title>
<g id="a_edge17_Node000015_Node000016"><a xlink:title=" ">
<path fill="none" stroke="#63b8ff" d="M2678.12,-121.31C2678.12,-113.14 2678.12,-104.41 2678.12,-97.33"/>
<polygon fill="#63b8ff" stroke="#63b8ff" points="2674.63,-121.1 2678.13,-131.1 2681.63,-121.1 2674.63,-121.1"/>
</a>
</g>
</g>
<!-- Node18 -->
<g id="Node000018" class="node">
<title>Node18</title>
<g id="a_Node000018"><a xlink:href="OscProbCalcer__NuFASTLinear_8cpp.html" target="_top" xlink:title=" ">
<polygon fill="white" stroke="#666666" points="1492.62,-97 1341.62,-97 1341.62,-66.5 1492.62,-66.5 1492.62,-97"/>
<text text-anchor="start" x="1349.62" y="-83.5" font-family="Helvetica,sans-Serif" font-size="10.00">OscProbCalcer/OscProbCalcer</text>
<text text-anchor="middle" x="1417.12" y="-72.25" font-family="Helvetica,sans-Serif" font-size="10.00">_NuFASTLinear.cpp</text>
</a>
</g>
</g>
<!-- Node17&#45;&gt;Node18 -->
<g id="edge19_Node000017_Node000018" class="edge">
<title>Node17&#45;&gt;Node18</title>
<g id="a_edge19_Node000017_Node000018"><a xlink:title=" ">
<path fill="none" stroke="#63b8ff" d="M1417.12,-121.31C1417.12,-113.14 1417.12,-104.41 1417.12,-97.33"/>
<polygon fill="#63b8ff" stroke="#63b8ff" points="1413.63,-121.1 1417.13,-131.1 1420.63,-121.1 1413.63,-121.1"/>
</a>
</g>
</g>
<!-- Node20 -->
<g id="Node000020" class="node">
<title>Node20</title>
<g id="a_Node000020"><a xlink:href="OscProbCalcer__NuSQUIDSLinear_8cpp.html" target="_top" xlink:title=" ">
<polygon fill="white" stroke="#666666" points="1661.62,-97 1510.62,-97 1510.62,-66.5 1661.62,-66.5 1661.62,-97"/>
<text text-anchor="start" x="1518.62" y="-83.5" font-family="Helvetica,sans-Serif" font-size="10.00">OscProbCalcer/OscProbCalcer</text>
<text text-anchor="middle" x="1586.12" y="-72.25" font-family="Helvetica,sans-Serif" font-size="10.00">_NuSQUIDSLinear.cpp</text>
</a>
</g>
</g>
<!-- Node19&#45;&gt;Node20 -->
<g id="edge21_Node000019_Node000020" class="edge">
<title>Node19&#45;&gt;Node20</title>
<g id="a_edge21_Node000019_Node000020"><a xlink:title=" ">
<path fill="none" stroke="#63b8ff" d="M1586.12,-121.31C1586.12,-113.14 1586.12,-104.41 1586.12,-97.33"/>
<polygon fill="#63b8ff" stroke="#63b8ff" points="1582.63,-121.1 1586.13,-131.1 1589.63,-121.1 1582.63,-121.1"/>
</a>
</g>
</g>
<!-- Node22 -->
<g id="Node000022" class="node">
<title>Node22</title>
<g id="a_Node000022"><a xlink:href="OscProbCalcer__OscProb_8cpp.html" target="_top" xlink:title=" ">
<polygon fill="white" stroke="#666666" points="1830.62,-97 1679.62,-97 1679.62,-66.5 1830.62,-66.5 1830.62,-97"/>
<text text-anchor="start" x="1687.62" y="-83.5" font-family="Helvetica,sans-Serif" font-size="10.00">OscProbCalcer/OscProbCalcer</text>
<text text-anchor="middle" x="1755.12" y="-72.25" font-family="Helvetica,sans-Serif" font-size="10.00">_OscProb.cpp</text>
</a>
</g>
</g>
<!-- Node21&#45;&gt;Node22 -->
<g id="edge23_Node000021_Node000022" class="edge">
<title>Node21&#45;&gt;Node22</title>
<g id="a_edge23_Node000021_Node000022"><a xlink:title=" ">
<path fill="none" stroke="#63b8ff" d="M1755.12,-121.31C1755.12,-113.14 1755.12,-104.41 1755.12,-97.33"/>
<polygon fill="#63b8ff" stroke="#63b8ff" points="1751.63,-121.1 1755.13,-131.1 1758.63,-121.1 1751.63,-121.1"/>
</a>
</g>
</g>
<!-- Node24 -->
<g id="Node000024" class="node">
<title>Node24</title>
<g id="a_Node000024"><a xlink:href="OscProbCalcer__Prob3ppLinear_8cpp.html" target="_top" xlink:title=" ">
<polygon fill="white" stroke="#666666" points="1999.62,-97 1848.62,-97 1848.62,-66.5 1999.62,-66.5 1999.62,-97"/>
<text text-anchor="start" x="1856.62" y="-83.5" font-family="Helvetica,sans-Serif" font-size="10.00">OscProbCalcer/OscProbCalcer</text>
<text text-anchor="middle" x="1924.12" y="-72.25" font-family="Helvetica,sans-Serif" font-size="10.00">_Prob3ppLinear.cpp</text>
</a>
</g>
</g>
<!-- Node23&#45;&gt;Node24 -->
<g id="edge25_Node000023_Node000024" class="edge">
<title>Node23&#45;&gt;Node24</title>
<g id="a_edge25_Node000023_Node000024"><a xlink:title=" ">
<path fill="none" stroke="#63b8ff" d="M1924.12,-121.31C1924.12,-113.14 1924.12,-104.41 1924.12,-97.33"/>
<polygon fill="#63b8ff" stroke="#63b8ff" points="1920.63,-121.1 1924.13,-131.1 1927.63,-121.1 1920.63,-121.1"/>
</a>
</g>
</g>
<!-- Node26 -->
<g id="Node000026" class="node">
<title>Node26</title>
<g id="a_Node000026"><a xlink:href="OscProbCalcer__ProbGPULinear_8cpp.html" target="_top" xlink:title=" ">
<polygon fill="white" stroke="#666666" points="2168.62,-97 2017.62,-97 2017.62,-66.5 2168.62,-66.5 2168.62,-97"/>
<text text-anchor="start" x="2025.62" y="-83.5" font-family="Helvetica,sans-Serif" font-size="10.00">OscProbCalcer/OscProbCalcer</text>
<text text-anchor="middle" x="2093.12" y="-72.25" font-family="Helvetica,sans-Serif" font-size="10.00">_ProbGPULinear.cpp</text>
</a>
</g>
</g>
<!-- Node25&#45;&gt;Node26 -->
<g id="edge27_Node000025_Node000026" class="edge">
<title>Node25&#45;&gt;Node26</title>
<g id="a_edge27_Node000025_Node000026"><a xlink:title=" ">
<path fill="none" stroke="#63b8ff" d="M2093.12,-121.31C2093.12,-113.14 2093.12,-104.41 2093.12,-97.33"/>
<polygon fill="#63b8ff" stroke="#63b8ff" points="2089.63,-121.1 2093.13,-131.1 2096.63,-121.1 2089.63,-121.1"/>
</a>
</g>
</g>
<!-- Node27&#45;&gt;Node12 -->
<g id="edge29_Node000027_Node000012" class="edge">
<title>Node27&#45;&gt;Node12</title>
<g id="a_edge29_Node000027_Node000012"><a xlink:title=" ">
<path fill="none" stroke="#63b8ff" d="M887.22,-135.18C934.26,-122.59 1006.93,-103.14 1049.28,-91.81"/>
<polygon fill="#63b8ff" stroke="#63b8ff" points="886.36,-131.79 877.61,-137.75 888.17,-138.55 886.36,-131.79"/>
</a>
</g>
</g>
<!-- Node28 -->
<g id="Node000028" class="node">
<title>Node28</title>
<g id="a_Node000028"><a xlink:href="OscillatorBinned_8h.html" target="_top" xlink:title=" ">
<polygon fill="white" stroke="#666666" points="688.62,-91.38 549.62,-91.38 549.62,-72.12 688.62,-72.12 688.62,-91.38"/>
<text text-anchor="middle" x="619.12" y="-77.88" font-family="Helvetica,sans-Serif" font-size="10.00">Oscillator/OscillatorBinned.h</text>
</a>
</g>
</g>
<!-- Node27&#45;&gt;Node28 -->
<g id="edge30_Node000027_Node000028" class="edge">
<title>Node27&#45;&gt;Node28</title>
<g id="a_edge30_Node000027_Node000028"><a xlink:title=" ">
<path fill="none" stroke="#63b8ff" d="M799.84,-135.02C756.3,-122.43 689.46,-103.09 650.44,-91.81"/>
<polygon fill="#63b8ff" stroke="#63b8ff" points="798.61,-138.31 809.19,-137.72 800.56,-131.58 798.61,-138.31"/>
</a>
</g>
</g>
<!-- Node31 -->
<g id="Node000031" class="node">
<title>Node31</title>
<g id="a_Node000031"><a xlink:href="OscillatorFactory_8h.html" target="_top" xlink:title=" ">
<polygon fill="white" stroke="#666666" points="492.75,-91.38 351.5,-91.38 351.5,-72.12 492.75,-72.12 492.75,-91.38"/>
<text text-anchor="middle" x="422.12" y="-77.88" font-family="Helvetica,sans-Serif" font-size="10.00">Oscillator/OscillatorFactory.h</text>
</a>
</g>
</g>
<!-- Node27&#45;&gt;Node31 -->
<g id="edge33_Node000027_Node000031" class="edge">
<title>Node27&#45;&gt;Node31</title>
<g id="a_edge33_Node000027_Node000031"><a xlink:title=" ">
<path fill="none" stroke="#63b8ff" d="M771.71,-136.44C690.32,-123.94 557.81,-103.59 481.45,-91.86"/>
<polygon fill="#63b8ff" stroke="#63b8ff" points="770.93,-139.86 781.34,-137.92 771.99,-132.94 770.93,-139.86"/>
</a>
</g>
</g>
<!-- Node32 -->
<g id="Node000032" class="node">
<title>Node32</title>
<g id="a_Node000032"><a xlink:href="OscillatorSubSampling_8h.html" target="_top" xlink:title=" ">
<polygon fill="white" stroke="#666666" points="825.5,-97 706.75,-97 706.75,-66.5 825.5,-66.5 825.5,-97"/>
<text text-anchor="start" x="714.75" y="-83.5" font-family="Helvetica,sans-Serif" font-size="10.00">Oscillator/OscillatorSub</text>
<text text-anchor="middle" x="766.12" y="-72.25" font-family="Helvetica,sans-Serif" font-size="10.00">Sampling.h</text>
</a>
</g>
</g>
<!-- Node27&#45;&gt;Node32 -->
<g id="edge39_Node000027_Node000032" class="edge">
<title>Node27&#45;&gt;Node32</title>
<g id="a_edge39_Node000027_Node000032"><a xlink:title=" ">
<path fill="none" stroke="#63b8ff" d="M823.03,-131.04C810.82,-120.69 795.13,-107.37 783.32,-97.34"/>
<polygon fill="#63b8ff" stroke="#63b8ff" points="820.51,-133.5 830.4,-137.3 825.04,-128.16 820.51,-133.5"/>
</a>
</g>
</g>
<!-- Node34 -->
<g id="Node000034" class="node">
<title>Node34</title>
<g id="a_Node000034"><a xlink:href="OscillatorUnbinned_8h.html" target="_top" xlink:title=" ">
<polygon fill="white" stroke="#666666" points="994.25,-91.38 844,-91.38 844,-72.12 994.25,-72.12 994.25,-91.38"/>
<text text-anchor="middle" x="919.12" y="-77.88" font-family="Helvetica,sans-Serif" font-size="10.00">Oscillator/OscillatorUnbinned.h</text>
</a>
</g>
</g>
<!-- Node27&#45;&gt;Node34 -->
<g id="edge42_Node000027_Node000034" class="edge">
<title>Node27&#45;&gt;Node34</title>
<g id="a_edge42_Node000027_Node000034"><a xlink:title=" ">
<path fill="none" stroke="#63b8ff" d="M861.33,-131.17C876.24,-118.67 896.37,-101.81 908.51,-91.64"/>
<polygon fill="#63b8ff" stroke="#63b8ff" points="859.41,-128.21 853.99,-137.31 863.91,-133.57 859.41,-128.21"/>
</a>
</g>
</g>
<!-- Node29 -->
<g id="Node000029" class="node">
<title>Node29</title>
<g id="a_Node000029"><a xlink:href="OscillatorBinned_8cpp.html" target="_top" xlink:title=" ">
<polygon fill="white" stroke="#666666" points="725.88,-24.88 576.38,-24.88 576.38,-5.63 725.88,-5.63 725.88,-24.88"/>
<text text-anchor="middle" x="651.12" y="-11.38" font-family="Helvetica,sans-Serif" font-size="10.00">Oscillator/OscillatorBinned.cpp</text>
</a>
</g>
</g>
<!-- Node28&#45;&gt;Node29 -->
<g id="edge31_Node000028_Node000029" class="edge">
<title>Node28&#45;&gt;Node29</title>
<g id="a_edge31_Node000028_Node000029"><a xlink:title=" ">
<path fill="none" stroke="#63b8ff" d="M628.54,-61.77C634.55,-49.67 642.05,-34.55 646.71,-25.14"/>
<polygon fill="#63b8ff" stroke="#63b8ff" points="625.56,-59.91 624.25,-70.43 631.83,-63.02 625.56,-59.91"/>
</a>
</g>
</g>
<!-- Node30 -->
<g id="Node000030" class="node">
<title>Node30</title>
<g id="a_Node000030"><a xlink:href="OscillatorFactory_8cpp.html" target="_top" xlink:title=" ">
<polygon fill="white" stroke="#666666" points="896,-24.88 744.25,-24.88 744.25,-5.63 896,-5.63 896,-24.88"/>
<text text-anchor="middle" x="820.12" y="-11.38" font-family="Helvetica,sans-Serif" font-size="10.00">Oscillator/OscillatorFactory.cpp</text>
</a>
</g>
</g>
<!-- Node28&#45;&gt;Node30 -->
<g id="edge32_Node000028_Node000030" class="edge">
<title>Node28&#45;&gt;Node30</title>
<g id="a_edge32_Node000028_Node000030"><a xlink:title=" ">
<path fill="none" stroke="#63b8ff" d="M658.24,-68.2C697.5,-55.6 757.02,-36.5 791.9,-25.31"/>
<polygon fill="#63b8ff" stroke="#63b8ff" points="657.39,-64.79 648.94,-71.18 659.53,-71.46 657.39,-64.79"/>
</a>
</g>
</g>
<!-- Node31&#45;&gt;Node2 -->
<g id="edge34_Node000031_Node000002" class="edge">
<title>Node31&#45;&gt;Node2</title>
<g id="a_edge34_Node000031_Node000002"><a xlink:title=" ">
<path fill="none" stroke="#63b8ff" d="M342.21,-70.06C277.9,-60.99 185.35,-46.85 105.12,-30.5 97.73,-28.99 89.85,-27.17 82.38,-25.33"/>
<polygon fill="#63b8ff" stroke="#63b8ff" points="341.6,-73.51 351.98,-71.43 342.57,-66.58 341.6,-73.51"/>
</a>
</g>
</g>
<!-- Node31&#45;&gt;Node3 -->
<g id="edge35_Node000031_Node000003" class="edge">
<title>Node31&#45;&gt;Node3</title>
<g id="a_edge35_Node000031_Node000003"><a xlink:title=" ">
<path fill="none" stroke="#63b8ff" d="M374.98,-68.92C324.85,-56.34 246.67,-36.71 201.22,-25.31"/>
<polygon fill="#63b8ff" stroke="#63b8ff" points="373.83,-72.24 384.38,-71.28 375.53,-65.45 373.83,-72.24"/>
</a>
</g>
</g>
<!-- Node31&#45;&gt;Node5 -->
<g id="edge36_Node000031_Node000005" class="edge">
<title>Node31&#45;&gt;Node5</title>
<g id="a_edge36_Node000031_Node000005"><a xlink:title=" ">
<path fill="none" stroke="#63b8ff" d="M398.84,-65.58C379.67,-53.09 353.12,-35.8 337.09,-25.35"/>
<polygon fill="#63b8ff" stroke="#63b8ff" points="396.8,-68.43 407.09,-70.96 400.62,-62.56 396.8,-68.43"/>
</a>
</g>
</g>
<!-- Node31&#45;&gt;Node7 -->
<g id="edge37_Node000031_Node000007" class="edge">
<title>Node31&#45;&gt;Node7</title>
<g id="a_edge37_Node000031_Node000007"><a xlink:title=" ">
<path fill="none" stroke="#63b8ff" d="M440.48,-64.31C454.38,-51.86 472.95,-35.22 484.2,-25.14"/>
<polygon fill="#63b8ff" stroke="#63b8ff" points="438.38,-61.49 433.26,-70.77 443.05,-66.71 438.38,-61.49"/>
</a>
</g>
</g>
<!-- Node31&#45;&gt;Node30 -->
<g id="edge38_Node000031_Node000030" class="edge">
<title>Node31&#45;&gt;Node30</title>
<g id="a_edge38_Node000031_Node000030"><a xlink:title=" ">
<path fill="none" stroke="#63b8ff" d="M490.6,-69.9C554.02,-59.81 650.97,-44.31 735.12,-30.5 745.17,-28.85 755.87,-27.07 766.18,-25.35"/>
<polygon fill="#63b8ff" stroke="#63b8ff" points="490.37,-66.39 481.04,-71.42 491.47,-73.3 490.37,-66.39"/>
</a>
</g>
</g>
<!-- Node32&#45;&gt;Node30 -->
<g id="edge40_Node000032_Node000030" class="edge">
<title>Node32&#45;&gt;Node30</title>
<g id="a_edge40_Node000032_Node000030"><a xlink:title=" ">
<path fill="none" stroke="#63b8ff" d="M785.56,-57.54C794.99,-46.27 805.76,-33.41 812.74,-25.07"/>
<polygon fill="#63b8ff" stroke="#63b8ff" points="783.09,-55.04 779.35,-64.95 788.45,-59.53 783.09,-55.04"/>
</a>
</g>
</g>
<!-- Node33 -->
<g id="Node000033" class="node">
<title>Node33</title>
<g id="a_Node000033"><a xlink:href="OscillatorSubSampling_8cpp.html" target="_top" xlink:title=" ">
<polygon fill="white" stroke="#666666" points="1032.5,-30.5 913.75,-30.5 913.75,0 1032.5,0 1032.5,-30.5"/>
<text text-anchor="start" x="921.75" y="-17" font-family="Helvetica,sans-Serif" font-size="10.00">Oscillator/OscillatorSub</text>
<text text-anchor="middle" x="973.12" y="-5.75" font-family="Helvetica,sans-Serif" font-size="10.00">Sampling.cpp</text>
</a>
</g>
</g>
<!-- Node32&#45;&gt;Node33 -->
<g id="edge41_Node000032_Node000033" class="edge">
<title>Node32&#45;&gt;Node33</title>
<g id="a_edge41_Node000032_Node000033"><a xlink:title=" ">
<path fill="none" stroke="#63b8ff" d="M823.98,-62.72C856.2,-52.68 895.8,-40.34 926.1,-30.9"/>
<polygon fill="#63b8ff" stroke="#63b8ff" points="823.31,-59.27 814.8,-65.58 825.39,-65.95 823.31,-59.27"/>
</a>
</g>
</g>
<!-- Node34&#45;&gt;Node30 -->
<g id="edge43_Node000034_Node000030" class="edge">
<title>Node34&#45;&gt;Node30</title>
<g id="a_edge43_Node000034_Node000030"><a xlink:title=" ">
<path fill="none" stroke="#63b8ff" d="M895.84,-65.58C876.67,-53.09 850.12,-35.8 834.09,-25.35"/>
<polygon fill="#63b8ff" stroke="#63b8ff" points="893.8,-68.43 904.09,-70.96 897.62,-62.56 893.8,-68.43"/>
</a>
</g>
</g>
<!-- Node35 -->
<g id="Node000035" class="node">
<title>Node35</title>
<g id="a_Node000035"><a xlink:href="OscillatorUnbinned_8cpp.html" target="_top" xlink:title=" ">
<polygon fill="white" stroke="#666666" points="1211.5,-24.88 1050.75,-24.88 1050.75,-5.63 1211.5,-5.63 1211.5,-24.88"/>
<text text-anchor="middle" x="1131.12" y="-11.38" font-family="Helvetica,sans-Serif" font-size="10.00">Oscillator/OscillatorUnbinned.cpp</text>
</a>
</g>
</g>
<!-- Node34&#45;&gt;Node35 -->
<g id="edge44_Node000034_Node000035" class="edge">
<title>Node34&#45;&gt;Node35</title>
<g id="a_edge44_Node000034_Node000035"><a xlink:title=" ">
<path fill="none" stroke="#63b8ff" d="M959.85,-68.36C1001.26,-55.76 1064.41,-36.55 1101.35,-25.31"/>
<polygon fill="#63b8ff" stroke="#63b8ff" points="959.05,-64.95 950.5,-71.2 961.08,-71.64 959.05,-64.95"/>
</a>
</g>
</g>
</g>
</svg>
