<?xml version="1.0" encoding="UTF-8" standalone="no"?>
<!DOCTYPE svg PUBLIC "-//W3C//DTD SVG 1.1//EN"
 "http://www.w3.org/Graphics/SVG/1.1/DTD/svg11.dtd">
<!-- Generated by graphviz version 9.0.0 (20230911.1827)
 -->
<!-- Title: Oscillator/OscillatorBase.cpp Pages: 1 -->
<svg width="401pt" height="271pt"
 viewBox="0.00 0.00 401.38 270.75" xmlns="http://www.w3.org/2000/svg" xmlns:xlink="http://www.w3.org/1999/xlink">

<svg id="main" version="1.1" xmlns="http://www.w3.org/2000/svg" xmlns:xlink="http://www.w3.org/1999/xlink" xml:space="preserve" onload="init(evt)">
<style type="text/css"><![CDATA[
.node, .edge {opacity: 0.7;}
.node.selected, .edge.selected {opacity: 1;}
.edge:hover path { stroke: red; }
.edge:hover polygon { stroke: red; fill: red; }
]]></style>
<script type="application/ecmascript" xlink:href="svg.min.js"/>
<svg id="graph" class="graph">
<g id="graph0" class="graph" transform="scale(1 1) rotate(0) translate(4 266.75)">
<title>Oscillator/OscillatorBase.cpp</title>
<!-- Node1 -->
<g id="Node000001" class="node">
<title>Node1</title>
<g id="a_Node000001"><a xlink:title=" ">
<polygon fill="#999999" stroke="#666666" points="338.62,-262.75 196.62,-262.75 196.62,-243.5 338.62,-243.5 338.62,-262.75"/>
<text text-anchor="middle" x="267.62" y="-249.25" font-family="Helvetica,sans-Serif" font-size="10.00">Oscillator/OscillatorBase.cpp</text>
</a>
</g>
</g>
<!-- Node2 -->
<g id="Node000002" class="node">
<title>Node2</title>
<g id="a_Node000002"><a xlink:href="OscillatorBase_8h.html" target="_top" xlink:title=" ">
<polygon fill="white" stroke="#666666" points="174.38,-201.88 42.88,-201.88 42.88,-182.62 174.38,-182.62 174.38,-201.88"/>
<text text-anchor="middle" x="108.62" y="-188.38" font-family="Helvetica,sans-Serif" font-size="10.00">Oscillator/OscillatorBase.h</text>
</a>
</g>
</g>
<!-- Node1&#45;&gt;Node2 -->
<g id="edge1_Node000001_Node000002" class="edge">
<title>Node1&#45;&gt;Node2</title>
<g id="a_edge1_Node000001_Node000002"><a xlink:title=" ">
<path fill="none" stroke="#63b8ff" d="M243.13,-243.05C216.52,-233.2 173.78,-217.38 143.63,-206.21"/>
<polygon fill="#63b8ff" stroke="#63b8ff" points="145.16,-203.05 134.57,-202.86 142.73,-209.61 145.16,-203.05"/>
</a>
</g>
</g>
<!-- Node9 -->
<g id="Node000009" class="node">
<title>Node9</title>
<g id="a_Node000009"><a xlink:title=" ">
<polygon fill="#e0e0e0" stroke="#999999" points="393.38,-19.25 339.88,-19.25 339.88,0 393.38,0 393.38,-19.25"/>
<text text-anchor="middle" x="366.62" y="-5.75" font-family="Helvetica,sans-Serif" font-size="10.00">iostream</text>
</a>
</g>
</g>
<!-- Node1&#45;&gt;Node9 -->
<g id="edge17_Node000001_Node000009" class="edge">
<title>Node1&#45;&gt;Node9</title>
<g id="a_edge17_Node000001_Node000009"><a xlink:title=" ">
<path fill="none" stroke="#63b8ff" d="M301.8,-243.05C320.03,-236.34 341.04,-225.22 352.62,-207.5 388.85,-152.1 378.38,-68.22 371.06,-30.37"/>
<polygon fill="#63b8ff" stroke="#63b8ff" points="374.55,-29.97 369.08,-20.89 367.7,-31.4 374.55,-29.97"/>
</a>
</g>
</g>
<!-- Node12 -->
<g id="Node000012" class="node">
<title>Node12</title>
<g id="a_Node000012"><a xlink:href="OscProbCalcerFactory_8h.html" target="_top" xlink:title=" ">
<polygon fill="white" stroke="#666666" points="343.12,-207.5 192.12,-207.5 192.12,-177 343.12,-177 343.12,-207.5"/>
<text text-anchor="start" x="200.12" y="-194" font-family="Helvetica,sans-Serif" font-size="10.00">OscProbCalcer/OscProbCalcer</text>
<text text-anchor="middle" x="267.62" y="-182.75" font-family="Helvetica,sans-Serif" font-size="10.00">Factory.h</text>
</a>
</g>
</g>
<!-- Node1&#45;&gt;Node12 -->
<g id="edge15_Node000001_Node000012" class="edge">
<title>Node1&#45;&gt;Node12</title>
<g id="a_edge15_Node000001_Node000012"><a xlink:title=" ">
<path fill="none" stroke="#63b8ff" d="M267.62,-243.18C267.62,-236.73 267.62,-227.66 267.62,-219.01"/>
<polygon fill="#63b8ff" stroke="#63b8ff" points="271.13,-219.3 267.63,-209.3 264.13,-219.3 271.13,-219.3"/>
</a>
</g>
</g>
<!-- Node3 -->
<g id="Node000003" class="node">
<title>Node3</title>
<g id="a_Node000003"><a xlink:href="OscProbCalcerBase_8h.html" target="_top" xlink:title=" ">
<polygon fill="white" stroke="#666666" points="329.12,-141 178.12,-141 178.12,-110.5 329.12,-110.5 329.12,-141"/>
<text text-anchor="start" x="186.12" y="-127.5" font-family="Helvetica,sans-Serif" font-size="10.00">OscProbCalcer/OscProbCalcer</text>
<text text-anchor="middle" x="253.62" y="-116.25" font-family="Helvetica,sans-Serif" font-size="10.00">Base.h</text>
</a>
</g>
</g>
<!-- Node2&#45;&gt;Node3 -->
<g id="edge2_Node000002_Node000003" class="edge">
<title>Node2&#45;&gt;Node3</title>
<g id="a_edge2_Node000002_Node000003"><a xlink:title=" ">
<path fill="none" stroke="#63b8ff" d="M129.09,-182.15C150.11,-172.8 183.46,-157.96 210.37,-145.99"/>
<polygon fill="#63b8ff" stroke="#63b8ff" points="211.6,-149.28 219.31,-142.01 208.75,-142.88 211.6,-149.28"/>
</a>
</g>
</g>
<!-- Node4 -->
<g id="Node000004" class="node">
<title>Node4</title>
<g id="a_Node000004"><a xlink:href="OscillatorConstants_8h.html" target="_top" xlink:title=" ">
<polygon fill="white" stroke="#666666" points="163.75,-74.5 7.5,-74.5 7.5,-55.25 163.75,-55.25 163.75,-74.5"/>
<text text-anchor="middle" x="85.62" y="-61" font-family="Helvetica,sans-Serif" font-size="10.00">Constants/OscillatorConstants.h</text>
</a>
</g>
</g>
<!-- Node2&#45;&gt;Node4 -->
<g id="edge13_Node000002_Node000004" class="edge">
<title>Node2&#45;&gt;Node4</title>
<g id="a_edge13_Node000002_Node000004"><a xlink:title=" ">
<path fill="none" stroke="#63b8ff" d="M106.97,-182.23C103.29,-162.17 94.35,-113.45 89.29,-85.83"/>
<polygon fill="#63b8ff" stroke="#63b8ff" points="92.78,-85.5 87.54,-76.3 85.9,-86.77 92.78,-85.5"/>
</a>
</g>
</g>
<!-- Node11 -->
<g id="Node000011" class="node">
<title>Node11</title>
<g id="a_Node000011"><a xlink:title=" ">
<polygon fill="#e0e0e0" stroke="#999999" points="267.5,-74.5 181.75,-74.5 181.75,-55.25 267.5,-55.25 267.5,-74.5"/>
<text text-anchor="middle" x="224.62" y="-61" font-family="Helvetica,sans-Serif" font-size="10.00">yaml&#45;cpp/yaml.h</text>
</a>
</g>
</g>
<!-- Node2&#45;&gt;Node11 -->
<g id="edge14_Node000002_Node000011" class="edge">
<title>Node2&#45;&gt;Node11</title>
<g id="a_edge14_Node000002_Node000011"><a xlink:title=" ">
<path fill="none" stroke="#63b8ff" d="M114.39,-182.21C124.54,-166.67 146.68,-134.26 169.62,-110.5 179.7,-100.07 192.16,-89.78 202.67,-81.72"/>
<polygon fill="#63b8ff" stroke="#63b8ff" points="204.53,-84.7 210.44,-75.9 200.34,-79.09 204.53,-84.7"/>
</a>
</g>
</g>
<!-- Node3&#45;&gt;Node4 -->
<g id="edge3_Node000003_Node000004" class="edge">
<title>Node3&#45;&gt;Node4</title>
<g id="a_edge3_Node000003_Node000004"><a xlink:title=" ">
<path fill="none" stroke="#63b8ff" d="M211.66,-110.05C184.11,-100.39 148.43,-87.88 122.07,-78.65"/>
<polygon fill="#63b8ff" stroke="#63b8ff" points="123.41,-75.41 112.82,-75.4 121.1,-82.01 123.41,-75.41"/>
</a>
</g>
</g>
<!-- Node8 -->
<g id="Node000008" class="node">
<title>Node8</title>
<g id="a_Node000008"><a xlink:title=" ">
<polygon fill="#e0e0e0" stroke="#999999" points="231.62,-19.25 191.62,-19.25 191.62,0 231.62,0 231.62,-19.25"/>
<text text-anchor="middle" x="211.62" y="-5.75" font-family="Helvetica,sans-Serif" font-size="10.00">string</text>
</a>
</g>
</g>
<!-- Node3&#45;&gt;Node8 -->
<g id="edge11_Node000003_Node000008" class="edge">
<title>Node3&#45;&gt;Node8</title>
<g id="a_edge11_Node000003_Node000008"><a xlink:title=" ">
<path fill="none" stroke="#63b8ff" d="M265.08,-110.08C274.89,-95.61 286.04,-73.13 276.62,-55.25 269.23,-41.2 255.19,-30.72 242.05,-23.46"/>
<polygon fill="#63b8ff" stroke="#63b8ff" points="243.7,-20.38 233.2,-19 240.55,-26.63 243.7,-20.38"/>
</a>
</g>
</g>
<!-- Node10 -->
<g id="Node000010" class="node">
<title>Node10</title>
<g id="a_Node000010"><a xlink:title=" ">
<polygon fill="#e0e0e0" stroke="#999999" points="312.12,-19.25 269.12,-19.25 269.12,0 312.12,0 312.12,-19.25"/>
<text text-anchor="middle" x="290.62" y="-5.75" font-family="Helvetica,sans-Serif" font-size="10.00">vector</text>
</a>
</g>
</g>
<!-- Node3&#45;&gt;Node10 -->
<g id="edge10_Node000003_Node000010" class="edge">
<title>Node3&#45;&gt;Node10</title>
<g id="a_edge10_Node000003_Node000010"><a xlink:title=" ">
<path fill="none" stroke="#63b8ff" d="M277.96,-110.03C289.89,-101.35 303.08,-89.17 309.62,-74.5 316.18,-59.81 310.01,-42.23 303,-29.24"/>
<polygon fill="#63b8ff" stroke="#63b8ff" points="306.12,-27.62 297.96,-20.86 300.12,-31.23 306.12,-27.62"/>
</a>
</g>
</g>
<!-- Node3&#45;&gt;Node11 -->
<g id="edge12_Node000003_Node000011" class="edge">
<title>Node3&#45;&gt;Node11</title>
<g id="a_edge12_Node000003_Node000011"><a xlink:title=" ">
<path fill="none" stroke="#63b8ff" d="M246.46,-110.2C242.72,-102.61 238.1,-93.24 234.08,-85.07"/>
<polygon fill="#63b8ff" stroke="#63b8ff" points="237.32,-83.73 229.76,-76.31 231.04,-86.83 237.32,-83.73"/>
</a>
</g>
</g>
<!-- Node5 -->
<g id="Node000005" class="node">
<title>Node5</title>
<g id="a_Node000005"><a xlink:title=" ">
<polygon fill="#e0e0e0" stroke="#999999" points="45.25,-19.25 0,-19.25 0,0 45.25,0 45.25,-19.25"/>
<text text-anchor="middle" x="22.62" y="-5.75" font-family="Helvetica,sans-Serif" font-size="10.00">math.h</text>
</a>
</g>
</g>
<!-- Node4&#45;&gt;Node5 -->
<g id="edge4_Node000004_Node000005" class="edge">
<title>Node4&#45;&gt;Node5</title>
<g id="a_edge4_Node000004_Node000005"><a xlink:title=" ">
<path fill="none" stroke="#63b8ff" d="M74.94,-54.84C65.92,-47.22 52.79,-36.12 41.94,-26.95"/>
<polygon fill="#63b8ff" stroke="#63b8ff" points="44.21,-24.28 34.31,-20.5 39.69,-29.63 44.21,-24.28"/>
</a>
</g>
</g>
<!-- Node6 -->
<g id="Node000006" class="node">
<title>Node6</title>
<g id="a_Node000006"><a xlink:title=" ">
<polygon fill="#e0e0e0" stroke="#999999" points="108.25,-19.25 63,-19.25 63,0 108.25,0 108.25,-19.25"/>
<text text-anchor="middle" x="85.62" y="-5.75" font-family="Helvetica,sans-Serif" font-size="10.00">TFile.h</text>
</a>
</g>
</g>
<!-- Node4&#45;&gt;Node6 -->
<g id="edge5_Node000004_Node000006" class="edge">
<title>Node4&#45;&gt;Node6</title>
<g id="a_edge5_Node000004_Node000006"><a xlink:title=" ">
<path fill="none" stroke="#63b8ff" d="M85.62,-55.08C85.62,-48.57 85.62,-39.42 85.62,-31.12"/>
<polygon fill="#63b8ff" stroke="#63b8ff" points="89.13,-31.12 85.63,-21.12 82.13,-31.12 89.13,-31.12"/>
</a>
</g>
</g>
<!-- Node7 -->
<g id="Node000007" class="node">
<title>Node7</title>
<g id="a_Node000007"><a xlink:title=" ">
<polygon fill="#e0e0e0" stroke="#999999" points="168.75,-19.25 126.5,-19.25 126.5,0 168.75,0 168.75,-19.25"/>
<text text-anchor="middle" x="147.62" y="-5.75" font-family="Helvetica,sans-Serif" font-size="10.00">TH1.h</text>
</a>
</g>
</g>
<!-- Node4&#45;&gt;Node7 -->
<g id="edge6_Node000004_Node000007" class="edge">
<title>Node4&#45;&gt;Node7</title>
<g id="a_edge6_Node000004_Node000007"><a xlink:title=" ">
<path fill="none" stroke="#63b8ff" d="M96.14,-54.84C105.01,-47.22 117.94,-36.12 128.61,-26.95"/>
<polygon fill="#63b8ff" stroke="#63b8ff" points="130.81,-29.68 136.11,-20.51 126.25,-24.37 130.81,-29.68"/>
</a>
</g>
</g>
<!-- Node4&#45;&gt;Node8 -->
<g id="edge7_Node000004_Node000008" class="edge">
<title>Node4&#45;&gt;Node8</title>
<g id="a_edge7_Node000004_Node000008"><a xlink:title=" ">
<path fill="none" stroke="#63b8ff" d="M107,-54.84C127.27,-46.27 157.96,-33.31 180.86,-23.63"/>
<polygon fill="#63b8ff" stroke="#63b8ff" points="182.16,-26.88 190,-19.76 179.43,-20.43 182.16,-26.88"/>
</a>
</g>
</g>
<!-- Node4&#45;&gt;Node9 -->
<g id="edge8_Node000004_Node000009" class="edge">
<title>Node4&#45;&gt;Node9</title>
<g id="a_edge8_Node000004_Node000009"><a xlink:title=" ">
<path fill="none" stroke="#63b8ff" d="M133.99,-54.77C181.7,-45.77 256.7,-31.61 321.62,-19.25 323.79,-18.84 326.02,-18.41 328.27,-17.98"/>
<polygon fill="#63b8ff" stroke="#63b8ff" points="328.85,-21.44 338.01,-16.12 327.53,-14.56 328.85,-21.44"/>
</a>
</g>
</g>
<!-- Node4&#45;&gt;Node10 -->
<g id="edge9_Node000004_Node000010" class="edge">
<title>Node4&#45;&gt;Node10</title>
<g id="a_edge9_Node000004_Node000010"><a xlink:title=" ">
<path fill="none" stroke="#63b8ff" d="M120.4,-54.84C158.81,-44.87 220.18,-28.92 257.79,-19.15"/>
<polygon fill="#63b8ff" stroke="#63b8ff" points="258.38,-22.62 267.18,-16.71 256.62,-15.84 258.38,-22.62"/>
</a>
</g>
</g>
<!-- Node12&#45;&gt;Node3 -->
<g id="edge16_Node000012_Node000003" class="edge">
<title>Node12&#45;&gt;Node3</title>
<g id="a_edge16_Node000012_Node000003"><a xlink:title=" ">
<path fill="none" stroke="#63b8ff" d="M264.45,-176.61C262.89,-169.44 260.97,-160.59 259.18,-152.34"/>
<polygon fill="#63b8ff" stroke="#63b8ff" points="262.65,-151.84 257.11,-142.81 255.81,-153.32 262.65,-151.84"/>
</a>
</g>
</g>
</g>
</svg>
</svg>

<style type='text/css'>
<![CDATA[
[data-mouse-over-selected='false'] { opacity: 0.7; }
[data-mouse-over-selected='true']  { opacity: 1.0; }
]]>
</style>
<script type="application/ecmascript"><![CDATA[
document.addEventListener('DOMContentLoaded', (event) => {
  highlightEdges();
  highlightAdjacentNodes();
});
]]></script>
</svg>
