<?xml version="1.0" encoding="UTF-8" standalone="no"?>
<!DOCTYPE svg PUBLIC "-//W3C//DTD SVG 1.1//EN"
 "http://www.w3.org/Graphics/SVG/1.1/DTD/svg11.dtd">
<!-- Generated by graphviz version 9.0.0 (20230911.1827)
 -->
<!-- Title: Oscillator/OscillatorFactory.h Pages: 1 -->
<svg width="472pt" height="260pt"
 viewBox="0.00 0.00 472.38 259.50" xmlns="http://www.w3.org/2000/svg" xmlns:xlink="http://www.w3.org/1999/xlink">

<svg id="main" version="1.1" xmlns="http://www.w3.org/2000/svg" xmlns:xlink="http://www.w3.org/1999/xlink" xml:space="preserve" onload="init(evt)">
<style type="text/css"><![CDATA[
.node, .edge {opacity: 0.7;}
.node.selected, .edge.selected {opacity: 1;}
.edge:hover path { stroke: red; }
.edge:hover polygon { stroke: red; fill: red; }
]]></style>
<script type="application/ecmascript" xlink:href="svg.min.js"/>
<svg id="graph" class="graph">
<g id="graph0" class="graph" transform="scale(1 1) rotate(0) translate(4 255.5)">
<title>Oscillator/OscillatorFactory.h</title>
<!-- Node1 -->
<g id="Node000001" class="node">
<title>Node1</title>
<g id="a_Node000001"><a xlink:title=" ">
<polygon fill="#999999" stroke="#666666" points="451.12,-251.5 309.88,-251.5 309.88,-232.25 451.12,-232.25 451.12,-251.5"/>
<text text-anchor="middle" x="380.5" y="-238" font-family="Helvetica,sans-Serif" font-size="10.00">Oscillator/OscillatorFactory.h</text>
</a>
</g>
</g>
<!-- Node2 -->
<g id="Node000002" class="node">
<title>Node2</title>
<g id="a_Node000002"><a xlink:href="OscillatorBase_8h.html" target="_top" xlink:title=" ">
<polygon fill="white" stroke="#666666" points="388.12,-196.25 300.88,-196.25 300.88,-177 388.12,-177 388.12,-196.25"/>
<text text-anchor="middle" x="344.5" y="-182.75" font-family="Helvetica,sans-Serif" font-size="10.00">OscillatorBase.h</text>
</a>
</g>
</g>
<!-- Node1&#45;&gt;Node2 -->
<g id="edge1_Node000001_Node000002" class="edge">
<title>Node1&#45;&gt;Node2</title>
<g id="a_edge1_Node000001_Node000002"><a xlink:title=" ">
<path fill="none" stroke="#63b8ff" d="M374.56,-232.08C369.79,-225.03 362.94,-214.9 356.98,-206.08"/>
<polygon fill="#63b8ff" stroke="#63b8ff" points="359.92,-204.19 351.42,-197.86 354.12,-208.11 359.92,-204.19"/>
</a>
</g>
</g>
<!-- Node6 -->
<g id="Node000006" class="node">
<title>Node6</title>
<g id="a_Node000006"><a xlink:title=" ">
<polygon fill="#e0e0e0" stroke="#999999" points="464.38,-19.25 378.62,-19.25 378.62,0 464.38,0 464.38,-19.25"/>
<text text-anchor="middle" x="421.5" y="-5.75" font-family="Helvetica,sans-Serif" font-size="10.00">yaml&#45;cpp/yaml.h</text>
</a>
</g>
</g>
<!-- Node1&#45;&gt;Node6 -->
<g id="edge16_Node000001_Node000006" class="edge">
<title>Node1&#45;&gt;Node6</title>
<g id="a_edge16_Node000001_Node000006"><a xlink:title=" ">
<path fill="none" stroke="#63b8ff" d="M384.66,-231.85C388.58,-222.97 394.31,-208.95 397.5,-196.25 412.32,-137.29 418.3,-65.36 420.44,-30.91"/>
<polygon fill="#63b8ff" stroke="#63b8ff" points="423.92,-31.35 421,-21.16 416.93,-30.95 423.92,-31.35"/>
</a>
</g>
</g>
<!-- Node3 -->
<g id="Node000003" class="node">
<title>Node3</title>
<g id="a_Node000003"><a xlink:href="OscProbCalcerBase_8h.html" target="_top" xlink:title=" ">
<polygon fill="white" stroke="#666666" points="282,-141 131,-141 131,-110.5 282,-110.5 282,-141"/>
<text text-anchor="start" x="139" y="-127.5" font-family="Helvetica,sans-Serif" font-size="10.00">OscProbCalcer/OscProbCalcer</text>
<text text-anchor="middle" x="206.5" y="-116.25" font-family="Helvetica,sans-Serif" font-size="10.00">Base.h</text>
</a>
</g>
</g>
<!-- Node2&#45;&gt;Node3 -->
<g id="edge2_Node000002_Node000003" class="edge">
<title>Node2&#45;&gt;Node3</title>
<g id="a_edge2_Node000002_Node000003"><a xlink:title=" ">
<path fill="none" stroke="#63b8ff" d="M323.24,-176.55C304.14,-168.41 275.47,-156.17 251.32,-145.87"/>
<polygon fill="#63b8ff" stroke="#63b8ff" points="252.91,-142.74 242.34,-142.04 250.16,-149.18 252.91,-142.74"/>
</a>
</g>
</g>
<!-- Node4 -->
<g id="Node000004" class="node">
<title>Node4</title>
<g id="a_Node000004"><a xlink:href="OscillatorConstants_8h.html" target="_top" xlink:title=" ">
<polygon fill="white" stroke="#666666" points="284.62,-74.5 128.38,-74.5 128.38,-55.25 284.62,-55.25 284.62,-74.5"/>
<text text-anchor="middle" x="206.5" y="-61" font-family="Helvetica,sans-Serif" font-size="10.00">Constants/OscillatorConstants.h</text>
</a>
</g>
</g>
<!-- Node2&#45;&gt;Node4 -->
<g id="edge14_Node000002_Node000004" class="edge">
<title>Node2&#45;&gt;Node4</title>
<g id="a_edge14_Node000002_Node000004"><a xlink:title=" ">
<path fill="none" stroke="#63b8ff" d="M340.04,-176.73C332.07,-161.53 314.06,-130.28 291.5,-110.5 276.7,-97.52 257.46,-87.02 241.03,-79.47"/>
<polygon fill="#63b8ff" stroke="#63b8ff" points="242.66,-76.36 232.1,-75.55 239.85,-82.77 242.66,-76.36"/>
</a>
</g>
</g>
<!-- Node2&#45;&gt;Node6 -->
<g id="edge15_Node000002_Node000006" class="edge">
<title>Node2&#45;&gt;Node6</title>
<g id="a_edge15_Node000002_Node000006"><a xlink:title=" ">
<path fill="none" stroke="#63b8ff" d="M348.42,-176.71C360.37,-149.56 396.46,-67.53 413.03,-29.88"/>
<polygon fill="#63b8ff" stroke="#63b8ff" points="416.06,-31.68 416.88,-21.12 409.65,-28.86 416.06,-31.68"/>
</a>
</g>
</g>
<!-- Node3&#45;&gt;Node4 -->
<g id="edge3_Node000003_Node000004" class="edge">
<title>Node3&#45;&gt;Node4</title>
<g id="a_edge3_Node000003_Node000004"><a xlink:title=" ">
<path fill="none" stroke="#63b8ff" d="M206.5,-110.2C206.5,-102.96 206.5,-94.09 206.5,-86.19"/>
<polygon fill="#63b8ff" stroke="#63b8ff" points="210,-86.46 206.5,-76.46 203,-86.46 210,-86.46"/>
</a>
</g>
</g>
<!-- Node3&#45;&gt;Node6 -->
<g id="edge13_Node000003_Node000006" class="edge">
<title>Node3&#45;&gt;Node6</title>
<g id="a_edge13_Node000003_Node000006"><a xlink:title=" ">
<path fill="none" stroke="#63b8ff" d="M234.17,-110.06C275.6,-88.07 353.29,-46.83 394.4,-25.01"/>
<polygon fill="#63b8ff" stroke="#63b8ff" points="395.96,-28.15 403.15,-20.37 392.68,-21.96 395.96,-28.15"/>
</a>
</g>
</g>
<!-- Node9 -->
<g id="Node000009" class="node">
<title>Node9</title>
<g id="a_Node000009"><a xlink:title=" ">
<polygon fill="#e0e0e0" stroke="#999999" points="101.5,-19.25 61.5,-19.25 61.5,0 101.5,0 101.5,-19.25"/>
<text text-anchor="middle" x="81.5" y="-5.75" font-family="Helvetica,sans-Serif" font-size="10.00">string</text>
</a>
</g>
</g>
<!-- Node3&#45;&gt;Node9 -->
<g id="edge12_Node000003_Node000009" class="edge">
<title>Node3&#45;&gt;Node9</title>
<g id="a_edge12_Node000003_Node000009"><a xlink:title=" ">
<path fill="none" stroke="#63b8ff" d="M172.39,-110.15C155.11,-101.56 134.64,-89.45 119.5,-74.5 106.44,-61.61 96.17,-43.33 89.61,-29.63"/>
<polygon fill="#63b8ff" stroke="#63b8ff" points="92.93,-28.47 85.62,-20.79 86.55,-31.35 92.93,-28.47"/>
</a>
</g>
</g>
<!-- Node11 -->
<g id="Node000011" class="node">
<title>Node11</title>
<g id="a_Node000011"><a xlink:title=" ">
<polygon fill="#e0e0e0" stroke="#999999" points="43,-19.25 0,-19.25 0,0 43,0 43,-19.25"/>
<text text-anchor="middle" x="21.5" y="-5.75" font-family="Helvetica,sans-Serif" font-size="10.00">vector</text>
</a>
</g>
</g>
<!-- Node3&#45;&gt;Node11 -->
<g id="edge11_Node000003_Node000011" class="edge">
<title>Node3&#45;&gt;Node11</title>
<g id="a_edge11_Node000003_Node000011"><a xlink:title=" ">
<path fill="none" stroke="#63b8ff" d="M169.67,-110.13C148.47,-101.07 121.72,-88.51 99.5,-74.5 77.43,-60.58 54.62,-41.22 39.41,-27.47"/>
<polygon fill="#63b8ff" stroke="#63b8ff" points="41.84,-24.95 32.11,-20.75 37.1,-30.1 41.84,-24.95"/>
</a>
</g>
</g>
<!-- Node5 -->
<g id="Node000005" class="node">
<title>Node5</title>
<g id="a_Node000005"><a xlink:title=" ">
<polygon fill="#e0e0e0" stroke="#999999" points="360.12,-19.25 314.88,-19.25 314.88,0 360.12,0 360.12,-19.25"/>
<text text-anchor="middle" x="337.5" y="-5.75" font-family="Helvetica,sans-Serif" font-size="10.00">math.h</text>
</a>
</g>
</g>
<!-- Node4&#45;&gt;Node5 -->
<g id="edge4_Node000004_Node000005" class="edge">
<title>Node4&#45;&gt;Node5</title>
<g id="a_edge4_Node000004_Node000005"><a xlink:title=" ">
<path fill="none" stroke="#63b8ff" d="M228.72,-54.84C249.52,-46.39 280.85,-33.65 304.55,-24.02"/>
<polygon fill="#63b8ff" stroke="#63b8ff" points="305.82,-27.28 313.77,-20.27 303.18,-20.8 305.82,-27.28"/>
</a>
</g>
</g>
<!-- Node4&#45;&gt;Node6 -->
<g id="edge5_Node000004_Node000006" class="edge">
<title>Node4&#45;&gt;Node6</title>
<g id="a_edge5_Node000004_Node000006"><a xlink:title=" ">
<path fill="none" stroke="#63b8ff" d="M242.97,-54.84C279.03,-45.91 334.4,-32.2 373.9,-22.41"/>
<polygon fill="#63b8ff" stroke="#63b8ff" points="374.51,-25.87 383.38,-20.07 372.83,-19.07 374.51,-25.87"/>
</a>
</g>
</g>
<!-- Node7 -->
<g id="Node000007" class="node">
<title>Node7</title>
<g id="a_Node000007"><a xlink:title=" ">
<polygon fill="#e0e0e0" stroke="#999999" points="165.12,-19.25 119.88,-19.25 119.88,0 165.12,0 165.12,-19.25"/>
<text text-anchor="middle" x="142.5" y="-5.75" font-family="Helvetica,sans-Serif" font-size="10.00">TFile.h</text>
</a>
</g>
</g>
<!-- Node4&#45;&gt;Node7 -->
<g id="edge6_Node000004_Node000007" class="edge">
<title>Node4&#45;&gt;Node7</title>
<g id="a_edge6_Node000004_Node000007"><a xlink:title=" ">
<path fill="none" stroke="#63b8ff" d="M195.64,-54.84C186.39,-47.15 172.88,-35.9 161.79,-26.68"/>
<polygon fill="#63b8ff" stroke="#63b8ff" points="164.29,-24.2 154.36,-20.49 159.81,-29.58 164.29,-24.2"/>
</a>
</g>
</g>
<!-- Node8 -->
<g id="Node000008" class="node">
<title>Node8</title>
<g id="a_Node000008"><a xlink:title=" ">
<polygon fill="#e0e0e0" stroke="#999999" points="225.62,-19.25 183.38,-19.25 183.38,0 225.62,0 225.62,-19.25"/>
<text text-anchor="middle" x="204.5" y="-5.75" font-family="Helvetica,sans-Serif" font-size="10.00">TH1.h</text>
</a>
</g>
</g>
<!-- Node4&#45;&gt;Node8 -->
<g id="edge7_Node000004_Node000008" class="edge">
<title>Node4&#45;&gt;Node8</title>
<g id="a_edge7_Node000004_Node000008"><a xlink:title=" ">
<path fill="none" stroke="#63b8ff" d="M206.17,-55.08C205.92,-48.49 205.57,-39.21 205.26,-30.82"/>
<polygon fill="#63b8ff" stroke="#63b8ff" points="208.77,-30.98 204.89,-21.12 201.77,-31.25 208.77,-30.98"/>
</a>
</g>
</g>
<!-- Node4&#45;&gt;Node9 -->
<g id="edge8_Node000004_Node000009" class="edge">
<title>Node4&#45;&gt;Node9</title>
<g id="a_edge8_Node000004_Node000009"><a xlink:title=" ">
<path fill="none" stroke="#63b8ff" d="M185.3,-54.84C165.3,-46.32 135.1,-33.46 112.43,-23.8"/>
<polygon fill="#63b8ff" stroke="#63b8ff" points="113.94,-20.64 103.37,-19.94 111.2,-27.08 113.94,-20.64"/>
</a>
</g>
</g>
<!-- Node10 -->
<g id="Node000010" class="node">
<title>Node10</title>
<g id="a_Node000010"><a xlink:title=" ">
<polygon fill="#e0e0e0" stroke="#999999" points="297.25,-19.25 243.75,-19.25 243.75,0 297.25,0 297.25,-19.25"/>
<text text-anchor="middle" x="270.5" y="-5.75" font-family="Helvetica,sans-Serif" font-size="10.00">iostream</text>
</a>
</g>
</g>
<!-- Node4&#45;&gt;Node10 -->
<g id="edge9_Node000004_Node000010" class="edge">
<title>Node4&#45;&gt;Node10</title>
<g id="a_edge9_Node000004_Node000010"><a xlink:title=" ">
<path fill="none" stroke="#63b8ff" d="M217.36,-54.84C226.61,-47.15 240.12,-35.9 251.21,-26.68"/>
<polygon fill="#63b8ff" stroke="#63b8ff" points="253.19,-29.58 258.64,-20.49 248.71,-24.2 253.19,-29.58"/>
</a>
</g>
</g>
<!-- Node4&#45;&gt;Node11 -->
<g id="edge10_Node000004_Node000011" class="edge">
<title>Node4&#45;&gt;Node11</title>
<g id="a_edge10_Node000004_Node000011"><a xlink:title=" ">
<path fill="none" stroke="#63b8ff" d="M175.12,-54.84C141.5,-45.16 88.38,-29.88 54.24,-20.05"/>
<polygon fill="#63b8ff" stroke="#63b8ff" points="55.48,-16.76 44.9,-17.36 53.55,-23.49 55.48,-16.76"/>
</a>
</g>
</g>
</g>
</svg>
</svg>

<style type='text/css'>
<![CDATA[
[data-mouse-over-selected='false'] { opacity: 0.7; }
[data-mouse-over-selected='true']  { opacity: 1.0; }
]]>
</style>
<script type="application/ecmascript"><![CDATA[
document.addEventListener('DOMContentLoaded', (event) => {
  highlightEdges();
  highlightAdjacentNodes();
});
]]></script>
</svg>
