<?xml version="1.0" encoding="UTF-8" standalone="no"?>
<!DOCTYPE svg PUBLIC "-//W3C//DTD SVG 1.1//EN"
 "http://www.w3.org/Graphics/SVG/1.1/DTD/svg11.dtd">
<!-- Generated by graphviz version 9.0.0 (20230911.1827)
 -->
<!-- Title: Oscillator/OscillatorBase.h Pages: 1 -->
<!--zoomable 160 -->

<svg id="main" version="1.1" xmlns="http://www.w3.org/2000/svg" xmlns:xlink="http://www.w3.org/1999/xlink" xml:space="preserve" onload="init(evt)">
<style type="text/css"><![CDATA[
.node, .edge {opacity: 0.7;}
.node.selected, .edge.selected {opacity: 1;}
.edge:hover path { stroke: red; }
.edge:hover polygon { stroke: red; fill: red; }
]]></style>

<defs>
  <circle id="rim" cx="0" cy="0" r="7"/>
  <circle id="rim2" cx="0" cy="0" r="3.5"/>
  <g id="zoomPlus">
    <use xlink:href="#rim" fill="#404040"><set attributeName="fill" to="#808080" begin="zoomplus.mouseover" end="zoomplus.mouseout"/></use>
    <path d="M-4,0h8M0,-4v8" fill="none" stroke="white" stroke-width="1.5" pointer-events="none"/>
  </g>
  <g id="zoomMin">
    <use xlink:href="#rim" fill="#404040"><set attributeName="fill" to="#808080" begin="zoomminus.mouseover" end="zoomminus.mouseout"/></use>
    <path d="M-4,0h8" fill="none" stroke="white" stroke-width="1.5" pointer-events="none"/>
  </g>
  <g id="arrowUp" transform="translate(30 24)">
    <use xlink:href="#rim"/>
    <path pointer-events="none" fill="none" stroke="white" stroke-width="1.5" d="M0,-3.0v7 M-2.5,-0.5L0,-3.0L2.5,-0.5"/>
  </g>
  <g id="arrowRight" transform="rotate(90) translate(36 -43)">
    <use xlink:href="#rim"/>
    <path pointer-events="none" fill="none" stroke="white" stroke-width="1.5" d="M0,-3.0v7 M-2.5,-0.5L0,-3.0L2.5,-0.5"/>
  </g>
  <g id="arrowDown" transform="rotate(180) translate(-30 -48)">
    <use xlink:href="#rim"/>
    <path pointer-events="none" fill="none" stroke="white" stroke-width="1.5" d="M0,-3.0v7 M-2.5,-0.5L0,-3.0L2.5,-0.5"/>
  </g>
  <g id="arrowLeft" transform="rotate(270) translate(-36 17)">
    <use xlink:href="#rim"/>
    <path pointer-events="none" fill="none" stroke="white" stroke-width="1.5" d="M0,-3.0v7 M-2.5,-0.5L0,-3.0L2.5,-0.5"/>
  </g>
  <g id="resetDef">
    <use xlink:href="#rim2" fill="#404040"><set attributeName="fill" to="#808080" begin="reset.mouseover" end="reset.mouseout"/></use>
  </g>
</defs>
<script type="application/ecmascript">
var viewWidth = 1219;
var viewHeight = 160;
var sectionId = 'dynsection-1';
</script>
<script type="application/ecmascript" xlink:href="svg.min.js"/>
<svg id="graph" class="graph">
<g id="viewport">
<title>Oscillator/OscillatorBase.h</title>
<!-- Node1 -->
<g id="Node000001" class="node">
<title>Node1</title>
<g id="a_Node000001"><a xlink:title=" ">
<polygon fill="#999999" stroke="#666666" points="727.5,-152.25 596,-152.25 596,-133 727.5,-133 727.5,-152.25"/>
<text text-anchor="middle" x="661.75" y="-138.75" font-family="Helvetica,sans-Serif" font-size="10.00">Oscillator/OscillatorBase.h</text>
</a>
</g>
</g>
<!-- Node2 -->
<g id="Node000002" class="node">
<title>Node2</title>
<g id="a_Node000002"><a xlink:href="OscillatorBase_8cpp.html" target="_top" xlink:title=" ">
<polygon fill="white" stroke="#666666" points="415.75,-91.38 273.75,-91.38 273.75,-72.12 415.75,-72.12 415.75,-91.38"/>
<text text-anchor="middle" x="344.75" y="-77.88" font-family="Helvetica,sans-Serif" font-size="10.00">Oscillator/OscillatorBase.cpp</text>
</a>
</g>
</g>
<!-- Node1&#45;&gt;Node2 -->
<g id="edge1_Node000001_Node000002" class="edge">
<title>Node1&#45;&gt;Node2</title>
<g id="a_edge1_Node000001_Node000002"><a xlink:title=" ">
<path fill="none" stroke="#63b8ff" d="M601.67,-130.47C541.37,-119.27 449.63,-102.23 393.64,-91.83"/>
<polygon fill="#63b8ff" stroke="#63b8ff" points="600.95,-133.89 611.43,-132.28 602.23,-127.01 600.95,-133.89"/>
</a>
</g>
</g>
<!-- Node3 -->
<g id="Node000003" class="node">
<title>Node3</title>
<g id="a_Node000003"><a xlink:href="OscillatorBinned_8h.html" target="_top" xlink:title=" ">
<polygon fill="white" stroke="#666666" points="573.25,-91.38 434.25,-91.38 434.25,-72.12 573.25,-72.12 573.25,-91.38"/>
<text text-anchor="middle" x="503.75" y="-77.88" font-family="Helvetica,sans-Serif" font-size="10.00">Oscillator/OscillatorBinned.h</text>
</a>
</g>
</g>
<!-- Node1&#45;&gt;Node3 -->
<g id="edge2_Node000001_Node000003" class="edge">
<title>Node1&#45;&gt;Node3</title>
<g id="a_edge2_Node000001_Node000003"><a xlink:title=" ">
<path fill="none" stroke="#63b8ff" d="M626.99,-128.67C597.04,-117.51 554.57,-101.69 528.12,-91.83"/>
<polygon fill="#63b8ff" stroke="#63b8ff" points="625.4,-131.81 635.99,-132.03 627.84,-125.25 625.4,-131.81"/>
</a>
</g>
</g>
<!-- Node6 -->
<g id="Node000006" class="node">
<title>Node6</title>
<g id="a_Node000006"><a xlink:href="OscillatorFactory_8h.html" target="_top" xlink:title=" ">
<polygon fill="white" stroke="#666666" points="732.38,-91.38 591.12,-91.38 591.12,-72.12 732.38,-72.12 732.38,-91.38"/>
<text text-anchor="middle" x="661.75" y="-77.88" font-family="Helvetica,sans-Serif" font-size="10.00">Oscillator/OscillatorFactory.h</text>
</a>
</g>
</g>
<!-- Node1&#45;&gt;Node6 -->
<g id="edge5_Node000001_Node000006" class="edge">
<title>Node1&#45;&gt;Node6</title>
<g id="a_edge5_Node000001_Node000006"><a xlink:title=" ">
<path fill="none" stroke="#63b8ff" d="M661.75,-121.2C661.75,-111.17 661.75,-99.58 661.75,-91.78"/>
<polygon fill="#63b8ff" stroke="#63b8ff" points="658.25,-121.17 661.75,-131.17 665.25,-121.17 658.25,-121.17"/>
</a>
</g>
</g>
<!-- Node11 -->
<g id="Node000011" class="node">
<title>Node11</title>
<g id="a_Node000011"><a xlink:href="OscillatorSubSampling_8h.html" target="_top" xlink:title=" ">
<polygon fill="white" stroke="#666666" points="874.12,-97 755.38,-97 755.38,-66.5 874.12,-66.5 874.12,-97"/>
<text text-anchor="start" x="763.38" y="-83.5" font-family="Helvetica,sans-Serif" font-size="10.00">Oscillator/OscillatorSub</text>
<text text-anchor="middle" x="814.75" y="-72.25" font-family="Helvetica,sans-Serif" font-size="10.00">Sampling.h</text>
</a>
</g>
</g>
<!-- Node1&#45;&gt;Node11 -->
<g id="edge11_Node000001_Node000011" class="edge">
<title>Node1&#45;&gt;Node11</title>
<g id="a_edge11_Node000001_Node000011"><a xlink:title=" ">
<path fill="none" stroke="#63b8ff" d="M696.02,-128.44C719.92,-119.24 751.84,-106.96 776.56,-97.44"/>
<polygon fill="#63b8ff" stroke="#63b8ff" points="694.81,-125.15 686.73,-132.01 697.32,-131.69 694.81,-125.15"/>
</a>
</g>
</g>
<!-- Node13 -->
<g id="Node000013" class="node">
<title>Node13</title>
<g id="a_Node000013"><a xlink:href="OscillatorUnbinned_8h.html" target="_top" xlink:title=" ">
<polygon fill="white" stroke="#666666" points="1042.88,-91.38 892.62,-91.38 892.62,-72.12 1042.88,-72.12 1042.88,-91.38"/>
<text text-anchor="middle" x="967.75" y="-77.88" font-family="Helvetica,sans-Serif" font-size="10.00">Oscillator/OscillatorUnbinned.h</text>
</a>
</g>
</g>
<!-- Node1&#45;&gt;Node13 -->
<g id="edge14_Node000001_Node000013" class="edge">
<title>Node1&#45;&gt;Node13</title>
<g id="a_edge14_Node000001_Node000013"><a xlink:title=" ">
<path fill="none" stroke="#63b8ff" d="M720.11,-130.4C778.32,-119.2 866.62,-102.21 920.55,-91.83"/>
<polygon fill="#63b8ff" stroke="#63b8ff" points="719.54,-126.94 710.38,-132.27 720.86,-133.82 719.54,-126.94"/>
</a>
</g>
</g>
<!-- Node4 -->
<g id="Node000004" class="node">
<title>Node4</title>
<g id="a_Node000004"><a xlink:href="OscillatorBinned_8cpp.html" target="_top" xlink:title=" ">
<polygon fill="white" stroke="#666666" points="149.5,-24.88 0,-24.88 0,-5.63 149.5,-5.63 149.5,-24.88"/>
<text text-anchor="middle" x="74.75" y="-11.38" font-family="Helvetica,sans-Serif" font-size="10.00">Oscillator/OscillatorBinned.cpp</text>
</a>
</g>
</g>
<!-- Node3&#45;&gt;Node4 -->
<g id="edge3_Node000003_Node000004" class="edge">
<title>Node3&#45;&gt;Node4</title>
<g id="a_edge3_Node000003_Node000004"><a xlink:title=" ">
<path fill="none" stroke="#63b8ff" d="M444.32,-69.74C437.73,-68.61 431.1,-67.5 424.75,-66.5 306.91,-47.91 276.69,-48.48 158.75,-30.5 148.37,-28.92 137.28,-27.12 126.68,-25.34"/>
<polygon fill="#63b8ff" stroke="#63b8ff" points="443.4,-73.13 453.85,-71.41 444.61,-66.24 443.4,-73.13"/>
</a>
</g>
</g>
<!-- Node5 -->
<g id="Node000005" class="node">
<title>Node5</title>
<g id="a_Node000005"><a xlink:href="OscillatorFactory_8cpp.html" target="_top" xlink:title=" ">
<polygon fill="white" stroke="#666666" points="895.62,-24.88 743.88,-24.88 743.88,-5.63 895.62,-5.63 895.62,-24.88"/>
<text text-anchor="middle" x="819.75" y="-11.38" font-family="Helvetica,sans-Serif" font-size="10.00">Oscillator/OscillatorFactory.cpp</text>
</a>
</g>
</g>
<!-- Node3&#45;&gt;Node5 -->
<g id="edge4_Node000003_Node000005" class="edge">
<title>Node3&#45;&gt;Node5</title>
<g id="a_edge4_Node000003_Node000005"><a xlink:title=" ">
<path fill="none" stroke="#63b8ff" d="M559.38,-69.39C620.81,-56.86 718.49,-36.92 775.12,-25.36"/>
<polygon fill="#63b8ff" stroke="#63b8ff" points="558.94,-65.91 549.84,-71.34 560.34,-72.77 558.94,-65.91"/>
</a>
</g>
</g>
<!-- Node6&#45;&gt;Node5 -->
<g id="edge10_Node000006_Node000005" class="edge">
<title>Node6&#45;&gt;Node5</title>
<g id="a_edge10_Node000006_Node000005"><a xlink:title=" ">
<path fill="none" stroke="#63b8ff" d="M694.71,-67.3C725.56,-54.7 770.79,-36.24 797.56,-25.31"/>
<polygon fill="#63b8ff" stroke="#63b8ff" points="693.39,-64.05 685.45,-71.07 696.03,-70.53 693.39,-64.05"/>
</a>
</g>
</g>
<!-- Node7 -->
<g id="Node000007" class="node">
<title>Node7</title>
<g id="a_Node000007"><a xlink:href="Analysis_8cpp.html" target="_top" xlink:title=" ">
<polygon fill="white" stroke="#666666" points="263.88,-24.88 167.62,-24.88 167.62,-5.63 263.88,-5.63 263.88,-24.88"/>
<text text-anchor="middle" x="215.75" y="-11.38" font-family="Helvetica,sans-Serif" font-size="10.00">Apps/Analysis.cpp</text>
</a>
</g>
</g>
<!-- Node6&#45;&gt;Node7 -->
<g id="edge6_Node000006_Node000007" class="edge">
<title>Node6&#45;&gt;Node7</title>
<g id="a_edge6_Node000006_Node000007"><a xlink:title=" ">
<path fill="none" stroke="#63b8ff" d="M602.39,-69.77C595.44,-68.6 588.45,-67.49 581.75,-66.5 444.96,-46.37 408.77,-55.32 272.75,-30.5 265.02,-29.09 256.79,-27.24 249.05,-25.34"/>
<polygon fill="#63b8ff" stroke="#63b8ff" points="601.66,-73.19 612.11,-71.43 602.84,-66.29 601.66,-73.19"/>
</a>
</g>
</g>
<!-- Node8 -->
<g id="Node000008" class="node">
<title>Node8</title>
<g id="a_Node000008"><a xlink:href="DragRace_8cpp.html" target="_top" xlink:title=" ">
<polygon fill="white" stroke="#666666" points="383.88,-24.88 281.62,-24.88 281.62,-5.63 383.88,-5.63 383.88,-24.88"/>
<text text-anchor="middle" x="332.75" y="-11.38" font-family="Helvetica,sans-Serif" font-size="10.00">Apps/DragRace.cpp</text>
</a>
</g>
</g>
<!-- Node6&#45;&gt;Node8 -->
<g id="edge7_Node000006_Node000008" class="edge">
<title>Node6&#45;&gt;Node8</title>
<g id="a_edge7_Node000006_Node000008"><a xlink:title=" ">
<path fill="none" stroke="#63b8ff" d="M600.14,-69.6C533.44,-57.46 431.41,-38.7 392.75,-30.5 385.31,-28.92 377.39,-27.13 369.81,-25.35"/>
<polygon fill="#63b8ff" stroke="#63b8ff" points="599.39,-73.02 609.85,-71.37 600.64,-66.13 599.39,-73.02"/>
</a>
</g>
</g>
<!-- Node9 -->
<g id="Node000009" class="node">
<title>Node9</title>
<g id="a_Node000009"><a xlink:href="OscProbCalcerComparison_8cpp.html" target="_top" xlink:title=" ">
<polygon fill="white" stroke="#666666" points="579.38,-24.88 402.12,-24.88 402.12,-5.63 579.38,-5.63 579.38,-24.88"/>
<text text-anchor="middle" x="490.75" y="-11.38" font-family="Helvetica,sans-Serif" font-size="10.00">Apps/OscProbCalcerComparison.cpp</text>
</a>
</g>
</g>
<!-- Node6&#45;&gt;Node9 -->
<g id="edge8_Node000006_Node000009" class="edge">
<title>Node6&#45;&gt;Node9</title>
<g id="a_edge8_Node000006_Node000009"><a xlink:title=" ">
<path fill="none" stroke="#63b8ff" d="M626.96,-67.63C593.56,-55.03 543.99,-36.33 514.76,-25.31"/>
<polygon fill="#63b8ff" stroke="#63b8ff" points="625.6,-70.86 636.2,-71.11 628.08,-64.31 625.6,-70.86"/>
</a>
</g>
</g>
<!-- Node10 -->
<g id="Node000010" class="node">
<title>Node10</title>
<g id="a_Node000010"><a xlink:href="SingleOscillator_8cpp.html" target="_top" xlink:title=" ">
<polygon fill="white" stroke="#666666" points="725.62,-24.88 597.88,-24.88 597.88,-5.63 725.62,-5.63 725.62,-24.88"/>
<text text-anchor="middle" x="661.75" y="-11.38" font-family="Helvetica,sans-Serif" font-size="10.00">Apps/SingleOscillator.cpp</text>
</a>
</g>
</g>
<!-- Node6&#45;&gt;Node10 -->
<g id="edge9_Node000006_Node000010" class="edge">
<title>Node6&#45;&gt;Node10</title>
<g id="a_edge9_Node000006_Node000010"><a xlink:title=" ">
<path fill="none" stroke="#63b8ff" d="M661.75,-60.27C661.75,-48.44 661.75,-34.16 661.75,-25.14"/>
<polygon fill="#63b8ff" stroke="#63b8ff" points="658.25,-60.27 661.75,-70.27 665.25,-60.27 658.25,-60.27"/>
</a>
</g>
</g>
<!-- Node11&#45;&gt;Node5 -->
<g id="edge12_Node000011_Node000005" class="edge">
<title>Node11&#45;&gt;Node5</title>
<g id="a_edge12_Node000011_Node000005"><a xlink:title=" ">
<path fill="none" stroke="#63b8ff" d="M816.76,-54.84C817.58,-44.26 818.47,-32.75 819.07,-25.07"/>
<polygon fill="#63b8ff" stroke="#63b8ff" points="813.28,-54.36 816,-64.6 820.26,-54.91 813.28,-54.36"/>
</a>
</g>
</g>
<!-- Node12 -->
<g id="Node000012" class="node">
<title>Node12</title>
<g id="a_Node000012"><a xlink:href="OscillatorSubSampling_8cpp.html" target="_top" xlink:title=" ">
<polygon fill="white" stroke="#666666" points="1032.12,-30.5 913.38,-30.5 913.38,0 1032.12,0 1032.12,-30.5"/>
<text text-anchor="start" x="921.38" y="-17" font-family="Helvetica,sans-Serif" font-size="10.00">Oscillator/OscillatorSub</text>
<text text-anchor="middle" x="972.75" y="-5.75" font-family="Helvetica,sans-Serif" font-size="10.00">Sampling.cpp</text>
</a>
</g>
</g>
<!-- Node11&#45;&gt;Node12 -->
<g id="edge13_Node000011_Node000012" class="edge">
<title>Node11&#45;&gt;Node12</title>
<g id="a_edge13_Node000011_Node000012"><a xlink:title=" ">
<path fill="none" stroke="#63b8ff" d="M860.97,-61.88C885.14,-52.01 914.29,-40.11 936.77,-30.94"/>
<polygon fill="#63b8ff" stroke="#63b8ff" points="859.94,-58.52 852,-65.54 862.59,-65 859.94,-58.52"/>
</a>
</g>
</g>
<!-- Node13&#45;&gt;Node5 -->
<g id="edge15_Node000013_Node000005" class="edge">
<title>Node13&#45;&gt;Node5</title>
<g id="a_edge15_Node000013_Node000005"><a xlink:title=" ">
<path fill="none" stroke="#63b8ff" d="M936.5,-67.13C907.61,-54.54 865.5,-36.19 840.53,-25.31"/>
<polygon fill="#63b8ff" stroke="#63b8ff" points="934.91,-70.25 945.47,-71.04 937.7,-63.84 934.91,-70.25"/>
</a>
</g>
</g>
<!-- Node14 -->
<g id="Node000014" class="node">
<title>Node14</title>
<g id="a_Node000014"><a xlink:href="OscillatorUnbinned_8cpp.html" target="_top" xlink:title=" ">
<polygon fill="white" stroke="#666666" points="1211.12,-24.88 1050.38,-24.88 1050.38,-5.63 1211.12,-5.63 1211.12,-24.88"/>
<text text-anchor="middle" x="1130.75" y="-11.38" font-family="Helvetica,sans-Serif" font-size="10.00">Oscillator/OscillatorUnbinned.cpp</text>
</a>
</g>
</g>
<!-- Node13&#45;&gt;Node14 -->
<g id="edge16_Node000013_Node000014" class="edge">
<title>Node13&#45;&gt;Node14</title>
<g id="a_edge16_Node000013_Node000014"><a xlink:title=" ">
<path fill="none" stroke="#63b8ff" d="M1001.33,-67.46C1033.16,-54.87 1080.12,-36.28 1107.86,-25.31"/>
<polygon fill="#63b8ff" stroke="#63b8ff" points="1000.18,-64.15 992.17,-71.09 1002.75,-70.66 1000.18,-64.15"/>
</a>
</g>
</g>
</g>
</svg>

<g id="navigator" transform="translate(0 0)" fill="#404254">
  <rect fill="#f2f5e9" fill-opacity="0.5" stroke="#606060" stroke-width=".5" x="0" y="0" width="60" height="60"/>
  <use id="zoomplus" xlink:href="#zoomPlus" x="17" y="9" onmousedown="handleZoom(evt,'in')"/>
  <use id="zoomminus" xlink:href="#zoomMin" x="42" y="9" onmousedown="handleZoom(evt,'out')"/>
  <use id="reset" xlink:href="#resetDef" x="30" y="36" onmousedown="handleReset()"/>
   <use id="arrowup" xlink:href="#arrowUp" x="0" y="0" onmousedown="handlePan(0,-1)"/>
  <use id="arrowright" xlink:href="#arrowRight" x="0" y="0" onmousedown="handlePan(1,0)"/>
  <use id="arrowdown" xlink:href="#arrowDown" x="0" y="0" onmousedown="handlePan(0,1)"/>
  <use id="arrowleft" xlink:href="#arrowLeft" x="0" y="0" onmousedown="handlePan(-1,0)"/>
</g>
<svg viewBox="0 0 15 15" width="100%" height="30px" preserveAspectRatio="xMaxYMin meet">
 <g id="arrow_out" transform="scale(0.3 0.3)">
  <a xlink:href="OscillatorBase_8h__dep__incl_org.svg" target="_base">
   <rect id="button" ry="5" rx="5" y="6" x="6" height="38" width="38"
        fill="#f2f5e9" fill-opacity="0.5" stroke="#606060" stroke-width="1.0"/>
   <path id="arrow"
     d="M 11.500037,31.436501 C 11.940474,20.09759 22.043105,11.32322 32.158766,21.979434 L 37.068811,17.246167 C 37.068811,17.246167 37.088388,32 37.088388,32 L 22.160133,31.978069 C 22.160133,31.978069 26.997745,27.140456 26.997745,27.140456 C 18.528582,18.264221 13.291696,25.230495 11.500037,31.436501 z"
     style="fill:#404040;"/>
  </a>
 </g>
</svg>

<style type='text/css'>
<![CDATA[
[data-mouse-over-selected='false'] { opacity: 0.7; }
[data-mouse-over-selected='true']  { opacity: 1.0; }
]]>
</style>
<script type="application/ecmascript"><![CDATA[
document.addEventListener('DOMContentLoaded', (event) => {
  highlightEdges();
  highlightAdjacentNodes();
});
]]></script>
</svg>
