<?xml version="1.0" encoding="UTF-8" standalone="no"?>
<!DOCTYPE svg PUBLIC "-//W3C//DTD SVG 1.1//EN"
 "http://www.w3.org/Graphics/SVG/1.1/DTD/svg11.dtd">
<!-- Generated by graphviz version 9.0.0 (20230911.1827)
 -->
<!-- Title: Oscillator/OscillatorBinned.cpp Pages: 1 -->
<svg width="472pt" height="315pt"
 viewBox="0.00 0.00 471.62 314.75" xmlns="http://www.w3.org/2000/svg" xmlns:xlink="http://www.w3.org/1999/xlink">
<g id="graph0" class="graph" transform="scale(1 1) rotate(0) translate(4 310.75)">
<title>Oscillator/OscillatorBinned.cpp</title>
<!-- Node1 -->
<g id="Node000001" class="node">
<title>Node1</title>
<g id="a_Node000001"><a xlink:title=" ">
<polygon fill="#999999" stroke="#666666" points="448.62,-306.75 299.12,-306.75 299.12,-287.5 448.62,-287.5 448.62,-306.75"/>
<text text-anchor="middle" x="373.88" y="-293.25" font-family="Helvetica,sans-Serif" font-size="10.00">Oscillator/OscillatorBinned.cpp</text>
</a>
</g>
</g>
<!-- Node2 -->
<g id="Node000002" class="node">
<title>Node2</title>
<g id="a_Node000002"><a xlink:href="OscillatorBinned_8h.html" target="_top" xlink:title=" ">
<polygon fill="white" stroke="#666666" points="269.38,-251.5 130.38,-251.5 130.38,-232.25 269.38,-232.25 269.38,-251.5"/>
<text text-anchor="middle" x="199.88" y="-238" font-family="Helvetica,sans-Serif" font-size="10.00">Oscillator/OscillatorBinned.h</text>
</a>
</g>
</g>
<!-- Node1&#45;&gt;Node2 -->
<g id="edge1_Node000001_Node000002" class="edge">
<title>Node1&#45;&gt;Node2</title>
<g id="a_edge1_Node000001_Node000002"><a xlink:title=" ">
<path fill="none" stroke="#63b8ff" d="M344.36,-287.09C315.74,-278.33 272.09,-264.98 240.26,-255.23"/>
<polygon fill="#63b8ff" stroke="#63b8ff" points="241.57,-251.98 230.98,-252.4 239.52,-258.67 241.57,-251.98"/>
</a>
</g>
</g>
<!-- Node8 -->
<g id="Node000008" class="node">
<title>Node8</title>
<g id="a_Node000008"><a xlink:title=" ">
<polygon fill="#e0e0e0" stroke="#999999" points="331.5,-19.25 286.25,-19.25 286.25,0 331.5,0 331.5,-19.25"/>
<text text-anchor="middle" x="308.88" y="-5.75" font-family="Helvetica,sans-Serif" font-size="10.00">TFile.h</text>
</a>
</g>
</g>
<!-- Node1&#45;&gt;Node8 -->
<g id="edge18_Node000001_Node000008" class="edge">
<title>Node1&#45;&gt;Node8</title>
<g id="a_edge18_Node000001_Node000008"><a xlink:title=" ">
<path fill="none" stroke="#63b8ff" d="M371.23,-287.22C366.01,-268.8 354.88,-225.11 354.88,-187.62 354.88,-187.62 354.88,-187.62 354.88,-124.75 354.88,-88.93 335.14,-51.08 321.52,-29.22"/>
<polygon fill="#63b8ff" stroke="#63b8ff" points="324.48,-27.34 316.1,-20.86 318.61,-31.15 324.48,-27.34"/>
</a>
</g>
</g>
<!-- Node9 -->
<g id="Node000009" class="node">
<title>Node9</title>
<g id="a_Node000009"><a xlink:title=" ">
<polygon fill="#e0e0e0" stroke="#999999" points="392,-19.25 349.75,-19.25 349.75,0 392,0 392,-19.25"/>
<text text-anchor="middle" x="370.88" y="-5.75" font-family="Helvetica,sans-Serif" font-size="10.00">TH1.h</text>
</a>
</g>
</g>
<!-- Node1&#45;&gt;Node9 -->
<g id="edge19_Node000001_Node000009" class="edge">
<title>Node1&#45;&gt;Node9</title>
<g id="a_edge19_Node000001_Node000009"><a xlink:title=" ">
<path fill="none" stroke="#63b8ff" d="M376.52,-287.22C381.74,-268.8 392.88,-225.11 392.88,-187.62 392.88,-187.62 392.88,-187.62 392.88,-124.75 392.88,-91.21 383.6,-53.11 377.09,-30.51"/>
<polygon fill="#63b8ff" stroke="#63b8ff" points="380.51,-29.7 374.28,-21.13 373.8,-31.72 380.51,-29.7"/>
</a>
</g>
</g>
<!-- Node11 -->
<g id="Node000011" class="node">
<title>Node11</title>
<g id="a_Node000011"><a xlink:title=" ">
<polygon fill="#e0e0e0" stroke="#999999" points="463.62,-19.25 410.12,-19.25 410.12,0 463.62,0 463.62,-19.25"/>
<text text-anchor="middle" x="436.88" y="-5.75" font-family="Helvetica,sans-Serif" font-size="10.00">iostream</text>
</a>
</g>
</g>
<!-- Node1&#45;&gt;Node11 -->
<g id="edge17_Node000001_Node000011" class="edge">
<title>Node1&#45;&gt;Node11</title>
<g id="a_edge17_Node000001_Node000011"><a xlink:title=" ">
<path fill="none" stroke="#63b8ff" d="M383.14,-287.22C400.2,-269.82 434.88,-229.33 434.88,-187.62 434.88,-187.62 434.88,-187.62 434.88,-124.75 434.88,-91.8 435.72,-53.5 436.31,-30.71"/>
<polygon fill="#63b8ff" stroke="#63b8ff" points="439.8,-31.11 436.57,-21.02 432.8,-30.92 439.8,-31.11"/>
</a>
</g>
</g>
<!-- Node3 -->
<g id="Node000003" class="node">
<title>Node3</title>
<g id="a_Node000003"><a xlink:href="OscillatorBase_8h.html" target="_top" xlink:title=" ">
<polygon fill="white" stroke="#666666" points="214.5,-196.25 127.25,-196.25 127.25,-177 214.5,-177 214.5,-196.25"/>
<text text-anchor="middle" x="170.88" y="-182.75" font-family="Helvetica,sans-Serif" font-size="10.00">OscillatorBase.h</text>
</a>
</g>
</g>
<!-- Node2&#45;&gt;Node3 -->
<g id="edge2_Node000002_Node000003" class="edge">
<title>Node2&#45;&gt;Node3</title>
<g id="a_edge2_Node000002_Node000003"><a xlink:title=" ">
<path fill="none" stroke="#63b8ff" d="M195.09,-232.08C191.33,-225.19 185.97,-215.34 181.24,-206.66"/>
<polygon fill="#63b8ff" stroke="#63b8ff" points="184.35,-205.05 176.49,-197.94 178.2,-208.39 184.35,-205.05"/>
</a>
</g>
</g>
<!-- Node4 -->
<g id="Node000004" class="node">
<title>Node4</title>
<g id="a_Node000004"><a xlink:href="OscProbCalcerBase_8h.html" target="_top" xlink:title=" ">
<polygon fill="white" stroke="#666666" points="218.38,-141 67.38,-141 67.38,-110.5 218.38,-110.5 218.38,-141"/>
<text text-anchor="start" x="75.38" y="-127.5" font-family="Helvetica,sans-Serif" font-size="10.00">OscProbCalcer/OscProbCalcer</text>
<text text-anchor="middle" x="142.88" y="-116.25" font-family="Helvetica,sans-Serif" font-size="10.00">Base.h</text>
</a>
</g>
</g>
<!-- Node3&#45;&gt;Node4 -->
<g id="edge3_Node000003_Node000004" class="edge">
<title>Node3&#45;&gt;Node4</title>
<g id="a_edge3_Node000003_Node000004"><a xlink:title=" ">
<path fill="none" stroke="#63b8ff" d="M166.62,-176.68C163.45,-170.01 158.94,-160.53 154.71,-151.63"/>
<polygon fill="#63b8ff" stroke="#63b8ff" points="157.89,-150.18 150.44,-142.65 151.57,-153.18 157.89,-150.18"/>
</a>
</g>
</g>
<!-- Node5 -->
<g id="Node000005" class="node">
<title>Node5</title>
<g id="a_Node000005"><a xlink:href="OscillatorConstants_8h.html" target="_top" xlink:title=" ">
<polygon fill="white" stroke="#666666" points="327,-74.5 170.75,-74.5 170.75,-55.25 327,-55.25 327,-74.5"/>
<text text-anchor="middle" x="248.88" y="-61" font-family="Helvetica,sans-Serif" font-size="10.00">Constants/OscillatorConstants.h</text>
</a>
</g>
</g>
<!-- Node3&#45;&gt;Node5 -->
<g id="edge15_Node000003_Node000005" class="edge">
<title>Node3&#45;&gt;Node5</title>
<g id="a_edge15_Node000003_Node000005"><a xlink:title=" ">
<path fill="none" stroke="#63b8ff" d="M187.49,-176.6C200.33,-168.79 217.6,-156.36 227.88,-141 238.93,-124.48 244.21,-102.21 246.7,-86.21"/>
<polygon fill="#63b8ff" stroke="#63b8ff" points="250.15,-86.83 247.97,-76.46 243.21,-85.93 250.15,-86.83"/>
</a>
</g>
</g>
<!-- Node7 -->
<g id="Node000007" class="node">
<title>Node7</title>
<g id="a_Node000007"><a xlink:title=" ">
<polygon fill="#e0e0e0" stroke="#999999" points="85.75,-19.25 0,-19.25 0,0 85.75,0 85.75,-19.25"/>
<text text-anchor="middle" x="42.88" y="-5.75" font-family="Helvetica,sans-Serif" font-size="10.00">yaml&#45;cpp/yaml.h</text>
</a>
</g>
</g>
<!-- Node3&#45;&gt;Node7 -->
<g id="edge16_Node000003_Node000007" class="edge">
<title>Node3&#45;&gt;Node7</title>
<g id="a_edge16_Node000003_Node000007"><a xlink:title=" ">
<path fill="none" stroke="#63b8ff" d="M126.99,-179.44C102.78,-173.66 74.38,-162.5 57.88,-141 33.21,-108.87 35.57,-58.49 39.31,-30.71"/>
<polygon fill="#63b8ff" stroke="#63b8ff" points="42.72,-31.59 40.8,-21.17 35.8,-30.51 42.72,-31.59"/>
</a>
</g>
</g>
<!-- Node4&#45;&gt;Node5 -->
<g id="edge4_Node000004_Node000005" class="edge">
<title>Node4&#45;&gt;Node5</title>
<g id="a_edge4_Node000004_Node000005"><a xlink:title=" ">
<path fill="none" stroke="#63b8ff" d="M169.35,-110.05C185.65,-100.99 206.45,-89.44 222.7,-80.41"/>
<polygon fill="#63b8ff" stroke="#63b8ff" points="224.25,-83.55 231.3,-75.64 220.85,-77.43 224.25,-83.55"/>
</a>
</g>
</g>
<!-- Node4&#45;&gt;Node7 -->
<g id="edge14_Node000004_Node000007" class="edge">
<title>Node4&#45;&gt;Node7</title>
<g id="a_edge14_Node000004_Node000007"><a xlink:title=" ">
<path fill="none" stroke="#63b8ff" d="M130.21,-110.3C111.91,-89.41 78.1,-50.82 58.34,-28.28"/>
<polygon fill="#63b8ff" stroke="#63b8ff" points="61.05,-26.05 51.82,-20.84 55.78,-30.66 61.05,-26.05"/>
</a>
</g>
</g>
<!-- Node10 -->
<g id="Node000010" class="node">
<title>Node10</title>
<g id="a_Node000010"><a xlink:title=" ">
<polygon fill="#e0e0e0" stroke="#999999" points="204.88,-19.25 164.88,-19.25 164.88,0 204.88,0 204.88,-19.25"/>
<text text-anchor="middle" x="184.88" y="-5.75" font-family="Helvetica,sans-Serif" font-size="10.00">string</text>
</a>
</g>
</g>
<!-- Node4&#45;&gt;Node10 -->
<g id="edge13_Node000004_Node000010" class="edge">
<title>Node4&#45;&gt;Node10</title>
<g id="a_edge13_Node000004_Node000010"><a xlink:title=" ">
<path fill="none" stroke="#63b8ff" d="M145.94,-110.09C149.15,-95.82 154.7,-73.67 161.88,-55.25 165.27,-46.53 169.87,-37.27 174.06,-29.46"/>
<polygon fill="#63b8ff" stroke="#63b8ff" points="177.01,-31.36 178.81,-20.92 170.89,-27.96 177.01,-31.36"/>
</a>
</g>
</g>
<!-- Node12 -->
<g id="Node000012" class="node">
<title>Node12</title>
<g id="a_Node000012"><a xlink:title=" ">
<polygon fill="#e0e0e0" stroke="#999999" points="146.38,-19.25 103.38,-19.25 103.38,0 146.38,0 146.38,-19.25"/>
<text text-anchor="middle" x="124.88" y="-5.75" font-family="Helvetica,sans-Serif" font-size="10.00">vector</text>
</a>
</g>
</g>
<!-- Node4&#45;&gt;Node12 -->
<g id="edge12_Node000004_Node000012" class="edge">
<title>Node4&#45;&gt;Node12</title>
<g id="a_edge12_Node000004_Node000012"><a xlink:title=" ">
<path fill="none" stroke="#63b8ff" d="M138.02,-110.42C134.86,-100.46 130.95,-86.82 128.88,-74.5 126.43,-60.03 125.45,-43.48 125.06,-30.86"/>
<polygon fill="#63b8ff" stroke="#63b8ff" points="128.56,-30.81 124.87,-20.88 121.56,-30.95 128.56,-30.81"/>
</a>
</g>
</g>
<!-- Node6 -->
<g id="Node000006" class="node">
<title>Node6</title>
<g id="a_Node000006"><a xlink:title=" ">
<polygon fill="#e0e0e0" stroke="#999999" points="268.5,-19.25 223.25,-19.25 223.25,0 268.5,0 268.5,-19.25"/>
<text text-anchor="middle" x="245.88" y="-5.75" font-family="Helvetica,sans-Serif" font-size="10.00">math.h</text>
</a>
</g>
</g>
<!-- Node5&#45;&gt;Node6 -->
<g id="edge5_Node000005_Node000006" class="edge">
<title>Node5&#45;&gt;Node6</title>
<g id="a_edge5_Node000005_Node000006"><a xlink:title=" ">
<path fill="none" stroke="#63b8ff" d="M248.38,-55.08C248.01,-48.49 247.49,-39.21 247.01,-30.82"/>
<polygon fill="#63b8ff" stroke="#63b8ff" points="250.52,-30.91 246.47,-21.12 243.53,-31.3 250.52,-30.91"/>
</a>
</g>
</g>
<!-- Node5&#45;&gt;Node7 -->
<g id="edge6_Node000005_Node000007" class="edge">
<title>Node5&#45;&gt;Node7</title>
<g id="a_edge6_Node000005_Node000007"><a xlink:title=" ">
<path fill="none" stroke="#63b8ff" d="M213.93,-54.84C179.45,-45.93 126.56,-32.26 88.72,-22.48"/>
<polygon fill="#63b8ff" stroke="#63b8ff" points="90.01,-19.2 79.46,-20.08 88.26,-25.97 90.01,-19.2"/>
</a>
</g>
</g>
<!-- Node5&#45;&gt;Node8 -->
<g id="edge7_Node000005_Node000008" class="edge">
<title>Node5&#45;&gt;Node8</title>
<g id="a_edge7_Node000005_Node000008"><a xlink:title=" ">
<path fill="none" stroke="#63b8ff" d="M259.05,-54.84C267.64,-47.22 280.14,-36.12 290.48,-26.95"/>
<polygon fill="#63b8ff" stroke="#63b8ff" points="292.56,-29.79 297.72,-20.53 287.91,-24.55 292.56,-29.79"/>
</a>
</g>
</g>
<!-- Node5&#45;&gt;Node9 -->
<g id="edge8_Node000005_Node000009" class="edge">
<title>Node5&#45;&gt;Node9</title>
<g id="a_edge8_Node000005_Node000009"><a xlink:title=" ">
<path fill="none" stroke="#63b8ff" d="M269.57,-54.84C288.76,-46.47 317.59,-33.88 339.59,-24.28"/>
<polygon fill="#63b8ff" stroke="#63b8ff" points="340.93,-27.52 348.69,-20.31 338.13,-21.1 340.93,-27.52"/>
</a>
</g>
</g>
<!-- Node5&#45;&gt;Node10 -->
<g id="edge9_Node000005_Node000010" class="edge">
<title>Node5&#45;&gt;Node10</title>
<g id="a_edge9_Node000005_Node000010"><a xlink:title=" ">
<path fill="none" stroke="#63b8ff" d="M238.02,-54.84C228.77,-47.15 215.25,-35.9 204.17,-26.68"/>
<polygon fill="#63b8ff" stroke="#63b8ff" points="206.66,-24.2 196.73,-20.49 202.18,-29.58 206.66,-24.2"/>
</a>
</g>
</g>
<!-- Node5&#45;&gt;Node11 -->
<g id="edge10_Node000005_Node000011" class="edge">
<title>Node5&#45;&gt;Node11</title>
<g id="a_edge10_Node000005_Node000011"><a xlink:title=" ">
<path fill="none" stroke="#63b8ff" d="M280.77,-54.84C313.47,-45.58 364.34,-31.17 399.06,-21.34"/>
<polygon fill="#63b8ff" stroke="#63b8ff" points="399.59,-24.82 408.26,-18.73 397.69,-18.09 399.59,-24.82"/>
</a>
</g>
</g>
<!-- Node5&#45;&gt;Node12 -->
<g id="edge11_Node000005_Node000012" class="edge">
<title>Node5&#45;&gt;Node12</title>
<g id="a_edge11_Node000005_Node000012"><a xlink:title=" ">
<path fill="none" stroke="#63b8ff" d="M227.84,-54.84C208.24,-46.43 178.77,-33.77 156.37,-24.15"/>
<polygon fill="#63b8ff" stroke="#63b8ff" points="157.97,-21.03 147.4,-20.3 155.21,-27.46 157.97,-21.03"/>
</a>
</g>
</g>
</g>
</svg>
