<?xml version="1.0" encoding="UTF-8" standalone="no"?>
<!DOCTYPE svg PUBLIC "-//W3C//DTD SVG 1.1//EN"
 "http://www.w3.org/Graphics/SVG/1.1/DTD/svg11.dtd">
<!-- Generated by graphviz version 9.0.0 (20230911.1827)
 -->
<!-- Title: Oscillator/OscillatorBinned.cpp Pages: 1 -->
<svg width="471pt" height="315pt"
 viewBox="0.00 0.00 471.25 314.75" xmlns="http://www.w3.org/2000/svg" xmlns:xlink="http://www.w3.org/1999/xlink">

<svg id="main" version="1.1" xmlns="http://www.w3.org/2000/svg" xmlns:xlink="http://www.w3.org/1999/xlink" xml:space="preserve" onload="init(evt)">
<style type="text/css"><![CDATA[
.node, .edge {opacity: 0.7;}
.node.selected, .edge.selected {opacity: 1;}
.edge:hover path { stroke: red; }
.edge:hover polygon { stroke: red; fill: red; }
]]></style>
<script type="application/ecmascript" xlink:href="svg.min.js"/>
<svg id="graph" class="graph">
<g id="graph0" class="graph" transform="scale(1 1) rotate(0) translate(4 310.75)">
<title>Oscillator/OscillatorBinned.cpp</title>
<!-- Node1 -->
<g id="Node000001" class="node">
<title>Node1</title>
<g id="a_Node000001"><a xlink:title=" ">
<polygon fill="#999999" stroke="#666666" points="463.25,-306.75 313.75,-306.75 313.75,-287.5 463.25,-287.5 463.25,-306.75"/>
<text text-anchor="middle" x="388.5" y="-293.25" font-family="Helvetica,sans-Serif" font-size="10.00">Oscillator/OscillatorBinned.cpp</text>
</a>
</g>
</g>
<!-- Node2 -->
<g id="Node000002" class="node">
<title>Node2</title>
<g id="a_Node000002"><a xlink:href="OscillatorBinned_8h.html" target="_top" xlink:title=" ">
<polygon fill="white" stroke="#666666" points="336,-251.5 197,-251.5 197,-232.25 336,-232.25 336,-251.5"/>
<text text-anchor="middle" x="266.5" y="-238" font-family="Helvetica,sans-Serif" font-size="10.00">Oscillator/OscillatorBinned.h</text>
</a>
</g>
</g>
<!-- Node1&#45;&gt;Node2 -->
<g id="edge1_Node000001_Node000002" class="edge">
<title>Node1&#45;&gt;Node2</title>
<g id="a_edge1_Node000001_Node000002"><a xlink:title=" ">
<path fill="none" stroke="#63b8ff" d="M367.8,-287.09C348.61,-278.72 319.79,-266.13 297.78,-256.53"/>
<polygon fill="#63b8ff" stroke="#63b8ff" points="299.25,-253.35 288.68,-252.56 296.45,-259.77 299.25,-253.35"/>
</a>
</g>
</g>
<!-- Node7 -->
<g id="Node000007" class="node">
<title>Node7</title>
<g id="a_Node000007"><a xlink:title=" ">
<polygon fill="#e0e0e0" stroke="#999999" points="292.12,-19.25 246.88,-19.25 246.88,0 292.12,0 292.12,-19.25"/>
<text text-anchor="middle" x="269.5" y="-5.75" font-family="Helvetica,sans-Serif" font-size="10.00">TFile.h</text>
</a>
</g>
</g>
<!-- Node1&#45;&gt;Node7 -->
<g id="edge17_Node000001_Node000007" class="edge">
<title>Node1&#45;&gt;Node7</title>
<g id="a_edge17_Node000001_Node000007"><a xlink:title=" ">
<path fill="none" stroke="#63b8ff" d="M385.86,-287.22C380.64,-268.8 369.5,-225.11 369.5,-187.62 369.5,-187.62 369.5,-187.62 369.5,-124.75 369.5,-92.73 370.31,-80.41 350.5,-55.25 338.36,-39.83 319.35,-28.96 302.79,-21.82"/>
<polygon fill="#63b8ff" stroke="#63b8ff" points="304.36,-18.67 293.77,-18.21 301.76,-25.17 304.36,-18.67"/>
</a>
</g>
</g>
<!-- Node8 -->
<g id="Node000008" class="node">
<title>Node8</title>
<g id="a_Node000008"><a xlink:title=" ">
<polygon fill="#e0e0e0" stroke="#999999" points="376.62,-19.25 334.38,-19.25 334.38,0 376.62,0 376.62,-19.25"/>
<text text-anchor="middle" x="355.5" y="-5.75" font-family="Helvetica,sans-Serif" font-size="10.00">TH1.h</text>
</a>
</g>
</g>
<!-- Node1&#45;&gt;Node8 -->
<g id="edge18_Node000001_Node000008" class="edge">
<title>Node1&#45;&gt;Node8</title>
<g id="a_edge18_Node000001_Node000008"><a xlink:title=" ">
<path fill="none" stroke="#63b8ff" d="M391.14,-287.22C396.36,-268.8 407.5,-225.11 407.5,-187.62 407.5,-187.62 407.5,-187.62 407.5,-124.75 407.5,-88.1 385.01,-50.3 369.62,-28.71"/>
<polygon fill="#63b8ff" stroke="#63b8ff" points="372.63,-26.9 363.85,-20.96 367.01,-31.07 372.63,-26.9"/>
</a>
</g>
</g>
<!-- Node10 -->
<g id="Node000010" class="node">
<title>Node10</title>
<g id="a_Node000010"><a xlink:title=" ">
<polygon fill="#e0e0e0" stroke="#999999" points="460.25,-19.25 406.75,-19.25 406.75,0 460.25,0 460.25,-19.25"/>
<text text-anchor="middle" x="433.5" y="-5.75" font-family="Helvetica,sans-Serif" font-size="10.00">iostream</text>
</a>
</g>
</g>
<!-- Node1&#45;&gt;Node10 -->
<g id="edge16_Node000001_Node000010" class="edge">
<title>Node1&#45;&gt;Node10</title>
<g id="a_edge16_Node000001_Node000010"><a xlink:title=" ">
<path fill="none" stroke="#63b8ff" d="M397.16,-287.11C413.1,-269.51 445.5,-228.69 445.5,-187.62 445.5,-187.62 445.5,-187.62 445.5,-124.75 445.5,-91.62 440.44,-53.38 436.89,-30.64"/>
<polygon fill="#63b8ff" stroke="#63b8ff" points="440.37,-30.27 435.31,-20.96 433.46,-31.4 440.37,-30.27"/>
</a>
</g>
</g>
<!-- Node3 -->
<g id="Node000003" class="node">
<title>Node3</title>
<g id="a_Node000003"><a xlink:href="OscillatorBase_8h.html" target="_top" xlink:title=" ">
<polygon fill="white" stroke="#666666" points="307.12,-196.25 219.88,-196.25 219.88,-177 307.12,-177 307.12,-196.25"/>
<text text-anchor="middle" x="263.5" y="-182.75" font-family="Helvetica,sans-Serif" font-size="10.00">OscillatorBase.h</text>
</a>
</g>
</g>
<!-- Node2&#45;&gt;Node3 -->
<g id="edge2_Node000002_Node000003" class="edge">
<title>Node2&#45;&gt;Node3</title>
<g id="a_edge2_Node000002_Node000003"><a xlink:title=" ">
<path fill="none" stroke="#63b8ff" d="M266,-232.08C265.63,-225.49 265.11,-216.21 264.64,-207.82"/>
<polygon fill="#63b8ff" stroke="#63b8ff" points="268.15,-207.91 264.09,-198.12 261.16,-208.3 268.15,-207.91"/>
</a>
</g>
</g>
<!-- Node4 -->
<g id="Node000004" class="node">
<title>Node4</title>
<g id="a_Node000004"><a xlink:href="OscProbCalcerBase_8h.html" target="_top" xlink:title=" ">
<polygon fill="white" stroke="#666666" points="232,-141 81,-141 81,-110.5 232,-110.5 232,-141"/>
<text text-anchor="start" x="89" y="-127.5" font-family="Helvetica,sans-Serif" font-size="10.00">OscProbCalcer/OscProbCalcer</text>
<text text-anchor="middle" x="156.5" y="-116.25" font-family="Helvetica,sans-Serif" font-size="10.00">Base.h</text>
</a>
</g>
</g>
<!-- Node3&#45;&gt;Node4 -->
<g id="edge3_Node000003_Node000004" class="edge">
<title>Node3&#45;&gt;Node4</title>
<g id="a_edge3_Node000003_Node000004"><a xlink:title=" ">
<path fill="none" stroke="#63b8ff" d="M247.25,-176.68C232.85,-168.76 211.29,-156.9 192.8,-146.72"/>
<polygon fill="#63b8ff" stroke="#63b8ff" points="194.69,-143.77 184.24,-142.01 191.31,-149.9 194.69,-143.77"/>
</a>
</g>
</g>
<!-- Node5 -->
<g id="Node000005" class="node">
<title>Node5</title>
<g id="a_Node000005"><a xlink:href="OscillatorConstants_8h.html" target="_top" xlink:title=" ">
<polygon fill="white" stroke="#666666" points="237.62,-74.5 81.38,-74.5 81.38,-55.25 237.62,-55.25 237.62,-74.5"/>
<text text-anchor="middle" x="159.5" y="-61" font-family="Helvetica,sans-Serif" font-size="10.00">Constants/OscillatorConstants.h</text>
</a>
</g>
</g>
<!-- Node3&#45;&gt;Node5 -->
<g id="edge14_Node000003_Node000005" class="edge">
<title>Node3&#45;&gt;Node5</title>
<g id="a_edge14_Node000003_Node000005"><a xlink:title=" ">
<path fill="none" stroke="#63b8ff" d="M262.92,-176.75C261.49,-161.59 256.67,-130.4 240.5,-110.5 229.31,-96.73 212.69,-86.53 197.41,-79.39"/>
<polygon fill="#63b8ff" stroke="#63b8ff" points="199.09,-76.3 188.52,-75.53 196.3,-82.72 199.09,-76.3"/>
</a>
</g>
</g>
<!-- Node12 -->
<g id="Node000012" class="node">
<title>Node12</title>
<g id="a_Node000012"><a xlink:title=" ">
<polygon fill="#e0e0e0" stroke="#999999" points="341.38,-74.5 255.62,-74.5 255.62,-55.25 341.38,-55.25 341.38,-74.5"/>
<text text-anchor="middle" x="298.5" y="-61" font-family="Helvetica,sans-Serif" font-size="10.00">yaml&#45;cpp/yaml.h</text>
</a>
</g>
</g>
<!-- Node3&#45;&gt;Node12 -->
<g id="edge15_Node000003_Node000012" class="edge">
<title>Node3&#45;&gt;Node12</title>
<g id="a_edge15_Node000003_Node000012"><a xlink:title=" ">
<path fill="none" stroke="#63b8ff" d="M266.13,-176.62C271.73,-157.47 284.94,-112.26 292.65,-85.9"/>
<polygon fill="#63b8ff" stroke="#63b8ff" points="295.97,-87.01 295.41,-76.43 289.25,-85.05 295.97,-87.01"/>
</a>
</g>
</g>
<!-- Node4&#45;&gt;Node5 -->
<g id="edge4_Node000004_Node000005" class="edge">
<title>Node4&#45;&gt;Node5</title>
<g id="a_edge4_Node000004_Node000005"><a xlink:title=" ">
<path fill="none" stroke="#63b8ff" d="M157.24,-110.2C157.61,-102.96 158.06,-94.09 158.46,-86.19"/>
<polygon fill="#63b8ff" stroke="#63b8ff" points="161.95,-86.63 158.96,-76.46 154.96,-86.27 161.95,-86.63"/>
</a>
</g>
</g>
<!-- Node9 -->
<g id="Node000009" class="node">
<title>Node9</title>
<g id="a_Node000009"><a xlink:title=" ">
<polygon fill="#e0e0e0" stroke="#999999" points="112.5,-19.25 72.5,-19.25 72.5,0 112.5,0 112.5,-19.25"/>
<text text-anchor="middle" x="92.5" y="-5.75" font-family="Helvetica,sans-Serif" font-size="10.00">string</text>
</a>
</g>
</g>
<!-- Node4&#45;&gt;Node9 -->
<g id="edge12_Node000004_Node000009" class="edge">
<title>Node4&#45;&gt;Node9</title>
<g id="a_edge12_Node000004_Node000009"><a xlink:title=" ">
<path fill="none" stroke="#63b8ff" d="M114.26,-110.01C98.22,-102.11 81.64,-90.61 72.5,-74.5 64.36,-60.14 71.41,-42.06 79.3,-28.8"/>
<polygon fill="#63b8ff" stroke="#63b8ff" points="82.1,-30.9 84.7,-20.62 76.26,-27.04 82.1,-30.9"/>
</a>
</g>
</g>
<!-- Node11 -->
<g id="Node000011" class="node">
<title>Node11</title>
<g id="a_Node000011"><a xlink:title=" ">
<polygon fill="#e0e0e0" stroke="#999999" points="43,-19.25 0,-19.25 0,0 43,0 43,-19.25"/>
<text text-anchor="middle" x="21.5" y="-5.75" font-family="Helvetica,sans-Serif" font-size="10.00">vector</text>
</a>
</g>
</g>
<!-- Node4&#45;&gt;Node11 -->
<g id="edge11_Node000004_Node000011" class="edge">
<title>Node4&#45;&gt;Node11</title>
<g id="a_edge11_Node000004_Node000011"><a xlink:title=" ">
<path fill="none" stroke="#63b8ff" d="M121.22,-110.01C103.25,-101.39 81.82,-89.28 65.5,-74.5 51.17,-61.52 39.07,-43 31.21,-29.24"/>
<polygon fill="#63b8ff" stroke="#63b8ff" points="34.44,-27.86 26.58,-20.76 28.3,-31.21 34.44,-27.86"/>
</a>
</g>
</g>
<!-- Node4&#45;&gt;Node12 -->
<g id="edge13_Node000004_Node000012" class="edge">
<title>Node4&#45;&gt;Node12</title>
<g id="a_edge13_Node000004_Node000012"><a xlink:title=" ">
<path fill="none" stroke="#63b8ff" d="M191.97,-110.05C214.74,-100.6 244.07,-88.44 266.19,-79.27"/>
<polygon fill="#63b8ff" stroke="#63b8ff" points="267.43,-82.55 275.32,-75.48 264.75,-76.08 267.43,-82.55"/>
</a>
</g>
</g>
<!-- Node6 -->
<g id="Node000006" class="node">
<title>Node6</title>
<g id="a_Node000006"><a xlink:title=" ">
<polygon fill="#e0e0e0" stroke="#999999" points="182.12,-19.25 136.88,-19.25 136.88,0 182.12,0 182.12,-19.25"/>
<text text-anchor="middle" x="159.5" y="-5.75" font-family="Helvetica,sans-Serif" font-size="10.00">math.h</text>
</a>
</g>
</g>
<!-- Node5&#45;&gt;Node6 -->
<g id="edge5_Node000005_Node000006" class="edge">
<title>Node5&#45;&gt;Node6</title>
<g id="a_edge5_Node000005_Node000006"><a xlink:title=" ">
<path fill="none" stroke="#63b8ff" d="M159.5,-55.08C159.5,-48.57 159.5,-39.42 159.5,-31.12"/>
<polygon fill="#63b8ff" stroke="#63b8ff" points="163,-31.12 159.5,-21.12 156,-31.12 163,-31.12"/>
</a>
</g>
</g>
<!-- Node5&#45;&gt;Node7 -->
<g id="edge6_Node000005_Node000007" class="edge">
<title>Node5&#45;&gt;Node7</title>
<g id="a_edge6_Node000005_Node000007"><a xlink:title=" ">
<path fill="none" stroke="#63b8ff" d="M178.16,-54.84C195.23,-46.58 220.74,-34.23 240.47,-24.68"/>
<polygon fill="#63b8ff" stroke="#63b8ff" points="241.91,-27.87 249.39,-20.36 238.86,-21.57 241.91,-27.87"/>
</a>
</g>
</g>
<!-- Node5&#45;&gt;Node8 -->
<g id="edge7_Node000005_Node000008" class="edge">
<title>Node5&#45;&gt;Node8</title>
<g id="a_edge7_Node000005_Node000008"><a xlink:title=" ">
<path fill="none" stroke="#63b8ff" d="M192.75,-54.84C229.11,-44.96 287.01,-29.23 323.06,-19.44"/>
<polygon fill="#63b8ff" stroke="#63b8ff" points="323.74,-22.88 332.48,-16.88 321.91,-16.12 323.74,-22.88"/>
</a>
</g>
</g>
<!-- Node5&#45;&gt;Node9 -->
<g id="edge8_Node000005_Node000009" class="edge">
<title>Node5&#45;&gt;Node9</title>
<g id="a_edge8_Node000005_Node000009"><a xlink:title=" ">
<path fill="none" stroke="#63b8ff" d="M148.13,-54.84C138.45,-47.15 124.3,-35.9 112.69,-26.68"/>
<polygon fill="#63b8ff" stroke="#63b8ff" points="114.89,-23.95 104.88,-20.47 110.53,-29.43 114.89,-23.95"/>
</a>
</g>
</g>
<!-- Node5&#45;&gt;Node10 -->
<g id="edge9_Node000005_Node000010" class="edge">
<title>Node5&#45;&gt;Node10</title>
<g id="a_edge9_Node000005_Node000010"><a xlink:title=" ">
<path fill="none" stroke="#63b8ff" d="M206.29,-54.78C259.64,-44.41 345.83,-27.66 395.31,-18.05"/>
<polygon fill="#63b8ff" stroke="#63b8ff" points="395.83,-21.51 404.97,-16.17 394.49,-14.64 395.83,-21.51"/>
</a>
</g>
</g>
<!-- Node5&#45;&gt;Node11 -->
<g id="edge10_Node000005_Node000011" class="edge">
<title>Node5&#45;&gt;Node11</title>
<g id="a_edge10_Node000005_Node000011"><a xlink:title=" ">
<path fill="none" stroke="#63b8ff" d="M136.09,-54.84C113.45,-46.11 78.95,-32.79 53.73,-23.06"/>
<polygon fill="#63b8ff" stroke="#63b8ff" points="55.2,-19.88 44.61,-19.54 52.68,-26.41 55.2,-19.88"/>
</a>
</g>
</g>
</g>
</svg>
</svg>

<style type='text/css'>
<![CDATA[
[data-mouse-over-selected='false'] { opacity: 0.7; }
[data-mouse-over-selected='true']  { opacity: 1.0; }
]]>
</style>
<script type="application/ecmascript"><![CDATA[
document.addEventListener('DOMContentLoaded', (event) => {
  highlightEdges();
  highlightAdjacentNodes();
});
]]></script>
</svg>
