<?xml version="1.0" encoding="UTF-8" standalone="no"?>
<!DOCTYPE svg PUBLIC "-//W3C//DTD SVG 1.1//EN"
 "http://www.w3.org/Graphics/SVG/1.1/DTD/svg11.dtd">
<!-- Generated by graphviz version 9.0.0 (20230911.1827)
 -->
<!-- Title: Oscillator/OscillatorUnbinned.cpp Pages: 1 -->
<svg width="440pt" height="315pt"
 viewBox="0.00 0.00 439.62 314.75" xmlns="http://www.w3.org/2000/svg" xmlns:xlink="http://www.w3.org/1999/xlink">

<svg id="main" version="1.1" xmlns="http://www.w3.org/2000/svg" xmlns:xlink="http://www.w3.org/1999/xlink" xml:space="preserve" onload="init(evt)">
<style type="text/css"><![CDATA[
.node, .edge {opacity: 0.7;}
.node.selected, .edge.selected {opacity: 1;}
.edge:hover path { stroke: red; }
.edge:hover polygon { stroke: red; fill: red; }
]]></style>
<script type="application/ecmascript" xlink:href="svg.min.js"/>
<svg id="graph" class="graph">
<g id="graph0" class="graph" transform="scale(1 1) rotate(0) translate(4 310.75)">
<title>Oscillator/OscillatorUnbinned.cpp</title>
<!-- Node1 -->
<g id="Node000001" class="node">
<title>Node1</title>
<g id="a_Node000001"><a xlink:title=" ">
<polygon fill="#999999" stroke="#666666" points="358.25,-306.75 197.5,-306.75 197.5,-287.5 358.25,-287.5 358.25,-306.75"/>
<text text-anchor="middle" x="277.88" y="-293.25" font-family="Helvetica,sans-Serif" font-size="10.00">Oscillator/OscillatorUnbinned.cpp</text>
</a>
</g>
</g>
<!-- Node2 -->
<g id="Node000002" class="node">
<title>Node2</title>
<g id="a_Node000002"><a xlink:href="OscillatorUnbinned_8h.html" target="_top" xlink:title=" ">
<polygon fill="white" stroke="#666666" points="302,-251.5 151.75,-251.5 151.75,-232.25 302,-232.25 302,-251.5"/>
<text text-anchor="middle" x="226.88" y="-238" font-family="Helvetica,sans-Serif" font-size="10.00">Oscillator/OscillatorUnbinned.h</text>
</a>
</g>
</g>
<!-- Node1&#45;&gt;Node2 -->
<g id="edge1_Node000001_Node000002" class="edge">
<title>Node1&#45;&gt;Node2</title>
<g id="a_edge1_Node000001_Node000002"><a xlink:title=" ">
<path fill="none" stroke="#63b8ff" d="M269.45,-287.33C262.34,-279.9 251.93,-269.04 243.19,-259.91"/>
<polygon fill="#63b8ff" stroke="#63b8ff" points="245.97,-257.75 236.53,-252.95 240.92,-262.6 245.97,-257.75"/>
</a>
</g>
</g>
<!-- Node10 -->
<g id="Node000010" class="node">
<title>Node10</title>
<g id="a_Node000010"><a xlink:title=" ">
<polygon fill="#e0e0e0" stroke="#999999" points="431.62,-19.25 378.12,-19.25 378.12,0 431.62,0 431.62,-19.25"/>
<text text-anchor="middle" x="404.88" y="-5.75" font-family="Helvetica,sans-Serif" font-size="10.00">iostream</text>
</a>
</g>
</g>
<!-- Node1&#45;&gt;Node10 -->
<g id="edge16_Node000001_Node000010" class="edge">
<title>Node1&#45;&gt;Node10</title>
<g id="a_edge16_Node000001_Node000010"><a xlink:title=" ">
<path fill="none" stroke="#63b8ff" d="M297.32,-287.21C327.92,-271.69 383.88,-236.61 383.88,-187.62 383.88,-187.62 383.88,-187.62 383.88,-124.75 383.88,-91.26 392.73,-53.15 398.94,-30.53"/>
<polygon fill="#63b8ff" stroke="#63b8ff" points="402.24,-31.72 401.63,-21.15 395.51,-29.8 402.24,-31.72"/>
</a>
</g>
</g>
<!-- Node3 -->
<g id="Node000003" class="node">
<title>Node3</title>
<g id="a_Node000003"><a xlink:href="OscillatorBase_8h.html" target="_top" xlink:title=" ">
<polygon fill="white" stroke="#666666" points="222.5,-196.25 135.25,-196.25 135.25,-177 222.5,-177 222.5,-196.25"/>
<text text-anchor="middle" x="178.88" y="-182.75" font-family="Helvetica,sans-Serif" font-size="10.00">OscillatorBase.h</text>
</a>
</g>
</g>
<!-- Node2&#45;&gt;Node3 -->
<g id="edge2_Node000002_Node000003" class="edge">
<title>Node2&#45;&gt;Node3</title>
<g id="a_edge2_Node000002_Node000003"><a xlink:title=" ">
<path fill="none" stroke="#63b8ff" d="M218.95,-232.08C212.32,-224.73 202.66,-214.01 194.49,-204.94"/>
<polygon fill="#63b8ff" stroke="#63b8ff" points="197.28,-202.82 187.99,-197.73 192.08,-207.5 197.28,-202.82"/>
</a>
</g>
</g>
<!-- Node4 -->
<g id="Node000004" class="node">
<title>Node4</title>
<g id="a_Node000004"><a xlink:href="OscProbCalcerBase_8h.html" target="_top" xlink:title=" ">
<polygon fill="white" stroke="#666666" points="227.38,-141 76.38,-141 76.38,-110.5 227.38,-110.5 227.38,-141"/>
<text text-anchor="start" x="84.38" y="-127.5" font-family="Helvetica,sans-Serif" font-size="10.00">OscProbCalcer/OscProbCalcer</text>
<text text-anchor="middle" x="151.88" y="-116.25" font-family="Helvetica,sans-Serif" font-size="10.00">Base.h</text>
</a>
</g>
</g>
<!-- Node3&#45;&gt;Node4 -->
<g id="edge3_Node000003_Node000004" class="edge">
<title>Node3&#45;&gt;Node4</title>
<g id="a_edge3_Node000003_Node000004"><a xlink:title=" ">
<path fill="none" stroke="#63b8ff" d="M174.77,-176.68C171.71,-170.01 167.37,-160.53 163.29,-151.63"/>
<polygon fill="#63b8ff" stroke="#63b8ff" points="166.52,-150.29 159.17,-142.66 160.16,-153.21 166.52,-150.29"/>
</a>
</g>
</g>
<!-- Node5 -->
<g id="Node000005" class="node">
<title>Node5</title>
<g id="a_Node000005"><a xlink:href="OscillatorConstants_8h.html" target="_top" xlink:title=" ">
<polygon fill="white" stroke="#666666" points="336,-74.5 179.75,-74.5 179.75,-55.25 336,-55.25 336,-74.5"/>
<text text-anchor="middle" x="257.88" y="-61" font-family="Helvetica,sans-Serif" font-size="10.00">Constants/OscillatorConstants.h</text>
</a>
</g>
</g>
<!-- Node3&#45;&gt;Node5 -->
<g id="edge14_Node000003_Node000005" class="edge">
<title>Node3&#45;&gt;Node5</title>
<g id="a_edge14_Node000003_Node000005"><a xlink:title=" ">
<path fill="none" stroke="#63b8ff" d="M195.44,-176.56C208.25,-168.74 225.51,-156.29 235.88,-141 247.07,-124.49 252.66,-102.22 255.39,-86.22"/>
<polygon fill="#63b8ff" stroke="#63b8ff" points="258.83,-86.86 256.8,-76.46 251.91,-85.85 258.83,-86.86"/>
</a>
</g>
</g>
<!-- Node12 -->
<g id="Node000012" class="node">
<title>Node12</title>
<g id="a_Node000012"><a xlink:title=" ">
<polygon fill="#e0e0e0" stroke="#999999" points="85.75,-74.5 0,-74.5 0,-55.25 85.75,-55.25 85.75,-74.5"/>
<text text-anchor="middle" x="42.88" y="-61" font-family="Helvetica,sans-Serif" font-size="10.00">yaml&#45;cpp/yaml.h</text>
</a>
</g>
</g>
<!-- Node3&#45;&gt;Node12 -->
<g id="edge15_Node000003_Node000012" class="edge">
<title>Node3&#45;&gt;Node12</title>
<g id="a_edge15_Node000003_Node000012"><a xlink:title=" ">
<path fill="none" stroke="#63b8ff" d="M134.92,-177.56C111.84,-171.22 84.72,-160.14 66.88,-141 52.89,-126 47.05,-102.83 44.62,-86.19"/>
<polygon fill="#63b8ff" stroke="#63b8ff" points="48.12,-86.02 43.51,-76.48 41.17,-86.81 48.12,-86.02"/>
</a>
</g>
</g>
<!-- Node4&#45;&gt;Node5 -->
<g id="edge4_Node000004_Node000005" class="edge">
<title>Node4&#45;&gt;Node5</title>
<g id="a_edge4_Node000004_Node000005"><a xlink:title=" ">
<path fill="none" stroke="#63b8ff" d="M178.35,-110.05C194.65,-100.99 215.45,-89.44 231.7,-80.41"/>
<polygon fill="#63b8ff" stroke="#63b8ff" points="233.25,-83.55 240.3,-75.64 229.85,-77.43 233.25,-83.55"/>
</a>
</g>
</g>
<!-- Node9 -->
<g id="Node000009" class="node">
<title>Node9</title>
<g id="a_Node000009"><a xlink:title=" ">
<polygon fill="#e0e0e0" stroke="#999999" points="111.88,-19.25 71.88,-19.25 71.88,0 111.88,0 111.88,-19.25"/>
<text text-anchor="middle" x="91.88" y="-5.75" font-family="Helvetica,sans-Serif" font-size="10.00">string</text>
</a>
</g>
</g>
<!-- Node4&#45;&gt;Node9 -->
<g id="edge12_Node000004_Node000009" class="edge">
<title>Node4&#45;&gt;Node9</title>
<g id="a_edge12_Node000004_Node000009"><a xlink:title=" ">
<path fill="none" stroke="#63b8ff" d="M144.28,-110.3C133.54,-89.87 113.91,-52.54 101.96,-29.81"/>
<polygon fill="#63b8ff" stroke="#63b8ff" points="105.1,-28.26 97.35,-21.04 98.9,-31.52 105.1,-28.26"/>
</a>
</g>
</g>
<!-- Node11 -->
<g id="Node000011" class="node">
<title>Node11</title>
<g id="a_Node000011"><a xlink:title=" ">
<polygon fill="#e0e0e0" stroke="#999999" points="173.38,-19.25 130.38,-19.25 130.38,0 173.38,0 173.38,-19.25"/>
<text text-anchor="middle" x="151.88" y="-5.75" font-family="Helvetica,sans-Serif" font-size="10.00">vector</text>
</a>
</g>
</g>
<!-- Node4&#45;&gt;Node11 -->
<g id="edge11_Node000004_Node000011" class="edge">
<title>Node4&#45;&gt;Node11</title>
<g id="a_edge11_Node000004_Node000011"><a xlink:title=" ">
<path fill="none" stroke="#63b8ff" d="M151.88,-110.3C151.88,-90.25 151.88,-53.9 151.88,-31.07"/>
<polygon fill="#63b8ff" stroke="#63b8ff" points="155.38,-31.21 151.88,-21.21 148.38,-31.21 155.38,-31.21"/>
</a>
</g>
</g>
<!-- Node4&#45;&gt;Node12 -->
<g id="edge13_Node000004_Node000012" class="edge">
<title>Node4&#45;&gt;Node12</title>
<g id="a_edge13_Node000004_Node000012"><a xlink:title=" ">
<path fill="none" stroke="#63b8ff" d="M124.65,-110.05C107.73,-100.91 86.09,-89.22 69.32,-80.16"/>
<polygon fill="#63b8ff" stroke="#63b8ff" points="71.38,-77.3 60.92,-75.62 68.06,-83.46 71.38,-77.3"/>
</a>
</g>
</g>
<!-- Node6 -->
<g id="Node000006" class="node">
<title>Node6</title>
<g id="a_Node000006"><a xlink:title=" ">
<polygon fill="#e0e0e0" stroke="#999999" points="360.5,-19.25 315.25,-19.25 315.25,0 360.5,0 360.5,-19.25"/>
<text text-anchor="middle" x="337.88" y="-5.75" font-family="Helvetica,sans-Serif" font-size="10.00">math.h</text>
</a>
</g>
</g>
<!-- Node5&#45;&gt;Node6 -->
<g id="edge5_Node000005_Node000006" class="edge">
<title>Node5&#45;&gt;Node6</title>
<g id="a_edge5_Node000005_Node000006"><a xlink:title=" ">
<path fill="none" stroke="#63b8ff" d="M271.45,-54.84C283.28,-46.96 300.71,-35.36 314.75,-26.02"/>
<polygon fill="#63b8ff" stroke="#63b8ff" points="316.59,-29 322.98,-20.54 312.71,-23.17 316.59,-29"/>
</a>
</g>
</g>
<!-- Node7 -->
<g id="Node000007" class="node">
<title>Node7</title>
<g id="a_Node000007"><a xlink:title=" ">
<polygon fill="#e0e0e0" stroke="#999999" points="236.5,-19.25 191.25,-19.25 191.25,0 236.5,0 236.5,-19.25"/>
<text text-anchor="middle" x="213.88" y="-5.75" font-family="Helvetica,sans-Serif" font-size="10.00">TFile.h</text>
</a>
</g>
</g>
<!-- Node5&#45;&gt;Node7 -->
<g id="edge6_Node000005_Node000007" class="edge">
<title>Node5&#45;&gt;Node7</title>
<g id="a_edge6_Node000005_Node000007"><a xlink:title=" ">
<path fill="none" stroke="#63b8ff" d="M250.61,-55.08C244.59,-47.8 235.86,-37.23 228.42,-28.23"/>
<polygon fill="#63b8ff" stroke="#63b8ff" points="231.33,-26.26 222.26,-20.78 225.93,-30.71 231.33,-26.26"/>
</a>
</g>
</g>
<!-- Node8 -->
<g id="Node000008" class="node">
<title>Node8</title>
<g id="a_Node000008"><a xlink:title=" ">
<polygon fill="#e0e0e0" stroke="#999999" points="297,-19.25 254.75,-19.25 254.75,0 297,0 297,-19.25"/>
<text text-anchor="middle" x="275.88" y="-5.75" font-family="Helvetica,sans-Serif" font-size="10.00">TH1.h</text>
</a>
</g>
</g>
<!-- Node5&#45;&gt;Node8 -->
<g id="edge7_Node000005_Node000008" class="edge">
<title>Node5&#45;&gt;Node8</title>
<g id="a_edge7_Node000005_Node000008"><a xlink:title=" ">
<path fill="none" stroke="#63b8ff" d="M260.85,-55.08C263.13,-48.34 266.36,-38.77 269.24,-30.24"/>
<polygon fill="#63b8ff" stroke="#63b8ff" points="272.47,-31.64 272.35,-21.04 265.84,-29.4 272.47,-31.64"/>
</a>
</g>
</g>
<!-- Node5&#45;&gt;Node9 -->
<g id="edge8_Node000005_Node000009" class="edge">
<title>Node5&#45;&gt;Node9</title>
<g id="a_edge8_Node000005_Node000009"><a xlink:title=" ">
<path fill="none" stroke="#63b8ff" d="M229.72,-54.84C200.19,-45.37 153.9,-30.52 123.23,-20.68"/>
<polygon fill="#63b8ff" stroke="#63b8ff" points="124.34,-17.36 113.74,-17.64 122.2,-24.03 124.34,-17.36"/>
</a>
</g>
</g>
<!-- Node5&#45;&gt;Node10 -->
<g id="edge9_Node000005_Node000010" class="edge">
<title>Node5&#45;&gt;Node10</title>
<g id="a_edge9_Node000005_Node000010"><a xlink:title=" ">
<path fill="none" stroke="#63b8ff" d="M282.81,-54.84C306.57,-46.24 342.58,-33.19 369.34,-23.5"/>
<polygon fill="#63b8ff" stroke="#63b8ff" points="370.18,-26.91 378.39,-20.22 367.8,-20.33 370.18,-26.91"/>
</a>
</g>
</g>
<!-- Node5&#45;&gt;Node11 -->
<g id="edge10_Node000005_Node000011" class="edge">
<title>Node5&#45;&gt;Node11</title>
<g id="a_edge10_Node000005_Node000011"><a xlink:title=" ">
<path fill="none" stroke="#63b8ff" d="M239.89,-54.84C223.52,-46.62 199.09,-34.34 180.11,-24.81"/>
<polygon fill="#63b8ff" stroke="#63b8ff" points="181.8,-21.74 171.3,-20.38 178.66,-28 181.8,-21.74"/>
</a>
</g>
</g>
</g>
</svg>
</svg>

<style type='text/css'>
<![CDATA[
[data-mouse-over-selected='false'] { opacity: 0.7; }
[data-mouse-over-selected='true']  { opacity: 1.0; }
]]>
</style>
<script type="application/ecmascript"><![CDATA[
document.addEventListener('DOMContentLoaded', (event) => {
  highlightEdges();
  highlightAdjacentNodes();
});
]]></script>
</svg>
