<?xml version="1.0" encoding="UTF-8" standalone="no"?>
<!DOCTYPE svg PUBLIC "-//W3C//DTD SVG 1.1//EN"
 "http://www.w3.org/Graphics/SVG/1.1/DTD/svg11.dtd">
<!-- Generated by graphviz version 9.0.0 (20230911.1827)
 -->
<!-- Title: Oscillator/OscillatorSubSampling.h Pages: 1 -->
<svg width="296pt" height="105pt"
 viewBox="0.00 0.00 296.25 105.00" xmlns="http://www.w3.org/2000/svg" xmlns:xlink="http://www.w3.org/1999/xlink">
<g id="graph0" class="graph" transform="scale(1 1) rotate(0) translate(4 101)">
<title>Oscillator/OscillatorSubSampling.h</title>
<!-- Node1 -->
<g id="Node000001" class="node">
<title>Node1</title>
<g id="a_Node000001"><a xlink:title=" ">
<polygon fill="#999999" stroke="#666666" points="211.25,-97 92.5,-97 92.5,-66.5 211.25,-66.5 211.25,-97"/>
<text text-anchor="start" x="100.5" y="-83.5" font-family="Helvetica,sans-Serif" font-size="10.00">Oscillator/OscillatorSub</text>
<text text-anchor="middle" x="151.88" y="-72.25" font-family="Helvetica,sans-Serif" font-size="10.00">Sampling.h</text>
</a>
</g>
</g>
<!-- Node2 -->
<g id="Node000002" class="node">
<title>Node2</title>
<g id="a_Node000002"><a xlink:href="OscillatorFactory_8cpp.html" target="_top" xlink:title=" ">
<polygon fill="white" stroke="#666666" points="151.75,-24.88 0,-24.88 0,-5.63 151.75,-5.63 151.75,-24.88"/>
<text text-anchor="middle" x="75.88" y="-11.38" font-family="Helvetica,sans-Serif" font-size="10.00">Oscillator/OscillatorFactory.cpp</text>
</a>
</g>
</g>
<!-- Node1&#45;&gt;Node2 -->
<g id="edge1_Node000001_Node000002" class="edge">
<title>Node1&#45;&gt;Node2</title>
<g id="a_edge1_Node000001_Node000002"><a xlink:title=" ">
<path fill="none" stroke="#63b8ff" d="M126.09,-58.87C112.46,-47.3 96.48,-33.74 86.27,-25.07"/>
<polygon fill="#63b8ff" stroke="#63b8ff" points="123.59,-61.33 133.48,-65.13 128.12,-56 123.59,-61.33"/>
</a>
</g>
</g>
<!-- Node3 -->
<g id="Node000003" class="node">
<title>Node3</title>
<g id="a_Node000003"><a xlink:href="OscillatorSubSampling_8cpp.html" target="_top" xlink:title=" ">
<polygon fill="white" stroke="#666666" points="288.25,-30.5 169.5,-30.5 169.5,0 288.25,0 288.25,-30.5"/>
<text text-anchor="start" x="177.5" y="-17" font-family="Helvetica,sans-Serif" font-size="10.00">Oscillator/OscillatorSub</text>
<text text-anchor="middle" x="228.88" y="-5.75" font-family="Helvetica,sans-Serif" font-size="10.00">Sampling.cpp</text>
</a>
</g>
</g>
<!-- Node1&#45;&gt;Node3 -->
<g id="edge2_Node000001_Node000003" class="edge">
<title>Node1&#45;&gt;Node3</title>
<g id="a_edge2_Node000001_Node000003"><a xlink:title=" ">
<path fill="none" stroke="#63b8ff" d="M178.15,-58.74C189.15,-49.53 201.64,-39.06 211.47,-30.83"/>
<polygon fill="#63b8ff" stroke="#63b8ff" points="175.93,-56.04 170.51,-65.14 180.42,-61.4 175.93,-56.04"/>
</a>
</g>
</g>
</g>
</svg>
