<?xml version="1.0" encoding="UTF-8" standalone="no"?>
<!DOCTYPE svg PUBLIC "-//W3C//DTD SVG 1.1//EN"
 "http://www.w3.org/Graphics/SVG/1.1/DTD/svg11.dtd">
<!-- Generated by graphviz version 9.0.0 (20230911.1827)
 -->
<!-- Title: Constants/OscillatorConstants.h Pages: 1 -->
<svg width="3541pt" height="293pt"
 viewBox="0.00 0.00 3540.62 293.25" xmlns="http://www.w3.org/2000/svg" xmlns:xlink="http://www.w3.org/1999/xlink">
<g id="graph0" class="graph" transform="scale(1 1) rotate(0) translate(4 289.25)">
<title>Constants/OscillatorConstants.h</title>
<!-- Node1 -->
<g id="Node000001" class="node">
<title>Node1</title>
<g id="a_Node000001"><a xlink:title=" ">
<polygon fill="#999999" stroke="#666666" points="901.25,-285.25 745,-285.25 745,-266 901.25,-266 901.25,-285.25"/>
<text text-anchor="middle" x="823.12" y="-271.75" font-family="Helvetica,sans-Serif" font-size="10.00">Constants/OscillatorConstants.h</text>
</a>
</g>
</g>
<!-- Node2 -->
<g id="Node000002" class="node">
<title>Node2</title>
<g id="a_Node000002"><a xlink:href="Analysis_8cpp.html" target="_top" xlink:title=" ">
<polygon fill="white" stroke="#666666" points="96.25,-24.88 0,-24.88 0,-5.63 96.25,-5.63 96.25,-24.88"/>
<text text-anchor="middle" x="48.12" y="-11.38" font-family="Helvetica,sans-Serif" font-size="10.00">Apps/Analysis.cpp</text>
</a>
</g>
</g>
<!-- Node1&#45;&gt;Node2 -->
<g id="edge1_Node000001_Node000002" class="edge">
<title>Node1&#45;&gt;Node2</title>
<g id="a_edge1_Node000001_Node000002"><a xlink:title=" ">
<path fill="none" stroke="#63b8ff" d="M733.55,-264.66C681.9,-257.64 616.11,-246.5 559.12,-230 358.22,-171.83 129.84,-58.21 65.69,-25.35"/>
<polygon fill="#63b8ff" stroke="#63b8ff" points="732.8,-268.09 743.18,-265.94 733.73,-261.16 732.8,-268.09"/>
</a>
</g>
</g>
<!-- Node3 -->
<g id="Node000003" class="node">
<title>Node3</title>
<g id="a_Node000003"><a xlink:href="CompareOscillationProbabilities_8cpp.html" target="_top" xlink:title=" ">
<polygon fill="white" stroke="#666666" points="311.88,-24.88 114.38,-24.88 114.38,-5.63 311.88,-5.63 311.88,-24.88"/>
<text text-anchor="middle" x="213.12" y="-11.38" font-family="Helvetica,sans-Serif" font-size="10.00">Apps/CompareOscillationProbabilities.cpp</text>
</a>
</g>
</g>
<!-- Node1&#45;&gt;Node3 -->
<g id="edge2_Node000001_Node000003" class="edge">
<title>Node1&#45;&gt;Node3</title>
<g id="a_edge2_Node000001_Node000003"><a xlink:title=" ">
<path fill="none" stroke="#63b8ff" d="M759.91,-263.37C723.16,-255.89 676.31,-244.72 636.12,-230 468.47,-168.6 281.11,-57.71 227.91,-25.35"/>
<polygon fill="#63b8ff" stroke="#63b8ff" points="759,-266.76 769.49,-265.28 760.37,-259.89 759,-266.76"/>
</a>
</g>
</g>
<!-- Node4 -->
<g id="Node000004" class="node">
<title>Node4</title>
<g id="a_Node000004"><a xlink:href="DragRace_8cpp.html" target="_top" xlink:title=" ">
<polygon fill="white" stroke="#666666" points="432.25,-24.88 330,-24.88 330,-5.63 432.25,-5.63 432.25,-24.88"/>
<text text-anchor="middle" x="381.12" y="-11.38" font-family="Helvetica,sans-Serif" font-size="10.00">Apps/DragRace.cpp</text>
</a>
</g>
</g>
<!-- Node1&#45;&gt;Node4 -->
<g id="edge3_Node000001_Node000004" class="edge">
<title>Node1&#45;&gt;Node4</title>
<g id="a_edge3_Node000001_Node000004"><a xlink:title=" ">
<path fill="none" stroke="#63b8ff" d="M786.54,-261.68C718.21,-236.48 568.25,-176.29 459.12,-97 429.16,-75.23 400.71,-41.29 388.03,-25.24"/>
<polygon fill="#63b8ff" stroke="#63b8ff" points="785.15,-264.9 795.75,-265.04 787.55,-258.33 785.15,-264.9"/>
</a>
</g>
</g>
<!-- Node5 -->
<g id="Node000005" class="node">
<title>Node5</title>
<g id="a_Node000005"><a xlink:href="MakeExampleBinning_8cpp.html" target="_top" xlink:title=" ">
<polygon fill="white" stroke="#666666" points="2351.38,-224.38 2198.88,-224.38 2198.88,-205.12 2351.38,-205.12 2351.38,-224.38"/>
<text text-anchor="middle" x="2275.12" y="-210.88" font-family="Helvetica,sans-Serif" font-size="10.00">Apps/MakeExampleBinning.cpp</text>
</a>
</g>
</g>
<!-- Node1&#45;&gt;Node5 -->
<g id="edge4_Node000001_Node000005" class="edge">
<title>Node1&#45;&gt;Node5</title>
<g id="a_edge4_Node000001_Node000005"><a xlink:title=" ">
<path fill="none" stroke="#63b8ff" d="M912.85,-273.26C1175.71,-269.02 1941.15,-254.82 2190.12,-230 2202.33,-228.78 2215.44,-226.88 2227.62,-224.86"/>
<polygon fill="#63b8ff" stroke="#63b8ff" points="912.92,-269.76 902.97,-273.42 913.03,-276.76 912.92,-269.76"/>
</a>
</g>
</g>
<!-- Node6 -->
<g id="Node000006" class="node">
<title>Node6</title>
<g id="a_Node000006"><a xlink:href="OscProbCalcerComparison_8cpp.html" target="_top" xlink:title=" ">
<polygon fill="white" stroke="#666666" points="627.75,-24.88 450.5,-24.88 450.5,-5.63 627.75,-5.63 627.75,-24.88"/>
<text text-anchor="middle" x="539.12" y="-11.38" font-family="Helvetica,sans-Serif" font-size="10.00">Apps/OscProbCalcerComparison.cpp</text>
</a>
</g>
</g>
<!-- Node1&#45;&gt;Node6 -->
<g id="edge5_Node000001_Node000006" class="edge">
<title>Node1&#45;&gt;Node6</title>
<g id="a_edge5_Node000001_Node000006"><a xlink:title=" ">
<path fill="none" stroke="#63b8ff" d="M801.99,-258.68C791.49,-250.47 778.8,-240.08 768.12,-230 696.64,-162.5 694.55,-129.56 619.12,-66.5 599.12,-49.77 573.1,-34.44 556.26,-25.22"/>
<polygon fill="#63b8ff" stroke="#63b8ff" points="799.63,-261.29 809.69,-264.62 803.91,-255.75 799.63,-261.29"/>
</a>
</g>
</g>
<!-- Node7 -->
<g id="Node000007" class="node">
<title>Node7</title>
<g id="a_Node000007"><a xlink:href="SingleOscProbCalcer_8cpp.html" target="_top" xlink:title=" ">
<polygon fill="white" stroke="#666666" points="1504.38,-91.38 1351.88,-91.38 1351.88,-72.12 1504.38,-72.12 1504.38,-91.38"/>
<text text-anchor="middle" x="1428.12" y="-77.88" font-family="Helvetica,sans-Serif" font-size="10.00">Apps/SingleOscProbCalcer.cpp</text>
</a>
</g>
</g>
<!-- Node1&#45;&gt;Node7 -->
<g id="edge6_Node000001_Node000007" class="edge">
<title>Node1&#45;&gt;Node7</title>
<g id="a_edge6_Node000001_Node000007"><a xlink:title=" ">
<path fill="none" stroke="#63b8ff" d="M862.39,-262.17C975.61,-226.26 1300.89,-123.1 1399.47,-91.84"/>
<polygon fill="#63b8ff" stroke="#63b8ff" points="861.41,-258.81 852.94,-265.17 863.53,-265.48 861.41,-258.81"/>
</a>
</g>
</g>
<!-- Node8 -->
<g id="Node000008" class="node">
<title>Node8</title>
<g id="a_Node000008"><a xlink:href="SingleOscillator_8cpp.html" target="_top" xlink:title=" ">
<polygon fill="white" stroke="#666666" points="774,-24.88 646.25,-24.88 646.25,-5.63 774,-5.63 774,-24.88"/>
<text text-anchor="middle" x="710.12" y="-11.38" font-family="Helvetica,sans-Serif" font-size="10.00">Apps/SingleOscillator.cpp</text>
</a>
</g>
</g>
<!-- Node1&#45;&gt;Node8 -->
<g id="edge7_Node000001_Node000008" class="edge">
<title>Node1&#45;&gt;Node8</title>
<g id="a_edge7_Node000001_Node000008"><a xlink:title=" ">
<path fill="none" stroke="#63b8ff" d="M809.29,-256.58C786.48,-225.75 741.35,-160.14 720.12,-97 711.66,-71.83 710.24,-40.08 710.08,-24.99"/>
<polygon fill="#63b8ff" stroke="#63b8ff" points="806.4,-258.55 815.2,-264.44 811.99,-254.34 806.4,-258.55"/>
</a>
</g>
</g>
<!-- Node9 -->
<g id="Node000009" class="node">
<title>Node9</title>
<g id="a_Node000009"><a xlink:href="OscProbCalcerBase_8h.html" target="_top" xlink:title=" ">
<polygon fill="white" stroke="#666666" points="2180.62,-230 2029.62,-230 2029.62,-199.5 2180.62,-199.5 2180.62,-230"/>
<text text-anchor="start" x="2037.62" y="-216.5" font-family="Helvetica,sans-Serif" font-size="10.00">OscProbCalcer/OscProbCalcer</text>
<text text-anchor="middle" x="2105.12" y="-205.25" font-family="Helvetica,sans-Serif" font-size="10.00">Base.h</text>
</a>
</g>
</g>
<!-- Node1&#45;&gt;Node9 -->
<g id="edge8_Node000001_Node000009" class="edge">
<title>Node1&#45;&gt;Node9</title>
<g id="a_edge8_Node000001_Node000009"><a xlink:title=" ">
<path fill="none" stroke="#63b8ff" d="M912.85,-270.5C1152.88,-259.48 1806.61,-229.46 2029.5,-219.22"/>
<polygon fill="#63b8ff" stroke="#63b8ff" points="912.73,-267.01 902.9,-270.96 913.05,-274 912.73,-267.01"/>
</a>
</g>
</g>
<!-- Node18 -->
<g id="Node000018" class="node">
<title>Node18</title>
<g id="a_Node000018"><a xlink:href="OscProbCalcer__CUDAProb3Linear_8h.html" target="_top" xlink:title=" ">
<polygon fill="white" stroke="#666666" points="2180.62,-163.5 2029.62,-163.5 2029.62,-133 2180.62,-133 2180.62,-163.5"/>
<text text-anchor="start" x="2037.62" y="-150" font-family="Helvetica,sans-Serif" font-size="10.00">OscProbCalcer/OscProbCalcer</text>
<text text-anchor="middle" x="2105.12" y="-138.75" font-family="Helvetica,sans-Serif" font-size="10.00">_CUDAProb3Linear.h</text>
</a>
</g>
</g>
<!-- Node1&#45;&gt;Node18 -->
<g id="edge55_Node000001_Node000018" class="edge">
<title>Node1&#45;&gt;Node18</title>
<g id="a_edge55_Node000001_Node000018"><a xlink:title=" ">
<path fill="none" stroke="#63b8ff" d="M912.78,-268.64C1112.4,-254.79 1608.45,-217.57 2021.12,-163.5 2023.76,-163.15 2026.45,-162.79 2029.16,-162.4"/>
<polygon fill="#63b8ff" stroke="#63b8ff" points="912.74,-265.13 903,-269.31 913.22,-272.11 912.74,-265.13"/>
</a>
</g>
</g>
<!-- Node36 -->
<g id="Node000036" class="node">
<title>Node36</title>
<g id="a_Node000036"><a xlink:href="OscillatorBase_8h.html" target="_top" xlink:title=" ">
<polygon fill="white" stroke="#666666" points="1011.88,-157.88 880.38,-157.88 880.38,-138.62 1011.88,-138.62 1011.88,-157.88"/>
<text text-anchor="middle" x="946.12" y="-144.38" font-family="Helvetica,sans-Serif" font-size="10.00">Oscillator/OscillatorBase.h</text>
</a>
</g>
</g>
<!-- Node1&#45;&gt;Node36 -->
<g id="edge56_Node000001_Node000036" class="edge">
<title>Node1&#45;&gt;Node36</title>
<g id="a_edge56_Node000001_Node000036"><a xlink:title=" ">
<path fill="none" stroke="#63b8ff" d="M839.96,-257.46C866.48,-230.43 917.05,-178.89 937.36,-158.18"/>
<polygon fill="#63b8ff" stroke="#63b8ff" points="837.54,-254.94 833.03,-264.53 842.53,-259.84 837.54,-254.94"/>
</a>
</g>
</g>
<!-- Node9&#45;&gt;Node7 -->
<g id="edge9_Node000009_Node000007" class="edge">
<title>Node9&#45;&gt;Node7</title>
<g id="a_edge9_Node000009_Node000007"><a xlink:title=" ">
<path fill="none" stroke="#63b8ff" d="M2017.93,-213.3C1875.98,-211.42 1601.92,-202.64 1514.12,-163.5 1495.51,-155.2 1453.87,-111.01 1436.25,-91.74"/>
<polygon fill="#63b8ff" stroke="#63b8ff" points="2017.61,-216.8 2027.66,-213.42 2017.7,-209.8 2017.61,-216.8"/>
</a>
</g>
</g>
<!-- Node10 -->
<g id="Node000010" class="node">
<title>Node10</title>
<g id="a_Node000010"><a xlink:href="OscProbCalcerBase_8cpp.html" target="_top" xlink:title=" ">
<polygon fill="white" stroke="#666666" points="1673.62,-163.5 1522.62,-163.5 1522.62,-133 1673.62,-133 1673.62,-163.5"/>
<text text-anchor="start" x="1530.62" y="-150" font-family="Helvetica,sans-Serif" font-size="10.00">OscProbCalcer/OscProbCalcer</text>
<text text-anchor="middle" x="1598.12" y="-138.75" font-family="Helvetica,sans-Serif" font-size="10.00">Base.cpp</text>
</a>
</g>
</g>
<!-- Node9&#45;&gt;Node10 -->
<g id="edge10_Node000009_Node000010" class="edge">
<title>Node9&#45;&gt;Node10</title>
<g id="a_edge10_Node000009_Node000010"><a xlink:title=" ">
<path fill="none" stroke="#63b8ff" d="M2017.92,-204.59C1932.48,-195.33 1798.63,-180.05 1683.12,-163.5 1680.16,-163.08 1677.14,-162.63 1674.1,-162.17"/>
<polygon fill="#63b8ff" stroke="#63b8ff" points="2017.31,-208.05 2027.63,-205.64 2018.06,-201.09 2017.31,-208.05"/>
</a>
</g>
</g>
<!-- Node11 -->
<g id="Node000011" class="node">
<title>Node11</title>
<g id="a_Node000011"><a xlink:href="OscProbCalcerFactory_8h.html" target="_top" xlink:title=" ">
<polygon fill="white" stroke="#666666" points="1465.62,-163.5 1314.62,-163.5 1314.62,-133 1465.62,-133 1465.62,-163.5"/>
<text text-anchor="start" x="1322.62" y="-150" font-family="Helvetica,sans-Serif" font-size="10.00">OscProbCalcer/OscProbCalcer</text>
<text text-anchor="middle" x="1390.12" y="-138.75" font-family="Helvetica,sans-Serif" font-size="10.00">Factory.h</text>
</a>
</g>
</g>
<!-- Node9&#45;&gt;Node11 -->
<g id="edge11_Node000009_Node000011" class="edge">
<title>Node9&#45;&gt;Node11</title>
<g id="a_edge11_Node000009_Node000011"><a xlink:title=" ">
<path fill="none" stroke="#63b8ff" d="M2018.04,-208.87C1897.08,-201.6 1671.49,-186.31 1480.12,-163.5 1475.41,-162.94 1470.57,-162.31 1465.69,-161.65"/>
<polygon fill="#63b8ff" stroke="#63b8ff" points="2017.71,-212.35 2027.91,-209.45 2018.13,-205.37 2017.71,-212.35"/>
</a>
</g>
</g>
<!-- Node14 -->
<g id="Node000014" class="node">
<title>Node14</title>
<g id="a_Node000014"><a xlink:href="OscProbCalcer__CHICLinear_8h.html" target="_top" xlink:title=" ">
<polygon fill="white" stroke="#666666" points="1842.62,-163.5 1691.62,-163.5 1691.62,-133 1842.62,-133 1842.62,-163.5"/>
<text text-anchor="start" x="1699.62" y="-150" font-family="Helvetica,sans-Serif" font-size="10.00">OscProbCalcer/OscProbCalcer</text>
<text text-anchor="middle" x="1767.12" y="-138.75" font-family="Helvetica,sans-Serif" font-size="10.00">_CHICLinear.h</text>
</a>
</g>
</g>
<!-- Node9&#45;&gt;Node14 -->
<g id="edge15_Node000009_Node000014" class="edge">
<title>Node9&#45;&gt;Node14</title>
<g id="a_edge15_Node000009_Node000014"><a xlink:title=" ">
<path fill="none" stroke="#63b8ff" d="M2018.29,-197.18C1964.1,-186.84 1895.01,-173.65 1843.02,-163.73"/>
<polygon fill="#63b8ff" stroke="#63b8ff" points="2017.31,-200.55 2027.78,-198.99 2018.62,-193.68 2017.31,-200.55"/>
</a>
</g>
</g>
<!-- Node16 -->
<g id="Node000016" class="node">
<title>Node16</title>
<g id="a_Node000016"><a xlink:href="OscProbCalcer__CUDAProb3_8h.html" target="_top" xlink:title=" ">
<polygon fill="white" stroke="#666666" points="2011.62,-163.5 1860.62,-163.5 1860.62,-133 2011.62,-133 2011.62,-163.5"/>
<text text-anchor="start" x="1868.62" y="-150" font-family="Helvetica,sans-Serif" font-size="10.00">OscProbCalcer/OscProbCalcer</text>
<text text-anchor="middle" x="1936.12" y="-138.75" font-family="Helvetica,sans-Serif" font-size="10.00">_CUDAProb3.h</text>
</a>
</g>
</g>
<!-- Node9&#45;&gt;Node16 -->
<g id="edge17_Node000009_Node000016" class="edge">
<title>Node9&#45;&gt;Node16</title>
<g id="a_edge17_Node000009_Node000016"><a xlink:title=" ">
<path fill="none" stroke="#63b8ff" d="M2056.04,-195.01C2030.11,-185.12 1998.76,-173.15 1974.61,-163.94"/>
<polygon fill="#63b8ff" stroke="#63b8ff" points="2054.77,-198.28 2065.36,-198.57 2057.27,-191.74 2054.77,-198.28"/>
</a>
</g>
</g>
<!-- Node9&#45;&gt;Node18 -->
<g id="edge19_Node000009_Node000018" class="edge">
<title>Node9&#45;&gt;Node18</title>
<g id="a_edge19_Node000009_Node000018"><a xlink:title=" ">
<path fill="none" stroke="#63b8ff" d="M2105.12,-187.81C2105.12,-179.64 2105.12,-170.91 2105.12,-163.83"/>
<polygon fill="#63b8ff" stroke="#63b8ff" points="2101.63,-187.6 2105.13,-197.6 2108.63,-187.6 2101.63,-187.6"/>
</a>
</g>
</g>
<!-- Node20 -->
<g id="Node000020" class="node">
<title>Node20</title>
<g id="a_Node000020"><a xlink:href="OscProbCalcer__GLoBESLinear_8h.html" target="_top" xlink:title=" ">
<polygon fill="white" stroke="#666666" points="2349.62,-163.5 2198.62,-163.5 2198.62,-133 2349.62,-133 2349.62,-163.5"/>
<text text-anchor="start" x="2206.62" y="-150" font-family="Helvetica,sans-Serif" font-size="10.00">OscProbCalcer/OscProbCalcer</text>
<text text-anchor="middle" x="2274.12" y="-138.75" font-family="Helvetica,sans-Serif" font-size="10.00">_GLoBESLinear.h</text>
</a>
</g>
</g>
<!-- Node9&#45;&gt;Node20 -->
<g id="edge21_Node000009_Node000020" class="edge">
<title>Node9&#45;&gt;Node20</title>
<g id="a_edge21_Node000009_Node000020"><a xlink:title=" ">
<path fill="none" stroke="#63b8ff" d="M2154.21,-195.01C2180.14,-185.12 2211.49,-173.15 2235.64,-163.94"/>
<polygon fill="#63b8ff" stroke="#63b8ff" points="2152.98,-191.74 2144.89,-198.57 2155.48,-198.28 2152.98,-191.74"/>
</a>
</g>
</g>
<!-- Node22 -->
<g id="Node000022" class="node">
<title>Node22</title>
<g id="a_Node000022"><a xlink:href="OscProbCalcer__NuFASTEarth_8h.html" target="_top" xlink:title=" ">
<polygon fill="white" stroke="#666666" points="2518.62,-163.5 2367.62,-163.5 2367.62,-133 2518.62,-133 2518.62,-163.5"/>
<text text-anchor="start" x="2375.62" y="-150" font-family="Helvetica,sans-Serif" font-size="10.00">OscProbCalcer/OscProbCalcer</text>
<text text-anchor="middle" x="2443.12" y="-138.75" font-family="Helvetica,sans-Serif" font-size="10.00">_NuFASTEarth.h</text>
</a>
</g>
</g>
<!-- Node9&#45;&gt;Node22 -->
<g id="edge23_Node000009_Node000022" class="edge">
<title>Node9&#45;&gt;Node22</title>
<g id="a_edge23_Node000009_Node000022"><a xlink:title=" ">
<path fill="none" stroke="#63b8ff" d="M2191.96,-197.18C2246.15,-186.84 2315.24,-173.65 2367.23,-163.73"/>
<polygon fill="#63b8ff" stroke="#63b8ff" points="2191.63,-193.68 2182.47,-198.99 2192.94,-200.55 2191.63,-193.68"/>
</a>
</g>
</g>
<!-- Node24 -->
<g id="Node000024" class="node">
<title>Node24</title>
<g id="a_Node000024"><a xlink:href="OscProbCalcer__NuFASTLinear_8h.html" target="_top" xlink:title=" ">
<polygon fill="white" stroke="#666666" points="2687.62,-163.5 2536.62,-163.5 2536.62,-133 2687.62,-133 2687.62,-163.5"/>
<text text-anchor="start" x="2544.62" y="-150" font-family="Helvetica,sans-Serif" font-size="10.00">OscProbCalcer/OscProbCalcer</text>
<text text-anchor="middle" x="2612.12" y="-138.75" font-family="Helvetica,sans-Serif" font-size="10.00">_NuFASTLinear.h</text>
</a>
</g>
</g>
<!-- Node9&#45;&gt;Node24 -->
<g id="edge25_Node000009_Node000024" class="edge">
<title>Node9&#45;&gt;Node24</title>
<g id="a_edge25_Node000009_Node000024"><a xlink:title=" ">
<path fill="none" stroke="#63b8ff" d="M2192.05,-199.29C2341.67,-179.23 2381.98,-183.66 2528.12,-163.5 2530.76,-163.14 2533.44,-162.75 2536.15,-162.36"/>
<polygon fill="#63b8ff" stroke="#63b8ff" points="2192.03,-195.77 2182.59,-200.58 2192.97,-202.7 2192.03,-195.77"/>
</a>
</g>
</g>
<!-- Node26 -->
<g id="Node000026" class="node">
<title>Node26</title>
<g id="a_Node000026"><a xlink:href="OscProbCalcer__NuSQUIDSLinear_8h.html" target="_top" xlink:title=" ">
<polygon fill="white" stroke="#666666" points="2856.62,-163.5 2705.62,-163.5 2705.62,-133 2856.62,-133 2856.62,-163.5"/>
<text text-anchor="start" x="2713.62" y="-150" font-family="Helvetica,sans-Serif" font-size="10.00">OscProbCalcer/OscProbCalcer</text>
<text text-anchor="middle" x="2781.12" y="-138.75" font-family="Helvetica,sans-Serif" font-size="10.00">_NuSQUIDSLinear.h</text>
</a>
</g>
</g>
<!-- Node9&#45;&gt;Node26 -->
<g id="edge27_Node000009_Node000026" class="edge">
<title>Node9&#45;&gt;Node26</title>
<g id="a_edge27_Node000009_Node000026"><a xlink:title=" ">
<path fill="none" stroke="#63b8ff" d="M2192.22,-199.34C2416.37,-173.35 2476.45,-189.99 2697.12,-163.5 2699.77,-163.18 2702.46,-162.84 2705.17,-162.48"/>
<polygon fill="#63b8ff" stroke="#63b8ff" points="2192.1,-195.83 2182.58,-200.47 2192.92,-202.78 2192.1,-195.83"/>
</a>
</g>
</g>
<!-- Node28 -->
<g id="Node000028" class="node">
<title>Node28</title>
<g id="a_Node000028"><a xlink:href="OscProbCalcer__OscLibLinear_8h.html" target="_top" xlink:title=" ">
<polygon fill="white" stroke="#666666" points="3025.62,-163.5 2874.62,-163.5 2874.62,-133 3025.62,-133 3025.62,-163.5"/>
<text text-anchor="start" x="2882.62" y="-150" font-family="Helvetica,sans-Serif" font-size="10.00">OscProbCalcer/OscProbCalcer</text>
<text text-anchor="middle" x="2950.12" y="-138.75" font-family="Helvetica,sans-Serif" font-size="10.00">_OscLibLinear.h</text>
</a>
</g>
</g>
<!-- Node9&#45;&gt;Node28 -->
<g id="edge29_Node000009_Node000028" class="edge">
<title>Node9&#45;&gt;Node28</title>
<g id="a_edge29_Node000009_Node000028"><a xlink:title=" ">
<path fill="none" stroke="#63b8ff" d="M2192.25,-199.37C2491.12,-167.3 2570.74,-196.31 2866.12,-163.5 2868.77,-163.21 2871.46,-162.88 2874.17,-162.54"/>
<polygon fill="#63b8ff" stroke="#63b8ff" points="2192.13,-195.86 2182.57,-200.42 2192.89,-202.82 2192.13,-195.86"/>
</a>
</g>
</g>
<!-- Node30 -->
<g id="Node000030" class="node">
<title>Node30</title>
<g id="a_Node000030"><a xlink:href="OscProbCalcer__OscProb_8h.html" target="_top" xlink:title=" ">
<polygon fill="white" stroke="#666666" points="3194.62,-163.5 3043.62,-163.5 3043.62,-133 3194.62,-133 3194.62,-163.5"/>
<text text-anchor="start" x="3051.62" y="-150" font-family="Helvetica,sans-Serif" font-size="10.00">OscProbCalcer/OscProbCalcer</text>
<text text-anchor="middle" x="3119.12" y="-138.75" font-family="Helvetica,sans-Serif" font-size="10.00">_OscProb.h</text>
</a>
</g>
</g>
<!-- Node9&#45;&gt;Node30 -->
<g id="edge31_Node000009_Node000030" class="edge">
<title>Node9&#45;&gt;Node30</title>
<g id="a_edge31_Node000009_Node000030"><a xlink:title=" ">
<path fill="none" stroke="#63b8ff" d="M2192.47,-199.36C2565.95,-161.2 2665.05,-202.62 3035.12,-163.5 3037.77,-163.22 3040.46,-162.91 3043.18,-162.57"/>
<polygon fill="#63b8ff" stroke="#63b8ff" points="2192.15,-195.87 2182.57,-200.39 2192.87,-202.84 2192.15,-195.87"/>
</a>
</g>
</g>
<!-- Node32 -->
<g id="Node000032" class="node">
<title>Node32</title>
<g id="a_Node000032"><a xlink:href="OscProbCalcer__Prob3ppLinear_8h.html" target="_top" xlink:title=" ">
<polygon fill="white" stroke="#666666" points="3363.62,-163.5 3212.62,-163.5 3212.62,-133 3363.62,-133 3363.62,-163.5"/>
<text text-anchor="start" x="3220.62" y="-150" font-family="Helvetica,sans-Serif" font-size="10.00">OscProbCalcer/OscProbCalcer</text>
<text text-anchor="middle" x="3288.12" y="-138.75" font-family="Helvetica,sans-Serif" font-size="10.00">_Prob3ppLinear.h</text>
</a>
</g>
</g>
<!-- Node9&#45;&gt;Node32 -->
<g id="edge33_Node000009_Node000032" class="edge">
<title>Node9&#45;&gt;Node32</title>
<g id="a_edge33_Node000009_Node000032"><a xlink:title=" ">
<path fill="none" stroke="#63b8ff" d="M2192.39,-199.38C2640.75,-155.03 2759.23,-208.93 3204.12,-163.5 3206.77,-163.23 3209.47,-162.93 3212.18,-162.6"/>
<polygon fill="#63b8ff" stroke="#63b8ff" points="2192.17,-195.89 2182.56,-200.36 2192.86,-202.85 2192.17,-195.89"/>
</a>
</g>
</g>
<!-- Node34 -->
<g id="Node000034" class="node">
<title>Node34</title>
<g id="a_Node000034"><a xlink:href="OscProbCalcer__ProbGPULinear_8h.html" target="_top" xlink:title=" ">
<polygon fill="white" stroke="#666666" points="3532.62,-163.5 3381.62,-163.5 3381.62,-133 3532.62,-133 3532.62,-163.5"/>
<text text-anchor="start" x="3389.62" y="-150" font-family="Helvetica,sans-Serif" font-size="10.00">OscProbCalcer/OscProbCalcer</text>
<text text-anchor="middle" x="3457.12" y="-138.75" font-family="Helvetica,sans-Serif" font-size="10.00">_ProbGPULinear.h</text>
</a>
</g>
</g>
<!-- Node9&#45;&gt;Node34 -->
<g id="edge35_Node000009_Node000034" class="edge">
<title>Node9&#45;&gt;Node34</title>
<g id="a_edge35_Node000009_Node000034"><a xlink:title=" ">
<path fill="none" stroke="#63b8ff" d="M2192.31,-199.4C2715.56,-148.85 2853.4,-215.24 3373.12,-163.5 3375.77,-163.24 3378.47,-162.94 3381.18,-162.61"/>
<polygon fill="#63b8ff" stroke="#63b8ff" points="2192.18,-195.89 2182.56,-200.35 2192.86,-202.86 2192.18,-195.89"/>
</a>
</g>
</g>
<!-- Node9&#45;&gt;Node36 -->
<g id="edge37_Node000009_Node000036" class="edge">
<title>Node9&#45;&gt;Node36</title>
<g id="a_edge37_Node000009_Node000036"><a xlink:title=" ">
<path fill="none" stroke="#63b8ff" d="M2018.26,-208.92C1795.92,-196.54 1209.85,-163.93 1012.25,-152.93"/>
<polygon fill="#63b8ff" stroke="#63b8ff" points="2017.84,-212.4 2028.02,-209.46 2018.23,-205.41 2017.84,-212.4"/>
</a>
</g>
</g>
<!-- Node11&#45;&gt;Node7 -->
<g id="edge12_Node000011_Node000007" class="edge">
<title>Node11&#45;&gt;Node7</title>
<g id="a_edge12_Node000011_Node000007"><a xlink:title=" ">
<path fill="none" stroke="#63b8ff" d="M1404.39,-123.03C1410.88,-112.01 1418.16,-99.66 1422.93,-91.57"/>
<polygon fill="#63b8ff" stroke="#63b8ff" points="1401.58,-120.92 1399.52,-131.31 1407.61,-124.47 1401.58,-120.92"/>
</a>
</g>
</g>
<!-- Node12 -->
<g id="Node000012" class="node">
<title>Node12</title>
<g id="a_Node000012"><a xlink:href="OscProbCalcerFactory_8cpp.html" target="_top" xlink:title=" ">
<polygon fill="white" stroke="#666666" points="1673.62,-97 1522.62,-97 1522.62,-66.5 1673.62,-66.5 1673.62,-97"/>
<text text-anchor="start" x="1530.62" y="-83.5" font-family="Helvetica,sans-Serif" font-size="10.00">OscProbCalcer/OscProbCalcer</text>
<text text-anchor="middle" x="1598.12" y="-72.25" font-family="Helvetica,sans-Serif" font-size="10.00">Factory.cpp</text>
</a>
</g>
</g>
<!-- Node11&#45;&gt;Node12 -->
<g id="edge13_Node000011_Node000012" class="edge">
<title>Node11&#45;&gt;Node12</title>
<g id="a_edge13_Node000011_Node000012"><a xlink:title=" ">
<path fill="none" stroke="#63b8ff" d="M1448.26,-129.22C1480.63,-119.18 1520.43,-106.84 1550.87,-97.4"/>
<polygon fill="#63b8ff" stroke="#63b8ff" points="1447.54,-125.78 1439.03,-132.08 1449.62,-132.47 1447.54,-125.78"/>
</a>
</g>
</g>
<!-- Node13 -->
<g id="Node000013" class="node">
<title>Node13</title>
<g id="a_Node000013"><a xlink:href="OscillatorBase_8cpp.html" target="_top" xlink:title=" ">
<polygon fill="white" stroke="#666666" points="1334.12,-91.38 1192.12,-91.38 1192.12,-72.12 1334.12,-72.12 1334.12,-91.38"/>
<text text-anchor="middle" x="1263.12" y="-77.88" font-family="Helvetica,sans-Serif" font-size="10.00">Oscillator/OscillatorBase.cpp</text>
</a>
</g>
</g>
<!-- Node11&#45;&gt;Node13 -->
<g id="edge14_Node000011_Node000013" class="edge">
<title>Node11&#45;&gt;Node13</title>
<g id="a_edge14_Node000011_Node000013"><a xlink:title=" ">
<path fill="none" stroke="#63b8ff" d="M1351.29,-127.53C1327.81,-115.6 1299.02,-100.98 1280.87,-91.76"/>
<polygon fill="#63b8ff" stroke="#63b8ff" points="1349.46,-130.52 1359.96,-131.93 1352.63,-124.28 1349.46,-130.52"/>
</a>
</g>
</g>
<!-- Node15 -->
<g id="Node000015" class="node">
<title>Node15</title>
<g id="a_Node000015"><a xlink:href="OscProbCalcer__CHICLinear_8cpp.html" target="_top" xlink:title=" ">
<polygon fill="white" stroke="#666666" points="1842.62,-97 1691.62,-97 1691.62,-66.5 1842.62,-66.5 1842.62,-97"/>
<text text-anchor="start" x="1699.62" y="-83.5" font-family="Helvetica,sans-Serif" font-size="10.00">OscProbCalcer/OscProbCalcer</text>
<text text-anchor="middle" x="1767.12" y="-72.25" font-family="Helvetica,sans-Serif" font-size="10.00">_CHICLinear.cpp</text>
</a>
</g>
</g>
<!-- Node14&#45;&gt;Node15 -->
<g id="edge16_Node000014_Node000015" class="edge">
<title>Node14&#45;&gt;Node15</title>
<g id="a_edge16_Node000014_Node000015"><a xlink:title=" ">
<path fill="none" stroke="#63b8ff" d="M1767.12,-121.31C1767.12,-113.14 1767.12,-104.41 1767.12,-97.33"/>
<polygon fill="#63b8ff" stroke="#63b8ff" points="1763.63,-121.1 1767.13,-131.1 1770.63,-121.1 1763.63,-121.1"/>
</a>
</g>
</g>
<!-- Node17 -->
<g id="Node000017" class="node">
<title>Node17</title>
<g id="a_Node000017"><a xlink:href="OscProbCalcer__CUDAProb3_8cpp.html" target="_top" xlink:title=" ">
<polygon fill="white" stroke="#666666" points="2011.62,-97 1860.62,-97 1860.62,-66.5 2011.62,-66.5 2011.62,-97"/>
<text text-anchor="start" x="1868.62" y="-83.5" font-family="Helvetica,sans-Serif" font-size="10.00">OscProbCalcer/OscProbCalcer</text>
<text text-anchor="middle" x="1936.12" y="-72.25" font-family="Helvetica,sans-Serif" font-size="10.00">_CUDAProb3.cpp</text>
</a>
</g>
</g>
<!-- Node16&#45;&gt;Node17 -->
<g id="edge18_Node000016_Node000017" class="edge">
<title>Node16&#45;&gt;Node17</title>
<g id="a_edge18_Node000016_Node000017"><a xlink:title=" ">
<path fill="none" stroke="#63b8ff" d="M1936.12,-121.31C1936.12,-113.14 1936.12,-104.41 1936.12,-97.33"/>
<polygon fill="#63b8ff" stroke="#63b8ff" points="1932.63,-121.1 1936.13,-131.1 1939.63,-121.1 1932.63,-121.1"/>
</a>
</g>
</g>
<!-- Node19 -->
<g id="Node000019" class="node">
<title>Node19</title>
<g id="a_Node000019"><a xlink:href="OscProbCalcer__CUDAProb3Linear_8cpp.html" target="_top" xlink:title=" ">
<polygon fill="white" stroke="#666666" points="2180.62,-97 2029.62,-97 2029.62,-66.5 2180.62,-66.5 2180.62,-97"/>
<text text-anchor="start" x="2037.62" y="-83.5" font-family="Helvetica,sans-Serif" font-size="10.00">OscProbCalcer/OscProbCalcer</text>
<text text-anchor="middle" x="2105.12" y="-72.25" font-family="Helvetica,sans-Serif" font-size="10.00">_CUDAProb3Linear.cpp</text>
</a>
</g>
</g>
<!-- Node18&#45;&gt;Node19 -->
<g id="edge20_Node000018_Node000019" class="edge">
<title>Node18&#45;&gt;Node19</title>
<g id="a_edge20_Node000018_Node000019"><a xlink:title=" ">
<path fill="none" stroke="#63b8ff" d="M2105.12,-121.31C2105.12,-113.14 2105.12,-104.41 2105.12,-97.33"/>
<polygon fill="#63b8ff" stroke="#63b8ff" points="2101.63,-121.1 2105.13,-131.1 2108.63,-121.1 2101.63,-121.1"/>
</a>
</g>
</g>
<!-- Node21 -->
<g id="Node000021" class="node">
<title>Node21</title>
<g id="a_Node000021"><a xlink:href="OscProbCalcer__GLoBESLinear_8cpp.html" target="_top" xlink:title=" ">
<polygon fill="white" stroke="#666666" points="2349.62,-97 2198.62,-97 2198.62,-66.5 2349.62,-66.5 2349.62,-97"/>
<text text-anchor="start" x="2206.62" y="-83.5" font-family="Helvetica,sans-Serif" font-size="10.00">OscProbCalcer/OscProbCalcer</text>
<text text-anchor="middle" x="2274.12" y="-72.25" font-family="Helvetica,sans-Serif" font-size="10.00">_GLoBESLinear.cpp</text>
</a>
</g>
</g>
<!-- Node20&#45;&gt;Node21 -->
<g id="edge22_Node000020_Node000021" class="edge">
<title>Node20&#45;&gt;Node21</title>
<g id="a_edge22_Node000020_Node000021"><a xlink:title=" ">
<path fill="none" stroke="#63b8ff" d="M2274.12,-121.31C2274.12,-113.14 2274.12,-104.41 2274.12,-97.33"/>
<polygon fill="#63b8ff" stroke="#63b8ff" points="2270.63,-121.1 2274.13,-131.1 2277.63,-121.1 2270.63,-121.1"/>
</a>
</g>
</g>
<!-- Node23 -->
<g id="Node000023" class="node">
<title>Node23</title>
<g id="a_Node000023"><a xlink:href="OscProbCalcer__NuFASTEarth_8cpp.html" target="_top" xlink:title=" ">
<polygon fill="white" stroke="#666666" points="2518.62,-97 2367.62,-97 2367.62,-66.5 2518.62,-66.5 2518.62,-97"/>
<text text-anchor="start" x="2375.62" y="-83.5" font-family="Helvetica,sans-Serif" font-size="10.00">OscProbCalcer/OscProbCalcer</text>
<text text-anchor="middle" x="2443.12" y="-72.25" font-family="Helvetica,sans-Serif" font-size="10.00">_NuFASTEarth.cpp</text>
</a>
</g>
</g>
<!-- Node22&#45;&gt;Node23 -->
<g id="edge24_Node000022_Node000023" class="edge">
<title>Node22&#45;&gt;Node23</title>
<g id="a_edge24_Node000022_Node000023"><a xlink:title=" ">
<path fill="none" stroke="#63b8ff" d="M2443.12,-121.31C2443.12,-113.14 2443.12,-104.41 2443.12,-97.33"/>
<polygon fill="#63b8ff" stroke="#63b8ff" points="2439.63,-121.1 2443.13,-131.1 2446.63,-121.1 2439.63,-121.1"/>
</a>
</g>
</g>
<!-- Node25 -->
<g id="Node000025" class="node">
<title>Node25</title>
<g id="a_Node000025"><a xlink:href="OscProbCalcer__NuFASTLinear_8cpp.html" target="_top" xlink:title=" ">
<polygon fill="white" stroke="#666666" points="2687.62,-97 2536.62,-97 2536.62,-66.5 2687.62,-66.5 2687.62,-97"/>
<text text-anchor="start" x="2544.62" y="-83.5" font-family="Helvetica,sans-Serif" font-size="10.00">OscProbCalcer/OscProbCalcer</text>
<text text-anchor="middle" x="2612.12" y="-72.25" font-family="Helvetica,sans-Serif" font-size="10.00">_NuFASTLinear.cpp</text>
</a>
</g>
</g>
<!-- Node24&#45;&gt;Node25 -->
<g id="edge26_Node000024_Node000025" class="edge">
<title>Node24&#45;&gt;Node25</title>
<g id="a_edge26_Node000024_Node000025"><a xlink:title=" ">
<path fill="none" stroke="#63b8ff" d="M2612.12,-121.31C2612.12,-113.14 2612.12,-104.41 2612.12,-97.33"/>
<polygon fill="#63b8ff" stroke="#63b8ff" points="2608.63,-121.1 2612.13,-131.1 2615.63,-121.1 2608.63,-121.1"/>
</a>
</g>
</g>
<!-- Node27 -->
<g id="Node000027" class="node">
<title>Node27</title>
<g id="a_Node000027"><a xlink:href="OscProbCalcer__NuSQUIDSLinear_8cpp.html" target="_top" xlink:title=" ">
<polygon fill="white" stroke="#666666" points="2856.62,-97 2705.62,-97 2705.62,-66.5 2856.62,-66.5 2856.62,-97"/>
<text text-anchor="start" x="2713.62" y="-83.5" font-family="Helvetica,sans-Serif" font-size="10.00">OscProbCalcer/OscProbCalcer</text>
<text text-anchor="middle" x="2781.12" y="-72.25" font-family="Helvetica,sans-Serif" font-size="10.00">_NuSQUIDSLinear.cpp</text>
</a>
</g>
</g>
<!-- Node26&#45;&gt;Node27 -->
<g id="edge28_Node000026_Node000027" class="edge">
<title>Node26&#45;&gt;Node27</title>
<g id="a_edge28_Node000026_Node000027"><a xlink:title=" ">
<path fill="none" stroke="#63b8ff" d="M2781.12,-121.31C2781.12,-113.14 2781.12,-104.41 2781.12,-97.33"/>
<polygon fill="#63b8ff" stroke="#63b8ff" points="2777.63,-121.1 2781.13,-131.1 2784.63,-121.1 2777.63,-121.1"/>
</a>
</g>
</g>
<!-- Node29 -->
<g id="Node000029" class="node">
<title>Node29</title>
<g id="a_Node000029"><a xlink:href="OscProbCalcer__OscLibLinear_8cpp.html" target="_top" xlink:title=" ">
<polygon fill="white" stroke="#666666" points="3025.62,-97 2874.62,-97 2874.62,-66.5 3025.62,-66.5 3025.62,-97"/>
<text text-anchor="start" x="2882.62" y="-83.5" font-family="Helvetica,sans-Serif" font-size="10.00">OscProbCalcer/OscProbCalcer</text>
<text text-anchor="middle" x="2950.12" y="-72.25" font-family="Helvetica,sans-Serif" font-size="10.00">_OscLibLinear.cpp</text>
</a>
</g>
</g>
<!-- Node28&#45;&gt;Node29 -->
<g id="edge30_Node000028_Node000029" class="edge">
<title>Node28&#45;&gt;Node29</title>
<g id="a_edge30_Node000028_Node000029"><a xlink:title=" ">
<path fill="none" stroke="#63b8ff" d="M2950.12,-121.31C2950.12,-113.14 2950.12,-104.41 2950.12,-97.33"/>
<polygon fill="#63b8ff" stroke="#63b8ff" points="2946.63,-121.1 2950.13,-131.1 2953.63,-121.1 2946.63,-121.1"/>
</a>
</g>
</g>
<!-- Node31 -->
<g id="Node000031" class="node">
<title>Node31</title>
<g id="a_Node000031"><a xlink:href="OscProbCalcer__OscProb_8cpp.html" target="_top" xlink:title=" ">
<polygon fill="white" stroke="#666666" points="3194.62,-97 3043.62,-97 3043.62,-66.5 3194.62,-66.5 3194.62,-97"/>
<text text-anchor="start" x="3051.62" y="-83.5" font-family="Helvetica,sans-Serif" font-size="10.00">OscProbCalcer/OscProbCalcer</text>
<text text-anchor="middle" x="3119.12" y="-72.25" font-family="Helvetica,sans-Serif" font-size="10.00">_OscProb.cpp</text>
</a>
</g>
</g>
<!-- Node30&#45;&gt;Node31 -->
<g id="edge32_Node000030_Node000031" class="edge">
<title>Node30&#45;&gt;Node31</title>
<g id="a_edge32_Node000030_Node000031"><a xlink:title=" ">
<path fill="none" stroke="#63b8ff" d="M3119.12,-121.31C3119.12,-113.14 3119.12,-104.41 3119.12,-97.33"/>
<polygon fill="#63b8ff" stroke="#63b8ff" points="3115.63,-121.1 3119.13,-131.1 3122.63,-121.1 3115.63,-121.1"/>
</a>
</g>
</g>
<!-- Node33 -->
<g id="Node000033" class="node">
<title>Node33</title>
<g id="a_Node000033"><a xlink:href="OscProbCalcer__Prob3ppLinear_8cpp.html" target="_top" xlink:title=" ">
<polygon fill="white" stroke="#666666" points="3363.62,-97 3212.62,-97 3212.62,-66.5 3363.62,-66.5 3363.62,-97"/>
<text text-anchor="start" x="3220.62" y="-83.5" font-family="Helvetica,sans-Serif" font-size="10.00">OscProbCalcer/OscProbCalcer</text>
<text text-anchor="middle" x="3288.12" y="-72.25" font-family="Helvetica,sans-Serif" font-size="10.00">_Prob3ppLinear.cpp</text>
</a>
</g>
</g>
<!-- Node32&#45;&gt;Node33 -->
<g id="edge34_Node000032_Node000033" class="edge">
<title>Node32&#45;&gt;Node33</title>
<g id="a_edge34_Node000032_Node000033"><a xlink:title=" ">
<path fill="none" stroke="#63b8ff" d="M3288.12,-121.31C3288.12,-113.14 3288.12,-104.41 3288.12,-97.33"/>
<polygon fill="#63b8ff" stroke="#63b8ff" points="3284.63,-121.1 3288.13,-131.1 3291.63,-121.1 3284.63,-121.1"/>
</a>
</g>
</g>
<!-- Node35 -->
<g id="Node000035" class="node">
<title>Node35</title>
<g id="a_Node000035"><a xlink:href="OscProbCalcer__ProbGPULinear_8cpp.html" target="_top" xlink:title=" ">
<polygon fill="white" stroke="#666666" points="3532.62,-97 3381.62,-97 3381.62,-66.5 3532.62,-66.5 3532.62,-97"/>
<text text-anchor="start" x="3389.62" y="-83.5" font-family="Helvetica,sans-Serif" font-size="10.00">OscProbCalcer/OscProbCalcer</text>
<text text-anchor="middle" x="3457.12" y="-72.25" font-family="Helvetica,sans-Serif" font-size="10.00">_ProbGPULinear.cpp</text>
</a>
</g>
</g>
<!-- Node34&#45;&gt;Node35 -->
<g id="edge36_Node000034_Node000035" class="edge">
<title>Node34&#45;&gt;Node35</title>
<g id="a_edge36_Node000034_Node000035"><a xlink:title=" ">
<path fill="none" stroke="#63b8ff" d="M3457.12,-121.31C3457.12,-113.14 3457.12,-104.41 3457.12,-97.33"/>
<polygon fill="#63b8ff" stroke="#63b8ff" points="3453.63,-121.1 3457.13,-131.1 3460.63,-121.1 3453.63,-121.1"/>
</a>
</g>
</g>
<!-- Node36&#45;&gt;Node13 -->
<g id="edge38_Node000036_Node000013" class="edge">
<title>Node36&#45;&gt;Node13</title>
<g id="a_edge38_Node000036_Node000013"><a xlink:title=" ">
<path fill="none" stroke="#63b8ff" d="M1001.94,-135.89C1063.56,-123.36 1161.54,-103.42 1218.35,-91.86"/>
<polygon fill="#63b8ff" stroke="#63b8ff" points="1001.46,-132.42 992.35,-137.84 1002.85,-139.28 1001.46,-132.42"/>
</a>
</g>
</g>
<!-- Node37 -->
<g id="Node000037" class="node">
<title>Node37</title>
<g id="a_Node000037"><a xlink:href="OscillatorBinned_8h.html" target="_top" xlink:title=" ">
<polygon fill="white" stroke="#666666" points="868.62,-91.38 729.62,-91.38 729.62,-72.12 868.62,-72.12 868.62,-91.38"/>
<text text-anchor="middle" x="799.12" y="-77.88" font-family="Helvetica,sans-Serif" font-size="10.00">Oscillator/OscillatorBinned.h</text>
</a>
</g>
</g>
<!-- Node36&#45;&gt;Node37 -->
<g id="edge39_Node000036_Node000037" class="edge">
<title>Node36&#45;&gt;Node37</title>
<g id="a_edge39_Node000036_Node000037"><a xlink:title=" ">
<path fill="none" stroke="#63b8ff" d="M915.09,-133.63C886.39,-121.04 844.56,-102.69 819.77,-91.81"/>
<polygon fill="#63b8ff" stroke="#63b8ff" points="913.43,-136.72 923.99,-137.54 916.24,-130.31 913.43,-136.72"/>
</a>
</g>
</g>
<!-- Node40 -->
<g id="Node000040" class="node">
<title>Node40</title>
<g id="a_Node000040"><a xlink:href="OscillatorFactory_8h.html" target="_top" xlink:title=" ">
<polygon fill="white" stroke="#666666" points="609.75,-91.38 468.5,-91.38 468.5,-72.12 609.75,-72.12 609.75,-91.38"/>
<text text-anchor="middle" x="539.12" y="-77.88" font-family="Helvetica,sans-Serif" font-size="10.00">Oscillator/OscillatorFactory.h</text>
</a>
</g>
</g>
<!-- Node36&#45;&gt;Node40 -->
<g id="edge42_Node000036_Node000040" class="edge">
<title>Node36&#45;&gt;Node40</title>
<g id="a_edge42_Node000036_Node000040"><a xlink:title=" ">
<path fill="none" stroke="#63b8ff" d="M877.4,-136.36C798.49,-123.85 670.46,-103.56 596.61,-91.86"/>
<polygon fill="#63b8ff" stroke="#63b8ff" points="876.76,-139.8 887.18,-137.91 877.85,-132.89 876.76,-139.8"/>
</a>
</g>
</g>
<!-- Node41 -->
<g id="Node000041" class="node">
<title>Node41</title>
<g id="a_Node000041"><a xlink:href="OscillatorSubSampling_8h.html" target="_top" xlink:title=" ">
<polygon fill="white" stroke="#666666" points="1005.5,-97 886.75,-97 886.75,-66.5 1005.5,-66.5 1005.5,-97"/>
<text text-anchor="start" x="894.75" y="-83.5" font-family="Helvetica,sans-Serif" font-size="10.00">Oscillator/OscillatorSub</text>
<text text-anchor="middle" x="946.12" y="-72.25" font-family="Helvetica,sans-Serif" font-size="10.00">Sampling.h</text>
</a>
</g>
</g>
<!-- Node36&#45;&gt;Node41 -->
<g id="edge49_Node000036_Node000041" class="edge">
<title>Node36&#45;&gt;Node41</title>
<g id="a_edge49_Node000036_Node000041"><a xlink:title=" ">
<path fill="none" stroke="#63b8ff" d="M946.12,-126.87C946.12,-117.19 946.12,-105.85 946.12,-97.09"/>
<polygon fill="#63b8ff" stroke="#63b8ff" points="942.63,-126.77 946.13,-136.77 949.63,-126.77 942.63,-126.77"/>
</a>
</g>
</g>
<!-- Node43 -->
<g id="Node000043" class="node">
<title>Node43</title>
<g id="a_Node000043"><a xlink:href="OscillatorUnbinned_8h.html" target="_top" xlink:title=" ">
<polygon fill="white" stroke="#666666" points="1174.25,-91.38 1024,-91.38 1024,-72.12 1174.25,-72.12 1174.25,-91.38"/>
<text text-anchor="middle" x="1099.12" y="-77.88" font-family="Helvetica,sans-Serif" font-size="10.00">Oscillator/OscillatorUnbinned.h</text>
</a>
</g>
</g>
<!-- Node36&#45;&gt;Node43 -->
<g id="edge52_Node000036_Node000043" class="edge">
<title>Node36&#45;&gt;Node43</title>
<g id="a_edge52_Node000036_Node000043"><a xlink:title=" ">
<path fill="none" stroke="#63b8ff" d="M978.04,-133.8C1007.91,-121.2 1051.72,-102.74 1077.64,-91.81"/>
<polygon fill="#63b8ff" stroke="#63b8ff" points="976.97,-130.45 969.12,-137.56 979.69,-136.9 976.97,-130.45"/>
</a>
</g>
</g>
<!-- Node38 -->
<g id="Node000038" class="node">
<title>Node38</title>
<g id="a_Node000038"><a xlink:href="OscillatorBinned_8cpp.html" target="_top" xlink:title=" ">
<polygon fill="white" stroke="#666666" points="941.88,-24.88 792.38,-24.88 792.38,-5.63 941.88,-5.63 941.88,-24.88"/>
<text text-anchor="middle" x="867.12" y="-11.38" font-family="Helvetica,sans-Serif" font-size="10.00">Oscillator/OscillatorBinned.cpp</text>
</a>
</g>
</g>
<!-- Node37&#45;&gt;Node38 -->
<g id="edge40_Node000037_Node000038" class="edge">
<title>Node37&#45;&gt;Node38</title>
<g id="a_edge40_Node000037_Node000038"><a xlink:title=" ">
<path fill="none" stroke="#63b8ff" d="M816.83,-63.95C829.92,-51.54 847.23,-35.12 857.75,-25.14"/>
<polygon fill="#63b8ff" stroke="#63b8ff" points="814.52,-61.32 809.68,-70.74 819.34,-66.4 814.52,-61.32"/>
</a>
</g>
</g>
<!-- Node39 -->
<g id="Node000039" class="node">
<title>Node39</title>
<g id="a_Node000039"><a xlink:href="OscillatorFactory_8cpp.html" target="_top" xlink:title=" ">
<polygon fill="white" stroke="#666666" points="1112,-24.88 960.25,-24.88 960.25,-5.63 1112,-5.63 1112,-24.88"/>
<text text-anchor="middle" x="1036.12" y="-11.38" font-family="Helvetica,sans-Serif" font-size="10.00">Oscillator/OscillatorFactory.cpp</text>
</a>
</g>
</g>
<!-- Node37&#45;&gt;Node39 -->
<g id="edge41_Node000037_Node000039" class="edge">
<title>Node37&#45;&gt;Node39</title>
<g id="a_edge41_Node000037_Node000039"><a xlink:title=" ">
<path fill="none" stroke="#63b8ff" d="M843.48,-68.68C889.73,-56.09 961.19,-36.64 1002.84,-25.31"/>
<polygon fill="#63b8ff" stroke="#63b8ff" points="842.77,-65.24 834.04,-71.25 844.61,-72 842.77,-65.24"/>
</a>
</g>
</g>
<!-- Node40&#45;&gt;Node2 -->
<g id="edge43_Node000040_Node000002" class="edge">
<title>Node40&#45;&gt;Node2</title>
<g id="a_edge43_Node000040_Node000002"><a xlink:title=" ">
<path fill="none" stroke="#63b8ff" d="M456.58,-74.4C368.92,-66.91 226.53,-52.61 105.12,-30.5 97.4,-29.09 89.16,-27.24 81.42,-25.34"/>
<polygon fill="#63b8ff" stroke="#63b8ff" points="456.28,-77.89 466.54,-75.24 456.87,-70.91 456.28,-77.89"/>
</a>
</g>
</g>
<!-- Node40&#45;&gt;Node3 -->
<g id="edge44_Node000040_Node000003" class="edge">
<title>Node40&#45;&gt;Node3</title>
<g id="a_edge44_Node000040_Node000003"><a xlink:title=" ">
<path fill="none" stroke="#63b8ff" d="M482.12,-69.47C418.78,-56.94 317.71,-36.94 259.17,-25.36"/>
<polygon fill="#63b8ff" stroke="#63b8ff" points="481.13,-72.84 491.62,-71.35 482.49,-65.98 481.13,-72.84"/>
</a>
</g>
</g>
<!-- Node40&#45;&gt;Node4 -->
<g id="edge45_Node000040_Node000004" class="edge">
<title>Node40&#45;&gt;Node4</title>
<g id="a_edge45_Node000040_Node000004"><a xlink:title=" ">
<path fill="none" stroke="#63b8ff" d="M506.17,-67.3C475.32,-54.7 430.08,-36.24 403.31,-25.31"/>
<polygon fill="#63b8ff" stroke="#63b8ff" points="504.84,-70.53 515.42,-71.07 507.49,-64.05 504.84,-70.53"/>
</a>
</g>
</g>
<!-- Node40&#45;&gt;Node6 -->
<g id="edge46_Node000040_Node000006" class="edge">
<title>Node40&#45;&gt;Node6</title>
<g id="a_edge46_Node000040_Node000006"><a xlink:title=" ">
<path fill="none" stroke="#63b8ff" d="M539.12,-60.27C539.12,-48.44 539.12,-34.16 539.12,-25.14"/>
<polygon fill="#63b8ff" stroke="#63b8ff" points="535.63,-60.27 539.13,-70.27 542.63,-60.27 535.63,-60.27"/>
</a>
</g>
</g>
<!-- Node40&#45;&gt;Node8 -->
<g id="edge47_Node000040_Node000008" class="edge">
<title>Node40&#45;&gt;Node8</title>
<g id="a_edge47_Node000040_Node000008"><a xlink:title=" ">
<path fill="none" stroke="#63b8ff" d="M573.92,-67.63C607.32,-55.03 656.89,-36.33 686.11,-25.31"/>
<polygon fill="#63b8ff" stroke="#63b8ff" points="572.8,-64.31 564.68,-71.11 575.27,-70.86 572.8,-64.31"/>
</a>
</g>
</g>
<!-- Node40&#45;&gt;Node39 -->
<g id="edge48_Node000040_Node000039" class="edge">
<title>Node40&#45;&gt;Node39</title>
<g id="a_edge48_Node000040_Node000039"><a xlink:title=" ">
<path fill="none" stroke="#63b8ff" d="M621.39,-71.81C704.65,-62.51 837.04,-47.01 951.12,-30.5 961.79,-28.96 973.18,-27.15 984.04,-25.36"/>
<polygon fill="#63b8ff" stroke="#63b8ff" points="621.02,-68.33 611.47,-72.92 621.8,-75.29 621.02,-68.33"/>
</a>
</g>
</g>
<!-- Node41&#45;&gt;Node39 -->
<g id="edge50_Node000041_Node000039" class="edge">
<title>Node41&#45;&gt;Node39</title>
<g id="a_edge50_Node000041_Node000039"><a xlink:title=" ">
<path fill="none" stroke="#63b8ff" d="M975.68,-59.57C991.92,-47.93 1011.21,-34.11 1023.55,-25.26"/>
<polygon fill="#63b8ff" stroke="#63b8ff" points="973.87,-56.56 967.78,-65.23 977.94,-62.25 973.87,-56.56"/>
</a>
</g>
</g>
<!-- Node42 -->
<g id="Node000042" class="node">
<title>Node42</title>
<g id="a_Node000042"><a xlink:href="OscillatorSubSampling_8cpp.html" target="_top" xlink:title=" ">
<polygon fill="white" stroke="#666666" points="1248.5,-30.5 1129.75,-30.5 1129.75,0 1248.5,0 1248.5,-30.5"/>
<text text-anchor="start" x="1137.75" y="-17" font-family="Helvetica,sans-Serif" font-size="10.00">Oscillator/OscillatorSub</text>
<text text-anchor="middle" x="1189.12" y="-5.75" font-family="Helvetica,sans-Serif" font-size="10.00">Sampling.cpp</text>
</a>
</g>
</g>
<!-- Node41&#45;&gt;Node42 -->
<g id="edge51_Node000041_Node000042" class="edge">
<title>Node41&#45;&gt;Node42</title>
<g id="a_edge51_Node000041_Node000042"><a xlink:title=" ">
<path fill="none" stroke="#63b8ff" d="M1012.56,-63.12C1050.65,-53.01 1097.89,-40.47 1133.92,-30.9"/>
<polygon fill="#63b8ff" stroke="#63b8ff" points="1011.8,-59.7 1003.03,-65.64 1013.6,-66.46 1011.8,-59.7"/>
</a>
</g>
</g>
<!-- Node43&#45;&gt;Node39 -->
<g id="edge53_Node000043_Node000039" class="edge">
<title>Node43&#45;&gt;Node39</title>
<g id="a_edge53_Node000043_Node000039"><a xlink:title=" ">
<path fill="none" stroke="#63b8ff" d="M1082.37,-63.59C1070.29,-51.22 1054.46,-35.03 1044.81,-25.14"/>
<polygon fill="#63b8ff" stroke="#63b8ff" points="1079.82,-65.99 1089.31,-70.7 1084.82,-61.1 1079.82,-65.99"/>
</a>
</g>
</g>
<!-- Node44 -->
<g id="Node000044" class="node">
<title>Node44</title>
<g id="a_Node000044"><a xlink:href="OscillatorUnbinned_8cpp.html" target="_top" xlink:title=" ">
<polygon fill="white" stroke="#666666" points="1427.5,-24.88 1266.75,-24.88 1266.75,-5.63 1427.5,-5.63 1427.5,-24.88"/>
<text text-anchor="middle" x="1347.12" y="-11.38" font-family="Helvetica,sans-Serif" font-size="10.00">Oscillator/OscillatorUnbinned.cpp</text>
</a>
</g>
</g>
<!-- Node43&#45;&gt;Node44 -->
<g id="edge54_Node000043_Node000044" class="edge">
<title>Node43&#45;&gt;Node44</title>
<g id="a_edge54_Node000043_Node000044"><a xlink:title=" ">
<path fill="none" stroke="#63b8ff" d="M1145.23,-68.76C1193.62,-56.17 1268.62,-36.67 1312.3,-25.31"/>
<polygon fill="#63b8ff" stroke="#63b8ff" points="1144.39,-65.36 1135.6,-71.26 1146.16,-72.13 1144.39,-65.36"/>
</a>
</g>
</g>
</g>
</svg>
