<?xml version="1.0" encoding="UTF-8" standalone="no"?>
<!DOCTYPE svg PUBLIC "-//W3C//DTD SVG 1.1//EN"
 "http://www.w3.org/Graphics/SVG/1.1/DTD/svg11.dtd">
<!-- Generated by graphviz version 12.2.0 (20241103.1931)
 -->
<!-- Title: Oscillator/OscillatorBinned.h Pages: 1 -->
<svg width="472pt" height="260pt"
 viewBox="0.00 0.00 471.88 259.50" xmlns="http://www.w3.org/2000/svg" xmlns:xlink="http://www.w3.org/1999/xlink">

<svg id="main" version="1.1" xmlns="http://www.w3.org/2000/svg" xmlns:xlink="http://www.w3.org/1999/xlink" xml:space="preserve">

<style type="text/css"><![CDATA[
.node, .edge {opacity: 0.7;}
.node.selected, .edge.selected {opacity: 1;}
.edge:hover path { stroke: red; }
.edge:hover polygon { stroke: red; fill: red; }
]]></style>
<script type="application/ecmascript" xlink:href="svg.min.js"/>
<svg id="graph" class="graph">
<g id="graph0" class="graph" transform="scale(1 1) rotate(0) translate(4 255.5)">
<title>Oscillator/OscillatorBinned.h</title>
<!-- Node1 -->
<g id="Node000001" class="node">
<title>Node1</title>
<g id="a_Node000001"><a xlink:title=" ">
<polygon fill="#999999" stroke="#666666" points="278.38,-251.5 139.38,-251.5 139.38,-232.25 278.38,-232.25 278.38,-251.5"/>
<text text-anchor="middle" x="208.88" y="-238" font-family="Helvetica,sans-Serif" font-size="10.00">Oscillator/OscillatorBinned.h</text>
</a>
</g>
</g>
<!-- Node2 -->
<g id="Node000002" class="node">
<title>Node2</title>
<g id="a_Node000002"><a xlink:href="OscillatorBase_8h.html" target="_top" xlink:title=" ">
<polygon fill="white" stroke="#666666" points="252.5,-196.25 165.25,-196.25 165.25,-177 252.5,-177 252.5,-196.25"/>
<text text-anchor="middle" x="208.88" y="-182.75" font-family="Helvetica,sans-Serif" font-size="10.00">OscillatorBase.h</text>
</a>
</g>
</g>
<!-- Node1&#45;&gt;Node2 -->
<g id="edge1_Node000001_Node000002" class="edge">
<title>Node1&#45;&gt;Node2</title>
<g id="a_edge1_Node000001_Node000002"><a xlink:title=" ">
<path fill="none" stroke="#63b8ff" d="M208.88,-232.08C208.88,-225.57 208.88,-216.42 208.88,-208.12"/>
<polygon fill="#63b8ff" stroke="#63b8ff" points="212.38,-208.12 208.88,-198.12 205.38,-208.12 212.38,-208.12"/>
</a>
</g>
</g>
<!-- Node3 -->
<g id="Node000003" class="node">
<title>Node3</title>
<g id="a_Node000003"><a xlink:href="OscProbCalcerBase_8h.html" target="_top" xlink:title=" ">
<polygon fill="white" stroke="#666666" points="388.38,-141 237.38,-141 237.38,-110.5 388.38,-110.5 388.38,-141"/>
<text text-anchor="start" x="245.38" y="-127.5" font-family="Helvetica,sans-Serif" font-size="10.00">OscProbCalcer/OscProbCalcer</text>
<text text-anchor="middle" x="312.88" y="-116.25" font-family="Helvetica,sans-Serif" font-size="10.00">Base.h</text>
</a>
</g>
</g>
<!-- Node2&#45;&gt;Node3 -->
<g id="edge2_Node000002_Node000003" class="edge">
<title>Node2&#45;&gt;Node3</title>
<g id="a_edge2_Node000002_Node000003"><a xlink:title=" ">
<path fill="none" stroke="#63b8ff" d="M224.67,-176.68C238.61,-168.79 259.43,-157.01 277.34,-146.87"/>
<polygon fill="#63b8ff" stroke="#63b8ff" points="278.91,-150 285.89,-142.03 275.46,-143.91 278.91,-150"/>
</a>
</g>
</g>
<!-- Node4 -->
<g id="Node000004" class="node">
<title>Node4</title>
<g id="a_Node000004"><a xlink:href="OscillatorConstants_8h.html" target="_top" xlink:title=" ">
<polygon fill="white" stroke="#666666" points="339,-74.5 182.75,-74.5 182.75,-55.25 339,-55.25 339,-74.5"/>
<text text-anchor="middle" x="260.88" y="-61" font-family="Helvetica,sans-Serif" font-size="10.00">Constants/OscillatorConstants.h</text>
</a>
</g>
</g>
<!-- Node2&#45;&gt;Node4 -->
<g id="edge14_Node000002_Node000004" class="edge">
<title>Node2&#45;&gt;Node4</title>
<g id="a_edge14_Node000002_Node000004"><a xlink:title=" ">
<path fill="none" stroke="#63b8ff" d="M210.14,-176.94C212.46,-162.57 218.16,-133.2 228.88,-110.5 233.34,-101.04 239.85,-91.5 245.84,-83.68"/>
<polygon fill="#63b8ff" stroke="#63b8ff" points="248.47,-86 252,-76.01 243.01,-81.61 248.47,-86"/>
</a>
</g>
</g>
<!-- Node6 -->
<g id="Node000006" class="node">
<title>Node6</title>
<g id="a_Node000006"><a xlink:title=" ">
<polygon fill="#e0e0e0" stroke="#999999" points="85.75,-19.25 0,-19.25 0,0 85.75,0 85.75,-19.25"/>
<text text-anchor="middle" x="42.88" y="-5.75" font-family="Helvetica,sans-Serif" font-size="10.00">yaml&#45;cpp/yaml.h</text>
</a>
</g>
</g>
<!-- Node2&#45;&gt;Node6 -->
<g id="edge15_Node000002_Node000006" class="edge">
<title>Node2&#45;&gt;Node6</title>
<g id="a_edge15_Node000002_Node000006"><a xlink:title=" ">
<path fill="none" stroke="#63b8ff" d="M200.41,-176.71C174.22,-149.1 94.15,-64.68 59.33,-27.98"/>
<polygon fill="#63b8ff" stroke="#63b8ff" points="61.98,-25.68 52.56,-20.83 56.9,-30.5 61.98,-25.68"/>
</a>
</g>
</g>
<!-- Node3&#45;&gt;Node4 -->
<g id="edge3_Node000003_Node000004" class="edge">
<title>Node3&#45;&gt;Node4</title>
<g id="a_edge3_Node000003_Node000004"><a xlink:title=" ">
<path fill="none" stroke="#63b8ff" d="M300.02,-110.2C292.86,-102.09 283.91,-91.95 276.36,-83.41"/>
<polygon fill="#63b8ff" stroke="#63b8ff" points="279.14,-81.26 269.89,-76.09 273.89,-85.9 279.14,-81.26"/>
</a>
</g>
</g>
<!-- Node3&#45;&gt;Node6 -->
<g id="edge13_Node000003_Node000006" class="edge">
<title>Node3&#45;&gt;Node6</title>
<g id="a_edge13_Node000003_Node000006"><a xlink:title=" ">
<path fill="none" stroke="#63b8ff" d="M268.59,-110.09C241.05,-100.65 205.07,-87.7 173.88,-74.5 137.21,-58.99 96.14,-38.42 69.92,-24.87"/>
<polygon fill="#63b8ff" stroke="#63b8ff" points="71.81,-21.9 61.32,-20.39 68.58,-28.11 71.81,-21.9"/>
</a>
</g>
</g>
<!-- Node9 -->
<g id="Node000009" class="node">
<title>Node9</title>
<g id="a_Node000009"><a xlink:title=" ">
<polygon fill="#e0e0e0" stroke="#999999" points="463.88,-19.25 423.88,-19.25 423.88,0 463.88,0 463.88,-19.25"/>
<text text-anchor="middle" x="443.88" y="-5.75" font-family="Helvetica,sans-Serif" font-size="10.00">string</text>
</a>
</g>
</g>
<!-- Node3&#45;&gt;Node9 -->
<g id="edge12_Node000003_Node000009" class="edge">
<title>Node3&#45;&gt;Node9</title>
<g id="a_edge12_Node000003_Node000009"><a xlink:title=" ">
<path fill="none" stroke="#63b8ff" d="M329.73,-110.06C354.23,-88.72 399.52,-49.27 425.06,-27.01"/>
<polygon fill="#63b8ff" stroke="#63b8ff" points="427.13,-29.86 432.37,-20.65 422.53,-24.58 427.13,-29.86"/>
</a>
</g>
</g>
<!-- Node11 -->
<g id="Node000011" class="node">
<title>Node11</title>
<g id="a_Node000011"><a xlink:title=" ">
<polygon fill="#e0e0e0" stroke="#999999" points="405.38,-19.25 362.38,-19.25 362.38,0 405.38,0 405.38,-19.25"/>
<text text-anchor="middle" x="383.88" y="-5.75" font-family="Helvetica,sans-Serif" font-size="10.00">vector</text>
</a>
</g>
</g>
<!-- Node3&#45;&gt;Node11 -->
<g id="edge11_Node000003_Node000011" class="edge">
<title>Node3&#45;&gt;Node11</title>
<g id="a_edge11_Node000003_Node000011"><a xlink:title=" ">
<path fill="none" stroke="#63b8ff" d="M323.67,-110.05C330.79,-100.16 340.18,-86.74 347.88,-74.5 357.2,-59.66 366.9,-42.31 373.89,-29.44"/>
<polygon fill="#63b8ff" stroke="#63b8ff" points="376.88,-31.26 378.53,-20.79 370.71,-27.95 376.88,-31.26"/>
</a>
</g>
</g>
<!-- Node5 -->
<g id="Node000005" class="node">
<title>Node5</title>
<g id="a_Node000005"><a xlink:title=" ">
<polygon fill="#e0e0e0" stroke="#999999" points="220.5,-19.25 175.25,-19.25 175.25,0 220.5,0 220.5,-19.25"/>
<text text-anchor="middle" x="197.88" y="-5.75" font-family="Helvetica,sans-Serif" font-size="10.00">math.h</text>
</a>
</g>
</g>
<!-- Node4&#45;&gt;Node5 -->
<g id="edge4_Node000004_Node000005" class="edge">
<title>Node4&#45;&gt;Node5</title>
<g id="a_edge4_Node000004_Node000005"><a xlink:title=" ">
<path fill="none" stroke="#63b8ff" d="M250.19,-54.84C241.17,-47.22 228.04,-36.12 217.19,-26.95"/>
<polygon fill="#63b8ff" stroke="#63b8ff" points="219.46,-24.28 209.56,-20.5 214.94,-29.63 219.46,-24.28"/>
</a>
</g>
</g>
<!-- Node4&#45;&gt;Node6 -->
<g id="edge5_Node000004_Node000006" class="edge">
<title>Node4&#45;&gt;Node6</title>
<g id="a_edge5_Node000004_Node000006"><a xlink:title=" ">
<path fill="none" stroke="#63b8ff" d="M223.89,-54.84C187.33,-45.91 131.2,-32.2 91.14,-22.41"/>
<polygon fill="#63b8ff" stroke="#63b8ff" points="92.05,-19.03 81.51,-20.06 90.39,-25.83 92.05,-19.03"/>
</a>
</g>
</g>
<!-- Node7 -->
<g id="Node000007" class="node">
<title>Node7</title>
<g id="a_Node000007"><a xlink:title=" ">
<polygon fill="#e0e0e0" stroke="#999999" points="283.5,-19.25 238.25,-19.25 238.25,0 283.5,0 283.5,-19.25"/>
<text text-anchor="middle" x="260.88" y="-5.75" font-family="Helvetica,sans-Serif" font-size="10.00">TFile.h</text>
</a>
</g>
</g>
<!-- Node4&#45;&gt;Node7 -->
<g id="edge6_Node000004_Node000007" class="edge">
<title>Node4&#45;&gt;Node7</title>
<g id="a_edge6_Node000004_Node000007"><a xlink:title=" ">
<path fill="none" stroke="#63b8ff" d="M260.88,-55.08C260.88,-48.57 260.88,-39.42 260.88,-31.12"/>
<polygon fill="#63b8ff" stroke="#63b8ff" points="264.38,-31.12 260.88,-21.12 257.38,-31.12 264.38,-31.12"/>
</a>
</g>
</g>
<!-- Node8 -->
<g id="Node000008" class="node">
<title>Node8</title>
<g id="a_Node000008"><a xlink:title=" ">
<polygon fill="#e0e0e0" stroke="#999999" points="344,-19.25 301.75,-19.25 301.75,0 344,0 344,-19.25"/>
<text text-anchor="middle" x="322.88" y="-5.75" font-family="Helvetica,sans-Serif" font-size="10.00">TH1.h</text>
</a>
</g>
</g>
<!-- Node4&#45;&gt;Node8 -->
<g id="edge7_Node000004_Node000008" class="edge">
<title>Node4&#45;&gt;Node8</title>
<g id="a_edge7_Node000004_Node000008"><a xlink:title=" ">
<path fill="none" stroke="#63b8ff" d="M271.39,-54.84C280.26,-47.22 293.19,-36.12 303.86,-26.95"/>
<polygon fill="#63b8ff" stroke="#63b8ff" points="306.06,-29.68 311.36,-20.51 301.5,-24.37 306.06,-29.68"/>
</a>
</g>
</g>
<!-- Node4&#45;&gt;Node9 -->
<g id="edge8_Node000004_Node000009" class="edge">
<title>Node4&#45;&gt;Node9</title>
<g id="a_edge8_Node000004_Node000009"><a xlink:title=" ">
<path fill="none" stroke="#63b8ff" d="M292.45,-54.79C321.34,-46.47 365.56,-33.7 412.57,-19.91"/>
<polygon fill="#63b8ff" stroke="#63b8ff" points="413.54,-23.28 422.15,-17.1 411.57,-16.56 413.54,-23.28"/>
</a>
</g>
</g>
<!-- Node10 -->
<g id="Node000010" class="node">
<title>Node10</title>
<g id="a_Node000010"><a xlink:title=" ">
<polygon fill="#e0e0e0" stroke="#999999" points="157.62,-19.25 104.12,-19.25 104.12,0 157.62,0 157.62,-19.25"/>
<text text-anchor="middle" x="130.88" y="-5.75" font-family="Helvetica,sans-Serif" font-size="10.00">iostream</text>
</a>
</g>
</g>
<!-- Node4&#45;&gt;Node10 -->
<g id="edge9_Node000004_Node000010" class="edge">
<title>Node4&#45;&gt;Node10</title>
<g id="a_edge9_Node000004_Node000010"><a xlink:title=" ">
<path fill="none" stroke="#63b8ff" d="M238.82,-54.84C218.19,-46.39 187.09,-33.65 163.57,-24.02"/>
<polygon fill="#63b8ff" stroke="#63b8ff" points="165.02,-20.83 154.44,-20.28 162.36,-27.31 165.02,-20.83"/>
</a>
</g>
</g>
<!-- Node4&#45;&gt;Node11 -->
<g id="edge10_Node000004_Node000011" class="edge">
<title>Node4&#45;&gt;Node11</title>
<g id="a_edge10_Node000004_Node000011"><a xlink:title=" ">
<path fill="none" stroke="#63b8ff" d="M281.74,-54.84C301.18,-46.43 330.42,-33.77 352.64,-24.15"/>
<polygon fill="#63b8ff" stroke="#63b8ff" points="353.73,-27.49 361.52,-20.3 350.95,-21.06 353.73,-27.49"/>
</a>
</g>
</g>
</g>
</svg>
</svg>

<style type='text/css'>
<![CDATA[
[data-mouse-over-selected='false'] { opacity: 0.7; }
[data-mouse-over-selected='true']  { opacity: 1.0; }
]]>
</style>
<script type="application/ecmascript"><![CDATA[
document.addEventListener('DOMContentLoaded', (event) => {
  highlightEdges();
  highlightAdjacentNodes();
});
]]></script>
</svg>
