<?xml version="1.0" encoding="UTF-8" standalone="no"?>
<!DOCTYPE svg PUBLIC "-//W3C//DTD SVG 1.1//EN"
 "http://www.w3.org/Graphics/SVG/1.1/DTD/svg11.dtd">
<!-- Generated by graphviz version 9.0.0 (20230911.1827)
 -->
<!-- Title: Oscillator/OscillatorBinned.h Pages: 1 -->
<svg width="328pt" height="83pt"
 viewBox="0.00 0.00 327.62 82.50" xmlns="http://www.w3.org/2000/svg" xmlns:xlink="http://www.w3.org/1999/xlink">
<g id="graph0" class="graph" transform="scale(1 1) rotate(0) translate(4 78.5)">
<title>Oscillator/OscillatorBinned.h</title>
<!-- Node1 -->
<g id="Node000001" class="node">
<title>Node1</title>
<g id="a_Node000001"><a xlink:title=" ">
<polygon fill="#999999" stroke="#666666" points="228.25,-74.5 89.25,-74.5 89.25,-55.25 228.25,-55.25 228.25,-74.5"/>
<text text-anchor="middle" x="158.75" y="-61" font-family="Helvetica,sans-Serif" font-size="10.00">Oscillator/OscillatorBinned.h</text>
</a>
</g>
</g>
<!-- Node2 -->
<g id="Node000002" class="node">
<title>Node2</title>
<g id="a_Node000002"><a xlink:href="OscillatorBinned_8cpp.html" target="_top" xlink:title=" ">
<polygon fill="white" stroke="#666666" points="149.5,-19.25 0,-19.25 0,0 149.5,0 149.5,-19.25"/>
<text text-anchor="middle" x="74.75" y="-5.75" font-family="Helvetica,sans-Serif" font-size="10.00">Oscillator/OscillatorBinned.cpp</text>
</a>
</g>
</g>
<!-- Node1&#45;&gt;Node2 -->
<g id="edge1_Node000001_Node000002" class="edge">
<title>Node1&#45;&gt;Node2</title>
<g id="a_edge1_Node000001_Node000002"><a xlink:title=" ">
<path fill="none" stroke="#63b8ff" d="M134.98,-48.8C120.18,-39.42 101.64,-27.67 89.07,-19.7"/>
<polygon fill="#63b8ff" stroke="#63b8ff" points="132.9,-51.63 143.22,-54.03 136.65,-45.72 132.9,-51.63"/>
</a>
</g>
</g>
<!-- Node3 -->
<g id="Node000003" class="node">
<title>Node3</title>
<g id="a_Node000003"><a xlink:href="OscillatorFactory_8cpp.html" target="_top" xlink:title=" ">
<polygon fill="white" stroke="#666666" points="319.62,-19.25 167.88,-19.25 167.88,0 319.62,0 319.62,-19.25"/>
<text text-anchor="middle" x="243.75" y="-5.75" font-family="Helvetica,sans-Serif" font-size="10.00">Oscillator/OscillatorFactory.cpp</text>
</a>
</g>
</g>
<!-- Node1&#45;&gt;Node3 -->
<g id="edge2_Node000001_Node000003" class="edge">
<title>Node1&#45;&gt;Node3</title>
<g id="a_edge2_Node000001_Node000003"><a xlink:title=" ">
<path fill="none" stroke="#63b8ff" d="M182.81,-48.8C197.78,-39.42 216.54,-27.67 229.26,-19.7"/>
<polygon fill="#63b8ff" stroke="#63b8ff" points="181.07,-45.76 174.45,-54.04 184.78,-51.7 181.07,-45.76"/>
</a>
</g>
</g>
</g>
</svg>
