<?xml version="1.0" encoding="UTF-8" standalone="no"?>
<!DOCTYPE svg PUBLIC "-//W3C//DTD SVG 1.1//EN"
 "http://www.w3.org/Graphics/SVG/1.1/DTD/svg11.dtd">
<!-- Generated by graphviz version 9.0.0 (20230911.1827)
 -->
<!-- Title: Oscillator/OscillatorUnbinned.cpp Pages: 1 -->
<svg width="473pt" height="315pt"
 viewBox="0.00 0.00 472.62 314.75" xmlns="http://www.w3.org/2000/svg" xmlns:xlink="http://www.w3.org/1999/xlink">
<g id="graph0" class="graph" transform="scale(1 1) rotate(0) translate(4 310.75)">
<title>Oscillator/OscillatorUnbinned.cpp</title>
<!-- Node1 -->
<g id="Node000001" class="node">
<title>Node1</title>
<g id="a_Node000001"><a xlink:title=" ">
<polygon fill="#999999" stroke="#666666" points="407.25,-306.75 246.5,-306.75 246.5,-287.5 407.25,-287.5 407.25,-306.75"/>
<text text-anchor="middle" x="326.88" y="-293.25" font-family="Helvetica,sans-Serif" font-size="10.00">Oscillator/OscillatorUnbinned.cpp</text>
</a>
</g>
</g>
<!-- Node2 -->
<g id="Node000002" class="node">
<title>Node2</title>
<g id="a_Node000002"><a xlink:href="OscillatorUnbinned_8h.html" target="_top" xlink:title=" ">
<polygon fill="white" stroke="#666666" points="351,-251.5 200.75,-251.5 200.75,-232.25 351,-232.25 351,-251.5"/>
<text text-anchor="middle" x="275.88" y="-238" font-family="Helvetica,sans-Serif" font-size="10.00">Oscillator/OscillatorUnbinned.h</text>
</a>
</g>
</g>
<!-- Node1&#45;&gt;Node2 -->
<g id="edge1_Node000001_Node000002" class="edge">
<title>Node1&#45;&gt;Node2</title>
<g id="a_edge1_Node000001_Node000002"><a xlink:title=" ">
<path fill="none" stroke="#63b8ff" d="M318.45,-287.33C311.34,-279.9 300.93,-269.04 292.19,-259.91"/>
<polygon fill="#63b8ff" stroke="#63b8ff" points="294.97,-257.75 285.53,-252.95 289.92,-262.6 294.97,-257.75"/>
</a>
</g>
</g>
<!-- Node11 -->
<g id="Node000011" class="node">
<title>Node11</title>
<g id="a_Node000011"><a xlink:title=" ">
<polygon fill="#e0e0e0" stroke="#999999" points="464.62,-19.25 411.12,-19.25 411.12,0 464.62,0 464.62,-19.25"/>
<text text-anchor="middle" x="437.88" y="-5.75" font-family="Helvetica,sans-Serif" font-size="10.00">iostream</text>
</a>
</g>
</g>
<!-- Node1&#45;&gt;Node11 -->
<g id="edge17_Node000001_Node000011" class="edge">
<title>Node1&#45;&gt;Node11</title>
<g id="a_edge17_Node000001_Node000011"><a xlink:title=" ">
<path fill="none" stroke="#63b8ff" d="M345.95,-287.11C375.97,-271.44 430.88,-236.16 430.88,-187.62 430.88,-187.62 430.88,-187.62 430.88,-124.75 430.88,-91.74 433.83,-53.46 435.9,-30.69"/>
<polygon fill="#63b8ff" stroke="#63b8ff" points="439.36,-31.28 436.82,-21 432.39,-30.62 439.36,-31.28"/>
</a>
</g>
</g>
<!-- Node3 -->
<g id="Node000003" class="node">
<title>Node3</title>
<g id="a_Node000003"><a xlink:href="OscillatorBase_8h.html" target="_top" xlink:title=" ">
<polygon fill="white" stroke="#666666" points="281.5,-196.25 194.25,-196.25 194.25,-177 281.5,-177 281.5,-196.25"/>
<text text-anchor="middle" x="237.88" y="-182.75" font-family="Helvetica,sans-Serif" font-size="10.00">OscillatorBase.h</text>
</a>
</g>
</g>
<!-- Node2&#45;&gt;Node3 -->
<g id="edge2_Node000002_Node000003" class="edge">
<title>Node2&#45;&gt;Node3</title>
<g id="a_edge2_Node000002_Node000003"><a xlink:title=" ">
<path fill="none" stroke="#63b8ff" d="M269.6,-232.08C264.52,-224.96 257.18,-214.68 250.84,-205.8"/>
<polygon fill="#63b8ff" stroke="#63b8ff" points="253.82,-203.95 245.17,-197.84 248.13,-208.01 253.82,-203.95"/>
</a>
</g>
</g>
<!-- Node4 -->
<g id="Node000004" class="node">
<title>Node4</title>
<g id="a_Node000004"><a xlink:href="OscProbCalcerBase_8h.html" target="_top" xlink:title=" ">
<polygon fill="white" stroke="#666666" points="391.38,-141 240.38,-141 240.38,-110.5 391.38,-110.5 391.38,-141"/>
<text text-anchor="start" x="248.38" y="-127.5" font-family="Helvetica,sans-Serif" font-size="10.00">OscProbCalcer/OscProbCalcer</text>
<text text-anchor="middle" x="315.88" y="-116.25" font-family="Helvetica,sans-Serif" font-size="10.00">Base.h</text>
</a>
</g>
</g>
<!-- Node3&#45;&gt;Node4 -->
<g id="edge3_Node000003_Node000004" class="edge">
<title>Node3&#45;&gt;Node4</title>
<g id="a_edge3_Node000003_Node000004"><a xlink:title=" ">
<path fill="none" stroke="#63b8ff" d="M249.72,-176.68C259.74,-169.12 274.49,-157.99 287.53,-148.15"/>
<polygon fill="#63b8ff" stroke="#63b8ff" points="289.54,-151.01 295.41,-142.19 285.32,-145.42 289.54,-151.01"/>
</a>
</g>
</g>
<!-- Node5 -->
<g id="Node000005" class="node">
<title>Node5</title>
<g id="a_Node000005"><a xlink:href="OscillatorConstants_8h.html" target="_top" xlink:title=" ">
<polygon fill="white" stroke="#666666" points="290,-74.5 133.75,-74.5 133.75,-55.25 290,-55.25 290,-74.5"/>
<text text-anchor="middle" x="211.88" y="-61" font-family="Helvetica,sans-Serif" font-size="10.00">Constants/OscillatorConstants.h</text>
</a>
</g>
</g>
<!-- Node3&#45;&gt;Node5 -->
<g id="edge15_Node000003_Node000005" class="edge">
<title>Node3&#45;&gt;Node5</title>
<g id="a_edge15_Node000003_Node000005"><a xlink:title=" ">
<path fill="none" stroke="#63b8ff" d="M235.92,-176.62C231.76,-157.47 221.95,-112.26 216.22,-85.9"/>
<polygon fill="#63b8ff" stroke="#63b8ff" points="219.72,-85.49 214.17,-76.46 212.87,-86.97 219.72,-85.49"/>
</a>
</g>
</g>
<!-- Node7 -->
<g id="Node000007" class="node">
<title>Node7</title>
<g id="a_Node000007"><a xlink:title=" ">
<polygon fill="#e0e0e0" stroke="#999999" points="85.75,-19.25 0,-19.25 0,0 85.75,0 85.75,-19.25"/>
<text text-anchor="middle" x="42.88" y="-5.75" font-family="Helvetica,sans-Serif" font-size="10.00">yaml&#45;cpp/yaml.h</text>
</a>
</g>
</g>
<!-- Node3&#45;&gt;Node7 -->
<g id="edge16_Node000003_Node000007" class="edge">
<title>Node3&#45;&gt;Node7</title>
<g id="a_edge16_Node000003_Node000007"><a xlink:title=" ">
<path fill="none" stroke="#63b8ff" d="M223.61,-176.63C196.29,-159.02 135.43,-117.89 91.88,-74.5 77.81,-60.49 64.27,-42.36 55,-29"/>
<polygon fill="#63b8ff" stroke="#63b8ff" points="57.91,-27.05 49.4,-20.73 52.11,-30.97 57.91,-27.05"/>
</a>
</g>
</g>
<!-- Node4&#45;&gt;Node5 -->
<g id="edge4_Node000004_Node000005" class="edge">
<title>Node4&#45;&gt;Node5</title>
<g id="a_edge4_Node000004_Node000005"><a xlink:title=" ">
<path fill="none" stroke="#63b8ff" d="M289.9,-110.05C273.91,-100.99 253.49,-89.44 237.56,-80.41"/>
<polygon fill="#63b8ff" stroke="#63b8ff" points="239.57,-77.53 229.14,-75.65 236.12,-83.62 239.57,-77.53"/>
</a>
</g>
</g>
<!-- Node4&#45;&gt;Node7 -->
<g id="edge14_Node000004_Node000007" class="edge">
<title>Node4&#45;&gt;Node7</title>
<g id="a_edge14_Node000004_Node000007"><a xlink:title=" ">
<path fill="none" stroke="#63b8ff" d="M239.9,-112.13C203.82,-104.32 160.83,-92.29 124.88,-74.5 100,-62.19 75.41,-41.61 59.75,-27.15"/>
<polygon fill="#63b8ff" stroke="#63b8ff" points="62.39,-24.83 52.72,-20.49 57.57,-29.91 62.39,-24.83"/>
</a>
</g>
</g>
<!-- Node10 -->
<g id="Node000010" class="node">
<title>Node10</title>
<g id="a_Node000010"><a xlink:title=" ">
<polygon fill="#e0e0e0" stroke="#999999" points="392.88,-19.25 352.88,-19.25 352.88,0 392.88,0 392.88,-19.25"/>
<text text-anchor="middle" x="372.88" y="-5.75" font-family="Helvetica,sans-Serif" font-size="10.00">string</text>
</a>
</g>
</g>
<!-- Node4&#45;&gt;Node10 -->
<g id="edge13_Node000004_Node000010" class="edge">
<title>Node4&#45;&gt;Node10</title>
<g id="a_edge13_Node000004_Node000010"><a xlink:title=" ">
<path fill="none" stroke="#63b8ff" d="M323.09,-110.3C333.29,-89.87 351.94,-52.54 363.29,-29.81"/>
<polygon fill="#63b8ff" stroke="#63b8ff" points="366.33,-31.56 367.67,-21.05 360.07,-28.43 366.33,-31.56"/>
</a>
</g>
</g>
<!-- Node12 -->
<g id="Node000012" class="node">
<title>Node12</title>
<g id="a_Node000012"><a xlink:title=" ">
<polygon fill="#e0e0e0" stroke="#999999" points="334.38,-19.25 291.38,-19.25 291.38,0 334.38,0 334.38,-19.25"/>
<text text-anchor="middle" x="312.88" y="-5.75" font-family="Helvetica,sans-Serif" font-size="10.00">vector</text>
</a>
</g>
</g>
<!-- Node4&#45;&gt;Node12 -->
<g id="edge12_Node000004_Node000012" class="edge">
<title>Node4&#45;&gt;Node12</title>
<g id="a_edge12_Node000004_Node000012"><a xlink:title=" ">
<path fill="none" stroke="#63b8ff" d="M315.5,-110.3C314.97,-90.25 314.01,-53.9 313.41,-31.07"/>
<polygon fill="#63b8ff" stroke="#63b8ff" points="316.91,-31.12 313.15,-21.21 309.92,-31.3 316.91,-31.12"/>
</a>
</g>
</g>
<!-- Node6 -->
<g id="Node000006" class="node">
<title>Node6</title>
<g id="a_Node000006"><a xlink:title=" ">
<polygon fill="#e0e0e0" stroke="#999999" points="149.5,-19.25 104.25,-19.25 104.25,0 149.5,0 149.5,-19.25"/>
<text text-anchor="middle" x="126.88" y="-5.75" font-family="Helvetica,sans-Serif" font-size="10.00">math.h</text>
</a>
</g>
</g>
<!-- Node5&#45;&gt;Node6 -->
<g id="edge5_Node000005_Node000006" class="edge">
<title>Node5&#45;&gt;Node6</title>
<g id="a_edge5_Node000005_Node000006"><a xlink:title=" ">
<path fill="none" stroke="#63b8ff" d="M197.46,-54.84C184.76,-46.89 166,-35.14 151.02,-25.75"/>
<polygon fill="#63b8ff" stroke="#63b8ff" points="152.98,-22.85 142.65,-20.51 149.26,-28.78 152.98,-22.85"/>
</a>
</g>
</g>
<!-- Node5&#45;&gt;Node7 -->
<g id="edge6_Node000005_Node000007" class="edge">
<title>Node5&#45;&gt;Node7</title>
<g id="a_edge6_Node000005_Node000007"><a xlink:title=" ">
<path fill="none" stroke="#63b8ff" d="M183.21,-54.84C155.53,-46.12 113.39,-32.84 82.5,-23.11"/>
<polygon fill="#63b8ff" stroke="#63b8ff" points="83.72,-19.82 73.13,-20.16 81.61,-26.5 83.72,-19.82"/>
</a>
</g>
</g>
<!-- Node8 -->
<g id="Node000008" class="node">
<title>Node8</title>
<g id="a_Node000008"><a xlink:title=" ">
<polygon fill="#e0e0e0" stroke="#999999" points="212.5,-19.25 167.25,-19.25 167.25,0 212.5,0 212.5,-19.25"/>
<text text-anchor="middle" x="189.88" y="-5.75" font-family="Helvetica,sans-Serif" font-size="10.00">TFile.h</text>
</a>
</g>
</g>
<!-- Node5&#45;&gt;Node8 -->
<g id="edge7_Node000005_Node000008" class="edge">
<title>Node5&#45;&gt;Node8</title>
<g id="a_edge7_Node000005_Node000008"><a xlink:title=" ">
<path fill="none" stroke="#63b8ff" d="M208.24,-55.08C205.46,-48.34 201.5,-38.77 197.98,-30.24"/>
<polygon fill="#63b8ff" stroke="#63b8ff" points="201.22,-28.91 194.16,-21.01 194.75,-31.59 201.22,-28.91"/>
</a>
</g>
</g>
<!-- Node9 -->
<g id="Node000009" class="node">
<title>Node9</title>
<g id="a_Node000009"><a xlink:title=" ">
<polygon fill="#e0e0e0" stroke="#999999" points="273,-19.25 230.75,-19.25 230.75,0 273,0 273,-19.25"/>
<text text-anchor="middle" x="251.88" y="-5.75" font-family="Helvetica,sans-Serif" font-size="10.00">TH1.h</text>
</a>
</g>
</g>
<!-- Node5&#45;&gt;Node9 -->
<g id="edge8_Node000005_Node000009" class="edge">
<title>Node5&#45;&gt;Node9</title>
<g id="a_edge8_Node000005_Node000009"><a xlink:title=" ">
<path fill="none" stroke="#63b8ff" d="M218.48,-55.08C223.83,-47.96 231.55,-37.68 238.22,-28.8"/>
<polygon fill="#63b8ff" stroke="#63b8ff" points="241.01,-30.92 244.22,-20.82 235.41,-26.71 241.01,-30.92"/>
</a>
</g>
</g>
<!-- Node5&#45;&gt;Node10 -->
<g id="edge9_Node000005_Node000010" class="edge">
<title>Node5&#45;&gt;Node10</title>
<g id="a_edge9_Node000005_Node000010"><a xlink:title=" ">
<path fill="none" stroke="#63b8ff" d="M239.19,-54.84C267.67,-45.42 312.22,-30.69 341.97,-20.85"/>
<polygon fill="#63b8ff" stroke="#63b8ff" points="342.75,-24.27 351.15,-17.81 340.55,-17.63 342.75,-24.27"/>
</a>
</g>
</g>
<!-- Node5&#45;&gt;Node11 -->
<g id="edge10_Node000005_Node000011" class="edge">
<title>Node5&#45;&gt;Node11</title>
<g id="a_edge10_Node000005_Node000011"><a xlink:title=" ">
<path fill="none" stroke="#63b8ff" d="M250.82,-54.78C286.91,-46.34 342.39,-33.34 399.66,-19.77"/>
<polygon fill="#63b8ff" stroke="#63b8ff" points="400.36,-23.2 409.28,-17.49 398.74,-16.39 400.36,-23.2"/>
</a>
</g>
</g>
<!-- Node5&#45;&gt;Node12 -->
<g id="edge11_Node000005_Node000012" class="edge">
<title>Node5&#45;&gt;Node12</title>
<g id="a_edge11_Node000005_Node000012"><a xlink:title=" ">
<path fill="none" stroke="#63b8ff" d="M229.01,-54.84C244.53,-46.66 267.68,-34.46 285.72,-24.94"/>
<polygon fill="#63b8ff" stroke="#63b8ff" points="287.11,-28.17 294.32,-20.41 283.84,-21.98 287.11,-28.17"/>
</a>
</g>
</g>
</g>
</svg>
