<?xml version="1.0" encoding="UTF-8" standalone="no"?>
<!DOCTYPE svg PUBLIC "-//W3C//DTD SVG 1.1//EN"
 "http://www.w3.org/Graphics/SVG/1.1/DTD/svg11.dtd">
<!-- Generated by graphviz version 9.0.0 (20230911.1827)
 -->
<!-- Title: OscProbCalcer/OscProbCalcerBase.cpp Pages: 1 -->
<svg width="547pt" height="216pt"
 viewBox="0.00 0.00 546.50 215.50" xmlns="http://www.w3.org/2000/svg" xmlns:xlink="http://www.w3.org/1999/xlink">
<g id="graph0" class="graph" transform="scale(1 1) rotate(0) translate(4 211.5)">
<title>OscProbCalcer/OscProbCalcerBase.cpp</title>
<!-- Node1 -->
<g id="Node000001" class="node">
<title>Node1</title>
<g id="a_Node000001"><a xlink:title=" ">
<polygon fill="#999999" stroke="#666666" points="475.12,-207.5 324.12,-207.5 324.12,-177 475.12,-177 475.12,-207.5"/>
<text text-anchor="start" x="332.12" y="-194" font-family="Helvetica,sans-Serif" font-size="10.00">OscProbCalcer/OscProbCalcer</text>
<text text-anchor="middle" x="399.62" y="-182.75" font-family="Helvetica,sans-Serif" font-size="10.00">Base.cpp</text>
</a>
</g>
</g>
<!-- Node2 -->
<g id="Node000002" class="node">
<title>Node2</title>
<g id="a_Node000002"><a xlink:href="OscProbCalcerBase_8h.html" target="_top" xlink:title=" ">
<polygon fill="white" stroke="#666666" points="331.12,-141 180.12,-141 180.12,-110.5 331.12,-110.5 331.12,-141"/>
<text text-anchor="start" x="188.12" y="-127.5" font-family="Helvetica,sans-Serif" font-size="10.00">OscProbCalcer/OscProbCalcer</text>
<text text-anchor="middle" x="255.62" y="-116.25" font-family="Helvetica,sans-Serif" font-size="10.00">Base.h</text>
</a>
</g>
</g>
<!-- Node1&#45;&gt;Node2 -->
<g id="edge1_Node000001_Node000002" class="edge">
<title>Node1&#45;&gt;Node2</title>
<g id="a_edge1_Node000001_Node000002"><a xlink:title=" ">
<path fill="none" stroke="#63b8ff" d="M366.95,-176.61C346.7,-167.54 320.46,-155.79 298.54,-145.97"/>
<polygon fill="#63b8ff" stroke="#63b8ff" points="300.11,-142.84 289.55,-141.95 297.25,-149.23 300.11,-142.84"/>
</a>
</g>
</g>
<!-- Node4 -->
<g id="Node000004" class="node">
<title>Node4</title>
<g id="a_Node000004"><a xlink:title=" ">
<polygon fill="#e0e0e0" stroke="#999999" points="45.25,-19.25 0,-19.25 0,0 45.25,0 45.25,-19.25"/>
<text text-anchor="middle" x="22.62" y="-5.75" font-family="Helvetica,sans-Serif" font-size="10.00">math.h</text>
</a>
</g>
</g>
<!-- Node1&#45;&gt;Node4 -->
<g id="edge14_Node000001_Node000004" class="edge">
<title>Node1&#45;&gt;Node4</title>
<g id="a_edge14_Node000001_Node000004"><a xlink:title=" ">
<path fill="none" stroke="#63b8ff" d="M323.7,-184.32C277.49,-177.79 218.37,-165.2 170.62,-141 113.82,-112.21 61.44,-56.44 37.04,-28.09"/>
<polygon fill="#63b8ff" stroke="#63b8ff" points="39.97,-26.14 30.84,-20.76 34.62,-30.66 39.97,-26.14"/>
</a>
</g>
</g>
<!-- Node9 -->
<g id="Node000009" class="node">
<title>Node9</title>
<g id="a_Node000009"><a xlink:title=" ">
<polygon fill="#e0e0e0" stroke="#999999" points="463.38,-19.25 409.88,-19.25 409.88,0 463.38,0 463.38,-19.25"/>
<text text-anchor="middle" x="436.62" y="-5.75" font-family="Helvetica,sans-Serif" font-size="10.00">iostream</text>
</a>
</g>
</g>
<!-- Node1&#45;&gt;Node9 -->
<g id="edge15_Node000001_Node000009" class="edge">
<title>Node1&#45;&gt;Node9</title>
<g id="a_edge15_Node000001_Node000009"><a xlink:title=" ">
<path fill="none" stroke="#63b8ff" d="M402.59,-176.77C409.16,-144.72 424.93,-67.7 432.47,-30.89"/>
<polygon fill="#63b8ff" stroke="#63b8ff" points="435.89,-31.66 434.47,-21.16 429.03,-30.26 435.89,-31.66"/>
</a>
</g>
</g>
<!-- Node11 -->
<g id="Node000011" class="node">
<title>Node11</title>
<g id="a_Node000011"><a xlink:title=" ">
<polygon fill="#e0e0e0" stroke="#999999" points="471.12,-135.38 428.12,-135.38 428.12,-116.12 471.12,-116.12 471.12,-135.38"/>
<text text-anchor="middle" x="449.62" y="-121.88" font-family="Helvetica,sans-Serif" font-size="10.00">cmath</text>
</a>
</g>
</g>
<!-- Node1&#45;&gt;Node11 -->
<g id="edge13_Node000001_Node000011" class="edge">
<title>Node1&#45;&gt;Node11</title>
<g id="a_edge13_Node000001_Node000011"><a xlink:title=" ">
<path fill="none" stroke="#63b8ff" d="M410.97,-176.61C418.32,-167.14 427.93,-154.73 435.74,-144.66"/>
<polygon fill="#63b8ff" stroke="#63b8ff" points="438.5,-146.82 441.86,-136.77 432.97,-142.53 438.5,-146.82"/>
</a>
</g>
</g>
<!-- Node12 -->
<g id="Node000012" class="node">
<title>Node12</title>
<g id="a_Node000012"><a xlink:title=" ">
<polygon fill="#e0e0e0" stroke="#999999" points="538.5,-135.38 488.75,-135.38 488.75,-116.12 538.5,-116.12 538.5,-135.38"/>
<text text-anchor="middle" x="513.62" y="-121.88" font-family="Helvetica,sans-Serif" font-size="10.00">iomanip</text>
</a>
</g>
</g>
<!-- Node1&#45;&gt;Node12 -->
<g id="edge16_Node000001_Node000012" class="edge">
<title>Node1&#45;&gt;Node12</title>
<g id="a_edge16_Node000001_Node000012"><a xlink:title=" ">
<path fill="none" stroke="#63b8ff" d="M425.49,-176.61C444.14,-166.06 469.2,-151.88 487.83,-141.34"/>
<polygon fill="#63b8ff" stroke="#63b8ff" points="489.4,-144.48 496.38,-136.51 485.96,-138.38 489.4,-144.48"/>
</a>
</g>
</g>
<!-- Node3 -->
<g id="Node000003" class="node">
<title>Node3</title>
<g id="a_Node000003"><a xlink:href="OscillatorConstants_8h.html" target="_top" xlink:title=" ">
<polygon fill="white" stroke="#666666" points="333.75,-74.5 177.5,-74.5 177.5,-55.25 333.75,-55.25 333.75,-74.5"/>
<text text-anchor="middle" x="255.62" y="-61" font-family="Helvetica,sans-Serif" font-size="10.00">Constants/OscillatorConstants.h</text>
</a>
</g>
</g>
<!-- Node2&#45;&gt;Node3 -->
<g id="edge2_Node000002_Node000003" class="edge">
<title>Node2&#45;&gt;Node3</title>
<g id="a_edge2_Node000002_Node000003"><a xlink:title=" ">
<path fill="none" stroke="#63b8ff" d="M255.62,-110.2C255.62,-102.96 255.62,-94.09 255.62,-86.19"/>
<polygon fill="#63b8ff" stroke="#63b8ff" points="259.13,-86.46 255.63,-76.46 252.13,-86.46 259.13,-86.46"/>
</a>
</g>
</g>
<!-- Node5 -->
<g id="Node000005" class="node">
<title>Node5</title>
<g id="a_Node000005"><a xlink:title=" ">
<polygon fill="#e0e0e0" stroke="#999999" points="207.5,-19.25 121.75,-19.25 121.75,0 207.5,0 207.5,-19.25"/>
<text text-anchor="middle" x="164.62" y="-5.75" font-family="Helvetica,sans-Serif" font-size="10.00">yaml&#45;cpp/yaml.h</text>
</a>
</g>
</g>
<!-- Node2&#45;&gt;Node5 -->
<g id="edge12_Node000002_Node000005" class="edge">
<title>Node2&#45;&gt;Node5</title>
<g id="a_edge12_Node000002_Node000005"><a xlink:title=" ">
<path fill="none" stroke="#63b8ff" d="M212.42,-110.06C195.9,-102.17 178.64,-90.66 168.62,-74.5 160.64,-61.62 160.03,-44.33 161.2,-30.99"/>
<polygon fill="#63b8ff" stroke="#63b8ff" points="164.66,-31.55 162.49,-21.18 157.72,-30.64 164.66,-31.55"/>
</a>
</g>
</g>
<!-- Node8 -->
<g id="Node000008" class="node">
<title>Node8</title>
<g id="a_Node000008"><a xlink:title=" ">
<polygon fill="#e0e0e0" stroke="#999999" points="103.62,-19.25 63.62,-19.25 63.62,0 103.62,0 103.62,-19.25"/>
<text text-anchor="middle" x="83.62" y="-5.75" font-family="Helvetica,sans-Serif" font-size="10.00">string</text>
</a>
</g>
</g>
<!-- Node2&#45;&gt;Node8 -->
<g id="edge11_Node000002_Node000008" class="edge">
<title>Node2&#45;&gt;Node8</title>
<g id="a_edge11_Node000002_Node000008"><a xlink:title=" ">
<path fill="none" stroke="#63b8ff" d="M223.13,-110.21C203.78,-101 179.09,-88.25 158.62,-74.5 137.47,-60.28 115.52,-40.96 100.88,-27.31"/>
<polygon fill="#63b8ff" stroke="#63b8ff" points="103.54,-25.01 93.87,-20.67 98.73,-30.09 103.54,-25.01"/>
</a>
</g>
</g>
<!-- Node10 -->
<g id="Node000010" class="node">
<title>Node10</title>
<g id="a_Node000010"><a xlink:title=" ">
<polygon fill="#e0e0e0" stroke="#999999" points="392.12,-19.25 349.12,-19.25 349.12,0 392.12,0 392.12,-19.25"/>
<text text-anchor="middle" x="370.62" y="-5.75" font-family="Helvetica,sans-Serif" font-size="10.00">vector</text>
</a>
</g>
</g>
<!-- Node2&#45;&gt;Node10 -->
<g id="edge10_Node000002_Node000010" class="edge">
<title>Node2&#45;&gt;Node10</title>
<g id="a_edge10_Node000002_Node000010"><a xlink:title=" ">
<path fill="none" stroke="#63b8ff" d="M292.25,-110.06C309.34,-101.71 328.9,-89.84 342.62,-74.5 353.88,-61.93 361.18,-44.12 365.49,-30.5"/>
<polygon fill="#63b8ff" stroke="#63b8ff" points="368.85,-31.47 368.23,-20.89 362.12,-29.55 368.85,-31.47"/>
</a>
</g>
</g>
<!-- Node3&#45;&gt;Node4 -->
<g id="edge3_Node000003_Node000004" class="edge">
<title>Node3&#45;&gt;Node4</title>
<g id="a_edge3_Node000003_Node000004"><a xlink:title=" ">
<path fill="none" stroke="#63b8ff" d="M211.97,-54.77C173.56,-46.63 115.86,-34.09 56.72,-19.68"/>
<polygon fill="#63b8ff" stroke="#63b8ff" points="57.68,-16.31 47.14,-17.33 56.01,-23.11 57.68,-16.31"/>
</a>
</g>
</g>
<!-- Node3&#45;&gt;Node5 -->
<g id="edge4_Node000003_Node000005" class="edge">
<title>Node3&#45;&gt;Node5</title>
<g id="a_edge4_Node000003_Node000005"><a xlink:title=" ">
<path fill="none" stroke="#63b8ff" d="M240.19,-54.84C226.46,-46.81 206.13,-34.91 190.01,-25.48"/>
<polygon fill="#63b8ff" stroke="#63b8ff" points="191.84,-22.5 181.44,-20.47 188.31,-28.54 191.84,-22.5"/>
</a>
</g>
</g>
<!-- Node6 -->
<g id="Node000006" class="node">
<title>Node6</title>
<g id="a_Node000006"><a xlink:title=" ">
<polygon fill="#e0e0e0" stroke="#999999" points="331.25,-19.25 286,-19.25 286,0 331.25,0 331.25,-19.25"/>
<text text-anchor="middle" x="308.62" y="-5.75" font-family="Helvetica,sans-Serif" font-size="10.00">TFile.h</text>
</a>
</g>
</g>
<!-- Node3&#45;&gt;Node6 -->
<g id="edge5_Node000003_Node000006" class="edge">
<title>Node3&#45;&gt;Node6</title>
<g id="a_edge5_Node000003_Node000006"><a xlink:title=" ">
<path fill="none" stroke="#63b8ff" d="M264.38,-55.08C271.77,-47.65 282.59,-36.79 291.67,-27.66"/>
<polygon fill="#63b8ff" stroke="#63b8ff" points="294.04,-30.24 298.62,-20.68 289.08,-25.3 294.04,-30.24"/>
</a>
</g>
</g>
<!-- Node7 -->
<g id="Node000007" class="node">
<title>Node7</title>
<g id="a_Node000007"><a xlink:title=" ">
<polygon fill="#e0e0e0" stroke="#999999" points="267.75,-19.25 225.5,-19.25 225.5,0 267.75,0 267.75,-19.25"/>
<text text-anchor="middle" x="246.62" y="-5.75" font-family="Helvetica,sans-Serif" font-size="10.00">TH1.h</text>
</a>
</g>
</g>
<!-- Node3&#45;&gt;Node7 -->
<g id="edge6_Node000003_Node000007" class="edge">
<title>Node3&#45;&gt;Node7</title>
<g id="a_edge6_Node000003_Node000007"><a xlink:title=" ">
<path fill="none" stroke="#63b8ff" d="M254.14,-55.08C253.03,-48.49 251.46,-39.21 250.04,-30.82"/>
<polygon fill="#63b8ff" stroke="#63b8ff" points="253.51,-30.38 248.4,-21.1 246.61,-31.55 253.51,-30.38"/>
</a>
</g>
</g>
<!-- Node3&#45;&gt;Node8 -->
<g id="edge7_Node000003_Node000008" class="edge">
<title>Node3&#45;&gt;Node8</title>
<g id="a_edge7_Node000003_Node000008"><a xlink:title=" ">
<path fill="none" stroke="#63b8ff" d="M226.45,-54.84C195.46,-45.25 146.66,-30.14 114.9,-20.31"/>
<polygon fill="#63b8ff" stroke="#63b8ff" points="116.07,-17 105.48,-17.39 114,-23.69 116.07,-17"/>
</a>
</g>
</g>
<!-- Node3&#45;&gt;Node9 -->
<g id="edge8_Node000003_Node000009" class="edge">
<title>Node3&#45;&gt;Node9</title>
<g id="a_edge8_Node000003_Node000009"><a xlink:title=" ">
<path fill="none" stroke="#63b8ff" d="M286.33,-54.84C317.41,-45.7 365.52,-31.54 398.91,-21.72"/>
<polygon fill="#63b8ff" stroke="#63b8ff" points="399.56,-25.18 408.17,-19 397.58,-18.46 399.56,-25.18"/>
</a>
</g>
</g>
<!-- Node3&#45;&gt;Node10 -->
<g id="edge9_Node000003_Node000010" class="edge">
<title>Node3&#45;&gt;Node10</title>
<g id="a_edge9_Node000003_Node000010"><a xlink:title=" ">
<path fill="none" stroke="#63b8ff" d="M275.13,-54.84C293.14,-46.5 320.15,-34 340.85,-24.41"/>
<polygon fill="#63b8ff" stroke="#63b8ff" points="342.04,-27.72 349.65,-20.34 339.1,-21.36 342.04,-27.72"/>
</a>
</g>
</g>
</g>
</svg>
