<?xml version="1.0" encoding="UTF-8" standalone="no"?>
<!DOCTYPE svg PUBLIC "-//W3C//DTD SVG 1.1//EN"
 "http://www.w3.org/Graphics/SVG/1.1/DTD/svg11.dtd">
<!-- Generated by graphviz version 9.0.0 (20230911.1827)
 -->
<!-- Title: OscProbCalcer/OscProbCalcerFactory.cpp Pages: 1 -->
<svg width="400pt" height="260pt"
 viewBox="0.00 0.00 400.25 259.50" xmlns="http://www.w3.org/2000/svg" xmlns:xlink="http://www.w3.org/1999/xlink">

<svg id="main" version="1.1" xmlns="http://www.w3.org/2000/svg" xmlns:xlink="http://www.w3.org/1999/xlink" xml:space="preserve" onload="init(evt)">
<style type="text/css"><![CDATA[
.node, .edge {opacity: 0.7;}
.node.selected, .edge.selected {opacity: 1;}
.edge:hover path { stroke: red; }
.edge:hover polygon { stroke: red; fill: red; }
]]></style>
<script type="application/ecmascript" xlink:href="svg.min.js"/>
<svg id="graph" class="graph">
<g id="graph0" class="graph" transform="scale(1 1) rotate(0) translate(4 255.5)">
<title>OscProbCalcer/OscProbCalcerFactory.cpp</title>
<!-- Node1 -->
<g id="Node000001" class="node">
<title>Node1</title>
<g id="a_Node000001"><a xlink:title=" ">
<polygon fill="#999999" stroke="#666666" points="311,-251.5 160,-251.5 160,-221 311,-221 311,-251.5"/>
<text text-anchor="start" x="168" y="-238" font-family="Helvetica,sans-Serif" font-size="10.00">OscProbCalcer/OscProbCalcer</text>
<text text-anchor="middle" x="235.5" y="-226.75" font-family="Helvetica,sans-Serif" font-size="10.00">Factory.cpp</text>
</a>
</g>
</g>
<!-- Node2 -->
<g id="Node000002" class="node">
<title>Node2</title>
<g id="a_Node000002"><a xlink:href="OscProbCalcerFactory_8h.html" target="_top" xlink:title=" ">
<polygon fill="white" stroke="#666666" points="252.38,-185 130.62,-185 130.62,-165.75 252.38,-165.75 252.38,-185"/>
<text text-anchor="middle" x="191.5" y="-171.5" font-family="Helvetica,sans-Serif" font-size="10.00">OscProbCalcerFactory.h</text>
</a>
</g>
</g>
<!-- Node1&#45;&gt;Node2 -->
<g id="edge1_Node000001_Node000002" class="edge">
<title>Node1&#45;&gt;Node2</title>
<g id="a_edge1_Node000001_Node000002"><a xlink:title=" ">
<path fill="none" stroke="#63b8ff" d="M224.62,-220.7C218.7,-212.77 211.31,-202.88 205.02,-194.46"/>
<polygon fill="#63b8ff" stroke="#63b8ff" points="207.98,-192.58 199.19,-186.66 202.37,-196.77 207.98,-192.58"/>
</a>
</g>
</g>
<!-- Node9 -->
<g id="Node000009" class="node">
<title>Node9</title>
<g id="a_Node000009"><a xlink:title=" ">
<polygon fill="#e0e0e0" stroke="#999999" points="392.25,-19.25 338.75,-19.25 338.75,0 392.25,0 392.25,-19.25"/>
<text text-anchor="middle" x="365.5" y="-5.75" font-family="Helvetica,sans-Serif" font-size="10.00">iostream</text>
</a>
</g>
</g>
<!-- Node1&#45;&gt;Node9 -->
<g id="edge13_Node000001_Node000009" class="edge">
<title>Node1&#45;&gt;Node9</title>
<g id="a_edge13_Node000001_Node000009"><a xlink:title=" ">
<path fill="none" stroke="#63b8ff" d="M244.03,-220.51C266.89,-181.01 329.52,-72.79 354.76,-29.19"/>
<polygon fill="#63b8ff" stroke="#63b8ff" points="357.71,-31.08 359.69,-20.67 351.65,-27.57 357.71,-31.08"/>
</a>
</g>
</g>
<!-- Node3 -->
<g id="Node000003" class="node">
<title>Node3</title>
<g id="a_Node000003"><a xlink:href="OscProbCalcerBase_8h.html" target="_top" xlink:title=" ">
<polygon fill="white" stroke="#666666" points="185.5,-129.75 73.5,-129.75 73.5,-110.5 185.5,-110.5 185.5,-129.75"/>
<text text-anchor="middle" x="129.5" y="-116.25" font-family="Helvetica,sans-Serif" font-size="10.00">OscProbCalcerBase.h</text>
</a>
</g>
</g>
<!-- Node2&#45;&gt;Node3 -->
<g id="edge2_Node000002_Node000003" class="edge">
<title>Node2&#45;&gt;Node3</title>
<g id="a_edge2_Node000002_Node000003"><a xlink:title=" ">
<path fill="none" stroke="#63b8ff" d="M180.98,-165.34C172.11,-157.72 159.19,-146.62 148.51,-137.45"/>
<polygon fill="#63b8ff" stroke="#63b8ff" points="150.88,-134.87 141.01,-131.01 146.32,-140.18 150.88,-134.87"/>
</a>
</g>
</g>
<!-- Node4 -->
<g id="Node000004" class="node">
<title>Node4</title>
<g id="a_Node000004"><a xlink:href="OscillatorConstants_8h.html" target="_top" xlink:title=" ">
<polygon fill="white" stroke="#666666" points="313.62,-74.5 157.38,-74.5 157.38,-55.25 313.62,-55.25 313.62,-74.5"/>
<text text-anchor="middle" x="235.5" y="-61" font-family="Helvetica,sans-Serif" font-size="10.00">Constants/OscillatorConstants.h</text>
</a>
</g>
</g>
<!-- Node3&#45;&gt;Node4 -->
<g id="edge3_Node000003_Node000004" class="edge">
<title>Node3&#45;&gt;Node4</title>
<g id="a_edge3_Node000003_Node000004"><a xlink:title=" ">
<path fill="none" stroke="#63b8ff" d="M147.48,-110.09C163.85,-101.87 188.29,-89.59 207.26,-80.06"/>
<polygon fill="#63b8ff" stroke="#63b8ff" points="208.71,-83.25 216.08,-75.63 205.57,-76.99 208.71,-83.25"/>
</a>
</g>
</g>
<!-- Node8 -->
<g id="Node000008" class="node">
<title>Node8</title>
<g id="a_Node000008"><a xlink:title=" ">
<polygon fill="#e0e0e0" stroke="#999999" points="134.5,-19.25 94.5,-19.25 94.5,0 134.5,0 134.5,-19.25"/>
<text text-anchor="middle" x="114.5" y="-5.75" font-family="Helvetica,sans-Serif" font-size="10.00">string</text>
</a>
</g>
</g>
<!-- Node3&#45;&gt;Node8 -->
<g id="edge11_Node000003_Node000008" class="edge">
<title>Node3&#45;&gt;Node8</title>
<g id="a_edge11_Node000003_Node000008"><a xlink:title=" ">
<path fill="none" stroke="#63b8ff" d="M128.27,-110.25C125.89,-93 120.58,-54.58 117.29,-30.81"/>
<polygon fill="#63b8ff" stroke="#63b8ff" points="120.79,-30.55 115.95,-21.13 113.85,-31.51 120.79,-30.55"/>
</a>
</g>
</g>
<!-- Node10 -->
<g id="Node000010" class="node">
<title>Node10</title>
<g id="a_Node000010"><a xlink:title=" ">
<polygon fill="#e0e0e0" stroke="#999999" points="43,-19.25 0,-19.25 0,0 43,0 43,-19.25"/>
<text text-anchor="middle" x="21.5" y="-5.75" font-family="Helvetica,sans-Serif" font-size="10.00">vector</text>
</a>
</g>
</g>
<!-- Node3&#45;&gt;Node10 -->
<g id="edge10_Node000003_Node000010" class="edge">
<title>Node3&#45;&gt;Node10</title>
<g id="a_edge10_Node000003_Node000010"><a xlink:title=" ">
<path fill="none" stroke="#63b8ff" d="M73.27,-113.12C48.53,-107.36 21.69,-96.17 6.5,-74.5 -2.79,-61.25 2.85,-43.04 9.71,-29.45"/>
<polygon fill="#63b8ff" stroke="#63b8ff" points="12.58,-31.48 14.46,-21.05 6.49,-28.03 12.58,-31.48"/>
</a>
</g>
</g>
<!-- Node11 -->
<g id="Node000011" class="node">
<title>Node11</title>
<g id="a_Node000011"><a xlink:title=" ">
<polygon fill="#e0e0e0" stroke="#999999" points="101.38,-74.5 15.62,-74.5 15.62,-55.25 101.38,-55.25 101.38,-74.5"/>
<text text-anchor="middle" x="58.5" y="-61" font-family="Helvetica,sans-Serif" font-size="10.00">yaml&#45;cpp/yaml.h</text>
</a>
</g>
</g>
<!-- Node3&#45;&gt;Node11 -->
<g id="edge12_Node000003_Node000011" class="edge">
<title>Node3&#45;&gt;Node11</title>
<g id="a_edge12_Node000003_Node000011"><a xlink:title=" ">
<path fill="none" stroke="#63b8ff" d="M117.46,-110.09C107.09,-102.32 91.9,-90.92 79.53,-81.65"/>
<polygon fill="#63b8ff" stroke="#63b8ff" points="81.68,-78.88 71.58,-75.68 77.48,-84.48 81.68,-78.88"/>
</a>
</g>
</g>
<!-- Node5 -->
<g id="Node000005" class="node">
<title>Node5</title>
<g id="a_Node000005"><a xlink:title=" ">
<polygon fill="#e0e0e0" stroke="#999999" points="258.12,-19.25 212.88,-19.25 212.88,0 258.12,0 258.12,-19.25"/>
<text text-anchor="middle" x="235.5" y="-5.75" font-family="Helvetica,sans-Serif" font-size="10.00">math.h</text>
</a>
</g>
</g>
<!-- Node4&#45;&gt;Node5 -->
<g id="edge4_Node000004_Node000005" class="edge">
<title>Node4&#45;&gt;Node5</title>
<g id="a_edge4_Node000004_Node000005"><a xlink:title=" ">
<path fill="none" stroke="#63b8ff" d="M235.5,-55.08C235.5,-48.57 235.5,-39.42 235.5,-31.12"/>
<polygon fill="#63b8ff" stroke="#63b8ff" points="239,-31.12 235.5,-21.12 232,-31.12 239,-31.12"/>
</a>
</g>
</g>
<!-- Node6 -->
<g id="Node000006" class="node">
<title>Node6</title>
<g id="a_Node000006"><a xlink:title=" ">
<polygon fill="#e0e0e0" stroke="#999999" points="321.12,-19.25 275.88,-19.25 275.88,0 321.12,0 321.12,-19.25"/>
<text text-anchor="middle" x="298.5" y="-5.75" font-family="Helvetica,sans-Serif" font-size="10.00">TFile.h</text>
</a>
</g>
</g>
<!-- Node4&#45;&gt;Node6 -->
<g id="edge5_Node000004_Node000006" class="edge">
<title>Node4&#45;&gt;Node6</title>
<g id="a_edge5_Node000004_Node000006"><a xlink:title=" ">
<path fill="none" stroke="#63b8ff" d="M246.19,-54.84C255.2,-47.22 268.33,-36.12 279.18,-26.95"/>
<polygon fill="#63b8ff" stroke="#63b8ff" points="281.44,-29.63 286.81,-20.5 276.92,-24.28 281.44,-29.63"/>
</a>
</g>
</g>
<!-- Node7 -->
<g id="Node000007" class="node">
<title>Node7</title>
<g id="a_Node000007"><a xlink:title=" ">
<polygon fill="#e0e0e0" stroke="#999999" points="194.62,-19.25 152.38,-19.25 152.38,0 194.62,0 194.62,-19.25"/>
<text text-anchor="middle" x="173.5" y="-5.75" font-family="Helvetica,sans-Serif" font-size="10.00">TH1.h</text>
</a>
</g>
</g>
<!-- Node4&#45;&gt;Node7 -->
<g id="edge6_Node000004_Node000007" class="edge">
<title>Node4&#45;&gt;Node7</title>
<g id="a_edge6_Node000004_Node000007"><a xlink:title=" ">
<path fill="none" stroke="#63b8ff" d="M224.98,-54.84C216.11,-47.22 203.19,-36.12 192.51,-26.95"/>
<polygon fill="#63b8ff" stroke="#63b8ff" points="194.88,-24.37 185.01,-20.51 190.32,-29.68 194.88,-24.37"/>
</a>
</g>
</g>
<!-- Node4&#45;&gt;Node8 -->
<g id="edge7_Node000004_Node000008" class="edge">
<title>Node4&#45;&gt;Node8</title>
<g id="a_edge7_Node000004_Node000008"><a xlink:title=" ">
<path fill="none" stroke="#63b8ff" d="M214.97,-54.84C195.82,-46.41 167,-33.73 145.13,-24.11"/>
<polygon fill="#63b8ff" stroke="#63b8ff" points="146.67,-20.96 136.11,-20.13 143.85,-27.37 146.67,-20.96"/>
</a>
</g>
</g>
<!-- Node4&#45;&gt;Node9 -->
<g id="edge8_Node000004_Node000009" class="edge">
<title>Node4&#45;&gt;Node9</title>
<g id="a_edge8_Node000004_Node000009"><a xlink:title=" ">
<path fill="none" stroke="#63b8ff" d="M257.55,-54.84C278.19,-46.39 309.28,-33.65 332.8,-24.02"/>
<polygon fill="#63b8ff" stroke="#63b8ff" points="334.01,-27.31 341.94,-20.28 331.36,-20.83 334.01,-27.31"/>
</a>
</g>
</g>
<!-- Node4&#45;&gt;Node10 -->
<g id="edge9_Node000004_Node000010" class="edge">
<title>Node4&#45;&gt;Node10</title>
<g id="a_edge9_Node000004_Node000010"><a xlink:title=" ">
<path fill="none" stroke="#63b8ff" d="M199.2,-54.84C158.58,-44.74 93.38,-28.51 54.26,-18.78"/>
<polygon fill="#63b8ff" stroke="#63b8ff" points="55.27,-15.42 44.72,-16.4 53.58,-22.21 55.27,-15.42"/>
</a>
</g>
</g>
</g>
</svg>
</svg>

<style type='text/css'>
<![CDATA[
[data-mouse-over-selected='false'] { opacity: 0.7; }
[data-mouse-over-selected='true']  { opacity: 1.0; }
]]>
</style>
<script type="application/ecmascript"><![CDATA[
document.addEventListener('DOMContentLoaded', (event) => {
  highlightEdges();
  highlightAdjacentNodes();
});
]]></script>
</svg>
