<?xml version="1.0" encoding="UTF-8" standalone="no"?>
<!DOCTYPE svg PUBLIC "-//W3C//DTD SVG 1.1//EN"
 "http://www.w3.org/Graphics/SVG/1.1/DTD/svg11.dtd">
<!-- Generated by graphviz version 9.0.0 (20230911.1827)
 -->
<!-- Title: OscProbCalcer/OscProbCalcerBase.h Pages: 1 -->
<svg width="2802pt" height="238pt"
 viewBox="0.00 0.00 2801.75 238.00" xmlns="http://www.w3.org/2000/svg" xmlns:xlink="http://www.w3.org/1999/xlink">
<g id="graph0" class="graph" transform="scale(1 1) rotate(0) translate(4 234)">
<title>OscProbCalcer/OscProbCalcerBase.h</title>
<!-- Node1 -->
<g id="Node000001" class="node">
<title>Node1</title>
<g id="a_Node000001"><a xlink:title=" ">
<polygon fill="#999999" stroke="#666666" points="1694.75,-230 1543.75,-230 1543.75,-199.5 1694.75,-199.5 1694.75,-230"/>
<text text-anchor="start" x="1551.75" y="-216.5" font-family="Helvetica,sans-Serif" font-size="10.00">OscProbCalcer/OscProbCalcer</text>
<text text-anchor="middle" x="1619.25" y="-205.25" font-family="Helvetica,sans-Serif" font-size="10.00">Base.h</text>
</a>
</g>
</g>
<!-- Node2 -->
<g id="Node000002" class="node">
<title>Node2</title>
<g id="a_Node000002"><a xlink:href="SingleOscProbCalcer_8cpp.html" target="_top" xlink:title=" ">
<polygon fill="white" stroke="#666666" points="152.5,-91.38 0,-91.38 0,-72.12 152.5,-72.12 152.5,-91.38"/>
<text text-anchor="middle" x="76.25" y="-77.88" font-family="Helvetica,sans-Serif" font-size="10.00">Apps/SingleOscProbCalcer.cpp</text>
</a>
</g>
</g>
<!-- Node1&#45;&gt;Node2 -->
<g id="edge1_Node000001_Node000002" class="edge">
<title>Node1&#45;&gt;Node2</title>
<g id="a_edge1_Node000001_Node000002"><a xlink:title=" ">
<path fill="none" stroke="#63b8ff" d="M1532.12,-212.33C1252.82,-207.52 390.88,-190.62 268.25,-163.5 199.4,-148.27 124.04,-109.39 92.03,-91.73"/>
<polygon fill="#63b8ff" stroke="#63b8ff" points="1531.82,-215.82 1541.88,-212.5 1531.94,-208.82 1531.82,-215.82"/>
</a>
</g>
</g>
<!-- Node3 -->
<g id="Node000003" class="node">
<title>Node3</title>
<g id="a_Node000003"><a xlink:href="OscProbCalcerBase_8cpp.html" target="_top" xlink:title=" ">
<polygon fill="white" stroke="#666666" points="1103.75,-163.5 952.75,-163.5 952.75,-133 1103.75,-133 1103.75,-163.5"/>
<text text-anchor="start" x="960.75" y="-150" font-family="Helvetica,sans-Serif" font-size="10.00">OscProbCalcer/OscProbCalcer</text>
<text text-anchor="middle" x="1028.25" y="-138.75" font-family="Helvetica,sans-Serif" font-size="10.00">Base.cpp</text>
</a>
</g>
</g>
<!-- Node1&#45;&gt;Node3 -->
<g id="edge2_Node000001_Node000003" class="edge">
<title>Node1&#45;&gt;Node3</title>
<g id="a_edge2_Node000001_Node000003"><a xlink:title=" ">
<path fill="none" stroke="#63b8ff" d="M1532.09,-206.96C1430.91,-198.65 1259.13,-183.21 1112.25,-163.5 1109.61,-163.15 1106.93,-162.77 1104.22,-162.38"/>
<polygon fill="#63b8ff" stroke="#63b8ff" points="1531.71,-210.44 1541.96,-207.76 1532.28,-203.46 1531.71,-210.44"/>
</a>
</g>
</g>
<!-- Node4 -->
<g id="Node000004" class="node">
<title>Node4</title>
<g id="a_Node000004"><a xlink:href="OscProbCalcerFactory_8h.html" target="_top" xlink:title=" ">
<polygon fill="white" stroke="#666666" points="428.75,-163.5 277.75,-163.5 277.75,-133 428.75,-133 428.75,-163.5"/>
<text text-anchor="start" x="285.75" y="-150" font-family="Helvetica,sans-Serif" font-size="10.00">OscProbCalcer/OscProbCalcer</text>
<text text-anchor="middle" x="353.25" y="-138.75" font-family="Helvetica,sans-Serif" font-size="10.00">Factory.h</text>
</a>
</g>
</g>
<!-- Node1&#45;&gt;Node4 -->
<g id="edge3_Node000001_Node000004" class="edge">
<title>Node1&#45;&gt;Node4</title>
<g id="a_edge3_Node000001_Node000004"><a xlink:title=" ">
<path fill="none" stroke="#63b8ff" d="M1532.14,-209.31C1296.71,-197.32 650.54,-164.4 428.97,-153.11"/>
<polygon fill="#63b8ff" stroke="#63b8ff" points="1531.7,-212.79 1541.87,-209.81 1532.06,-205.8 1531.7,-212.79"/>
</a>
</g>
</g>
<!-- Node7 -->
<g id="Node000007" class="node">
<title>Node7</title>
<g id="a_Node000007"><a xlink:href="OscProbCalcer__CHICLinear_8h.html" target="_top" xlink:title=" ">
<polygon fill="white" stroke="#666666" points="1272.75,-163.5 1121.75,-163.5 1121.75,-133 1272.75,-133 1272.75,-163.5"/>
<text text-anchor="start" x="1129.75" y="-150" font-family="Helvetica,sans-Serif" font-size="10.00">OscProbCalcer/OscProbCalcer</text>
<text text-anchor="middle" x="1197.25" y="-138.75" font-family="Helvetica,sans-Serif" font-size="10.00">_CHICLinear.h</text>
</a>
</g>
</g>
<!-- Node1&#45;&gt;Node7 -->
<g id="edge7_Node000001_Node000007" class="edge">
<title>Node1&#45;&gt;Node7</title>
<g id="a_edge7_Node000001_Node000007"><a xlink:title=" ">
<path fill="none" stroke="#63b8ff" d="M1532.21,-201.31C1463.9,-191.42 1366.44,-177.06 1281.25,-163.5 1278.62,-163.08 1275.95,-162.65 1273.24,-162.21"/>
<polygon fill="#63b8ff" stroke="#63b8ff" points="1531.44,-204.73 1541.84,-202.7 1532.44,-197.81 1531.44,-204.73"/>
</a>
</g>
</g>
<!-- Node9 -->
<g id="Node000009" class="node">
<title>Node9</title>
<g id="a_Node000009"><a xlink:href="OscProbCalcer__CUDAProb3_8h.html" target="_top" xlink:title=" ">
<polygon fill="white" stroke="#666666" points="1441.75,-163.5 1290.75,-163.5 1290.75,-133 1441.75,-133 1441.75,-163.5"/>
<text text-anchor="start" x="1298.75" y="-150" font-family="Helvetica,sans-Serif" font-size="10.00">OscProbCalcer/OscProbCalcer</text>
<text text-anchor="middle" x="1366.25" y="-138.75" font-family="Helvetica,sans-Serif" font-size="10.00">_CUDAProb3.h</text>
</a>
</g>
</g>
<!-- Node1&#45;&gt;Node9 -->
<g id="edge9_Node000001_Node000009" class="edge">
<title>Node1&#45;&gt;Node9</title>
<g id="a_edge9_Node000001_Node000009"><a xlink:title=" ">
<path fill="none" stroke="#63b8ff" d="M1550.59,-196.25C1510.85,-186.11 1461.4,-173.51 1423.73,-163.9"/>
<polygon fill="#63b8ff" stroke="#63b8ff" points="1549.5,-199.58 1560.06,-198.66 1551.23,-192.8 1549.5,-199.58"/>
</a>
</g>
</g>
<!-- Node11 -->
<g id="Node000011" class="node">
<title>Node11</title>
<g id="a_Node000011"><a xlink:href="OscProbCalcer__CUDAProb3Linear_8h.html" target="_top" xlink:title=" ">
<polygon fill="white" stroke="#666666" points="1610.75,-163.5 1459.75,-163.5 1459.75,-133 1610.75,-133 1610.75,-163.5"/>
<text text-anchor="start" x="1467.75" y="-150" font-family="Helvetica,sans-Serif" font-size="10.00">OscProbCalcer/OscProbCalcer</text>
<text text-anchor="middle" x="1535.25" y="-138.75" font-family="Helvetica,sans-Serif" font-size="10.00">_CUDAProb3Linear.h</text>
</a>
</g>
</g>
<!-- Node1&#45;&gt;Node11 -->
<g id="edge11_Node000001_Node000011" class="edge">
<title>Node1&#45;&gt;Node11</title>
<g id="a_edge11_Node000001_Node000011"><a xlink:title=" ">
<path fill="none" stroke="#63b8ff" d="M1591.31,-192.29C1579.13,-182.94 1565.18,-172.23 1554.24,-163.83"/>
<polygon fill="#63b8ff" stroke="#63b8ff" points="1588.93,-194.88 1598.99,-198.19 1593.19,-189.33 1588.93,-194.88"/>
</a>
</g>
</g>
<!-- Node13 -->
<g id="Node000013" class="node">
<title>Node13</title>
<g id="a_Node000013"><a xlink:href="OscProbCalcer__GLoBESLinear_8h.html" target="_top" xlink:title=" ">
<polygon fill="white" stroke="#666666" points="1779.75,-163.5 1628.75,-163.5 1628.75,-133 1779.75,-133 1779.75,-163.5"/>
<text text-anchor="start" x="1636.75" y="-150" font-family="Helvetica,sans-Serif" font-size="10.00">OscProbCalcer/OscProbCalcer</text>
<text text-anchor="middle" x="1704.25" y="-138.75" font-family="Helvetica,sans-Serif" font-size="10.00">_GLoBESLinear.h</text>
</a>
</g>
</g>
<!-- Node1&#45;&gt;Node13 -->
<g id="edge13_Node000001_Node000013" class="edge">
<title>Node1&#45;&gt;Node13</title>
<g id="a_edge13_Node000001_Node000013"><a xlink:title=" ">
<path fill="none" stroke="#63b8ff" d="M1647.53,-192.29C1659.85,-182.94 1673.97,-172.23 1685.04,-163.83"/>
<polygon fill="#63b8ff" stroke="#63b8ff" points="1645.59,-189.37 1639.74,-198.2 1649.83,-194.94 1645.59,-189.37"/>
</a>
</g>
</g>
<!-- Node15 -->
<g id="Node000015" class="node">
<title>Node15</title>
<g id="a_Node000015"><a xlink:href="OscProbCalcer__NuFASTEarth_8h.html" target="_top" xlink:title=" ">
<polygon fill="white" stroke="#666666" points="1948.75,-163.5 1797.75,-163.5 1797.75,-133 1948.75,-133 1948.75,-163.5"/>
<text text-anchor="start" x="1805.75" y="-150" font-family="Helvetica,sans-Serif" font-size="10.00">OscProbCalcer/OscProbCalcer</text>
<text text-anchor="middle" x="1873.25" y="-138.75" font-family="Helvetica,sans-Serif" font-size="10.00">_NuFASTEarth.h</text>
</a>
</g>
</g>
<!-- Node1&#45;&gt;Node15 -->
<g id="edge15_Node000001_Node000015" class="edge">
<title>Node1&#45;&gt;Node15</title>
<g id="a_edge15_Node000001_Node000015"><a xlink:title=" ">
<path fill="none" stroke="#63b8ff" d="M1688.18,-196.25C1728.08,-186.11 1777.72,-173.51 1815.54,-163.9"/>
<polygon fill="#63b8ff" stroke="#63b8ff" points="1687.5,-192.81 1678.67,-198.66 1689.23,-199.59 1687.5,-192.81"/>
</a>
</g>
</g>
<!-- Node17 -->
<g id="Node000017" class="node">
<title>Node17</title>
<g id="a_Node000017"><a xlink:href="OscProbCalcer__NuFASTLinear_8h.html" target="_top" xlink:title=" ">
<polygon fill="white" stroke="#666666" points="2117.75,-163.5 1966.75,-163.5 1966.75,-133 2117.75,-133 2117.75,-163.5"/>
<text text-anchor="start" x="1974.75" y="-150" font-family="Helvetica,sans-Serif" font-size="10.00">OscProbCalcer/OscProbCalcer</text>
<text text-anchor="middle" x="2042.25" y="-138.75" font-family="Helvetica,sans-Serif" font-size="10.00">_NuFASTLinear.h</text>
</a>
</g>
</g>
<!-- Node1&#45;&gt;Node17 -->
<g id="edge17_Node000001_Node000017" class="edge">
<title>Node1&#45;&gt;Node17</title>
<g id="a_edge17_Node000001_Node000017"><a xlink:title=" ">
<path fill="none" stroke="#63b8ff" d="M1706.29,-201.26C1774.59,-191.35 1872.05,-176.97 1957.25,-163.5 1960.21,-163.03 1963.22,-162.55 1966.26,-162.06"/>
<polygon fill="#63b8ff" stroke="#63b8ff" points="1706.05,-197.76 1696.66,-202.66 1707.05,-204.69 1706.05,-197.76"/>
</a>
</g>
</g>
<!-- Node19 -->
<g id="Node000019" class="node">
<title>Node19</title>
<g id="a_Node000019"><a xlink:href="OscProbCalcer__NuSQUIDSLinear_8h.html" target="_top" xlink:title=" ">
<polygon fill="white" stroke="#666666" points="2286.75,-163.5 2135.75,-163.5 2135.75,-133 2286.75,-133 2286.75,-163.5"/>
<text text-anchor="start" x="2143.75" y="-150" font-family="Helvetica,sans-Serif" font-size="10.00">OscProbCalcer/OscProbCalcer</text>
<text text-anchor="middle" x="2211.25" y="-138.75" font-family="Helvetica,sans-Serif" font-size="10.00">_NuSQUIDSLinear.h</text>
</a>
</g>
</g>
<!-- Node1&#45;&gt;Node19 -->
<g id="edge19_Node000001_Node000019" class="edge">
<title>Node1&#45;&gt;Node19</title>
<g id="a_edge19_Node000001_Node000019"><a xlink:title=" ">
<path fill="none" stroke="#63b8ff" d="M1706.4,-206.91C1807.57,-198.55 1979.35,-183.07 2126.25,-163.5 2129.22,-163.1 2132.24,-162.68 2135.29,-162.25"/>
<polygon fill="#63b8ff" stroke="#63b8ff" points="1706.21,-203.41 1696.53,-207.72 1706.78,-210.39 1706.21,-203.41"/>
</a>
</g>
</g>
<!-- Node21 -->
<g id="Node000021" class="node">
<title>Node21</title>
<g id="a_Node000021"><a xlink:href="OscProbCalcer__OscProb_8h.html" target="_top" xlink:title=" ">
<polygon fill="white" stroke="#666666" points="2455.75,-163.5 2304.75,-163.5 2304.75,-133 2455.75,-133 2455.75,-163.5"/>
<text text-anchor="start" x="2312.75" y="-150" font-family="Helvetica,sans-Serif" font-size="10.00">OscProbCalcer/OscProbCalcer</text>
<text text-anchor="middle" x="2380.25" y="-138.75" font-family="Helvetica,sans-Serif" font-size="10.00">_OscProb.h</text>
</a>
</g>
</g>
<!-- Node1&#45;&gt;Node21 -->
<g id="edge21_Node000001_Node000021" class="edge">
<title>Node1&#45;&gt;Node21</title>
<g id="a_edge21_Node000001_Node000021"><a xlink:title=" ">
<path fill="none" stroke="#63b8ff" d="M1706.34,-209.84C1835.33,-203.47 2084.58,-188.93 2295.25,-163.5 2298.22,-163.14 2301.25,-162.75 2304.3,-162.34"/>
<polygon fill="#63b8ff" stroke="#63b8ff" points="1706.33,-206.34 1696.51,-210.32 1706.67,-213.33 1706.33,-206.34"/>
</a>
</g>
</g>
<!-- Node23 -->
<g id="Node000023" class="node">
<title>Node23</title>
<g id="a_Node000023"><a xlink:href="OscProbCalcer__Prob3ppLinear_8h.html" target="_top" xlink:title=" ">
<polygon fill="white" stroke="#666666" points="2624.75,-163.5 2473.75,-163.5 2473.75,-133 2624.75,-133 2624.75,-163.5"/>
<text text-anchor="start" x="2481.75" y="-150" font-family="Helvetica,sans-Serif" font-size="10.00">OscProbCalcer/OscProbCalcer</text>
<text text-anchor="middle" x="2549.25" y="-138.75" font-family="Helvetica,sans-Serif" font-size="10.00">_Prob3ppLinear.h</text>
</a>
</g>
</g>
<!-- Node1&#45;&gt;Node23 -->
<g id="edge23_Node000001_Node000023" class="edge">
<title>Node1&#45;&gt;Node23</title>
<g id="a_edge23_Node000001_Node000023"><a xlink:title=" ">
<path fill="none" stroke="#63b8ff" d="M1706.43,-211.63C1859.99,-207.22 2188.59,-194.71 2464.25,-163.5 2467.22,-163.16 2470.25,-162.79 2473.31,-162.39"/>
<polygon fill="#63b8ff" stroke="#63b8ff" points="1706.64,-208.12 1696.74,-211.91 1706.84,-215.12 1706.64,-208.12"/>
</a>
</g>
</g>
<!-- Node25 -->
<g id="Node000025" class="node">
<title>Node25</title>
<g id="a_Node000025"><a xlink:href="OscProbCalcer__ProbGPULinear_8h.html" target="_top" xlink:title=" ">
<polygon fill="white" stroke="#666666" points="2793.75,-163.5 2642.75,-163.5 2642.75,-133 2793.75,-133 2793.75,-163.5"/>
<text text-anchor="start" x="2650.75" y="-150" font-family="Helvetica,sans-Serif" font-size="10.00">OscProbCalcer/OscProbCalcer</text>
<text text-anchor="middle" x="2718.25" y="-138.75" font-family="Helvetica,sans-Serif" font-size="10.00">_ProbGPULinear.h</text>
</a>
</g>
</g>
<!-- Node1&#45;&gt;Node25 -->
<g id="edge25_Node000001_Node000025" class="edge">
<title>Node1&#45;&gt;Node25</title>
<g id="a_edge25_Node000001_Node000025"><a xlink:title=" ">
<path fill="none" stroke="#63b8ff" d="M1706.43,-212.91C1882.37,-210.45 2292.25,-200.84 2634.25,-163.5 2636.9,-163.21 2639.59,-162.89 2642.3,-162.55"/>
<polygon fill="#63b8ff" stroke="#63b8ff" points="1706.4,-209.41 1696.45,-213.05 1706.49,-216.41 1706.4,-209.41"/>
</a>
</g>
</g>
<!-- Node27 -->
<g id="Node000027" class="node">
<title>Node27</title>
<g id="a_Node000027"><a xlink:href="OscillatorBase_8h.html" target="_top" xlink:title=" ">
<polygon fill="white" stroke="#666666" points="856,-157.88 724.5,-157.88 724.5,-138.62 856,-138.62 856,-157.88"/>
<text text-anchor="middle" x="790.25" y="-144.38" font-family="Helvetica,sans-Serif" font-size="10.00">Oscillator/OscillatorBase.h</text>
</a>
</g>
</g>
<!-- Node1&#45;&gt;Node27 -->
<g id="edge27_Node000001_Node000027" class="edge">
<title>Node1&#45;&gt;Node27</title>
<g id="a_edge27_Node000001_Node000027"><a xlink:title=" ">
<path fill="none" stroke="#63b8ff" d="M1532.1,-207.79C1403.31,-198.87 1154.56,-181.19 943.25,-163.5 914.8,-161.12 883.41,-158.24 856.5,-155.69"/>
<polygon fill="#63b8ff" stroke="#63b8ff" points="1531.7,-211.28 1541.92,-208.47 1532.19,-204.29 1531.7,-211.28"/>
</a>
</g>
</g>
<!-- Node4&#45;&gt;Node2 -->
<g id="edge4_Node000004_Node000002" class="edge">
<title>Node4&#45;&gt;Node2</title>
<g id="a_edge4_Node000004_Node000002"><a xlink:title=" ">
<path fill="none" stroke="#63b8ff" d="M279.05,-129.97C226.33,-117.7 157.62,-101.7 115.25,-91.83"/>
<polygon fill="#63b8ff" stroke="#63b8ff" points="278.04,-133.33 288.57,-132.19 279.63,-126.51 278.04,-133.33"/>
</a>
</g>
</g>
<!-- Node5 -->
<g id="Node000005" class="node">
<title>Node5</title>
<g id="a_Node000005"><a xlink:href="OscProbCalcerFactory_8cpp.html" target="_top" xlink:title=" ">
<polygon fill="white" stroke="#666666" points="321.75,-97 170.75,-97 170.75,-66.5 321.75,-66.5 321.75,-97"/>
<text text-anchor="start" x="178.75" y="-83.5" font-family="Helvetica,sans-Serif" font-size="10.00">OscProbCalcer/OscProbCalcer</text>
<text text-anchor="middle" x="246.25" y="-72.25" font-family="Helvetica,sans-Serif" font-size="10.00">Factory.cpp</text>
</a>
</g>
</g>
<!-- Node4&#45;&gt;Node5 -->
<g id="edge5_Node000004_Node000005" class="edge">
<title>Node4&#45;&gt;Node5</title>
<g id="a_edge5_Node000004_Node000005"><a xlink:title=" ">
<path fill="none" stroke="#63b8ff" d="M319.47,-126.89C303.55,-117.29 284.92,-106.06 270.43,-97.33"/>
<polygon fill="#63b8ff" stroke="#63b8ff" points="317.3,-129.67 327.67,-131.83 320.92,-123.67 317.3,-129.67"/>
</a>
</g>
</g>
<!-- Node6 -->
<g id="Node000006" class="node">
<title>Node6</title>
<g id="a_Node000006"><a xlink:href="OscillatorBase_8cpp.html" target="_top" xlink:title=" ">
<polygon fill="white" stroke="#666666" points="482.25,-91.38 340.25,-91.38 340.25,-72.12 482.25,-72.12 482.25,-91.38"/>
<text text-anchor="middle" x="411.25" y="-77.88" font-family="Helvetica,sans-Serif" font-size="10.00">Oscillator/OscillatorBase.cpp</text>
</a>
</g>
</g>
<!-- Node4&#45;&gt;Node6 -->
<g id="edge6_Node000004_Node000006" class="edge">
<title>Node4&#45;&gt;Node6</title>
<g id="a_edge6_Node000004_Node000006"><a xlink:title=" ">
<path fill="none" stroke="#63b8ff" d="M373.82,-124.37C384.02,-113.03 395.75,-99.99 403.32,-91.57"/>
<polygon fill="#63b8ff" stroke="#63b8ff" points="371.51,-121.71 367.42,-131.49 376.71,-126.39 371.51,-121.71"/>
</a>
</g>
</g>
<!-- Node8 -->
<g id="Node000008" class="node">
<title>Node8</title>
<g id="a_Node000008"><a xlink:href="OscProbCalcer__CHICLinear_8cpp.html" target="_top" xlink:title=" ">
<polygon fill="white" stroke="#666666" points="1272.75,-97 1121.75,-97 1121.75,-66.5 1272.75,-66.5 1272.75,-97"/>
<text text-anchor="start" x="1129.75" y="-83.5" font-family="Helvetica,sans-Serif" font-size="10.00">OscProbCalcer/OscProbCalcer</text>
<text text-anchor="middle" x="1197.25" y="-72.25" font-family="Helvetica,sans-Serif" font-size="10.00">_CHICLinear.cpp</text>
</a>
</g>
</g>
<!-- Node7&#45;&gt;Node8 -->
<g id="edge8_Node000007_Node000008" class="edge">
<title>Node7&#45;&gt;Node8</title>
<g id="a_edge8_Node000007_Node000008"><a xlink:title=" ">
<path fill="none" stroke="#63b8ff" d="M1197.25,-121.31C1197.25,-113.14 1197.25,-104.41 1197.25,-97.33"/>
<polygon fill="#63b8ff" stroke="#63b8ff" points="1193.75,-121.1 1197.25,-131.1 1200.75,-121.1 1193.75,-121.1"/>
</a>
</g>
</g>
<!-- Node10 -->
<g id="Node000010" class="node">
<title>Node10</title>
<g id="a_Node000010"><a xlink:href="OscProbCalcer__CUDAProb3_8cpp.html" target="_top" xlink:title=" ">
<polygon fill="white" stroke="#666666" points="1441.75,-97 1290.75,-97 1290.75,-66.5 1441.75,-66.5 1441.75,-97"/>
<text text-anchor="start" x="1298.75" y="-83.5" font-family="Helvetica,sans-Serif" font-size="10.00">OscProbCalcer/OscProbCalcer</text>
<text text-anchor="middle" x="1366.25" y="-72.25" font-family="Helvetica,sans-Serif" font-size="10.00">_CUDAProb3.cpp</text>
</a>
</g>
</g>
<!-- Node9&#45;&gt;Node10 -->
<g id="edge10_Node000009_Node000010" class="edge">
<title>Node9&#45;&gt;Node10</title>
<g id="a_edge10_Node000009_Node000010"><a xlink:title=" ">
<path fill="none" stroke="#63b8ff" d="M1366.25,-121.31C1366.25,-113.14 1366.25,-104.41 1366.25,-97.33"/>
<polygon fill="#63b8ff" stroke="#63b8ff" points="1362.75,-121.1 1366.25,-131.1 1369.75,-121.1 1362.75,-121.1"/>
</a>
</g>
</g>
<!-- Node12 -->
<g id="Node000012" class="node">
<title>Node12</title>
<g id="a_Node000012"><a xlink:href="OscProbCalcer__CUDAProb3Linear_8cpp.html" target="_top" xlink:title=" ">
<polygon fill="white" stroke="#666666" points="1610.75,-97 1459.75,-97 1459.75,-66.5 1610.75,-66.5 1610.75,-97"/>
<text text-anchor="start" x="1467.75" y="-83.5" font-family="Helvetica,sans-Serif" font-size="10.00">OscProbCalcer/OscProbCalcer</text>
<text text-anchor="middle" x="1535.25" y="-72.25" font-family="Helvetica,sans-Serif" font-size="10.00">_CUDAProb3Linear.cpp</text>
</a>
</g>
</g>
<!-- Node11&#45;&gt;Node12 -->
<g id="edge12_Node000011_Node000012" class="edge">
<title>Node11&#45;&gt;Node12</title>
<g id="a_edge12_Node000011_Node000012"><a xlink:title=" ">
<path fill="none" stroke="#63b8ff" d="M1535.25,-121.31C1535.25,-113.14 1535.25,-104.41 1535.25,-97.33"/>
<polygon fill="#63b8ff" stroke="#63b8ff" points="1531.75,-121.1 1535.25,-131.1 1538.75,-121.1 1531.75,-121.1"/>
</a>
</g>
</g>
<!-- Node14 -->
<g id="Node000014" class="node">
<title>Node14</title>
<g id="a_Node000014"><a xlink:href="OscProbCalcer__GLoBESLinear_8cpp.html" target="_top" xlink:title=" ">
<polygon fill="white" stroke="#666666" points="1779.75,-97 1628.75,-97 1628.75,-66.5 1779.75,-66.5 1779.75,-97"/>
<text text-anchor="start" x="1636.75" y="-83.5" font-family="Helvetica,sans-Serif" font-size="10.00">OscProbCalcer/OscProbCalcer</text>
<text text-anchor="middle" x="1704.25" y="-72.25" font-family="Helvetica,sans-Serif" font-size="10.00">_GLoBESLinear.cpp</text>
</a>
</g>
</g>
<!-- Node13&#45;&gt;Node14 -->
<g id="edge14_Node000013_Node000014" class="edge">
<title>Node13&#45;&gt;Node14</title>
<g id="a_edge14_Node000013_Node000014"><a xlink:title=" ">
<path fill="none" stroke="#63b8ff" d="M1704.25,-121.31C1704.25,-113.14 1704.25,-104.41 1704.25,-97.33"/>
<polygon fill="#63b8ff" stroke="#63b8ff" points="1700.75,-121.1 1704.25,-131.1 1707.75,-121.1 1700.75,-121.1"/>
</a>
</g>
</g>
<!-- Node16 -->
<g id="Node000016" class="node">
<title>Node16</title>
<g id="a_Node000016"><a xlink:href="OscProbCalcer__NuFASTEarth_8cpp.html" target="_top" xlink:title=" ">
<polygon fill="white" stroke="#666666" points="1948.75,-97 1797.75,-97 1797.75,-66.5 1948.75,-66.5 1948.75,-97"/>
<text text-anchor="start" x="1805.75" y="-83.5" font-family="Helvetica,sans-Serif" font-size="10.00">OscProbCalcer/OscProbCalcer</text>
<text text-anchor="middle" x="1873.25" y="-72.25" font-family="Helvetica,sans-Serif" font-size="10.00">_NuFASTEarth.cpp</text>
</a>
</g>
</g>
<!-- Node15&#45;&gt;Node16 -->
<g id="edge16_Node000015_Node000016" class="edge">
<title>Node15&#45;&gt;Node16</title>
<g id="a_edge16_Node000015_Node000016"><a xlink:title=" ">
<path fill="none" stroke="#63b8ff" d="M1873.25,-121.31C1873.25,-113.14 1873.25,-104.41 1873.25,-97.33"/>
<polygon fill="#63b8ff" stroke="#63b8ff" points="1869.75,-121.1 1873.25,-131.1 1876.75,-121.1 1869.75,-121.1"/>
</a>
</g>
</g>
<!-- Node18 -->
<g id="Node000018" class="node">
<title>Node18</title>
<g id="a_Node000018"><a xlink:href="OscProbCalcer__NuFASTLinear_8cpp.html" target="_top" xlink:title=" ">
<polygon fill="white" stroke="#666666" points="2117.75,-97 1966.75,-97 1966.75,-66.5 2117.75,-66.5 2117.75,-97"/>
<text text-anchor="start" x="1974.75" y="-83.5" font-family="Helvetica,sans-Serif" font-size="10.00">OscProbCalcer/OscProbCalcer</text>
<text text-anchor="middle" x="2042.25" y="-72.25" font-family="Helvetica,sans-Serif" font-size="10.00">_NuFASTLinear.cpp</text>
</a>
</g>
</g>
<!-- Node17&#45;&gt;Node18 -->
<g id="edge18_Node000017_Node000018" class="edge">
<title>Node17&#45;&gt;Node18</title>
<g id="a_edge18_Node000017_Node000018"><a xlink:title=" ">
<path fill="none" stroke="#63b8ff" d="M2042.25,-121.31C2042.25,-113.14 2042.25,-104.41 2042.25,-97.33"/>
<polygon fill="#63b8ff" stroke="#63b8ff" points="2038.75,-121.1 2042.25,-131.1 2045.75,-121.1 2038.75,-121.1"/>
</a>
</g>
</g>
<!-- Node20 -->
<g id="Node000020" class="node">
<title>Node20</title>
<g id="a_Node000020"><a xlink:href="OscProbCalcer__NuSQUIDSLinear_8cpp.html" target="_top" xlink:title=" ">
<polygon fill="white" stroke="#666666" points="2286.75,-97 2135.75,-97 2135.75,-66.5 2286.75,-66.5 2286.75,-97"/>
<text text-anchor="start" x="2143.75" y="-83.5" font-family="Helvetica,sans-Serif" font-size="10.00">OscProbCalcer/OscProbCalcer</text>
<text text-anchor="middle" x="2211.25" y="-72.25" font-family="Helvetica,sans-Serif" font-size="10.00">_NuSQUIDSLinear.cpp</text>
</a>
</g>
</g>
<!-- Node19&#45;&gt;Node20 -->
<g id="edge20_Node000019_Node000020" class="edge">
<title>Node19&#45;&gt;Node20</title>
<g id="a_edge20_Node000019_Node000020"><a xlink:title=" ">
<path fill="none" stroke="#63b8ff" d="M2211.25,-121.31C2211.25,-113.14 2211.25,-104.41 2211.25,-97.33"/>
<polygon fill="#63b8ff" stroke="#63b8ff" points="2207.75,-121.1 2211.25,-131.1 2214.75,-121.1 2207.75,-121.1"/>
</a>
</g>
</g>
<!-- Node22 -->
<g id="Node000022" class="node">
<title>Node22</title>
<g id="a_Node000022"><a xlink:href="OscProbCalcer__OscProb_8cpp.html" target="_top" xlink:title=" ">
<polygon fill="white" stroke="#666666" points="2455.75,-97 2304.75,-97 2304.75,-66.5 2455.75,-66.5 2455.75,-97"/>
<text text-anchor="start" x="2312.75" y="-83.5" font-family="Helvetica,sans-Serif" font-size="10.00">OscProbCalcer/OscProbCalcer</text>
<text text-anchor="middle" x="2380.25" y="-72.25" font-family="Helvetica,sans-Serif" font-size="10.00">_OscProb.cpp</text>
</a>
</g>
</g>
<!-- Node21&#45;&gt;Node22 -->
<g id="edge22_Node000021_Node000022" class="edge">
<title>Node21&#45;&gt;Node22</title>
<g id="a_edge22_Node000021_Node000022"><a xlink:title=" ">
<path fill="none" stroke="#63b8ff" d="M2380.25,-121.31C2380.25,-113.14 2380.25,-104.41 2380.25,-97.33"/>
<polygon fill="#63b8ff" stroke="#63b8ff" points="2376.75,-121.1 2380.25,-131.1 2383.75,-121.1 2376.75,-121.1"/>
</a>
</g>
</g>
<!-- Node24 -->
<g id="Node000024" class="node">
<title>Node24</title>
<g id="a_Node000024"><a xlink:href="OscProbCalcer__Prob3ppLinear_8cpp.html" target="_top" xlink:title=" ">
<polygon fill="white" stroke="#666666" points="2624.75,-97 2473.75,-97 2473.75,-66.5 2624.75,-66.5 2624.75,-97"/>
<text text-anchor="start" x="2481.75" y="-83.5" font-family="Helvetica,sans-Serif" font-size="10.00">OscProbCalcer/OscProbCalcer</text>
<text text-anchor="middle" x="2549.25" y="-72.25" font-family="Helvetica,sans-Serif" font-size="10.00">_Prob3ppLinear.cpp</text>
</a>
</g>
</g>
<!-- Node23&#45;&gt;Node24 -->
<g id="edge24_Node000023_Node000024" class="edge">
<title>Node23&#45;&gt;Node24</title>
<g id="a_edge24_Node000023_Node000024"><a xlink:title=" ">
<path fill="none" stroke="#63b8ff" d="M2549.25,-121.31C2549.25,-113.14 2549.25,-104.41 2549.25,-97.33"/>
<polygon fill="#63b8ff" stroke="#63b8ff" points="2545.75,-121.1 2549.25,-131.1 2552.75,-121.1 2545.75,-121.1"/>
</a>
</g>
</g>
<!-- Node26 -->
<g id="Node000026" class="node">
<title>Node26</title>
<g id="a_Node000026"><a xlink:href="OscProbCalcer__ProbGPULinear_8cpp.html" target="_top" xlink:title=" ">
<polygon fill="white" stroke="#666666" points="2793.75,-97 2642.75,-97 2642.75,-66.5 2793.75,-66.5 2793.75,-97"/>
<text text-anchor="start" x="2650.75" y="-83.5" font-family="Helvetica,sans-Serif" font-size="10.00">OscProbCalcer/OscProbCalcer</text>
<text text-anchor="middle" x="2718.25" y="-72.25" font-family="Helvetica,sans-Serif" font-size="10.00">_ProbGPULinear.cpp</text>
</a>
</g>
</g>
<!-- Node25&#45;&gt;Node26 -->
<g id="edge26_Node000025_Node000026" class="edge">
<title>Node25&#45;&gt;Node26</title>
<g id="a_edge26_Node000025_Node000026"><a xlink:title=" ">
<path fill="none" stroke="#63b8ff" d="M2718.25,-121.31C2718.25,-113.14 2718.25,-104.41 2718.25,-97.33"/>
<polygon fill="#63b8ff" stroke="#63b8ff" points="2714.75,-121.1 2718.25,-131.1 2721.75,-121.1 2714.75,-121.1"/>
</a>
</g>
</g>
<!-- Node27&#45;&gt;Node6 -->
<g id="edge28_Node000027_Node000006" class="edge">
<title>Node27&#45;&gt;Node6</title>
<g id="a_edge28_Node000027_Node000006"><a xlink:title=" ">
<path fill="none" stroke="#63b8ff" d="M723.8,-136.27C663.19,-126.22 571.16,-110.83 491.25,-97 481.8,-95.36 471.72,-93.59 462.02,-91.87"/>
<polygon fill="#63b8ff" stroke="#63b8ff" points="723.18,-139.72 733.62,-137.9 724.33,-132.81 723.18,-139.72"/>
</a>
</g>
</g>
<!-- Node28 -->
<g id="Node000028" class="node">
<title>Node28</title>
<g id="a_Node000028"><a xlink:href="OscillatorBinned_8h.html" target="_top" xlink:title=" ">
<polygon fill="white" stroke="#666666" points="944.75,-91.38 805.75,-91.38 805.75,-72.12 944.75,-72.12 944.75,-91.38"/>
<text text-anchor="middle" x="875.25" y="-77.88" font-family="Helvetica,sans-Serif" font-size="10.00">Oscillator/OscillatorBinned.h</text>
</a>
</g>
</g>
<!-- Node27&#45;&gt;Node28 -->
<g id="edge29_Node000027_Node000028" class="edge">
<title>Node27&#45;&gt;Node28</title>
<g id="a_edge29_Node000027_Node000028"><a xlink:title=" ">
<path fill="none" stroke="#63b8ff" d="M810.93,-131.56C827.33,-119.11 849.68,-102.15 863.26,-91.85"/>
<polygon fill="#63b8ff" stroke="#63b8ff" points="809.13,-128.53 803.27,-137.37 813.36,-134.11 809.13,-128.53"/>
</a>
</g>
</g>
<!-- Node31 -->
<g id="Node000031" class="node">
<title>Node31</title>
<g id="a_Node000031"><a xlink:href="OscillatorFactory_8h.html" target="_top" xlink:title=" ">
<polygon fill="white" stroke="#666666" points="1103.88,-91.38 962.62,-91.38 962.62,-72.12 1103.88,-72.12 1103.88,-91.38"/>
<text text-anchor="middle" x="1033.25" y="-77.88" font-family="Helvetica,sans-Serif" font-size="10.00">Oscillator/OscillatorFactory.h</text>
</a>
</g>
</g>
<!-- Node27&#45;&gt;Node31 -->
<g id="edge32_Node000027_Node000031" class="edge">
<title>Node27&#45;&gt;Node31</title>
<g id="a_edge32_Node000027_Node000031"><a xlink:title=" ">
<path fill="none" stroke="#63b8ff" d="M835.42,-135.26C882.84,-122.67 956.33,-103.17 999.12,-91.81"/>
<polygon fill="#63b8ff" stroke="#63b8ff" points="834.78,-131.81 826.01,-137.76 836.58,-138.57 834.78,-131.81"/>
</a>
</g>
</g>
<!-- Node37 -->
<g id="Node000037" class="node">
<title>Node37</title>
<g id="a_Node000037"><a xlink:href="OscillatorSubSampling_8h.html" target="_top" xlink:title=" ">
<polygon fill="white" stroke="#666666" points="618.62,-97 499.88,-97 499.88,-66.5 618.62,-66.5 618.62,-97"/>
<text text-anchor="start" x="507.88" y="-83.5" font-family="Helvetica,sans-Serif" font-size="10.00">Oscillator/OscillatorSub</text>
<text text-anchor="middle" x="559.25" y="-72.25" font-family="Helvetica,sans-Serif" font-size="10.00">Sampling.h</text>
</a>
</g>
</g>
<!-- Node27&#45;&gt;Node37 -->
<g id="edge39_Node000027_Node000037" class="edge">
<title>Node27&#45;&gt;Node37</title>
<g id="a_edge39_Node000027_Node000037"><a xlink:title=" ">
<path fill="none" stroke="#63b8ff" d="M746.84,-135.13C708.51,-124.43 652.54,-108.8 611.71,-97.4"/>
<polygon fill="#63b8ff" stroke="#63b8ff" points="745.61,-138.42 756.19,-137.74 747.5,-131.68 745.61,-138.42"/>
</a>
</g>
</g>
<!-- Node39 -->
<g id="Node000039" class="node">
<title>Node39</title>
<g id="a_Node000039"><a xlink:href="OscillatorUnbinned_8h.html" target="_top" xlink:title=" ">
<polygon fill="white" stroke="#666666" points="787.38,-91.38 637.12,-91.38 637.12,-72.12 787.38,-72.12 787.38,-91.38"/>
<text text-anchor="middle" x="712.25" y="-77.88" font-family="Helvetica,sans-Serif" font-size="10.00">Oscillator/OscillatorUnbinned.h</text>
</a>
</g>
</g>
<!-- Node27&#45;&gt;Node39 -->
<g id="edge42_Node000027_Node000039" class="edge">
<title>Node27&#45;&gt;Node39</title>
<g id="a_edge42_Node000027_Node000039"><a xlink:title=" ">
<path fill="none" stroke="#63b8ff" d="M770.8,-131.17C755.69,-118.67 735.3,-101.81 723,-91.64"/>
<polygon fill="#63b8ff" stroke="#63b8ff" points="768.3,-133.64 778.24,-137.32 772.76,-128.25 768.3,-133.64"/>
</a>
</g>
</g>
<!-- Node29 -->
<g id="Node000029" class="node">
<title>Node29</title>
<g id="a_Node000029"><a xlink:href="OscillatorBinned_8cpp.html" target="_top" xlink:title=" ">
<polygon fill="white" stroke="#666666" points="953,-24.88 803.5,-24.88 803.5,-5.63 953,-5.63 953,-24.88"/>
<text text-anchor="middle" x="878.25" y="-11.38" font-family="Helvetica,sans-Serif" font-size="10.00">Oscillator/OscillatorBinned.cpp</text>
</a>
</g>
</g>
<!-- Node28&#45;&gt;Node29 -->
<g id="edge30_Node000028_Node000029" class="edge">
<title>Node28&#45;&gt;Node29</title>
<g id="a_edge30_Node000028_Node000029"><a xlink:title=" ">
<path fill="none" stroke="#63b8ff" d="M876.18,-60.65C876.74,-48.75 877.41,-34.26 877.84,-25.14"/>
<polygon fill="#63b8ff" stroke="#63b8ff" points="872.71,-60.12 875.74,-70.27 879.7,-60.44 872.71,-60.12"/>
</a>
</g>
</g>
<!-- Node30 -->
<g id="Node000030" class="node">
<title>Node30</title>
<g id="a_Node000030"><a xlink:href="OscillatorFactory_8cpp.html" target="_top" xlink:title=" ">
<polygon fill="white" stroke="#666666" points="785.12,-24.88 633.38,-24.88 633.38,-5.63 785.12,-5.63 785.12,-24.88"/>
<text text-anchor="middle" x="709.25" y="-11.38" font-family="Helvetica,sans-Serif" font-size="10.00">Oscillator/OscillatorFactory.cpp</text>
</a>
</g>
</g>
<!-- Node28&#45;&gt;Node30 -->
<g id="edge31_Node000028_Node000030" class="edge">
<title>Node28&#45;&gt;Node30</title>
<g id="a_edge31_Node000028_Node000030"><a xlink:title=" ">
<path fill="none" stroke="#63b8ff" d="M841.47,-67.63C809.05,-55.03 760.93,-36.33 732.56,-25.31"/>
<polygon fill="#63b8ff" stroke="#63b8ff" points="839.82,-70.74 850.41,-71.1 842.35,-64.21 839.82,-70.74"/>
</a>
</g>
</g>
<!-- Node31&#45;&gt;Node30 -->
<g id="edge38_Node000031_Node000030" class="edge">
<title>Node31&#45;&gt;Node30</title>
<g id="a_edge38_Node000031_Node000030"><a xlink:title=" ">
<path fill="none" stroke="#63b8ff" d="M976.6,-69.47C913.64,-56.94 813.2,-36.94 755.01,-25.36"/>
<polygon fill="#63b8ff" stroke="#63b8ff" points="975.54,-72.83 986.03,-71.35 976.91,-65.96 975.54,-72.83"/>
</a>
</g>
</g>
<!-- Node32 -->
<g id="Node000032" class="node">
<title>Node32</title>
<g id="a_Node000032"><a xlink:href="Analysis_8cpp.html" target="_top" xlink:title=" ">
<polygon fill="white" stroke="#666666" points="1529.38,-24.88 1433.12,-24.88 1433.12,-5.63 1529.38,-5.63 1529.38,-24.88"/>
<text text-anchor="middle" x="1481.25" y="-11.38" font-family="Helvetica,sans-Serif" font-size="10.00">Apps/Analysis.cpp</text>
</a>
</g>
</g>
<!-- Node31&#45;&gt;Node32 -->
<g id="edge33_Node000031_Node000032" class="edge">
<title>Node31&#45;&gt;Node32</title>
<g id="a_edge33_Node000031_Node000032"><a xlink:title=" ">
<path fill="none" stroke="#63b8ff" d="M1092.11,-69.71C1098.89,-68.56 1105.71,-67.47 1112.25,-66.5 1250.34,-46.1 1286.92,-55.48 1424.25,-30.5 1431.98,-29.09 1440.21,-27.25 1447.95,-25.35"/>
<polygon fill="#63b8ff" stroke="#63b8ff" points="1091.54,-66.25 1082.28,-71.41 1092.74,-73.15 1091.54,-66.25"/>
</a>
</g>
</g>
<!-- Node33 -->
<g id="Node000033" class="node">
<title>Node33</title>
<g id="a_Node000033"><a xlink:href="CompareOscillationProbabilities_8cpp.html" target="_top" xlink:title=" ">
<polygon fill="white" stroke="#666666" points="1745,-24.88 1547.5,-24.88 1547.5,-5.63 1745,-5.63 1745,-24.88"/>
<text text-anchor="middle" x="1646.25" y="-11.38" font-family="Helvetica,sans-Serif" font-size="10.00">Apps/CompareOscillationProbabilities.cpp</text>
</a>
</g>
</g>
<!-- Node31&#45;&gt;Node33 -->
<g id="edge34_Node000031_Node000033" class="edge">
<title>Node31&#45;&gt;Node33</title>
<g id="a_edge34_Node000031_Node000033"><a xlink:title=" ">
<path fill="none" stroke="#63b8ff" d="M1090.74,-69.73C1097.96,-68.54 1105.27,-67.42 1112.25,-66.5 1300.62,-41.61 1349.34,-50.93 1538.25,-30.5 1552.07,-29.01 1566.86,-27.19 1580.92,-25.37"/>
<polygon fill="#63b8ff" stroke="#63b8ff" points="1090.26,-66.26 1081,-71.4 1091.44,-73.16 1090.26,-66.26"/>
</a>
</g>
</g>
<!-- Node34 -->
<g id="Node000034" class="node">
<title>Node34</title>
<g id="a_Node000034"><a xlink:href="DragRace_8cpp.html" target="_top" xlink:title=" ">
<polygon fill="white" stroke="#666666" points="1073.38,-24.88 971.12,-24.88 971.12,-5.63 1073.38,-5.63 1073.38,-24.88"/>
<text text-anchor="middle" x="1022.25" y="-11.38" font-family="Helvetica,sans-Serif" font-size="10.00">Apps/DragRace.cpp</text>
</a>
</g>
</g>
<!-- Node31&#45;&gt;Node34 -->
<g id="edge35_Node000031_Node000034" class="edge">
<title>Node31&#45;&gt;Node34</title>
<g id="a_edge35_Node000031_Node000034"><a xlink:title=" ">
<path fill="none" stroke="#63b8ff" d="M1029.82,-60.65C1027.79,-48.75 1025.32,-34.26 1023.77,-25.14"/>
<polygon fill="#63b8ff" stroke="#63b8ff" points="1026.33,-61.02 1031.47,-70.29 1033.23,-59.84 1026.33,-61.02"/>
</a>
</g>
</g>
<!-- Node35 -->
<g id="Node000035" class="node">
<title>Node35</title>
<g id="a_Node000035"><a xlink:href="OscProbCalcerComparison_8cpp.html" target="_top" xlink:title=" ">
<polygon fill="white" stroke="#666666" points="1268.88,-24.88 1091.62,-24.88 1091.62,-5.63 1268.88,-5.63 1268.88,-24.88"/>
<text text-anchor="middle" x="1180.25" y="-11.38" font-family="Helvetica,sans-Serif" font-size="10.00">Apps/OscProbCalcerComparison.cpp</text>
</a>
</g>
</g>
<!-- Node31&#45;&gt;Node35 -->
<g id="edge36_Node000031_Node000035" class="edge">
<title>Node31&#45;&gt;Node35</title>
<g id="a_edge36_Node000031_Node000035"><a xlink:title=" ">
<path fill="none" stroke="#63b8ff" d="M1064.29,-67.13C1092.98,-54.54 1134.81,-36.19 1159.61,-25.31"/>
<polygon fill="#63b8ff" stroke="#63b8ff" points="1063.14,-63.81 1055.39,-71.04 1065.95,-70.22 1063.14,-63.81"/>
</a>
</g>
</g>
<!-- Node36 -->
<g id="Node000036" class="node">
<title>Node36</title>
<g id="a_Node000036"><a xlink:href="SingleOscillator_8cpp.html" target="_top" xlink:title=" ">
<polygon fill="white" stroke="#666666" points="1415.12,-24.88 1287.38,-24.88 1287.38,-5.63 1415.12,-5.63 1415.12,-24.88"/>
<text text-anchor="middle" x="1351.25" y="-11.38" font-family="Helvetica,sans-Serif" font-size="10.00">Apps/SingleOscillator.cpp</text>
</a>
</g>
</g>
<!-- Node31&#45;&gt;Node36 -->
<g id="edge37_Node000031_Node000036" class="edge">
<title>Node31&#45;&gt;Node36</title>
<g id="a_edge37_Node000031_Node000036"><a xlink:title=" ">
<path fill="none" stroke="#63b8ff" d="M1089.24,-69.39C1151.05,-56.86 1249.35,-36.92 1306.33,-25.36"/>
<polygon fill="#63b8ff" stroke="#63b8ff" points="1088.73,-65.93 1079.62,-71.34 1090.12,-72.79 1088.73,-65.93"/>
</a>
</g>
</g>
<!-- Node37&#45;&gt;Node30 -->
<g id="edge40_Node000037_Node000030" class="edge">
<title>Node37&#45;&gt;Node30</title>
<g id="a_edge40_Node000037_Node000030"><a xlink:title=" ">
<path fill="none" stroke="#63b8ff" d="M603.64,-61.66C631.62,-49.63 666.47,-34.65 688.3,-25.26"/>
<polygon fill="#63b8ff" stroke="#63b8ff" points="602.48,-58.35 594.68,-65.52 605.25,-64.78 602.48,-58.35"/>
</a>
</g>
</g>
<!-- Node38 -->
<g id="Node000038" class="node">
<title>Node38</title>
<g id="a_Node000038"><a xlink:href="OscillatorSubSampling_8cpp.html" target="_top" xlink:title=" ">
<polygon fill="white" stroke="#666666" points="436.62,-30.5 317.88,-30.5 317.88,0 436.62,0 436.62,-30.5"/>
<text text-anchor="start" x="325.88" y="-17" font-family="Helvetica,sans-Serif" font-size="10.00">Oscillator/OscillatorSub</text>
<text text-anchor="middle" x="377.25" y="-5.75" font-family="Helvetica,sans-Serif" font-size="10.00">Sampling.cpp</text>
</a>
</g>
</g>
<!-- Node37&#45;&gt;Node38 -->
<g id="edge41_Node000037_Node000038" class="edge">
<title>Node37&#45;&gt;Node38</title>
<g id="a_edge41_Node000037_Node000038"><a xlink:title=" ">
<path fill="none" stroke="#63b8ff" d="M507.13,-62.28C479.07,-52.33 444.93,-40.24 418.7,-30.94"/>
<polygon fill="#63b8ff" stroke="#63b8ff" points="505.93,-65.57 516.52,-65.61 508.27,-58.97 505.93,-65.57"/>
</a>
</g>
</g>
<!-- Node39&#45;&gt;Node30 -->
<g id="edge43_Node000039_Node000030" class="edge">
<title>Node39&#45;&gt;Node30</title>
<g id="a_edge43_Node000039_Node000030"><a xlink:title=" ">
<path fill="none" stroke="#63b8ff" d="M711.32,-60.65C710.76,-48.75 710.09,-34.26 709.66,-25.14"/>
<polygon fill="#63b8ff" stroke="#63b8ff" points="707.8,-60.44 711.76,-70.27 714.79,-60.12 707.8,-60.44"/>
</a>
</g>
</g>
<!-- Node40 -->
<g id="Node000040" class="node">
<title>Node40</title>
<g id="a_Node000040"><a xlink:href="OscillatorUnbinned_8cpp.html" target="_top" xlink:title=" ">
<polygon fill="white" stroke="#666666" points="615.62,-24.88 454.88,-24.88 454.88,-5.63 615.62,-5.63 615.62,-24.88"/>
<text text-anchor="middle" x="535.25" y="-11.38" font-family="Helvetica,sans-Serif" font-size="10.00">Oscillator/OscillatorUnbinned.cpp</text>
</a>
</g>
</g>
<!-- Node39&#45;&gt;Node40 -->
<g id="edge44_Node000039_Node000040" class="edge">
<title>Node39&#45;&gt;Node40</title>
<g id="a_edge44_Node000039_Node000040"><a xlink:title=" ">
<path fill="none" stroke="#63b8ff" d="M676.69,-67.79C642.11,-55.19 590.49,-36.38 560.11,-25.31"/>
<polygon fill="#63b8ff" stroke="#63b8ff" points="675.25,-70.99 685.84,-71.13 677.65,-64.41 675.25,-70.99"/>
</a>
</g>
</g>
</g>
</svg>
