<?xml version="1.0" encoding="UTF-8" standalone="no"?>
<!DOCTYPE svg PUBLIC "-//W3C//DTD SVG 1.1//EN"
 "http://www.w3.org/Graphics/SVG/1.1/DTD/svg11.dtd">
<!-- Generated by graphviz version 12.2.0 (20241103.1931)
 -->
<!-- Title: OscProbCalcer/OscProbCalcerBase.h Pages: 1 -->
<svg width="2976pt" height="238pt"
 viewBox="0.00 0.00 2975.75 238.00" xmlns="http://www.w3.org/2000/svg" xmlns:xlink="http://www.w3.org/1999/xlink">
<g id="graph0" class="graph" transform="scale(1 1) rotate(0) translate(4 234)">
<title>OscProbCalcer/OscProbCalcerBase.h</title>
<!-- Node1 -->
<g id="Node000001" class="node">
<title>Node1</title>
<g id="a_Node000001"><a xlink:title=" ">
<polygon fill="#999999" stroke="#666666" points="1784.75,-230 1633.75,-230 1633.75,-199.5 1784.75,-199.5 1784.75,-230"/>
<text text-anchor="start" x="1641.75" y="-216.5" font-family="Helvetica,sans-Serif" font-size="10.00">OscProbCalcer/OscProbCalcer</text>
<text text-anchor="middle" x="1709.25" y="-205.25" font-family="Helvetica,sans-Serif" font-size="10.00">Base.h</text>
</a>
</g>
</g>
<!-- Node2 -->
<g id="Node000002" class="node">
<title>Node2</title>
<g id="a_Node000002"><a xlink:href="SingleOscProbCalcer_8cpp.html" target="_top" xlink:title=" ">
<polygon fill="white" stroke="#666666" points="152.5,-91.38 0,-91.38 0,-72.12 152.5,-72.12 152.5,-91.38"/>
<text text-anchor="middle" x="76.25" y="-77.88" font-family="Helvetica,sans-Serif" font-size="10.00">Apps/SingleOscProbCalcer.cpp</text>
</a>
</g>
</g>
<!-- Node1&#45;&gt;Node2 -->
<g id="edge1_Node000001_Node000002" class="edge">
<title>Node1&#45;&gt;Node2</title>
<g id="a_edge1_Node000001_Node000002"><a xlink:title=" ">
<path fill="none" stroke="#63b8ff" d="M1622.34,-212.55C1331.02,-208.27 399.96,-192.47 268.25,-163.5 199.38,-148.35 124.03,-109.43 92.03,-91.74"/>
<polygon fill="#63b8ff" stroke="#63b8ff" points="1622.1,-216.05 1632.15,-212.69 1622.21,-209.05 1622.1,-216.05"/>
</a>
</g>
</g>
<!-- Node3 -->
<g id="Node000003" class="node">
<title>Node3</title>
<g id="a_Node000003"><a xlink:href="OscProbCalcerBase_8cpp.html" target="_top" xlink:title=" ">
<polygon fill="white" stroke="#666666" points="1108.75,-163.5 957.75,-163.5 957.75,-133 1108.75,-133 1108.75,-163.5"/>
<text text-anchor="start" x="965.75" y="-150" font-family="Helvetica,sans-Serif" font-size="10.00">OscProbCalcer/OscProbCalcer</text>
<text text-anchor="middle" x="1033.25" y="-138.75" font-family="Helvetica,sans-Serif" font-size="10.00">Base.cpp</text>
</a>
</g>
</g>
<!-- Node1&#45;&gt;Node3 -->
<g id="edge2_Node000001_Node000003" class="edge">
<title>Node1&#45;&gt;Node3</title>
<g id="a_edge2_Node000001_Node000003"><a xlink:title=" ">
<path fill="none" stroke="#63b8ff" d="M1622.26,-208.57C1506.8,-201.2 1296.71,-186.01 1118.25,-163.5 1115.28,-163.13 1112.26,-162.72 1109.2,-162.3"/>
<polygon fill="#63b8ff" stroke="#63b8ff" points="1621.76,-212.05 1631.97,-209.19 1622.21,-205.06 1621.76,-212.05"/>
</a>
</g>
</g>
<!-- Node4 -->
<g id="Node000004" class="node">
<title>Node4</title>
<g id="a_Node000004"><a xlink:href="OscProbCalcerFactory_8h.html" target="_top" xlink:title=" ">
<polygon fill="white" stroke="#666666" points="428.75,-163.5 277.75,-163.5 277.75,-133 428.75,-133 428.75,-163.5"/>
<text text-anchor="start" x="285.75" y="-150" font-family="Helvetica,sans-Serif" font-size="10.00">OscProbCalcer/OscProbCalcer</text>
<text text-anchor="middle" x="353.25" y="-138.75" font-family="Helvetica,sans-Serif" font-size="10.00">Factory.h</text>
</a>
</g>
</g>
<!-- Node1&#45;&gt;Node4 -->
<g id="edge3_Node000001_Node000004" class="edge">
<title>Node1&#45;&gt;Node4</title>
<g id="a_edge3_Node000001_Node000004"><a xlink:title=" ">
<path fill="none" stroke="#63b8ff" d="M1621.94,-209.6C1373.03,-197.76 662.81,-163.97 428.94,-152.85"/>
<polygon fill="#63b8ff" stroke="#63b8ff" points="1621.77,-213.09 1631.93,-210.07 1622.11,-206.1 1621.77,-213.09"/>
</a>
</g>
</g>
<!-- Node7 -->
<g id="Node000007" class="node">
<title>Node7</title>
<g id="a_Node000007"><a xlink:href="OscProbCalcer__CHICLinear_8h.html" target="_top" xlink:title=" ">
<polygon fill="white" stroke="#666666" points="1277.75,-163.5 1126.75,-163.5 1126.75,-133 1277.75,-133 1277.75,-163.5"/>
<text text-anchor="start" x="1134.75" y="-150" font-family="Helvetica,sans-Serif" font-size="10.00">OscProbCalcer/OscProbCalcer</text>
<text text-anchor="middle" x="1202.25" y="-138.75" font-family="Helvetica,sans-Serif" font-size="10.00">_CHICLinear.h</text>
</a>
</g>
</g>
<!-- Node1&#45;&gt;Node7 -->
<g id="edge7_Node000001_Node000007" class="edge">
<title>Node1&#45;&gt;Node7</title>
<g id="a_edge7_Node000001_Node000007"><a xlink:title=" ">
<path fill="none" stroke="#63b8ff" d="M1622.05,-204.59C1536.6,-195.33 1402.76,-180.05 1287.25,-163.5 1284.29,-163.08 1281.27,-162.63 1278.22,-162.17"/>
<polygon fill="#63b8ff" stroke="#63b8ff" points="1621.43,-208.05 1631.75,-205.64 1622.19,-201.09 1621.43,-208.05"/>
</a>
</g>
</g>
<!-- Node9 -->
<g id="Node000009" class="node">
<title>Node9</title>
<g id="a_Node000009"><a xlink:href="OscProbCalcer__CUDAProb3_8h.html" target="_top" xlink:title=" ">
<polygon fill="white" stroke="#666666" points="1446.75,-163.5 1295.75,-163.5 1295.75,-133 1446.75,-133 1446.75,-163.5"/>
<text text-anchor="start" x="1303.75" y="-150" font-family="Helvetica,sans-Serif" font-size="10.00">OscProbCalcer/OscProbCalcer</text>
<text text-anchor="middle" x="1371.25" y="-138.75" font-family="Helvetica,sans-Serif" font-size="10.00">_CUDAProb3.h</text>
</a>
</g>
</g>
<!-- Node1&#45;&gt;Node9 -->
<g id="edge9_Node000001_Node000009" class="edge">
<title>Node1&#45;&gt;Node9</title>
<g id="a_edge9_Node000001_Node000009"><a xlink:title=" ">
<path fill="none" stroke="#63b8ff" d="M1622.42,-197.18C1568.23,-186.84 1499.14,-173.65 1447.14,-163.73"/>
<polygon fill="#63b8ff" stroke="#63b8ff" points="1621.43,-200.55 1631.91,-198.99 1622.74,-193.68 1621.43,-200.55"/>
</a>
</g>
</g>
<!-- Node11 -->
<g id="Node000011" class="node">
<title>Node11</title>
<g id="a_Node000011"><a xlink:href="OscProbCalcer__CUDAProb3Linear_8h.html" target="_top" xlink:title=" ">
<polygon fill="white" stroke="#666666" points="1615.75,-163.5 1464.75,-163.5 1464.75,-133 1615.75,-133 1615.75,-163.5"/>
<text text-anchor="start" x="1472.75" y="-150" font-family="Helvetica,sans-Serif" font-size="10.00">OscProbCalcer/OscProbCalcer</text>
<text text-anchor="middle" x="1540.25" y="-138.75" font-family="Helvetica,sans-Serif" font-size="10.00">_CUDAProb3Linear.h</text>
</a>
</g>
</g>
<!-- Node1&#45;&gt;Node11 -->
<g id="edge11_Node000001_Node000011" class="edge">
<title>Node1&#45;&gt;Node11</title>
<g id="a_edge11_Node000001_Node000011"><a xlink:title=" ">
<path fill="none" stroke="#63b8ff" d="M1660.16,-195.01C1634.24,-185.12 1602.88,-173.15 1578.74,-163.94"/>
<polygon fill="#63b8ff" stroke="#63b8ff" points="1658.9,-198.28 1669.49,-198.57 1661.39,-191.74 1658.9,-198.28"/>
</a>
</g>
</g>
<!-- Node13 -->
<g id="Node000013" class="node">
<title>Node13</title>
<g id="a_Node000013"><a xlink:href="OscProbCalcer__GLoBESLinear_8h.html" target="_top" xlink:title=" ">
<polygon fill="white" stroke="#666666" points="1784.75,-163.5 1633.75,-163.5 1633.75,-133 1784.75,-133 1784.75,-163.5"/>
<text text-anchor="start" x="1641.75" y="-150" font-family="Helvetica,sans-Serif" font-size="10.00">OscProbCalcer/OscProbCalcer</text>
<text text-anchor="middle" x="1709.25" y="-138.75" font-family="Helvetica,sans-Serif" font-size="10.00">_GLoBESLinear.h</text>
</a>
</g>
</g>
<!-- Node1&#45;&gt;Node13 -->
<g id="edge13_Node000001_Node000013" class="edge">
<title>Node1&#45;&gt;Node13</title>
<g id="a_edge13_Node000001_Node000013"><a xlink:title=" ">
<path fill="none" stroke="#63b8ff" d="M1709.25,-187.81C1709.25,-179.64 1709.25,-170.91 1709.25,-163.83"/>
<polygon fill="#63b8ff" stroke="#63b8ff" points="1705.75,-187.6 1709.25,-197.6 1712.75,-187.6 1705.75,-187.6"/>
</a>
</g>
</g>
<!-- Node15 -->
<g id="Node000015" class="node">
<title>Node15</title>
<g id="a_Node000015"><a xlink:href="OscProbCalcer__NuFASTEarth_8h.html" target="_top" xlink:title=" ">
<polygon fill="white" stroke="#666666" points="1953.75,-163.5 1802.75,-163.5 1802.75,-133 1953.75,-133 1953.75,-163.5"/>
<text text-anchor="start" x="1810.75" y="-150" font-family="Helvetica,sans-Serif" font-size="10.00">OscProbCalcer/OscProbCalcer</text>
<text text-anchor="middle" x="1878.25" y="-138.75" font-family="Helvetica,sans-Serif" font-size="10.00">_NuFASTEarth.h</text>
</a>
</g>
</g>
<!-- Node1&#45;&gt;Node15 -->
<g id="edge15_Node000001_Node000015" class="edge">
<title>Node1&#45;&gt;Node15</title>
<g id="a_edge15_Node000001_Node000015"><a xlink:title=" ">
<path fill="none" stroke="#63b8ff" d="M1758.34,-195.01C1784.26,-185.12 1815.62,-173.15 1839.76,-163.94"/>
<polygon fill="#63b8ff" stroke="#63b8ff" points="1757.11,-191.74 1749.01,-198.57 1759.6,-198.28 1757.11,-191.74"/>
</a>
</g>
</g>
<!-- Node17 -->
<g id="Node000017" class="node">
<title>Node17</title>
<g id="a_Node000017"><a xlink:href="OscProbCalcer__NuFASTLinear_8h.html" target="_top" xlink:title=" ">
<polygon fill="white" stroke="#666666" points="2122.75,-163.5 1971.75,-163.5 1971.75,-133 2122.75,-133 2122.75,-163.5"/>
<text text-anchor="start" x="1979.75" y="-150" font-family="Helvetica,sans-Serif" font-size="10.00">OscProbCalcer/OscProbCalcer</text>
<text text-anchor="middle" x="2047.25" y="-138.75" font-family="Helvetica,sans-Serif" font-size="10.00">_NuFASTLinear.h</text>
</a>
</g>
</g>
<!-- Node1&#45;&gt;Node17 -->
<g id="edge17_Node000001_Node000017" class="edge">
<title>Node1&#45;&gt;Node17</title>
<g id="a_edge17_Node000001_Node000017"><a xlink:title=" ">
<path fill="none" stroke="#63b8ff" d="M1796.08,-197.18C1850.27,-186.84 1919.36,-173.65 1971.36,-163.73"/>
<polygon fill="#63b8ff" stroke="#63b8ff" points="1795.76,-193.68 1786.59,-198.99 1797.07,-200.55 1795.76,-193.68"/>
</a>
</g>
</g>
<!-- Node19 -->
<g id="Node000019" class="node">
<title>Node19</title>
<g id="a_Node000019"><a xlink:href="OscProbCalcer__NuSQUIDSLinear_8h.html" target="_top" xlink:title=" ">
<polygon fill="white" stroke="#666666" points="2291.75,-163.5 2140.75,-163.5 2140.75,-133 2291.75,-133 2291.75,-163.5"/>
<text text-anchor="start" x="2148.75" y="-150" font-family="Helvetica,sans-Serif" font-size="10.00">OscProbCalcer/OscProbCalcer</text>
<text text-anchor="middle" x="2216.25" y="-138.75" font-family="Helvetica,sans-Serif" font-size="10.00">_NuSQUIDSLinear.h</text>
</a>
</g>
</g>
<!-- Node1&#45;&gt;Node19 -->
<g id="edge19_Node000001_Node000019" class="edge">
<title>Node1&#45;&gt;Node19</title>
<g id="a_edge19_Node000001_Node000019"><a xlink:title=" ">
<path fill="none" stroke="#63b8ff" d="M1796.28,-204.69C1881.92,-195.48 2016.31,-180.21 2132.25,-163.5 2134.89,-163.12 2137.57,-162.72 2140.27,-162.31"/>
<polygon fill="#63b8ff" stroke="#63b8ff" points="1796.12,-201.19 1786.55,-205.74 1796.87,-208.15 1796.12,-201.19"/>
</a>
</g>
</g>
<!-- Node21 -->
<g id="Node000021" class="node">
<title>Node21</title>
<g id="a_Node000021"><a xlink:href="OscProbCalcer__OscLibLinear_8h.html" target="_top" xlink:title=" ">
<polygon fill="white" stroke="#666666" points="2460.75,-163.5 2309.75,-163.5 2309.75,-133 2460.75,-133 2460.75,-163.5"/>
<text text-anchor="start" x="2317.75" y="-150" font-family="Helvetica,sans-Serif" font-size="10.00">OscProbCalcer/OscProbCalcer</text>
<text text-anchor="middle" x="2385.25" y="-138.75" font-family="Helvetica,sans-Serif" font-size="10.00">_OscLibLinear.h</text>
</a>
</g>
</g>
<!-- Node1&#45;&gt;Node21 -->
<g id="edge21_Node000001_Node000021" class="edge">
<title>Node1&#45;&gt;Node21</title>
<g id="a_edge21_Node000001_Node000021"><a xlink:title=" ">
<path fill="none" stroke="#63b8ff" d="M1796.39,-208.63C1912.05,-201.32 2122.51,-186.21 2301.25,-163.5 2303.89,-163.16 2306.58,-162.81 2309.29,-162.43"/>
<polygon fill="#63b8ff" stroke="#63b8ff" points="1796.43,-205.12 1786.67,-209.24 1796.87,-212.11 1796.43,-205.12"/>
</a>
</g>
</g>
<!-- Node23 -->
<g id="Node000023" class="node">
<title>Node23</title>
<g id="a_Node000023"><a xlink:href="OscProbCalcer__OscProb_8h.html" target="_top" xlink:title=" ">
<polygon fill="white" stroke="#666666" points="2629.75,-163.5 2478.75,-163.5 2478.75,-133 2629.75,-133 2629.75,-163.5"/>
<text text-anchor="start" x="2486.75" y="-150" font-family="Helvetica,sans-Serif" font-size="10.00">OscProbCalcer/OscProbCalcer</text>
<text text-anchor="middle" x="2554.25" y="-138.75" font-family="Helvetica,sans-Serif" font-size="10.00">_OscProb.h</text>
</a>
</g>
</g>
<!-- Node1&#45;&gt;Node23 -->
<g id="edge23_Node000001_Node000023" class="edge">
<title>Node1&#45;&gt;Node23</title>
<g id="a_edge23_Node000001_Node000023"><a xlink:title=" ">
<path fill="none" stroke="#63b8ff" d="M1796.27,-210.9C1937.92,-205.6 2226.99,-192.09 2470.25,-163.5 2472.89,-163.19 2475.58,-162.85 2478.29,-162.49"/>
<polygon fill="#63b8ff" stroke="#63b8ff" points="1796.47,-207.39 1786.61,-211.25 1796.73,-214.38 1796.47,-207.39"/>
</a>
</g>
</g>
<!-- Node25 -->
<g id="Node000025" class="node">
<title>Node25</title>
<g id="a_Node000025"><a xlink:href="OscProbCalcer__Prob3ppLinear_8h.html" target="_top" xlink:title=" ">
<polygon fill="white" stroke="#666666" points="2798.75,-163.5 2647.75,-163.5 2647.75,-133 2798.75,-133 2798.75,-163.5"/>
<text text-anchor="start" x="2655.75" y="-150" font-family="Helvetica,sans-Serif" font-size="10.00">OscProbCalcer/OscProbCalcer</text>
<text text-anchor="middle" x="2723.25" y="-138.75" font-family="Helvetica,sans-Serif" font-size="10.00">_Prob3ppLinear.h</text>
</a>
</g>
</g>
<!-- Node1&#45;&gt;Node25 -->
<g id="edge25_Node000001_Node000025" class="edge">
<title>Node1&#45;&gt;Node25</title>
<g id="a_edge25_Node000001_Node000025"><a xlink:title=" ">
<path fill="none" stroke="#63b8ff" d="M1796.17,-212.36C1961.05,-208.99 2330.37,-197.93 2639.25,-163.5 2641.9,-163.21 2644.59,-162.88 2647.3,-162.53"/>
<polygon fill="#63b8ff" stroke="#63b8ff" points="1796.58,-208.85 1786.65,-212.55 1796.72,-215.85 1796.58,-208.85"/>
</a>
</g>
</g>
<!-- Node27 -->
<g id="Node000027" class="node">
<title>Node27</title>
<g id="a_Node000027"><a xlink:href="OscProbCalcer__ProbGPULinear_8h.html" target="_top" xlink:title=" ">
<polygon fill="white" stroke="#666666" points="2967.75,-163.5 2816.75,-163.5 2816.75,-133 2967.75,-133 2967.75,-163.5"/>
<text text-anchor="start" x="2824.75" y="-150" font-family="Helvetica,sans-Serif" font-size="10.00">OscProbCalcer/OscProbCalcer</text>
<text text-anchor="middle" x="2892.25" y="-138.75" font-family="Helvetica,sans-Serif" font-size="10.00">_ProbGPULinear.h</text>
</a>
</g>
</g>
<!-- Node1&#45;&gt;Node27 -->
<g id="edge27_Node000001_Node000027" class="edge">
<title>Node1&#45;&gt;Node27</title>
<g id="a_edge27_Node000001_Node000027"><a xlink:title=" ">
<path fill="none" stroke="#63b8ff" d="M1796.46,-213.38C1982.77,-211.8 2433.2,-203.73 2808.25,-163.5 2810.9,-163.22 2813.59,-162.9 2816.3,-162.56"/>
<polygon fill="#63b8ff" stroke="#63b8ff" points="1796.59,-209.88 1786.62,-213.46 1796.65,-216.88 1796.59,-209.88"/>
</a>
</g>
</g>
<!-- Node29 -->
<g id="Node000029" class="node">
<title>Node29</title>
<g id="a_Node000029"><a xlink:href="OscillatorBase_8h.html" target="_top" xlink:title=" ">
<polygon fill="white" stroke="#666666" points="859,-157.88 727.5,-157.88 727.5,-138.62 859,-138.62 859,-157.88"/>
<text text-anchor="middle" x="793.25" y="-144.38" font-family="Helvetica,sans-Serif" font-size="10.00">Oscillator/OscillatorBase.h</text>
</a>
</g>
</g>
<!-- Node1&#45;&gt;Node29 -->
<g id="edge29_Node000001_Node000029" class="edge">
<title>Node1&#45;&gt;Node29</title>
<g id="a_edge29_Node000001_Node000029"><a xlink:title=" ">
<path fill="none" stroke="#63b8ff" d="M1622.28,-208.71C1481.01,-200.37 1192.95,-182.68 949.25,-163.5 919.7,-161.17 887.03,-158.24 859.26,-155.65"/>
<polygon fill="#63b8ff" stroke="#63b8ff" points="1621.73,-212.18 1631.91,-209.28 1622.14,-205.2 1621.73,-212.18"/>
</a>
</g>
</g>
<!-- Node4&#45;&gt;Node2 -->
<g id="edge4_Node000004_Node000002" class="edge">
<title>Node4&#45;&gt;Node2</title>
<g id="a_edge4_Node000004_Node000002"><a xlink:title=" ">
<path fill="none" stroke="#63b8ff" d="M279.05,-129.97C226.33,-117.7 157.62,-101.7 115.25,-91.83"/>
<polygon fill="#63b8ff" stroke="#63b8ff" points="278.04,-133.33 288.57,-132.19 279.63,-126.51 278.04,-133.33"/>
</a>
</g>
</g>
<!-- Node5 -->
<g id="Node000005" class="node">
<title>Node5</title>
<g id="a_Node000005"><a xlink:href="OscProbCalcerFactory_8cpp.html" target="_top" xlink:title=" ">
<polygon fill="white" stroke="#666666" points="321.75,-97 170.75,-97 170.75,-66.5 321.75,-66.5 321.75,-97"/>
<text text-anchor="start" x="178.75" y="-83.5" font-family="Helvetica,sans-Serif" font-size="10.00">OscProbCalcer/OscProbCalcer</text>
<text text-anchor="middle" x="246.25" y="-72.25" font-family="Helvetica,sans-Serif" font-size="10.00">Factory.cpp</text>
</a>
</g>
</g>
<!-- Node4&#45;&gt;Node5 -->
<g id="edge5_Node000004_Node000005" class="edge">
<title>Node4&#45;&gt;Node5</title>
<g id="a_edge5_Node000004_Node000005"><a xlink:title=" ">
<path fill="none" stroke="#63b8ff" d="M319.47,-126.89C303.55,-117.29 284.92,-106.06 270.43,-97.33"/>
<polygon fill="#63b8ff" stroke="#63b8ff" points="317.3,-129.67 327.67,-131.83 320.92,-123.67 317.3,-129.67"/>
</a>
</g>
</g>
<!-- Node6 -->
<g id="Node000006" class="node">
<title>Node6</title>
<g id="a_Node000006"><a xlink:href="OscillatorBase_8cpp.html" target="_top" xlink:title=" ">
<polygon fill="white" stroke="#666666" points="482.25,-91.38 340.25,-91.38 340.25,-72.12 482.25,-72.12 482.25,-91.38"/>
<text text-anchor="middle" x="411.25" y="-77.88" font-family="Helvetica,sans-Serif" font-size="10.00">Oscillator/OscillatorBase.cpp</text>
</a>
</g>
</g>
<!-- Node4&#45;&gt;Node6 -->
<g id="edge6_Node000004_Node000006" class="edge">
<title>Node4&#45;&gt;Node6</title>
<g id="a_edge6_Node000004_Node000006"><a xlink:title=" ">
<path fill="none" stroke="#63b8ff" d="M373.82,-124.37C384.02,-113.03 395.75,-99.99 403.32,-91.57"/>
<polygon fill="#63b8ff" stroke="#63b8ff" points="371.51,-121.71 367.42,-131.49 376.71,-126.39 371.51,-121.71"/>
</a>
</g>
</g>
<!-- Node8 -->
<g id="Node000008" class="node">
<title>Node8</title>
<g id="a_Node000008"><a xlink:href="OscProbCalcer__CHICLinear_8cpp.html" target="_top" xlink:title=" ">
<polygon fill="white" stroke="#666666" points="1277.75,-97 1126.75,-97 1126.75,-66.5 1277.75,-66.5 1277.75,-97"/>
<text text-anchor="start" x="1134.75" y="-83.5" font-family="Helvetica,sans-Serif" font-size="10.00">OscProbCalcer/OscProbCalcer</text>
<text text-anchor="middle" x="1202.25" y="-72.25" font-family="Helvetica,sans-Serif" font-size="10.00">_CHICLinear.cpp</text>
</a>
</g>
</g>
<!-- Node7&#45;&gt;Node8 -->
<g id="edge8_Node000007_Node000008" class="edge">
<title>Node7&#45;&gt;Node8</title>
<g id="a_edge8_Node000007_Node000008"><a xlink:title=" ">
<path fill="none" stroke="#63b8ff" d="M1202.25,-121.31C1202.25,-113.14 1202.25,-104.41 1202.25,-97.33"/>
<polygon fill="#63b8ff" stroke="#63b8ff" points="1198.75,-121.1 1202.25,-131.1 1205.75,-121.1 1198.75,-121.1"/>
</a>
</g>
</g>
<!-- Node10 -->
<g id="Node000010" class="node">
<title>Node10</title>
<g id="a_Node000010"><a xlink:href="OscProbCalcer__CUDAProb3_8cpp.html" target="_top" xlink:title=" ">
<polygon fill="white" stroke="#666666" points="1446.75,-97 1295.75,-97 1295.75,-66.5 1446.75,-66.5 1446.75,-97"/>
<text text-anchor="start" x="1303.75" y="-83.5" font-family="Helvetica,sans-Serif" font-size="10.00">OscProbCalcer/OscProbCalcer</text>
<text text-anchor="middle" x="1371.25" y="-72.25" font-family="Helvetica,sans-Serif" font-size="10.00">_CUDAProb3.cpp</text>
</a>
</g>
</g>
<!-- Node9&#45;&gt;Node10 -->
<g id="edge10_Node000009_Node000010" class="edge">
<title>Node9&#45;&gt;Node10</title>
<g id="a_edge10_Node000009_Node000010"><a xlink:title=" ">
<path fill="none" stroke="#63b8ff" d="M1371.25,-121.31C1371.25,-113.14 1371.25,-104.41 1371.25,-97.33"/>
<polygon fill="#63b8ff" stroke="#63b8ff" points="1367.75,-121.1 1371.25,-131.1 1374.75,-121.1 1367.75,-121.1"/>
</a>
</g>
</g>
<!-- Node12 -->
<g id="Node000012" class="node">
<title>Node12</title>
<g id="a_Node000012"><a xlink:href="OscProbCalcer__CUDAProb3Linear_8cpp.html" target="_top" xlink:title=" ">
<polygon fill="white" stroke="#666666" points="1615.75,-97 1464.75,-97 1464.75,-66.5 1615.75,-66.5 1615.75,-97"/>
<text text-anchor="start" x="1472.75" y="-83.5" font-family="Helvetica,sans-Serif" font-size="10.00">OscProbCalcer/OscProbCalcer</text>
<text text-anchor="middle" x="1540.25" y="-72.25" font-family="Helvetica,sans-Serif" font-size="10.00">_CUDAProb3Linear.cpp</text>
</a>
</g>
</g>
<!-- Node11&#45;&gt;Node12 -->
<g id="edge12_Node000011_Node000012" class="edge">
<title>Node11&#45;&gt;Node12</title>
<g id="a_edge12_Node000011_Node000012"><a xlink:title=" ">
<path fill="none" stroke="#63b8ff" d="M1540.25,-121.31C1540.25,-113.14 1540.25,-104.41 1540.25,-97.33"/>
<polygon fill="#63b8ff" stroke="#63b8ff" points="1536.75,-121.1 1540.25,-131.1 1543.75,-121.1 1536.75,-121.1"/>
</a>
</g>
</g>
<!-- Node14 -->
<g id="Node000014" class="node">
<title>Node14</title>
<g id="a_Node000014"><a xlink:href="OscProbCalcer__GLoBESLinear_8cpp.html" target="_top" xlink:title=" ">
<polygon fill="white" stroke="#666666" points="1784.75,-97 1633.75,-97 1633.75,-66.5 1784.75,-66.5 1784.75,-97"/>
<text text-anchor="start" x="1641.75" y="-83.5" font-family="Helvetica,sans-Serif" font-size="10.00">OscProbCalcer/OscProbCalcer</text>
<text text-anchor="middle" x="1709.25" y="-72.25" font-family="Helvetica,sans-Serif" font-size="10.00">_GLoBESLinear.cpp</text>
</a>
</g>
</g>
<!-- Node13&#45;&gt;Node14 -->
<g id="edge14_Node000013_Node000014" class="edge">
<title>Node13&#45;&gt;Node14</title>
<g id="a_edge14_Node000013_Node000014"><a xlink:title=" ">
<path fill="none" stroke="#63b8ff" d="M1709.25,-121.31C1709.25,-113.14 1709.25,-104.41 1709.25,-97.33"/>
<polygon fill="#63b8ff" stroke="#63b8ff" points="1705.75,-121.1 1709.25,-131.1 1712.75,-121.1 1705.75,-121.1"/>
</a>
</g>
</g>
<!-- Node16 -->
<g id="Node000016" class="node">
<title>Node16</title>
<g id="a_Node000016"><a xlink:href="OscProbCalcer__NuFASTEarth_8cpp.html" target="_top" xlink:title=" ">
<polygon fill="white" stroke="#666666" points="1953.75,-97 1802.75,-97 1802.75,-66.5 1953.75,-66.5 1953.75,-97"/>
<text text-anchor="start" x="1810.75" y="-83.5" font-family="Helvetica,sans-Serif" font-size="10.00">OscProbCalcer/OscProbCalcer</text>
<text text-anchor="middle" x="1878.25" y="-72.25" font-family="Helvetica,sans-Serif" font-size="10.00">_NuFASTEarth.cpp</text>
</a>
</g>
</g>
<!-- Node15&#45;&gt;Node16 -->
<g id="edge16_Node000015_Node000016" class="edge">
<title>Node15&#45;&gt;Node16</title>
<g id="a_edge16_Node000015_Node000016"><a xlink:title=" ">
<path fill="none" stroke="#63b8ff" d="M1878.25,-121.31C1878.25,-113.14 1878.25,-104.41 1878.25,-97.33"/>
<polygon fill="#63b8ff" stroke="#63b8ff" points="1874.75,-121.1 1878.25,-131.1 1881.75,-121.1 1874.75,-121.1"/>
</a>
</g>
</g>
<!-- Node18 -->
<g id="Node000018" class="node">
<title>Node18</title>
<g id="a_Node000018"><a xlink:href="OscProbCalcer__NuFASTLinear_8cpp.html" target="_top" xlink:title=" ">
<polygon fill="white" stroke="#666666" points="2122.75,-97 1971.75,-97 1971.75,-66.5 2122.75,-66.5 2122.75,-97"/>
<text text-anchor="start" x="1979.75" y="-83.5" font-family="Helvetica,sans-Serif" font-size="10.00">OscProbCalcer/OscProbCalcer</text>
<text text-anchor="middle" x="2047.25" y="-72.25" font-family="Helvetica,sans-Serif" font-size="10.00">_NuFASTLinear.cpp</text>
</a>
</g>
</g>
<!-- Node17&#45;&gt;Node18 -->
<g id="edge18_Node000017_Node000018" class="edge">
<title>Node17&#45;&gt;Node18</title>
<g id="a_edge18_Node000017_Node000018"><a xlink:title=" ">
<path fill="none" stroke="#63b8ff" d="M2047.25,-121.31C2047.25,-113.14 2047.25,-104.41 2047.25,-97.33"/>
<polygon fill="#63b8ff" stroke="#63b8ff" points="2043.75,-121.1 2047.25,-131.1 2050.75,-121.1 2043.75,-121.1"/>
</a>
</g>
</g>
<!-- Node20 -->
<g id="Node000020" class="node">
<title>Node20</title>
<g id="a_Node000020"><a xlink:href="OscProbCalcer__NuSQUIDSLinear_8cpp.html" target="_top" xlink:title=" ">
<polygon fill="white" stroke="#666666" points="2291.75,-97 2140.75,-97 2140.75,-66.5 2291.75,-66.5 2291.75,-97"/>
<text text-anchor="start" x="2148.75" y="-83.5" font-family="Helvetica,sans-Serif" font-size="10.00">OscProbCalcer/OscProbCalcer</text>
<text text-anchor="middle" x="2216.25" y="-72.25" font-family="Helvetica,sans-Serif" font-size="10.00">_NuSQUIDSLinear.cpp</text>
</a>
</g>
</g>
<!-- Node19&#45;&gt;Node20 -->
<g id="edge20_Node000019_Node000020" class="edge">
<title>Node19&#45;&gt;Node20</title>
<g id="a_edge20_Node000019_Node000020"><a xlink:title=" ">
<path fill="none" stroke="#63b8ff" d="M2216.25,-121.31C2216.25,-113.14 2216.25,-104.41 2216.25,-97.33"/>
<polygon fill="#63b8ff" stroke="#63b8ff" points="2212.75,-121.1 2216.25,-131.1 2219.75,-121.1 2212.75,-121.1"/>
</a>
</g>
</g>
<!-- Node22 -->
<g id="Node000022" class="node">
<title>Node22</title>
<g id="a_Node000022"><a xlink:href="OscProbCalcer__OscLibLinear_8cpp.html" target="_top" xlink:title=" ">
<polygon fill="white" stroke="#666666" points="2460.75,-97 2309.75,-97 2309.75,-66.5 2460.75,-66.5 2460.75,-97"/>
<text text-anchor="start" x="2317.75" y="-83.5" font-family="Helvetica,sans-Serif" font-size="10.00">OscProbCalcer/OscProbCalcer</text>
<text text-anchor="middle" x="2385.25" y="-72.25" font-family="Helvetica,sans-Serif" font-size="10.00">_OscLibLinear.cpp</text>
</a>
</g>
</g>
<!-- Node21&#45;&gt;Node22 -->
<g id="edge22_Node000021_Node000022" class="edge">
<title>Node21&#45;&gt;Node22</title>
<g id="a_edge22_Node000021_Node000022"><a xlink:title=" ">
<path fill="none" stroke="#63b8ff" d="M2385.25,-121.31C2385.25,-113.14 2385.25,-104.41 2385.25,-97.33"/>
<polygon fill="#63b8ff" stroke="#63b8ff" points="2381.75,-121.1 2385.25,-131.1 2388.75,-121.1 2381.75,-121.1"/>
</a>
</g>
</g>
<!-- Node24 -->
<g id="Node000024" class="node">
<title>Node24</title>
<g id="a_Node000024"><a xlink:href="OscProbCalcer__OscProb_8cpp.html" target="_top" xlink:title=" ">
<polygon fill="white" stroke="#666666" points="2629.75,-97 2478.75,-97 2478.75,-66.5 2629.75,-66.5 2629.75,-97"/>
<text text-anchor="start" x="2486.75" y="-83.5" font-family="Helvetica,sans-Serif" font-size="10.00">OscProbCalcer/OscProbCalcer</text>
<text text-anchor="middle" x="2554.25" y="-72.25" font-family="Helvetica,sans-Serif" font-size="10.00">_OscProb.cpp</text>
</a>
</g>
</g>
<!-- Node23&#45;&gt;Node24 -->
<g id="edge24_Node000023_Node000024" class="edge">
<title>Node23&#45;&gt;Node24</title>
<g id="a_edge24_Node000023_Node000024"><a xlink:title=" ">
<path fill="none" stroke="#63b8ff" d="M2554.25,-121.31C2554.25,-113.14 2554.25,-104.41 2554.25,-97.33"/>
<polygon fill="#63b8ff" stroke="#63b8ff" points="2550.75,-121.1 2554.25,-131.1 2557.75,-121.1 2550.75,-121.1"/>
</a>
</g>
</g>
<!-- Node26 -->
<g id="Node000026" class="node">
<title>Node26</title>
<g id="a_Node000026"><a xlink:href="OscProbCalcer__Prob3ppLinear_8cpp.html" target="_top" xlink:title=" ">
<polygon fill="white" stroke="#666666" points="2798.75,-97 2647.75,-97 2647.75,-66.5 2798.75,-66.5 2798.75,-97"/>
<text text-anchor="start" x="2655.75" y="-83.5" font-family="Helvetica,sans-Serif" font-size="10.00">OscProbCalcer/OscProbCalcer</text>
<text text-anchor="middle" x="2723.25" y="-72.25" font-family="Helvetica,sans-Serif" font-size="10.00">_Prob3ppLinear.cpp</text>
</a>
</g>
</g>
<!-- Node25&#45;&gt;Node26 -->
<g id="edge26_Node000025_Node000026" class="edge">
<title>Node25&#45;&gt;Node26</title>
<g id="a_edge26_Node000025_Node000026"><a xlink:title=" ">
<path fill="none" stroke="#63b8ff" d="M2723.25,-121.31C2723.25,-113.14 2723.25,-104.41 2723.25,-97.33"/>
<polygon fill="#63b8ff" stroke="#63b8ff" points="2719.75,-121.1 2723.25,-131.1 2726.75,-121.1 2719.75,-121.1"/>
</a>
</g>
</g>
<!-- Node28 -->
<g id="Node000028" class="node">
<title>Node28</title>
<g id="a_Node000028"><a xlink:href="OscProbCalcer__ProbGPULinear_8cpp.html" target="_top" xlink:title=" ">
<polygon fill="white" stroke="#666666" points="2967.75,-97 2816.75,-97 2816.75,-66.5 2967.75,-66.5 2967.75,-97"/>
<text text-anchor="start" x="2824.75" y="-83.5" font-family="Helvetica,sans-Serif" font-size="10.00">OscProbCalcer/OscProbCalcer</text>
<text text-anchor="middle" x="2892.25" y="-72.25" font-family="Helvetica,sans-Serif" font-size="10.00">_ProbGPULinear.cpp</text>
</a>
</g>
</g>
<!-- Node27&#45;&gt;Node28 -->
<g id="edge28_Node000027_Node000028" class="edge">
<title>Node27&#45;&gt;Node28</title>
<g id="a_edge28_Node000027_Node000028"><a xlink:title=" ">
<path fill="none" stroke="#63b8ff" d="M2892.25,-121.31C2892.25,-113.14 2892.25,-104.41 2892.25,-97.33"/>
<polygon fill="#63b8ff" stroke="#63b8ff" points="2888.75,-121.1 2892.25,-131.1 2895.75,-121.1 2888.75,-121.1"/>
</a>
</g>
</g>
<!-- Node29&#45;&gt;Node6 -->
<g id="edge30_Node000029_Node000006" class="edge">
<title>Node29&#45;&gt;Node6</title>
<g id="a_edge30_Node000029_Node000006"><a xlink:title=" ">
<path fill="none" stroke="#63b8ff" d="M726.23,-136.32C665,-126.29 572,-110.91 491.25,-97 481.66,-95.35 471.42,-93.55 461.59,-91.81"/>
<polygon fill="#63b8ff" stroke="#63b8ff" points="725.35,-139.73 735.79,-137.89 726.48,-132.82 725.35,-139.73"/>
</a>
</g>
</g>
<!-- Node30 -->
<g id="Node000030" class="node">
<title>Node30</title>
<g id="a_Node000030"><a xlink:href="OscillatorBinned_8h.html" target="_top" xlink:title=" ">
<polygon fill="white" stroke="#666666" points="944.75,-91.38 805.75,-91.38 805.75,-72.12 944.75,-72.12 944.75,-91.38"/>
<text text-anchor="middle" x="875.25" y="-77.88" font-family="Helvetica,sans-Serif" font-size="10.00">Oscillator/OscillatorBinned.h</text>
</a>
</g>
</g>
<!-- Node29&#45;&gt;Node30 -->
<g id="edge31_Node000029_Node000030" class="edge">
<title>Node29&#45;&gt;Node30</title>
<g id="a_edge31_Node000029_Node000030"><a xlink:title=" ">
<path fill="none" stroke="#63b8ff" d="M813.64,-131.21C829.42,-118.8 850.71,-102.05 863.68,-91.85"/>
<polygon fill="#63b8ff" stroke="#63b8ff" points="811.54,-128.41 805.84,-137.35 815.87,-133.91 811.54,-128.41"/>
</a>
</g>
</g>
<!-- Node33 -->
<g id="Node000033" class="node">
<title>Node33</title>
<g id="a_Node000033"><a xlink:href="OscillatorFactory_8h.html" target="_top" xlink:title=" ">
<polygon fill="white" stroke="#666666" points="1108.88,-91.38 967.62,-91.38 967.62,-72.12 1108.88,-72.12 1108.88,-91.38"/>
<text text-anchor="middle" x="1038.25" y="-77.88" font-family="Helvetica,sans-Serif" font-size="10.00">Oscillator/OscillatorFactory.h</text>
</a>
</g>
</g>
<!-- Node29&#45;&gt;Node33 -->
<g id="edge34_Node000029_Node000033" class="edge">
<title>Node29&#45;&gt;Node33</title>
<g id="a_edge34_Node000029_Node000033"><a xlink:title=" ">
<path fill="none" stroke="#63b8ff" d="M838.8,-135.26C886.61,-122.67 960.7,-103.17 1003.84,-91.81"/>
<polygon fill="#63b8ff" stroke="#63b8ff" points="838.08,-131.83 829.3,-137.76 839.86,-138.6 838.08,-131.83"/>
</a>
</g>
</g>
<!-- Node40 -->
<g id="Node000040" class="node">
<title>Node40</title>
<g id="a_Node000040"><a xlink:href="OscillatorSubSampling_8h.html" target="_top" xlink:title=" ">
<polygon fill="white" stroke="#666666" points="618.62,-97 499.88,-97 499.88,-66.5 618.62,-66.5 618.62,-97"/>
<text text-anchor="start" x="507.88" y="-83.5" font-family="Helvetica,sans-Serif" font-size="10.00">Oscillator/OscillatorSub</text>
<text text-anchor="middle" x="559.25" y="-72.25" font-family="Helvetica,sans-Serif" font-size="10.00">Sampling.h</text>
</a>
</g>
</g>
<!-- Node29&#45;&gt;Node40 -->
<g id="edge42_Node000029_Node000040" class="edge">
<title>Node29&#45;&gt;Node40</title>
<g id="a_edge42_Node000029_Node000040"><a xlink:title=" ">
<path fill="none" stroke="#63b8ff" d="M749.28,-135.13C710.45,-124.43 653.75,-108.8 612.4,-97.4"/>
<polygon fill="#63b8ff" stroke="#63b8ff" points="748.19,-138.46 758.76,-137.74 750.05,-131.71 748.19,-138.46"/>
</a>
</g>
</g>
<!-- Node42 -->
<g id="Node000042" class="node">
<title>Node42</title>
<g id="a_Node000042"><a xlink:href="OscillatorUnbinned_8h.html" target="_top" xlink:title=" ">
<polygon fill="white" stroke="#666666" points="787.38,-91.38 637.12,-91.38 637.12,-72.12 787.38,-72.12 787.38,-91.38"/>
<text text-anchor="middle" x="712.25" y="-77.88" font-family="Helvetica,sans-Serif" font-size="10.00">Oscillator/OscillatorUnbinned.h</text>
</a>
</g>
</g>
<!-- Node29&#45;&gt;Node42 -->
<g id="edge45_Node000029_Node000042" class="edge">
<title>Node29&#45;&gt;Node42</title>
<g id="a_edge45_Node000029_Node000042"><a xlink:title=" ">
<path fill="none" stroke="#63b8ff" d="M773.11,-131.21C757.52,-118.8 736.49,-102.05 723.68,-91.85"/>
<polygon fill="#63b8ff" stroke="#63b8ff" points="770.8,-133.85 780.8,-137.34 775.16,-128.37 770.8,-133.85"/>
</a>
</g>
</g>
<!-- Node31 -->
<g id="Node000031" class="node">
<title>Node31</title>
<g id="a_Node000031"><a xlink:href="OscillatorBinned_8cpp.html" target="_top" xlink:title=" ">
<polygon fill="white" stroke="#666666" points="944,-24.88 794.5,-24.88 794.5,-5.63 944,-5.63 944,-24.88"/>
<text text-anchor="middle" x="869.25" y="-11.38" font-family="Helvetica,sans-Serif" font-size="10.00">Oscillator/OscillatorBinned.cpp</text>
</a>
</g>
</g>
<!-- Node30&#45;&gt;Node31 -->
<g id="edge32_Node000030_Node000031" class="edge">
<title>Node30&#45;&gt;Node31</title>
<g id="a_edge32_Node000030_Node000031"><a xlink:title=" ">
<path fill="none" stroke="#63b8ff" d="M873.38,-60.65C872.27,-48.75 870.93,-34.26 870.08,-25.14"/>
<polygon fill="#63b8ff" stroke="#63b8ff" points="869.86,-60.64 874.28,-70.27 876.83,-59.99 869.86,-60.64"/>
</a>
</g>
</g>
<!-- Node32 -->
<g id="Node000032" class="node">
<title>Node32</title>
<g id="a_Node000032"><a xlink:href="OscillatorFactory_8cpp.html" target="_top" xlink:title=" ">
<polygon fill="white" stroke="#666666" points="776.12,-24.88 624.38,-24.88 624.38,-5.63 776.12,-5.63 776.12,-24.88"/>
<text text-anchor="middle" x="700.25" y="-11.38" font-family="Helvetica,sans-Serif" font-size="10.00">Oscillator/OscillatorFactory.cpp</text>
</a>
</g>
</g>
<!-- Node30&#45;&gt;Node32 -->
<g id="edge33_Node000030_Node000032" class="edge">
<title>Node30&#45;&gt;Node32</title>
<g id="a_edge33_Node000030_Node000032"><a xlink:title=" ">
<path fill="none" stroke="#63b8ff" d="M840.09,-67.79C805.9,-55.19 754.86,-36.38 724.83,-25.31"/>
<polygon fill="#63b8ff" stroke="#63b8ff" points="838.53,-70.95 849.13,-71.12 840.96,-64.38 838.53,-70.95"/>
</a>
</g>
</g>
<!-- Node33&#45;&gt;Node32 -->
<g id="edge41_Node000033_Node000032" class="edge">
<title>Node33&#45;&gt;Node32</title>
<g id="a_edge41_Node000033_Node000032"><a xlink:title=" ">
<path fill="none" stroke="#63b8ff" d="M979.56,-69.55C913.91,-57.02 808.81,-36.97 747.99,-25.36"/>
<polygon fill="#63b8ff" stroke="#63b8ff" points="978.57,-72.93 989.05,-71.36 979.89,-66.05 978.57,-72.93"/>
</a>
</g>
</g>
<!-- Node34 -->
<g id="Node000034" class="node">
<title>Node34</title>
<g id="a_Node000034"><a xlink:href="Analysis_8cpp.html" target="_top" xlink:title=" ">
<polygon fill="white" stroke="#666666" points="1570.38,-24.88 1474.12,-24.88 1474.12,-5.63 1570.38,-5.63 1570.38,-24.88"/>
<text text-anchor="middle" x="1522.25" y="-11.38" font-family="Helvetica,sans-Serif" font-size="10.00">Apps/Analysis.cpp</text>
</a>
</g>
</g>
<!-- Node33&#45;&gt;Node34 -->
<g id="edge35_Node000033_Node000034" class="edge">
<title>Node33&#45;&gt;Node34</title>
<g id="a_edge35_Node000033_Node000034"><a xlink:title=" ">
<path fill="none" stroke="#63b8ff" d="M1097.06,-69.77C1104.19,-68.59 1111.37,-67.47 1118.25,-66.5 1271.79,-44.89 1312.55,-57.37 1465.25,-30.5 1473.09,-29.12 1481.44,-27.26 1489.27,-25.34"/>
<polygon fill="#63b8ff" stroke="#63b8ff" points="1096.72,-66.28 1087.45,-71.41 1097.9,-73.18 1096.72,-66.28"/>
</a>
</g>
</g>
<!-- Node35 -->
<g id="Node000035" class="node">
<title>Node35</title>
<g id="a_Node000035"><a xlink:href="CompareOscillationProbabilities_8cpp.html" target="_top" xlink:title=" ">
<polygon fill="white" stroke="#666666" points="1786,-24.88 1588.5,-24.88 1588.5,-5.63 1786,-5.63 1786,-24.88"/>
<text text-anchor="middle" x="1687.25" y="-11.38" font-family="Helvetica,sans-Serif" font-size="10.00">Apps/CompareOscillationProbabilities.cpp</text>
</a>
</g>
</g>
<!-- Node33&#45;&gt;Node35 -->
<g id="edge36_Node000033_Node000035" class="edge">
<title>Node33&#45;&gt;Node35</title>
<g id="a_edge36_Node000033_Node000035"><a xlink:title=" ">
<path fill="none" stroke="#63b8ff" d="M1095.91,-69.78C1103.41,-68.56 1111,-67.43 1118.25,-66.5 1322.1,-40.45 1374.86,-51.95 1579.25,-30.5 1593.26,-29.03 1608.27,-27.21 1622.5,-25.36"/>
<polygon fill="#63b8ff" stroke="#63b8ff" points="1095.43,-66.31 1086.16,-71.43 1096.6,-73.22 1095.43,-66.31"/>
</a>
</g>
</g>
<!-- Node36 -->
<g id="Node000036" class="node">
<title>Node36</title>
<g id="a_Node000036"><a xlink:href="DragRace_8cpp.html" target="_top" xlink:title=" ">
<polygon fill="white" stroke="#666666" points="1906.38,-24.88 1804.12,-24.88 1804.12,-5.63 1906.38,-5.63 1906.38,-24.88"/>
<text text-anchor="middle" x="1855.25" y="-11.38" font-family="Helvetica,sans-Serif" font-size="10.00">Apps/DragRace.cpp</text>
</a>
</g>
</g>
<!-- Node33&#45;&gt;Node36 -->
<g id="edge37_Node000033_Node000036" class="edge">
<title>Node33&#45;&gt;Node36</title>
<g id="a_edge37_Node000033_Node000036"><a xlink:title=" ">
<path fill="none" stroke="#63b8ff" d="M1095.05,-69.75C1102.82,-68.5 1110.72,-67.37 1118.25,-66.5 1417.58,-32.01 1497.02,-73.49 1795.25,-30.5 1803.94,-29.25 1813.22,-27.34 1821.82,-25.31"/>
<polygon fill="#63b8ff" stroke="#63b8ff" points="1094.57,-66.28 1085.29,-71.39 1095.73,-73.18 1094.57,-66.28"/>
</a>
</g>
</g>
<!-- Node37 -->
<g id="Node000037" class="node">
<title>Node37</title>
<g id="a_Node000037"><a xlink:href="LegacyModeExample_8cpp.html" target="_top" xlink:title=" ">
<polygon fill="white" stroke="#666666" points="1114.12,-24.88 962.38,-24.88 962.38,-5.63 1114.12,-5.63 1114.12,-24.88"/>
<text text-anchor="middle" x="1038.25" y="-11.38" font-family="Helvetica,sans-Serif" font-size="10.00">Apps/LegacyModeExample.cpp</text>
</a>
</g>
</g>
<!-- Node33&#45;&gt;Node37 -->
<g id="edge38_Node000033_Node000037" class="edge">
<title>Node33&#45;&gt;Node37</title>
<g id="a_edge38_Node000033_Node000037"><a xlink:title=" ">
<path fill="none" stroke="#63b8ff" d="M1038.25,-60.27C1038.25,-48.44 1038.25,-34.16 1038.25,-25.14"/>
<polygon fill="#63b8ff" stroke="#63b8ff" points="1034.75,-60.27 1038.25,-70.27 1041.75,-60.27 1034.75,-60.27"/>
</a>
</g>
</g>
<!-- Node38 -->
<g id="Node000038" class="node">
<title>Node38</title>
<g id="a_Node000038"><a xlink:href="OscProbCalcerComparison_8cpp.html" target="_top" xlink:title=" ">
<polygon fill="white" stroke="#666666" points="1309.88,-24.88 1132.62,-24.88 1132.62,-5.63 1309.88,-5.63 1309.88,-24.88"/>
<text text-anchor="middle" x="1221.25" y="-11.38" font-family="Helvetica,sans-Serif" font-size="10.00">Apps/OscProbCalcerComparison.cpp</text>
</a>
</g>
</g>
<!-- Node33&#45;&gt;Node38 -->
<g id="edge39_Node000033_Node000038" class="edge">
<title>Node33&#45;&gt;Node38</title>
<g id="a_edge39_Node000033_Node000038"><a xlink:title=" ">
<path fill="none" stroke="#63b8ff" d="M1074.56,-67.95C1110.31,-55.35 1164,-36.43 1195.55,-25.31"/>
<polygon fill="#63b8ff" stroke="#63b8ff" points="1073.78,-64.52 1065.51,-71.14 1076.1,-71.12 1073.78,-64.52"/>
</a>
</g>
</g>
<!-- Node39 -->
<g id="Node000039" class="node">
<title>Node39</title>
<g id="a_Node000039"><a xlink:href="SingleOscillator_8cpp.html" target="_top" xlink:title=" ">
<polygon fill="white" stroke="#666666" points="1456.12,-24.88 1328.38,-24.88 1328.38,-5.63 1456.12,-5.63 1456.12,-24.88"/>
<text text-anchor="middle" x="1392.25" y="-11.38" font-family="Helvetica,sans-Serif" font-size="10.00">Apps/SingleOscillator.cpp</text>
</a>
</g>
</g>
<!-- Node33&#45;&gt;Node39 -->
<g id="edge40_Node000033_Node000039" class="edge">
<title>Node33&#45;&gt;Node39</title>
<g id="a_edge40_Node000033_Node000039"><a xlink:title=" ">
<path fill="none" stroke="#63b8ff" d="M1100,-69.73C1179.43,-55.56 1308.52,-32.51 1319.25,-30.5 1328.01,-28.86 1337.35,-27.07 1346.32,-25.33"/>
<polygon fill="#63b8ff" stroke="#63b8ff" points="1099.86,-66.2 1090.63,-71.41 1101.09,-73.09 1099.86,-66.2"/>
</a>
</g>
</g>
<!-- Node40&#45;&gt;Node32 -->
<g id="edge43_Node000040_Node000032" class="edge">
<title>Node40&#45;&gt;Node32</title>
<g id="a_edge43_Node000040_Node000032"><a xlink:title=" ">
<path fill="none" stroke="#63b8ff" d="M601.67,-61.35C627.85,-49.37 660.22,-34.56 680.55,-25.26"/>
<polygon fill="#63b8ff" stroke="#63b8ff" points="600.26,-58.14 592.62,-65.48 603.17,-64.51 600.26,-58.14"/>
</a>
</g>
</g>
<!-- Node41 -->
<g id="Node000041" class="node">
<title>Node41</title>
<g id="a_Node000041"><a xlink:href="OscillatorSubSampling_8cpp.html" target="_top" xlink:title=" ">
<polygon fill="white" stroke="#666666" points="427.62,-30.5 308.88,-30.5 308.88,0 427.62,0 427.62,-30.5"/>
<text text-anchor="start" x="316.88" y="-17" font-family="Helvetica,sans-Serif" font-size="10.00">Oscillator/OscillatorSub</text>
<text text-anchor="middle" x="368.25" y="-5.75" font-family="Helvetica,sans-Serif" font-size="10.00">Sampling.cpp</text>
</a>
</g>
</g>
<!-- Node40&#45;&gt;Node41 -->
<g id="edge44_Node000040_Node000041" class="edge">
<title>Node40&#45;&gt;Node41</title>
<g id="a_edge44_Node000040_Node000041"><a xlink:title=" ">
<path fill="none" stroke="#63b8ff" d="M505.33,-62.54C475.74,-52.55 439.52,-40.32 411.75,-30.94"/>
<polygon fill="#63b8ff" stroke="#63b8ff" points="503.88,-65.75 514.48,-65.63 506.12,-59.11 503.88,-65.75"/>
</a>
</g>
</g>
<!-- Node42&#45;&gt;Node32 -->
<g id="edge46_Node000042_Node000032" class="edge">
<title>Node42&#45;&gt;Node32</title>
<g id="a_edge46_Node000042_Node000032"><a xlink:title=" ">
<path fill="none" stroke="#63b8ff" d="M708.51,-60.65C706.3,-48.75 703.6,-34.26 701.9,-25.14"/>
<polygon fill="#63b8ff" stroke="#63b8ff" points="705.03,-61.1 710.3,-70.29 711.92,-59.82 705.03,-61.1"/>
</a>
</g>
</g>
<!-- Node43 -->
<g id="Node000043" class="node">
<title>Node43</title>
<g id="a_Node000043"><a xlink:href="OscillatorUnbinned_8cpp.html" target="_top" xlink:title=" ">
<polygon fill="white" stroke="#666666" points="606.62,-24.88 445.88,-24.88 445.88,-5.63 606.62,-5.63 606.62,-24.88"/>
<text text-anchor="middle" x="526.25" y="-11.38" font-family="Helvetica,sans-Serif" font-size="10.00">Oscillator/OscillatorUnbinned.cpp</text>
</a>
</g>
</g>
<!-- Node42&#45;&gt;Node43 -->
<g id="edge47_Node000042_Node000043" class="edge">
<title>Node42&#45;&gt;Node43</title>
<g id="a_edge47_Node000042_Node000043"><a xlink:title=" ">
<path fill="none" stroke="#63b8ff" d="M675.35,-67.95C639.01,-55.35 584.43,-36.43 552.37,-25.31"/>
<polygon fill="#63b8ff" stroke="#63b8ff" points="673.97,-71.18 684.57,-71.15 676.26,-64.57 673.97,-71.18"/>
</a>
</g>
</g>
</g>
</svg>
