<?xml version="1.0" encoding="UTF-8" standalone="no"?>
<!DOCTYPE svg PUBLIC "-//W3C//DTD SVG 1.1//EN"
 "http://www.w3.org/Graphics/SVG/1.1/DTD/svg11.dtd">
<!-- Generated by graphviz version 9.0.0 (20230911.1827)
 -->
<!-- Title: OscProbCalcer/OscProbCalcer_CUDAProb3.cpp Pages: 1 -->
<svg width="610pt" height="260pt"
 viewBox="0.00 0.00 609.81 259.50" xmlns="http://www.w3.org/2000/svg" xmlns:xlink="http://www.w3.org/1999/xlink">
<g id="graph0" class="graph" transform="scale(1 1) rotate(0) translate(4 255.5)">
<title>OscProbCalcer/OscProbCalcer_CUDAProb3.cpp</title>
<!-- Node1 -->
<g id="Node000001" class="node">
<title>Node1</title>
<g id="a_Node000001"><a xlink:title=" ">
<polygon fill="#999999" stroke="#666666" points="391.56,-251.5 240.56,-251.5 240.56,-221 391.56,-221 391.56,-251.5"/>
<text text-anchor="start" x="248.56" y="-238" font-family="Helvetica,sans-Serif" font-size="10.00">OscProbCalcer/OscProbCalcer</text>
<text text-anchor="middle" x="316.06" y="-226.75" font-family="Helvetica,sans-Serif" font-size="10.00">_CUDAProb3.cpp</text>
</a>
</g>
</g>
<!-- Node2 -->
<g id="Node000002" class="node">
<title>Node2</title>
<g id="a_Node000002"><a xlink:href="OscProbCalcer__CUDAProb3_8h.html" target="_top" xlink:title=" ">
<polygon fill="white" stroke="#666666" points="212.06,-185 64.06,-185 64.06,-165.75 212.06,-165.75 212.06,-185"/>
<text text-anchor="middle" x="138.06" y="-171.5" font-family="Helvetica,sans-Serif" font-size="10.00">OscProbCalcer_CUDAProb3.h</text>
</a>
</g>
</g>
<!-- Node1&#45;&gt;Node2 -->
<g id="edge1_Node000001_Node000002" class="edge">
<title>Node1&#45;&gt;Node2</title>
<g id="a_edge1_Node000001_Node000002"><a xlink:title=" ">
<path fill="none" stroke="#63b8ff" d="M271.6,-220.55C242.24,-210.83 204.16,-198.24 176.18,-188.98"/>
<polygon fill="#63b8ff" stroke="#63b8ff" points="177.65,-185.78 167.06,-185.97 175.45,-192.43 177.65,-185.78"/>
</a>
</g>
</g>
<!-- Node9 -->
<g id="Node000009" class="node">
<title>Node9</title>
<g id="a_Node000009"><a xlink:title=" ">
<polygon fill="#e0e0e0" stroke="#999999" points="100.81,-19.25 47.31,-19.25 47.31,0 100.81,0 100.81,-19.25"/>
<text text-anchor="middle" x="74.06" y="-5.75" font-family="Helvetica,sans-Serif" font-size="10.00">iostream</text>
</a>
</g>
</g>
<!-- Node1&#45;&gt;Node9 -->
<g id="edge21_Node000001_Node000009" class="edge">
<title>Node1&#45;&gt;Node9</title>
<g id="a_edge21_Node000001_Node000009"><a xlink:title=" ">
<path fill="none" stroke="#63b8ff" d="M240.17,-232.95C185.71,-228.46 112.17,-216.42 55.06,-185 19.68,-165.54 -9.22,-148.97 3.06,-110.5 13.57,-77.58 39.32,-46.23 56.75,-27.71"/>
<polygon fill="#63b8ff" stroke="#63b8ff" points="59.02,-30.39 63.47,-20.78 53.99,-25.52 59.02,-30.39"/>
</a>
</g>
</g>
<!-- Node15 -->
<g id="Node000015" class="node">
<title>Node15</title>
<g id="a_Node000015"><a xlink:title=" ">
<polygon fill="#e0e0e0" stroke="#999999" points="306.43,-185 229.68,-185 229.68,-165.75 306.43,-165.75 306.43,-185"/>
<text text-anchor="middle" x="268.06" y="-171.5" font-family="Helvetica,sans-Serif" font-size="10.00">constants.hpp</text>
</a>
</g>
</g>
<!-- Node1&#45;&gt;Node15 -->
<g id="edge17_Node000001_Node000015" class="edge">
<title>Node1&#45;&gt;Node15</title>
<g id="a_edge17_Node000001_Node000015"><a xlink:title=" ">
<path fill="none" stroke="#63b8ff" d="M304.19,-220.7C297.66,-212.68 289.49,-202.67 282.58,-194.19"/>
<polygon fill="#63b8ff" stroke="#63b8ff" points="285.45,-192.16 276.41,-186.62 280.02,-196.59 285.45,-192.16"/>
</a>
</g>
</g>
<!-- Node16 -->
<g id="Node000016" class="node">
<title>Node16</title>
<g id="a_Node000016"><a xlink:title=" ">
<polygon fill="#e0e0e0" stroke="#999999" points="403.93,-185 324.18,-185 324.18,-165.75 403.93,-165.75 403.93,-185"/>
<text text-anchor="middle" x="364.06" y="-171.5" font-family="Helvetica,sans-Serif" font-size="10.00">propagator.hpp</text>
</a>
</g>
</g>
<!-- Node1&#45;&gt;Node16 -->
<g id="edge18_Node000001_Node000016" class="edge">
<title>Node1&#45;&gt;Node16</title>
<g id="a_edge18_Node000001_Node000016"><a xlink:title=" ">
<path fill="none" stroke="#63b8ff" d="M327.92,-220.7C334.46,-212.68 342.62,-202.67 349.54,-194.19"/>
<polygon fill="#63b8ff" stroke="#63b8ff" points="352.1,-196.59 355.7,-186.62 346.67,-192.16 352.1,-196.59"/>
</a>
</g>
</g>
<!-- Node17 -->
<g id="Node000017" class="node">
<title>Node17</title>
<g id="a_Node000017"><a xlink:title=" ">
<polygon fill="#e0e0e0" stroke="#999999" points="488.56,-185 421.56,-185 421.56,-165.75 488.56,-165.75 488.56,-185"/>
<text text-anchor="middle" x="455.06" y="-171.5" font-family="Helvetica,sans-Serif" font-size="10.00">physics.hpp</text>
</a>
</g>
</g>
<!-- Node1&#45;&gt;Node17 -->
<g id="edge19_Node000001_Node000017" class="edge">
<title>Node1&#45;&gt;Node17</title>
<g id="a_edge19_Node000001_Node000017"><a xlink:title=" ">
<path fill="none" stroke="#63b8ff" d="M350.78,-220.55C373.06,-211.1 401.78,-198.94 423.44,-189.77"/>
<polygon fill="#63b8ff" stroke="#63b8ff" points="424.5,-193.12 432.35,-185.99 421.77,-186.67 424.5,-193.12"/>
</a>
</g>
</g>
<!-- Node18 -->
<g id="Node000018" class="node">
<title>Node18</title>
<g id="a_Node000018"><a xlink:title=" ">
<polygon fill="#e0e0e0" stroke="#999999" points="601.81,-185 506.31,-185 506.31,-165.75 601.81,-165.75 601.81,-185"/>
<text text-anchor="middle" x="554.06" y="-171.5" font-family="Helvetica,sans-Serif" font-size="10.00">cpupropagator.hpp</text>
</a>
</g>
</g>
<!-- Node1&#45;&gt;Node18 -->
<g id="edge20_Node000001_Node000018" class="edge">
<title>Node1&#45;&gt;Node18</title>
<g id="a_edge20_Node000001_Node000018"><a xlink:title=" ">
<path fill="none" stroke="#63b8ff" d="M375.5,-220.55C415.8,-210.58 468.39,-197.57 506.03,-188.25"/>
<polygon fill="#63b8ff" stroke="#63b8ff" points="506.87,-191.65 515.74,-185.85 505.19,-184.86 506.87,-191.65"/>
</a>
</g>
</g>
<!-- Node3 -->
<g id="Node000003" class="node">
<title>Node3</title>
<g id="a_Node000003"><a xlink:href="OscProbCalcerBase_8h.html" target="_top" xlink:title=" ">
<polygon fill="white" stroke="#666666" points="491.06,-129.75 379.06,-129.75 379.06,-110.5 491.06,-110.5 491.06,-129.75"/>
<text text-anchor="middle" x="435.06" y="-116.25" font-family="Helvetica,sans-Serif" font-size="10.00">OscProbCalcerBase.h</text>
</a>
</g>
</g>
<!-- Node2&#45;&gt;Node3 -->
<g id="edge2_Node000002_Node000003" class="edge">
<title>Node2&#45;&gt;Node3</title>
<g id="a_edge2_Node000002_Node000003"><a xlink:title=" ">
<path fill="none" stroke="#63b8ff" d="M188.78,-165.28C239.82,-156.13 318.61,-142 373.27,-132.2"/>
<polygon fill="#63b8ff" stroke="#63b8ff" points="373.83,-135.66 383.06,-130.45 372.6,-128.77 373.83,-135.66"/>
</a>
</g>
</g>
<!-- Node6 -->
<g id="Node000006" class="node">
<title>Node6</title>
<g id="a_Node000006"><a xlink:title=" ">
<polygon fill="#e0e0e0" stroke="#999999" points="293.68,-19.25 248.43,-19.25 248.43,0 293.68,0 293.68,-19.25"/>
<text text-anchor="middle" x="271.06" y="-5.75" font-family="Helvetica,sans-Serif" font-size="10.00">TFile.h</text>
</a>
</g>
</g>
<!-- Node2&#45;&gt;Node6 -->
<g id="edge15_Node000002_Node000006" class="edge">
<title>Node2&#45;&gt;Node6</title>
<g id="a_edge15_Node000002_Node000006"><a xlink:title=" ">
<path fill="none" stroke="#63b8ff" d="M157.01,-165.4C171.84,-157.63 192.2,-145.21 206.06,-129.75 230.87,-102.07 225.98,-87.73 244.06,-55.25 248.84,-46.66 254.43,-37.32 259.27,-29.42"/>
<polygon fill="#63b8ff" stroke="#63b8ff" points="262.18,-31.37 264.48,-21.03 256.23,-27.68 262.18,-31.37"/>
</a>
</g>
</g>
<!-- Node12 -->
<g id="Node000012" class="node">
<title>Node12</title>
<g id="a_Node000012"><a xlink:title=" ">
<polygon fill="#e0e0e0" stroke="#999999" points="61.56,-129.75 12.56,-129.75 12.56,-110.5 61.56,-110.5 61.56,-129.75"/>
<text text-anchor="middle" x="37.06" y="-116.25" font-family="Helvetica,sans-Serif" font-size="10.00">TH2D.h</text>
</a>
</g>
</g>
<!-- Node2&#45;&gt;Node12 -->
<g id="edge13_Node000002_Node000012" class="edge">
<title>Node2&#45;&gt;Node12</title>
<g id="a_edge13_Node000002_Node000012"><a xlink:title=" ">
<path fill="none" stroke="#63b8ff" d="M120.92,-165.34C105.4,-157.16 82.26,-144.96 64.21,-135.44"/>
<polygon fill="#63b8ff" stroke="#63b8ff" points="66.09,-132.48 55.61,-130.91 62.83,-138.67 66.09,-132.48"/>
</a>
</g>
</g>
<!-- Node13 -->
<g id="Node000013" class="node">
<title>Node13</title>
<g id="a_Node000013"><a xlink:title=" ">
<polygon fill="#e0e0e0" stroke="#999999" points="128.56,-129.75 79.56,-129.75 79.56,-110.5 128.56,-110.5 128.56,-129.75"/>
<text text-anchor="middle" x="104.06" y="-116.25" font-family="Helvetica,sans-Serif" font-size="10.00">TH3D.h</text>
</a>
</g>
</g>
<!-- Node2&#45;&gt;Node13 -->
<g id="edge14_Node000002_Node000013" class="edge">
<title>Node2&#45;&gt;Node13</title>
<g id="a_edge14_Node000002_Node000013"><a xlink:title=" ">
<path fill="none" stroke="#63b8ff" d="M132.44,-165.58C127.94,-158.53 121.47,-148.4 115.84,-139.58"/>
<polygon fill="#63b8ff" stroke="#63b8ff" points="118.94,-137.93 110.61,-131.38 113.04,-141.7 118.94,-137.93"/>
</a>
</g>
</g>
<!-- Node14 -->
<g id="Node000014" class="node">
<title>Node14</title>
<g id="a_Node000014"><a xlink:title=" ">
<polygon fill="#e0e0e0" stroke="#999999" points="197.31,-129.75 146.81,-129.75 146.81,-110.5 197.31,-110.5 197.31,-129.75"/>
<text text-anchor="middle" x="172.06" y="-116.25" font-family="Helvetica,sans-Serif" font-size="10.00">memory</text>
</a>
</g>
</g>
<!-- Node2&#45;&gt;Node14 -->
<g id="edge16_Node000002_Node000014" class="edge">
<title>Node2&#45;&gt;Node14</title>
<g id="a_edge16_Node000002_Node000014"><a xlink:title=" ">
<path fill="none" stroke="#63b8ff" d="M143.67,-165.58C148.17,-158.53 154.64,-148.4 160.27,-139.58"/>
<polygon fill="#63b8ff" stroke="#63b8ff" points="163.08,-141.7 165.51,-131.38 157.18,-137.93 163.08,-141.7"/>
</a>
</g>
</g>
<!-- Node4 -->
<g id="Node000004" class="node">
<title>Node4</title>
<g id="a_Node000004"><a xlink:href="OscillatorConstants_8h.html" target="_top" xlink:title=" ">
<polygon fill="white" stroke="#666666" points="513.18,-74.5 356.93,-74.5 356.93,-55.25 513.18,-55.25 513.18,-74.5"/>
<text text-anchor="middle" x="435.06" y="-61" font-family="Helvetica,sans-Serif" font-size="10.00">Constants/OscillatorConstants.h</text>
</a>
</g>
</g>
<!-- Node3&#45;&gt;Node4 -->
<g id="edge3_Node000003_Node000004" class="edge">
<title>Node3&#45;&gt;Node4</title>
<g id="a_edge3_Node000003_Node000004"><a xlink:title=" ">
<path fill="none" stroke="#63b8ff" d="M435.06,-110.33C435.06,-103.82 435.06,-94.67 435.06,-86.37"/>
<polygon fill="#63b8ff" stroke="#63b8ff" points="438.56,-86.37 435.06,-76.37 431.56,-86.37 438.56,-86.37"/>
</a>
</g>
</g>
<!-- Node8 -->
<g id="Node000008" class="node">
<title>Node8</title>
<g id="a_Node000008"><a xlink:title=" ">
<polygon fill="#e0e0e0" stroke="#999999" points="530.06,-19.25 490.06,-19.25 490.06,0 530.06,0 530.06,-19.25"/>
<text text-anchor="middle" x="510.06" y="-5.75" font-family="Helvetica,sans-Serif" font-size="10.00">string</text>
</a>
</g>
</g>
<!-- Node3&#45;&gt;Node8 -->
<g id="edge11_Node000003_Node000008" class="edge">
<title>Node3&#45;&gt;Node8</title>
<g id="a_edge11_Node000003_Node000008"><a xlink:title=" ">
<path fill="none" stroke="#63b8ff" d="M471.84,-110.09C490.33,-103.49 511.08,-92.46 522.06,-74.5 530.33,-60.96 525.89,-43.02 520.21,-29.6"/>
<polygon fill="#63b8ff" stroke="#63b8ff" points="523.54,-28.45 516.06,-20.95 517.23,-31.48 523.54,-28.45"/>
</a>
</g>
</g>
<!-- Node10 -->
<g id="Node000010" class="node">
<title>Node10</title>
<g id="a_Node000010"><a xlink:title=" ">
<polygon fill="#e0e0e0" stroke="#999999" points="597.56,-19.25 554.56,-19.25 554.56,0 597.56,0 597.56,-19.25"/>
<text text-anchor="middle" x="576.06" y="-5.75" font-family="Helvetica,sans-Serif" font-size="10.00">vector</text>
</a>
</g>
</g>
<!-- Node3&#45;&gt;Node10 -->
<g id="edge10_Node000003_Node000010" class="edge">
<title>Node3&#45;&gt;Node10</title>
<g id="a_edge10_Node000003_Node000010"><a xlink:title=" ">
<path fill="none" stroke="#63b8ff" d="M469.58,-110.13C491.15,-103.17 518.45,-91.75 538.06,-74.5 551.83,-62.38 562.03,-44.02 568.37,-30.09"/>
<polygon fill="#63b8ff" stroke="#63b8ff" points="571.52,-31.63 572.2,-21.06 565.07,-28.9 571.52,-31.63"/>
</a>
</g>
</g>
<!-- Node11 -->
<g id="Node000011" class="node">
<title>Node11</title>
<g id="a_Node000011"><a xlink:title=" ">
<polygon fill="#e0e0e0" stroke="#999999" points="338.93,-74.5 253.18,-74.5 253.18,-55.25 338.93,-55.25 338.93,-74.5"/>
<text text-anchor="middle" x="296.06" y="-61" font-family="Helvetica,sans-Serif" font-size="10.00">yaml&#45;cpp/yaml.h</text>
</a>
</g>
</g>
<!-- Node3&#45;&gt;Node11 -->
<g id="edge12_Node000003_Node000011" class="edge">
<title>Node3&#45;&gt;Node11</title>
<g id="a_edge12_Node000003_Node000011"><a xlink:title=" ">
<path fill="none" stroke="#63b8ff" d="M411.48,-110.09C389.21,-101.56 355.57,-88.67 330.34,-79.01"/>
<polygon fill="#63b8ff" stroke="#63b8ff" points="331.76,-75.8 321.17,-75.49 329.25,-82.34 331.76,-75.8"/>
</a>
</g>
</g>
<!-- Node5 -->
<g id="Node000005" class="node">
<title>Node5</title>
<g id="a_Node000005"><a xlink:title=" ">
<polygon fill="#e0e0e0" stroke="#999999" points="460.68,-19.25 415.43,-19.25 415.43,0 460.68,0 460.68,-19.25"/>
<text text-anchor="middle" x="438.06" y="-5.75" font-family="Helvetica,sans-Serif" font-size="10.00">math.h</text>
</a>
</g>
</g>
<!-- Node4&#45;&gt;Node5 -->
<g id="edge4_Node000004_Node000005" class="edge">
<title>Node4&#45;&gt;Node5</title>
<g id="a_edge4_Node000004_Node000005"><a xlink:title=" ">
<path fill="none" stroke="#63b8ff" d="M435.55,-55.08C435.92,-48.49 436.45,-39.21 436.92,-30.82"/>
<polygon fill="#63b8ff" stroke="#63b8ff" points="440.4,-31.3 437.47,-21.12 433.41,-30.91 440.4,-31.3"/>
</a>
</g>
</g>
<!-- Node4&#45;&gt;Node6 -->
<g id="edge5_Node000004_Node000006" class="edge">
<title>Node4&#45;&gt;Node6</title>
<g id="a_edge5_Node000004_Node000006"><a xlink:title=" ">
<path fill="none" stroke="#63b8ff" d="M407.24,-54.84C378.96,-45.66 335.11,-31.42 304.85,-21.6"/>
<polygon fill="#63b8ff" stroke="#63b8ff" points="306.01,-18.29 295.42,-18.53 303.85,-24.95 306.01,-18.29"/>
</a>
</g>
</g>
<!-- Node7 -->
<g id="Node000007" class="node">
<title>Node7</title>
<g id="a_Node000007"><a xlink:title=" ">
<polygon fill="#e0e0e0" stroke="#999999" points="397.18,-19.25 354.93,-19.25 354.93,0 397.18,0 397.18,-19.25"/>
<text text-anchor="middle" x="376.06" y="-5.75" font-family="Helvetica,sans-Serif" font-size="10.00">TH1.h</text>
</a>
</g>
</g>
<!-- Node4&#45;&gt;Node7 -->
<g id="edge6_Node000004_Node000007" class="edge">
<title>Node4&#45;&gt;Node7</title>
<g id="a_edge6_Node000004_Node000007"><a xlink:title=" ">
<path fill="none" stroke="#63b8ff" d="M425.05,-54.84C416.69,-47.3 404.56,-36.35 394.46,-27.23"/>
<polygon fill="#63b8ff" stroke="#63b8ff" points="396.81,-24.64 387.04,-20.54 392.12,-29.84 396.81,-24.64"/>
</a>
</g>
</g>
<!-- Node4&#45;&gt;Node8 -->
<g id="edge7_Node000004_Node000008" class="edge">
<title>Node4&#45;&gt;Node8</title>
<g id="a_edge7_Node000004_Node000008"><a xlink:title=" ">
<path fill="none" stroke="#63b8ff" d="M447.78,-54.84C458.77,-47.04 474.9,-35.59 487.99,-26.29"/>
<polygon fill="#63b8ff" stroke="#63b8ff" points="489.91,-29.22 496.04,-20.58 485.86,-23.51 489.91,-29.22"/>
</a>
</g>
</g>
<!-- Node4&#45;&gt;Node9 -->
<g id="edge8_Node000004_Node000009" class="edge">
<title>Node4&#45;&gt;Node9</title>
<g id="a_edge8_Node000004_Node000009"><a xlink:title=" ">
<path fill="none" stroke="#63b8ff" d="M373.41,-54.78C298.49,-43.73 174.4,-25.43 112.15,-16.24"/>
<polygon fill="#63b8ff" stroke="#63b8ff" points="112.81,-12.8 102.41,-14.81 111.79,-19.73 112.81,-12.8"/>
</a>
</g>
</g>
<!-- Node4&#45;&gt;Node10 -->
<g id="edge9_Node000004_Node000010" class="edge">
<title>Node4&#45;&gt;Node10</title>
<g id="a_edge9_Node000004_Node000010"><a xlink:title=" ">
<path fill="none" stroke="#63b8ff" d="M458.98,-54.84C482.25,-46.05 517.77,-32.64 543.59,-22.89"/>
<polygon fill="#63b8ff" stroke="#63b8ff" points="544.81,-26.17 552.92,-19.36 542.33,-19.62 544.81,-26.17"/>
</a>
</g>
</g>
</g>
</svg>
