<?xml version="1.0" encoding="UTF-8" standalone="no"?>
<!DOCTYPE svg PUBLIC "-//W3C//DTD SVG 1.1//EN"
 "http://www.w3.org/Graphics/SVG/1.1/DTD/svg11.dtd">
<!-- Generated by graphviz version 9.0.0 (20230911.1827)
 -->
<!-- Title: OscProbCalcer/OscProbCalcer_NuSQUIDSLinear.cpp Pages: 1 -->
<svg width="685pt" height="271pt"
 viewBox="0.00 0.00 685.38 270.75" xmlns="http://www.w3.org/2000/svg" xmlns:xlink="http://www.w3.org/1999/xlink">
<g id="graph0" class="graph" transform="scale(1 1) rotate(0) translate(4 266.75)">
<title>OscProbCalcer/OscProbCalcer_NuSQUIDSLinear.cpp</title>
<!-- Node1 -->
<g id="Node000001" class="node">
<title>Node1</title>
<g id="a_Node000001"><a xlink:title=" ">
<polygon fill="#999999" stroke="#666666" points="584.12,-262.75 433.12,-262.75 433.12,-232.25 584.12,-232.25 584.12,-262.75"/>
<text text-anchor="start" x="441.12" y="-249.25" font-family="Helvetica,sans-Serif" font-size="10.00">OscProbCalcer/OscProbCalcer</text>
<text text-anchor="middle" x="508.62" y="-238" font-family="Helvetica,sans-Serif" font-size="10.00">_NuSQUIDSLinear.cpp</text>
</a>
</g>
</g>
<!-- Node2 -->
<g id="Node000002" class="node">
<title>Node2</title>
<g id="a_Node000002"><a xlink:href="OscProbCalcer__NuSQUIDSLinear_8h.html" target="_top" xlink:title=" ">
<polygon fill="white" stroke="#666666" points="454,-196.25 281.25,-196.25 281.25,-177 454,-177 454,-196.25"/>
<text text-anchor="middle" x="367.62" y="-182.75" font-family="Helvetica,sans-Serif" font-size="10.00">OscProbCalcer_NuSQUIDSLinear.h</text>
</a>
</g>
</g>
<!-- Node1&#45;&gt;Node2 -->
<g id="edge1_Node000001_Node000002" class="edge">
<title>Node1&#45;&gt;Node2</title>
<g id="a_edge1_Node000001_Node000002"><a xlink:title=" ">
<path fill="none" stroke="#63b8ff" d="M473.41,-231.8C450.8,-222.35 421.67,-210.19 399.7,-201.02"/>
<polygon fill="#63b8ff" stroke="#63b8ff" points="401.22,-197.86 390.65,-197.24 398.52,-204.32 401.22,-197.86"/>
</a>
</g>
</g>
<!-- Node9 -->
<g id="Node000009" class="node">
<title>Node9</title>
<g id="a_Node000009"><a xlink:title=" ">
<polygon fill="#e0e0e0" stroke="#999999" points="677.38,-19.25 623.88,-19.25 623.88,0 677.38,0 677.38,-19.25"/>
<text text-anchor="middle" x="650.62" y="-5.75" font-family="Helvetica,sans-Serif" font-size="10.00">iostream</text>
</a>
</g>
</g>
<!-- Node1&#45;&gt;Node9 -->
<g id="edge17_Node000001_Node000009" class="edge">
<title>Node1&#45;&gt;Node9</title>
<g id="a_edge17_Node000001_Node000009"><a xlink:title=" ">
<path fill="none" stroke="#63b8ff" d="M534.93,-231.88C563.8,-214.32 609.03,-182.03 631.62,-141 650.97,-105.87 652.73,-57.71 651.92,-30.85"/>
<polygon fill="#63b8ff" stroke="#63b8ff" points="655.42,-30.85 651.45,-21.03 648.43,-31.18 655.42,-30.85"/>
</a>
</g>
</g>
<!-- Node3 -->
<g id="Node000003" class="node">
<title>Node3</title>
<g id="a_Node000003"><a xlink:href="OscProbCalcerBase_8h.html" target="_top" xlink:title=" ">
<polygon fill="white" stroke="#666666" points="484.62,-135.38 372.62,-135.38 372.62,-116.12 484.62,-116.12 484.62,-135.38"/>
<text text-anchor="middle" x="428.62" y="-121.88" font-family="Helvetica,sans-Serif" font-size="10.00">OscProbCalcerBase.h</text>
</a>
</g>
</g>
<!-- Node2&#45;&gt;Node3 -->
<g id="edge2_Node000002_Node000003" class="edge">
<title>Node2&#45;&gt;Node3</title>
<g id="a_edge2_Node000002_Node000003"><a xlink:title=" ">
<path fill="none" stroke="#63b8ff" d="M376.89,-176.68C385.94,-167.95 399.93,-154.44 411.09,-143.68"/>
<polygon fill="#63b8ff" stroke="#63b8ff" points="413.42,-146.29 418.18,-136.83 408.56,-141.25 413.42,-146.29"/>
</a>
</g>
</g>
<!-- Node12 -->
<g id="Node000012" class="node">
<title>Node12</title>
<g id="a_Node000012"><a xlink:title=" ">
<polygon fill="#e0e0e0" stroke="#999999" points="622.38,-135.38 502.88,-135.38 502.88,-116.12 622.38,-116.12 622.38,-135.38"/>
<text text-anchor="middle" x="562.62" y="-121.88" font-family="Helvetica,sans-Serif" font-size="10.00">nuSQuIDS/nuSQuIDS.h</text>
</a>
</g>
</g>
<!-- Node2&#45;&gt;Node12 -->
<g id="edge13_Node000002_Node000012" class="edge">
<title>Node2&#45;&gt;Node12</title>
<g id="a_edge13_Node000002_Node000012"><a xlink:title=" ">
<path fill="none" stroke="#63b8ff" d="M397.67,-176.55C430.88,-166.53 484.56,-150.32 521.62,-139.13"/>
<polygon fill="#63b8ff" stroke="#63b8ff" points="522.54,-142.51 531.1,-136.27 520.52,-135.81 522.54,-142.51"/>
</a>
</g>
</g>
<!-- Node13 -->
<g id="Node000013" class="node">
<title>Node13</title>
<g id="a_Node000013"><a xlink:title=" ">
<polygon fill="#e0e0e0" stroke="#999999" points="117.25,-141 0,-141 0,-110.5 117.25,-110.5 117.25,-141"/>
<text text-anchor="start" x="8" y="-127.5" font-family="Helvetica,sans-Serif" font-size="10.00">examples/Decoherence</text>
<text text-anchor="middle" x="58.62" y="-116.25" font-family="Helvetica,sans-Serif" font-size="10.00">/nuSQUIDSDecoh.h</text>
</a>
</g>
</g>
<!-- Node2&#45;&gt;Node13 -->
<g id="edge14_Node000002_Node000013" class="edge">
<title>Node2&#45;&gt;Node13</title>
<g id="a_edge14_Node000002_Node000013"><a xlink:title=" ">
<path fill="none" stroke="#63b8ff" d="M316.09,-176.54C269.54,-168.24 198.84,-155.4 128.68,-141.58"/>
<polygon fill="#63b8ff" stroke="#63b8ff" points="129.41,-138.15 118.92,-139.65 128.05,-145.02 129.41,-138.15"/>
</a>
</g>
</g>
<!-- Node14 -->
<g id="Node000014" class="node">
<title>Node14</title>
<g id="a_Node000014"><a xlink:title=" ">
<polygon fill="#e0e0e0" stroke="#999999" points="240.25,-135.38 135,-135.38 135,-116.12 240.25,-116.12 240.25,-135.38"/>
<text text-anchor="middle" x="187.62" y="-121.88" font-family="Helvetica,sans-Serif" font-size="10.00">examples/NSI/NSI.h</text>
</a>
</g>
</g>
<!-- Node2&#45;&gt;Node14 -->
<g id="edge15_Node000002_Node000014" class="edge">
<title>Node2&#45;&gt;Node14</title>
<g id="a_edge15_Node000002_Node000014"><a xlink:title=" ">
<path fill="none" stroke="#63b8ff" d="M339.89,-176.55C309.37,-166.57 260.11,-150.46 225.92,-139.27"/>
<polygon fill="#63b8ff" stroke="#63b8ff" points="227.42,-136.08 216.83,-136.3 225.24,-142.74 227.42,-136.08"/>
</a>
</g>
</g>
<!-- Node15 -->
<g id="Node000015" class="node">
<title>Node15</title>
<g id="a_Node000015"><a xlink:title=" ">
<polygon fill="#e0e0e0" stroke="#999999" points="354.75,-135.38 258.5,-135.38 258.5,-116.12 354.75,-116.12 354.75,-135.38"/>
<text text-anchor="middle" x="306.62" y="-121.88" font-family="Helvetica,sans-Serif" font-size="10.00">examples/LV/LV.h</text>
</a>
</g>
</g>
<!-- Node2&#45;&gt;Node15 -->
<g id="edge16_Node000002_Node000015" class="edge">
<title>Node2&#45;&gt;Node15</title>
<g id="a_edge16_Node000002_Node000015"><a xlink:title=" ">
<path fill="none" stroke="#63b8ff" d="M358.36,-176.68C349.31,-167.95 335.32,-154.44 324.16,-143.68"/>
<polygon fill="#63b8ff" stroke="#63b8ff" points="326.69,-141.25 317.07,-136.83 321.83,-146.29 326.69,-141.25"/>
</a>
</g>
</g>
<!-- Node4 -->
<g id="Node000004" class="node">
<title>Node4</title>
<g id="a_Node000004"><a xlink:href="OscillatorConstants_8h.html" target="_top" xlink:title=" ">
<polygon fill="white" stroke="#666666" points="571.75,-74.5 415.5,-74.5 415.5,-55.25 571.75,-55.25 571.75,-74.5"/>
<text text-anchor="middle" x="493.62" y="-61" font-family="Helvetica,sans-Serif" font-size="10.00">Constants/OscillatorConstants.h</text>
</a>
</g>
</g>
<!-- Node3&#45;&gt;Node4 -->
<g id="edge3_Node000003_Node000004" class="edge">
<title>Node3&#45;&gt;Node4</title>
<g id="a_edge3_Node000003_Node000004"><a xlink:title=" ">
<path fill="none" stroke="#63b8ff" d="M438.5,-115.81C448.23,-106.99 463.35,-93.3 475.29,-82.48"/>
<polygon fill="#63b8ff" stroke="#63b8ff" points="477.48,-85.22 482.54,-75.92 472.78,-80.04 477.48,-85.22"/>
</a>
</g>
</g>
<!-- Node8 -->
<g id="Node000008" class="node">
<title>Node8</title>
<g id="a_Node000008"><a xlink:title=" ">
<polygon fill="#e0e0e0" stroke="#999999" points="605.62,-19.25 565.62,-19.25 565.62,0 605.62,0 605.62,-19.25"/>
<text text-anchor="middle" x="585.62" y="-5.75" font-family="Helvetica,sans-Serif" font-size="10.00">string</text>
</a>
</g>
</g>
<!-- Node3&#45;&gt;Node8 -->
<g id="edge11_Node000003_Node000008" class="edge">
<title>Node3&#45;&gt;Node8</title>
<g id="a_edge11_Node000003_Node000008"><a xlink:title=" ">
<path fill="none" stroke="#63b8ff" d="M462.39,-115.72C504.85,-104.04 573.12,-84.07 580.62,-74.5 590.19,-62.3 590.82,-44.46 589.41,-30.73"/>
<polygon fill="#63b8ff" stroke="#63b8ff" points="592.91,-30.43 587.97,-21.05 585.98,-31.46 592.91,-30.43"/>
</a>
</g>
</g>
<!-- Node10 -->
<g id="Node000010" class="node">
<title>Node10</title>
<g id="a_Node000010"><a xlink:title=" ">
<polygon fill="#e0e0e0" stroke="#999999" points="333.12,-19.25 290.12,-19.25 290.12,0 333.12,0 333.12,-19.25"/>
<text text-anchor="middle" x="311.62" y="-5.75" font-family="Helvetica,sans-Serif" font-size="10.00">vector</text>
</a>
</g>
</g>
<!-- Node3&#45;&gt;Node10 -->
<g id="edge10_Node000003_Node000010" class="edge">
<title>Node3&#45;&gt;Node10</title>
<g id="a_edge10_Node000003_Node000010"><a xlink:title=" ">
<path fill="none" stroke="#63b8ff" d="M394.15,-115.7C360.65,-106.12 313.29,-90.24 302.62,-74.5 293.78,-61.45 297.38,-43.44 302.42,-29.87"/>
<polygon fill="#63b8ff" stroke="#63b8ff" points="305.62,-31.28 306.34,-20.71 299.19,-28.53 305.62,-31.28"/>
</a>
</g>
</g>
<!-- Node11 -->
<g id="Node000011" class="node">
<title>Node11</title>
<g id="a_Node000011"><a xlink:title=" ">
<polygon fill="#e0e0e0" stroke="#999999" points="397.5,-74.5 311.75,-74.5 311.75,-55.25 397.5,-55.25 397.5,-74.5"/>
<text text-anchor="middle" x="354.62" y="-61" font-family="Helvetica,sans-Serif" font-size="10.00">yaml&#45;cpp/yaml.h</text>
</a>
</g>
</g>
<!-- Node3&#45;&gt;Node11 -->
<g id="edge12_Node000003_Node000011" class="edge">
<title>Node3&#45;&gt;Node11</title>
<g id="a_edge12_Node000003_Node000011"><a xlink:title=" ">
<path fill="none" stroke="#63b8ff" d="M417.39,-115.81C406.09,-106.82 388.42,-92.76 374.71,-81.85"/>
<polygon fill="#63b8ff" stroke="#63b8ff" points="377.16,-79.33 367.15,-75.84 372.8,-84.81 377.16,-79.33"/>
</a>
</g>
</g>
<!-- Node5 -->
<g id="Node000005" class="node">
<title>Node5</title>
<g id="a_Node000005"><a xlink:title=" ">
<polygon fill="#e0e0e0" stroke="#999999" points="484.25,-19.25 439,-19.25 439,0 484.25,0 484.25,-19.25"/>
<text text-anchor="middle" x="461.62" y="-5.75" font-family="Helvetica,sans-Serif" font-size="10.00">math.h</text>
</a>
</g>
</g>
<!-- Node4&#45;&gt;Node5 -->
<g id="edge4_Node000004_Node000005" class="edge">
<title>Node4&#45;&gt;Node5</title>
<g id="a_edge4_Node000004_Node000005"><a xlink:title=" ">
<path fill="none" stroke="#63b8ff" d="M488.34,-55.08C484.15,-48.11 478.15,-38.12 472.89,-29.37"/>
<polygon fill="#63b8ff" stroke="#63b8ff" points="475.95,-27.68 467.8,-20.91 469.95,-31.28 475.95,-27.68"/>
</a>
</g>
</g>
<!-- Node6 -->
<g id="Node000006" class="node">
<title>Node6</title>
<g id="a_Node000006"><a xlink:title=" ">
<polygon fill="#e0e0e0" stroke="#999999" points="547.25,-19.25 502,-19.25 502,0 547.25,0 547.25,-19.25"/>
<text text-anchor="middle" x="524.62" y="-5.75" font-family="Helvetica,sans-Serif" font-size="10.00">TFile.h</text>
</a>
</g>
</g>
<!-- Node4&#45;&gt;Node6 -->
<g id="edge5_Node000004_Node000006" class="edge">
<title>Node4&#45;&gt;Node6</title>
<g id="a_edge5_Node000004_Node000006"><a xlink:title=" ">
<path fill="none" stroke="#63b8ff" d="M498.74,-55.08C502.8,-48.11 508.62,-38.12 513.71,-29.37"/>
<polygon fill="#63b8ff" stroke="#63b8ff" points="516.63,-31.32 518.63,-20.92 510.58,-27.8 516.63,-31.32"/>
</a>
</g>
</g>
<!-- Node7 -->
<g id="Node000007" class="node">
<title>Node7</title>
<g id="a_Node000007"><a xlink:title=" ">
<polygon fill="#e0e0e0" stroke="#999999" points="420.75,-19.25 378.5,-19.25 378.5,0 420.75,0 420.75,-19.25"/>
<text text-anchor="middle" x="399.62" y="-5.75" font-family="Helvetica,sans-Serif" font-size="10.00">TH1.h</text>
</a>
</g>
</g>
<!-- Node4&#45;&gt;Node7 -->
<g id="edge6_Node000004_Node000007" class="edge">
<title>Node4&#45;&gt;Node7</title>
<g id="a_edge6_Node000004_Node000007"><a xlink:title=" ">
<path fill="none" stroke="#63b8ff" d="M477.68,-54.84C463.36,-46.73 442.09,-34.68 425.37,-25.21"/>
<polygon fill="#63b8ff" stroke="#63b8ff" points="427.39,-22.33 416.97,-20.45 423.94,-28.42 427.39,-22.33"/>
</a>
</g>
</g>
<!-- Node4&#45;&gt;Node8 -->
<g id="edge7_Node000004_Node000008" class="edge">
<title>Node4&#45;&gt;Node8</title>
<g id="a_edge7_Node000004_Node000008"><a xlink:title=" ">
<path fill="none" stroke="#63b8ff" d="M509.23,-54.84C523.24,-46.73 544.06,-34.68 560.43,-25.21"/>
<polygon fill="#63b8ff" stroke="#63b8ff" points="561.73,-28.5 568.63,-20.46 558.22,-22.44 561.73,-28.5"/>
</a>
</g>
</g>
<!-- Node4&#45;&gt;Node9 -->
<g id="edge8_Node000004_Node000009" class="edge">
<title>Node4&#45;&gt;Node9</title>
<g id="a_edge8_Node000004_Node000009"><a xlink:title=" ">
<path fill="none" stroke="#63b8ff" d="M520.26,-54.84C545.75,-46.2 584.44,-33.07 613.05,-23.37"/>
<polygon fill="#63b8ff" stroke="#63b8ff" points="614.08,-26.72 622.43,-20.19 611.83,-20.09 614.08,-26.72"/>
</a>
</g>
</g>
<!-- Node4&#45;&gt;Node10 -->
<g id="edge9_Node000004_Node000010" class="edge">
<title>Node4&#45;&gt;Node10</title>
<g id="a_edge9_Node000004_Node000010"><a xlink:title=" ">
<path fill="none" stroke="#63b8ff" d="M462.75,-54.84C429.77,-45.19 377.71,-29.96 344.11,-20.13"/>
<polygon fill="#63b8ff" stroke="#63b8ff" points="345.52,-16.89 334.94,-17.45 343.55,-23.61 345.52,-16.89"/>
</a>
</g>
</g>
</g>
</svg>
