<?xml version="1.0" encoding="UTF-8" standalone="no"?>
<!DOCTYPE svg PUBLIC "-//W3C//DTD SVG 1.1//EN"
 "http://www.w3.org/Graphics/SVG/1.1/DTD/svg11.dtd">
<!-- Generated by graphviz version 9.0.0 (20230911.1827)
 -->
<!-- Title: OscProbCalcer/OscProbCalcerBase.h Pages: 1 -->
<svg width="2634pt" height="238pt"
 viewBox="0.00 0.00 2633.75 238.00" xmlns="http://www.w3.org/2000/svg" xmlns:xlink="http://www.w3.org/1999/xlink">
<g id="graph0" class="graph" transform="scale(1 1) rotate(0) translate(4 234)">
<title>OscProbCalcer/OscProbCalcerBase.h</title>
<!-- Node1 -->
<g id="Node000001" class="node">
<title>Node1</title>
<g id="a_Node000001"><a xlink:title=" ">
<polygon fill="#999999" stroke="#666666" points="1611.75,-230 1460.75,-230 1460.75,-199.5 1611.75,-199.5 1611.75,-230"/>
<text text-anchor="start" x="1468.75" y="-216.5" font-family="Helvetica,sans-Serif" font-size="10.00">OscProbCalcer/OscProbCalcer</text>
<text text-anchor="middle" x="1536.25" y="-205.25" font-family="Helvetica,sans-Serif" font-size="10.00">Base.h</text>
</a>
</g>
</g>
<!-- Node2 -->
<g id="Node000002" class="node">
<title>Node2</title>
<g id="a_Node000002"><a xlink:href="SingleOscProbCalcer_8cpp.html" target="_top" xlink:title=" ">
<polygon fill="white" stroke="#666666" points="152.5,-91.38 0,-91.38 0,-72.12 152.5,-72.12 152.5,-91.38"/>
<text text-anchor="middle" x="76.25" y="-77.88" font-family="Helvetica,sans-Serif" font-size="10.00">Apps/SingleOscProbCalcer.cpp</text>
</a>
</g>
</g>
<!-- Node1&#45;&gt;Node2 -->
<g id="edge1_Node000001_Node000002" class="edge">
<title>Node1&#45;&gt;Node2</title>
<g id="a_edge1_Node000001_Node000002"><a xlink:title=" ">
<path fill="none" stroke="#63b8ff" d="M1448.85,-214.34C1200.44,-215.36 493.71,-213.65 268.25,-163.5 199.42,-148.19 124.05,-109.35 92.03,-91.71"/>
<polygon fill="#63b8ff" stroke="#63b8ff" points="1448.83,-217.84 1458.82,-214.29 1448.8,-210.84 1448.83,-217.84"/>
</a>
</g>
</g>
<!-- Node3 -->
<g id="Node000003" class="node">
<title>Node3</title>
<g id="a_Node000003"><a xlink:href="OscProbCalcerBase_8cpp.html" target="_top" xlink:title=" ">
<polygon fill="white" stroke="#666666" points="1104.75,-163.5 953.75,-163.5 953.75,-133 1104.75,-133 1104.75,-163.5"/>
<text text-anchor="start" x="961.75" y="-150" font-family="Helvetica,sans-Serif" font-size="10.00">OscProbCalcer/OscProbCalcer</text>
<text text-anchor="middle" x="1029.25" y="-138.75" font-family="Helvetica,sans-Serif" font-size="10.00">Base.cpp</text>
</a>
</g>
</g>
<!-- Node1&#45;&gt;Node3 -->
<g id="edge2_Node000001_Node000003" class="edge">
<title>Node1&#45;&gt;Node3</title>
<g id="a_edge2_Node000001_Node000003"><a xlink:title=" ">
<path fill="none" stroke="#63b8ff" d="M1449.22,-204.69C1363.58,-195.48 1229.19,-180.21 1113.25,-163.5 1110.61,-163.12 1107.93,-162.72 1105.23,-162.31"/>
<polygon fill="#63b8ff" stroke="#63b8ff" points="1448.63,-208.15 1458.95,-205.74 1449.38,-201.19 1448.63,-208.15"/>
</a>
</g>
</g>
<!-- Node4 -->
<g id="Node000004" class="node">
<title>Node4</title>
<g id="a_Node000004"><a xlink:href="OscProbCalcerFactory_8h.html" target="_top" xlink:title=" ">
<polygon fill="white" stroke="#666666" points="428.75,-163.5 277.75,-163.5 277.75,-133 428.75,-133 428.75,-163.5"/>
<text text-anchor="start" x="285.75" y="-150" font-family="Helvetica,sans-Serif" font-size="10.00">OscProbCalcer/OscProbCalcer</text>
<text text-anchor="middle" x="353.25" y="-138.75" font-family="Helvetica,sans-Serif" font-size="10.00">Factory.h</text>
</a>
</g>
</g>
<!-- Node1&#45;&gt;Node4 -->
<g id="edge3_Node000001_Node000004" class="edge">
<title>Node1&#45;&gt;Node4</title>
<g id="a_edge3_Node000001_Node000004"><a xlink:title=" ">
<path fill="none" stroke="#63b8ff" d="M1449.17,-209C1226.49,-196.86 639.11,-164.84 429.18,-153.39"/>
<polygon fill="#63b8ff" stroke="#63b8ff" points="1448.76,-212.49 1458.94,-209.53 1449.14,-205.5 1448.76,-212.49"/>
</a>
</g>
</g>
<!-- Node7 -->
<g id="Node000007" class="node">
<title>Node7</title>
<g id="a_Node000007"><a xlink:href="OscProbCalcer__CHICLinear_8h.html" target="_top" xlink:title=" ">
<polygon fill="white" stroke="#666666" points="1273.75,-163.5 1122.75,-163.5 1122.75,-133 1273.75,-133 1273.75,-163.5"/>
<text text-anchor="start" x="1130.75" y="-150" font-family="Helvetica,sans-Serif" font-size="10.00">OscProbCalcer/OscProbCalcer</text>
<text text-anchor="middle" x="1198.25" y="-138.75" font-family="Helvetica,sans-Serif" font-size="10.00">_CHICLinear.h</text>
</a>
</g>
</g>
<!-- Node1&#45;&gt;Node7 -->
<g id="edge7_Node000001_Node000007" class="edge">
<title>Node1&#45;&gt;Node7</title>
<g id="a_edge7_Node000001_Node000007"><a xlink:title=" ">
<path fill="none" stroke="#63b8ff" d="M1449.42,-197.18C1395.23,-186.84 1326.14,-173.65 1274.14,-163.73"/>
<polygon fill="#63b8ff" stroke="#63b8ff" points="1448.43,-200.55 1458.91,-198.99 1449.74,-193.68 1448.43,-200.55"/>
</a>
</g>
</g>
<!-- Node9 -->
<g id="Node000009" class="node">
<title>Node9</title>
<g id="a_Node000009"><a xlink:href="OscProbCalcer__CUDAProb3_8h.html" target="_top" xlink:title=" ">
<polygon fill="white" stroke="#666666" points="1442.75,-163.5 1291.75,-163.5 1291.75,-133 1442.75,-133 1442.75,-163.5"/>
<text text-anchor="start" x="1299.75" y="-150" font-family="Helvetica,sans-Serif" font-size="10.00">OscProbCalcer/OscProbCalcer</text>
<text text-anchor="middle" x="1367.25" y="-138.75" font-family="Helvetica,sans-Serif" font-size="10.00">_CUDAProb3.h</text>
</a>
</g>
</g>
<!-- Node1&#45;&gt;Node9 -->
<g id="edge9_Node000001_Node000009" class="edge">
<title>Node1&#45;&gt;Node9</title>
<g id="a_edge9_Node000001_Node000009"><a xlink:title=" ">
<path fill="none" stroke="#63b8ff" d="M1487.16,-195.01C1461.24,-185.12 1429.88,-173.15 1405.74,-163.94"/>
<polygon fill="#63b8ff" stroke="#63b8ff" points="1485.9,-198.28 1496.49,-198.57 1488.39,-191.74 1485.9,-198.28"/>
</a>
</g>
</g>
<!-- Node11 -->
<g id="Node000011" class="node">
<title>Node11</title>
<g id="a_Node000011"><a xlink:href="OscProbCalcer__CUDAProb3Linear_8h.html" target="_top" xlink:title=" ">
<polygon fill="white" stroke="#666666" points="1611.75,-163.5 1460.75,-163.5 1460.75,-133 1611.75,-133 1611.75,-163.5"/>
<text text-anchor="start" x="1468.75" y="-150" font-family="Helvetica,sans-Serif" font-size="10.00">OscProbCalcer/OscProbCalcer</text>
<text text-anchor="middle" x="1536.25" y="-138.75" font-family="Helvetica,sans-Serif" font-size="10.00">_CUDAProb3Linear.h</text>
</a>
</g>
</g>
<!-- Node1&#45;&gt;Node11 -->
<g id="edge11_Node000001_Node000011" class="edge">
<title>Node1&#45;&gt;Node11</title>
<g id="a_edge11_Node000001_Node000011"><a xlink:title=" ">
<path fill="none" stroke="#63b8ff" d="M1536.25,-187.81C1536.25,-179.64 1536.25,-170.91 1536.25,-163.83"/>
<polygon fill="#63b8ff" stroke="#63b8ff" points="1532.75,-187.6 1536.25,-197.6 1539.75,-187.6 1532.75,-187.6"/>
</a>
</g>
</g>
<!-- Node13 -->
<g id="Node000013" class="node">
<title>Node13</title>
<g id="a_Node000013"><a xlink:href="OscProbCalcer__GLoBESLinear_8h.html" target="_top" xlink:title=" ">
<polygon fill="white" stroke="#666666" points="1780.75,-163.5 1629.75,-163.5 1629.75,-133 1780.75,-133 1780.75,-163.5"/>
<text text-anchor="start" x="1637.75" y="-150" font-family="Helvetica,sans-Serif" font-size="10.00">OscProbCalcer/OscProbCalcer</text>
<text text-anchor="middle" x="1705.25" y="-138.75" font-family="Helvetica,sans-Serif" font-size="10.00">_GLoBESLinear.h</text>
</a>
</g>
</g>
<!-- Node1&#45;&gt;Node13 -->
<g id="edge13_Node000001_Node000013" class="edge">
<title>Node1&#45;&gt;Node13</title>
<g id="a_edge13_Node000001_Node000013"><a xlink:title=" ">
<path fill="none" stroke="#63b8ff" d="M1585.34,-195.01C1611.26,-185.12 1642.62,-173.15 1666.76,-163.94"/>
<polygon fill="#63b8ff" stroke="#63b8ff" points="1584.11,-191.74 1576.01,-198.57 1586.6,-198.28 1584.11,-191.74"/>
</a>
</g>
</g>
<!-- Node15 -->
<g id="Node000015" class="node">
<title>Node15</title>
<g id="a_Node000015"><a xlink:href="OscProbCalcer__NuFASTLinear_8h.html" target="_top" xlink:title=" ">
<polygon fill="white" stroke="#666666" points="1949.75,-163.5 1798.75,-163.5 1798.75,-133 1949.75,-133 1949.75,-163.5"/>
<text text-anchor="start" x="1806.75" y="-150" font-family="Helvetica,sans-Serif" font-size="10.00">OscProbCalcer/OscProbCalcer</text>
<text text-anchor="middle" x="1874.25" y="-138.75" font-family="Helvetica,sans-Serif" font-size="10.00">_NuFASTLinear.h</text>
</a>
</g>
</g>
<!-- Node1&#45;&gt;Node15 -->
<g id="edge15_Node000001_Node000015" class="edge">
<title>Node1&#45;&gt;Node15</title>
<g id="a_edge15_Node000001_Node000015"><a xlink:title=" ">
<path fill="none" stroke="#63b8ff" d="M1623.08,-197.18C1677.27,-186.84 1746.36,-173.65 1798.36,-163.73"/>
<polygon fill="#63b8ff" stroke="#63b8ff" points="1622.76,-193.68 1613.59,-198.99 1624.07,-200.55 1622.76,-193.68"/>
</a>
</g>
</g>
<!-- Node17 -->
<g id="Node000017" class="node">
<title>Node17</title>
<g id="a_Node000017"><a xlink:href="OscProbCalcer__NuSQUIDSLinear_8h.html" target="_top" xlink:title=" ">
<polygon fill="white" stroke="#666666" points="2118.75,-163.5 1967.75,-163.5 1967.75,-133 2118.75,-133 2118.75,-163.5"/>
<text text-anchor="start" x="1975.75" y="-150" font-family="Helvetica,sans-Serif" font-size="10.00">OscProbCalcer/OscProbCalcer</text>
<text text-anchor="middle" x="2043.25" y="-138.75" font-family="Helvetica,sans-Serif" font-size="10.00">_NuSQUIDSLinear.h</text>
</a>
</g>
</g>
<!-- Node1&#45;&gt;Node17 -->
<g id="edge17_Node000001_Node000017" class="edge">
<title>Node1&#45;&gt;Node17</title>
<g id="a_edge17_Node000001_Node000017"><a xlink:title=" ">
<path fill="none" stroke="#63b8ff" d="M1623.45,-204.59C1708.9,-195.33 1842.74,-180.05 1958.25,-163.5 1961.21,-163.08 1964.23,-162.63 1967.28,-162.17"/>
<polygon fill="#63b8ff" stroke="#63b8ff" points="1623.31,-201.09 1613.75,-205.64 1624.07,-208.05 1623.31,-201.09"/>
</a>
</g>
</g>
<!-- Node19 -->
<g id="Node000019" class="node">
<title>Node19</title>
<g id="a_Node000019"><a xlink:href="OscProbCalcer__OscProb_8h.html" target="_top" xlink:title=" ">
<polygon fill="white" stroke="#666666" points="2287.75,-163.5 2136.75,-163.5 2136.75,-133 2287.75,-133 2287.75,-163.5"/>
<text text-anchor="start" x="2144.75" y="-150" font-family="Helvetica,sans-Serif" font-size="10.00">OscProbCalcer/OscProbCalcer</text>
<text text-anchor="middle" x="2212.25" y="-138.75" font-family="Helvetica,sans-Serif" font-size="10.00">_OscProb.h</text>
</a>
</g>
</g>
<!-- Node1&#45;&gt;Node19 -->
<g id="edge19_Node000001_Node000019" class="edge">
<title>Node1&#45;&gt;Node19</title>
<g id="a_edge19_Node000001_Node000019"><a xlink:title=" ">
<path fill="none" stroke="#63b8ff" d="M1623.24,-208.57C1738.7,-201.2 1948.79,-186.01 2127.25,-163.5 2130.22,-163.13 2133.24,-162.72 2136.3,-162.3"/>
<polygon fill="#63b8ff" stroke="#63b8ff" points="1623.29,-205.06 1613.53,-209.19 1623.74,-212.05 1623.29,-205.06"/>
</a>
</g>
</g>
<!-- Node21 -->
<g id="Node000021" class="node">
<title>Node21</title>
<g id="a_Node000021"><a xlink:href="OscProbCalcer__Prob3ppLinear_8h.html" target="_top" xlink:title=" ">
<polygon fill="white" stroke="#666666" points="2456.75,-163.5 2305.75,-163.5 2305.75,-133 2456.75,-133 2456.75,-163.5"/>
<text text-anchor="start" x="2313.75" y="-150" font-family="Helvetica,sans-Serif" font-size="10.00">OscProbCalcer/OscProbCalcer</text>
<text text-anchor="middle" x="2381.25" y="-138.75" font-family="Helvetica,sans-Serif" font-size="10.00">_Prob3ppLinear.h</text>
</a>
</g>
</g>
<!-- Node1&#45;&gt;Node21 -->
<g id="edge21_Node000001_Node000021" class="edge">
<title>Node1&#45;&gt;Node21</title>
<g id="a_edge21_Node000001_Node000021"><a xlink:title=" ">
<path fill="none" stroke="#63b8ff" d="M1623.15,-210.83C1764.6,-205.45 2053.28,-191.83 2296.25,-163.5 2299.22,-163.15 2302.25,-162.77 2305.3,-162.37"/>
<polygon fill="#63b8ff" stroke="#63b8ff" points="1623.36,-207.32 1613.5,-211.2 1623.62,-214.32 1623.36,-207.32"/>
</a>
</g>
</g>
<!-- Node23 -->
<g id="Node000023" class="node">
<title>Node23</title>
<g id="a_Node000023"><a xlink:href="OscProbCalcer__ProbGPULinear_8h.html" target="_top" xlink:title=" ">
<polygon fill="white" stroke="#666666" points="2625.75,-163.5 2474.75,-163.5 2474.75,-133 2625.75,-133 2625.75,-163.5"/>
<text text-anchor="start" x="2482.75" y="-150" font-family="Helvetica,sans-Serif" font-size="10.00">OscProbCalcer/OscProbCalcer</text>
<text text-anchor="middle" x="2550.25" y="-138.75" font-family="Helvetica,sans-Serif" font-size="10.00">_ProbGPULinear.h</text>
</a>
</g>
</g>
<!-- Node1&#45;&gt;Node23 -->
<g id="edge23_Node000001_Node000023" class="edge">
<title>Node1&#45;&gt;Node23</title>
<g id="a_edge23_Node000001_Node000023"><a xlink:title=" ">
<path fill="none" stroke="#63b8ff" d="M1623.17,-212.36C1788.05,-208.99 2157.37,-197.93 2466.25,-163.5 2468.9,-163.21 2471.59,-162.88 2474.3,-162.53"/>
<polygon fill="#63b8ff" stroke="#63b8ff" points="1623.58,-208.85 1613.65,-212.55 1623.72,-215.85 1623.58,-208.85"/>
</a>
</g>
</g>
<!-- Node25 -->
<g id="Node000025" class="node">
<title>Node25</title>
<g id="a_Node000025"><a xlink:href="OscillatorBase_8h.html" target="_top" xlink:title=" ">
<polygon fill="white" stroke="#666666" points="865,-157.88 733.5,-157.88 733.5,-138.62 865,-138.62 865,-157.88"/>
<text text-anchor="middle" x="799.25" y="-144.38" font-family="Helvetica,sans-Serif" font-size="10.00">Oscillator/OscillatorBase.h</text>
</a>
</g>
</g>
<!-- Node1&#45;&gt;Node25 -->
<g id="edge25_Node000001_Node000025" class="edge">
<title>Node1&#45;&gt;Node25</title>
<g id="a_edge25_Node000001_Node000025"><a xlink:title=" ">
<path fill="none" stroke="#63b8ff" d="M1449.31,-206.73C1333.88,-197.34 1123.68,-179.93 944.25,-163.5 918.43,-161.14 890.04,-158.38 865.28,-155.93"/>
<polygon fill="#63b8ff" stroke="#63b8ff" points="1448.77,-210.2 1459.02,-207.52 1449.33,-203.22 1448.77,-210.2"/>
</a>
</g>
</g>
<!-- Node4&#45;&gt;Node2 -->
<g id="edge4_Node000004_Node000002" class="edge">
<title>Node4&#45;&gt;Node2</title>
<g id="a_edge4_Node000004_Node000002"><a xlink:title=" ">
<path fill="none" stroke="#63b8ff" d="M279.05,-129.97C226.33,-117.7 157.62,-101.7 115.25,-91.83"/>
<polygon fill="#63b8ff" stroke="#63b8ff" points="278.04,-133.33 288.57,-132.19 279.63,-126.51 278.04,-133.33"/>
</a>
</g>
</g>
<!-- Node5 -->
<g id="Node000005" class="node">
<title>Node5</title>
<g id="a_Node000005"><a xlink:href="OscProbCalcerFactory_8cpp.html" target="_top" xlink:title=" ">
<polygon fill="white" stroke="#666666" points="321.75,-97 170.75,-97 170.75,-66.5 321.75,-66.5 321.75,-97"/>
<text text-anchor="start" x="178.75" y="-83.5" font-family="Helvetica,sans-Serif" font-size="10.00">OscProbCalcer/OscProbCalcer</text>
<text text-anchor="middle" x="246.25" y="-72.25" font-family="Helvetica,sans-Serif" font-size="10.00">Factory.cpp</text>
</a>
</g>
</g>
<!-- Node4&#45;&gt;Node5 -->
<g id="edge5_Node000004_Node000005" class="edge">
<title>Node4&#45;&gt;Node5</title>
<g id="a_edge5_Node000004_Node000005"><a xlink:title=" ">
<path fill="none" stroke="#63b8ff" d="M319.47,-126.89C303.55,-117.29 284.92,-106.06 270.43,-97.33"/>
<polygon fill="#63b8ff" stroke="#63b8ff" points="317.3,-129.67 327.67,-131.83 320.92,-123.67 317.3,-129.67"/>
</a>
</g>
</g>
<!-- Node6 -->
<g id="Node000006" class="node">
<title>Node6</title>
<g id="a_Node000006"><a xlink:href="OscillatorBase_8cpp.html" target="_top" xlink:title=" ">
<polygon fill="white" stroke="#666666" points="482.25,-91.38 340.25,-91.38 340.25,-72.12 482.25,-72.12 482.25,-91.38"/>
<text text-anchor="middle" x="411.25" y="-77.88" font-family="Helvetica,sans-Serif" font-size="10.00">Oscillator/OscillatorBase.cpp</text>
</a>
</g>
</g>
<!-- Node4&#45;&gt;Node6 -->
<g id="edge6_Node000004_Node000006" class="edge">
<title>Node4&#45;&gt;Node6</title>
<g id="a_edge6_Node000004_Node000006"><a xlink:title=" ">
<path fill="none" stroke="#63b8ff" d="M373.82,-124.37C384.02,-113.03 395.75,-99.99 403.32,-91.57"/>
<polygon fill="#63b8ff" stroke="#63b8ff" points="371.51,-121.71 367.42,-131.49 376.71,-126.39 371.51,-121.71"/>
</a>
</g>
</g>
<!-- Node8 -->
<g id="Node000008" class="node">
<title>Node8</title>
<g id="a_Node000008"><a xlink:href="OscProbCalcer__CHICLinear_8cpp.html" target="_top" xlink:title=" ">
<polygon fill="white" stroke="#666666" points="1273.75,-97 1122.75,-97 1122.75,-66.5 1273.75,-66.5 1273.75,-97"/>
<text text-anchor="start" x="1130.75" y="-83.5" font-family="Helvetica,sans-Serif" font-size="10.00">OscProbCalcer/OscProbCalcer</text>
<text text-anchor="middle" x="1198.25" y="-72.25" font-family="Helvetica,sans-Serif" font-size="10.00">_CHICLinear.cpp</text>
</a>
</g>
</g>
<!-- Node7&#45;&gt;Node8 -->
<g id="edge8_Node000007_Node000008" class="edge">
<title>Node7&#45;&gt;Node8</title>
<g id="a_edge8_Node000007_Node000008"><a xlink:title=" ">
<path fill="none" stroke="#63b8ff" d="M1198.25,-121.31C1198.25,-113.14 1198.25,-104.41 1198.25,-97.33"/>
<polygon fill="#63b8ff" stroke="#63b8ff" points="1194.75,-121.1 1198.25,-131.1 1201.75,-121.1 1194.75,-121.1"/>
</a>
</g>
</g>
<!-- Node10 -->
<g id="Node000010" class="node">
<title>Node10</title>
<g id="a_Node000010"><a xlink:href="OscProbCalcer__CUDAProb3_8cpp.html" target="_top" xlink:title=" ">
<polygon fill="white" stroke="#666666" points="1442.75,-97 1291.75,-97 1291.75,-66.5 1442.75,-66.5 1442.75,-97"/>
<text text-anchor="start" x="1299.75" y="-83.5" font-family="Helvetica,sans-Serif" font-size="10.00">OscProbCalcer/OscProbCalcer</text>
<text text-anchor="middle" x="1367.25" y="-72.25" font-family="Helvetica,sans-Serif" font-size="10.00">_CUDAProb3.cpp</text>
</a>
</g>
</g>
<!-- Node9&#45;&gt;Node10 -->
<g id="edge10_Node000009_Node000010" class="edge">
<title>Node9&#45;&gt;Node10</title>
<g id="a_edge10_Node000009_Node000010"><a xlink:title=" ">
<path fill="none" stroke="#63b8ff" d="M1367.25,-121.31C1367.25,-113.14 1367.25,-104.41 1367.25,-97.33"/>
<polygon fill="#63b8ff" stroke="#63b8ff" points="1363.75,-121.1 1367.25,-131.1 1370.75,-121.1 1363.75,-121.1"/>
</a>
</g>
</g>
<!-- Node12 -->
<g id="Node000012" class="node">
<title>Node12</title>
<g id="a_Node000012"><a xlink:href="OscProbCalcer__CUDAProb3Linear_8cpp.html" target="_top" xlink:title=" ">
<polygon fill="white" stroke="#666666" points="1611.75,-97 1460.75,-97 1460.75,-66.5 1611.75,-66.5 1611.75,-97"/>
<text text-anchor="start" x="1468.75" y="-83.5" font-family="Helvetica,sans-Serif" font-size="10.00">OscProbCalcer/OscProbCalcer</text>
<text text-anchor="middle" x="1536.25" y="-72.25" font-family="Helvetica,sans-Serif" font-size="10.00">_CUDAProb3Linear.cpp</text>
</a>
</g>
</g>
<!-- Node11&#45;&gt;Node12 -->
<g id="edge12_Node000011_Node000012" class="edge">
<title>Node11&#45;&gt;Node12</title>
<g id="a_edge12_Node000011_Node000012"><a xlink:title=" ">
<path fill="none" stroke="#63b8ff" d="M1536.25,-121.31C1536.25,-113.14 1536.25,-104.41 1536.25,-97.33"/>
<polygon fill="#63b8ff" stroke="#63b8ff" points="1532.75,-121.1 1536.25,-131.1 1539.75,-121.1 1532.75,-121.1"/>
</a>
</g>
</g>
<!-- Node14 -->
<g id="Node000014" class="node">
<title>Node14</title>
<g id="a_Node000014"><a xlink:href="OscProbCalcer__GLoBESLinear_8cpp.html" target="_top" xlink:title=" ">
<polygon fill="white" stroke="#666666" points="1780.75,-97 1629.75,-97 1629.75,-66.5 1780.75,-66.5 1780.75,-97"/>
<text text-anchor="start" x="1637.75" y="-83.5" font-family="Helvetica,sans-Serif" font-size="10.00">OscProbCalcer/OscProbCalcer</text>
<text text-anchor="middle" x="1705.25" y="-72.25" font-family="Helvetica,sans-Serif" font-size="10.00">_GLoBESLinear.cpp</text>
</a>
</g>
</g>
<!-- Node13&#45;&gt;Node14 -->
<g id="edge14_Node000013_Node000014" class="edge">
<title>Node13&#45;&gt;Node14</title>
<g id="a_edge14_Node000013_Node000014"><a xlink:title=" ">
<path fill="none" stroke="#63b8ff" d="M1705.25,-121.31C1705.25,-113.14 1705.25,-104.41 1705.25,-97.33"/>
<polygon fill="#63b8ff" stroke="#63b8ff" points="1701.75,-121.1 1705.25,-131.1 1708.75,-121.1 1701.75,-121.1"/>
</a>
</g>
</g>
<!-- Node16 -->
<g id="Node000016" class="node">
<title>Node16</title>
<g id="a_Node000016"><a xlink:href="OscProbCalcer__NuFASTLinear_8cpp.html" target="_top" xlink:title=" ">
<polygon fill="white" stroke="#666666" points="1949.75,-97 1798.75,-97 1798.75,-66.5 1949.75,-66.5 1949.75,-97"/>
<text text-anchor="start" x="1806.75" y="-83.5" font-family="Helvetica,sans-Serif" font-size="10.00">OscProbCalcer/OscProbCalcer</text>
<text text-anchor="middle" x="1874.25" y="-72.25" font-family="Helvetica,sans-Serif" font-size="10.00">_NuFASTLinear.cpp</text>
</a>
</g>
</g>
<!-- Node15&#45;&gt;Node16 -->
<g id="edge16_Node000015_Node000016" class="edge">
<title>Node15&#45;&gt;Node16</title>
<g id="a_edge16_Node000015_Node000016"><a xlink:title=" ">
<path fill="none" stroke="#63b8ff" d="M1874.25,-121.31C1874.25,-113.14 1874.25,-104.41 1874.25,-97.33"/>
<polygon fill="#63b8ff" stroke="#63b8ff" points="1870.75,-121.1 1874.25,-131.1 1877.75,-121.1 1870.75,-121.1"/>
</a>
</g>
</g>
<!-- Node18 -->
<g id="Node000018" class="node">
<title>Node18</title>
<g id="a_Node000018"><a xlink:href="OscProbCalcer__NuSQUIDSLinear_8cpp.html" target="_top" xlink:title=" ">
<polygon fill="white" stroke="#666666" points="2118.75,-97 1967.75,-97 1967.75,-66.5 2118.75,-66.5 2118.75,-97"/>
<text text-anchor="start" x="1975.75" y="-83.5" font-family="Helvetica,sans-Serif" font-size="10.00">OscProbCalcer/OscProbCalcer</text>
<text text-anchor="middle" x="2043.25" y="-72.25" font-family="Helvetica,sans-Serif" font-size="10.00">_NuSQUIDSLinear.cpp</text>
</a>
</g>
</g>
<!-- Node17&#45;&gt;Node18 -->
<g id="edge18_Node000017_Node000018" class="edge">
<title>Node17&#45;&gt;Node18</title>
<g id="a_edge18_Node000017_Node000018"><a xlink:title=" ">
<path fill="none" stroke="#63b8ff" d="M2043.25,-121.31C2043.25,-113.14 2043.25,-104.41 2043.25,-97.33"/>
<polygon fill="#63b8ff" stroke="#63b8ff" points="2039.75,-121.1 2043.25,-131.1 2046.75,-121.1 2039.75,-121.1"/>
</a>
</g>
</g>
<!-- Node20 -->
<g id="Node000020" class="node">
<title>Node20</title>
<g id="a_Node000020"><a xlink:href="OscProbCalcer__OscProb_8cpp.html" target="_top" xlink:title=" ">
<polygon fill="white" stroke="#666666" points="2287.75,-97 2136.75,-97 2136.75,-66.5 2287.75,-66.5 2287.75,-97"/>
<text text-anchor="start" x="2144.75" y="-83.5" font-family="Helvetica,sans-Serif" font-size="10.00">OscProbCalcer/OscProbCalcer</text>
<text text-anchor="middle" x="2212.25" y="-72.25" font-family="Helvetica,sans-Serif" font-size="10.00">_OscProb.cpp</text>
</a>
</g>
</g>
<!-- Node19&#45;&gt;Node20 -->
<g id="edge20_Node000019_Node000020" class="edge">
<title>Node19&#45;&gt;Node20</title>
<g id="a_edge20_Node000019_Node000020"><a xlink:title=" ">
<path fill="none" stroke="#63b8ff" d="M2212.25,-121.31C2212.25,-113.14 2212.25,-104.41 2212.25,-97.33"/>
<polygon fill="#63b8ff" stroke="#63b8ff" points="2208.75,-121.1 2212.25,-131.1 2215.75,-121.1 2208.75,-121.1"/>
</a>
</g>
</g>
<!-- Node22 -->
<g id="Node000022" class="node">
<title>Node22</title>
<g id="a_Node000022"><a xlink:href="OscProbCalcer__Prob3ppLinear_8cpp.html" target="_top" xlink:title=" ">
<polygon fill="white" stroke="#666666" points="2456.75,-97 2305.75,-97 2305.75,-66.5 2456.75,-66.5 2456.75,-97"/>
<text text-anchor="start" x="2313.75" y="-83.5" font-family="Helvetica,sans-Serif" font-size="10.00">OscProbCalcer/OscProbCalcer</text>
<text text-anchor="middle" x="2381.25" y="-72.25" font-family="Helvetica,sans-Serif" font-size="10.00">_Prob3ppLinear.cpp</text>
</a>
</g>
</g>
<!-- Node21&#45;&gt;Node22 -->
<g id="edge22_Node000021_Node000022" class="edge">
<title>Node21&#45;&gt;Node22</title>
<g id="a_edge22_Node000021_Node000022"><a xlink:title=" ">
<path fill="none" stroke="#63b8ff" d="M2381.25,-121.31C2381.25,-113.14 2381.25,-104.41 2381.25,-97.33"/>
<polygon fill="#63b8ff" stroke="#63b8ff" points="2377.75,-121.1 2381.25,-131.1 2384.75,-121.1 2377.75,-121.1"/>
</a>
</g>
</g>
<!-- Node24 -->
<g id="Node000024" class="node">
<title>Node24</title>
<g id="a_Node000024"><a xlink:href="OscProbCalcer__ProbGPULinear_8cpp.html" target="_top" xlink:title=" ">
<polygon fill="white" stroke="#666666" points="2625.75,-97 2474.75,-97 2474.75,-66.5 2625.75,-66.5 2625.75,-97"/>
<text text-anchor="start" x="2482.75" y="-83.5" font-family="Helvetica,sans-Serif" font-size="10.00">OscProbCalcer/OscProbCalcer</text>
<text text-anchor="middle" x="2550.25" y="-72.25" font-family="Helvetica,sans-Serif" font-size="10.00">_ProbGPULinear.cpp</text>
</a>
</g>
</g>
<!-- Node23&#45;&gt;Node24 -->
<g id="edge24_Node000023_Node000024" class="edge">
<title>Node23&#45;&gt;Node24</title>
<g id="a_edge24_Node000023_Node000024"><a xlink:title=" ">
<path fill="none" stroke="#63b8ff" d="M2550.25,-121.31C2550.25,-113.14 2550.25,-104.41 2550.25,-97.33"/>
<polygon fill="#63b8ff" stroke="#63b8ff" points="2546.75,-121.1 2550.25,-131.1 2553.75,-121.1 2546.75,-121.1"/>
</a>
</g>
</g>
<!-- Node25&#45;&gt;Node6 -->
<g id="edge26_Node000025_Node000006" class="edge">
<title>Node25&#45;&gt;Node6</title>
<g id="a_edge26_Node000025_Node000006"><a xlink:title=" ">
<path fill="none" stroke="#63b8ff" d="M730.6,-136.34C668.15,-126.35 573.45,-111.03 491.25,-97 481.65,-95.36 471.42,-93.57 461.59,-91.83"/>
<polygon fill="#63b8ff" stroke="#63b8ff" points="729.95,-139.78 740.38,-137.91 731.06,-132.87 729.95,-139.78"/>
</a>
</g>
</g>
<!-- Node26 -->
<g id="Node000026" class="node">
<title>Node26</title>
<g id="a_Node000026"><a xlink:href="OscillatorBinned_8h.html" target="_top" xlink:title=" ">
<polygon fill="white" stroke="#666666" points="639.75,-91.38 500.75,-91.38 500.75,-72.12 639.75,-72.12 639.75,-91.38"/>
<text text-anchor="middle" x="570.25" y="-77.88" font-family="Helvetica,sans-Serif" font-size="10.00">Oscillator/OscillatorBinned.h</text>
</a>
</g>
</g>
<!-- Node25&#45;&gt;Node26 -->
<g id="edge27_Node000025_Node000026" class="edge">
<title>Node25&#45;&gt;Node26</title>
<g id="a_edge27_Node000025_Node000026"><a xlink:title=" ">
<path fill="none" stroke="#63b8ff" d="M756.11,-135.1C711.41,-122.51 642.57,-103.12 602.41,-91.81"/>
<polygon fill="#63b8ff" stroke="#63b8ff" points="754.89,-138.39 765.47,-137.74 756.79,-131.66 754.89,-138.39"/>
</a>
</g>
</g>
<!-- Node29 -->
<g id="Node000029" class="node">
<title>Node29</title>
<g id="a_Node000029"><a xlink:href="OscillatorFactory_8h.html" target="_top" xlink:title=" ">
<polygon fill="white" stroke="#666666" points="798.88,-91.38 657.62,-91.38 657.62,-72.12 798.88,-72.12 798.88,-91.38"/>
<text text-anchor="middle" x="728.25" y="-77.88" font-family="Helvetica,sans-Serif" font-size="10.00">Oscillator/OscillatorFactory.h</text>
</a>
</g>
</g>
<!-- Node25&#45;&gt;Node29 -->
<g id="edge30_Node000025_Node000029" class="edge">
<title>Node25&#45;&gt;Node29</title>
<g id="a_edge30_Node000025_Node000029"><a xlink:title=" ">
<path fill="none" stroke="#63b8ff" d="M781.15,-130.81C767.44,-118.36 749.13,-101.72 738.04,-91.64"/>
<polygon fill="#63b8ff" stroke="#63b8ff" points="778.5,-133.13 788.26,-137.26 783.21,-127.95 778.5,-133.13"/>
</a>
</g>
</g>
<!-- Node34 -->
<g id="Node000034" class="node">
<title>Node34</title>
<g id="a_Node000034"><a xlink:href="OscillatorSubSampling_8h.html" target="_top" xlink:title=" ">
<polygon fill="white" stroke="#666666" points="935.62,-97 816.88,-97 816.88,-66.5 935.62,-66.5 935.62,-97"/>
<text text-anchor="start" x="824.88" y="-83.5" font-family="Helvetica,sans-Serif" font-size="10.00">Oscillator/OscillatorSub</text>
<text text-anchor="middle" x="876.25" y="-72.25" font-family="Helvetica,sans-Serif" font-size="10.00">Sampling.h</text>
</a>
</g>
</g>
<!-- Node25&#45;&gt;Node34 -->
<g id="edge36_Node000025_Node000034" class="edge">
<title>Node25&#45;&gt;Node34</title>
<g id="a_edge36_Node000025_Node000034"><a xlink:title=" ">
<path fill="none" stroke="#63b8ff" d="M818.6,-131.04C830.96,-120.69 846.86,-107.37 858.83,-97.34"/>
<polygon fill="#63b8ff" stroke="#63b8ff" points="816.54,-128.21 811.12,-137.31 821.03,-133.57 816.54,-128.21"/>
</a>
</g>
</g>
<!-- Node36 -->
<g id="Node000036" class="node">
<title>Node36</title>
<g id="a_Node000036"><a xlink:href="OscillatorUnbinned_8h.html" target="_top" xlink:title=" ">
<polygon fill="white" stroke="#666666" points="1104.38,-91.38 954.12,-91.38 954.12,-72.12 1104.38,-72.12 1104.38,-91.38"/>
<text text-anchor="middle" x="1029.25" y="-77.88" font-family="Helvetica,sans-Serif" font-size="10.00">Oscillator/OscillatorUnbinned.h</text>
</a>
</g>
</g>
<!-- Node25&#45;&gt;Node36 -->
<g id="edge39_Node000025_Node000036" class="edge">
<title>Node25&#45;&gt;Node36</title>
<g id="a_edge39_Node000025_Node000036"><a xlink:title=" ">
<path fill="none" stroke="#63b8ff" d="M842.58,-135.1C887.48,-122.51 956.62,-103.12 996.95,-91.81"/>
<polygon fill="#63b8ff" stroke="#63b8ff" points="841.86,-131.67 833.17,-137.74 843.75,-138.41 841.86,-131.67"/>
</a>
</g>
</g>
<!-- Node27 -->
<g id="Node000027" class="node">
<title>Node27</title>
<g id="a_Node000027"><a xlink:href="OscillatorBinned_8cpp.html" target="_top" xlink:title=" ">
<polygon fill="white" stroke="#666666" points="216,-24.88 66.5,-24.88 66.5,-5.63 216,-5.63 216,-24.88"/>
<text text-anchor="middle" x="141.25" y="-11.38" font-family="Helvetica,sans-Serif" font-size="10.00">Oscillator/OscillatorBinned.cpp</text>
</a>
</g>
</g>
<!-- Node26&#45;&gt;Node27 -->
<g id="edge28_Node000026_Node000027" class="edge">
<title>Node26&#45;&gt;Node27</title>
<g id="a_edge28_Node000026_Node000027"><a xlink:title=" ">
<path fill="none" stroke="#63b8ff" d="M510.82,-69.74C504.23,-68.61 497.6,-67.5 491.25,-66.5 373.41,-47.91 343.19,-48.48 225.25,-30.5 214.87,-28.92 203.78,-27.12 193.18,-25.34"/>
<polygon fill="#63b8ff" stroke="#63b8ff" points="509.9,-73.13 520.35,-71.41 511.11,-66.24 509.9,-73.13"/>
</a>
</g>
</g>
<!-- Node28 -->
<g id="Node000028" class="node">
<title>Node28</title>
<g id="a_Node000028"><a xlink:href="OscillatorFactory_8cpp.html" target="_top" xlink:title=" ">
<polygon fill="white" stroke="#666666" points="962.12,-24.88 810.38,-24.88 810.38,-5.63 962.12,-5.63 962.12,-24.88"/>
<text text-anchor="middle" x="886.25" y="-11.38" font-family="Helvetica,sans-Serif" font-size="10.00">Oscillator/OscillatorFactory.cpp</text>
</a>
</g>
</g>
<!-- Node26&#45;&gt;Node28 -->
<g id="edge29_Node000026_Node000028" class="edge">
<title>Node26&#45;&gt;Node28</title>
<g id="a_edge29_Node000026_Node000028"><a xlink:title=" ">
<path fill="none" stroke="#63b8ff" d="M625.88,-69.39C687.31,-56.86 784.99,-36.92 841.62,-25.36"/>
<polygon fill="#63b8ff" stroke="#63b8ff" points="625.44,-65.91 616.34,-71.34 626.84,-72.77 625.44,-65.91"/>
</a>
</g>
</g>
<!-- Node29&#45;&gt;Node28 -->
<g id="edge35_Node000029_Node000028" class="edge">
<title>Node29&#45;&gt;Node28</title>
<g id="a_edge35_Node000029_Node000028"><a xlink:title=" ">
<path fill="none" stroke="#63b8ff" d="M761.21,-67.3C792.06,-54.7 837.29,-36.24 864.06,-25.31"/>
<polygon fill="#63b8ff" stroke="#63b8ff" points="759.89,-64.05 751.95,-71.07 762.53,-70.53 759.89,-64.05"/>
</a>
</g>
</g>
<!-- Node30 -->
<g id="Node000030" class="node">
<title>Node30</title>
<g id="a_Node000030"><a xlink:href="Analysis_8cpp.html" target="_top" xlink:title=" ">
<polygon fill="white" stroke="#666666" points="330.38,-24.88 234.12,-24.88 234.12,-5.63 330.38,-5.63 330.38,-24.88"/>
<text text-anchor="middle" x="282.25" y="-11.38" font-family="Helvetica,sans-Serif" font-size="10.00">Apps/Analysis.cpp</text>
</a>
</g>
</g>
<!-- Node29&#45;&gt;Node30 -->
<g id="edge31_Node000029_Node000030" class="edge">
<title>Node29&#45;&gt;Node30</title>
<g id="a_edge31_Node000029_Node000030"><a xlink:title=" ">
<path fill="none" stroke="#63b8ff" d="M668.89,-69.77C661.94,-68.6 654.95,-67.49 648.25,-66.5 511.46,-46.37 475.27,-55.32 339.25,-30.5 331.52,-29.09 323.29,-27.24 315.55,-25.34"/>
<polygon fill="#63b8ff" stroke="#63b8ff" points="668.16,-73.19 678.61,-71.43 669.34,-66.29 668.16,-73.19"/>
</a>
</g>
</g>
<!-- Node31 -->
<g id="Node000031" class="node">
<title>Node31</title>
<g id="a_Node000031"><a xlink:href="DragRace_8cpp.html" target="_top" xlink:title=" ">
<polygon fill="white" stroke="#666666" points="450.38,-24.88 348.12,-24.88 348.12,-5.63 450.38,-5.63 450.38,-24.88"/>
<text text-anchor="middle" x="399.25" y="-11.38" font-family="Helvetica,sans-Serif" font-size="10.00">Apps/DragRace.cpp</text>
</a>
</g>
</g>
<!-- Node29&#45;&gt;Node31 -->
<g id="edge32_Node000029_Node000031" class="edge">
<title>Node29&#45;&gt;Node31</title>
<g id="a_edge32_Node000029_Node000031"><a xlink:title=" ">
<path fill="none" stroke="#63b8ff" d="M666.64,-69.6C599.94,-57.46 497.91,-38.7 459.25,-30.5 451.81,-28.92 443.89,-27.13 436.31,-25.35"/>
<polygon fill="#63b8ff" stroke="#63b8ff" points="665.89,-73.02 676.35,-71.37 667.14,-66.13 665.89,-73.02"/>
</a>
</g>
</g>
<!-- Node32 -->
<g id="Node000032" class="node">
<title>Node32</title>
<g id="a_Node000032"><a xlink:href="OscProbCalcerComparison_8cpp.html" target="_top" xlink:title=" ">
<polygon fill="white" stroke="#666666" points="645.88,-24.88 468.62,-24.88 468.62,-5.63 645.88,-5.63 645.88,-24.88"/>
<text text-anchor="middle" x="557.25" y="-11.38" font-family="Helvetica,sans-Serif" font-size="10.00">Apps/OscProbCalcerComparison.cpp</text>
</a>
</g>
</g>
<!-- Node29&#45;&gt;Node32 -->
<g id="edge33_Node000029_Node000032" class="edge">
<title>Node29&#45;&gt;Node32</title>
<g id="a_edge33_Node000029_Node000032"><a xlink:title=" ">
<path fill="none" stroke="#63b8ff" d="M693.46,-67.63C660.06,-55.03 610.49,-36.33 581.26,-25.31"/>
<polygon fill="#63b8ff" stroke="#63b8ff" points="692.1,-70.86 702.7,-71.11 694.58,-64.31 692.1,-70.86"/>
</a>
</g>
</g>
<!-- Node33 -->
<g id="Node000033" class="node">
<title>Node33</title>
<g id="a_Node000033"><a xlink:href="SingleOscillator_8cpp.html" target="_top" xlink:title=" ">
<polygon fill="white" stroke="#666666" points="792.12,-24.88 664.38,-24.88 664.38,-5.63 792.12,-5.63 792.12,-24.88"/>
<text text-anchor="middle" x="728.25" y="-11.38" font-family="Helvetica,sans-Serif" font-size="10.00">Apps/SingleOscillator.cpp</text>
</a>
</g>
</g>
<!-- Node29&#45;&gt;Node33 -->
<g id="edge34_Node000029_Node000033" class="edge">
<title>Node29&#45;&gt;Node33</title>
<g id="a_edge34_Node000029_Node000033"><a xlink:title=" ">
<path fill="none" stroke="#63b8ff" d="M728.25,-60.27C728.25,-48.44 728.25,-34.16 728.25,-25.14"/>
<polygon fill="#63b8ff" stroke="#63b8ff" points="724.75,-60.27 728.25,-70.27 731.75,-60.27 724.75,-60.27"/>
</a>
</g>
</g>
<!-- Node34&#45;&gt;Node28 -->
<g id="edge37_Node000034_Node000028" class="edge">
<title>Node34&#45;&gt;Node28</title>
<g id="a_edge37_Node000034_Node000028"><a xlink:title=" ">
<path fill="none" stroke="#63b8ff" d="M880.27,-54.84C881.91,-44.26 883.69,-32.75 884.88,-25.07"/>
<polygon fill="#63b8ff" stroke="#63b8ff" points="876.82,-54.2 878.75,-64.62 883.74,-55.27 876.82,-54.2"/>
</a>
</g>
</g>
<!-- Node35 -->
<g id="Node000035" class="node">
<title>Node35</title>
<g id="a_Node000035"><a xlink:href="OscillatorSubSampling_8cpp.html" target="_top" xlink:title=" ">
<polygon fill="white" stroke="#666666" points="1098.62,-30.5 979.88,-30.5 979.88,0 1098.62,0 1098.62,-30.5"/>
<text text-anchor="start" x="987.88" y="-17" font-family="Helvetica,sans-Serif" font-size="10.00">Oscillator/OscillatorSub</text>
<text text-anchor="middle" x="1039.25" y="-5.75" font-family="Helvetica,sans-Serif" font-size="10.00">Sampling.cpp</text>
</a>
</g>
</g>
<!-- Node34&#45;&gt;Node35 -->
<g id="edge38_Node000034_Node000035" class="edge">
<title>Node34&#45;&gt;Node35</title>
<g id="a_edge38_Node000034_Node000035"><a xlink:title=" ">
<path fill="none" stroke="#63b8ff" d="M923.93,-61.88C948.87,-52.01 978.95,-40.11 1002.13,-30.94"/>
<polygon fill="#63b8ff" stroke="#63b8ff" points="922.66,-58.62 914.64,-65.56 925.23,-65.13 922.66,-58.62"/>
</a>
</g>
</g>
<!-- Node36&#45;&gt;Node28 -->
<g id="edge40_Node000036_Node000028" class="edge">
<title>Node36&#45;&gt;Node28</title>
<g id="a_edge40_Node000036_Node000028"><a xlink:title=" ">
<path fill="none" stroke="#63b8ff" d="M998.69,-66.96C970.79,-54.38 930.35,-36.14 906.33,-25.31"/>
<polygon fill="#63b8ff" stroke="#63b8ff" points="997.13,-70.1 1007.69,-71.02 1000.01,-63.72 997.13,-70.1"/>
</a>
</g>
</g>
<!-- Node37 -->
<g id="Node000037" class="node">
<title>Node37</title>
<g id="a_Node000037"><a xlink:href="OscillatorUnbinned_8cpp.html" target="_top" xlink:title=" ">
<polygon fill="white" stroke="#666666" points="1277.62,-24.88 1116.88,-24.88 1116.88,-5.63 1277.62,-5.63 1277.62,-24.88"/>
<text text-anchor="middle" x="1197.25" y="-11.38" font-family="Helvetica,sans-Serif" font-size="10.00">Oscillator/OscillatorUnbinned.cpp</text>
</a>
</g>
</g>
<!-- Node36&#45;&gt;Node37 -->
<g id="edge41_Node000036_Node000037" class="edge">
<title>Node36&#45;&gt;Node37</title>
<g id="a_edge41_Node000036_Node000037"><a xlink:title=" ">
<path fill="none" stroke="#63b8ff" d="M1063.43,-67.63C1096.25,-55.03 1144.95,-36.33 1173.66,-25.31"/>
<polygon fill="#63b8ff" stroke="#63b8ff" points="1062.46,-64.25 1054.38,-71.1 1064.97,-70.79 1062.46,-64.25"/>
</a>
</g>
</g>
</g>
</svg>
