<?xml version="1.0" encoding="UTF-8" standalone="no"?>
<!DOCTYPE svg PUBLIC "-//W3C//DTD SVG 1.1//EN"
 "http://www.w3.org/Graphics/SVG/1.1/DTD/svg11.dtd">
<!-- Generated by graphviz version 9.0.0 (20230911.1827)
 -->
<!-- Title: OscProbCalcer/OscProbCalcerBase.h Pages: 1 -->
<!--zoomable 238 -->

<svg id="main" version="1.1" xmlns="http://www.w3.org/2000/svg" xmlns:xlink="http://www.w3.org/1999/xlink" xml:space="preserve" onload="init(evt)">
<style type="text/css"><![CDATA[
.node, .edge {opacity: 0.7;}
.node.selected, .edge.selected {opacity: 1;}
.edge:hover path { stroke: red; }
.edge:hover polygon { stroke: red; fill: red; }
]]></style>

<defs>
  <circle id="rim" cx="0" cy="0" r="7"/>
  <circle id="rim2" cx="0" cy="0" r="3.5"/>
  <g id="zoomPlus">
    <use xlink:href="#rim" fill="#404040"><set attributeName="fill" to="#808080" begin="zoomplus.mouseover" end="zoomplus.mouseout"/></use>
    <path d="M-4,0h8M0,-4v8" fill="none" stroke="white" stroke-width="1.5" pointer-events="none"/>
  </g>
  <g id="zoomMin">
    <use xlink:href="#rim" fill="#404040"><set attributeName="fill" to="#808080" begin="zoomminus.mouseover" end="zoomminus.mouseout"/></use>
    <path d="M-4,0h8" fill="none" stroke="white" stroke-width="1.5" pointer-events="none"/>
  </g>
  <g id="arrowUp" transform="translate(30 24)">
    <use xlink:href="#rim"/>
    <path pointer-events="none" fill="none" stroke="white" stroke-width="1.5" d="M0,-3.0v7 M-2.5,-0.5L0,-3.0L2.5,-0.5"/>
  </g>
  <g id="arrowRight" transform="rotate(90) translate(36 -43)">
    <use xlink:href="#rim"/>
    <path pointer-events="none" fill="none" stroke="white" stroke-width="1.5" d="M0,-3.0v7 M-2.5,-0.5L0,-3.0L2.5,-0.5"/>
  </g>
  <g id="arrowDown" transform="rotate(180) translate(-30 -48)">
    <use xlink:href="#rim"/>
    <path pointer-events="none" fill="none" stroke="white" stroke-width="1.5" d="M0,-3.0v7 M-2.5,-0.5L0,-3.0L2.5,-0.5"/>
  </g>
  <g id="arrowLeft" transform="rotate(270) translate(-36 17)">
    <use xlink:href="#rim"/>
    <path pointer-events="none" fill="none" stroke="white" stroke-width="1.5" d="M0,-3.0v7 M-2.5,-0.5L0,-3.0L2.5,-0.5"/>
  </g>
  <g id="resetDef">
    <use xlink:href="#rim2" fill="#404040"><set attributeName="fill" to="#808080" begin="reset.mouseover" end="reset.mouseout"/></use>
  </g>
</defs>
<script type="application/ecmascript">
var viewWidth = 2971;
var viewHeight = 238;
var sectionId = 'dynsection-1';
</script>
<script type="application/ecmascript" xlink:href="svg.min.js"/>
<svg id="graph" class="graph">
<g id="viewport">
<title>OscProbCalcer/OscProbCalcerBase.h</title>
<!-- Node1 -->
<g id="Node000001" class="node">
<title>Node1</title>
<g id="a_Node000001"><a xlink:title=" ">
<polygon fill="#999999" stroke="#666666" points="1779.75,-230 1628.75,-230 1628.75,-199.5 1779.75,-199.5 1779.75,-230"/>
<text text-anchor="start" x="1636.75" y="-216.5" font-family="Helvetica,sans-Serif" font-size="10.00">OscProbCalcer/OscProbCalcer</text>
<text text-anchor="middle" x="1704.25" y="-205.25" font-family="Helvetica,sans-Serif" font-size="10.00">Base.h</text>
</a>
</g>
</g>
<!-- Node2 -->
<g id="Node000002" class="node">
<title>Node2</title>
<g id="a_Node000002"><a xlink:href="SingleOscProbCalcer_8cpp.html" target="_top" xlink:title=" ">
<polygon fill="white" stroke="#666666" points="152.5,-91.38 0,-91.38 0,-72.12 152.5,-72.12 152.5,-91.38"/>
<text text-anchor="middle" x="76.25" y="-77.88" font-family="Helvetica,sans-Serif" font-size="10.00">Apps/SingleOscProbCalcer.cpp</text>
</a>
</g>
</g>
<!-- Node1&#45;&gt;Node2 -->
<g id="edge1_Node000001_Node000002" class="edge">
<title>Node1&#45;&gt;Node2</title>
<g id="a_edge1_Node000001_Node000002"><a xlink:title=" ">
<path fill="none" stroke="#63b8ff" d="M1617.14,-212.54C1326.27,-208.23 399.43,-192.36 268.25,-163.5 199.38,-148.35 124.03,-109.43 92.03,-91.74"/>
<polygon fill="#63b8ff" stroke="#63b8ff" points="1616.89,-216.03 1626.94,-212.68 1616.99,-209.03 1616.89,-216.03"/>
</a>
</g>
</g>
<!-- Node3 -->
<g id="Node000003" class="node">
<title>Node3</title>
<g id="a_Node000003"><a xlink:href="OscProbCalcerBase_8cpp.html" target="_top" xlink:title=" ">
<polygon fill="white" stroke="#666666" points="1103.75,-163.5 952.75,-163.5 952.75,-133 1103.75,-133 1103.75,-163.5"/>
<text text-anchor="start" x="960.75" y="-150" font-family="Helvetica,sans-Serif" font-size="10.00">OscProbCalcer/OscProbCalcer</text>
<text text-anchor="middle" x="1028.25" y="-138.75" font-family="Helvetica,sans-Serif" font-size="10.00">Base.cpp</text>
</a>
</g>
</g>
<!-- Node1&#45;&gt;Node3 -->
<g id="edge2_Node000001_Node000003" class="edge">
<title>Node1&#45;&gt;Node3</title>
<g id="a_edge2_Node000001_Node000003"><a xlink:title=" ">
<path fill="none" stroke="#63b8ff" d="M1617.11,-208.63C1501.45,-201.32 1290.99,-186.21 1112.25,-163.5 1109.61,-163.16 1106.92,-162.81 1104.21,-162.43"/>
<polygon fill="#63b8ff" stroke="#63b8ff" points="1616.63,-212.11 1626.83,-209.24 1617.07,-205.12 1616.63,-212.11"/>
</a>
</g>
</g>
<!-- Node4 -->
<g id="Node000004" class="node">
<title>Node4</title>
<g id="a_Node000004"><a xlink:href="OscProbCalcerFactory_8h.html" target="_top" xlink:title=" ">
<polygon fill="white" stroke="#666666" points="428.75,-163.5 277.75,-163.5 277.75,-133 428.75,-133 428.75,-163.5"/>
<text text-anchor="start" x="285.75" y="-150" font-family="Helvetica,sans-Serif" font-size="10.00">OscProbCalcer/OscProbCalcer</text>
<text text-anchor="middle" x="353.25" y="-138.75" font-family="Helvetica,sans-Serif" font-size="10.00">Factory.h</text>
</a>
</g>
</g>
<!-- Node1&#45;&gt;Node4 -->
<g id="edge3_Node000001_Node000004" class="edge">
<title>Node1&#45;&gt;Node4</title>
<g id="a_edge3_Node000001_Node000004"><a xlink:title=" ">
<path fill="none" stroke="#63b8ff" d="M1617.27,-209.6C1369.43,-197.77 662.51,-164.01 429.08,-152.87"/>
<polygon fill="#63b8ff" stroke="#63b8ff" points="1617.05,-213.09 1627.21,-210.07 1617.39,-206.1 1617.05,-213.09"/>
</a>
</g>
</g>
<!-- Node7 -->
<g id="Node000007" class="node">
<title>Node7</title>
<g id="a_Node000007"><a xlink:href="OscProbCalcer__CHICLinear_8h.html" target="_top" xlink:title=" ">
<polygon fill="white" stroke="#666666" points="1272.75,-163.5 1121.75,-163.5 1121.75,-133 1272.75,-133 1272.75,-163.5"/>
<text text-anchor="start" x="1129.75" y="-150" font-family="Helvetica,sans-Serif" font-size="10.00">OscProbCalcer/OscProbCalcer</text>
<text text-anchor="middle" x="1197.25" y="-138.75" font-family="Helvetica,sans-Serif" font-size="10.00">_CHICLinear.h</text>
</a>
</g>
</g>
<!-- Node1&#45;&gt;Node7 -->
<g id="edge7_Node000001_Node000007" class="edge">
<title>Node1&#45;&gt;Node7</title>
<g id="a_edge7_Node000001_Node000007"><a xlink:title=" ">
<path fill="none" stroke="#63b8ff" d="M1617.22,-204.69C1531.58,-195.48 1397.19,-180.21 1281.25,-163.5 1278.61,-163.12 1275.93,-162.72 1273.23,-162.31"/>
<polygon fill="#63b8ff" stroke="#63b8ff" points="1616.63,-208.15 1626.95,-205.74 1617.38,-201.19 1616.63,-208.15"/>
</a>
</g>
</g>
<!-- Node9 -->
<g id="Node000009" class="node">
<title>Node9</title>
<g id="a_Node000009"><a xlink:href="OscProbCalcer__CUDAProb3_8h.html" target="_top" xlink:title=" ">
<polygon fill="white" stroke="#666666" points="1441.75,-163.5 1290.75,-163.5 1290.75,-133 1441.75,-133 1441.75,-163.5"/>
<text text-anchor="start" x="1298.75" y="-150" font-family="Helvetica,sans-Serif" font-size="10.00">OscProbCalcer/OscProbCalcer</text>
<text text-anchor="middle" x="1366.25" y="-138.75" font-family="Helvetica,sans-Serif" font-size="10.00">_CUDAProb3.h</text>
</a>
</g>
</g>
<!-- Node1&#45;&gt;Node9 -->
<g id="edge9_Node000001_Node000009" class="edge">
<title>Node1&#45;&gt;Node9</title>
<g id="a_edge9_Node000001_Node000009"><a xlink:title=" ">
<path fill="none" stroke="#63b8ff" d="M1617.42,-197.18C1563.23,-186.84 1494.14,-173.65 1442.14,-163.73"/>
<polygon fill="#63b8ff" stroke="#63b8ff" points="1616.43,-200.55 1626.91,-198.99 1617.74,-193.68 1616.43,-200.55"/>
</a>
</g>
</g>
<!-- Node11 -->
<g id="Node000011" class="node">
<title>Node11</title>
<g id="a_Node000011"><a xlink:href="OscProbCalcer__CUDAProb3Linear_8h.html" target="_top" xlink:title=" ">
<polygon fill="white" stroke="#666666" points="1610.75,-163.5 1459.75,-163.5 1459.75,-133 1610.75,-133 1610.75,-163.5"/>
<text text-anchor="start" x="1467.75" y="-150" font-family="Helvetica,sans-Serif" font-size="10.00">OscProbCalcer/OscProbCalcer</text>
<text text-anchor="middle" x="1535.25" y="-138.75" font-family="Helvetica,sans-Serif" font-size="10.00">_CUDAProb3Linear.h</text>
</a>
</g>
</g>
<!-- Node1&#45;&gt;Node11 -->
<g id="edge11_Node000001_Node000011" class="edge">
<title>Node1&#45;&gt;Node11</title>
<g id="a_edge11_Node000001_Node000011"><a xlink:title=" ">
<path fill="none" stroke="#63b8ff" d="M1655.16,-195.01C1629.24,-185.12 1597.88,-173.15 1573.74,-163.94"/>
<polygon fill="#63b8ff" stroke="#63b8ff" points="1653.9,-198.28 1664.49,-198.57 1656.39,-191.74 1653.9,-198.28"/>
</a>
</g>
</g>
<!-- Node13 -->
<g id="Node000013" class="node">
<title>Node13</title>
<g id="a_Node000013"><a xlink:href="OscProbCalcer__GLoBESLinear_8h.html" target="_top" xlink:title=" ">
<polygon fill="white" stroke="#666666" points="1779.75,-163.5 1628.75,-163.5 1628.75,-133 1779.75,-133 1779.75,-163.5"/>
<text text-anchor="start" x="1636.75" y="-150" font-family="Helvetica,sans-Serif" font-size="10.00">OscProbCalcer/OscProbCalcer</text>
<text text-anchor="middle" x="1704.25" y="-138.75" font-family="Helvetica,sans-Serif" font-size="10.00">_GLoBESLinear.h</text>
</a>
</g>
</g>
<!-- Node1&#45;&gt;Node13 -->
<g id="edge13_Node000001_Node000013" class="edge">
<title>Node1&#45;&gt;Node13</title>
<g id="a_edge13_Node000001_Node000013"><a xlink:title=" ">
<path fill="none" stroke="#63b8ff" d="M1704.25,-187.81C1704.25,-179.64 1704.25,-170.91 1704.25,-163.83"/>
<polygon fill="#63b8ff" stroke="#63b8ff" points="1700.75,-187.6 1704.25,-197.6 1707.75,-187.6 1700.75,-187.6"/>
</a>
</g>
</g>
<!-- Node15 -->
<g id="Node000015" class="node">
<title>Node15</title>
<g id="a_Node000015"><a xlink:href="OscProbCalcer__NuFASTEarth_8h.html" target="_top" xlink:title=" ">
<polygon fill="white" stroke="#666666" points="1948.75,-163.5 1797.75,-163.5 1797.75,-133 1948.75,-133 1948.75,-163.5"/>
<text text-anchor="start" x="1805.75" y="-150" font-family="Helvetica,sans-Serif" font-size="10.00">OscProbCalcer/OscProbCalcer</text>
<text text-anchor="middle" x="1873.25" y="-138.75" font-family="Helvetica,sans-Serif" font-size="10.00">_NuFASTEarth.h</text>
</a>
</g>
</g>
<!-- Node1&#45;&gt;Node15 -->
<g id="edge15_Node000001_Node000015" class="edge">
<title>Node1&#45;&gt;Node15</title>
<g id="a_edge15_Node000001_Node000015"><a xlink:title=" ">
<path fill="none" stroke="#63b8ff" d="M1753.34,-195.01C1779.26,-185.12 1810.62,-173.15 1834.76,-163.94"/>
<polygon fill="#63b8ff" stroke="#63b8ff" points="1752.11,-191.74 1744.01,-198.57 1754.6,-198.28 1752.11,-191.74"/>
</a>
</g>
</g>
<!-- Node17 -->
<g id="Node000017" class="node">
<title>Node17</title>
<g id="a_Node000017"><a xlink:href="OscProbCalcer__NuFASTLinear_8h.html" target="_top" xlink:title=" ">
<polygon fill="white" stroke="#666666" points="2117.75,-163.5 1966.75,-163.5 1966.75,-133 2117.75,-133 2117.75,-163.5"/>
<text text-anchor="start" x="1974.75" y="-150" font-family="Helvetica,sans-Serif" font-size="10.00">OscProbCalcer/OscProbCalcer</text>
<text text-anchor="middle" x="2042.25" y="-138.75" font-family="Helvetica,sans-Serif" font-size="10.00">_NuFASTLinear.h</text>
</a>
</g>
</g>
<!-- Node1&#45;&gt;Node17 -->
<g id="edge17_Node000001_Node000017" class="edge">
<title>Node1&#45;&gt;Node17</title>
<g id="a_edge17_Node000001_Node000017"><a xlink:title=" ">
<path fill="none" stroke="#63b8ff" d="M1791.08,-197.18C1845.27,-186.84 1914.36,-173.65 1966.36,-163.73"/>
<polygon fill="#63b8ff" stroke="#63b8ff" points="1790.76,-193.68 1781.59,-198.99 1792.07,-200.55 1790.76,-193.68"/>
</a>
</g>
</g>
<!-- Node19 -->
<g id="Node000019" class="node">
<title>Node19</title>
<g id="a_Node000019"><a xlink:href="OscProbCalcer__NuSQUIDSLinear_8h.html" target="_top" xlink:title=" ">
<polygon fill="white" stroke="#666666" points="2286.75,-163.5 2135.75,-163.5 2135.75,-133 2286.75,-133 2286.75,-163.5"/>
<text text-anchor="start" x="2143.75" y="-150" font-family="Helvetica,sans-Serif" font-size="10.00">OscProbCalcer/OscProbCalcer</text>
<text text-anchor="middle" x="2211.25" y="-138.75" font-family="Helvetica,sans-Serif" font-size="10.00">_NuSQUIDSLinear.h</text>
</a>
</g>
</g>
<!-- Node1&#45;&gt;Node19 -->
<g id="edge19_Node000001_Node000019" class="edge">
<title>Node1&#45;&gt;Node19</title>
<g id="a_edge19_Node000001_Node000019"><a xlink:title=" ">
<path fill="none" stroke="#63b8ff" d="M1791.45,-204.59C1876.9,-195.33 2010.74,-180.05 2126.25,-163.5 2129.21,-163.08 2132.23,-162.63 2135.28,-162.17"/>
<polygon fill="#63b8ff" stroke="#63b8ff" points="1791.31,-201.09 1781.75,-205.64 1792.07,-208.05 1791.31,-201.09"/>
</a>
</g>
</g>
<!-- Node21 -->
<g id="Node000021" class="node">
<title>Node21</title>
<g id="a_Node000021"><a xlink:href="OscProbCalcer__OscLibLinear_8h.html" target="_top" xlink:title=" ">
<polygon fill="white" stroke="#666666" points="2455.75,-163.5 2304.75,-163.5 2304.75,-133 2455.75,-133 2455.75,-163.5"/>
<text text-anchor="start" x="2312.75" y="-150" font-family="Helvetica,sans-Serif" font-size="10.00">OscProbCalcer/OscProbCalcer</text>
<text text-anchor="middle" x="2380.25" y="-138.75" font-family="Helvetica,sans-Serif" font-size="10.00">_OscLibLinear.h</text>
</a>
</g>
</g>
<!-- Node1&#45;&gt;Node21 -->
<g id="edge21_Node000001_Node000021" class="edge">
<title>Node1&#45;&gt;Node21</title>
<g id="a_edge21_Node000001_Node000021"><a xlink:title=" ">
<path fill="none" stroke="#63b8ff" d="M1791.24,-208.57C1906.7,-201.2 2116.79,-186.01 2295.25,-163.5 2298.22,-163.13 2301.24,-162.72 2304.3,-162.3"/>
<polygon fill="#63b8ff" stroke="#63b8ff" points="1791.29,-205.06 1781.53,-209.19 1791.74,-212.05 1791.29,-205.06"/>
</a>
</g>
</g>
<!-- Node23 -->
<g id="Node000023" class="node">
<title>Node23</title>
<g id="a_Node000023"><a xlink:href="OscProbCalcer__OscProb_8h.html" target="_top" xlink:title=" ">
<polygon fill="white" stroke="#666666" points="2624.75,-163.5 2473.75,-163.5 2473.75,-133 2624.75,-133 2624.75,-163.5"/>
<text text-anchor="start" x="2481.75" y="-150" font-family="Helvetica,sans-Serif" font-size="10.00">OscProbCalcer/OscProbCalcer</text>
<text text-anchor="middle" x="2549.25" y="-138.75" font-family="Helvetica,sans-Serif" font-size="10.00">_OscProb.h</text>
</a>
</g>
</g>
<!-- Node1&#45;&gt;Node23 -->
<g id="edge23_Node000001_Node000023" class="edge">
<title>Node1&#45;&gt;Node23</title>
<g id="a_edge23_Node000001_Node000023"><a xlink:title=" ">
<path fill="none" stroke="#63b8ff" d="M1791.15,-210.83C1932.6,-205.45 2221.28,-191.83 2464.25,-163.5 2467.22,-163.15 2470.25,-162.77 2473.3,-162.37"/>
<polygon fill="#63b8ff" stroke="#63b8ff" points="1791.36,-207.32 1781.5,-211.2 1791.62,-214.32 1791.36,-207.32"/>
</a>
</g>
</g>
<!-- Node25 -->
<g id="Node000025" class="node">
<title>Node25</title>
<g id="a_Node000025"><a xlink:href="OscProbCalcer__Prob3ppLinear_8h.html" target="_top" xlink:title=" ">
<polygon fill="white" stroke="#666666" points="2793.75,-163.5 2642.75,-163.5 2642.75,-133 2793.75,-133 2793.75,-163.5"/>
<text text-anchor="start" x="2650.75" y="-150" font-family="Helvetica,sans-Serif" font-size="10.00">OscProbCalcer/OscProbCalcer</text>
<text text-anchor="middle" x="2718.25" y="-138.75" font-family="Helvetica,sans-Serif" font-size="10.00">_Prob3ppLinear.h</text>
</a>
</g>
</g>
<!-- Node1&#45;&gt;Node25 -->
<g id="edge25_Node000001_Node000025" class="edge">
<title>Node1&#45;&gt;Node25</title>
<g id="a_edge25_Node000001_Node000025"><a xlink:title=" ">
<path fill="none" stroke="#63b8ff" d="M1791.07,-212.3C1955.77,-208.82 2324.67,-197.6 2633.25,-163.5 2636.22,-163.17 2639.25,-162.81 2642.31,-162.41"/>
<polygon fill="#63b8ff" stroke="#63b8ff" points="1791.49,-208.79 1781.56,-212.49 1791.63,-215.79 1791.49,-208.79"/>
</a>
</g>
</g>
<!-- Node27 -->
<g id="Node000027" class="node">
<title>Node27</title>
<g id="a_Node000027"><a xlink:href="OscProbCalcer__ProbGPULinear_8h.html" target="_top" xlink:title=" ">
<polygon fill="white" stroke="#666666" points="2962.75,-163.5 2811.75,-163.5 2811.75,-133 2962.75,-133 2962.75,-163.5"/>
<text text-anchor="start" x="2819.75" y="-150" font-family="Helvetica,sans-Serif" font-size="10.00">OscProbCalcer/OscProbCalcer</text>
<text text-anchor="middle" x="2887.25" y="-138.75" font-family="Helvetica,sans-Serif" font-size="10.00">_ProbGPULinear.h</text>
</a>
</g>
</g>
<!-- Node1&#45;&gt;Node27 -->
<g id="edge27_Node000001_Node000027" class="edge">
<title>Node1&#45;&gt;Node27</title>
<g id="a_edge27_Node000001_Node000027"><a xlink:title=" ">
<path fill="none" stroke="#63b8ff" d="M1791.46,-213.38C1977.77,-211.8 2428.2,-203.73 2803.25,-163.5 2805.9,-163.22 2808.59,-162.9 2811.3,-162.56"/>
<polygon fill="#63b8ff" stroke="#63b8ff" points="1791.59,-209.88 1781.62,-213.46 1791.65,-216.88 1791.59,-209.88"/>
</a>
</g>
</g>
<!-- Node29 -->
<g id="Node000029" class="node">
<title>Node29</title>
<g id="a_Node000029"><a xlink:href="OscillatorBase_8h.html" target="_top" xlink:title=" ">
<polygon fill="white" stroke="#666666" points="856,-157.88 724.5,-157.88 724.5,-138.62 856,-138.62 856,-157.88"/>
<text text-anchor="middle" x="790.25" y="-144.38" font-family="Helvetica,sans-Serif" font-size="10.00">Oscillator/OscillatorBase.h</text>
</a>
</g>
</g>
<!-- Node1&#45;&gt;Node29 -->
<g id="edge29_Node000001_Node000029" class="edge">
<title>Node1&#45;&gt;Node29</title>
<g id="a_edge29_Node000001_Node000029"><a xlink:title=" ">
<path fill="none" stroke="#63b8ff" d="M1617.16,-208.76C1475.7,-200.49 1187.26,-182.92 943.25,-163.5 914.8,-161.24 883.4,-158.37 856.49,-155.81"/>
<polygon fill="#63b8ff" stroke="#63b8ff" points="1616.62,-212.24 1626.81,-209.33 1617.03,-205.25 1616.62,-212.24"/>
</a>
</g>
</g>
<!-- Node4&#45;&gt;Node2 -->
<g id="edge4_Node000004_Node000002" class="edge">
<title>Node4&#45;&gt;Node2</title>
<g id="a_edge4_Node000004_Node000002"><a xlink:title=" ">
<path fill="none" stroke="#63b8ff" d="M279.05,-129.97C226.33,-117.7 157.62,-101.7 115.25,-91.83"/>
<polygon fill="#63b8ff" stroke="#63b8ff" points="278.04,-133.33 288.57,-132.19 279.63,-126.51 278.04,-133.33"/>
</a>
</g>
</g>
<!-- Node5 -->
<g id="Node000005" class="node">
<title>Node5</title>
<g id="a_Node000005"><a xlink:href="OscProbCalcerFactory_8cpp.html" target="_top" xlink:title=" ">
<polygon fill="white" stroke="#666666" points="321.75,-97 170.75,-97 170.75,-66.5 321.75,-66.5 321.75,-97"/>
<text text-anchor="start" x="178.75" y="-83.5" font-family="Helvetica,sans-Serif" font-size="10.00">OscProbCalcer/OscProbCalcer</text>
<text text-anchor="middle" x="246.25" y="-72.25" font-family="Helvetica,sans-Serif" font-size="10.00">Factory.cpp</text>
</a>
</g>
</g>
<!-- Node4&#45;&gt;Node5 -->
<g id="edge5_Node000004_Node000005" class="edge">
<title>Node4&#45;&gt;Node5</title>
<g id="a_edge5_Node000004_Node000005"><a xlink:title=" ">
<path fill="none" stroke="#63b8ff" d="M319.47,-126.89C303.55,-117.29 284.92,-106.06 270.43,-97.33"/>
<polygon fill="#63b8ff" stroke="#63b8ff" points="317.3,-129.67 327.67,-131.83 320.92,-123.67 317.3,-129.67"/>
</a>
</g>
</g>
<!-- Node6 -->
<g id="Node000006" class="node">
<title>Node6</title>
<g id="a_Node000006"><a xlink:href="OscillatorBase_8cpp.html" target="_top" xlink:title=" ">
<polygon fill="white" stroke="#666666" points="482.25,-91.38 340.25,-91.38 340.25,-72.12 482.25,-72.12 482.25,-91.38"/>
<text text-anchor="middle" x="411.25" y="-77.88" font-family="Helvetica,sans-Serif" font-size="10.00">Oscillator/OscillatorBase.cpp</text>
</a>
</g>
</g>
<!-- Node4&#45;&gt;Node6 -->
<g id="edge6_Node000004_Node000006" class="edge">
<title>Node4&#45;&gt;Node6</title>
<g id="a_edge6_Node000004_Node000006"><a xlink:title=" ">
<path fill="none" stroke="#63b8ff" d="M373.82,-124.37C384.02,-113.03 395.75,-99.99 403.32,-91.57"/>
<polygon fill="#63b8ff" stroke="#63b8ff" points="371.51,-121.71 367.42,-131.49 376.71,-126.39 371.51,-121.71"/>
</a>
</g>
</g>
<!-- Node8 -->
<g id="Node000008" class="node">
<title>Node8</title>
<g id="a_Node000008"><a xlink:href="OscProbCalcer__CHICLinear_8cpp.html" target="_top" xlink:title=" ">
<polygon fill="white" stroke="#666666" points="1272.75,-97 1121.75,-97 1121.75,-66.5 1272.75,-66.5 1272.75,-97"/>
<text text-anchor="start" x="1129.75" y="-83.5" font-family="Helvetica,sans-Serif" font-size="10.00">OscProbCalcer/OscProbCalcer</text>
<text text-anchor="middle" x="1197.25" y="-72.25" font-family="Helvetica,sans-Serif" font-size="10.00">_CHICLinear.cpp</text>
</a>
</g>
</g>
<!-- Node7&#45;&gt;Node8 -->
<g id="edge8_Node000007_Node000008" class="edge">
<title>Node7&#45;&gt;Node8</title>
<g id="a_edge8_Node000007_Node000008"><a xlink:title=" ">
<path fill="none" stroke="#63b8ff" d="M1197.25,-121.31C1197.25,-113.14 1197.25,-104.41 1197.25,-97.33"/>
<polygon fill="#63b8ff" stroke="#63b8ff" points="1193.75,-121.1 1197.25,-131.1 1200.75,-121.1 1193.75,-121.1"/>
</a>
</g>
</g>
<!-- Node10 -->
<g id="Node000010" class="node">
<title>Node10</title>
<g id="a_Node000010"><a xlink:href="OscProbCalcer__CUDAProb3_8cpp.html" target="_top" xlink:title=" ">
<polygon fill="white" stroke="#666666" points="1441.75,-97 1290.75,-97 1290.75,-66.5 1441.75,-66.5 1441.75,-97"/>
<text text-anchor="start" x="1298.75" y="-83.5" font-family="Helvetica,sans-Serif" font-size="10.00">OscProbCalcer/OscProbCalcer</text>
<text text-anchor="middle" x="1366.25" y="-72.25" font-family="Helvetica,sans-Serif" font-size="10.00">_CUDAProb3.cpp</text>
</a>
</g>
</g>
<!-- Node9&#45;&gt;Node10 -->
<g id="edge10_Node000009_Node000010" class="edge">
<title>Node9&#45;&gt;Node10</title>
<g id="a_edge10_Node000009_Node000010"><a xlink:title=" ">
<path fill="none" stroke="#63b8ff" d="M1366.25,-121.31C1366.25,-113.14 1366.25,-104.41 1366.25,-97.33"/>
<polygon fill="#63b8ff" stroke="#63b8ff" points="1362.75,-121.1 1366.25,-131.1 1369.75,-121.1 1362.75,-121.1"/>
</a>
</g>
</g>
<!-- Node12 -->
<g id="Node000012" class="node">
<title>Node12</title>
<g id="a_Node000012"><a xlink:href="OscProbCalcer__CUDAProb3Linear_8cpp.html" target="_top" xlink:title=" ">
<polygon fill="white" stroke="#666666" points="1610.75,-97 1459.75,-97 1459.75,-66.5 1610.75,-66.5 1610.75,-97"/>
<text text-anchor="start" x="1467.75" y="-83.5" font-family="Helvetica,sans-Serif" font-size="10.00">OscProbCalcer/OscProbCalcer</text>
<text text-anchor="middle" x="1535.25" y="-72.25" font-family="Helvetica,sans-Serif" font-size="10.00">_CUDAProb3Linear.cpp</text>
</a>
</g>
</g>
<!-- Node11&#45;&gt;Node12 -->
<g id="edge12_Node000011_Node000012" class="edge">
<title>Node11&#45;&gt;Node12</title>
<g id="a_edge12_Node000011_Node000012"><a xlink:title=" ">
<path fill="none" stroke="#63b8ff" d="M1535.25,-121.31C1535.25,-113.14 1535.25,-104.41 1535.25,-97.33"/>
<polygon fill="#63b8ff" stroke="#63b8ff" points="1531.75,-121.1 1535.25,-131.1 1538.75,-121.1 1531.75,-121.1"/>
</a>
</g>
</g>
<!-- Node14 -->
<g id="Node000014" class="node">
<title>Node14</title>
<g id="a_Node000014"><a xlink:href="OscProbCalcer__GLoBESLinear_8cpp.html" target="_top" xlink:title=" ">
<polygon fill="white" stroke="#666666" points="1779.75,-97 1628.75,-97 1628.75,-66.5 1779.75,-66.5 1779.75,-97"/>
<text text-anchor="start" x="1636.75" y="-83.5" font-family="Helvetica,sans-Serif" font-size="10.00">OscProbCalcer/OscProbCalcer</text>
<text text-anchor="middle" x="1704.25" y="-72.25" font-family="Helvetica,sans-Serif" font-size="10.00">_GLoBESLinear.cpp</text>
</a>
</g>
</g>
<!-- Node13&#45;&gt;Node14 -->
<g id="edge14_Node000013_Node000014" class="edge">
<title>Node13&#45;&gt;Node14</title>
<g id="a_edge14_Node000013_Node000014"><a xlink:title=" ">
<path fill="none" stroke="#63b8ff" d="M1704.25,-121.31C1704.25,-113.14 1704.25,-104.41 1704.25,-97.33"/>
<polygon fill="#63b8ff" stroke="#63b8ff" points="1700.75,-121.1 1704.25,-131.1 1707.75,-121.1 1700.75,-121.1"/>
</a>
</g>
</g>
<!-- Node16 -->
<g id="Node000016" class="node">
<title>Node16</title>
<g id="a_Node000016"><a xlink:href="OscProbCalcer__NuFASTEarth_8cpp.html" target="_top" xlink:title=" ">
<polygon fill="white" stroke="#666666" points="1948.75,-97 1797.75,-97 1797.75,-66.5 1948.75,-66.5 1948.75,-97"/>
<text text-anchor="start" x="1805.75" y="-83.5" font-family="Helvetica,sans-Serif" font-size="10.00">OscProbCalcer/OscProbCalcer</text>
<text text-anchor="middle" x="1873.25" y="-72.25" font-family="Helvetica,sans-Serif" font-size="10.00">_NuFASTEarth.cpp</text>
</a>
</g>
</g>
<!-- Node15&#45;&gt;Node16 -->
<g id="edge16_Node000015_Node000016" class="edge">
<title>Node15&#45;&gt;Node16</title>
<g id="a_edge16_Node000015_Node000016"><a xlink:title=" ">
<path fill="none" stroke="#63b8ff" d="M1873.25,-121.31C1873.25,-113.14 1873.25,-104.41 1873.25,-97.33"/>
<polygon fill="#63b8ff" stroke="#63b8ff" points="1869.75,-121.1 1873.25,-131.1 1876.75,-121.1 1869.75,-121.1"/>
</a>
</g>
</g>
<!-- Node18 -->
<g id="Node000018" class="node">
<title>Node18</title>
<g id="a_Node000018"><a xlink:href="OscProbCalcer__NuFASTLinear_8cpp.html" target="_top" xlink:title=" ">
<polygon fill="white" stroke="#666666" points="2117.75,-97 1966.75,-97 1966.75,-66.5 2117.75,-66.5 2117.75,-97"/>
<text text-anchor="start" x="1974.75" y="-83.5" font-family="Helvetica,sans-Serif" font-size="10.00">OscProbCalcer/OscProbCalcer</text>
<text text-anchor="middle" x="2042.25" y="-72.25" font-family="Helvetica,sans-Serif" font-size="10.00">_NuFASTLinear.cpp</text>
</a>
</g>
</g>
<!-- Node17&#45;&gt;Node18 -->
<g id="edge18_Node000017_Node000018" class="edge">
<title>Node17&#45;&gt;Node18</title>
<g id="a_edge18_Node000017_Node000018"><a xlink:title=" ">
<path fill="none" stroke="#63b8ff" d="M2042.25,-121.31C2042.25,-113.14 2042.25,-104.41 2042.25,-97.33"/>
<polygon fill="#63b8ff" stroke="#63b8ff" points="2038.75,-121.1 2042.25,-131.1 2045.75,-121.1 2038.75,-121.1"/>
</a>
</g>
</g>
<!-- Node20 -->
<g id="Node000020" class="node">
<title>Node20</title>
<g id="a_Node000020"><a xlink:href="OscProbCalcer__NuSQUIDSLinear_8cpp.html" target="_top" xlink:title=" ">
<polygon fill="white" stroke="#666666" points="2286.75,-97 2135.75,-97 2135.75,-66.5 2286.75,-66.5 2286.75,-97"/>
<text text-anchor="start" x="2143.75" y="-83.5" font-family="Helvetica,sans-Serif" font-size="10.00">OscProbCalcer/OscProbCalcer</text>
<text text-anchor="middle" x="2211.25" y="-72.25" font-family="Helvetica,sans-Serif" font-size="10.00">_NuSQUIDSLinear.cpp</text>
</a>
</g>
</g>
<!-- Node19&#45;&gt;Node20 -->
<g id="edge20_Node000019_Node000020" class="edge">
<title>Node19&#45;&gt;Node20</title>
<g id="a_edge20_Node000019_Node000020"><a xlink:title=" ">
<path fill="none" stroke="#63b8ff" d="M2211.25,-121.31C2211.25,-113.14 2211.25,-104.41 2211.25,-97.33"/>
<polygon fill="#63b8ff" stroke="#63b8ff" points="2207.75,-121.1 2211.25,-131.1 2214.75,-121.1 2207.75,-121.1"/>
</a>
</g>
</g>
<!-- Node22 -->
<g id="Node000022" class="node">
<title>Node22</title>
<g id="a_Node000022"><a xlink:href="OscProbCalcer__OscLibLinear_8cpp.html" target="_top" xlink:title=" ">
<polygon fill="white" stroke="#666666" points="2455.75,-97 2304.75,-97 2304.75,-66.5 2455.75,-66.5 2455.75,-97"/>
<text text-anchor="start" x="2312.75" y="-83.5" font-family="Helvetica,sans-Serif" font-size="10.00">OscProbCalcer/OscProbCalcer</text>
<text text-anchor="middle" x="2380.25" y="-72.25" font-family="Helvetica,sans-Serif" font-size="10.00">_OscLibLinear.cpp</text>
</a>
</g>
</g>
<!-- Node21&#45;&gt;Node22 -->
<g id="edge22_Node000021_Node000022" class="edge">
<title>Node21&#45;&gt;Node22</title>
<g id="a_edge22_Node000021_Node000022"><a xlink:title=" ">
<path fill="none" stroke="#63b8ff" d="M2380.25,-121.31C2380.25,-113.14 2380.25,-104.41 2380.25,-97.33"/>
<polygon fill="#63b8ff" stroke="#63b8ff" points="2376.75,-121.1 2380.25,-131.1 2383.75,-121.1 2376.75,-121.1"/>
</a>
</g>
</g>
<!-- Node24 -->
<g id="Node000024" class="node">
<title>Node24</title>
<g id="a_Node000024"><a xlink:href="OscProbCalcer__OscProb_8cpp.html" target="_top" xlink:title=" ">
<polygon fill="white" stroke="#666666" points="2624.75,-97 2473.75,-97 2473.75,-66.5 2624.75,-66.5 2624.75,-97"/>
<text text-anchor="start" x="2481.75" y="-83.5" font-family="Helvetica,sans-Serif" font-size="10.00">OscProbCalcer/OscProbCalcer</text>
<text text-anchor="middle" x="2549.25" y="-72.25" font-family="Helvetica,sans-Serif" font-size="10.00">_OscProb.cpp</text>
</a>
</g>
</g>
<!-- Node23&#45;&gt;Node24 -->
<g id="edge24_Node000023_Node000024" class="edge">
<title>Node23&#45;&gt;Node24</title>
<g id="a_edge24_Node000023_Node000024"><a xlink:title=" ">
<path fill="none" stroke="#63b8ff" d="M2549.25,-121.31C2549.25,-113.14 2549.25,-104.41 2549.25,-97.33"/>
<polygon fill="#63b8ff" stroke="#63b8ff" points="2545.75,-121.1 2549.25,-131.1 2552.75,-121.1 2545.75,-121.1"/>
</a>
</g>
</g>
<!-- Node26 -->
<g id="Node000026" class="node">
<title>Node26</title>
<g id="a_Node000026"><a xlink:href="OscProbCalcer__Prob3ppLinear_8cpp.html" target="_top" xlink:title=" ">
<polygon fill="white" stroke="#666666" points="2793.75,-97 2642.75,-97 2642.75,-66.5 2793.75,-66.5 2793.75,-97"/>
<text text-anchor="start" x="2650.75" y="-83.5" font-family="Helvetica,sans-Serif" font-size="10.00">OscProbCalcer/OscProbCalcer</text>
<text text-anchor="middle" x="2718.25" y="-72.25" font-family="Helvetica,sans-Serif" font-size="10.00">_Prob3ppLinear.cpp</text>
</a>
</g>
</g>
<!-- Node25&#45;&gt;Node26 -->
<g id="edge26_Node000025_Node000026" class="edge">
<title>Node25&#45;&gt;Node26</title>
<g id="a_edge26_Node000025_Node000026"><a xlink:title=" ">
<path fill="none" stroke="#63b8ff" d="M2718.25,-121.31C2718.25,-113.14 2718.25,-104.41 2718.25,-97.33"/>
<polygon fill="#63b8ff" stroke="#63b8ff" points="2714.75,-121.1 2718.25,-131.1 2721.75,-121.1 2714.75,-121.1"/>
</a>
</g>
</g>
<!-- Node28 -->
<g id="Node000028" class="node">
<title>Node28</title>
<g id="a_Node000028"><a xlink:href="OscProbCalcer__ProbGPULinear_8cpp.html" target="_top" xlink:title=" ">
<polygon fill="white" stroke="#666666" points="2962.75,-97 2811.75,-97 2811.75,-66.5 2962.75,-66.5 2962.75,-97"/>
<text text-anchor="start" x="2819.75" y="-83.5" font-family="Helvetica,sans-Serif" font-size="10.00">OscProbCalcer/OscProbCalcer</text>
<text text-anchor="middle" x="2887.25" y="-72.25" font-family="Helvetica,sans-Serif" font-size="10.00">_ProbGPULinear.cpp</text>
</a>
</g>
</g>
<!-- Node27&#45;&gt;Node28 -->
<g id="edge28_Node000027_Node000028" class="edge">
<title>Node27&#45;&gt;Node28</title>
<g id="a_edge28_Node000027_Node000028"><a xlink:title=" ">
<path fill="none" stroke="#63b8ff" d="M2887.25,-121.31C2887.25,-113.14 2887.25,-104.41 2887.25,-97.33"/>
<polygon fill="#63b8ff" stroke="#63b8ff" points="2883.75,-121.1 2887.25,-131.1 2890.75,-121.1 2883.75,-121.1"/>
</a>
</g>
</g>
<!-- Node29&#45;&gt;Node6 -->
<g id="edge30_Node000029_Node000006" class="edge">
<title>Node29&#45;&gt;Node6</title>
<g id="a_edge30_Node000029_Node000006"><a xlink:title=" ">
<path fill="none" stroke="#63b8ff" d="M723.8,-136.27C663.19,-126.22 571.16,-110.83 491.25,-97 481.8,-95.36 471.72,-93.59 462.02,-91.87"/>
<polygon fill="#63b8ff" stroke="#63b8ff" points="723.18,-139.72 733.62,-137.9 724.33,-132.81 723.18,-139.72"/>
</a>
</g>
</g>
<!-- Node30 -->
<g id="Node000030" class="node">
<title>Node30</title>
<g id="a_Node000030"><a xlink:href="OscillatorBinned_8h.html" target="_top" xlink:title=" ">
<polygon fill="white" stroke="#666666" points="944.75,-91.38 805.75,-91.38 805.75,-72.12 944.75,-72.12 944.75,-91.38"/>
<text text-anchor="middle" x="875.25" y="-77.88" font-family="Helvetica,sans-Serif" font-size="10.00">Oscillator/OscillatorBinned.h</text>
</a>
</g>
</g>
<!-- Node29&#45;&gt;Node30 -->
<g id="edge31_Node000029_Node000030" class="edge">
<title>Node29&#45;&gt;Node30</title>
<g id="a_edge31_Node000029_Node000030"><a xlink:title=" ">
<path fill="none" stroke="#63b8ff" d="M810.93,-131.56C827.33,-119.11 849.68,-102.15 863.26,-91.85"/>
<polygon fill="#63b8ff" stroke="#63b8ff" points="809.13,-128.53 803.27,-137.37 813.36,-134.11 809.13,-128.53"/>
</a>
</g>
</g>
<!-- Node33 -->
<g id="Node000033" class="node">
<title>Node33</title>
<g id="a_Node000033"><a xlink:href="OscillatorFactory_8h.html" target="_top" xlink:title=" ">
<polygon fill="white" stroke="#666666" points="1103.88,-91.38 962.62,-91.38 962.62,-72.12 1103.88,-72.12 1103.88,-91.38"/>
<text text-anchor="middle" x="1033.25" y="-77.88" font-family="Helvetica,sans-Serif" font-size="10.00">Oscillator/OscillatorFactory.h</text>
</a>
</g>
</g>
<!-- Node29&#45;&gt;Node33 -->
<g id="edge34_Node000029_Node000033" class="edge">
<title>Node29&#45;&gt;Node33</title>
<g id="a_edge34_Node000029_Node000033"><a xlink:title=" ">
<path fill="none" stroke="#63b8ff" d="M835.42,-135.26C882.84,-122.67 956.33,-103.17 999.12,-91.81"/>
<polygon fill="#63b8ff" stroke="#63b8ff" points="834.78,-131.81 826.01,-137.76 836.58,-138.57 834.78,-131.81"/>
</a>
</g>
</g>
<!-- Node39 -->
<g id="Node000039" class="node">
<title>Node39</title>
<g id="a_Node000039"><a xlink:href="OscillatorSubSampling_8h.html" target="_top" xlink:title=" ">
<polygon fill="white" stroke="#666666" points="618.62,-97 499.88,-97 499.88,-66.5 618.62,-66.5 618.62,-97"/>
<text text-anchor="start" x="507.88" y="-83.5" font-family="Helvetica,sans-Serif" font-size="10.00">Oscillator/OscillatorSub</text>
<text text-anchor="middle" x="559.25" y="-72.25" font-family="Helvetica,sans-Serif" font-size="10.00">Sampling.h</text>
</a>
</g>
</g>
<!-- Node29&#45;&gt;Node39 -->
<g id="edge41_Node000029_Node000039" class="edge">
<title>Node29&#45;&gt;Node39</title>
<g id="a_edge41_Node000029_Node000039"><a xlink:title=" ">
<path fill="none" stroke="#63b8ff" d="M746.84,-135.13C708.51,-124.43 652.54,-108.8 611.71,-97.4"/>
<polygon fill="#63b8ff" stroke="#63b8ff" points="745.61,-138.42 756.19,-137.74 747.5,-131.68 745.61,-138.42"/>
</a>
</g>
</g>
<!-- Node41 -->
<g id="Node000041" class="node">
<title>Node41</title>
<g id="a_Node000041"><a xlink:href="OscillatorUnbinned_8h.html" target="_top" xlink:title=" ">
<polygon fill="white" stroke="#666666" points="787.38,-91.38 637.12,-91.38 637.12,-72.12 787.38,-72.12 787.38,-91.38"/>
<text text-anchor="middle" x="712.25" y="-77.88" font-family="Helvetica,sans-Serif" font-size="10.00">Oscillator/OscillatorUnbinned.h</text>
</a>
</g>
</g>
<!-- Node29&#45;&gt;Node41 -->
<g id="edge44_Node000029_Node000041" class="edge">
<title>Node29&#45;&gt;Node41</title>
<g id="a_edge44_Node000029_Node000041"><a xlink:title=" ">
<path fill="none" stroke="#63b8ff" d="M770.8,-131.17C755.69,-118.67 735.3,-101.81 723,-91.64"/>
<polygon fill="#63b8ff" stroke="#63b8ff" points="768.3,-133.64 778.24,-137.32 772.76,-128.25 768.3,-133.64"/>
</a>
</g>
</g>
<!-- Node31 -->
<g id="Node000031" class="node">
<title>Node31</title>
<g id="a_Node000031"><a xlink:href="OscillatorBinned_8cpp.html" target="_top" xlink:title=" ">
<polygon fill="white" stroke="#666666" points="951,-24.88 801.5,-24.88 801.5,-5.63 951,-5.63 951,-24.88"/>
<text text-anchor="middle" x="876.25" y="-11.38" font-family="Helvetica,sans-Serif" font-size="10.00">Oscillator/OscillatorBinned.cpp</text>
</a>
</g>
</g>
<!-- Node30&#45;&gt;Node31 -->
<g id="edge32_Node000030_Node000031" class="edge">
<title>Node30&#45;&gt;Node31</title>
<g id="a_edge32_Node000030_Node000031"><a xlink:title=" ">
<path fill="none" stroke="#63b8ff" d="M875.57,-60.27C875.75,-48.44 875.97,-34.16 876.11,-25.14"/>
<polygon fill="#63b8ff" stroke="#63b8ff" points="872.07,-60.22 875.41,-70.27 879.07,-60.32 872.07,-60.22"/>
</a>
</g>
</g>
<!-- Node32 -->
<g id="Node000032" class="node">
<title>Node32</title>
<g id="a_Node000032"><a xlink:href="OscillatorFactory_8cpp.html" target="_top" xlink:title=" ">
<polygon fill="white" stroke="#666666" points="783.12,-24.88 631.38,-24.88 631.38,-5.63 783.12,-5.63 783.12,-24.88"/>
<text text-anchor="middle" x="707.25" y="-11.38" font-family="Helvetica,sans-Serif" font-size="10.00">Oscillator/OscillatorFactory.cpp</text>
</a>
</g>
</g>
<!-- Node30&#45;&gt;Node32 -->
<g id="edge33_Node000030_Node000032" class="edge">
<title>Node30&#45;&gt;Node32</title>
<g id="a_edge33_Node000030_Node000032"><a xlink:title=" ">
<path fill="none" stroke="#63b8ff" d="M841.07,-67.63C808.25,-55.03 759.55,-36.33 730.84,-25.31"/>
<polygon fill="#63b8ff" stroke="#63b8ff" points="839.53,-70.79 850.12,-71.1 842.04,-64.25 839.53,-70.79"/>
</a>
</g>
</g>
<!-- Node33&#45;&gt;Node32 -->
<g id="edge40_Node000033_Node000032" class="edge">
<title>Node33&#45;&gt;Node32</title>
<g id="a_edge40_Node000033_Node000032"><a xlink:title=" ">
<path fill="none" stroke="#63b8ff" d="M976.25,-69.47C912.9,-56.94 811.84,-36.94 753.3,-25.36"/>
<polygon fill="#63b8ff" stroke="#63b8ff" points="975.26,-72.84 985.75,-71.35 976.62,-65.98 975.26,-72.84"/>
</a>
</g>
</g>
<!-- Node34 -->
<g id="Node000034" class="node">
<title>Node34</title>
<g id="a_Node000034"><a xlink:href="Analysis_8cpp.html" target="_top" xlink:title=" ">
<polygon fill="white" stroke="#666666" points="1211.38,-24.88 1115.12,-24.88 1115.12,-5.63 1211.38,-5.63 1211.38,-24.88"/>
<text text-anchor="middle" x="1163.25" y="-11.38" font-family="Helvetica,sans-Serif" font-size="10.00">Apps/Analysis.cpp</text>
</a>
</g>
</g>
<!-- Node33&#45;&gt;Node34 -->
<g id="edge35_Node000033_Node000034" class="edge">
<title>Node33&#45;&gt;Node34</title>
<g id="a_edge35_Node000033_Node000034"><a xlink:title=" ">
<path fill="none" stroke="#63b8ff" d="M1061.71,-66.63C1087.05,-54.06 1123.36,-36.04 1144.99,-25.31"/>
<polygon fill="#63b8ff" stroke="#63b8ff" points="1060.36,-63.39 1052.96,-70.97 1063.47,-69.66 1060.36,-63.39"/>
</a>
</g>
</g>
<!-- Node35 -->
<g id="Node000035" class="node">
<title>Node35</title>
<g id="a_Node000035"><a xlink:href="CompareOscillationProbabilities_8cpp.html" target="_top" xlink:title=" ">
<polygon fill="white" stroke="#666666" points="1427,-24.88 1229.5,-24.88 1229.5,-5.63 1427,-5.63 1427,-24.88"/>
<text text-anchor="middle" x="1328.25" y="-11.38" font-family="Helvetica,sans-Serif" font-size="10.00">Apps/CompareOscillationProbabilities.cpp</text>
</a>
</g>
</g>
<!-- Node33&#45;&gt;Node35 -->
<g id="edge36_Node000033_Node000035" class="edge">
<title>Node33&#45;&gt;Node35</title>
<g id="a_edge36_Node000033_Node000035"><a xlink:title=" ">
<path fill="none" stroke="#63b8ff" d="M1085.92,-69.23C1143.39,-56.67 1234.21,-36.81 1286.82,-25.31"/>
<polygon fill="#63b8ff" stroke="#63b8ff" points="1085.39,-65.77 1076.37,-71.32 1086.89,-72.61 1085.39,-65.77"/>
</a>
</g>
</g>
<!-- Node36 -->
<g id="Node000036" class="node">
<title>Node36</title>
<g id="a_Node000036"><a xlink:href="DragRace_8cpp.html" target="_top" xlink:title=" ">
<polygon fill="white" stroke="#666666" points="1547.38,-24.88 1445.12,-24.88 1445.12,-5.63 1547.38,-5.63 1547.38,-24.88"/>
<text text-anchor="middle" x="1496.25" y="-11.38" font-family="Helvetica,sans-Serif" font-size="10.00">Apps/DragRace.cpp</text>
</a>
</g>
</g>
<!-- Node33&#45;&gt;Node36 -->
<g id="edge37_Node000033_Node000036" class="edge">
<title>Node33&#45;&gt;Node36</title>
<g id="a_edge37_Node000033_Node000036"><a xlink:title=" ">
<path fill="none" stroke="#63b8ff" d="M1092.1,-69.68C1098.89,-68.54 1105.71,-67.45 1112.25,-66.5 1255.62,-45.63 1293.5,-55.29 1436.25,-30.5 1444.37,-29.09 1453.04,-27.24 1461.18,-25.34"/>
<polygon fill="#63b8ff" stroke="#63b8ff" points="1091.54,-66.23 1082.28,-71.38 1092.73,-73.12 1091.54,-66.23"/>
</a>
</g>
</g>
<!-- Node37 -->
<g id="Node000037" class="node">
<title>Node37</title>
<g id="a_Node000037"><a xlink:href="OscProbCalcerComparison_8cpp.html" target="_top" xlink:title=" ">
<polygon fill="white" stroke="#666666" points="1742.88,-24.88 1565.62,-24.88 1565.62,-5.63 1742.88,-5.63 1742.88,-24.88"/>
<text text-anchor="middle" x="1654.25" y="-11.38" font-family="Helvetica,sans-Serif" font-size="10.00">Apps/OscProbCalcerComparison.cpp</text>
</a>
</g>
</g>
<!-- Node33&#45;&gt;Node37 -->
<g id="edge38_Node000033_Node000037" class="edge">
<title>Node33&#45;&gt;Node37</title>
<g id="a_edge38_Node000033_Node000037"><a xlink:title=" ">
<path fill="none" stroke="#63b8ff" d="M1090.74,-69.71C1097.96,-68.52 1105.27,-67.41 1112.25,-66.5 1308.57,-40.9 1359.52,-52.76 1556.25,-30.5 1569.06,-29.05 1582.78,-27.23 1595.77,-25.37"/>
<polygon fill="#63b8ff" stroke="#63b8ff" points="1090.26,-66.24 1080.99,-71.37 1091.44,-73.14 1090.26,-66.24"/>
</a>
</g>
</g>
<!-- Node38 -->
<g id="Node000038" class="node">
<title>Node38</title>
<g id="a_Node000038"><a xlink:href="SingleOscillator_8cpp.html" target="_top" xlink:title=" ">
<polygon fill="white" stroke="#666666" points="1097.12,-24.88 969.38,-24.88 969.38,-5.63 1097.12,-5.63 1097.12,-24.88"/>
<text text-anchor="middle" x="1033.25" y="-11.38" font-family="Helvetica,sans-Serif" font-size="10.00">Apps/SingleOscillator.cpp</text>
</a>
</g>
</g>
<!-- Node33&#45;&gt;Node38 -->
<g id="edge39_Node000033_Node000038" class="edge">
<title>Node33&#45;&gt;Node38</title>
<g id="a_edge39_Node000033_Node000038"><a xlink:title=" ">
<path fill="none" stroke="#63b8ff" d="M1033.25,-60.27C1033.25,-48.44 1033.25,-34.16 1033.25,-25.14"/>
<polygon fill="#63b8ff" stroke="#63b8ff" points="1029.75,-60.27 1033.25,-70.27 1036.75,-60.27 1029.75,-60.27"/>
</a>
</g>
</g>
<!-- Node39&#45;&gt;Node32 -->
<g id="edge42_Node000039_Node000032" class="edge">
<title>Node39&#45;&gt;Node32</title>
<g id="a_edge42_Node000039_Node000032"><a xlink:title=" ">
<path fill="none" stroke="#63b8ff" d="M603.04,-61.66C630.66,-49.63 665.04,-34.65 686.58,-25.26"/>
<polygon fill="#63b8ff" stroke="#63b8ff" points="601.99,-58.31 594.22,-65.51 604.79,-64.72 601.99,-58.31"/>
</a>
</g>
</g>
<!-- Node40 -->
<g id="Node000040" class="node">
<title>Node40</title>
<g id="a_Node000040"><a xlink:href="OscillatorSubSampling_8cpp.html" target="_top" xlink:title=" ">
<polygon fill="white" stroke="#666666" points="434.62,-30.5 315.88,-30.5 315.88,0 434.62,0 434.62,-30.5"/>
<text text-anchor="start" x="323.88" y="-17" font-family="Helvetica,sans-Serif" font-size="10.00">Oscillator/OscillatorSub</text>
<text text-anchor="middle" x="375.25" y="-5.75" font-family="Helvetica,sans-Serif" font-size="10.00">Sampling.cpp</text>
</a>
</g>
</g>
<!-- Node39&#45;&gt;Node40 -->
<g id="edge43_Node000039_Node000040" class="edge">
<title>Node39&#45;&gt;Node40</title>
<g id="a_edge43_Node000039_Node000040"><a xlink:title=" ">
<path fill="none" stroke="#63b8ff" d="M506.93,-62.41C478.49,-52.44 443.79,-40.28 417.16,-30.94"/>
<polygon fill="#63b8ff" stroke="#63b8ff" points="505.47,-65.61 516.07,-65.61 507.79,-59 505.47,-65.61"/>
</a>
</g>
</g>
<!-- Node41&#45;&gt;Node32 -->
<g id="edge45_Node000041_Node000032" class="edge">
<title>Node41&#45;&gt;Node32</title>
<g id="a_edge45_Node000041_Node000032"><a xlink:title=" ">
<path fill="none" stroke="#63b8ff" d="M710.69,-60.65C709.77,-48.75 708.65,-34.26 707.94,-25.14"/>
<polygon fill="#63b8ff" stroke="#63b8ff" points="707.18,-60.57 711.44,-70.27 714.15,-60.03 707.18,-60.57"/>
</a>
</g>
</g>
<!-- Node42 -->
<g id="Node000042" class="node">
<title>Node42</title>
<g id="a_Node000042"><a xlink:href="OscillatorUnbinned_8cpp.html" target="_top" xlink:title=" ">
<polygon fill="white" stroke="#666666" points="613.62,-24.88 452.88,-24.88 452.88,-5.63 613.62,-5.63 613.62,-24.88"/>
<text text-anchor="middle" x="533.25" y="-11.38" font-family="Helvetica,sans-Serif" font-size="10.00">Oscillator/OscillatorUnbinned.cpp</text>
</a>
</g>
</g>
<!-- Node41&#45;&gt;Node42 -->
<g id="edge46_Node000041_Node000042" class="edge">
<title>Node41&#45;&gt;Node42</title>
<g id="a_edge46_Node000041_Node000042"><a xlink:title=" ">
<path fill="none" stroke="#63b8ff" d="M676.28,-67.79C641.32,-55.19 589.11,-36.38 558.39,-25.31"/>
<polygon fill="#63b8ff" stroke="#63b8ff" points="674.97,-71.04 685.56,-71.13 677.34,-64.45 674.97,-71.04"/>
</a>
</g>
</g>
</g>
</svg>

<g id="navigator" transform="translate(0 0)" fill="#404254">
  <rect fill="#f2f5e9" fill-opacity="0.5" stroke="#606060" stroke-width=".5" x="0" y="0" width="60" height="60"/>
  <use id="zoomplus" xlink:href="#zoomPlus" x="17" y="9" onmousedown="handleZoom(evt,'in')"/>
  <use id="zoomminus" xlink:href="#zoomMin" x="42" y="9" onmousedown="handleZoom(evt,'out')"/>
  <use id="reset" xlink:href="#resetDef" x="30" y="36" onmousedown="handleReset()"/>
   <use id="arrowup" xlink:href="#arrowUp" x="0" y="0" onmousedown="handlePan(0,-1)"/>
  <use id="arrowright" xlink:href="#arrowRight" x="0" y="0" onmousedown="handlePan(1,0)"/>
  <use id="arrowdown" xlink:href="#arrowDown" x="0" y="0" onmousedown="handlePan(0,1)"/>
  <use id="arrowleft" xlink:href="#arrowLeft" x="0" y="0" onmousedown="handlePan(-1,0)"/>
</g>
<svg viewBox="0 0 15 15" width="100%" height="30px" preserveAspectRatio="xMaxYMin meet">
 <g id="arrow_out" transform="scale(0.3 0.3)">
  <a xlink:href="OscProbCalcerBase_8h__dep__incl_org.svg" target="_base">
   <rect id="button" ry="5" rx="5" y="6" x="6" height="38" width="38"
        fill="#f2f5e9" fill-opacity="0.5" stroke="#606060" stroke-width="1.0"/>
   <path id="arrow"
     d="M 11.500037,31.436501 C 11.940474,20.09759 22.043105,11.32322 32.158766,21.979434 L 37.068811,17.246167 C 37.068811,17.246167 37.088388,32 37.088388,32 L 22.160133,31.978069 C 22.160133,31.978069 26.997745,27.140456 26.997745,27.140456 C 18.528582,18.264221 13.291696,25.230495 11.500037,31.436501 z"
     style="fill:#404040;"/>
  </a>
 </g>
</svg>

<style type='text/css'>
<![CDATA[
[data-mouse-over-selected='false'] { opacity: 0.7; }
[data-mouse-over-selected='true']  { opacity: 1.0; }
]]>
</style>
<script type="application/ecmascript"><![CDATA[
document.addEventListener('DOMContentLoaded', (event) => {
  highlightEdges();
  highlightAdjacentNodes();
});
]]></script>
</svg>
