<?xml version="1.0" encoding="UTF-8" standalone="no"?>
<!DOCTYPE svg PUBLIC "-//W3C//DTD SVG 1.1//EN"
 "http://www.w3.org/Graphics/SVG/1.1/DTD/svg11.dtd">
<!-- Generated by graphviz version 9.0.0 (20230911.1827)
 -->
<!-- Title: OscProbCalcer/OscProbCalcerFactory.h Pages: 1 -->
<svg width="490pt" height="105pt"
 viewBox="0.00 0.00 490.25 105.00" xmlns="http://www.w3.org/2000/svg" xmlns:xlink="http://www.w3.org/1999/xlink">
<g id="graph0" class="graph" transform="scale(1 1) rotate(0) translate(4 101)">
<title>OscProbCalcer/OscProbCalcerFactory.h</title>
<!-- Node1 -->
<g id="Node000001" class="node">
<title>Node1</title>
<g id="a_Node000001"><a xlink:title=" ">
<polygon fill="#999999" stroke="#666666" points="321.75,-97 170.75,-97 170.75,-66.5 321.75,-66.5 321.75,-97"/>
<text text-anchor="start" x="178.75" y="-83.5" font-family="Helvetica,sans-Serif" font-size="10.00">OscProbCalcer/OscProbCalcer</text>
<text text-anchor="middle" x="246.25" y="-72.25" font-family="Helvetica,sans-Serif" font-size="10.00">Factory.h</text>
</a>
</g>
</g>
<!-- Node2 -->
<g id="Node000002" class="node">
<title>Node2</title>
<g id="a_Node000002"><a xlink:href="SingleOscProbCalcer_8cpp.html" target="_top" xlink:title=" ">
<polygon fill="white" stroke="#666666" points="152.5,-24.88 0,-24.88 0,-5.63 152.5,-5.63 152.5,-24.88"/>
<text text-anchor="middle" x="76.25" y="-11.38" font-family="Helvetica,sans-Serif" font-size="10.00">Apps/SingleOscProbCalcer.cpp</text>
</a>
</g>
</g>
<!-- Node1&#45;&gt;Node2 -->
<g id="edge1_Node000001_Node000002" class="edge">
<title>Node1&#45;&gt;Node2</title>
<g id="a_edge1_Node000001_Node000002"><a xlink:title=" ">
<path fill="none" stroke="#63b8ff" d="M197.2,-62.14C165.28,-50.03 125.06,-34.77 100,-25.26"/>
<polygon fill="#63b8ff" stroke="#63b8ff" points="195.67,-65.3 206.26,-65.58 198.15,-58.76 195.67,-65.3"/>
</a>
</g>
</g>
<!-- Node3 -->
<g id="Node000003" class="node">
<title>Node3</title>
<g id="a_Node000003"><a xlink:href="OscProbCalcerFactory_8cpp.html" target="_top" xlink:title=" ">
<polygon fill="white" stroke="#666666" points="321.75,-30.5 170.75,-30.5 170.75,0 321.75,0 321.75,-30.5"/>
<text text-anchor="start" x="178.75" y="-17" font-family="Helvetica,sans-Serif" font-size="10.00">OscProbCalcer/OscProbCalcer</text>
<text text-anchor="middle" x="246.25" y="-5.75" font-family="Helvetica,sans-Serif" font-size="10.00">Factory.cpp</text>
</a>
</g>
</g>
<!-- Node1&#45;&gt;Node3 -->
<g id="edge2_Node000001_Node000003" class="edge">
<title>Node1&#45;&gt;Node3</title>
<g id="a_edge2_Node000001_Node000003"><a xlink:title=" ">
<path fill="none" stroke="#63b8ff" d="M246.25,-54.81C246.25,-46.64 246.25,-37.91 246.25,-30.83"/>
<polygon fill="#63b8ff" stroke="#63b8ff" points="242.75,-54.6 246.25,-64.6 249.75,-54.6 242.75,-54.6"/>
</a>
</g>
</g>
<!-- Node4 -->
<g id="Node000004" class="node">
<title>Node4</title>
<g id="a_Node000004"><a xlink:href="OscillatorBase_8cpp.html" target="_top" xlink:title=" ">
<polygon fill="white" stroke="#666666" points="482.25,-24.88 340.25,-24.88 340.25,-5.63 482.25,-5.63 482.25,-24.88"/>
<text text-anchor="middle" x="411.25" y="-11.38" font-family="Helvetica,sans-Serif" font-size="10.00">Oscillator/OscillatorBase.cpp</text>
</a>
</g>
</g>
<!-- Node1&#45;&gt;Node4 -->
<g id="edge3_Node000001_Node000004" class="edge">
<title>Node1&#45;&gt;Node4</title>
<g id="a_edge3_Node000001_Node000004"><a xlink:title=" ">
<path fill="none" stroke="#63b8ff" d="M294.26,-61.98C325.18,-49.9 363.98,-34.73 388.2,-25.26"/>
<polygon fill="#63b8ff" stroke="#63b8ff" points="293.14,-58.66 285.1,-65.56 295.69,-65.18 293.14,-58.66"/>
</a>
</g>
</g>
</g>
</svg>
