<?xml version="1.0" encoding="UTF-8" standalone="no"?>
<!DOCTYPE svg PUBLIC "-//W3C//DTD SVG 1.1//EN"
 "http://www.w3.org/Graphics/SVG/1.1/DTD/svg11.dtd">
<!-- Generated by graphviz version 9.0.0 (20230911.1827)
 -->
<!-- Title: OscProbCalcer/OscProbCalcer_OscProb.cpp Pages: 1 -->
<svg width="1602pt" height="260pt"
 viewBox="0.00 0.00 1601.62 259.50" xmlns="http://www.w3.org/2000/svg" xmlns:xlink="http://www.w3.org/1999/xlink">
<g id="graph0" class="graph" transform="scale(1 1) rotate(0) translate(4 255.5)">
<title>OscProbCalcer/OscProbCalcer_OscProb.cpp</title>
<!-- Node1 -->
<g id="Node000001" class="node">
<title>Node1</title>
<g id="a_Node000001"><a xlink:title=" ">
<polygon fill="#999999" stroke="#666666" points="1059.38,-251.5 908.38,-251.5 908.38,-221 1059.38,-221 1059.38,-251.5"/>
<text text-anchor="start" x="916.38" y="-238" font-family="Helvetica,sans-Serif" font-size="10.00">OscProbCalcer/OscProbCalcer</text>
<text text-anchor="middle" x="983.88" y="-226.75" font-family="Helvetica,sans-Serif" font-size="10.00">_OscProb.cpp</text>
</a>
</g>
</g>
<!-- Node2 -->
<g id="Node000002" class="node">
<title>Node2</title>
<g id="a_Node000002"><a xlink:href="OscProbCalcer__OscProb_8h.html" target="_top" xlink:title=" ">
<polygon fill="white" stroke="#666666" points="501.38,-185 368.38,-185 368.38,-165.75 501.38,-165.75 501.38,-185"/>
<text text-anchor="middle" x="434.88" y="-171.5" font-family="Helvetica,sans-Serif" font-size="10.00">OscProbCalcer_OscProb.h</text>
</a>
</g>
</g>
<!-- Node1&#45;&gt;Node2 -->
<g id="edge1_Node000001_Node000002" class="edge">
<title>Node1&#45;&gt;Node2</title>
<g id="a_edge1_Node000001_Node000002"><a xlink:title=" ">
<path fill="none" stroke="#63b8ff" d="M908.08,-227.37C817.03,-217.86 659.3,-201.27 513.01,-185.23"/>
<polygon fill="#63b8ff" stroke="#63b8ff" points="513.43,-181.75 503.1,-184.14 512.66,-188.71 513.43,-181.75"/>
</a>
</g>
</g>
<!-- Node14 -->
<g id="Node000014" class="node">
<title>Node14</title>
<g id="a_Node000014"><a xlink:title=" ">
<polygon fill="#e0e0e0" stroke="#999999" points="568.38,-185 519.38,-185 519.38,-165.75 568.38,-165.75 568.38,-185"/>
<text text-anchor="middle" x="543.88" y="-171.5" font-family="Helvetica,sans-Serif" font-size="10.00">fstream</text>
</a>
</g>
</g>
<!-- Node1&#45;&gt;Node14 -->
<g id="edge16_Node000001_Node000014" class="edge">
<title>Node1&#45;&gt;Node14</title>
<g id="a_edge16_Node000001_Node000014"><a xlink:title=" ">
<path fill="none" stroke="#63b8ff" d="M908.02,-228.92C828.41,-221.59 699.48,-207.8 579.84,-185.36"/>
<polygon fill="#63b8ff" stroke="#63b8ff" points="580.63,-181.94 570.15,-183.51 579.32,-188.82 580.63,-181.94"/>
</a>
</g>
</g>
<!-- Node15 -->
<g id="Node000015" class="node">
<title>Node15</title>
<g id="a_Node000015"><a xlink:title=" ">
<polygon fill="#e0e0e0" stroke="#999999" points="679.5,-185 586.25,-185 586.25,-165.75 679.5,-165.75 679.5,-185"/>
<text text-anchor="middle" x="632.88" y="-171.5" font-family="Helvetica,sans-Serif" font-size="10.00">inc/PMNS_Fast.h</text>
</a>
</g>
</g>
<!-- Node1&#45;&gt;Node15 -->
<g id="edge17_Node000001_Node000015" class="edge">
<title>Node1&#45;&gt;Node15</title>
<g id="a_edge17_Node000001_Node000015"><a xlink:title=" ">
<path fill="none" stroke="#63b8ff" d="M908.15,-222.55C843.02,-211.62 750.44,-196.09 691.01,-186.13"/>
<polygon fill="#63b8ff" stroke="#63b8ff" points="691.88,-182.72 681.44,-184.52 690.72,-189.63 691.88,-182.72"/>
</a>
</g>
</g>
<!-- Node16 -->
<g id="Node000016" class="node">
<title>Node16</title>
<g id="a_Node000016"><a xlink:title=" ">
<polygon fill="#e0e0e0" stroke="#999999" points="798.62,-185 697.12,-185 697.12,-165.75 798.62,-165.75 798.62,-185"/>
<text text-anchor="middle" x="747.88" y="-171.5" font-family="Helvetica,sans-Serif" font-size="10.00">inc/PMNS_Sterile.h</text>
</a>
</g>
</g>
<!-- Node1&#45;&gt;Node16 -->
<g id="edge18_Node000001_Node000016" class="edge">
<title>Node1&#45;&gt;Node16</title>
<g id="a_edge18_Node000001_Node000016"><a xlink:title=" ">
<path fill="none" stroke="#63b8ff" d="M924.93,-220.55C884.97,-210.58 832.83,-197.57 795.5,-188.25"/>
<polygon fill="#63b8ff" stroke="#63b8ff" points="796.43,-184.88 785.88,-185.86 794.74,-191.67 796.43,-184.88"/>
</a>
</g>
</g>
<!-- Node17 -->
<g id="Node000017" class="node">
<title>Node17</title>
<g id="a_Node000017"><a xlink:title=" ">
<polygon fill="#e0e0e0" stroke="#999999" points="917.25,-185 816.5,-185 816.5,-165.75 917.25,-165.75 917.25,-185"/>
<text text-anchor="middle" x="866.88" y="-171.5" font-family="Helvetica,sans-Serif" font-size="10.00">inc/PMNS_Decay.h</text>
</a>
</g>
</g>
<!-- Node1&#45;&gt;Node17 -->
<g id="edge19_Node000001_Node000017" class="edge">
<title>Node1&#45;&gt;Node17</title>
<g id="a_edge19_Node000001_Node000017"><a xlink:title=" ">
<path fill="none" stroke="#63b8ff" d="M954.65,-220.55C936.41,-211.36 913.04,-199.61 895,-190.53"/>
<polygon fill="#63b8ff" stroke="#63b8ff" points="896.68,-187.45 886.17,-186.08 893.53,-193.71 896.68,-187.45"/>
</a>
</g>
</g>
<!-- Node18 -->
<g id="Node000018" class="node">
<title>Node18</title>
<g id="a_Node000018"><a xlink:title=" ">
<polygon fill="#e0e0e0" stroke="#999999" points="1032,-185 935.75,-185 935.75,-165.75 1032,-165.75 1032,-185"/>
<text text-anchor="middle" x="983.88" y="-171.5" font-family="Helvetica,sans-Serif" font-size="10.00">inc/PMNS_Deco.h</text>
</a>
</g>
</g>
<!-- Node1&#45;&gt;Node18 -->
<g id="edge20_Node000001_Node000018" class="edge">
<title>Node1&#45;&gt;Node18</title>
<g id="a_edge20_Node000001_Node000018"><a xlink:title=" ">
<path fill="none" stroke="#63b8ff" d="M983.88,-220.7C983.88,-213.46 983.88,-204.59 983.88,-196.69"/>
<polygon fill="#63b8ff" stroke="#63b8ff" points="987.38,-196.96 983.88,-186.96 980.38,-196.96 987.38,-196.96"/>
</a>
</g>
</g>
<!-- Node19 -->
<g id="Node000019" class="node">
<title>Node19</title>
<g id="a_Node000019"><a xlink:title=" ">
<polygon fill="#e0e0e0" stroke="#999999" points="1141.38,-185 1050.38,-185 1050.38,-165.75 1141.38,-165.75 1141.38,-185"/>
<text text-anchor="middle" x="1095.88" y="-171.5" font-family="Helvetica,sans-Serif" font-size="10.00">inc/PMNS_NSI.h</text>
</a>
</g>
</g>
<!-- Node1&#45;&gt;Node19 -->
<g id="edge21_Node000001_Node000019" class="edge">
<title>Node1&#45;&gt;Node19</title>
<g id="a_edge21_Node000001_Node000019"><a xlink:title=" ">
<path fill="none" stroke="#63b8ff" d="M1011.85,-220.55C1029.23,-211.41 1051.47,-199.72 1068.7,-190.66"/>
<polygon fill="#63b8ff" stroke="#63b8ff" points="1070.14,-193.86 1077.36,-186.11 1066.88,-187.66 1070.14,-193.86"/>
</a>
</g>
</g>
<!-- Node20 -->
<g id="Node000020" class="node">
<title>Node20</title>
<g id="a_Node000020"><a xlink:title=" ">
<polygon fill="#e0e0e0" stroke="#999999" points="1247.88,-185 1159.88,-185 1159.88,-165.75 1247.88,-165.75 1247.88,-185"/>
<text text-anchor="middle" x="1203.88" y="-171.5" font-family="Helvetica,sans-Serif" font-size="10.00">inc/PMNS_Iter.h</text>
</a>
</g>
</g>
<!-- Node1&#45;&gt;Node20 -->
<g id="edge22_Node000001_Node000020" class="edge">
<title>Node1&#45;&gt;Node20</title>
<g id="a_edge22_Node000001_Node000020"><a xlink:title=" ">
<path fill="none" stroke="#63b8ff" d="M1038.82,-220.55C1075.92,-210.62 1124.26,-197.68 1159.03,-188.38"/>
<polygon fill="#63b8ff" stroke="#63b8ff" points="1159.59,-191.85 1168.35,-185.88 1157.78,-185.09 1159.59,-191.85"/>
</a>
</g>
</g>
<!-- Node21 -->
<g id="Node000021" class="node">
<title>Node21</title>
<g id="a_Node000021"><a xlink:title=" ">
<polygon fill="#e0e0e0" stroke="#999999" points="1370.12,-185 1265.62,-185 1265.62,-165.75 1370.12,-165.75 1370.12,-185"/>
<text text-anchor="middle" x="1317.88" y="-171.5" font-family="Helvetica,sans-Serif" font-size="10.00">inc/PMNS_NUNM.h</text>
</a>
</g>
</g>
<!-- Node1&#45;&gt;Node21 -->
<g id="edge23_Node000001_Node000021" class="edge">
<title>Node1&#45;&gt;Node21</title>
<g id="a_edge23_Node000001_Node000021"><a xlink:title=" ">
<path fill="none" stroke="#63b8ff" d="M1059.66,-221.89C1118.73,-211.48 1199.74,-197.2 1255.18,-187.43"/>
<polygon fill="#63b8ff" stroke="#63b8ff" points="1255.53,-190.92 1264.77,-185.74 1254.31,-184.03 1255.53,-190.92"/>
</a>
</g>
</g>
<!-- Node22 -->
<g id="Node000022" class="node">
<title>Node22</title>
<g id="a_Node000022"><a xlink:title=" ">
<polygon fill="#e0e0e0" stroke="#999999" points="1485.75,-185 1388,-185 1388,-165.75 1485.75,-165.75 1485.75,-185"/>
<text text-anchor="middle" x="1436.88" y="-171.5" font-family="Helvetica,sans-Serif" font-size="10.00">inc/PMNS_SNSI.h</text>
</a>
</g>
</g>
<!-- Node1&#45;&gt;Node22 -->
<g id="edge24_Node000001_Node000022" class="edge">
<title>Node1&#45;&gt;Node22</title>
<g id="a_edge24_Node000001_Node000022"><a xlink:title=" ">
<path fill="none" stroke="#63b8ff" d="M1059.66,-226.09C1136.74,-216.67 1259.94,-201.3 1376.29,-185.33"/>
<polygon fill="#63b8ff" stroke="#63b8ff" points="1376.6,-188.82 1386.02,-183.99 1375.64,-181.89 1376.6,-188.82"/>
</a>
</g>
</g>
<!-- Node23 -->
<g id="Node000023" class="node">
<title>Node23</title>
<g id="a_Node000023"><a xlink:title=" ">
<polygon fill="#e0e0e0" stroke="#999999" points="1593.62,-185 1504.12,-185 1504.12,-165.75 1593.62,-165.75 1593.62,-185"/>
<text text-anchor="middle" x="1548.88" y="-171.5" font-family="Helvetica,sans-Serif" font-size="10.00">inc/PMNS_LIV.h</text>
</a>
</g>
</g>
<!-- Node1&#45;&gt;Node23 -->
<g id="edge25_Node000001_Node000023" class="edge">
<title>Node1&#45;&gt;Node23</title>
<g id="a_edge25_Node000001_Node000023"><a xlink:title=" ">
<path fill="none" stroke="#63b8ff" d="M1059.79,-229.23C1157.49,-221.15 1332.72,-205.58 1492.81,-185.19"/>
<polygon fill="#63b8ff" stroke="#63b8ff" points="1492.85,-188.72 1502.32,-183.97 1491.96,-181.77 1492.85,-188.72"/>
</a>
</g>
</g>
<!-- Node3 -->
<g id="Node000003" class="node">
<title>Node3</title>
<g id="a_Node000003"><a xlink:href="OscProbCalcerBase_8h.html" target="_top" xlink:title=" ">
<polygon fill="white" stroke="#666666" points="368.88,-129.75 256.88,-129.75 256.88,-110.5 368.88,-110.5 368.88,-129.75"/>
<text text-anchor="middle" x="312.88" y="-116.25" font-family="Helvetica,sans-Serif" font-size="10.00">OscProbCalcerBase.h</text>
</a>
</g>
</g>
<!-- Node2&#45;&gt;Node3 -->
<g id="edge2_Node000002_Node000003" class="edge">
<title>Node2&#45;&gt;Node3</title>
<g id="a_edge2_Node000002_Node000003"><a xlink:title=" ">
<path fill="none" stroke="#63b8ff" d="M414.18,-165.34C394.99,-156.97 366.16,-144.38 344.16,-134.78"/>
<polygon fill="#63b8ff" stroke="#63b8ff" points="345.62,-131.6 335.06,-130.81 342.82,-138.02 345.62,-131.6"/>
</a>
</g>
</g>
<!-- Node12 -->
<g id="Node000012" class="node">
<title>Node12</title>
<g id="a_Node000012"><a xlink:title=" ">
<polygon fill="#e0e0e0" stroke="#999999" points="483,-129.75 386.75,-129.75 386.75,-110.5 483,-110.5 483,-129.75"/>
<text text-anchor="middle" x="434.88" y="-116.25" font-family="Helvetica,sans-Serif" font-size="10.00">inc/PMNS_Base.h</text>
</a>
</g>
</g>
<!-- Node2&#45;&gt;Node12 -->
<g id="edge14_Node000002_Node000012" class="edge">
<title>Node2&#45;&gt;Node12</title>
<g id="a_edge14_Node000002_Node000012"><a xlink:title=" ">
<path fill="none" stroke="#63b8ff" d="M434.88,-165.58C434.88,-159.07 434.88,-149.92 434.88,-141.62"/>
<polygon fill="#63b8ff" stroke="#63b8ff" points="438.38,-141.62 434.88,-131.62 431.38,-141.62 438.38,-141.62"/>
</a>
</g>
</g>
<!-- Node13 -->
<g id="Node000013" class="node">
<title>Node13</title>
<g id="a_Node000013"><a xlink:title=" ">
<polygon fill="#e0e0e0" stroke="#999999" points="590.25,-129.75 501.5,-129.75 501.5,-110.5 590.25,-110.5 590.25,-129.75"/>
<text text-anchor="middle" x="545.88" y="-116.25" font-family="Helvetica,sans-Serif" font-size="10.00">inc/PremModel.h</text>
</a>
</g>
</g>
<!-- Node2&#45;&gt;Node13 -->
<g id="edge15_Node000002_Node000013" class="edge">
<title>Node2&#45;&gt;Node13</title>
<g id="a_edge15_Node000002_Node000013"><a xlink:title=" ">
<path fill="none" stroke="#63b8ff" d="M453.7,-165.34C470.93,-157.08 496.68,-144.73 516.58,-135.18"/>
<polygon fill="#63b8ff" stroke="#63b8ff" points="518.09,-138.34 525.59,-130.86 515.06,-132.03 518.09,-138.34"/>
</a>
</g>
</g>
<!-- Node4 -->
<g id="Node000004" class="node">
<title>Node4</title>
<g id="a_Node000004"><a xlink:href="OscillatorConstants_8h.html" target="_top" xlink:title=" ">
<polygon fill="white" stroke="#666666" points="338,-74.5 181.75,-74.5 181.75,-55.25 338,-55.25 338,-74.5"/>
<text text-anchor="middle" x="259.88" y="-61" font-family="Helvetica,sans-Serif" font-size="10.00">Constants/OscillatorConstants.h</text>
</a>
</g>
</g>
<!-- Node3&#45;&gt;Node4 -->
<g id="edge3_Node000003_Node000004" class="edge">
<title>Node3&#45;&gt;Node4</title>
<g id="a_edge3_Node000003_Node000004"><a xlink:title=" ">
<path fill="none" stroke="#63b8ff" d="M304.12,-110.33C296.73,-102.9 285.91,-92.04 276.83,-82.91"/>
<polygon fill="#63b8ff" stroke="#63b8ff" points="279.42,-80.55 269.88,-75.93 274.46,-85.49 279.42,-80.55"/>
</a>
</g>
</g>
<!-- Node6 -->
<g id="Node000006" class="node">
<title>Node6</title>
<g id="a_Node000006"><a xlink:title=" ">
<polygon fill="#e0e0e0" stroke="#999999" points="85.75,-19.25 0,-19.25 0,0 85.75,0 85.75,-19.25"/>
<text text-anchor="middle" x="42.88" y="-5.75" font-family="Helvetica,sans-Serif" font-size="10.00">yaml&#45;cpp/yaml.h</text>
</a>
</g>
</g>
<!-- Node3&#45;&gt;Node6 -->
<g id="edge13_Node000003_Node000006" class="edge">
<title>Node3&#45;&gt;Node6</title>
<g id="a_edge13_Node000003_Node000006"><a xlink:title=" ">
<path fill="none" stroke="#63b8ff" d="M279.57,-110.02C250.9,-101.82 208.61,-88.88 172.88,-74.5 136.13,-59.71 95.39,-38.94 69.48,-25.15"/>
<polygon fill="#63b8ff" stroke="#63b8ff" points="71.14,-22.07 60.68,-20.42 67.83,-28.23 71.14,-22.07"/>
</a>
</g>
</g>
<!-- Node9 -->
<g id="Node000009" class="node">
<title>Node9</title>
<g id="a_Node000009"><a xlink:title=" ">
<polygon fill="#e0e0e0" stroke="#999999" points="402.88,-19.25 362.88,-19.25 362.88,0 402.88,0 402.88,-19.25"/>
<text text-anchor="middle" x="382.88" y="-5.75" font-family="Helvetica,sans-Serif" font-size="10.00">string</text>
</a>
</g>
</g>
<!-- Node3&#45;&gt;Node9 -->
<g id="edge12_Node000003_Node000009" class="edge">
<title>Node3&#45;&gt;Node9</title>
<g id="a_edge12_Node000003_Node000009"><a xlink:title=" ">
<path fill="none" stroke="#63b8ff" d="M320.29,-110.16C327.45,-101.34 338.41,-87.35 346.88,-74.5 356.51,-59.86 366.19,-42.49 373.09,-29.57"/>
<polygon fill="#63b8ff" stroke="#63b8ff" points="376.1,-31.35 377.65,-20.87 369.91,-28.1 376.1,-31.35"/>
</a>
</g>
</g>
<!-- Node11 -->
<g id="Node000011" class="node">
<title>Node11</title>
<g id="a_Node000011"><a xlink:title=" ">
<polygon fill="#e0e0e0" stroke="#999999" points="464.38,-19.25 421.38,-19.25 421.38,0 464.38,0 464.38,-19.25"/>
<text text-anchor="middle" x="442.88" y="-5.75" font-family="Helvetica,sans-Serif" font-size="10.00">vector</text>
</a>
</g>
</g>
<!-- Node3&#45;&gt;Node11 -->
<g id="edge11_Node000003_Node000011" class="edge">
<title>Node3&#45;&gt;Node11</title>
<g id="a_edge11_Node000003_Node000011"><a xlink:title=" ">
<path fill="none" stroke="#63b8ff" d="M323.65,-110.26C334.57,-101.28 351.93,-86.96 366.88,-74.5 386.39,-58.23 408.63,-39.52 423.99,-26.57"/>
<polygon fill="#63b8ff" stroke="#63b8ff" points="426.03,-29.43 431.42,-20.31 421.52,-24.08 426.03,-29.43"/>
</a>
</g>
</g>
<!-- Node5 -->
<g id="Node000005" class="node">
<title>Node5</title>
<g id="a_Node000005"><a xlink:title=" ">
<polygon fill="#e0e0e0" stroke="#999999" points="344.5,-19.25 299.25,-19.25 299.25,0 344.5,0 344.5,-19.25"/>
<text text-anchor="middle" x="321.88" y="-5.75" font-family="Helvetica,sans-Serif" font-size="10.00">math.h</text>
</a>
</g>
</g>
<!-- Node4&#45;&gt;Node5 -->
<g id="edge4_Node000004_Node000005" class="edge">
<title>Node4&#45;&gt;Node5</title>
<g id="a_edge4_Node000004_Node000005"><a xlink:title=" ">
<path fill="none" stroke="#63b8ff" d="M270.39,-54.84C279.26,-47.22 292.19,-36.12 302.86,-26.95"/>
<polygon fill="#63b8ff" stroke="#63b8ff" points="305.06,-29.68 310.36,-20.51 300.5,-24.37 305.06,-29.68"/>
</a>
</g>
</g>
<!-- Node4&#45;&gt;Node6 -->
<g id="edge5_Node000004_Node000006" class="edge">
<title>Node4&#45;&gt;Node6</title>
<g id="a_edge5_Node000004_Node000006"><a xlink:title=" ">
<path fill="none" stroke="#63b8ff" d="M223.06,-54.84C186.67,-45.91 130.79,-32.2 90.92,-22.41"/>
<polygon fill="#63b8ff" stroke="#63b8ff" points="91.88,-19.05 81.34,-20.06 90.21,-25.85 91.88,-19.05"/>
</a>
</g>
</g>
<!-- Node7 -->
<g id="Node000007" class="node">
<title>Node7</title>
<g id="a_Node000007"><a xlink:title=" ">
<polygon fill="#e0e0e0" stroke="#999999" points="149.5,-19.25 104.25,-19.25 104.25,0 149.5,0 149.5,-19.25"/>
<text text-anchor="middle" x="126.88" y="-5.75" font-family="Helvetica,sans-Serif" font-size="10.00">TFile.h</text>
</a>
</g>
</g>
<!-- Node4&#45;&gt;Node7 -->
<g id="edge6_Node000004_Node000007" class="edge">
<title>Node4&#45;&gt;Node7</title>
<g id="a_edge6_Node000004_Node000007"><a xlink:title=" ">
<path fill="none" stroke="#63b8ff" d="M237.31,-54.84C216.1,-46.35 184.1,-33.54 160,-23.89"/>
<polygon fill="#63b8ff" stroke="#63b8ff" points="161.54,-20.73 150.95,-20.27 158.94,-27.23 161.54,-20.73"/>
</a>
</g>
</g>
<!-- Node8 -->
<g id="Node000008" class="node">
<title>Node8</title>
<g id="a_Node000008"><a xlink:title=" ">
<polygon fill="#e0e0e0" stroke="#999999" points="210,-19.25 167.75,-19.25 167.75,0 210,0 210,-19.25"/>
<text text-anchor="middle" x="188.88" y="-5.75" font-family="Helvetica,sans-Serif" font-size="10.00">TH1.h</text>
</a>
</g>
</g>
<!-- Node4&#45;&gt;Node8 -->
<g id="edge7_Node000004_Node000008" class="edge">
<title>Node4&#45;&gt;Node8</title>
<g id="a_edge7_Node000004_Node000008"><a xlink:title=" ">
<path fill="none" stroke="#63b8ff" d="M247.83,-54.84C237.47,-47.07 222.27,-35.67 209.91,-26.4"/>
<polygon fill="#63b8ff" stroke="#63b8ff" points="212.05,-23.63 201.95,-20.43 207.85,-29.23 212.05,-23.63"/>
</a>
</g>
</g>
<!-- Node4&#45;&gt;Node9 -->
<g id="edge8_Node000004_Node000009" class="edge">
<title>Node4&#45;&gt;Node9</title>
<g id="a_edge8_Node000004_Node000009"><a xlink:title=" ">
<path fill="none" stroke="#63b8ff" d="M280.74,-54.84C300.41,-46.32 330.13,-33.46 352.44,-23.8"/>
<polygon fill="#63b8ff" stroke="#63b8ff" points="353.55,-27.13 361.34,-19.95 350.77,-20.71 353.55,-27.13"/>
</a>
</g>
</g>
<!-- Node10 -->
<g id="Node000010" class="node">
<title>Node10</title>
<g id="a_Node000010"><a xlink:title=" ">
<polygon fill="#e0e0e0" stroke="#999999" points="281.62,-19.25 228.12,-19.25 228.12,0 281.62,0 281.62,-19.25"/>
<text text-anchor="middle" x="254.88" y="-5.75" font-family="Helvetica,sans-Serif" font-size="10.00">iostream</text>
</a>
</g>
</g>
<!-- Node4&#45;&gt;Node10 -->
<g id="edge9_Node000004_Node000010" class="edge">
<title>Node4&#45;&gt;Node10</title>
<g id="a_edge9_Node000004_Node000010"><a xlink:title=" ">
<path fill="none" stroke="#63b8ff" d="M259.05,-55.08C258.43,-48.49 257.56,-39.21 256.77,-30.82"/>
<polygon fill="#63b8ff" stroke="#63b8ff" points="260.28,-30.75 255.86,-21.12 253.31,-31.4 260.28,-30.75"/>
</a>
</g>
</g>
<!-- Node4&#45;&gt;Node11 -->
<g id="edge10_Node000004_Node000011" class="edge">
<title>Node4&#45;&gt;Node11</title>
<g id="a_edge10_Node000004_Node000011"><a xlink:title=" ">
<path fill="none" stroke="#63b8ff" d="M290.92,-54.84C324.08,-45.19 376.43,-29.96 410.21,-20.13"/>
<polygon fill="#63b8ff" stroke="#63b8ff" points="410.82,-23.6 419.44,-17.44 408.86,-16.88 410.82,-23.6"/>
</a>
</g>
</g>
</g>
</svg>
