<?xml version="1.0" encoding="UTF-8" standalone="no"?>
<!DOCTYPE svg PUBLIC "-//W3C//DTD SVG 1.1//EN"
 "http://www.w3.org/Graphics/SVG/1.1/DTD/svg11.dtd">
<!-- Generated by graphviz version 9.0.0 (20230911.1827)
 -->
<!-- Title: OscProbCalcer/OscProbCalcerFactory.h Pages: 1 -->
<svg width="449pt" height="204pt"
 viewBox="0.00 0.00 449.00 204.25" xmlns="http://www.w3.org/2000/svg" xmlns:xlink="http://www.w3.org/1999/xlink">

<svg id="main" version="1.1" xmlns="http://www.w3.org/2000/svg" xmlns:xlink="http://www.w3.org/1999/xlink" xml:space="preserve" onload="init(evt)">
<style type="text/css"><![CDATA[
.node, .edge {opacity: 0.7;}
.node.selected, .edge.selected {opacity: 1;}
.edge:hover path { stroke: red; }
.edge:hover polygon { stroke: red; fill: red; }
]]></style>
<script type="application/ecmascript" xlink:href="svg.min.js"/>
<svg id="graph" class="graph">
<g id="graph0" class="graph" transform="scale(1 1) rotate(0) translate(4 200.25)">
<title>OscProbCalcer/OscProbCalcerFactory.h</title>
<!-- Node1 -->
<g id="Node000001" class="node">
<title>Node1</title>
<g id="a_Node000001"><a xlink:title=" ">
<polygon fill="#999999" stroke="#666666" points="383.62,-196.25 232.62,-196.25 232.62,-165.75 383.62,-165.75 383.62,-196.25"/>
<text text-anchor="start" x="240.62" y="-182.75" font-family="Helvetica,sans-Serif" font-size="10.00">OscProbCalcer/OscProbCalcer</text>
<text text-anchor="middle" x="308.12" y="-171.5" font-family="Helvetica,sans-Serif" font-size="10.00">Factory.h</text>
</a>
</g>
</g>
<!-- Node2 -->
<g id="Node000002" class="node">
<title>Node2</title>
<g id="a_Node000002"><a xlink:href="OscProbCalcerBase_8h.html" target="_top" xlink:title=" ">
<polygon fill="white" stroke="#666666" points="364.12,-129.75 252.12,-129.75 252.12,-110.5 364.12,-110.5 364.12,-129.75"/>
<text text-anchor="middle" x="308.12" y="-116.25" font-family="Helvetica,sans-Serif" font-size="10.00">OscProbCalcerBase.h</text>
</a>
</g>
</g>
<!-- Node1&#45;&gt;Node2 -->
<g id="edge1_Node000001_Node000002" class="edge">
<title>Node1&#45;&gt;Node2</title>
<g id="a_edge1_Node000001_Node000002"><a xlink:title=" ">
<path fill="none" stroke="#63b8ff" d="M308.12,-165.45C308.12,-158.21 308.12,-149.34 308.12,-141.44"/>
<polygon fill="#63b8ff" stroke="#63b8ff" points="311.63,-141.71 308.13,-131.71 304.63,-141.71 311.63,-141.71"/>
</a>
</g>
</g>
<!-- Node3 -->
<g id="Node000003" class="node">
<title>Node3</title>
<g id="a_Node000003"><a xlink:href="OscillatorConstants_8h.html" target="_top" xlink:title=" ">
<polygon fill="white" stroke="#666666" points="261.25,-74.5 105,-74.5 105,-55.25 261.25,-55.25 261.25,-74.5"/>
<text text-anchor="middle" x="183.12" y="-61" font-family="Helvetica,sans-Serif" font-size="10.00">Constants/OscillatorConstants.h</text>
</a>
</g>
</g>
<!-- Node2&#45;&gt;Node3 -->
<g id="edge2_Node000002_Node000003" class="edge">
<title>Node2&#45;&gt;Node3</title>
<g id="a_edge2_Node000002_Node000003"><a xlink:title=" ">
<path fill="none" stroke="#63b8ff" d="M286.92,-110.09C267.17,-101.68 237.45,-89.02 214.87,-79.4"/>
<polygon fill="#63b8ff" stroke="#63b8ff" points="216.4,-76.24 205.83,-75.55 213.65,-82.68 216.4,-76.24"/>
</a>
</g>
</g>
<!-- Node7 -->
<g id="Node000007" class="node">
<title>Node7</title>
<g id="a_Node000007"><a xlink:title=" ">
<polygon fill="#e0e0e0" stroke="#999999" points="298.12,-19.25 258.12,-19.25 258.12,0 298.12,0 298.12,-19.25"/>
<text text-anchor="middle" x="278.12" y="-5.75" font-family="Helvetica,sans-Serif" font-size="10.00">string</text>
</a>
</g>
</g>
<!-- Node2&#45;&gt;Node7 -->
<g id="edge10_Node000002_Node000007" class="edge">
<title>Node2&#45;&gt;Node7</title>
<g id="a_edge10_Node000002_Node000007"><a xlink:title=" ">
<path fill="none" stroke="#63b8ff" d="M305.67,-110.25C300.88,-92.92 290.18,-54.23 283.62,-30.49"/>
<polygon fill="#63b8ff" stroke="#63b8ff" points="287.06,-29.79 281.02,-21.09 280.31,-31.66 287.06,-29.79"/>
</a>
</g>
</g>
<!-- Node9 -->
<g id="Node000009" class="node">
<title>Node9</title>
<g id="a_Node000009"><a xlink:title=" ">
<polygon fill="#e0e0e0" stroke="#999999" points="359.62,-19.25 316.62,-19.25 316.62,0 359.62,0 359.62,-19.25"/>
<text text-anchor="middle" x="338.12" y="-5.75" font-family="Helvetica,sans-Serif" font-size="10.00">vector</text>
</a>
</g>
</g>
<!-- Node2&#45;&gt;Node9 -->
<g id="edge9_Node000002_Node000009" class="edge">
<title>Node2&#45;&gt;Node9</title>
<g id="a_edge9_Node000002_Node000009"><a xlink:title=" ">
<path fill="none" stroke="#63b8ff" d="M310.58,-110.25C315.37,-92.92 326.07,-54.23 332.63,-30.49"/>
<polygon fill="#63b8ff" stroke="#63b8ff" points="335.94,-31.66 335.23,-21.09 329.19,-29.79 335.94,-31.66"/>
</a>
</g>
</g>
<!-- Node10 -->
<g id="Node000010" class="node">
<title>Node10</title>
<g id="a_Node000010"><a xlink:title=" ">
<polygon fill="#e0e0e0" stroke="#999999" points="441,-74.5 355.25,-74.5 355.25,-55.25 441,-55.25 441,-74.5"/>
<text text-anchor="middle" x="398.12" y="-61" font-family="Helvetica,sans-Serif" font-size="10.00">yaml&#45;cpp/yaml.h</text>
</a>
</g>
</g>
<!-- Node2&#45;&gt;Node10 -->
<g id="edge11_Node000002_Node000010" class="edge">
<title>Node2&#45;&gt;Node10</title>
<g id="a_edge11_Node000002_Node000010"><a xlink:title=" ">
<path fill="none" stroke="#63b8ff" d="M323.39,-110.09C336.97,-102.06 357.08,-90.16 373.02,-80.73"/>
<polygon fill="#63b8ff" stroke="#63b8ff" points="374.66,-83.83 381.48,-75.72 371.09,-77.8 374.66,-83.83"/>
</a>
</g>
</g>
<!-- Node4 -->
<g id="Node000004" class="node">
<title>Node4</title>
<g id="a_Node000004"><a xlink:title=" ">
<polygon fill="#e0e0e0" stroke="#999999" points="176.75,-19.25 131.5,-19.25 131.5,0 176.75,0 176.75,-19.25"/>
<text text-anchor="middle" x="154.12" y="-5.75" font-family="Helvetica,sans-Serif" font-size="10.00">math.h</text>
</a>
</g>
</g>
<!-- Node3&#45;&gt;Node4 -->
<g id="edge3_Node000003_Node000004" class="edge">
<title>Node3&#45;&gt;Node4</title>
<g id="a_edge3_Node000003_Node000004"><a xlink:title=" ">
<path fill="none" stroke="#63b8ff" d="M178.34,-55.08C174.58,-48.19 169.22,-38.34 164.49,-29.66"/>
<polygon fill="#63b8ff" stroke="#63b8ff" points="167.6,-28.05 159.74,-20.94 161.45,-31.39 167.6,-28.05"/>
</a>
</g>
</g>
<!-- Node5 -->
<g id="Node000005" class="node">
<title>Node5</title>
<g id="a_Node000005"><a xlink:title=" ">
<polygon fill="#e0e0e0" stroke="#999999" points="239.75,-19.25 194.5,-19.25 194.5,0 239.75,0 239.75,-19.25"/>
<text text-anchor="middle" x="217.12" y="-5.75" font-family="Helvetica,sans-Serif" font-size="10.00">TFile.h</text>
</a>
</g>
</g>
<!-- Node3&#45;&gt;Node5 -->
<g id="edge4_Node000003_Node000005" class="edge">
<title>Node3&#45;&gt;Node5</title>
<g id="a_edge4_Node000003_Node000005"><a xlink:title=" ">
<path fill="none" stroke="#63b8ff" d="M188.74,-55.08C193.24,-48.03 199.71,-37.9 205.34,-29.08"/>
<polygon fill="#63b8ff" stroke="#63b8ff" points="208.14,-31.2 210.57,-20.88 202.24,-27.43 208.14,-31.2"/>
</a>
</g>
</g>
<!-- Node6 -->
<g id="Node000006" class="node">
<title>Node6</title>
<g id="a_Node000006"><a xlink:title=" ">
<polygon fill="#e0e0e0" stroke="#999999" points="42.25,-19.25 0,-19.25 0,0 42.25,0 42.25,-19.25"/>
<text text-anchor="middle" x="21.12" y="-5.75" font-family="Helvetica,sans-Serif" font-size="10.00">TH1.h</text>
</a>
</g>
</g>
<!-- Node3&#45;&gt;Node6 -->
<g id="edge5_Node000003_Node000006" class="edge">
<title>Node3&#45;&gt;Node6</title>
<g id="a_edge5_Node000003_Node000006"><a xlink:title=" ">
<path fill="none" stroke="#63b8ff" d="M155.64,-54.84C127.31,-45.53 83.15,-31.01 53.23,-21.18"/>
<polygon fill="#63b8ff" stroke="#63b8ff" points="54.55,-17.93 43.96,-18.13 52.36,-24.58 54.55,-17.93"/>
</a>
</g>
</g>
<!-- Node3&#45;&gt;Node7 -->
<g id="edge6_Node000003_Node000007" class="edge">
<title>Node3&#45;&gt;Node7</title>
<g id="a_edge6_Node000003_Node000007"><a xlink:title=" ">
<path fill="none" stroke="#63b8ff" d="M199.24,-54.84C213.71,-46.73 235.2,-34.68 252.11,-25.21"/>
<polygon fill="#63b8ff" stroke="#63b8ff" points="253.6,-28.39 260.61,-20.44 250.18,-22.28 253.6,-28.39"/>
</a>
</g>
</g>
<!-- Node8 -->
<g id="Node000008" class="node">
<title>Node8</title>
<g id="a_Node000008"><a xlink:title=" ">
<polygon fill="#e0e0e0" stroke="#999999" points="113.88,-19.25 60.38,-19.25 60.38,0 113.88,0 113.88,-19.25"/>
<text text-anchor="middle" x="87.12" y="-5.75" font-family="Helvetica,sans-Serif" font-size="10.00">iostream</text>
</a>
</g>
</g>
<!-- Node3&#45;&gt;Node8 -->
<g id="edge7_Node000003_Node000008" class="edge">
<title>Node3&#45;&gt;Node8</title>
<g id="a_edge7_Node000003_Node000008"><a xlink:title=" ">
<path fill="none" stroke="#63b8ff" d="M166.84,-54.84C152.22,-46.73 130.5,-34.68 113.42,-25.21"/>
<polygon fill="#63b8ff" stroke="#63b8ff" points="115.26,-22.23 104.81,-20.44 111.86,-28.35 115.26,-22.23"/>
</a>
</g>
</g>
<!-- Node3&#45;&gt;Node9 -->
<g id="edge8_Node000003_Node000009" class="edge">
<title>Node3&#45;&gt;Node9</title>
<g id="a_edge8_Node000003_Node000009"><a xlink:title=" ">
<path fill="none" stroke="#63b8ff" d="M209.42,-54.84C235.95,-45.73 276.98,-31.63 305.56,-21.81"/>
<polygon fill="#63b8ff" stroke="#63b8ff" points="306.47,-25.2 314.79,-18.64 304.19,-18.58 306.47,-25.2"/>
</a>
</g>
</g>
</g>
</svg>
</svg>

<style type='text/css'>
<![CDATA[
[data-mouse-over-selected='false'] { opacity: 0.7; }
[data-mouse-over-selected='true']  { opacity: 1.0; }
]]>
</style>
<script type="application/ecmascript"><![CDATA[
document.addEventListener('DOMContentLoaded', (event) => {
  highlightEdges();
  highlightAdjacentNodes();
});
]]></script>
</svg>
