<?xml version="1.0" encoding="UTF-8" standalone="no"?>
<!DOCTYPE svg PUBLIC "-//W3C//DTD SVG 1.1//EN"
 "http://www.w3.org/Graphics/SVG/1.1/DTD/svg11.dtd">
<!-- Generated by graphviz version 9.0.0 (20230911.1827)
 -->
<!-- Title: OscProbCalcer/OscProbCalcer_OscProb.cpp Pages: 1 -->
<!--zoomable 260 -->

<svg id="main" version="1.1" xmlns="http://www.w3.org/2000/svg" xmlns:xlink="http://www.w3.org/1999/xlink" xml:space="preserve" onload="init(evt)">
<style type="text/css"><![CDATA[
.node, .edge {opacity: 0.7;}
.node.selected, .edge.selected {opacity: 1;}
.edge:hover path { stroke: red; }
.edge:hover polygon { stroke: red; fill: red; }
]]></style>

<defs>
  <circle id="rim" cx="0" cy="0" r="7"/>
  <circle id="rim2" cx="0" cy="0" r="3.5"/>
  <g id="zoomPlus">
    <use xlink:href="#rim" fill="#404040"><set attributeName="fill" to="#808080" begin="zoomplus.mouseover" end="zoomplus.mouseout"/></use>
    <path d="M-4,0h8M0,-4v8" fill="none" stroke="white" stroke-width="1.5" pointer-events="none"/>
  </g>
  <g id="zoomMin">
    <use xlink:href="#rim" fill="#404040"><set attributeName="fill" to="#808080" begin="zoomminus.mouseover" end="zoomminus.mouseout"/></use>
    <path d="M-4,0h8" fill="none" stroke="white" stroke-width="1.5" pointer-events="none"/>
  </g>
  <g id="arrowUp" transform="translate(30 24)">
    <use xlink:href="#rim"/>
    <path pointer-events="none" fill="none" stroke="white" stroke-width="1.5" d="M0,-3.0v7 M-2.5,-0.5L0,-3.0L2.5,-0.5"/>
  </g>
  <g id="arrowRight" transform="rotate(90) translate(36 -43)">
    <use xlink:href="#rim"/>
    <path pointer-events="none" fill="none" stroke="white" stroke-width="1.5" d="M0,-3.0v7 M-2.5,-0.5L0,-3.0L2.5,-0.5"/>
  </g>
  <g id="arrowDown" transform="rotate(180) translate(-30 -48)">
    <use xlink:href="#rim"/>
    <path pointer-events="none" fill="none" stroke="white" stroke-width="1.5" d="M0,-3.0v7 M-2.5,-0.5L0,-3.0L2.5,-0.5"/>
  </g>
  <g id="arrowLeft" transform="rotate(270) translate(-36 17)">
    <use xlink:href="#rim"/>
    <path pointer-events="none" fill="none" stroke="white" stroke-width="1.5" d="M0,-3.0v7 M-2.5,-0.5L0,-3.0L2.5,-0.5"/>
  </g>
  <g id="resetDef">
    <use xlink:href="#rim2" fill="#404040"><set attributeName="fill" to="#808080" begin="reset.mouseover" end="reset.mouseout"/></use>
  </g>
</defs>
<script type="application/ecmascript">
var viewWidth = 1597;
var viewHeight = 260;
var sectionId = 'dynsection-0';
</script>
<script type="application/ecmascript" xlink:href="svg.min.js"/>
<svg id="graph" class="graph">
<g id="viewport">
<title>OscProbCalcer/OscProbCalcer_OscProb.cpp</title>
<!-- Node1 -->
<g id="Node000001" class="node">
<title>Node1</title>
<g id="a_Node000001"><a xlink:title=" ">
<polygon fill="#999999" stroke="#666666" points="1054.62,-251.5 903.62,-251.5 903.62,-221 1054.62,-221 1054.62,-251.5"/>
<text text-anchor="start" x="911.62" y="-238" font-family="Helvetica,sans-Serif" font-size="10.00">OscProbCalcer/OscProbCalcer</text>
<text text-anchor="middle" x="979.12" y="-226.75" font-family="Helvetica,sans-Serif" font-size="10.00">_OscProb.cpp</text>
</a>
</g>
</g>
<!-- Node2 -->
<g id="Node000002" class="node">
<title>Node2</title>
<g id="a_Node000002"><a xlink:href="OscProbCalcer__OscProb_8h.html" target="_top" xlink:title=" ">
<polygon fill="white" stroke="#666666" points="496.62,-185 363.62,-185 363.62,-165.75 496.62,-165.75 496.62,-185"/>
<text text-anchor="middle" x="430.12" y="-171.5" font-family="Helvetica,sans-Serif" font-size="10.00">OscProbCalcer_OscProb.h</text>
</a>
</g>
</g>
<!-- Node1&#45;&gt;Node2 -->
<g id="edge1_Node000001_Node000002" class="edge">
<title>Node1&#45;&gt;Node2</title>
<g id="a_edge1_Node000001_Node000002"><a xlink:title=" ">
<path fill="none" stroke="#63b8ff" d="M903.33,-227.37C812.28,-217.86 654.55,-201.27 508.26,-185.23"/>
<polygon fill="#63b8ff" stroke="#63b8ff" points="508.68,-181.75 498.35,-184.14 507.91,-188.71 508.68,-181.75"/>
</a>
</g>
</g>
<!-- Node14 -->
<g id="Node000014" class="node">
<title>Node14</title>
<g id="a_Node000014"><a xlink:title=" ">
<polygon fill="#e0e0e0" stroke="#999999" points="563.62,-185 514.62,-185 514.62,-165.75 563.62,-165.75 563.62,-185"/>
<text text-anchor="middle" x="539.12" y="-171.5" font-family="Helvetica,sans-Serif" font-size="10.00">fstream</text>
</a>
</g>
</g>
<!-- Node1&#45;&gt;Node14 -->
<g id="edge15_Node000001_Node000014" class="edge">
<title>Node1&#45;&gt;Node14</title>
<g id="a_edge15_Node000001_Node000014"><a xlink:title=" ">
<path fill="none" stroke="#63b8ff" d="M903.27,-228.92C823.66,-221.59 694.73,-207.8 575.09,-185.36"/>
<polygon fill="#63b8ff" stroke="#63b8ff" points="575.88,-181.94 565.4,-183.51 574.57,-188.82 575.88,-181.94"/>
</a>
</g>
</g>
<!-- Node15 -->
<g id="Node000015" class="node">
<title>Node15</title>
<g id="a_Node000015"><a xlink:title=" ">
<polygon fill="#e0e0e0" stroke="#999999" points="674.75,-185 581.5,-185 581.5,-165.75 674.75,-165.75 674.75,-185"/>
<text text-anchor="middle" x="628.12" y="-171.5" font-family="Helvetica,sans-Serif" font-size="10.00">inc/PMNS_Fast.h</text>
</a>
</g>
</g>
<!-- Node1&#45;&gt;Node15 -->
<g id="edge16_Node000001_Node000015" class="edge">
<title>Node1&#45;&gt;Node15</title>
<g id="a_edge16_Node000001_Node000015"><a xlink:title=" ">
<path fill="none" stroke="#63b8ff" d="M903.4,-222.55C838.27,-211.62 745.69,-196.09 686.26,-186.13"/>
<polygon fill="#63b8ff" stroke="#63b8ff" points="687.13,-182.72 676.69,-184.52 685.97,-189.63 687.13,-182.72"/>
</a>
</g>
</g>
<!-- Node16 -->
<g id="Node000016" class="node">
<title>Node16</title>
<g id="a_Node000016"><a xlink:title=" ">
<polygon fill="#e0e0e0" stroke="#999999" points="793.88,-185 692.38,-185 692.38,-165.75 793.88,-165.75 793.88,-185"/>
<text text-anchor="middle" x="743.12" y="-171.5" font-family="Helvetica,sans-Serif" font-size="10.00">inc/PMNS_Sterile.h</text>
</a>
</g>
</g>
<!-- Node1&#45;&gt;Node16 -->
<g id="edge17_Node000001_Node000016" class="edge">
<title>Node1&#45;&gt;Node16</title>
<g id="a_edge17_Node000001_Node000016"><a xlink:title=" ">
<path fill="none" stroke="#63b8ff" d="M920.18,-220.55C880.22,-210.58 828.08,-197.57 790.75,-188.25"/>
<polygon fill="#63b8ff" stroke="#63b8ff" points="791.68,-184.88 781.13,-185.86 789.99,-191.67 791.68,-184.88"/>
</a>
</g>
</g>
<!-- Node17 -->
<g id="Node000017" class="node">
<title>Node17</title>
<g id="a_Node000017"><a xlink:title=" ">
<polygon fill="#e0e0e0" stroke="#999999" points="912.5,-185 811.75,-185 811.75,-165.75 912.5,-165.75 912.5,-185"/>
<text text-anchor="middle" x="862.12" y="-171.5" font-family="Helvetica,sans-Serif" font-size="10.00">inc/PMNS_Decay.h</text>
</a>
</g>
</g>
<!-- Node1&#45;&gt;Node17 -->
<g id="edge18_Node000001_Node000017" class="edge">
<title>Node1&#45;&gt;Node17</title>
<g id="a_edge18_Node000001_Node000017"><a xlink:title=" ">
<path fill="none" stroke="#63b8ff" d="M949.9,-220.55C931.66,-211.36 908.29,-199.61 890.25,-190.53"/>
<polygon fill="#63b8ff" stroke="#63b8ff" points="891.93,-187.45 881.42,-186.08 888.78,-193.71 891.93,-187.45"/>
</a>
</g>
</g>
<!-- Node18 -->
<g id="Node000018" class="node">
<title>Node18</title>
<g id="a_Node000018"><a xlink:title=" ">
<polygon fill="#e0e0e0" stroke="#999999" points="1027.25,-185 931,-185 931,-165.75 1027.25,-165.75 1027.25,-185"/>
<text text-anchor="middle" x="979.12" y="-171.5" font-family="Helvetica,sans-Serif" font-size="10.00">inc/PMNS_Deco.h</text>
</a>
</g>
</g>
<!-- Node1&#45;&gt;Node18 -->
<g id="edge19_Node000001_Node000018" class="edge">
<title>Node1&#45;&gt;Node18</title>
<g id="a_edge19_Node000001_Node000018"><a xlink:title=" ">
<path fill="none" stroke="#63b8ff" d="M979.12,-220.7C979.12,-213.46 979.12,-204.59 979.12,-196.69"/>
<polygon fill="#63b8ff" stroke="#63b8ff" points="982.63,-196.96 979.13,-186.96 975.63,-196.96 982.63,-196.96"/>
</a>
</g>
</g>
<!-- Node19 -->
<g id="Node000019" class="node">
<title>Node19</title>
<g id="a_Node000019"><a xlink:title=" ">
<polygon fill="#e0e0e0" stroke="#999999" points="1136.62,-185 1045.62,-185 1045.62,-165.75 1136.62,-165.75 1136.62,-185"/>
<text text-anchor="middle" x="1091.12" y="-171.5" font-family="Helvetica,sans-Serif" font-size="10.00">inc/PMNS_NSI.h</text>
</a>
</g>
</g>
<!-- Node1&#45;&gt;Node19 -->
<g id="edge20_Node000001_Node000019" class="edge">
<title>Node1&#45;&gt;Node19</title>
<g id="a_edge20_Node000001_Node000019"><a xlink:title=" ">
<path fill="none" stroke="#63b8ff" d="M1007.1,-220.55C1024.48,-211.41 1046.72,-199.72 1063.95,-190.66"/>
<polygon fill="#63b8ff" stroke="#63b8ff" points="1065.39,-193.86 1072.61,-186.11 1062.13,-187.66 1065.39,-193.86"/>
</a>
</g>
</g>
<!-- Node20 -->
<g id="Node000020" class="node">
<title>Node20</title>
<g id="a_Node000020"><a xlink:title=" ">
<polygon fill="#e0e0e0" stroke="#999999" points="1243.12,-185 1155.12,-185 1155.12,-165.75 1243.12,-165.75 1243.12,-185"/>
<text text-anchor="middle" x="1199.12" y="-171.5" font-family="Helvetica,sans-Serif" font-size="10.00">inc/PMNS_Iter.h</text>
</a>
</g>
</g>
<!-- Node1&#45;&gt;Node20 -->
<g id="edge21_Node000001_Node000020" class="edge">
<title>Node1&#45;&gt;Node20</title>
<g id="a_edge21_Node000001_Node000020"><a xlink:title=" ">
<path fill="none" stroke="#63b8ff" d="M1034.07,-220.55C1071.17,-210.62 1119.51,-197.68 1154.28,-188.38"/>
<polygon fill="#63b8ff" stroke="#63b8ff" points="1154.84,-191.85 1163.6,-185.88 1153.03,-185.09 1154.84,-191.85"/>
</a>
</g>
</g>
<!-- Node21 -->
<g id="Node000021" class="node">
<title>Node21</title>
<g id="a_Node000021"><a xlink:title=" ">
<polygon fill="#e0e0e0" stroke="#999999" points="1365.38,-185 1260.88,-185 1260.88,-165.75 1365.38,-165.75 1365.38,-185"/>
<text text-anchor="middle" x="1313.12" y="-171.5" font-family="Helvetica,sans-Serif" font-size="10.00">inc/PMNS_NUNM.h</text>
</a>
</g>
</g>
<!-- Node1&#45;&gt;Node21 -->
<g id="edge22_Node000001_Node000021" class="edge">
<title>Node1&#45;&gt;Node21</title>
<g id="a_edge22_Node000001_Node000021"><a xlink:title=" ">
<path fill="none" stroke="#63b8ff" d="M1054.91,-221.89C1113.98,-211.48 1194.99,-197.2 1250.43,-187.43"/>
<polygon fill="#63b8ff" stroke="#63b8ff" points="1250.78,-190.92 1260.02,-185.74 1249.56,-184.03 1250.78,-190.92"/>
</a>
</g>
</g>
<!-- Node22 -->
<g id="Node000022" class="node">
<title>Node22</title>
<g id="a_Node000022"><a xlink:title=" ">
<polygon fill="#e0e0e0" stroke="#999999" points="1481,-185 1383.25,-185 1383.25,-165.75 1481,-165.75 1481,-185"/>
<text text-anchor="middle" x="1432.12" y="-171.5" font-family="Helvetica,sans-Serif" font-size="10.00">inc/PMNS_SNSI.h</text>
</a>
</g>
</g>
<!-- Node1&#45;&gt;Node22 -->
<g id="edge23_Node000001_Node000022" class="edge">
<title>Node1&#45;&gt;Node22</title>
<g id="a_edge23_Node000001_Node000022"><a xlink:title=" ">
<path fill="none" stroke="#63b8ff" d="M1054.91,-226.09C1131.99,-216.67 1255.19,-201.3 1371.54,-185.33"/>
<polygon fill="#63b8ff" stroke="#63b8ff" points="1371.85,-188.82 1381.27,-183.99 1370.89,-181.89 1371.85,-188.82"/>
</a>
</g>
</g>
<!-- Node23 -->
<g id="Node000023" class="node">
<title>Node23</title>
<g id="a_Node000023"><a xlink:title=" ">
<polygon fill="#e0e0e0" stroke="#999999" points="1588.88,-185 1499.38,-185 1499.38,-165.75 1588.88,-165.75 1588.88,-185"/>
<text text-anchor="middle" x="1544.12" y="-171.5" font-family="Helvetica,sans-Serif" font-size="10.00">inc/PMNS_LIV.h</text>
</a>
</g>
</g>
<!-- Node1&#45;&gt;Node23 -->
<g id="edge24_Node000001_Node000023" class="edge">
<title>Node1&#45;&gt;Node23</title>
<g id="a_edge24_Node000001_Node000023"><a xlink:title=" ">
<path fill="none" stroke="#63b8ff" d="M1055.04,-229.23C1152.74,-221.15 1327.97,-205.58 1488.06,-185.19"/>
<polygon fill="#63b8ff" stroke="#63b8ff" points="1488.1,-188.72 1497.57,-183.97 1487.21,-181.77 1488.1,-188.72"/>
</a>
</g>
</g>
<!-- Node3 -->
<g id="Node000003" class="node">
<title>Node3</title>
<g id="a_Node000003"><a xlink:href="OscProbCalcerBase_8h.html" target="_top" xlink:title=" ">
<polygon fill="white" stroke="#666666" points="364.12,-129.75 252.12,-129.75 252.12,-110.5 364.12,-110.5 364.12,-129.75"/>
<text text-anchor="middle" x="308.12" y="-116.25" font-family="Helvetica,sans-Serif" font-size="10.00">OscProbCalcerBase.h</text>
</a>
</g>
</g>
<!-- Node2&#45;&gt;Node3 -->
<g id="edge2_Node000002_Node000003" class="edge">
<title>Node2&#45;&gt;Node3</title>
<g id="a_edge2_Node000002_Node000003"><a xlink:title=" ">
<path fill="none" stroke="#63b8ff" d="M409.43,-165.34C390.24,-156.97 361.41,-144.38 339.41,-134.78"/>
<polygon fill="#63b8ff" stroke="#63b8ff" points="340.87,-131.6 330.31,-130.81 338.07,-138.02 340.87,-131.6"/>
</a>
</g>
</g>
<!-- Node12 -->
<g id="Node000012" class="node">
<title>Node12</title>
<g id="a_Node000012"><a xlink:title=" ">
<polygon fill="#e0e0e0" stroke="#999999" points="478.25,-129.75 382,-129.75 382,-110.5 478.25,-110.5 478.25,-129.75"/>
<text text-anchor="middle" x="430.12" y="-116.25" font-family="Helvetica,sans-Serif" font-size="10.00">inc/PMNS_Base.h</text>
</a>
</g>
</g>
<!-- Node2&#45;&gt;Node12 -->
<g id="edge13_Node000002_Node000012" class="edge">
<title>Node2&#45;&gt;Node12</title>
<g id="a_edge13_Node000002_Node000012"><a xlink:title=" ">
<path fill="none" stroke="#63b8ff" d="M430.12,-165.58C430.12,-159.07 430.12,-149.92 430.12,-141.62"/>
<polygon fill="#63b8ff" stroke="#63b8ff" points="433.63,-141.62 430.13,-131.62 426.63,-141.62 433.63,-141.62"/>
</a>
</g>
</g>
<!-- Node13 -->
<g id="Node000013" class="node">
<title>Node13</title>
<g id="a_Node000013"><a xlink:title=" ">
<polygon fill="#e0e0e0" stroke="#999999" points="585.5,-129.75 496.75,-129.75 496.75,-110.5 585.5,-110.5 585.5,-129.75"/>
<text text-anchor="middle" x="541.12" y="-116.25" font-family="Helvetica,sans-Serif" font-size="10.00">inc/PremModel.h</text>
</a>
</g>
</g>
<!-- Node2&#45;&gt;Node13 -->
<g id="edge14_Node000002_Node000013" class="edge">
<title>Node2&#45;&gt;Node13</title>
<g id="a_edge14_Node000002_Node000013"><a xlink:title=" ">
<path fill="none" stroke="#63b8ff" d="M448.95,-165.34C466.18,-157.08 491.93,-144.73 511.83,-135.18"/>
<polygon fill="#63b8ff" stroke="#63b8ff" points="513.34,-138.34 520.84,-130.86 510.31,-132.03 513.34,-138.34"/>
</a>
</g>
</g>
<!-- Node4 -->
<g id="Node000004" class="node">
<title>Node4</title>
<g id="a_Node000004"><a xlink:href="OscillatorConstants_8h.html" target="_top" xlink:title=" ">
<polygon fill="white" stroke="#666666" points="261.25,-74.5 105,-74.5 105,-55.25 261.25,-55.25 261.25,-74.5"/>
<text text-anchor="middle" x="183.12" y="-61" font-family="Helvetica,sans-Serif" font-size="10.00">Constants/OscillatorConstants.h</text>
</a>
</g>
</g>
<!-- Node3&#45;&gt;Node4 -->
<g id="edge3_Node000003_Node000004" class="edge">
<title>Node3&#45;&gt;Node4</title>
<g id="a_edge3_Node000003_Node000004"><a xlink:title=" ">
<path fill="none" stroke="#63b8ff" d="M286.92,-110.09C267.17,-101.68 237.45,-89.02 214.87,-79.4"/>
<polygon fill="#63b8ff" stroke="#63b8ff" points="216.4,-76.24 205.83,-75.55 213.65,-82.68 216.4,-76.24"/>
</a>
</g>
</g>
<!-- Node8 -->
<g id="Node000008" class="node">
<title>Node8</title>
<g id="a_Node000008"><a xlink:title=" ">
<polygon fill="#e0e0e0" stroke="#999999" points="298.12,-19.25 258.12,-19.25 258.12,0 298.12,0 298.12,-19.25"/>
<text text-anchor="middle" x="278.12" y="-5.75" font-family="Helvetica,sans-Serif" font-size="10.00">string</text>
</a>
</g>
</g>
<!-- Node3&#45;&gt;Node8 -->
<g id="edge11_Node000003_Node000008" class="edge">
<title>Node3&#45;&gt;Node8</title>
<g id="a_edge11_Node000003_Node000008"><a xlink:title=" ">
<path fill="none" stroke="#63b8ff" d="M305.67,-110.25C300.88,-92.92 290.18,-54.23 283.62,-30.49"/>
<polygon fill="#63b8ff" stroke="#63b8ff" points="287.06,-29.79 281.02,-21.09 280.31,-31.66 287.06,-29.79"/>
</a>
</g>
</g>
<!-- Node10 -->
<g id="Node000010" class="node">
<title>Node10</title>
<g id="a_Node000010"><a xlink:title=" ">
<polygon fill="#e0e0e0" stroke="#999999" points="359.62,-19.25 316.62,-19.25 316.62,0 359.62,0 359.62,-19.25"/>
<text text-anchor="middle" x="338.12" y="-5.75" font-family="Helvetica,sans-Serif" font-size="10.00">vector</text>
</a>
</g>
</g>
<!-- Node3&#45;&gt;Node10 -->
<g id="edge10_Node000003_Node000010" class="edge">
<title>Node3&#45;&gt;Node10</title>
<g id="a_edge10_Node000003_Node000010"><a xlink:title=" ">
<path fill="none" stroke="#63b8ff" d="M310.58,-110.25C315.37,-92.92 326.07,-54.23 332.63,-30.49"/>
<polygon fill="#63b8ff" stroke="#63b8ff" points="335.94,-31.66 335.23,-21.09 329.19,-29.79 335.94,-31.66"/>
</a>
</g>
</g>
<!-- Node11 -->
<g id="Node000011" class="node">
<title>Node11</title>
<g id="a_Node000011"><a xlink:title=" ">
<polygon fill="#e0e0e0" stroke="#999999" points="441,-74.5 355.25,-74.5 355.25,-55.25 441,-55.25 441,-74.5"/>
<text text-anchor="middle" x="398.12" y="-61" font-family="Helvetica,sans-Serif" font-size="10.00">yaml&#45;cpp/yaml.h</text>
</a>
</g>
</g>
<!-- Node3&#45;&gt;Node11 -->
<g id="edge12_Node000003_Node000011" class="edge">
<title>Node3&#45;&gt;Node11</title>
<g id="a_edge12_Node000003_Node000011"><a xlink:title=" ">
<path fill="none" stroke="#63b8ff" d="M323.39,-110.09C336.97,-102.06 357.08,-90.16 373.02,-80.73"/>
<polygon fill="#63b8ff" stroke="#63b8ff" points="374.66,-83.83 381.48,-75.72 371.09,-77.8 374.66,-83.83"/>
</a>
</g>
</g>
<!-- Node5 -->
<g id="Node000005" class="node">
<title>Node5</title>
<g id="a_Node000005"><a xlink:title=" ">
<polygon fill="#e0e0e0" stroke="#999999" points="176.75,-19.25 131.5,-19.25 131.5,0 176.75,0 176.75,-19.25"/>
<text text-anchor="middle" x="154.12" y="-5.75" font-family="Helvetica,sans-Serif" font-size="10.00">math.h</text>
</a>
</g>
</g>
<!-- Node4&#45;&gt;Node5 -->
<g id="edge4_Node000004_Node000005" class="edge">
<title>Node4&#45;&gt;Node5</title>
<g id="a_edge4_Node000004_Node000005"><a xlink:title=" ">
<path fill="none" stroke="#63b8ff" d="M178.34,-55.08C174.58,-48.19 169.22,-38.34 164.49,-29.66"/>
<polygon fill="#63b8ff" stroke="#63b8ff" points="167.6,-28.05 159.74,-20.94 161.45,-31.39 167.6,-28.05"/>
</a>
</g>
</g>
<!-- Node6 -->
<g id="Node000006" class="node">
<title>Node6</title>
<g id="a_Node000006"><a xlink:title=" ">
<polygon fill="#e0e0e0" stroke="#999999" points="239.75,-19.25 194.5,-19.25 194.5,0 239.75,0 239.75,-19.25"/>
<text text-anchor="middle" x="217.12" y="-5.75" font-family="Helvetica,sans-Serif" font-size="10.00">TFile.h</text>
</a>
</g>
</g>
<!-- Node4&#45;&gt;Node6 -->
<g id="edge5_Node000004_Node000006" class="edge">
<title>Node4&#45;&gt;Node6</title>
<g id="a_edge5_Node000004_Node000006"><a xlink:title=" ">
<path fill="none" stroke="#63b8ff" d="M188.74,-55.08C193.24,-48.03 199.71,-37.9 205.34,-29.08"/>
<polygon fill="#63b8ff" stroke="#63b8ff" points="208.14,-31.2 210.57,-20.88 202.24,-27.43 208.14,-31.2"/>
</a>
</g>
</g>
<!-- Node7 -->
<g id="Node000007" class="node">
<title>Node7</title>
<g id="a_Node000007"><a xlink:title=" ">
<polygon fill="#e0e0e0" stroke="#999999" points="42.25,-19.25 0,-19.25 0,0 42.25,0 42.25,-19.25"/>
<text text-anchor="middle" x="21.12" y="-5.75" font-family="Helvetica,sans-Serif" font-size="10.00">TH1.h</text>
</a>
</g>
</g>
<!-- Node4&#45;&gt;Node7 -->
<g id="edge6_Node000004_Node000007" class="edge">
<title>Node4&#45;&gt;Node7</title>
<g id="a_edge6_Node000004_Node000007"><a xlink:title=" ">
<path fill="none" stroke="#63b8ff" d="M155.64,-54.84C127.31,-45.53 83.15,-31.01 53.23,-21.18"/>
<polygon fill="#63b8ff" stroke="#63b8ff" points="54.55,-17.93 43.96,-18.13 52.36,-24.58 54.55,-17.93"/>
</a>
</g>
</g>
<!-- Node4&#45;&gt;Node8 -->
<g id="edge7_Node000004_Node000008" class="edge">
<title>Node4&#45;&gt;Node8</title>
<g id="a_edge7_Node000004_Node000008"><a xlink:title=" ">
<path fill="none" stroke="#63b8ff" d="M199.24,-54.84C213.71,-46.73 235.2,-34.68 252.11,-25.21"/>
<polygon fill="#63b8ff" stroke="#63b8ff" points="253.6,-28.39 260.61,-20.44 250.18,-22.28 253.6,-28.39"/>
</a>
</g>
</g>
<!-- Node9 -->
<g id="Node000009" class="node">
<title>Node9</title>
<g id="a_Node000009"><a xlink:title=" ">
<polygon fill="#e0e0e0" stroke="#999999" points="113.88,-19.25 60.38,-19.25 60.38,0 113.88,0 113.88,-19.25"/>
<text text-anchor="middle" x="87.12" y="-5.75" font-family="Helvetica,sans-Serif" font-size="10.00">iostream</text>
</a>
</g>
</g>
<!-- Node4&#45;&gt;Node9 -->
<g id="edge8_Node000004_Node000009" class="edge">
<title>Node4&#45;&gt;Node9</title>
<g id="a_edge8_Node000004_Node000009"><a xlink:title=" ">
<path fill="none" stroke="#63b8ff" d="M166.84,-54.84C152.22,-46.73 130.5,-34.68 113.42,-25.21"/>
<polygon fill="#63b8ff" stroke="#63b8ff" points="115.26,-22.23 104.81,-20.44 111.86,-28.35 115.26,-22.23"/>
</a>
</g>
</g>
<!-- Node4&#45;&gt;Node10 -->
<g id="edge9_Node000004_Node000010" class="edge">
<title>Node4&#45;&gt;Node10</title>
<g id="a_edge9_Node000004_Node000010"><a xlink:title=" ">
<path fill="none" stroke="#63b8ff" d="M209.42,-54.84C235.95,-45.73 276.98,-31.63 305.56,-21.81"/>
<polygon fill="#63b8ff" stroke="#63b8ff" points="306.47,-25.2 314.79,-18.64 304.19,-18.58 306.47,-25.2"/>
</a>
</g>
</g>
</g>
</svg>

<g id="navigator" transform="translate(0 0)" fill="#404254">
  <rect fill="#f2f5e9" fill-opacity="0.5" stroke="#606060" stroke-width=".5" x="0" y="0" width="60" height="60"/>
  <use id="zoomplus" xlink:href="#zoomPlus" x="17" y="9" onmousedown="handleZoom(evt,'in')"/>
  <use id="zoomminus" xlink:href="#zoomMin" x="42" y="9" onmousedown="handleZoom(evt,'out')"/>
  <use id="reset" xlink:href="#resetDef" x="30" y="36" onmousedown="handleReset()"/>
   <use id="arrowup" xlink:href="#arrowUp" x="0" y="0" onmousedown="handlePan(0,-1)"/>
  <use id="arrowright" xlink:href="#arrowRight" x="0" y="0" onmousedown="handlePan(1,0)"/>
  <use id="arrowdown" xlink:href="#arrowDown" x="0" y="0" onmousedown="handlePan(0,1)"/>
  <use id="arrowleft" xlink:href="#arrowLeft" x="0" y="0" onmousedown="handlePan(-1,0)"/>
</g>
<svg viewBox="0 0 15 15" width="100%" height="30px" preserveAspectRatio="xMaxYMin meet">
 <g id="arrow_out" transform="scale(0.3 0.3)">
  <a xlink:href="OscProbCalcer__OscProb_8cpp__incl_org.svg" target="_base">
   <rect id="button" ry="5" rx="5" y="6" x="6" height="38" width="38"
        fill="#f2f5e9" fill-opacity="0.5" stroke="#606060" stroke-width="1.0"/>
   <path id="arrow"
     d="M 11.500037,31.436501 C 11.940474,20.09759 22.043105,11.32322 32.158766,21.979434 L 37.068811,17.246167 C 37.068811,17.246167 37.088388,32 37.088388,32 L 22.160133,31.978069 C 22.160133,31.978069 26.997745,27.140456 26.997745,27.140456 C 18.528582,18.264221 13.291696,25.230495 11.500037,31.436501 z"
     style="fill:#404040;"/>
  </a>
 </g>
</svg>

<style type='text/css'>
<![CDATA[
[data-mouse-over-selected='false'] { opacity: 0.7; }
[data-mouse-over-selected='true']  { opacity: 1.0; }
]]>
</style>
<script type="application/ecmascript"><![CDATA[
document.addEventListener('DOMContentLoaded', (event) => {
  highlightEdges();
  highlightAdjacentNodes();
});
]]></script>
</svg>
