<?xml version="1.0" encoding="UTF-8" standalone="no"?>
<!DOCTYPE svg PUBLIC "-//W3C//DTD SVG 1.1//EN"
 "http://www.w3.org/Graphics/SVG/1.1/DTD/svg11.dtd">
<!-- Generated by graphviz version 9.0.0 (20230911.1827)
 -->
<!-- Title: OscProbCalcer/OscProbCalcer_NuSQUIDSLinear.cpp Pages: 1 -->
<svg width="685pt" height="271pt"
 viewBox="0.00 0.00 685.38 270.75" xmlns="http://www.w3.org/2000/svg" xmlns:xlink="http://www.w3.org/1999/xlink">
<g id="graph0" class="graph" transform="scale(1 1) rotate(0) translate(4 266.75)">
<title>OscProbCalcer/OscProbCalcer_NuSQUIDSLinear.cpp</title>
<!-- Node1 -->
<g id="Node000001" class="node">
<title>Node1</title>
<g id="a_Node000001"><a xlink:title=" ">
<polygon fill="#999999" stroke="#666666" points="202.25,-262.75 51.25,-262.75 51.25,-232.25 202.25,-232.25 202.25,-262.75"/>
<text text-anchor="start" x="59.25" y="-249.25" font-family="Helvetica,sans-Serif" font-size="10.00">OscProbCalcer/OscProbCalcer</text>
<text text-anchor="middle" x="126.75" y="-238" font-family="Helvetica,sans-Serif" font-size="10.00">_NuSQUIDSLinear.cpp</text>
</a>
</g>
</g>
<!-- Node2 -->
<g id="Node000002" class="node">
<title>Node2</title>
<g id="a_Node000002"><a xlink:href="OscProbCalcer__NuSQUIDSLinear_8h.html" target="_top" xlink:title=" ">
<polygon fill="white" stroke="#666666" points="374.12,-196.25 201.38,-196.25 201.38,-177 374.12,-177 374.12,-196.25"/>
<text text-anchor="middle" x="287.75" y="-182.75" font-family="Helvetica,sans-Serif" font-size="10.00">OscProbCalcer_NuSQUIDSLinear.h</text>
</a>
</g>
</g>
<!-- Node1&#45;&gt;Node2 -->
<g id="edge1_Node000001_Node000002" class="edge">
<title>Node1&#45;&gt;Node2</title>
<g id="a_edge1_Node000001_Node000002"><a xlink:title=" ">
<path fill="none" stroke="#63b8ff" d="M166.96,-231.8C193.25,-222.18 227.26,-209.75 252.49,-200.52"/>
<polygon fill="#63b8ff" stroke="#63b8ff" points="253.45,-203.9 261.64,-197.17 251.04,-197.32 253.45,-203.9"/>
</a>
</g>
</g>
<!-- Node10 -->
<g id="Node000010" class="node">
<title>Node10</title>
<g id="a_Node000010"><a xlink:title=" ">
<polygon fill="#e0e0e0" stroke="#999999" points="53.5,-19.25 0,-19.25 0,0 53.5,0 53.5,-19.25"/>
<text text-anchor="middle" x="26.75" y="-5.75" font-family="Helvetica,sans-Serif" font-size="10.00">iostream</text>
</a>
</g>
</g>
<!-- Node1&#45;&gt;Node10 -->
<g id="edge18_Node000001_Node000010" class="edge">
<title>Node1&#45;&gt;Node10</title>
<g id="a_edge18_Node000001_Node000010"><a xlink:title=" ">
<path fill="none" stroke="#63b8ff" d="M111.63,-232.03C92.82,-213.04 61.3,-177.8 45.75,-141 30.29,-104.41 27.06,-57.47 26.58,-31.06"/>
<polygon fill="#63b8ff" stroke="#63b8ff" points="30.08,-31.07 26.54,-21.09 23.08,-31.1 30.08,-31.07"/>
</a>
</g>
</g>
<!-- Node3 -->
<g id="Node000003" class="node">
<title>Node3</title>
<g id="a_Node000003"><a xlink:href="OscProbCalcerBase_8h.html" target="_top" xlink:title=" ">
<polygon fill="white" stroke="#666666" points="404.75,-135.38 292.75,-135.38 292.75,-116.12 404.75,-116.12 404.75,-135.38"/>
<text text-anchor="middle" x="348.75" y="-121.88" font-family="Helvetica,sans-Serif" font-size="10.00">OscProbCalcerBase.h</text>
</a>
</g>
</g>
<!-- Node2&#45;&gt;Node3 -->
<g id="edge2_Node000002_Node000003" class="edge">
<title>Node2&#45;&gt;Node3</title>
<g id="a_edge2_Node000002_Node000003"><a xlink:title=" ">
<path fill="none" stroke="#63b8ff" d="M297.01,-176.68C306.06,-167.95 320.06,-154.44 331.21,-143.68"/>
<polygon fill="#63b8ff" stroke="#63b8ff" points="333.54,-146.29 338.31,-136.83 328.68,-141.25 333.54,-146.29"/>
</a>
</g>
</g>
<!-- Node12 -->
<g id="Node000012" class="node">
<title>Node12</title>
<g id="a_Node000012"><a xlink:title=" ">
<polygon fill="#e0e0e0" stroke="#999999" points="542.5,-135.38 423,-135.38 423,-116.12 542.5,-116.12 542.5,-135.38"/>
<text text-anchor="middle" x="482.75" y="-121.88" font-family="Helvetica,sans-Serif" font-size="10.00">nuSQuIDS/nuSQuIDS.h</text>
</a>
</g>
</g>
<!-- Node2&#45;&gt;Node12 -->
<g id="edge14_Node000002_Node000012" class="edge">
<title>Node2&#45;&gt;Node12</title>
<g id="a_edge14_Node000002_Node000012"><a xlink:title=" ">
<path fill="none" stroke="#63b8ff" d="M317.79,-176.55C351,-166.53 404.69,-150.32 441.75,-139.13"/>
<polygon fill="#63b8ff" stroke="#63b8ff" points="442.66,-142.51 451.23,-136.27 440.64,-135.81 442.66,-142.51"/>
</a>
</g>
</g>
<!-- Node13 -->
<g id="Node000013" class="node">
<title>Node13</title>
<g id="a_Node000013"><a xlink:title=" ">
<polygon fill="#e0e0e0" stroke="#999999" points="677.38,-141 560.12,-141 560.12,-110.5 677.38,-110.5 677.38,-141"/>
<text text-anchor="start" x="568.12" y="-127.5" font-family="Helvetica,sans-Serif" font-size="10.00">examples/Decoherence</text>
<text text-anchor="middle" x="618.75" y="-116.25" font-family="Helvetica,sans-Serif" font-size="10.00">/nuSQUIDSDecoh.h</text>
</a>
</g>
</g>
<!-- Node2&#45;&gt;Node13 -->
<g id="edge15_Node000002_Node000013" class="edge">
<title>Node2&#45;&gt;Node13</title>
<g id="a_edge15_Node000002_Node000013"><a xlink:title=" ">
<path fill="none" stroke="#63b8ff" d="M345.81,-176.53C396.88,-168.37 473.49,-155.73 548.85,-141.51"/>
<polygon fill="#63b8ff" stroke="#63b8ff" points="549.29,-144.99 558.47,-139.68 547.99,-138.11 549.29,-144.99"/>
</a>
</g>
</g>
<!-- Node14 -->
<g id="Node000014" class="node">
<title>Node14</title>
<g id="a_Node000014"><a xlink:title=" ">
<polygon fill="#e0e0e0" stroke="#999999" points="160.38,-135.38 55.12,-135.38 55.12,-116.12 160.38,-116.12 160.38,-135.38"/>
<text text-anchor="middle" x="107.75" y="-121.88" font-family="Helvetica,sans-Serif" font-size="10.00">examples/NSI/NSI.h</text>
</a>
</g>
</g>
<!-- Node2&#45;&gt;Node14 -->
<g id="edge16_Node000002_Node000014" class="edge">
<title>Node2&#45;&gt;Node14</title>
<g id="a_edge16_Node000002_Node000014"><a xlink:title=" ">
<path fill="none" stroke="#63b8ff" d="M260.02,-176.55C229.5,-166.57 180.23,-150.46 146.04,-139.27"/>
<polygon fill="#63b8ff" stroke="#63b8ff" points="147.54,-136.08 136.95,-136.3 145.37,-142.74 147.54,-136.08"/>
</a>
</g>
</g>
<!-- Node15 -->
<g id="Node000015" class="node">
<title>Node15</title>
<g id="a_Node000015"><a xlink:title=" ">
<polygon fill="#e0e0e0" stroke="#999999" points="274.88,-135.38 178.62,-135.38 178.62,-116.12 274.88,-116.12 274.88,-135.38"/>
<text text-anchor="middle" x="226.75" y="-121.88" font-family="Helvetica,sans-Serif" font-size="10.00">examples/LV/LV.h</text>
</a>
</g>
</g>
<!-- Node2&#45;&gt;Node15 -->
<g id="edge17_Node000002_Node000015" class="edge">
<title>Node2&#45;&gt;Node15</title>
<g id="a_edge17_Node000002_Node000015"><a xlink:title=" ">
<path fill="none" stroke="#63b8ff" d="M278.49,-176.68C269.44,-167.95 255.44,-154.44 244.29,-143.68"/>
<polygon fill="#63b8ff" stroke="#63b8ff" points="246.82,-141.25 237.19,-136.83 241.96,-146.29 246.82,-141.25"/>
</a>
</g>
</g>
<!-- Node4 -->
<g id="Node000004" class="node">
<title>Node4</title>
<g id="a_Node000004"><a xlink:href="OscillatorConstants_8h.html" target="_top" xlink:title=" ">
<polygon fill="white" stroke="#666666" points="310.88,-74.5 154.62,-74.5 154.62,-55.25 310.88,-55.25 310.88,-74.5"/>
<text text-anchor="middle" x="232.75" y="-61" font-family="Helvetica,sans-Serif" font-size="10.00">Constants/OscillatorConstants.h</text>
</a>
</g>
</g>
<!-- Node3&#45;&gt;Node4 -->
<g id="edge3_Node000003_Node000004" class="edge">
<title>Node3&#45;&gt;Node4</title>
<g id="a_edge3_Node000003_Node000004"><a xlink:title=" ">
<path fill="none" stroke="#63b8ff" d="M330.88,-115.68C312.09,-106.14 282.29,-91.02 260.45,-79.93"/>
<polygon fill="#63b8ff" stroke="#63b8ff" points="262.3,-76.95 251.8,-75.54 259.13,-83.19 262.3,-76.95"/>
</a>
</g>
</g>
<!-- Node6 -->
<g id="Node000006" class="node">
<title>Node6</title>
<g id="a_Node000006"><a xlink:title=" ">
<polygon fill="#e0e0e0" stroke="#999999" points="405.62,-19.25 319.88,-19.25 319.88,0 405.62,0 405.62,-19.25"/>
<text text-anchor="middle" x="362.75" y="-5.75" font-family="Helvetica,sans-Serif" font-size="10.00">yaml&#45;cpp/yaml.h</text>
</a>
</g>
</g>
<!-- Node3&#45;&gt;Node6 -->
<g id="edge13_Node000003_Node000006" class="edge">
<title>Node3&#45;&gt;Node6</title>
<g id="a_edge13_Node000003_Node000006"><a xlink:title=" ">
<path fill="none" stroke="#63b8ff" d="M349.85,-115.79C352.08,-97.63 357.18,-56.04 360.26,-30.95"/>
<polygon fill="#63b8ff" stroke="#63b8ff" points="363.73,-31.39 361.47,-21.04 356.78,-30.54 363.73,-31.39"/>
</a>
</g>
</g>
<!-- Node9 -->
<g id="Node000009" class="node">
<title>Node9</title>
<g id="a_Node000009"><a xlink:title=" ">
<polygon fill="#e0e0e0" stroke="#999999" points="463.75,-19.25 423.75,-19.25 423.75,0 463.75,0 463.75,-19.25"/>
<text text-anchor="middle" x="443.75" y="-5.75" font-family="Helvetica,sans-Serif" font-size="10.00">string</text>
</a>
</g>
</g>
<!-- Node3&#45;&gt;Node9 -->
<g id="edge12_Node000003_Node000009" class="edge">
<title>Node3&#45;&gt;Node9</title>
<g id="a_edge12_Node000003_Node000009"><a xlink:title=" ">
<path fill="none" stroke="#63b8ff" d="M356.2,-115.79C371.88,-96.96 408.51,-52.96 429.08,-28.25"/>
<polygon fill="#63b8ff" stroke="#63b8ff" points="431.65,-30.63 435.36,-20.7 426.27,-26.15 431.65,-30.63"/>
</a>
</g>
</g>
<!-- Node11 -->
<g id="Node000011" class="node">
<title>Node11</title>
<g id="a_Node000011"><a xlink:title=" ">
<polygon fill="#e0e0e0" stroke="#999999" points="114.25,-19.25 71.25,-19.25 71.25,0 114.25,0 114.25,-19.25"/>
<text text-anchor="middle" x="92.75" y="-5.75" font-family="Helvetica,sans-Serif" font-size="10.00">vector</text>
</a>
</g>
</g>
<!-- Node3&#45;&gt;Node11 -->
<g id="edge11_Node000003_Node000011" class="edge">
<title>Node3&#45;&gt;Node11</title>
<g id="a_edge11_Node000003_Node000011"><a xlink:title=" ">
<path fill="none" stroke="#63b8ff" d="M309.42,-115.68C252.4,-102.44 152.75,-78.89 145.75,-74.5 127.68,-63.16 112.78,-43.57 103.43,-29.07"/>
<polygon fill="#63b8ff" stroke="#63b8ff" points="106.63,-27.59 98.43,-20.89 100.66,-31.24 106.63,-27.59"/>
</a>
</g>
</g>
<!-- Node5 -->
<g id="Node000005" class="node">
<title>Node5</title>
<g id="a_Node000005"><a xlink:title=" ">
<polygon fill="#e0e0e0" stroke="#999999" points="301.38,-19.25 256.12,-19.25 256.12,0 301.38,0 301.38,-19.25"/>
<text text-anchor="middle" x="278.75" y="-5.75" font-family="Helvetica,sans-Serif" font-size="10.00">math.h</text>
</a>
</g>
</g>
<!-- Node4&#45;&gt;Node5 -->
<g id="edge4_Node000004_Node000005" class="edge">
<title>Node4&#45;&gt;Node5</title>
<g id="a_edge4_Node000004_Node000005"><a xlink:title=" ">
<path fill="none" stroke="#63b8ff" d="M240.35,-55.08C246.63,-47.8 255.76,-37.23 263.55,-28.23"/>
<polygon fill="#63b8ff" stroke="#63b8ff" points="266.11,-30.61 270,-20.75 260.81,-26.03 266.11,-30.61"/>
</a>
</g>
</g>
<!-- Node4&#45;&gt;Node6 -->
<g id="edge5_Node000004_Node000006" class="edge">
<title>Node4&#45;&gt;Node6</title>
<g id="a_edge5_Node000004_Node000006"><a xlink:title=" ">
<path fill="none" stroke="#63b8ff" d="M254.8,-54.84C275.44,-46.39 306.53,-33.65 330.05,-24.02"/>
<polygon fill="#63b8ff" stroke="#63b8ff" points="331.26,-27.31 339.19,-20.28 328.61,-20.83 331.26,-27.31"/>
</a>
</g>
</g>
<!-- Node7 -->
<g id="Node000007" class="node">
<title>Node7</title>
<g id="a_Node000007"><a xlink:title=" ">
<polygon fill="#e0e0e0" stroke="#999999" points="177.38,-19.25 132.12,-19.25 132.12,0 177.38,0 177.38,-19.25"/>
<text text-anchor="middle" x="154.75" y="-5.75" font-family="Helvetica,sans-Serif" font-size="10.00">TFile.h</text>
</a>
</g>
</g>
<!-- Node4&#45;&gt;Node7 -->
<g id="edge6_Node000004_Node000007" class="edge">
<title>Node4&#45;&gt;Node7</title>
<g id="a_edge6_Node000004_Node000007"><a xlink:title=" ">
<path fill="none" stroke="#63b8ff" d="M219.52,-54.84C207.98,-46.96 190.98,-35.36 177.3,-26.02"/>
<polygon fill="#63b8ff" stroke="#63b8ff" points="179.53,-23.3 169.3,-20.56 175.58,-29.08 179.53,-23.3"/>
</a>
</g>
</g>
<!-- Node8 -->
<g id="Node000008" class="node">
<title>Node8</title>
<g id="a_Node000008"><a xlink:title=" ">
<polygon fill="#e0e0e0" stroke="#999999" points="237.88,-19.25 195.62,-19.25 195.62,0 237.88,0 237.88,-19.25"/>
<text text-anchor="middle" x="216.75" y="-5.75" font-family="Helvetica,sans-Serif" font-size="10.00">TH1.h</text>
</a>
</g>
</g>
<!-- Node4&#45;&gt;Node8 -->
<g id="edge7_Node000004_Node000008" class="edge">
<title>Node4&#45;&gt;Node8</title>
<g id="a_edge7_Node000004_Node000008"><a xlink:title=" ">
<path fill="none" stroke="#63b8ff" d="M230.11,-55.08C228.11,-48.42 225.27,-38.99 222.73,-30.53"/>
<polygon fill="#63b8ff" stroke="#63b8ff" points="226.11,-29.63 219.89,-21.06 219.41,-31.64 226.11,-29.63"/>
</a>
</g>
</g>
<!-- Node4&#45;&gt;Node9 -->
<g id="edge8_Node000004_Node000009" class="edge">
<title>Node4&#45;&gt;Node9</title>
<g id="a_edge8_Node000004_Node000009"><a xlink:title=" ">
<path fill="none" stroke="#63b8ff" d="M272.3,-54.76C306.95,-46.65 358.92,-34.17 412.72,-19.7"/>
<polygon fill="#63b8ff" stroke="#63b8ff" points="413.31,-23.17 422.04,-17.18 411.48,-16.41 413.31,-23.17"/>
</a>
</g>
</g>
<!-- Node4&#45;&gt;Node10 -->
<g id="edge9_Node000004_Node000010" class="edge">
<title>Node4&#45;&gt;Node10</title>
<g id="a_edge9_Node000004_Node000010"><a xlink:title=" ">
<path fill="none" stroke="#63b8ff" d="M197.8,-54.84C160.98,-45.32 103.14,-30.37 65.09,-20.53"/>
<polygon fill="#63b8ff" stroke="#63b8ff" points="65.98,-17.15 55.42,-18.04 64.23,-23.93 65.98,-17.15"/>
</a>
</g>
</g>
<!-- Node4&#45;&gt;Node11 -->
<g id="edge10_Node000004_Node000011" class="edge">
<title>Node4&#45;&gt;Node11</title>
<g id="a_edge10_Node000004_Node000011"><a xlink:title=" ">
<path fill="none" stroke="#63b8ff" d="M209,-54.84C185.9,-46.05 150.62,-32.64 124.99,-22.89"/>
<polygon fill="#63b8ff" stroke="#63b8ff" points="126.32,-19.65 115.73,-19.36 123.83,-26.19 126.32,-19.65"/>
</a>
</g>
</g>
</g>
</svg>
