<?xml version="1.0" encoding="UTF-8" standalone="no"?>
<!DOCTYPE svg PUBLIC "-//W3C//DTD SVG 1.1//EN"
 "http://www.w3.org/Graphics/SVG/1.1/DTD/svg11.dtd">
<!-- Generated by graphviz version 9.0.0 (20230911.1827)
 -->
<!-- Title: OscProbCalcer/OscProbCalcer_OscLibLinear.cpp Pages: 1 -->
<svg width="519pt" height="260pt"
 viewBox="0.00 0.00 519.25 259.50" xmlns="http://www.w3.org/2000/svg" xmlns:xlink="http://www.w3.org/1999/xlink">
<g id="graph0" class="graph" transform="scale(1 1) rotate(0) translate(4 255.5)">
<title>OscProbCalcer/OscProbCalcer_OscLibLinear.cpp</title>
<!-- Node1 -->
<g id="Node000001" class="node">
<title>Node1</title>
<g id="a_Node000001"><a xlink:title=" ">
<polygon fill="#999999" stroke="#666666" points="456.38,-251.5 305.38,-251.5 305.38,-221 456.38,-221 456.38,-251.5"/>
<text text-anchor="start" x="313.38" y="-238" font-family="Helvetica,sans-Serif" font-size="10.00">OscProbCalcer/OscProbCalcer</text>
<text text-anchor="middle" x="380.88" y="-226.75" font-family="Helvetica,sans-Serif" font-size="10.00">_OscLibLinear.cpp</text>
</a>
</g>
</g>
<!-- Node2 -->
<g id="Node000002" class="node">
<title>Node2</title>
<g id="a_Node000002"><a xlink:href="OscProbCalcer__OscLibLinear_8h.html" target="_top" xlink:title=" ">
<polygon fill="white" stroke="#666666" points="457.5,-185 304.25,-185 304.25,-165.75 457.5,-165.75 457.5,-185"/>
<text text-anchor="middle" x="380.88" y="-171.5" font-family="Helvetica,sans-Serif" font-size="10.00">OscProbCalcer_OscLibLinear.h</text>
</a>
</g>
</g>
<!-- Node1&#45;&gt;Node2 -->
<g id="edge1_Node000001_Node000002" class="edge">
<title>Node1&#45;&gt;Node2</title>
<g id="a_edge1_Node000001_Node000002"><a xlink:title=" ">
<path fill="none" stroke="#63b8ff" d="M380.88,-220.7C380.88,-213.46 380.88,-204.59 380.88,-196.69"/>
<polygon fill="#63b8ff" stroke="#63b8ff" points="384.38,-196.96 380.88,-186.96 377.38,-196.96 384.38,-196.96"/>
</a>
</g>
</g>
<!-- Node3 -->
<g id="Node000003" class="node">
<title>Node3</title>
<g id="a_Node000003"><a xlink:href="OscProbCalcerBase_8h.html" target="_top" xlink:title=" ">
<polygon fill="white" stroke="#666666" points="368.88,-129.75 256.88,-129.75 256.88,-110.5 368.88,-110.5 368.88,-129.75"/>
<text text-anchor="middle" x="312.88" y="-116.25" font-family="Helvetica,sans-Serif" font-size="10.00">OscProbCalcerBase.h</text>
</a>
</g>
</g>
<!-- Node2&#45;&gt;Node3 -->
<g id="edge2_Node000002_Node000003" class="edge">
<title>Node2&#45;&gt;Node3</title>
<g id="a_edge2_Node000002_Node000003"><a xlink:title=" ">
<path fill="none" stroke="#63b8ff" d="M369.34,-165.34C359.41,-157.57 344.86,-146.17 333.02,-136.9"/>
<polygon fill="#63b8ff" stroke="#63b8ff" points="335.46,-134.37 325.43,-130.96 331.15,-139.88 335.46,-134.37"/>
</a>
</g>
</g>
<!-- Node12 -->
<g id="Node000012" class="node">
<title>Node12</title>
<g id="a_Node000012"><a xlink:title=" ">
<polygon fill="#e0e0e0" stroke="#999999" points="511.25,-129.75 386.5,-129.75 386.5,-110.5 511.25,-110.5 511.25,-129.75"/>
<text text-anchor="middle" x="448.88" y="-116.25" font-family="Helvetica,sans-Serif" font-size="10.00">OscLib/OscCalcPMNS.h</text>
</a>
</g>
</g>
<!-- Node2&#45;&gt;Node12 -->
<g id="edge14_Node000002_Node000012" class="edge">
<title>Node2&#45;&gt;Node12</title>
<g id="a_edge14_Node000002_Node000012"><a xlink:title=" ">
<path fill="none" stroke="#63b8ff" d="M392.41,-165.34C402.34,-157.57 416.89,-146.17 428.73,-136.9"/>
<polygon fill="#63b8ff" stroke="#63b8ff" points="430.6,-139.88 436.32,-130.96 426.29,-134.37 430.6,-139.88"/>
</a>
</g>
</g>
<!-- Node4 -->
<g id="Node000004" class="node">
<title>Node4</title>
<g id="a_Node000004"><a xlink:href="OscillatorConstants_8h.html" target="_top" xlink:title=" ">
<polygon fill="white" stroke="#666666" points="338,-74.5 181.75,-74.5 181.75,-55.25 338,-55.25 338,-74.5"/>
<text text-anchor="middle" x="259.88" y="-61" font-family="Helvetica,sans-Serif" font-size="10.00">Constants/OscillatorConstants.h</text>
</a>
</g>
</g>
<!-- Node3&#45;&gt;Node4 -->
<g id="edge3_Node000003_Node000004" class="edge">
<title>Node3&#45;&gt;Node4</title>
<g id="a_edge3_Node000003_Node000004"><a xlink:title=" ">
<path fill="none" stroke="#63b8ff" d="M304.12,-110.33C296.73,-102.9 285.91,-92.04 276.83,-82.91"/>
<polygon fill="#63b8ff" stroke="#63b8ff" points="279.42,-80.55 269.88,-75.93 274.46,-85.49 279.42,-80.55"/>
</a>
</g>
</g>
<!-- Node6 -->
<g id="Node000006" class="node">
<title>Node6</title>
<g id="a_Node000006"><a xlink:title=" ">
<polygon fill="#e0e0e0" stroke="#999999" points="85.75,-19.25 0,-19.25 0,0 85.75,0 85.75,-19.25"/>
<text text-anchor="middle" x="42.88" y="-5.75" font-family="Helvetica,sans-Serif" font-size="10.00">yaml&#45;cpp/yaml.h</text>
</a>
</g>
</g>
<!-- Node3&#45;&gt;Node6 -->
<g id="edge13_Node000003_Node000006" class="edge">
<title>Node3&#45;&gt;Node6</title>
<g id="a_edge13_Node000003_Node000006"><a xlink:title=" ">
<path fill="none" stroke="#63b8ff" d="M279.57,-110.02C250.9,-101.82 208.61,-88.88 172.88,-74.5 136.13,-59.71 95.39,-38.94 69.48,-25.15"/>
<polygon fill="#63b8ff" stroke="#63b8ff" points="71.14,-22.07 60.68,-20.42 67.83,-28.23 71.14,-22.07"/>
</a>
</g>
</g>
<!-- Node9 -->
<g id="Node000009" class="node">
<title>Node9</title>
<g id="a_Node000009"><a xlink:title=" ">
<polygon fill="#e0e0e0" stroke="#999999" points="402.88,-19.25 362.88,-19.25 362.88,0 402.88,0 402.88,-19.25"/>
<text text-anchor="middle" x="382.88" y="-5.75" font-family="Helvetica,sans-Serif" font-size="10.00">string</text>
</a>
</g>
</g>
<!-- Node3&#45;&gt;Node9 -->
<g id="edge12_Node000003_Node000009" class="edge">
<title>Node3&#45;&gt;Node9</title>
<g id="a_edge12_Node000003_Node000009"><a xlink:title=" ">
<path fill="none" stroke="#63b8ff" d="M320.29,-110.16C327.45,-101.34 338.41,-87.35 346.88,-74.5 356.51,-59.86 366.19,-42.49 373.09,-29.57"/>
<polygon fill="#63b8ff" stroke="#63b8ff" points="376.1,-31.35 377.65,-20.87 369.91,-28.1 376.1,-31.35"/>
</a>
</g>
</g>
<!-- Node11 -->
<g id="Node000011" class="node">
<title>Node11</title>
<g id="a_Node000011"><a xlink:title=" ">
<polygon fill="#e0e0e0" stroke="#999999" points="464.38,-19.25 421.38,-19.25 421.38,0 464.38,0 464.38,-19.25"/>
<text text-anchor="middle" x="442.88" y="-5.75" font-family="Helvetica,sans-Serif" font-size="10.00">vector</text>
</a>
</g>
</g>
<!-- Node3&#45;&gt;Node11 -->
<g id="edge11_Node000003_Node000011" class="edge">
<title>Node3&#45;&gt;Node11</title>
<g id="a_edge11_Node000003_Node000011"><a xlink:title=" ">
<path fill="none" stroke="#63b8ff" d="M323.65,-110.26C334.57,-101.28 351.93,-86.96 366.88,-74.5 386.39,-58.23 408.63,-39.52 423.99,-26.57"/>
<polygon fill="#63b8ff" stroke="#63b8ff" points="426.03,-29.43 431.42,-20.31 421.52,-24.08 426.03,-29.43"/>
</a>
</g>
</g>
<!-- Node5 -->
<g id="Node000005" class="node">
<title>Node5</title>
<g id="a_Node000005"><a xlink:title=" ">
<polygon fill="#e0e0e0" stroke="#999999" points="344.5,-19.25 299.25,-19.25 299.25,0 344.5,0 344.5,-19.25"/>
<text text-anchor="middle" x="321.88" y="-5.75" font-family="Helvetica,sans-Serif" font-size="10.00">math.h</text>
</a>
</g>
</g>
<!-- Node4&#45;&gt;Node5 -->
<g id="edge4_Node000004_Node000005" class="edge">
<title>Node4&#45;&gt;Node5</title>
<g id="a_edge4_Node000004_Node000005"><a xlink:title=" ">
<path fill="none" stroke="#63b8ff" d="M270.39,-54.84C279.26,-47.22 292.19,-36.12 302.86,-26.95"/>
<polygon fill="#63b8ff" stroke="#63b8ff" points="305.06,-29.68 310.36,-20.51 300.5,-24.37 305.06,-29.68"/>
</a>
</g>
</g>
<!-- Node4&#45;&gt;Node6 -->
<g id="edge5_Node000004_Node000006" class="edge">
<title>Node4&#45;&gt;Node6</title>
<g id="a_edge5_Node000004_Node000006"><a xlink:title=" ">
<path fill="none" stroke="#63b8ff" d="M223.06,-54.84C186.67,-45.91 130.79,-32.2 90.92,-22.41"/>
<polygon fill="#63b8ff" stroke="#63b8ff" points="91.88,-19.05 81.34,-20.06 90.21,-25.85 91.88,-19.05"/>
</a>
</g>
</g>
<!-- Node7 -->
<g id="Node000007" class="node">
<title>Node7</title>
<g id="a_Node000007"><a xlink:title=" ">
<polygon fill="#e0e0e0" stroke="#999999" points="149.5,-19.25 104.25,-19.25 104.25,0 149.5,0 149.5,-19.25"/>
<text text-anchor="middle" x="126.88" y="-5.75" font-family="Helvetica,sans-Serif" font-size="10.00">TFile.h</text>
</a>
</g>
</g>
<!-- Node4&#45;&gt;Node7 -->
<g id="edge6_Node000004_Node000007" class="edge">
<title>Node4&#45;&gt;Node7</title>
<g id="a_edge6_Node000004_Node000007"><a xlink:title=" ">
<path fill="none" stroke="#63b8ff" d="M237.31,-54.84C216.1,-46.35 184.1,-33.54 160,-23.89"/>
<polygon fill="#63b8ff" stroke="#63b8ff" points="161.54,-20.73 150.95,-20.27 158.94,-27.23 161.54,-20.73"/>
</a>
</g>
</g>
<!-- Node8 -->
<g id="Node000008" class="node">
<title>Node8</title>
<g id="a_Node000008"><a xlink:title=" ">
<polygon fill="#e0e0e0" stroke="#999999" points="210,-19.25 167.75,-19.25 167.75,0 210,0 210,-19.25"/>
<text text-anchor="middle" x="188.88" y="-5.75" font-family="Helvetica,sans-Serif" font-size="10.00">TH1.h</text>
</a>
</g>
</g>
<!-- Node4&#45;&gt;Node8 -->
<g id="edge7_Node000004_Node000008" class="edge">
<title>Node4&#45;&gt;Node8</title>
<g id="a_edge7_Node000004_Node000008"><a xlink:title=" ">
<path fill="none" stroke="#63b8ff" d="M247.83,-54.84C237.47,-47.07 222.27,-35.67 209.91,-26.4"/>
<polygon fill="#63b8ff" stroke="#63b8ff" points="212.05,-23.63 201.95,-20.43 207.85,-29.23 212.05,-23.63"/>
</a>
</g>
</g>
<!-- Node4&#45;&gt;Node9 -->
<g id="edge8_Node000004_Node000009" class="edge">
<title>Node4&#45;&gt;Node9</title>
<g id="a_edge8_Node000004_Node000009"><a xlink:title=" ">
<path fill="none" stroke="#63b8ff" d="M280.74,-54.84C300.41,-46.32 330.13,-33.46 352.44,-23.8"/>
<polygon fill="#63b8ff" stroke="#63b8ff" points="353.55,-27.13 361.34,-19.95 350.77,-20.71 353.55,-27.13"/>
</a>
</g>
</g>
<!-- Node10 -->
<g id="Node000010" class="node">
<title>Node10</title>
<g id="a_Node000010"><a xlink:title=" ">
<polygon fill="#e0e0e0" stroke="#999999" points="281.62,-19.25 228.12,-19.25 228.12,0 281.62,0 281.62,-19.25"/>
<text text-anchor="middle" x="254.88" y="-5.75" font-family="Helvetica,sans-Serif" font-size="10.00">iostream</text>
</a>
</g>
</g>
<!-- Node4&#45;&gt;Node10 -->
<g id="edge9_Node000004_Node000010" class="edge">
<title>Node4&#45;&gt;Node10</title>
<g id="a_edge9_Node000004_Node000010"><a xlink:title=" ">
<path fill="none" stroke="#63b8ff" d="M259.05,-55.08C258.43,-48.49 257.56,-39.21 256.77,-30.82"/>
<polygon fill="#63b8ff" stroke="#63b8ff" points="260.28,-30.75 255.86,-21.12 253.31,-31.4 260.28,-30.75"/>
</a>
</g>
</g>
<!-- Node4&#45;&gt;Node11 -->
<g id="edge10_Node000004_Node000011" class="edge">
<title>Node4&#45;&gt;Node11</title>
<g id="a_edge10_Node000004_Node000011"><a xlink:title=" ">
<path fill="none" stroke="#63b8ff" d="M290.92,-54.84C324.08,-45.19 376.43,-29.96 410.21,-20.13"/>
<polygon fill="#63b8ff" stroke="#63b8ff" points="410.82,-23.6 419.44,-17.44 408.86,-16.88 410.82,-23.6"/>
</a>
</g>
</g>
</g>
</svg>
