<?xml version="1.0" encoding="UTF-8" standalone="no"?>
<!DOCTYPE svg PUBLIC "-//W3C//DTD SVG 1.1//EN"
 "http://www.w3.org/Graphics/SVG/1.1/DTD/svg11.dtd">
<!-- Generated by graphviz version 9.0.0 (20230911.1827)
 -->
<!-- Title: OscProbCalcer/OscProbCalcer_NuFASTLinear.cpp Pages: 1 -->
<!--zoomable 260 -->

<svg id="main" version="1.1" xmlns="http://www.w3.org/2000/svg" xmlns:xlink="http://www.w3.org/1999/xlink" xml:space="preserve" onload="init(evt)">
<style type="text/css"><![CDATA[
.node, .edge {opacity: 0.7;}
.node.selected, .edge.selected {opacity: 1;}
.edge:hover path { stroke: red; }
.edge:hover polygon { stroke: red; fill: red; }
]]></style>

<defs>
  <circle id="rim" cx="0" cy="0" r="7"/>
  <circle id="rim2" cx="0" cy="0" r="3.5"/>
  <g id="zoomPlus">
    <use xlink:href="#rim" fill="#404040"><set attributeName="fill" to="#808080" begin="zoomplus.mouseover" end="zoomplus.mouseout"/></use>
    <path d="M-4,0h8M0,-4v8" fill="none" stroke="white" stroke-width="1.5" pointer-events="none"/>
  </g>
  <g id="zoomMin">
    <use xlink:href="#rim" fill="#404040"><set attributeName="fill" to="#808080" begin="zoomminus.mouseover" end="zoomminus.mouseout"/></use>
    <path d="M-4,0h8" fill="none" stroke="white" stroke-width="1.5" pointer-events="none"/>
  </g>
  <g id="arrowUp" transform="translate(30 24)">
    <use xlink:href="#rim"/>
    <path pointer-events="none" fill="none" stroke="white" stroke-width="1.5" d="M0,-3.0v7 M-2.5,-0.5L0,-3.0L2.5,-0.5"/>
  </g>
  <g id="arrowRight" transform="rotate(90) translate(36 -43)">
    <use xlink:href="#rim"/>
    <path pointer-events="none" fill="none" stroke="white" stroke-width="1.5" d="M0,-3.0v7 M-2.5,-0.5L0,-3.0L2.5,-0.5"/>
  </g>
  <g id="arrowDown" transform="rotate(180) translate(-30 -48)">
    <use xlink:href="#rim"/>
    <path pointer-events="none" fill="none" stroke="white" stroke-width="1.5" d="M0,-3.0v7 M-2.5,-0.5L0,-3.0L2.5,-0.5"/>
  </g>
  <g id="arrowLeft" transform="rotate(270) translate(-36 17)">
    <use xlink:href="#rim"/>
    <path pointer-events="none" fill="none" stroke="white" stroke-width="1.5" d="M0,-3.0v7 M-2.5,-0.5L0,-3.0L2.5,-0.5"/>
  </g>
  <g id="resetDef">
    <use xlink:href="#rim2" fill="#404040"><set attributeName="fill" to="#808080" begin="reset.mouseover" end="reset.mouseout"/></use>
  </g>
</defs>
<script type="application/ecmascript">
var viewWidth = 554;
var viewHeight = 260;
var sectionId = 'dynsection-0';
</script>
<script type="application/ecmascript" xlink:href="svg.min.js"/>
<svg id="graph" class="graph">
<g id="viewport">
<title>OscProbCalcer/OscProbCalcer_NuFASTLinear.cpp</title>
<!-- Node1 -->
<g id="Node000001" class="node">
<title>Node1</title>
<g id="a_Node000001"><a xlink:title=" ">
<polygon fill="#999999" stroke="#666666" points="507,-251.5 356,-251.5 356,-221 507,-221 507,-251.5"/>
<text text-anchor="start" x="364" y="-238" font-family="Helvetica,sans-Serif" font-size="10.00">OscProbCalcer/OscProbCalcer</text>
<text text-anchor="middle" x="431.5" y="-226.75" font-family="Helvetica,sans-Serif" font-size="10.00">_NuFASTLinear.cpp</text>
</a>
</g>
</g>
<!-- Node2 -->
<g id="Node000002" class="node">
<title>Node2</title>
<g id="a_Node000002"><a xlink:href="OscProbCalcer__NuFASTLinear_8h.html" target="_top" xlink:title=" ">
<polygon fill="white" stroke="#666666" points="399.5,-185 239.5,-185 239.5,-165.75 399.5,-165.75 399.5,-185"/>
<text text-anchor="middle" x="319.5" y="-171.5" font-family="Helvetica,sans-Serif" font-size="10.00">OscProbCalcer_NuFASTLinear.h</text>
</a>
</g>
</g>
<!-- Node1&#45;&gt;Node2 -->
<g id="edge1_Node000001_Node000002" class="edge">
<title>Node1&#45;&gt;Node2</title>
<g id="a_edge1_Node000001_Node000002"><a xlink:title=" ">
<path fill="none" stroke="#63b8ff" d="M403.53,-220.55C386.14,-211.41 363.9,-199.72 346.67,-190.66"/>
<polygon fill="#63b8ff" stroke="#63b8ff" points="348.5,-187.66 338.02,-186.11 345.24,-193.86 348.5,-187.66"/>
</a>
</g>
</g>
<!-- Node10 -->
<g id="Node000010" class="node">
<title>Node10</title>
<g id="a_Node000010"><a xlink:title=" ">
<polygon fill="#e0e0e0" stroke="#999999" points="463.25,-19.25 409.75,-19.25 409.75,0 463.25,0 463.25,-19.25"/>
<text text-anchor="middle" x="436.5" y="-5.75" font-family="Helvetica,sans-Serif" font-size="10.00">iostream</text>
</a>
</g>
</g>
<!-- Node1&#45;&gt;Node10 -->
<g id="edge14_Node000001_Node000010" class="edge">
<title>Node1&#45;&gt;Node10</title>
<g id="a_edge14_Node000001_Node000010"><a xlink:title=" ">
<path fill="none" stroke="#63b8ff" d="M431.83,-220.51C432.7,-181.42 435.07,-75.08 436.06,-30.6"/>
<polygon fill="#63b8ff" stroke="#63b8ff" points="439.55,-30.95 436.27,-20.87 432.55,-30.79 439.55,-30.95"/>
</a>
</g>
</g>
<!-- Node12 -->
<g id="Node000012" class="node">
<title>Node12</title>
<g id="a_Node000012"><a xlink:title=" ">
<polygon fill="#e0e0e0" stroke="#999999" points="545.75,-185 459.25,-185 459.25,-165.75 545.75,-165.75 545.75,-185"/>
<text text-anchor="middle" x="502.5" y="-171.5" font-family="Helvetica,sans-Serif" font-size="10.00">c++/NuFast.cpp</text>
</a>
</g>
</g>
<!-- Node1&#45;&gt;Node12 -->
<g id="edge15_Node000001_Node000012" class="edge">
<title>Node1&#45;&gt;Node12</title>
<g id="a_edge15_Node000001_Node000012"><a xlink:title=" ">
<path fill="none" stroke="#63b8ff" d="M449.05,-220.7C459.34,-212.16 472.36,-201.37 482.98,-192.56"/>
<polygon fill="#63b8ff" stroke="#63b8ff" points="484.93,-195.49 490.39,-186.42 480.46,-190.11 484.93,-195.49"/>
</a>
</g>
</g>
<!-- Node3 -->
<g id="Node000003" class="node">
<title>Node3</title>
<g id="a_Node000003"><a xlink:href="OscProbCalcerBase_8h.html" target="_top" xlink:title=" ">
<polygon fill="white" stroke="#666666" points="366.5,-129.75 254.5,-129.75 254.5,-110.5 366.5,-110.5 366.5,-129.75"/>
<text text-anchor="middle" x="310.5" y="-116.25" font-family="Helvetica,sans-Serif" font-size="10.00">OscProbCalcerBase.h</text>
</a>
</g>
</g>
<!-- Node2&#45;&gt;Node3 -->
<g id="edge2_Node000002_Node000003" class="edge">
<title>Node2&#45;&gt;Node3</title>
<g id="a_edge2_Node000002_Node000003"><a xlink:title=" ">
<path fill="none" stroke="#63b8ff" d="M318.01,-165.58C316.9,-158.99 315.33,-149.71 313.91,-141.32"/>
<polygon fill="#63b8ff" stroke="#63b8ff" points="317.39,-140.88 312.27,-131.6 310.49,-142.05 317.39,-140.88"/>
</a>
</g>
</g>
<!-- Node4 -->
<g id="Node000004" class="node">
<title>Node4</title>
<g id="a_Node000004"><a xlink:href="OscillatorConstants_8h.html" target="_top" xlink:title=" ">
<polygon fill="white" stroke="#666666" points="282.62,-74.5 126.38,-74.5 126.38,-55.25 282.62,-55.25 282.62,-74.5"/>
<text text-anchor="middle" x="204.5" y="-61" font-family="Helvetica,sans-Serif" font-size="10.00">Constants/OscillatorConstants.h</text>
</a>
</g>
</g>
<!-- Node3&#45;&gt;Node4 -->
<g id="edge3_Node000003_Node000004" class="edge">
<title>Node3&#45;&gt;Node4</title>
<g id="a_edge3_Node000003_Node000004"><a xlink:title=" ">
<path fill="none" stroke="#63b8ff" d="M292.52,-110.09C276.15,-101.87 251.71,-89.59 232.74,-80.06"/>
<polygon fill="#63b8ff" stroke="#63b8ff" points="234.43,-76.99 223.92,-75.63 231.29,-83.25 234.43,-76.99"/>
</a>
</g>
</g>
<!-- Node6 -->
<g id="Node000006" class="node">
<title>Node6</title>
<g id="a_Node000006"><a xlink:title=" ">
<polygon fill="#e0e0e0" stroke="#999999" points="391.38,-19.25 305.62,-19.25 305.62,0 391.38,0 391.38,-19.25"/>
<text text-anchor="middle" x="348.5" y="-5.75" font-family="Helvetica,sans-Serif" font-size="10.00">yaml&#45;cpp/yaml.h</text>
</a>
</g>
</g>
<!-- Node3&#45;&gt;Node6 -->
<g id="edge13_Node000003_Node000006" class="edge">
<title>Node3&#45;&gt;Node6</title>
<g id="a_edge13_Node000003_Node000006"><a xlink:title=" ">
<path fill="none" stroke="#63b8ff" d="M313.61,-110.25C319.68,-92.92 333.23,-54.23 341.54,-30.49"/>
<polygon fill="#63b8ff" stroke="#63b8ff" points="344.84,-31.65 344.85,-21.06 338.24,-29.34 344.84,-31.65"/>
</a>
</g>
</g>
<!-- Node9 -->
<g id="Node000009" class="node">
<title>Node9</title>
<g id="a_Node000009"><a xlink:title=" ">
<polygon fill="#e0e0e0" stroke="#999999" points="287.5,-19.25 247.5,-19.25 247.5,0 287.5,0 287.5,-19.25"/>
<text text-anchor="middle" x="267.5" y="-5.75" font-family="Helvetica,sans-Serif" font-size="10.00">string</text>
</a>
</g>
</g>
<!-- Node3&#45;&gt;Node9 -->
<g id="edge12_Node000003_Node000009" class="edge">
<title>Node3&#45;&gt;Node9</title>
<g id="a_edge12_Node000003_Node000009"><a xlink:title=" ">
<path fill="none" stroke="#63b8ff" d="M308.47,-110.25C305.47,-97.73 299.35,-74.29 291.5,-55.25 287.9,-46.52 283.09,-37.26 278.73,-29.45"/>
<polygon fill="#63b8ff" stroke="#63b8ff" points="281.82,-27.8 273.79,-20.9 275.76,-31.31 281.82,-27.8"/>
</a>
</g>
</g>
<!-- Node11 -->
<g id="Node000011" class="node">
<title>Node11</title>
<g id="a_Node000011"><a xlink:title=" ">
<polygon fill="#e0e0e0" stroke="#999999" points="43,-19.25 0,-19.25 0,0 43,0 43,-19.25"/>
<text text-anchor="middle" x="21.5" y="-5.75" font-family="Helvetica,sans-Serif" font-size="10.00">vector</text>
</a>
</g>
</g>
<!-- Node3&#45;&gt;Node11 -->
<g id="edge11_Node000003_Node000011" class="edge">
<title>Node3&#45;&gt;Node11</title>
<g id="a_edge11_Node000003_Node000011"><a xlink:title=" ">
<path fill="none" stroke="#63b8ff" d="M254.34,-111.61C214.9,-105.04 161.55,-93.5 117.5,-74.5 88.99,-62.2 59.78,-41.36 41.19,-26.84"/>
<polygon fill="#63b8ff" stroke="#63b8ff" points="43.44,-24.15 33.44,-20.65 39.07,-29.62 43.44,-24.15"/>
</a>
</g>
</g>
<!-- Node5 -->
<g id="Node000005" class="node">
<title>Node5</title>
<g id="a_Node000005"><a xlink:title=" ">
<polygon fill="#e0e0e0" stroke="#999999" points="106.12,-19.25 60.88,-19.25 60.88,0 106.12,0 106.12,-19.25"/>
<text text-anchor="middle" x="83.5" y="-5.75" font-family="Helvetica,sans-Serif" font-size="10.00">math.h</text>
</a>
</g>
</g>
<!-- Node4&#45;&gt;Node5 -->
<g id="edge4_Node000004_Node000005" class="edge">
<title>Node4&#45;&gt;Node5</title>
<g id="a_edge4_Node000004_Node000005"><a xlink:title=" ">
<path fill="none" stroke="#63b8ff" d="M183.97,-54.84C164.94,-46.47 136.35,-33.88 114.53,-24.28"/>
<polygon fill="#63b8ff" stroke="#63b8ff" points="116.07,-21.14 105.51,-20.31 113.26,-27.54 116.07,-21.14"/>
</a>
</g>
</g>
<!-- Node4&#45;&gt;Node6 -->
<g id="edge5_Node000004_Node000006" class="edge">
<title>Node4&#45;&gt;Node6</title>
<g id="a_edge5_Node000004_Node000006"><a xlink:title=" ">
<path fill="none" stroke="#63b8ff" d="M228.93,-54.84C252.1,-46.27 287.16,-33.31 313.34,-23.63"/>
<polygon fill="#63b8ff" stroke="#63b8ff" points="314.37,-26.98 322.53,-20.23 311.94,-20.41 314.37,-26.98"/>
</a>
</g>
</g>
<!-- Node7 -->
<g id="Node000007" class="node">
<title>Node7</title>
<g id="a_Node000007"><a xlink:title=" ">
<polygon fill="#e0e0e0" stroke="#999999" points="169.12,-19.25 123.88,-19.25 123.88,0 169.12,0 169.12,-19.25"/>
<text text-anchor="middle" x="146.5" y="-5.75" font-family="Helvetica,sans-Serif" font-size="10.00">TFile.h</text>
</a>
</g>
</g>
<!-- Node4&#45;&gt;Node7 -->
<g id="edge6_Node000004_Node000007" class="edge">
<title>Node4&#45;&gt;Node7</title>
<g id="a_edge6_Node000004_Node000007"><a xlink:title=" ">
<path fill="none" stroke="#63b8ff" d="M194.66,-54.84C186.45,-47.3 174.52,-36.35 164.59,-27.23"/>
<polygon fill="#63b8ff" stroke="#63b8ff" points="167.04,-24.73 157.31,-20.55 162.31,-29.89 167.04,-24.73"/>
</a>
</g>
</g>
<!-- Node8 -->
<g id="Node000008" class="node">
<title>Node8</title>
<g id="a_Node000008"><a xlink:title=" ">
<polygon fill="#e0e0e0" stroke="#999999" points="229.62,-19.25 187.38,-19.25 187.38,0 229.62,0 229.62,-19.25"/>
<text text-anchor="middle" x="208.5" y="-5.75" font-family="Helvetica,sans-Serif" font-size="10.00">TH1.h</text>
</a>
</g>
</g>
<!-- Node4&#45;&gt;Node8 -->
<g id="edge7_Node000004_Node000008" class="edge">
<title>Node4&#45;&gt;Node8</title>
<g id="a_edge7_Node000004_Node000008"><a xlink:title=" ">
<path fill="none" stroke="#63b8ff" d="M205.16,-55.08C205.66,-48.49 206.35,-39.21 206.98,-30.82"/>
<polygon fill="#63b8ff" stroke="#63b8ff" points="210.45,-31.35 207.71,-21.12 203.47,-30.83 210.45,-31.35"/>
</a>
</g>
</g>
<!-- Node4&#45;&gt;Node9 -->
<g id="edge8_Node000004_Node000009" class="edge">
<title>Node4&#45;&gt;Node9</title>
<g id="a_edge8_Node000004_Node000009"><a xlink:title=" ">
<path fill="none" stroke="#63b8ff" d="M215.19,-54.84C224.2,-47.22 237.33,-36.12 248.18,-26.95"/>
<polygon fill="#63b8ff" stroke="#63b8ff" points="250.44,-29.63 255.81,-20.5 245.92,-24.28 250.44,-29.63"/>
</a>
</g>
</g>
<!-- Node4&#45;&gt;Node10 -->
<g id="edge9_Node000004_Node000010" class="edge">
<title>Node4&#45;&gt;Node10</title>
<g id="a_edge9_Node000004_Node000010"><a xlink:title=" ">
<path fill="none" stroke="#63b8ff" d="M245.07,-54.78C282.41,-46.38 339.61,-33.42 398.39,-19.72"/>
<polygon fill="#63b8ff" stroke="#63b8ff" points="398.96,-23.18 407.91,-17.5 397.37,-16.37 398.96,-23.18"/>
</a>
</g>
</g>
<!-- Node4&#45;&gt;Node11 -->
<g id="edge10_Node000004_Node000011" class="edge">
<title>Node4&#45;&gt;Node11</title>
<g id="a_edge10_Node000004_Node000011"><a xlink:title=" ">
<path fill="none" stroke="#63b8ff" d="M173.46,-54.84C140.29,-45.19 87.94,-29.96 54.17,-20.13"/>
<polygon fill="#63b8ff" stroke="#63b8ff" points="55.51,-16.88 44.93,-17.44 53.56,-23.6 55.51,-16.88"/>
</a>
</g>
</g>
</g>
</svg>

<g id="navigator" transform="translate(0 0)" fill="#404254">
  <rect fill="#f2f5e9" fill-opacity="0.5" stroke="#606060" stroke-width=".5" x="0" y="0" width="60" height="60"/>
  <use id="zoomplus" xlink:href="#zoomPlus" x="17" y="9" onmousedown="handleZoom(evt,'in')"/>
  <use id="zoomminus" xlink:href="#zoomMin" x="42" y="9" onmousedown="handleZoom(evt,'out')"/>
  <use id="reset" xlink:href="#resetDef" x="30" y="36" onmousedown="handleReset()"/>
   <use id="arrowup" xlink:href="#arrowUp" x="0" y="0" onmousedown="handlePan(0,-1)"/>
  <use id="arrowright" xlink:href="#arrowRight" x="0" y="0" onmousedown="handlePan(1,0)"/>
  <use id="arrowdown" xlink:href="#arrowDown" x="0" y="0" onmousedown="handlePan(0,1)"/>
  <use id="arrowleft" xlink:href="#arrowLeft" x="0" y="0" onmousedown="handlePan(-1,0)"/>
</g>
<svg viewBox="0 0 15 15" width="100%" height="30px" preserveAspectRatio="xMaxYMin meet">
 <g id="arrow_out" transform="scale(0.3 0.3)">
  <a xlink:href="OscProbCalcer__NuFASTLinear_8cpp__incl_org.svg" target="_base">
   <rect id="button" ry="5" rx="5" y="6" x="6" height="38" width="38"
        fill="#f2f5e9" fill-opacity="0.5" stroke="#606060" stroke-width="1.0"/>
   <path id="arrow"
     d="M 11.500037,31.436501 C 11.940474,20.09759 22.043105,11.32322 32.158766,21.979434 L 37.068811,17.246167 C 37.068811,17.246167 37.088388,32 37.088388,32 L 22.160133,31.978069 C 22.160133,31.978069 26.997745,27.140456 26.997745,27.140456 C 18.528582,18.264221 13.291696,25.230495 11.500037,31.436501 z"
     style="fill:#404040;"/>
  </a>
 </g>
</svg>

<style type='text/css'>
<![CDATA[
[data-mouse-over-selected='false'] { opacity: 0.7; }
[data-mouse-over-selected='true']  { opacity: 1.0; }
]]>
</style>
<script type="application/ecmascript"><![CDATA[
document.addEventListener('DOMContentLoaded', (event) => {
  highlightEdges();
  highlightAdjacentNodes();
});
]]></script>
</svg>
