<?xml version="1.0" encoding="UTF-8" standalone="no"?>
<!DOCTYPE svg PUBLIC "-//W3C//DTD SVG 1.1//EN"
 "http://www.w3.org/Graphics/SVG/1.1/DTD/svg11.dtd">
<!-- Generated by graphviz version 9.0.0 (20230911.1827)
 -->
<!-- Title: OscProbCalcer/OscProbCalcerBase.cpp Pages: 1 -->
<svg width="524pt" height="216pt"
 viewBox="0.00 0.00 524.33 215.50" xmlns="http://www.w3.org/2000/svg" xmlns:xlink="http://www.w3.org/1999/xlink">
<g id="graph0" class="graph" transform="scale(1 1) rotate(0) translate(4 211.5)">
<title>OscProbCalcer/OscProbCalcerBase.cpp</title>
<!-- Node1 -->
<g id="Node000001" class="node">
<title>Node1</title>
<g id="a_Node000001"><a xlink:title=" ">
<polygon fill="#999999" stroke="#666666" points="452.96,-207.5 301.96,-207.5 301.96,-177 452.96,-177 452.96,-207.5"/>
<text text-anchor="start" x="309.96" y="-194" font-family="Helvetica,sans-Serif" font-size="10.00">OscProbCalcer/OscProbCalcer</text>
<text text-anchor="middle" x="377.46" y="-182.75" font-family="Helvetica,sans-Serif" font-size="10.00">Base.cpp</text>
</a>
</g>
</g>
<!-- Node2 -->
<g id="Node000002" class="node">
<title>Node2</title>
<g id="a_Node000002"><a xlink:href="OscProbCalcerBase_8h.html" target="_top" xlink:title=" ">
<polygon fill="white" stroke="#666666" points="202.96,-141 51.96,-141 51.96,-110.5 202.96,-110.5 202.96,-141"/>
<text text-anchor="start" x="59.96" y="-127.5" font-family="Helvetica,sans-Serif" font-size="10.00">OscProbCalcer/OscProbCalcer</text>
<text text-anchor="middle" x="127.46" y="-116.25" font-family="Helvetica,sans-Serif" font-size="10.00">Base.h</text>
</a>
</g>
</g>
<!-- Node1&#45;&gt;Node2 -->
<g id="edge1_Node000001_Node000002" class="edge">
<title>Node1&#45;&gt;Node2</title>
<g id="a_edge1_Node000001_Node000002"><a xlink:title=" ">
<path fill="none" stroke="#63b8ff" d="M320.41,-176.53C283.21,-166.94 234.48,-154.36 195.29,-144.25"/>
<polygon fill="#63b8ff" stroke="#63b8ff" points="196.27,-140.89 185.72,-141.78 194.53,-147.67 196.27,-140.89"/>
</a>
</g>
</g>
<!-- Node4 -->
<g id="Node000004" class="node">
<title>Node4</title>
<g id="a_Node000004"><a xlink:title=" ">
<polygon fill="#e0e0e0" stroke="#999999" points="333.08,-19.25 287.83,-19.25 287.83,0 333.08,0 333.08,-19.25"/>
<text text-anchor="middle" x="310.46" y="-5.75" font-family="Helvetica,sans-Serif" font-size="10.00">math.h</text>
</a>
</g>
</g>
<!-- Node1&#45;&gt;Node4 -->
<g id="edge13_Node000001_Node000004" class="edge">
<title>Node1&#45;&gt;Node4</title>
<g id="a_edge13_Node000001_Node000004"><a xlink:title=" ">
<path fill="none" stroke="#63b8ff" d="M372.09,-176.77C360.14,-144.58 331.38,-67.03 317.79,-30.41"/>
<polygon fill="#63b8ff" stroke="#63b8ff" points="321.1,-29.26 314.34,-21.1 314.54,-31.69 321.1,-29.26"/>
</a>
</g>
</g>
<!-- Node8 -->
<g id="Node000008" class="node">
<title>Node8</title>
<g id="a_Node000008"><a xlink:title=" ">
<polygon fill="#e0e0e0" stroke="#999999" points="404.21,-19.25 350.71,-19.25 350.71,0 404.21,0 404.21,-19.25"/>
<text text-anchor="middle" x="377.46" y="-5.75" font-family="Helvetica,sans-Serif" font-size="10.00">iostream</text>
</a>
</g>
</g>
<!-- Node1&#45;&gt;Node8 -->
<g id="edge14_Node000001_Node000008" class="edge">
<title>Node1&#45;&gt;Node8</title>
<g id="a_edge14_Node000001_Node000008"><a xlink:title=" ">
<path fill="none" stroke="#63b8ff" d="M377.46,-176.77C377.46,-144.72 377.46,-67.7 377.46,-30.89"/>
<polygon fill="#63b8ff" stroke="#63b8ff" points="380.96,-31.19 377.46,-21.19 373.96,-31.19 380.96,-31.19"/>
</a>
</g>
</g>
<!-- Node11 -->
<g id="Node000011" class="node">
<title>Node11</title>
<g id="a_Node000011"><a xlink:title=" ">
<polygon fill="#e0e0e0" stroke="#999999" points="448.96,-135.38 405.96,-135.38 405.96,-116.12 448.96,-116.12 448.96,-135.38"/>
<text text-anchor="middle" x="427.46" y="-121.88" font-family="Helvetica,sans-Serif" font-size="10.00">cmath</text>
</a>
</g>
</g>
<!-- Node1&#45;&gt;Node11 -->
<g id="edge12_Node000001_Node000011" class="edge">
<title>Node1&#45;&gt;Node11</title>
<g id="a_edge12_Node000001_Node000011"><a xlink:title=" ">
<path fill="none" stroke="#63b8ff" d="M388.8,-176.61C396.15,-167.14 405.77,-154.73 413.57,-144.66"/>
<polygon fill="#63b8ff" stroke="#63b8ff" points="416.33,-146.82 419.69,-136.77 410.8,-142.53 416.33,-146.82"/>
</a>
</g>
</g>
<!-- Node12 -->
<g id="Node000012" class="node">
<title>Node12</title>
<g id="a_Node000012"><a xlink:title=" ">
<polygon fill="#e0e0e0" stroke="#999999" points="516.33,-135.38 466.58,-135.38 466.58,-116.12 516.33,-116.12 516.33,-135.38"/>
<text text-anchor="middle" x="491.46" y="-121.88" font-family="Helvetica,sans-Serif" font-size="10.00">iomanip</text>
</a>
</g>
</g>
<!-- Node1&#45;&gt;Node12 -->
<g id="edge15_Node000001_Node000012" class="edge">
<title>Node1&#45;&gt;Node12</title>
<g id="a_edge15_Node000001_Node000012"><a xlink:title=" ">
<path fill="none" stroke="#63b8ff" d="M403.32,-176.61C421.97,-166.06 447.03,-151.88 465.66,-141.34"/>
<polygon fill="#63b8ff" stroke="#63b8ff" points="467.23,-144.48 474.21,-136.51 463.79,-138.38 467.23,-144.48"/>
</a>
</g>
</g>
<!-- Node3 -->
<g id="Node000003" class="node">
<title>Node3</title>
<g id="a_Node000003"><a xlink:href="OscillatorConstants_8h.html" target="_top" xlink:title=" ">
<polygon fill="white" stroke="#666666" points="311.58,-74.5 155.33,-74.5 155.33,-55.25 311.58,-55.25 311.58,-74.5"/>
<text text-anchor="middle" x="233.46" y="-61" font-family="Helvetica,sans-Serif" font-size="10.00">Constants/OscillatorConstants.h</text>
</a>
</g>
</g>
<!-- Node2&#45;&gt;Node3 -->
<g id="edge2_Node000002_Node000003" class="edge">
<title>Node2&#45;&gt;Node3</title>
<g id="a_edge2_Node000002_Node000003"><a xlink:title=" ">
<path fill="none" stroke="#63b8ff" d="M153.93,-110.05C170.23,-100.99 191.03,-89.44 207.28,-80.41"/>
<polygon fill="#63b8ff" stroke="#63b8ff" points="208.83,-83.55 215.88,-75.64 205.43,-77.43 208.83,-83.55"/>
</a>
</g>
</g>
<!-- Node7 -->
<g id="Node000007" class="node">
<title>Node7</title>
<g id="a_Node000007"><a xlink:title=" ">
<polygon fill="#e0e0e0" stroke="#999999" points="146.46,-19.25 106.46,-19.25 106.46,0 146.46,0 146.46,-19.25"/>
<text text-anchor="middle" x="126.46" y="-5.75" font-family="Helvetica,sans-Serif" font-size="10.00">string</text>
</a>
</g>
</g>
<!-- Node2&#45;&gt;Node7 -->
<g id="edge10_Node000002_Node000007" class="edge">
<title>Node2&#45;&gt;Node7</title>
<g id="a_edge10_Node000002_Node000007"><a xlink:title=" ">
<path fill="none" stroke="#63b8ff" d="M127.33,-110.3C127.15,-90.25 126.83,-53.9 126.63,-31.07"/>
<polygon fill="#63b8ff" stroke="#63b8ff" points="130.14,-31.18 126.55,-21.21 123.14,-31.24 130.14,-31.18"/>
</a>
</g>
</g>
<!-- Node9 -->
<g id="Node000009" class="node">
<title>Node9</title>
<g id="a_Node000009"><a xlink:title=" ">
<polygon fill="#e0e0e0" stroke="#999999" points="47.96,-19.25 4.96,-19.25 4.96,0 47.96,0 47.96,-19.25"/>
<text text-anchor="middle" x="26.46" y="-5.75" font-family="Helvetica,sans-Serif" font-size="10.00">vector</text>
</a>
</g>
</g>
<!-- Node2&#45;&gt;Node9 -->
<g id="edge9_Node000002_Node000009" class="edge">
<title>Node2&#45;&gt;Node9</title>
<g id="a_edge9_Node000002_Node000009"><a xlink:title=" ">
<path fill="none" stroke="#63b8ff" d="M52.69,-110C33.85,-102.55 15.77,-91.35 4.46,-74.5 -4.93,-60.53 3.11,-42.17 11.99,-28.71"/>
<polygon fill="#63b8ff" stroke="#63b8ff" points="14.73,-30.9 17.79,-20.76 9.07,-26.78 14.73,-30.9"/>
</a>
</g>
</g>
<!-- Node10 -->
<g id="Node000010" class="node">
<title>Node10</title>
<g id="a_Node000010"><a xlink:title=" ">
<polygon fill="#e0e0e0" stroke="#999999" points="99.33,-74.5 13.58,-74.5 13.58,-55.25 99.33,-55.25 99.33,-74.5"/>
<text text-anchor="middle" x="56.46" y="-61" font-family="Helvetica,sans-Serif" font-size="10.00">yaml&#45;cpp/yaml.h</text>
</a>
</g>
</g>
<!-- Node2&#45;&gt;Node10 -->
<g id="edge11_Node000002_Node000010" class="edge">
<title>Node2&#45;&gt;Node10</title>
<g id="a_edge11_Node000002_Node000010"><a xlink:title=" ">
<path fill="none" stroke="#63b8ff" d="M109.9,-110.2C99.61,-101.66 86.59,-90.87 75.98,-82.06"/>
<polygon fill="#63b8ff" stroke="#63b8ff" points="78.5,-79.61 68.57,-75.92 74.03,-84.99 78.5,-79.61"/>
</a>
</g>
</g>
<!-- Node3&#45;&gt;Node4 -->
<g id="edge3_Node000003_Node000004" class="edge">
<title>Node3&#45;&gt;Node4</title>
<g id="a_edge3_Node000003_Node000004"><a xlink:title=" ">
<path fill="none" stroke="#63b8ff" d="M246.52,-54.84C257.91,-46.96 274.69,-35.36 288.19,-26.02"/>
<polygon fill="#63b8ff" stroke="#63b8ff" points="289.85,-29.13 296.08,-20.56 285.87,-23.37 289.85,-29.13"/>
</a>
</g>
</g>
<!-- Node5 -->
<g id="Node000005" class="node">
<title>Node5</title>
<g id="a_Node000005"><a xlink:title=" ">
<polygon fill="#e0e0e0" stroke="#999999" points="270.08,-19.25 224.83,-19.25 224.83,0 270.08,0 270.08,-19.25"/>
<text text-anchor="middle" x="247.46" y="-5.75" font-family="Helvetica,sans-Serif" font-size="10.00">TFile.h</text>
</a>
</g>
</g>
<!-- Node3&#45;&gt;Node5 -->
<g id="edge4_Node000003_Node000005" class="edge">
<title>Node3&#45;&gt;Node5</title>
<g id="a_edge4_Node000003_Node000005"><a xlink:title=" ">
<path fill="none" stroke="#63b8ff" d="M235.77,-55.08C237.52,-48.42 240,-38.99 242.22,-30.53"/>
<polygon fill="#63b8ff" stroke="#63b8ff" points="245.55,-31.63 244.71,-21.07 238.78,-29.85 245.55,-31.63"/>
</a>
</g>
</g>
<!-- Node6 -->
<g id="Node000006" class="node">
<title>Node6</title>
<g id="a_Node000006"><a xlink:title=" ">
<polygon fill="#e0e0e0" stroke="#999999" points="206.58,-19.25 164.33,-19.25 164.33,0 206.58,0 206.58,-19.25"/>
<text text-anchor="middle" x="185.46" y="-5.75" font-family="Helvetica,sans-Serif" font-size="10.00">TH1.h</text>
</a>
</g>
</g>
<!-- Node3&#45;&gt;Node6 -->
<g id="edge5_Node000003_Node000006" class="edge">
<title>Node3&#45;&gt;Node6</title>
<g id="a_edge5_Node000003_Node000006"><a xlink:title=" ">
<path fill="none" stroke="#63b8ff" d="M225.53,-55.08C218.9,-47.73 209.24,-37.01 201.07,-27.94"/>
<polygon fill="#63b8ff" stroke="#63b8ff" points="203.86,-25.82 194.57,-20.73 198.66,-30.5 203.86,-25.82"/>
</a>
</g>
</g>
<!-- Node3&#45;&gt;Node7 -->
<g id="edge6_Node000003_Node000007" class="edge">
<title>Node3&#45;&gt;Node7</title>
<g id="a_edge6_Node000003_Node000007"><a xlink:title=" ">
<path fill="none" stroke="#63b8ff" d="M215.3,-54.84C198.78,-46.62 174.11,-34.34 154.96,-24.81"/>
<polygon fill="#63b8ff" stroke="#63b8ff" points="156.56,-21.7 146.05,-20.38 153.44,-27.97 156.56,-21.7"/>
</a>
</g>
</g>
<!-- Node3&#45;&gt;Node8 -->
<g id="edge7_Node000003_Node000008" class="edge">
<title>Node3&#45;&gt;Node8</title>
<g id="a_edge7_Node000003_Node000008"><a xlink:title=" ">
<path fill="none" stroke="#63b8ff" d="M257.88,-54.84C281.05,-46.27 316.12,-33.31 342.29,-23.63"/>
<polygon fill="#63b8ff" stroke="#63b8ff" points="343.32,-26.98 351.49,-20.23 340.89,-20.41 343.32,-26.98"/>
</a>
</g>
</g>
<!-- Node3&#45;&gt;Node9 -->
<g id="edge8_Node000003_Node000009" class="edge">
<title>Node3&#45;&gt;Node9</title>
<g id="a_edge8_Node000003_Node000009"><a xlink:title=" ">
<path fill="none" stroke="#63b8ff" d="M198.34,-54.84C159.45,-44.84 97.26,-28.84 59.3,-19.08"/>
<polygon fill="#63b8ff" stroke="#63b8ff" points="60.38,-15.74 49.82,-16.64 58.64,-22.52 60.38,-15.74"/>
</a>
</g>
</g>
</g>
</svg>
