<?xml version="1.0" encoding="UTF-8" standalone="no"?>
<!DOCTYPE svg PUBLIC "-//W3C//DTD SVG 1.1//EN"
 "http://www.w3.org/Graphics/SVG/1.1/DTD/svg11.dtd">
<!-- Generated by graphviz version 9.0.0 (20230911.1827)
 -->
<!-- Title: OscProbCalcer/OscProbCalcer_CUDAProb3.h Pages: 1 -->
<svg width="479pt" height="204pt"
 viewBox="0.00 0.00 478.88 204.25" xmlns="http://www.w3.org/2000/svg" xmlns:xlink="http://www.w3.org/1999/xlink">

<svg id="main" version="1.1" xmlns="http://www.w3.org/2000/svg" xmlns:xlink="http://www.w3.org/1999/xlink" xml:space="preserve" onload="init(evt)">
<style type="text/css"><![CDATA[
.node, .edge {opacity: 0.7;}
.node.selected, .edge.selected {opacity: 1;}
.edge:hover path { stroke: red; }
.edge:hover polygon { stroke: red; fill: red; }
]]></style>
<script type="application/ecmascript" xlink:href="svg.min.js"/>
<svg id="graph" class="graph">
<g id="graph0" class="graph" transform="scale(1 1) rotate(0) translate(4 200.25)">
<title>OscProbCalcer/OscProbCalcer_CUDAProb3.h</title>
<!-- Node1 -->
<g id="Node000001" class="node">
<title>Node1</title>
<g id="a_Node000001"><a xlink:title=" ">
<polygon fill="#999999" stroke="#666666" points="386.12,-196.25 235.12,-196.25 235.12,-165.75 386.12,-165.75 386.12,-196.25"/>
<text text-anchor="start" x="243.12" y="-182.75" font-family="Helvetica,sans-Serif" font-size="10.00">OscProbCalcer/OscProbCalcer</text>
<text text-anchor="middle" x="310.62" y="-171.5" font-family="Helvetica,sans-Serif" font-size="10.00">_CUDAProb3.h</text>
</a>
</g>
</g>
<!-- Node2 -->
<g id="Node000002" class="node">
<title>Node2</title>
<g id="a_Node000002"><a xlink:href="OscProbCalcerBase_8h.html" target="_top" xlink:title=" ">
<polygon fill="white" stroke="#666666" points="267.62,-129.75 155.62,-129.75 155.62,-110.5 267.62,-110.5 267.62,-129.75"/>
<text text-anchor="middle" x="211.62" y="-116.25" font-family="Helvetica,sans-Serif" font-size="10.00">OscProbCalcerBase.h</text>
</a>
</g>
</g>
<!-- Node1&#45;&gt;Node2 -->
<g id="edge1_Node000001_Node000002" class="edge">
<title>Node1&#45;&gt;Node2</title>
<g id="a_edge1_Node000001_Node000002"><a xlink:title=" ">
<path fill="none" stroke="#63b8ff" d="M285.9,-165.3C270.82,-156.33 251.61,-144.91 236.51,-135.92"/>
<polygon fill="#63b8ff" stroke="#63b8ff" points="238.49,-133.03 228.11,-130.93 234.91,-139.05 238.49,-133.03"/>
</a>
</g>
</g>
<!-- Node6 -->
<g id="Node000006" class="node">
<title>Node6</title>
<g id="a_Node000006"><a xlink:title=" ">
<polygon fill="#e0e0e0" stroke="#999999" points="45.25,-19.25 0,-19.25 0,0 45.25,0 45.25,-19.25"/>
<text text-anchor="middle" x="22.62" y="-5.75" font-family="Helvetica,sans-Serif" font-size="10.00">TFile.h</text>
</a>
</g>
</g>
<!-- Node1&#45;&gt;Node6 -->
<g id="edge15_Node000001_Node000006" class="edge">
<title>Node1&#45;&gt;Node6</title>
<g id="a_edge15_Node000001_Node000006"><a xlink:title=" ">
<path fill="none" stroke="#63b8ff" d="M236.95,-165.26C207.56,-157.43 174.22,-145.97 146.62,-129.75 100.07,-102.39 57.39,-54.22 36.36,-28.31"/>
<polygon fill="#63b8ff" stroke="#63b8ff" points="39.3,-26.38 30.34,-20.74 33.83,-30.74 39.3,-26.38"/>
</a>
</g>
</g>
<!-- Node11 -->
<g id="Node000011" class="node">
<title>Node11</title>
<g id="a_Node000011"><a xlink:title=" ">
<polygon fill="#e0e0e0" stroke="#999999" points="335.12,-129.75 286.12,-129.75 286.12,-110.5 335.12,-110.5 335.12,-129.75"/>
<text text-anchor="middle" x="310.62" y="-116.25" font-family="Helvetica,sans-Serif" font-size="10.00">TH2D.h</text>
</a>
</g>
</g>
<!-- Node1&#45;&gt;Node11 -->
<g id="edge13_Node000001_Node000011" class="edge">
<title>Node1&#45;&gt;Node11</title>
<g id="a_edge13_Node000001_Node000011"><a xlink:title=" ">
<path fill="none" stroke="#63b8ff" d="M310.62,-165.45C310.62,-158.21 310.62,-149.34 310.62,-141.44"/>
<polygon fill="#63b8ff" stroke="#63b8ff" points="314.13,-141.71 310.63,-131.71 307.13,-141.71 314.13,-141.71"/>
</a>
</g>
</g>
<!-- Node12 -->
<g id="Node000012" class="node">
<title>Node12</title>
<g id="a_Node000012"><a xlink:title=" ">
<polygon fill="#e0e0e0" stroke="#999999" points="402.12,-129.75 353.12,-129.75 353.12,-110.5 402.12,-110.5 402.12,-129.75"/>
<text text-anchor="middle" x="377.62" y="-116.25" font-family="Helvetica,sans-Serif" font-size="10.00">TH3D.h</text>
</a>
</g>
</g>
<!-- Node1&#45;&gt;Node12 -->
<g id="edge14_Node000001_Node000012" class="edge">
<title>Node1&#45;&gt;Node12</title>
<g id="a_edge14_Node000001_Node000012"><a xlink:title=" ">
<path fill="none" stroke="#63b8ff" d="M327.19,-165.45C336.8,-157 348.94,-146.33 358.9,-137.58"/>
<polygon fill="#63b8ff" stroke="#63b8ff" points="360.96,-140.43 366.16,-131.2 356.34,-135.17 360.96,-140.43"/>
</a>
</g>
</g>
<!-- Node13 -->
<g id="Node000013" class="node">
<title>Node13</title>
<g id="a_Node000013"><a xlink:title=" ">
<polygon fill="#e0e0e0" stroke="#999999" points="470.88,-129.75 420.38,-129.75 420.38,-110.5 470.88,-110.5 470.88,-129.75"/>
<text text-anchor="middle" x="445.62" y="-116.25" font-family="Helvetica,sans-Serif" font-size="10.00">memory</text>
</a>
</g>
</g>
<!-- Node1&#45;&gt;Node13 -->
<g id="edge16_Node000001_Node000013" class="edge">
<title>Node1&#45;&gt;Node13</title>
<g id="a_edge16_Node000001_Node000013"><a xlink:title=" ">
<path fill="none" stroke="#63b8ff" d="M344.34,-165.3C365.89,-155.9 393.63,-143.8 414.62,-134.64"/>
<polygon fill="#63b8ff" stroke="#63b8ff" points="415.77,-137.96 423.53,-130.76 412.97,-131.55 415.77,-137.96"/>
</a>
</g>
</g>
<!-- Node3 -->
<g id="Node000003" class="node">
<title>Node3</title>
<g id="a_Node000003"><a xlink:href="OscillatorConstants_8h.html" target="_top" xlink:title=" ">
<polygon fill="white" stroke="#666666" points="289.75,-74.5 133.5,-74.5 133.5,-55.25 289.75,-55.25 289.75,-74.5"/>
<text text-anchor="middle" x="211.62" y="-61" font-family="Helvetica,sans-Serif" font-size="10.00">Constants/OscillatorConstants.h</text>
</a>
</g>
</g>
<!-- Node2&#45;&gt;Node3 -->
<g id="edge2_Node000002_Node000003" class="edge">
<title>Node2&#45;&gt;Node3</title>
<g id="a_edge2_Node000002_Node000003"><a xlink:title=" ">
<path fill="none" stroke="#63b8ff" d="M211.62,-110.33C211.62,-103.82 211.62,-94.67 211.62,-86.37"/>
<polygon fill="#63b8ff" stroke="#63b8ff" points="215.13,-86.37 211.63,-76.37 208.13,-86.37 215.13,-86.37"/>
</a>
</g>
</g>
<!-- Node5 -->
<g id="Node000005" class="node">
<title>Node5</title>
<g id="a_Node000005"><a xlink:title=" ">
<polygon fill="#e0e0e0" stroke="#999999" points="405.5,-19.25 319.75,-19.25 319.75,0 405.5,0 405.5,-19.25"/>
<text text-anchor="middle" x="362.62" y="-5.75" font-family="Helvetica,sans-Serif" font-size="10.00">yaml&#45;cpp/yaml.h</text>
</a>
</g>
</g>
<!-- Node2&#45;&gt;Node5 -->
<g id="edge12_Node000002_Node000005" class="edge">
<title>Node2&#45;&gt;Node5</title>
<g id="a_edge12_Node000002_Node000005"><a xlink:title=" ">
<path fill="none" stroke="#63b8ff" d="M233.8,-110.06C252.06,-102.06 278.18,-89.38 298.62,-74.5 317.39,-60.84 335.83,-41.65 348.06,-27.87"/>
<polygon fill="#63b8ff" stroke="#63b8ff" points="350.57,-30.33 354.47,-20.48 345.28,-25.74 350.57,-30.33"/>
</a>
</g>
</g>
<!-- Node8 -->
<g id="Node000008" class="node">
<title>Node8</title>
<g id="a_Node000008"><a xlink:title=" ">
<polygon fill="#e0e0e0" stroke="#999999" points="463.62,-19.25 423.62,-19.25 423.62,0 463.62,0 463.62,-19.25"/>
<text text-anchor="middle" x="443.62" y="-5.75" font-family="Helvetica,sans-Serif" font-size="10.00">string</text>
</a>
</g>
</g>
<!-- Node2&#45;&gt;Node8 -->
<g id="edge11_Node000002_Node000008" class="edge">
<title>Node2&#45;&gt;Node8</title>
<g id="a_edge11_Node000002_Node000008"><a xlink:title=" ">
<path fill="none" stroke="#63b8ff" d="M237.11,-110.03C260.25,-101.54 295.16,-88.17 324.62,-74.5 357.64,-59.18 394.37,-38.96 418.17,-25.41"/>
<polygon fill="#63b8ff" stroke="#63b8ff" points="419.89,-28.45 426.82,-20.44 416.41,-22.38 419.89,-28.45"/>
</a>
</g>
</g>
<!-- Node10 -->
<g id="Node000010" class="node">
<title>Node10</title>
<g id="a_Node000010"><a xlink:title=" ">
<polygon fill="#e0e0e0" stroke="#999999" points="106.12,-19.25 63.12,-19.25 63.12,0 106.12,0 106.12,-19.25"/>
<text text-anchor="middle" x="84.62" y="-5.75" font-family="Helvetica,sans-Serif" font-size="10.00">vector</text>
</a>
</g>
</g>
<!-- Node2&#45;&gt;Node10 -->
<g id="edge10_Node000002_Node000010" class="edge">
<title>Node2&#45;&gt;Node10</title>
<g id="a_edge10_Node000002_Node000010"><a xlink:title=" ">
<path fill="none" stroke="#63b8ff" d="M185.8,-110.16C167.21,-102.75 142.38,-90.8 124.62,-74.5 110.92,-61.92 100.1,-43.61 93.19,-29.81"/>
<polygon fill="#63b8ff" stroke="#63b8ff" points="96.4,-28.43 88.97,-20.88 90.07,-31.42 96.4,-28.43"/>
</a>
</g>
</g>
<!-- Node4 -->
<g id="Node000004" class="node">
<title>Node4</title>
<g id="a_Node000004"><a xlink:title=" ">
<polygon fill="#e0e0e0" stroke="#999999" points="301.25,-19.25 256,-19.25 256,0 301.25,0 301.25,-19.25"/>
<text text-anchor="middle" x="278.62" y="-5.75" font-family="Helvetica,sans-Serif" font-size="10.00">math.h</text>
</a>
</g>
</g>
<!-- Node3&#45;&gt;Node4 -->
<g id="edge3_Node000003_Node000004" class="edge">
<title>Node3&#45;&gt;Node4</title>
<g id="a_edge3_Node000003_Node000004"><a xlink:title=" ">
<path fill="none" stroke="#63b8ff" d="M222.99,-54.84C232.67,-47.15 246.82,-35.9 258.43,-26.68"/>
<polygon fill="#63b8ff" stroke="#63b8ff" points="260.59,-29.43 266.24,-20.47 256.24,-23.95 260.59,-29.43"/>
</a>
</g>
</g>
<!-- Node3&#45;&gt;Node5 -->
<g id="edge4_Node000003_Node000005" class="edge">
<title>Node3&#45;&gt;Node5</title>
<g id="a_edge4_Node000003_Node000005"><a xlink:title=" ">
<path fill="none" stroke="#63b8ff" d="M237.24,-54.84C261.64,-46.24 298.64,-33.19 326.12,-23.5"/>
<polygon fill="#63b8ff" stroke="#63b8ff" points="327.19,-26.83 335.46,-20.21 324.86,-20.23 327.19,-26.83"/>
</a>
</g>
</g>
<!-- Node3&#45;&gt;Node6 -->
<g id="edge5_Node000003_Node000006" class="edge">
<title>Node3&#45;&gt;Node6</title>
<g id="a_edge5_Node000003_Node000006"><a xlink:title=" ">
<path fill="none" stroke="#63b8ff" d="M179.56,-54.84C145.41,-45.22 91.55,-30.04 56.65,-20.21"/>
<polygon fill="#63b8ff" stroke="#63b8ff" points="57.64,-16.85 47.06,-17.51 55.74,-23.59 57.64,-16.85"/>
</a>
</g>
</g>
<!-- Node7 -->
<g id="Node000007" class="node">
<title>Node7</title>
<g id="a_Node000007"><a xlink:title=" ">
<polygon fill="#e0e0e0" stroke="#999999" points="166.75,-19.25 124.5,-19.25 124.5,0 166.75,0 166.75,-19.25"/>
<text text-anchor="middle" x="145.62" y="-5.75" font-family="Helvetica,sans-Serif" font-size="10.00">TH1.h</text>
</a>
</g>
</g>
<!-- Node3&#45;&gt;Node7 -->
<g id="edge6_Node000003_Node000007" class="edge">
<title>Node3&#45;&gt;Node7</title>
<g id="a_edge6_Node000003_Node000007"><a xlink:title=" ">
<path fill="none" stroke="#63b8ff" d="M200.43,-54.84C190.89,-47.15 176.95,-35.9 165.52,-26.68"/>
<polygon fill="#63b8ff" stroke="#63b8ff" points="167.81,-24.03 157.83,-20.48 163.42,-29.48 167.81,-24.03"/>
</a>
</g>
</g>
<!-- Node3&#45;&gt;Node8 -->
<g id="edge7_Node000003_Node000008" class="edge">
<title>Node3&#45;&gt;Node8</title>
<g id="a_edge7_Node000003_Node000008"><a xlink:title=" ">
<path fill="none" stroke="#63b8ff" d="M257.4,-54.8C296.27,-46.88 353.77,-34.64 412.43,-19.67"/>
<polygon fill="#63b8ff" stroke="#63b8ff" points="413.12,-23.11 421.93,-17.22 411.37,-16.33 413.12,-23.11"/>
</a>
</g>
</g>
<!-- Node9 -->
<g id="Node000009" class="node">
<title>Node9</title>
<g id="a_Node000009"><a xlink:title=" ">
<polygon fill="#e0e0e0" stroke="#999999" points="238.38,-19.25 184.88,-19.25 184.88,0 238.38,0 238.38,-19.25"/>
<text text-anchor="middle" x="211.62" y="-5.75" font-family="Helvetica,sans-Serif" font-size="10.00">iostream</text>
</a>
</g>
</g>
<!-- Node3&#45;&gt;Node9 -->
<g id="edge8_Node000003_Node000009" class="edge">
<title>Node3&#45;&gt;Node9</title>
<g id="a_edge8_Node000003_Node000009"><a xlink:title=" ">
<path fill="none" stroke="#63b8ff" d="M211.62,-55.08C211.62,-48.57 211.62,-39.42 211.62,-31.12"/>
<polygon fill="#63b8ff" stroke="#63b8ff" points="215.13,-31.12 211.63,-21.12 208.13,-31.12 215.13,-31.12"/>
</a>
</g>
</g>
<!-- Node3&#45;&gt;Node10 -->
<g id="edge9_Node000003_Node000010" class="edge">
<title>Node3&#45;&gt;Node10</title>
<g id="a_edge9_Node000003_Node000010"><a xlink:title=" ">
<path fill="none" stroke="#63b8ff" d="M190.08,-54.84C170.01,-46.43 139.82,-33.77 116.88,-24.15"/>
<polygon fill="#63b8ff" stroke="#63b8ff" points="118.25,-20.93 107.67,-20.29 115.54,-27.38 118.25,-20.93"/>
</a>
</g>
</g>
</g>
</svg>
</svg>

<style type='text/css'>
<![CDATA[
[data-mouse-over-selected='false'] { opacity: 0.7; }
[data-mouse-over-selected='true']  { opacity: 1.0; }
]]>
</style>
<script type="application/ecmascript"><![CDATA[
document.addEventListener('DOMContentLoaded', (event) => {
  highlightEdges();
  highlightAdjacentNodes();
});
]]></script>
</svg>
