<?xml version="1.0" encoding="UTF-8" standalone="no"?>
<!DOCTYPE svg PUBLIC "-//W3C//DTD SVG 1.1//EN"
 "http://www.w3.org/Graphics/SVG/1.1/DTD/svg11.dtd">
<!-- Generated by graphviz version 9.0.0 (20230911.1827)
 -->
<!-- Title: OscProbCalcer/OscProbCalcerBase.h Pages: 1 -->
<!--zoomable 238 -->

<svg id="main" version="1.1" xmlns="http://www.w3.org/2000/svg" xmlns:xlink="http://www.w3.org/1999/xlink" xml:space="preserve" onload="init(evt)">
<style type="text/css"><![CDATA[
.node, .edge {opacity: 0.7;}
.node.selected, .edge.selected {opacity: 1;}
.edge:hover path { stroke: red; }
.edge:hover polygon { stroke: red; fill: red; }
]]></style>

<defs>
  <circle id="rim" cx="0" cy="0" r="7"/>
  <circle id="rim2" cx="0" cy="0" r="3.5"/>
  <g id="zoomPlus">
    <use xlink:href="#rim" fill="#404040"><set attributeName="fill" to="#808080" begin="zoomplus.mouseover" end="zoomplus.mouseout"/></use>
    <path d="M-4,0h8M0,-4v8" fill="none" stroke="white" stroke-width="1.5" pointer-events="none"/>
  </g>
  <g id="zoomMin">
    <use xlink:href="#rim" fill="#404040"><set attributeName="fill" to="#808080" begin="zoomminus.mouseover" end="zoomminus.mouseout"/></use>
    <path d="M-4,0h8" fill="none" stroke="white" stroke-width="1.5" pointer-events="none"/>
  </g>
  <g id="arrowUp" transform="translate(30 24)">
    <use xlink:href="#rim"/>
    <path pointer-events="none" fill="none" stroke="white" stroke-width="1.5" d="M0,-3.0v7 M-2.5,-0.5L0,-3.0L2.5,-0.5"/>
  </g>
  <g id="arrowRight" transform="rotate(90) translate(36 -43)">
    <use xlink:href="#rim"/>
    <path pointer-events="none" fill="none" stroke="white" stroke-width="1.5" d="M0,-3.0v7 M-2.5,-0.5L0,-3.0L2.5,-0.5"/>
  </g>
  <g id="arrowDown" transform="rotate(180) translate(-30 -48)">
    <use xlink:href="#rim"/>
    <path pointer-events="none" fill="none" stroke="white" stroke-width="1.5" d="M0,-3.0v7 M-2.5,-0.5L0,-3.0L2.5,-0.5"/>
  </g>
  <g id="arrowLeft" transform="rotate(270) translate(-36 17)">
    <use xlink:href="#rim"/>
    <path pointer-events="none" fill="none" stroke="white" stroke-width="1.5" d="M0,-3.0v7 M-2.5,-0.5L0,-3.0L2.5,-0.5"/>
  </g>
  <g id="resetDef">
    <use xlink:href="#rim2" fill="#404040"><set attributeName="fill" to="#808080" begin="reset.mouseover" end="reset.mouseout"/></use>
  </g>
</defs>
<script type="application/ecmascript">
var viewWidth = 2465;
var viewHeight = 238;
var sectionId = 'dynsection-1';
</script>
<script type="application/ecmascript" xlink:href="svg.min.js"/>
<svg id="graph" class="graph">
<g id="viewport">
<title>OscProbCalcer/OscProbCalcerBase.h</title>
<!-- Node1 -->
<g id="Node000001" class="node">
<title>Node1</title>
<g id="a_Node000001"><a xlink:title=" ">
<polygon fill="#999999" stroke="#666666" points="1526.75,-230 1375.75,-230 1375.75,-199.5 1526.75,-199.5 1526.75,-230"/>
<text text-anchor="start" x="1383.75" y="-216.5" font-family="Helvetica,sans-Serif" font-size="10.00">OscProbCalcer/OscProbCalcer</text>
<text text-anchor="middle" x="1451.25" y="-205.25" font-family="Helvetica,sans-Serif" font-size="10.00">Base.h</text>
</a>
</g>
</g>
<!-- Node2 -->
<g id="Node000002" class="node">
<title>Node2</title>
<g id="a_Node000002"><a xlink:href="SingleOscProbCalcer_8cpp.html" target="_top" xlink:title=" ">
<polygon fill="white" stroke="#666666" points="152.5,-91.38 0,-91.38 0,-72.12 152.5,-72.12 152.5,-91.38"/>
<text text-anchor="middle" x="76.25" y="-77.88" font-family="Helvetica,sans-Serif" font-size="10.00">Apps/SingleOscProbCalcer.cpp</text>
</a>
</g>
</g>
<!-- Node1&#45;&gt;Node2 -->
<g id="edge1_Node000001_Node000002" class="edge">
<title>Node1&#45;&gt;Node2</title>
<g id="a_edge1_Node000001_Node000002"><a xlink:title=" ">
<path fill="none" stroke="#63b8ff" d="M1363.97,-214.04C1127.26,-214.19 476.84,-210.21 268.25,-163.5 199.44,-148.09 124.06,-109.3 92.04,-91.7"/>
<polygon fill="#63b8ff" stroke="#63b8ff" points="1363.76,-217.54 1373.75,-214.03 1363.75,-210.54 1363.76,-217.54"/>
</a>
</g>
</g>
<!-- Node3 -->
<g id="Node000003" class="node">
<title>Node3</title>
<g id="a_Node000003"><a xlink:href="OscProbCalcerBase_8cpp.html" target="_top" xlink:title=" ">
<polygon fill="white" stroke="#666666" points="1104.75,-163.5 953.75,-163.5 953.75,-133 1104.75,-133 1104.75,-163.5"/>
<text text-anchor="start" x="961.75" y="-150" font-family="Helvetica,sans-Serif" font-size="10.00">OscProbCalcer/OscProbCalcer</text>
<text text-anchor="middle" x="1029.25" y="-138.75" font-family="Helvetica,sans-Serif" font-size="10.00">Base.cpp</text>
</a>
</g>
</g>
<!-- Node1&#45;&gt;Node3 -->
<g id="edge2_Node000001_Node000003" class="edge">
<title>Node1&#45;&gt;Node3</title>
<g id="a_edge2_Node000001_Node000003"><a xlink:title=" ">
<path fill="none" stroke="#63b8ff" d="M1364.21,-201.31C1295.9,-191.42 1198.44,-177.06 1113.25,-163.5 1110.62,-163.08 1107.95,-162.65 1105.24,-162.21"/>
<polygon fill="#63b8ff" stroke="#63b8ff" points="1363.44,-204.73 1373.84,-202.7 1364.44,-197.81 1363.44,-204.73"/>
</a>
</g>
</g>
<!-- Node4 -->
<g id="Node000004" class="node">
<title>Node4</title>
<g id="a_Node000004"><a xlink:href="OscProbCalcerFactory_8h.html" target="_top" xlink:title=" ">
<polygon fill="white" stroke="#666666" points="428.75,-163.5 277.75,-163.5 277.75,-133 428.75,-133 428.75,-163.5"/>
<text text-anchor="start" x="285.75" y="-150" font-family="Helvetica,sans-Serif" font-size="10.00">OscProbCalcer/OscProbCalcer</text>
<text text-anchor="middle" x="353.25" y="-138.75" font-family="Helvetica,sans-Serif" font-size="10.00">Factory.h</text>
</a>
</g>
</g>
<!-- Node1&#45;&gt;Node4 -->
<g id="edge3_Node000001_Node000004" class="edge">
<title>Node1&#45;&gt;Node4</title>
<g id="a_edge3_Node000001_Node000004"><a xlink:title=" ">
<path fill="none" stroke="#63b8ff" d="M1364.12,-208.63C1154.83,-196.34 626.51,-165.3 429.17,-153.71"/>
<polygon fill="#63b8ff" stroke="#63b8ff" points="1363.65,-212.11 1373.84,-209.2 1364.06,-205.12 1363.65,-212.11"/>
</a>
</g>
</g>
<!-- Node7 -->
<g id="Node000007" class="node">
<title>Node7</title>
<g id="a_Node000007"><a xlink:href="OscProbCalcer__CUDAProb3_8h.html" target="_top" xlink:title=" ">
<polygon fill="white" stroke="#666666" points="1273.75,-163.5 1122.75,-163.5 1122.75,-133 1273.75,-133 1273.75,-163.5"/>
<text text-anchor="start" x="1130.75" y="-150" font-family="Helvetica,sans-Serif" font-size="10.00">OscProbCalcer/OscProbCalcer</text>
<text text-anchor="middle" x="1198.25" y="-138.75" font-family="Helvetica,sans-Serif" font-size="10.00">_CUDAProb3.h</text>
</a>
</g>
</g>
<!-- Node1&#45;&gt;Node7 -->
<g id="edge7_Node000001_Node000007" class="edge">
<title>Node1&#45;&gt;Node7</title>
<g id="a_edge7_Node000001_Node000007"><a xlink:title=" ">
<path fill="none" stroke="#63b8ff" d="M1382.59,-196.25C1342.85,-186.11 1293.4,-173.51 1255.73,-163.9"/>
<polygon fill="#63b8ff" stroke="#63b8ff" points="1381.5,-199.58 1392.06,-198.66 1383.23,-192.8 1381.5,-199.58"/>
</a>
</g>
</g>
<!-- Node9 -->
<g id="Node000009" class="node">
<title>Node9</title>
<g id="a_Node000009"><a xlink:href="OscProbCalcer__CUDAProb3Linear_8h.html" target="_top" xlink:title=" ">
<polygon fill="white" stroke="#666666" points="1442.75,-163.5 1291.75,-163.5 1291.75,-133 1442.75,-133 1442.75,-163.5"/>
<text text-anchor="start" x="1299.75" y="-150" font-family="Helvetica,sans-Serif" font-size="10.00">OscProbCalcer/OscProbCalcer</text>
<text text-anchor="middle" x="1367.25" y="-138.75" font-family="Helvetica,sans-Serif" font-size="10.00">_CUDAProb3Linear.h</text>
</a>
</g>
</g>
<!-- Node1&#45;&gt;Node9 -->
<g id="edge9_Node000001_Node000009" class="edge">
<title>Node1&#45;&gt;Node9</title>
<g id="a_edge9_Node000001_Node000009"><a xlink:title=" ">
<path fill="none" stroke="#63b8ff" d="M1423.31,-192.29C1411.13,-182.94 1397.18,-172.23 1386.24,-163.83"/>
<polygon fill="#63b8ff" stroke="#63b8ff" points="1420.93,-194.88 1430.99,-198.19 1425.19,-189.33 1420.93,-194.88"/>
</a>
</g>
</g>
<!-- Node11 -->
<g id="Node000011" class="node">
<title>Node11</title>
<g id="a_Node000011"><a xlink:href="OscProbCalcer__GLoBESLinear_8h.html" target="_top" xlink:title=" ">
<polygon fill="white" stroke="#666666" points="1611.75,-163.5 1460.75,-163.5 1460.75,-133 1611.75,-133 1611.75,-163.5"/>
<text text-anchor="start" x="1468.75" y="-150" font-family="Helvetica,sans-Serif" font-size="10.00">OscProbCalcer/OscProbCalcer</text>
<text text-anchor="middle" x="1536.25" y="-138.75" font-family="Helvetica,sans-Serif" font-size="10.00">_GLoBESLinear.h</text>
</a>
</g>
</g>
<!-- Node1&#45;&gt;Node11 -->
<g id="edge11_Node000001_Node000011" class="edge">
<title>Node1&#45;&gt;Node11</title>
<g id="a_edge11_Node000001_Node000011"><a xlink:title=" ">
<path fill="none" stroke="#63b8ff" d="M1479.53,-192.29C1491.85,-182.94 1505.97,-172.23 1517.04,-163.83"/>
<polygon fill="#63b8ff" stroke="#63b8ff" points="1477.59,-189.37 1471.74,-198.2 1481.83,-194.94 1477.59,-189.37"/>
</a>
</g>
</g>
<!-- Node13 -->
<g id="Node000013" class="node">
<title>Node13</title>
<g id="a_Node000013"><a xlink:href="OscProbCalcer__NuFASTLinear_8h.html" target="_top" xlink:title=" ">
<polygon fill="white" stroke="#666666" points="1780.75,-163.5 1629.75,-163.5 1629.75,-133 1780.75,-133 1780.75,-163.5"/>
<text text-anchor="start" x="1637.75" y="-150" font-family="Helvetica,sans-Serif" font-size="10.00">OscProbCalcer/OscProbCalcer</text>
<text text-anchor="middle" x="1705.25" y="-138.75" font-family="Helvetica,sans-Serif" font-size="10.00">_NuFASTLinear.h</text>
</a>
</g>
</g>
<!-- Node1&#45;&gt;Node13 -->
<g id="edge13_Node000001_Node000013" class="edge">
<title>Node1&#45;&gt;Node13</title>
<g id="a_edge13_Node000001_Node000013"><a xlink:title=" ">
<path fill="none" stroke="#63b8ff" d="M1520.18,-196.25C1560.08,-186.11 1609.72,-173.51 1647.54,-163.9"/>
<polygon fill="#63b8ff" stroke="#63b8ff" points="1519.5,-192.81 1510.67,-198.66 1521.23,-199.59 1519.5,-192.81"/>
</a>
</g>
</g>
<!-- Node15 -->
<g id="Node000015" class="node">
<title>Node15</title>
<g id="a_Node000015"><a xlink:href="OscProbCalcer__NuSQUIDSLinear_8h.html" target="_top" xlink:title=" ">
<polygon fill="white" stroke="#666666" points="1949.75,-163.5 1798.75,-163.5 1798.75,-133 1949.75,-133 1949.75,-163.5"/>
<text text-anchor="start" x="1806.75" y="-150" font-family="Helvetica,sans-Serif" font-size="10.00">OscProbCalcer/OscProbCalcer</text>
<text text-anchor="middle" x="1874.25" y="-138.75" font-family="Helvetica,sans-Serif" font-size="10.00">_NuSQUIDSLinear.h</text>
</a>
</g>
</g>
<!-- Node1&#45;&gt;Node15 -->
<g id="edge15_Node000001_Node000015" class="edge">
<title>Node1&#45;&gt;Node15</title>
<g id="a_edge15_Node000001_Node000015"><a xlink:title=" ">
<path fill="none" stroke="#63b8ff" d="M1538.29,-201.26C1606.59,-191.35 1704.05,-176.97 1789.25,-163.5 1792.21,-163.03 1795.22,-162.55 1798.26,-162.06"/>
<polygon fill="#63b8ff" stroke="#63b8ff" points="1538.05,-197.76 1528.66,-202.66 1539.05,-204.69 1538.05,-197.76"/>
</a>
</g>
</g>
<!-- Node17 -->
<g id="Node000017" class="node">
<title>Node17</title>
<g id="a_Node000017"><a xlink:href="OscProbCalcer__OscProb_8h.html" target="_top" xlink:title=" ">
<polygon fill="white" stroke="#666666" points="2118.75,-163.5 1967.75,-163.5 1967.75,-133 2118.75,-133 2118.75,-163.5"/>
<text text-anchor="start" x="1975.75" y="-150" font-family="Helvetica,sans-Serif" font-size="10.00">OscProbCalcer/OscProbCalcer</text>
<text text-anchor="middle" x="2043.25" y="-138.75" font-family="Helvetica,sans-Serif" font-size="10.00">_OscProb.h</text>
</a>
</g>
</g>
<!-- Node1&#45;&gt;Node17 -->
<g id="edge17_Node000001_Node000017" class="edge">
<title>Node1&#45;&gt;Node17</title>
<g id="a_edge17_Node000001_Node000017"><a xlink:title=" ">
<path fill="none" stroke="#63b8ff" d="M1538.4,-206.91C1639.57,-198.55 1811.35,-183.07 1958.25,-163.5 1961.22,-163.1 1964.24,-162.68 1967.29,-162.25"/>
<polygon fill="#63b8ff" stroke="#63b8ff" points="1538.21,-203.41 1528.53,-207.72 1538.78,-210.39 1538.21,-203.41"/>
</a>
</g>
</g>
<!-- Node19 -->
<g id="Node000019" class="node">
<title>Node19</title>
<g id="a_Node000019"><a xlink:href="OscProbCalcer__Prob3ppLinear_8h.html" target="_top" xlink:title=" ">
<polygon fill="white" stroke="#666666" points="2287.75,-163.5 2136.75,-163.5 2136.75,-133 2287.75,-133 2287.75,-163.5"/>
<text text-anchor="start" x="2144.75" y="-150" font-family="Helvetica,sans-Serif" font-size="10.00">OscProbCalcer/OscProbCalcer</text>
<text text-anchor="middle" x="2212.25" y="-138.75" font-family="Helvetica,sans-Serif" font-size="10.00">_Prob3ppLinear.h</text>
</a>
</g>
</g>
<!-- Node1&#45;&gt;Node19 -->
<g id="edge19_Node000001_Node000019" class="edge">
<title>Node1&#45;&gt;Node19</title>
<g id="a_edge19_Node000001_Node000019"><a xlink:title=" ">
<path fill="none" stroke="#63b8ff" d="M1538.34,-209.84C1667.33,-203.47 1916.58,-188.93 2127.25,-163.5 2130.22,-163.14 2133.25,-162.75 2136.3,-162.34"/>
<polygon fill="#63b8ff" stroke="#63b8ff" points="1538.33,-206.34 1528.51,-210.32 1538.67,-213.33 1538.33,-206.34"/>
</a>
</g>
</g>
<!-- Node21 -->
<g id="Node000021" class="node">
<title>Node21</title>
<g id="a_Node000021"><a xlink:href="OscProbCalcer__ProbGPULinear_8h.html" target="_top" xlink:title=" ">
<polygon fill="white" stroke="#666666" points="2456.75,-163.5 2305.75,-163.5 2305.75,-133 2456.75,-133 2456.75,-163.5"/>
<text text-anchor="start" x="2313.75" y="-150" font-family="Helvetica,sans-Serif" font-size="10.00">OscProbCalcer/OscProbCalcer</text>
<text text-anchor="middle" x="2381.25" y="-138.75" font-family="Helvetica,sans-Serif" font-size="10.00">_ProbGPULinear.h</text>
</a>
</g>
</g>
<!-- Node1&#45;&gt;Node21 -->
<g id="edge21_Node000001_Node000021" class="edge">
<title>Node1&#45;&gt;Node21</title>
<g id="a_edge21_Node000001_Node000021"><a xlink:title=" ">
<path fill="none" stroke="#63b8ff" d="M1538.24,-211.7C1691.87,-207.39 2021.11,-195.03 2297.25,-163.5 2299.9,-163.2 2302.58,-162.87 2305.3,-162.52"/>
<polygon fill="#63b8ff" stroke="#63b8ff" points="1538.45,-208.19 1528.55,-211.97 1538.64,-215.19 1538.45,-208.19"/>
</a>
</g>
</g>
<!-- Node23 -->
<g id="Node000023" class="node">
<title>Node23</title>
<g id="a_Node000023"><a xlink:href="OscillatorBase_8h.html" target="_top" xlink:title=" ">
<polygon fill="white" stroke="#666666" points="860,-157.88 728.5,-157.88 728.5,-138.62 860,-138.62 860,-157.88"/>
<text text-anchor="middle" x="794.25" y="-144.38" font-family="Helvetica,sans-Serif" font-size="10.00">Oscillator/OscillatorBase.h</text>
</a>
</g>
</g>
<!-- Node1&#45;&gt;Node23 -->
<g id="edge23_Node000001_Node000023" class="edge">
<title>Node1&#45;&gt;Node23</title>
<g id="a_edge23_Node000001_Node000023"><a xlink:title=" ">
<path fill="none" stroke="#63b8ff" d="M1364.23,-205.21C1231.06,-192.13 979.63,-167.45 860.31,-155.73"/>
<polygon fill="#63b8ff" stroke="#63b8ff" points="1363.76,-208.68 1374.06,-206.17 1364.45,-201.71 1363.76,-208.68"/>
</a>
</g>
</g>
<!-- Node4&#45;&gt;Node2 -->
<g id="edge4_Node000004_Node000002" class="edge">
<title>Node4&#45;&gt;Node2</title>
<g id="a_edge4_Node000004_Node000002"><a xlink:title=" ">
<path fill="none" stroke="#63b8ff" d="M279.05,-129.97C226.33,-117.7 157.62,-101.7 115.25,-91.83"/>
<polygon fill="#63b8ff" stroke="#63b8ff" points="278.04,-133.33 288.57,-132.19 279.63,-126.51 278.04,-133.33"/>
</a>
</g>
</g>
<!-- Node5 -->
<g id="Node000005" class="node">
<title>Node5</title>
<g id="a_Node000005"><a xlink:href="OscProbCalcerFactory_8cpp.html" target="_top" xlink:title=" ">
<polygon fill="white" stroke="#666666" points="321.75,-97 170.75,-97 170.75,-66.5 321.75,-66.5 321.75,-97"/>
<text text-anchor="start" x="178.75" y="-83.5" font-family="Helvetica,sans-Serif" font-size="10.00">OscProbCalcer/OscProbCalcer</text>
<text text-anchor="middle" x="246.25" y="-72.25" font-family="Helvetica,sans-Serif" font-size="10.00">Factory.cpp</text>
</a>
</g>
</g>
<!-- Node4&#45;&gt;Node5 -->
<g id="edge5_Node000004_Node000005" class="edge">
<title>Node4&#45;&gt;Node5</title>
<g id="a_edge5_Node000004_Node000005"><a xlink:title=" ">
<path fill="none" stroke="#63b8ff" d="M319.47,-126.89C303.55,-117.29 284.92,-106.06 270.43,-97.33"/>
<polygon fill="#63b8ff" stroke="#63b8ff" points="317.3,-129.67 327.67,-131.83 320.92,-123.67 317.3,-129.67"/>
</a>
</g>
</g>
<!-- Node6 -->
<g id="Node000006" class="node">
<title>Node6</title>
<g id="a_Node000006"><a xlink:href="OscillatorBase_8cpp.html" target="_top" xlink:title=" ">
<polygon fill="white" stroke="#666666" points="482.25,-91.38 340.25,-91.38 340.25,-72.12 482.25,-72.12 482.25,-91.38"/>
<text text-anchor="middle" x="411.25" y="-77.88" font-family="Helvetica,sans-Serif" font-size="10.00">Oscillator/OscillatorBase.cpp</text>
</a>
</g>
</g>
<!-- Node4&#45;&gt;Node6 -->
<g id="edge6_Node000004_Node000006" class="edge">
<title>Node4&#45;&gt;Node6</title>
<g id="a_edge6_Node000004_Node000006"><a xlink:title=" ">
<path fill="none" stroke="#63b8ff" d="M373.82,-124.37C384.02,-113.03 395.75,-99.99 403.32,-91.57"/>
<polygon fill="#63b8ff" stroke="#63b8ff" points="371.51,-121.71 367.42,-131.49 376.71,-126.39 371.51,-121.71"/>
</a>
</g>
</g>
<!-- Node8 -->
<g id="Node000008" class="node">
<title>Node8</title>
<g id="a_Node000008"><a xlink:href="OscProbCalcer__CUDAProb3_8cpp.html" target="_top" xlink:title=" ">
<polygon fill="white" stroke="#666666" points="1273.75,-97 1122.75,-97 1122.75,-66.5 1273.75,-66.5 1273.75,-97"/>
<text text-anchor="start" x="1130.75" y="-83.5" font-family="Helvetica,sans-Serif" font-size="10.00">OscProbCalcer/OscProbCalcer</text>
<text text-anchor="middle" x="1198.25" y="-72.25" font-family="Helvetica,sans-Serif" font-size="10.00">_CUDAProb3.cpp</text>
</a>
</g>
</g>
<!-- Node7&#45;&gt;Node8 -->
<g id="edge8_Node000007_Node000008" class="edge">
<title>Node7&#45;&gt;Node8</title>
<g id="a_edge8_Node000007_Node000008"><a xlink:title=" ">
<path fill="none" stroke="#63b8ff" d="M1198.25,-121.31C1198.25,-113.14 1198.25,-104.41 1198.25,-97.33"/>
<polygon fill="#63b8ff" stroke="#63b8ff" points="1194.75,-121.1 1198.25,-131.1 1201.75,-121.1 1194.75,-121.1"/>
</a>
</g>
</g>
<!-- Node10 -->
<g id="Node000010" class="node">
<title>Node10</title>
<g id="a_Node000010"><a xlink:href="OscProbCalcer__CUDAProb3Linear_8cpp.html" target="_top" xlink:title=" ">
<polygon fill="white" stroke="#666666" points="1442.75,-97 1291.75,-97 1291.75,-66.5 1442.75,-66.5 1442.75,-97"/>
<text text-anchor="start" x="1299.75" y="-83.5" font-family="Helvetica,sans-Serif" font-size="10.00">OscProbCalcer/OscProbCalcer</text>
<text text-anchor="middle" x="1367.25" y="-72.25" font-family="Helvetica,sans-Serif" font-size="10.00">_CUDAProb3Linear.cpp</text>
</a>
</g>
</g>
<!-- Node9&#45;&gt;Node10 -->
<g id="edge10_Node000009_Node000010" class="edge">
<title>Node9&#45;&gt;Node10</title>
<g id="a_edge10_Node000009_Node000010"><a xlink:title=" ">
<path fill="none" stroke="#63b8ff" d="M1367.25,-121.31C1367.25,-113.14 1367.25,-104.41 1367.25,-97.33"/>
<polygon fill="#63b8ff" stroke="#63b8ff" points="1363.75,-121.1 1367.25,-131.1 1370.75,-121.1 1363.75,-121.1"/>
</a>
</g>
</g>
<!-- Node12 -->
<g id="Node000012" class="node">
<title>Node12</title>
<g id="a_Node000012"><a xlink:href="OscProbCalcer__GLoBESLinear_8cpp.html" target="_top" xlink:title=" ">
<polygon fill="white" stroke="#666666" points="1611.75,-97 1460.75,-97 1460.75,-66.5 1611.75,-66.5 1611.75,-97"/>
<text text-anchor="start" x="1468.75" y="-83.5" font-family="Helvetica,sans-Serif" font-size="10.00">OscProbCalcer/OscProbCalcer</text>
<text text-anchor="middle" x="1536.25" y="-72.25" font-family="Helvetica,sans-Serif" font-size="10.00">_GLoBESLinear.cpp</text>
</a>
</g>
</g>
<!-- Node11&#45;&gt;Node12 -->
<g id="edge12_Node000011_Node000012" class="edge">
<title>Node11&#45;&gt;Node12</title>
<g id="a_edge12_Node000011_Node000012"><a xlink:title=" ">
<path fill="none" stroke="#63b8ff" d="M1536.25,-121.31C1536.25,-113.14 1536.25,-104.41 1536.25,-97.33"/>
<polygon fill="#63b8ff" stroke="#63b8ff" points="1532.75,-121.1 1536.25,-131.1 1539.75,-121.1 1532.75,-121.1"/>
</a>
</g>
</g>
<!-- Node14 -->
<g id="Node000014" class="node">
<title>Node14</title>
<g id="a_Node000014"><a xlink:href="OscProbCalcer__NuFASTLinear_8cpp.html" target="_top" xlink:title=" ">
<polygon fill="white" stroke="#666666" points="1780.75,-97 1629.75,-97 1629.75,-66.5 1780.75,-66.5 1780.75,-97"/>
<text text-anchor="start" x="1637.75" y="-83.5" font-family="Helvetica,sans-Serif" font-size="10.00">OscProbCalcer/OscProbCalcer</text>
<text text-anchor="middle" x="1705.25" y="-72.25" font-family="Helvetica,sans-Serif" font-size="10.00">_NuFASTLinear.cpp</text>
</a>
</g>
</g>
<!-- Node13&#45;&gt;Node14 -->
<g id="edge14_Node000013_Node000014" class="edge">
<title>Node13&#45;&gt;Node14</title>
<g id="a_edge14_Node000013_Node000014"><a xlink:title=" ">
<path fill="none" stroke="#63b8ff" d="M1705.25,-121.31C1705.25,-113.14 1705.25,-104.41 1705.25,-97.33"/>
<polygon fill="#63b8ff" stroke="#63b8ff" points="1701.75,-121.1 1705.25,-131.1 1708.75,-121.1 1701.75,-121.1"/>
</a>
</g>
</g>
<!-- Node16 -->
<g id="Node000016" class="node">
<title>Node16</title>
<g id="a_Node000016"><a xlink:href="OscProbCalcer__NuSQUIDSLinear_8cpp.html" target="_top" xlink:title=" ">
<polygon fill="white" stroke="#666666" points="1949.75,-97 1798.75,-97 1798.75,-66.5 1949.75,-66.5 1949.75,-97"/>
<text text-anchor="start" x="1806.75" y="-83.5" font-family="Helvetica,sans-Serif" font-size="10.00">OscProbCalcer/OscProbCalcer</text>
<text text-anchor="middle" x="1874.25" y="-72.25" font-family="Helvetica,sans-Serif" font-size="10.00">_NuSQUIDSLinear.cpp</text>
</a>
</g>
</g>
<!-- Node15&#45;&gt;Node16 -->
<g id="edge16_Node000015_Node000016" class="edge">
<title>Node15&#45;&gt;Node16</title>
<g id="a_edge16_Node000015_Node000016"><a xlink:title=" ">
<path fill="none" stroke="#63b8ff" d="M1874.25,-121.31C1874.25,-113.14 1874.25,-104.41 1874.25,-97.33"/>
<polygon fill="#63b8ff" stroke="#63b8ff" points="1870.75,-121.1 1874.25,-131.1 1877.75,-121.1 1870.75,-121.1"/>
</a>
</g>
</g>
<!-- Node18 -->
<g id="Node000018" class="node">
<title>Node18</title>
<g id="a_Node000018"><a xlink:href="OscProbCalcer__OscProb_8cpp.html" target="_top" xlink:title=" ">
<polygon fill="white" stroke="#666666" points="2118.75,-97 1967.75,-97 1967.75,-66.5 2118.75,-66.5 2118.75,-97"/>
<text text-anchor="start" x="1975.75" y="-83.5" font-family="Helvetica,sans-Serif" font-size="10.00">OscProbCalcer/OscProbCalcer</text>
<text text-anchor="middle" x="2043.25" y="-72.25" font-family="Helvetica,sans-Serif" font-size="10.00">_OscProb.cpp</text>
</a>
</g>
</g>
<!-- Node17&#45;&gt;Node18 -->
<g id="edge18_Node000017_Node000018" class="edge">
<title>Node17&#45;&gt;Node18</title>
<g id="a_edge18_Node000017_Node000018"><a xlink:title=" ">
<path fill="none" stroke="#63b8ff" d="M2043.25,-121.31C2043.25,-113.14 2043.25,-104.41 2043.25,-97.33"/>
<polygon fill="#63b8ff" stroke="#63b8ff" points="2039.75,-121.1 2043.25,-131.1 2046.75,-121.1 2039.75,-121.1"/>
</a>
</g>
</g>
<!-- Node20 -->
<g id="Node000020" class="node">
<title>Node20</title>
<g id="a_Node000020"><a xlink:href="OscProbCalcer__Prob3ppLinear_8cpp.html" target="_top" xlink:title=" ">
<polygon fill="white" stroke="#666666" points="2287.75,-97 2136.75,-97 2136.75,-66.5 2287.75,-66.5 2287.75,-97"/>
<text text-anchor="start" x="2144.75" y="-83.5" font-family="Helvetica,sans-Serif" font-size="10.00">OscProbCalcer/OscProbCalcer</text>
<text text-anchor="middle" x="2212.25" y="-72.25" font-family="Helvetica,sans-Serif" font-size="10.00">_Prob3ppLinear.cpp</text>
</a>
</g>
</g>
<!-- Node19&#45;&gt;Node20 -->
<g id="edge20_Node000019_Node000020" class="edge">
<title>Node19&#45;&gt;Node20</title>
<g id="a_edge20_Node000019_Node000020"><a xlink:title=" ">
<path fill="none" stroke="#63b8ff" d="M2212.25,-121.31C2212.25,-113.14 2212.25,-104.41 2212.25,-97.33"/>
<polygon fill="#63b8ff" stroke="#63b8ff" points="2208.75,-121.1 2212.25,-131.1 2215.75,-121.1 2208.75,-121.1"/>
</a>
</g>
</g>
<!-- Node22 -->
<g id="Node000022" class="node">
<title>Node22</title>
<g id="a_Node000022"><a xlink:href="OscProbCalcer__ProbGPULinear_8cpp.html" target="_top" xlink:title=" ">
<polygon fill="white" stroke="#666666" points="2456.75,-97 2305.75,-97 2305.75,-66.5 2456.75,-66.5 2456.75,-97"/>
<text text-anchor="start" x="2313.75" y="-83.5" font-family="Helvetica,sans-Serif" font-size="10.00">OscProbCalcer/OscProbCalcer</text>
<text text-anchor="middle" x="2381.25" y="-72.25" font-family="Helvetica,sans-Serif" font-size="10.00">_ProbGPULinear.cpp</text>
</a>
</g>
</g>
<!-- Node21&#45;&gt;Node22 -->
<g id="edge22_Node000021_Node000022" class="edge">
<title>Node21&#45;&gt;Node22</title>
<g id="a_edge22_Node000021_Node000022"><a xlink:title=" ">
<path fill="none" stroke="#63b8ff" d="M2381.25,-121.31C2381.25,-113.14 2381.25,-104.41 2381.25,-97.33"/>
<polygon fill="#63b8ff" stroke="#63b8ff" points="2377.75,-121.1 2381.25,-131.1 2384.75,-121.1 2377.75,-121.1"/>
</a>
</g>
</g>
<!-- Node23&#45;&gt;Node6 -->
<g id="edge24_Node000023_Node000006" class="edge">
<title>Node23&#45;&gt;Node6</title>
<g id="a_edge24_Node000023_Node000006"><a xlink:title=" ">
<path fill="none" stroke="#63b8ff" d="M727,-136.33C665.58,-126.31 572.26,-110.93 491.25,-97 481.66,-95.35 471.42,-93.55 461.59,-91.81"/>
<polygon fill="#63b8ff" stroke="#63b8ff" points="726.17,-139.74 736.6,-137.9 727.29,-132.83 726.17,-139.74"/>
</a>
</g>
</g>
<!-- Node24 -->
<g id="Node000024" class="node">
<title>Node24</title>
<g id="a_Node000024"><a xlink:href="OscillatorBinned_8h.html" target="_top" xlink:title=" ">
<polygon fill="white" stroke="#666666" points="1104.75,-91.38 965.75,-91.38 965.75,-72.12 1104.75,-72.12 1104.75,-91.38"/>
<text text-anchor="middle" x="1035.25" y="-77.88" font-family="Helvetica,sans-Serif" font-size="10.00">Oscillator/OscillatorBinned.h</text>
</a>
</g>
</g>
<!-- Node23&#45;&gt;Node24 -->
<g id="edge25_Node000023_Node000024" class="edge">
<title>Node23&#45;&gt;Node24</title>
<g id="a_edge25_Node000023_Node000024"><a xlink:title=" ">
<path fill="none" stroke="#63b8ff" d="M839.35,-135.18C886.39,-122.59 959.05,-103.14 1001.4,-91.81"/>
<polygon fill="#63b8ff" stroke="#63b8ff" points="838.49,-131.79 829.73,-137.75 840.3,-138.55 838.49,-131.79"/>
</a>
</g>
</g>
<!-- Node27 -->
<g id="Node000027" class="node">
<title>Node27</title>
<g id="a_Node000027"><a xlink:href="OscillatorFactory_8h.html" target="_top" xlink:title=" ">
<polygon fill="white" stroke="#666666" points="641.88,-91.38 500.62,-91.38 500.62,-72.12 641.88,-72.12 641.88,-91.38"/>
<text text-anchor="middle" x="571.25" y="-77.88" font-family="Helvetica,sans-Serif" font-size="10.00">Oscillator/OscillatorFactory.h</text>
</a>
</g>
</g>
<!-- Node23&#45;&gt;Node27 -->
<g id="edge28_Node000023_Node000027" class="edge">
<title>Node23&#45;&gt;Node27</title>
<g id="a_edge28_Node000023_Node000027"><a xlink:title=" ">
<path fill="none" stroke="#63b8ff" d="M751.97,-135.02C708.42,-122.43 641.59,-103.09 602.57,-91.81"/>
<polygon fill="#63b8ff" stroke="#63b8ff" points="750.74,-138.31 761.32,-137.72 752.68,-131.58 750.74,-138.31"/>
</a>
</g>
</g>
<!-- Node32 -->
<g id="Node000032" class="node">
<title>Node32</title>
<g id="a_Node000032"><a xlink:href="OscillatorSubSampling_8h.html" target="_top" xlink:title=" ">
<polygon fill="white" stroke="#666666" points="778.62,-97 659.88,-97 659.88,-66.5 778.62,-66.5 778.62,-97"/>
<text text-anchor="start" x="667.88" y="-83.5" font-family="Helvetica,sans-Serif" font-size="10.00">Oscillator/OscillatorSub</text>
<text text-anchor="middle" x="719.25" y="-72.25" font-family="Helvetica,sans-Serif" font-size="10.00">Sampling.h</text>
</a>
</g>
</g>
<!-- Node23&#45;&gt;Node32 -->
<g id="edge34_Node000023_Node000032" class="edge">
<title>Node23&#45;&gt;Node32</title>
<g id="a_edge34_Node000023_Node000032"><a xlink:title=" ">
<path fill="none" stroke="#63b8ff" d="M775.4,-131.04C763.36,-120.69 747.87,-107.37 736.22,-97.34"/>
<polygon fill="#63b8ff" stroke="#63b8ff" points="772.81,-133.43 782.67,-137.29 777.37,-128.12 772.81,-133.43"/>
</a>
</g>
</g>
<!-- Node34 -->
<g id="Node000034" class="node">
<title>Node34</title>
<g id="a_Node000034"><a xlink:href="OscillatorUnbinned_8h.html" target="_top" xlink:title=" ">
<polygon fill="white" stroke="#666666" points="947.38,-91.38 797.12,-91.38 797.12,-72.12 947.38,-72.12 947.38,-91.38"/>
<text text-anchor="middle" x="872.25" y="-77.88" font-family="Helvetica,sans-Serif" font-size="10.00">Oscillator/OscillatorUnbinned.h</text>
</a>
</g>
</g>
<!-- Node23&#45;&gt;Node34 -->
<g id="edge37_Node000023_Node000034" class="edge">
<title>Node23&#45;&gt;Node34</title>
<g id="a_edge37_Node000023_Node000034"><a xlink:title=" ">
<path fill="none" stroke="#63b8ff" d="M813.7,-131.17C828.81,-118.67 849.2,-101.81 861.5,-91.64"/>
<polygon fill="#63b8ff" stroke="#63b8ff" points="811.74,-128.25 806.26,-137.32 816.2,-133.64 811.74,-128.25"/>
</a>
</g>
</g>
<!-- Node25 -->
<g id="Node000025" class="node">
<title>Node25</title>
<g id="a_Node000025"><a xlink:href="OscillatorBinned_8cpp.html" target="_top" xlink:title=" ">
<polygon fill="white" stroke="#666666" points="1294,-24.88 1144.5,-24.88 1144.5,-5.63 1294,-5.63 1294,-24.88"/>
<text text-anchor="middle" x="1219.25" y="-11.38" font-family="Helvetica,sans-Serif" font-size="10.00">Oscillator/OscillatorBinned.cpp</text>
</a>
</g>
</g>
<!-- Node24&#45;&gt;Node25 -->
<g id="edge26_Node000024_Node000025" class="edge">
<title>Node24&#45;&gt;Node25</title>
<g id="a_edge26_Node000024_Node000025"><a xlink:title=" ">
<path fill="none" stroke="#63b8ff" d="M1071.75,-67.95C1107.7,-55.35 1161.69,-36.43 1193.41,-25.31"/>
<polygon fill="#63b8ff" stroke="#63b8ff" points="1070.93,-64.53 1062.65,-71.14 1073.25,-71.14 1070.93,-64.53"/>
</a>
</g>
</g>
<!-- Node26 -->
<g id="Node000026" class="node">
<title>Node26</title>
<g id="a_Node000026"><a xlink:href="OscillatorFactory_8cpp.html" target="_top" xlink:title=" ">
<polygon fill="white" stroke="#666666" points="948.12,-24.88 796.38,-24.88 796.38,-5.63 948.12,-5.63 948.12,-24.88"/>
<text text-anchor="middle" x="872.25" y="-11.38" font-family="Helvetica,sans-Serif" font-size="10.00">Oscillator/OscillatorFactory.cpp</text>
</a>
</g>
</g>
<!-- Node24&#45;&gt;Node26 -->
<g id="edge27_Node000024_Node000026" class="edge">
<title>Node24&#45;&gt;Node26</title>
<g id="a_edge27_Node000024_Node000026"><a xlink:title=" ">
<path fill="none" stroke="#63b8ff" d="M1001.67,-67.46C969.84,-54.87 922.88,-36.28 895.14,-25.31"/>
<polygon fill="#63b8ff" stroke="#63b8ff" points="1000.25,-70.66 1010.83,-71.09 1002.82,-64.15 1000.25,-70.66"/>
</a>
</g>
</g>
<!-- Node27&#45;&gt;Node26 -->
<g id="edge33_Node000027_Node000026" class="edge">
<title>Node27&#45;&gt;Node26</title>
<g id="a_edge33_Node000027_Node000026"><a xlink:title=" ">
<path fill="none" stroke="#63b8ff" d="M624.99,-69.23C683.63,-56.67 776.3,-36.81 829.98,-25.31"/>
<polygon fill="#63b8ff" stroke="#63b8ff" points="624.26,-65.81 615.22,-71.33 625.73,-72.66 624.26,-65.81"/>
</a>
</g>
</g>
<!-- Node28 -->
<g id="Node000028" class="node">
<title>Node28</title>
<g id="a_Node000028"><a xlink:href="Analysis_8cpp.html" target="_top" xlink:title=" ">
<polygon fill="white" stroke="#666666" points="180.38,-24.88 84.12,-24.88 84.12,-5.63 180.38,-5.63 180.38,-24.88"/>
<text text-anchor="middle" x="132.25" y="-11.38" font-family="Helvetica,sans-Serif" font-size="10.00">Apps/Analysis.cpp</text>
</a>
</g>
</g>
<!-- Node27&#45;&gt;Node28 -->
<g id="edge29_Node000027_Node000028" class="edge">
<title>Node27&#45;&gt;Node28</title>
<g id="a_edge29_Node000027_Node000028"><a xlink:title=" ">
<path fill="none" stroke="#63b8ff" d="M511.36,-69.7C504.59,-68.56 497.78,-67.47 491.25,-66.5 357.54,-46.64 322.19,-54.94 189.25,-30.5 181.53,-29.08 173.29,-27.22 165.55,-25.32"/>
<polygon fill="#63b8ff" stroke="#63b8ff" points="510.73,-73.14 521.18,-71.38 511.92,-66.24 510.73,-73.14"/>
</a>
</g>
</g>
<!-- Node29 -->
<g id="Node000029" class="node">
<title>Node29</title>
<g id="a_Node000029"><a xlink:href="DragRace_8cpp.html" target="_top" xlink:title=" ">
<polygon fill="white" stroke="#666666" points="300.38,-24.88 198.12,-24.88 198.12,-5.63 300.38,-5.63 300.38,-24.88"/>
<text text-anchor="middle" x="249.25" y="-11.38" font-family="Helvetica,sans-Serif" font-size="10.00">Apps/DragRace.cpp</text>
</a>
</g>
</g>
<!-- Node27&#45;&gt;Node29 -->
<g id="edge30_Node000027_Node000029" class="edge">
<title>Node27&#45;&gt;Node29</title>
<g id="a_edge30_Node000027_Node000029"><a xlink:title=" ">
<path fill="none" stroke="#63b8ff" d="M509.12,-69.62C455.93,-59.91 377.39,-45.12 309.25,-30.5 301.82,-28.91 293.89,-27.1 286.32,-25.32"/>
<polygon fill="#63b8ff" stroke="#63b8ff" points="508.45,-73.06 518.91,-71.41 509.7,-66.17 508.45,-73.06"/>
</a>
</g>
</g>
<!-- Node30 -->
<g id="Node000030" class="node">
<title>Node30</title>
<g id="a_Node000030"><a xlink:href="OscProbCalcerComparison_8cpp.html" target="_top" xlink:title=" ">
<polygon fill="white" stroke="#666666" points="495.88,-24.88 318.62,-24.88 318.62,-5.63 495.88,-5.63 495.88,-24.88"/>
<text text-anchor="middle" x="407.25" y="-11.38" font-family="Helvetica,sans-Serif" font-size="10.00">Apps/OscProbCalcerComparison.cpp</text>
</a>
</g>
</g>
<!-- Node27&#45;&gt;Node30 -->
<g id="edge31_Node000027_Node000030" class="edge">
<title>Node27&#45;&gt;Node30</title>
<g id="a_edge31_Node000027_Node000030"><a xlink:title=" ">
<path fill="none" stroke="#63b8ff" d="M537.46,-67.46C505.43,-54.87 458.19,-36.28 430.28,-25.31"/>
<polygon fill="#63b8ff" stroke="#63b8ff" points="536.1,-70.69 546.69,-71.09 538.67,-64.17 536.1,-70.69"/>
</a>
</g>
</g>
<!-- Node31 -->
<g id="Node000031" class="node">
<title>Node31</title>
<g id="a_Node000031"><a xlink:href="SingleOscillator_8cpp.html" target="_top" xlink:title=" ">
<polygon fill="white" stroke="#666666" points="642.12,-24.88 514.38,-24.88 514.38,-5.63 642.12,-5.63 642.12,-24.88"/>
<text text-anchor="middle" x="578.25" y="-11.38" font-family="Helvetica,sans-Serif" font-size="10.00">Apps/SingleOscillator.cpp</text>
</a>
</g>
</g>
<!-- Node27&#45;&gt;Node31 -->
<g id="edge32_Node000027_Node000031" class="edge">
<title>Node27&#45;&gt;Node31</title>
<g id="a_edge32_Node000027_Node000031"><a xlink:title=" ">
<path fill="none" stroke="#63b8ff" d="M573.43,-60.65C574.72,-48.75 576.3,-34.26 577.28,-25.14"/>
<polygon fill="#63b8ff" stroke="#63b8ff" points="569.99,-59.96 572.39,-70.28 576.95,-60.71 569.99,-59.96"/>
</a>
</g>
</g>
<!-- Node32&#45;&gt;Node26 -->
<g id="edge35_Node000032_Node000026" class="edge">
<title>Node32&#45;&gt;Node26</title>
<g id="a_edge35_Node000032_Node000026"><a xlink:title=" ">
<path fill="none" stroke="#63b8ff" d="M764.52,-61.66C793.07,-49.63 828.62,-34.65 850.88,-25.26"/>
<polygon fill="#63b8ff" stroke="#63b8ff" points="763.22,-58.42 755.36,-65.53 765.94,-64.87 763.22,-58.42"/>
</a>
</g>
</g>
<!-- Node33 -->
<g id="Node000033" class="node">
<title>Node33</title>
<g id="a_Node000033"><a xlink:href="OscillatorSubSampling_8cpp.html" target="_top" xlink:title=" ">
<polygon fill="white" stroke="#666666" points="778.62,-30.5 659.88,-30.5 659.88,0 778.62,0 778.62,-30.5"/>
<text text-anchor="start" x="667.88" y="-17" font-family="Helvetica,sans-Serif" font-size="10.00">Oscillator/OscillatorSub</text>
<text text-anchor="middle" x="719.25" y="-5.75" font-family="Helvetica,sans-Serif" font-size="10.00">Sampling.cpp</text>
</a>
</g>
</g>
<!-- Node32&#45;&gt;Node33 -->
<g id="edge36_Node000032_Node000033" class="edge">
<title>Node32&#45;&gt;Node33</title>
<g id="a_edge36_Node000032_Node000033"><a xlink:title=" ">
<path fill="none" stroke="#63b8ff" d="M719.25,-54.81C719.25,-46.64 719.25,-37.91 719.25,-30.83"/>
<polygon fill="#63b8ff" stroke="#63b8ff" points="715.75,-54.6 719.25,-64.6 722.75,-54.6 715.75,-54.6"/>
</a>
</g>
</g>
<!-- Node34&#45;&gt;Node26 -->
<g id="edge38_Node000034_Node000026" class="edge">
<title>Node34&#45;&gt;Node26</title>
<g id="a_edge38_Node000034_Node000026"><a xlink:title=" ">
<path fill="none" stroke="#63b8ff" d="M872.25,-60.27C872.25,-48.44 872.25,-34.16 872.25,-25.14"/>
<polygon fill="#63b8ff" stroke="#63b8ff" points="868.75,-60.27 872.25,-70.27 875.75,-60.27 868.75,-60.27"/>
</a>
</g>
</g>
<!-- Node35 -->
<g id="Node000035" class="node">
<title>Node35</title>
<g id="a_Node000035"><a xlink:href="OscillatorUnbinned_8cpp.html" target="_top" xlink:title=" ">
<polygon fill="white" stroke="#666666" points="1126.62,-24.88 965.88,-24.88 965.88,-5.63 1126.62,-5.63 1126.62,-24.88"/>
<text text-anchor="middle" x="1046.25" y="-11.38" font-family="Helvetica,sans-Serif" font-size="10.00">Oscillator/OscillatorUnbinned.cpp</text>
</a>
</g>
</g>
<!-- Node34&#45;&gt;Node35 -->
<g id="edge39_Node000034_Node000035" class="edge">
<title>Node34&#45;&gt;Node35</title>
<g id="a_edge39_Node000034_Node000035"><a xlink:title=" ">
<path fill="none" stroke="#63b8ff" d="M907.21,-67.79C941.2,-55.19 991.95,-36.38 1021.81,-25.31"/>
<polygon fill="#63b8ff" stroke="#63b8ff" points="906.39,-64.36 898.23,-71.12 908.82,-70.93 906.39,-64.36"/>
</a>
</g>
</g>
</g>
</svg>

<g id="navigator" transform="translate(0 0)" fill="#404254">
  <rect fill="#f2f5e9" fill-opacity="0.5" stroke="#606060" stroke-width=".5" x="0" y="0" width="60" height="60"/>
  <use id="zoomplus" xlink:href="#zoomPlus" x="17" y="9" onmousedown="handleZoom(evt,'in')"/>
  <use id="zoomminus" xlink:href="#zoomMin" x="42" y="9" onmousedown="handleZoom(evt,'out')"/>
  <use id="reset" xlink:href="#resetDef" x="30" y="36" onmousedown="handleReset()"/>
   <use id="arrowup" xlink:href="#arrowUp" x="0" y="0" onmousedown="handlePan(0,-1)"/>
  <use id="arrowright" xlink:href="#arrowRight" x="0" y="0" onmousedown="handlePan(1,0)"/>
  <use id="arrowdown" xlink:href="#arrowDown" x="0" y="0" onmousedown="handlePan(0,1)"/>
  <use id="arrowleft" xlink:href="#arrowLeft" x="0" y="0" onmousedown="handlePan(-1,0)"/>
</g>
<svg viewBox="0 0 15 15" width="100%" height="30px" preserveAspectRatio="xMaxYMin meet">
 <g id="arrow_out" transform="scale(0.3 0.3)">
  <a xlink:href="OscProbCalcerBase_8h__dep__incl_org.svg" target="_base">
   <rect id="button" ry="5" rx="5" y="6" x="6" height="38" width="38"
        fill="#f2f5e9" fill-opacity="0.5" stroke="#606060" stroke-width="1.0"/>
   <path id="arrow"
     d="M 11.500037,31.436501 C 11.940474,20.09759 22.043105,11.32322 32.158766,21.979434 L 37.068811,17.246167 C 37.068811,17.246167 37.088388,32 37.088388,32 L 22.160133,31.978069 C 22.160133,31.978069 26.997745,27.140456 26.997745,27.140456 C 18.528582,18.264221 13.291696,25.230495 11.500037,31.436501 z"
     style="fill:#404040;"/>
  </a>
 </g>
</svg>

<style type='text/css'>
<![CDATA[
[data-mouse-over-selected='false'] { opacity: 0.7; }
[data-mouse-over-selected='true']  { opacity: 1.0; }
]]>
</style>
<script type="application/ecmascript"><![CDATA[
document.addEventListener('DOMContentLoaded', (event) => {
  highlightEdges();
  highlightAdjacentNodes();
});
]]></script>
</svg>
