<?xml version="1.0" encoding="UTF-8" standalone="no"?>
<!DOCTYPE svg PUBLIC "-//W3C//DTD SVG 1.1//EN"
 "http://www.w3.org/Graphics/SVG/1.1/DTD/svg11.dtd">
<!-- Generated by graphviz version 9.0.0 (20230911.1827)
 -->
<!-- Title: OscProbCalcer/OscProbCalcer_CUDAProb3Linear.cpp Pages: 1 -->
<svg width="529pt" height="260pt"
 viewBox="0.00 0.00 528.75 259.50" xmlns="http://www.w3.org/2000/svg" xmlns:xlink="http://www.w3.org/1999/xlink">
<g id="graph0" class="graph" transform="scale(1 1) rotate(0) translate(4 255.5)">
<title>OscProbCalcer/OscProbCalcer_CUDAProb3Linear.cpp</title>
<!-- Node1 -->
<g id="Node000001" class="node">
<title>Node1</title>
<g id="a_Node000001"><a xlink:title=" ">
<polygon fill="#999999" stroke="#666666" points="448.5,-251.5 297.5,-251.5 297.5,-221 448.5,-221 448.5,-251.5"/>
<text text-anchor="start" x="305.5" y="-238" font-family="Helvetica,sans-Serif" font-size="10.00">OscProbCalcer/OscProbCalcer</text>
<text text-anchor="middle" x="373" y="-226.75" font-family="Helvetica,sans-Serif" font-size="10.00">_CUDAProb3Linear.cpp</text>
</a>
</g>
</g>
<!-- Node2 -->
<g id="Node000002" class="node">
<title>Node2</title>
<g id="a_Node000002"><a xlink:href="OscProbCalcer__CUDAProb3Linear_8h.html" target="_top" xlink:title=" ">
<polygon fill="white" stroke="#666666" points="327.5,-185 152.5,-185 152.5,-165.75 327.5,-165.75 327.5,-185"/>
<text text-anchor="middle" x="240" y="-171.5" font-family="Helvetica,sans-Serif" font-size="10.00">OscProbCalcer_CUDAProb3Linear.h</text>
</a>
</g>
</g>
<!-- Node1&#45;&gt;Node2 -->
<g id="edge1_Node000001_Node000002" class="edge">
<title>Node1&#45;&gt;Node2</title>
<g id="a_edge1_Node000001_Node000002"><a xlink:title=" ">
<path fill="none" stroke="#63b8ff" d="M339.78,-220.55C318.65,-211.19 291.48,-199.16 270.83,-190.02"/>
<polygon fill="#63b8ff" stroke="#63b8ff" points="272.34,-186.86 261.78,-186.02 269.51,-193.26 272.34,-186.86"/>
</a>
</g>
</g>
<!-- Node10 -->
<g id="Node000010" class="node">
<title>Node10</title>
<g id="a_Node000010"><a xlink:title=" ">
<polygon fill="#e0e0e0" stroke="#999999" points="462.75,-19.25 409.25,-19.25 409.25,0 462.75,0 462.75,-19.25"/>
<text text-anchor="middle" x="436" y="-5.75" font-family="Helvetica,sans-Serif" font-size="10.00">iostream</text>
</a>
</g>
</g>
<!-- Node1&#45;&gt;Node10 -->
<g id="edge17_Node000001_Node000010" class="edge">
<title>Node1&#45;&gt;Node10</title>
<g id="a_edge17_Node000001_Node000010"><a xlink:title=" ">
<path fill="none" stroke="#63b8ff" d="M376.96,-220.6C380.78,-206.52 386.73,-184.67 392,-165.75 405.54,-117.14 421.83,-60.08 430.28,-30.57"/>
<polygon fill="#63b8ff" stroke="#63b8ff" points="433.58,-31.74 432.97,-21.16 426.85,-29.81 433.58,-31.74"/>
</a>
</g>
</g>
<!-- Node13 -->
<g id="Node000013" class="node">
<title>Node13</title>
<g id="a_Node000013"><a xlink:title=" ">
<polygon fill="#e0e0e0" stroke="#999999" points="520.75,-185 401.25,-185 401.25,-165.75 520.75,-165.75 520.75,-185"/>
<text text-anchor="middle" x="461" y="-171.5" font-family="Helvetica,sans-Serif" font-size="10.00">beamcpupropagator.hpp</text>
</a>
</g>
</g>
<!-- Node1&#45;&gt;Node13 -->
<g id="edge16_Node000001_Node000013" class="edge">
<title>Node1&#45;&gt;Node13</title>
<g id="a_edge16_Node000001_Node000013"><a xlink:title=" ">
<path fill="none" stroke="#63b8ff" d="M394.75,-220.7C407.89,-211.9 424.63,-200.71 437.99,-191.77"/>
<polygon fill="#63b8ff" stroke="#63b8ff" points="439.81,-194.76 446.18,-186.29 435.92,-188.94 439.81,-194.76"/>
</a>
</g>
</g>
<!-- Node3 -->
<g id="Node000003" class="node">
<title>Node3</title>
<g id="a_Node000003"><a xlink:href="OscProbCalcerBase_8h.html" target="_top" xlink:title=" ">
<polygon fill="white" stroke="#666666" points="166,-129.75 54,-129.75 54,-110.5 166,-110.5 166,-129.75"/>
<text text-anchor="middle" x="110" y="-116.25" font-family="Helvetica,sans-Serif" font-size="10.00">OscProbCalcerBase.h</text>
</a>
</g>
</g>
<!-- Node2&#45;&gt;Node3 -->
<g id="edge2_Node000002_Node000003" class="edge">
<title>Node2&#45;&gt;Node3</title>
<g id="a_edge2_Node000002_Node000003"><a xlink:title=" ">
<path fill="none" stroke="#63b8ff" d="M217.95,-165.34C197.31,-156.89 166.22,-144.15 142.7,-134.52"/>
<polygon fill="#63b8ff" stroke="#63b8ff" points="144.14,-131.33 133.56,-130.78 141.49,-137.81 144.14,-131.33"/>
</a>
</g>
</g>
<!-- Node4 -->
<g id="Node000004" class="node">
<title>Node4</title>
<g id="a_Node000004"><a xlink:href="OscillatorConstants_8h.html" target="_top" xlink:title=" ">
<polygon fill="white" stroke="#666666" points="323.12,-74.5 166.88,-74.5 166.88,-55.25 323.12,-55.25 323.12,-74.5"/>
<text text-anchor="middle" x="245" y="-61" font-family="Helvetica,sans-Serif" font-size="10.00">Constants/OscillatorConstants.h</text>
</a>
</g>
</g>
<!-- Node2&#45;&gt;Node4 -->
<g id="edge14_Node000002_Node000004" class="edge">
<title>Node2&#45;&gt;Node4</title>
<g id="a_edge14_Node000002_Node000004"><a xlink:title=" ">
<path fill="none" stroke="#63b8ff" d="M240.69,-165.49C241.37,-156.49 242.39,-142.16 243,-129.75 243.71,-115.27 244.22,-98.94 244.54,-86.41"/>
<polygon fill="#63b8ff" stroke="#63b8ff" points="248.04,-86.57 244.78,-76.49 241.04,-86.4 248.04,-86.57"/>
</a>
</g>
</g>
<!-- Node12 -->
<g id="Node000012" class="node">
<title>Node12</title>
<g id="a_Node000012"><a xlink:title=" ">
<polygon fill="#e0e0e0" stroke="#999999" points="234.25,-129.75 183.75,-129.75 183.75,-110.5 234.25,-110.5 234.25,-129.75"/>
<text text-anchor="middle" x="209" y="-116.25" font-family="Helvetica,sans-Serif" font-size="10.00">memory</text>
</a>
</g>
</g>
<!-- Node2&#45;&gt;Node12 -->
<g id="edge15_Node000002_Node000012" class="edge">
<title>Node2&#45;&gt;Node12</title>
<g id="a_edge15_Node000002_Node000012"><a xlink:title=" ">
<path fill="none" stroke="#63b8ff" d="M234.88,-165.58C230.82,-158.61 225.01,-148.62 219.91,-139.87"/>
<polygon fill="#63b8ff" stroke="#63b8ff" points="223.05,-138.3 214.99,-131.42 217,-141.82 223.05,-138.3"/>
</a>
</g>
</g>
<!-- Node3&#45;&gt;Node4 -->
<g id="edge3_Node000003_Node000004" class="edge">
<title>Node3&#45;&gt;Node4</title>
<g id="a_edge3_Node000003_Node000004"><a xlink:title=" ">
<path fill="none" stroke="#63b8ff" d="M132.9,-110.09C154.43,-101.6 186.91,-88.79 211.38,-79.14"/>
<polygon fill="#63b8ff" stroke="#63b8ff" points="212.56,-82.43 220.58,-75.51 209.99,-75.92 212.56,-82.43"/>
</a>
</g>
</g>
<!-- Node6 -->
<g id="Node000006" class="node">
<title>Node6</title>
<g id="a_Node000006"><a xlink:title=" ">
<polygon fill="#e0e0e0" stroke="#999999" points="143.88,-19.25 58.12,-19.25 58.12,0 143.88,0 143.88,-19.25"/>
<text text-anchor="middle" x="101" y="-5.75" font-family="Helvetica,sans-Serif" font-size="10.00">yaml&#45;cpp/yaml.h</text>
</a>
</g>
</g>
<!-- Node3&#45;&gt;Node6 -->
<g id="edge13_Node000003_Node000006" class="edge">
<title>Node3&#45;&gt;Node6</title>
<g id="a_edge13_Node000003_Node000006"><a xlink:title=" ">
<path fill="none" stroke="#63b8ff" d="M109.26,-110.25C107.83,-93 104.65,-54.58 102.67,-30.81"/>
<polygon fill="#63b8ff" stroke="#63b8ff" points="106.19,-30.81 101.87,-21.14 99.21,-31.39 106.19,-30.81"/>
</a>
</g>
</g>
<!-- Node9 -->
<g id="Node000009" class="node">
<title>Node9</title>
<g id="a_Node000009"><a xlink:title=" ">
<polygon fill="#e0e0e0" stroke="#999999" points="40,-19.25 0,-19.25 0,0 40,0 40,-19.25"/>
<text text-anchor="middle" x="20" y="-5.75" font-family="Helvetica,sans-Serif" font-size="10.00">string</text>
</a>
</g>
</g>
<!-- Node3&#45;&gt;Node9 -->
<g id="edge12_Node000003_Node000009" class="edge">
<title>Node3&#45;&gt;Node9</title>
<g id="a_edge12_Node000003_Node000009"><a xlink:title=" ">
<path fill="none" stroke="#63b8ff" d="M102.63,-110.25C87.8,-92.36 54.09,-51.72 34.62,-28.25"/>
<polygon fill="#63b8ff" stroke="#63b8ff" points="37.51,-26.25 28.43,-20.79 32.12,-30.72 37.51,-26.25"/>
</a>
</g>
</g>
<!-- Node11 -->
<g id="Node000011" class="node">
<title>Node11</title>
<g id="a_Node000011"><a xlink:title=" ">
<polygon fill="#e0e0e0" stroke="#999999" points="204.5,-19.25 161.5,-19.25 161.5,0 204.5,0 204.5,-19.25"/>
<text text-anchor="middle" x="183" y="-5.75" font-family="Helvetica,sans-Serif" font-size="10.00">vector</text>
</a>
</g>
</g>
<!-- Node3&#45;&gt;Node11 -->
<g id="edge11_Node000003_Node000011" class="edge">
<title>Node3&#45;&gt;Node11</title>
<g id="a_edge11_Node000003_Node000011"><a xlink:title=" ">
<path fill="none" stroke="#63b8ff" d="M115.97,-110.25C127.9,-92.52 154.86,-52.44 170.72,-28.88"/>
<polygon fill="#63b8ff" stroke="#63b8ff" points="173.42,-31.13 176.1,-20.88 167.61,-27.23 173.42,-31.13"/>
</a>
</g>
</g>
<!-- Node5 -->
<g id="Node000005" class="node">
<title>Node5</title>
<g id="a_Node000005"><a xlink:title=" ">
<polygon fill="#e0e0e0" stroke="#999999" points="391.62,-19.25 346.38,-19.25 346.38,0 391.62,0 391.62,-19.25"/>
<text text-anchor="middle" x="369" y="-5.75" font-family="Helvetica,sans-Serif" font-size="10.00">math.h</text>
</a>
</g>
</g>
<!-- Node4&#45;&gt;Node5 -->
<g id="edge4_Node000004_Node000005" class="edge">
<title>Node4&#45;&gt;Node5</title>
<g id="a_edge4_Node000004_Node000005"><a xlink:title=" ">
<path fill="none" stroke="#63b8ff" d="M266.03,-54.84C285.63,-46.43 315.11,-33.77 337.51,-24.15"/>
<polygon fill="#63b8ff" stroke="#63b8ff" points="338.66,-27.46 346.47,-20.3 335.9,-21.03 338.66,-27.46"/>
</a>
</g>
</g>
<!-- Node4&#45;&gt;Node6 -->
<g id="edge5_Node000004_Node000006" class="edge">
<title>Node4&#45;&gt;Node6</title>
<g id="a_edge5_Node000004_Node000006"><a xlink:title=" ">
<path fill="none" stroke="#63b8ff" d="M220.57,-54.84C197.4,-46.27 162.34,-33.31 136.16,-23.63"/>
<polygon fill="#63b8ff" stroke="#63b8ff" points="137.56,-20.41 126.97,-20.23 135.13,-26.98 137.56,-20.41"/>
</a>
</g>
</g>
<!-- Node7 -->
<g id="Node000007" class="node">
<title>Node7</title>
<g id="a_Node000007"><a xlink:title=" ">
<polygon fill="#e0e0e0" stroke="#999999" points="267.62,-19.25 222.38,-19.25 222.38,0 267.62,0 267.62,-19.25"/>
<text text-anchor="middle" x="245" y="-5.75" font-family="Helvetica,sans-Serif" font-size="10.00">TFile.h</text>
</a>
</g>
</g>
<!-- Node4&#45;&gt;Node7 -->
<g id="edge6_Node000004_Node000007" class="edge">
<title>Node4&#45;&gt;Node7</title>
<g id="a_edge6_Node000004_Node000007"><a xlink:title=" ">
<path fill="none" stroke="#63b8ff" d="M245,-55.08C245,-48.57 245,-39.42 245,-31.12"/>
<polygon fill="#63b8ff" stroke="#63b8ff" points="248.5,-31.12 245,-21.12 241.5,-31.12 248.5,-31.12"/>
</a>
</g>
</g>
<!-- Node8 -->
<g id="Node000008" class="node">
<title>Node8</title>
<g id="a_Node000008"><a xlink:title=" ">
<polygon fill="#e0e0e0" stroke="#999999" points="328.12,-19.25 285.88,-19.25 285.88,0 328.12,0 328.12,-19.25"/>
<text text-anchor="middle" x="307" y="-5.75" font-family="Helvetica,sans-Serif" font-size="10.00">TH1.h</text>
</a>
</g>
</g>
<!-- Node4&#45;&gt;Node8 -->
<g id="edge7_Node000004_Node000008" class="edge">
<title>Node4&#45;&gt;Node8</title>
<g id="a_edge7_Node000004_Node000008"><a xlink:title=" ">
<path fill="none" stroke="#63b8ff" d="M255.52,-54.84C264.39,-47.22 277.31,-36.12 287.99,-26.95"/>
<polygon fill="#63b8ff" stroke="#63b8ff" points="290.18,-29.68 295.49,-20.51 285.62,-24.37 290.18,-29.68"/>
</a>
</g>
</g>
<!-- Node4&#45;&gt;Node9 -->
<g id="edge8_Node000004_Node000009" class="edge">
<title>Node4&#45;&gt;Node9</title>
<g id="a_edge8_Node000004_Node000009"><a xlink:title=" ">
<path fill="none" stroke="#63b8ff" d="M201.21,-54.76C163.77,-46.78 108.22,-34.49 51.26,-19.71"/>
<polygon fill="#63b8ff" stroke="#63b8ff" points="52.26,-16.36 41.7,-17.21 50.49,-23.13 52.26,-16.36"/>
</a>
</g>
</g>
<!-- Node4&#45;&gt;Node10 -->
<g id="edge9_Node000004_Node000010" class="edge">
<title>Node4&#45;&gt;Node10</title>
<g id="a_edge9_Node000004_Node000010"><a xlink:title=" ">
<path fill="none" stroke="#63b8ff" d="M277.4,-54.84C310.82,-45.52 362.91,-31 398.19,-21.17"/>
<polygon fill="#63b8ff" stroke="#63b8ff" points="398.86,-24.61 407.55,-18.56 396.98,-17.87 398.86,-24.61"/>
</a>
</g>
</g>
<!-- Node4&#45;&gt;Node11 -->
<g id="edge10_Node000004_Node000011" class="edge">
<title>Node4&#45;&gt;Node11</title>
<g id="a_edge10_Node000004_Node000011"><a xlink:title=" ">
<path fill="none" stroke="#63b8ff" d="M234.48,-54.84C225.61,-47.22 212.69,-36.12 202.01,-26.95"/>
<polygon fill="#63b8ff" stroke="#63b8ff" points="204.38,-24.37 194.51,-20.51 199.82,-29.68 204.38,-24.37"/>
</a>
</g>
</g>
</g>
</svg>
