<?xml version="1.0" encoding="UTF-8" standalone="no"?>
<!DOCTYPE svg PUBLIC "-//W3C//DTD SVG 1.1//EN"
 "http://www.w3.org/Graphics/SVG/1.1/DTD/svg11.dtd">
<!-- Generated by graphviz version 9.0.0 (20230911.1827)
 -->
<!-- Title: OscProbCalcer/OscProbCalcerBase.h Pages: 1 -->
<!--zoomable 238 -->

<svg id="main" version="1.1" xmlns="http://www.w3.org/2000/svg" xmlns:xlink="http://www.w3.org/1999/xlink" xml:space="preserve" onload="init(evt)">
<style type="text/css"><![CDATA[
.node, .edge {opacity: 0.7;}
.node.selected, .edge.selected {opacity: 1;}
.edge:hover path { stroke: red; }
.edge:hover polygon { stroke: red; fill: red; }
]]></style>

<defs>
  <circle id="rim" cx="0" cy="0" r="7"/>
  <circle id="rim2" cx="0" cy="0" r="3.5"/>
  <g id="zoomPlus">
    <use xlink:href="#rim" fill="#404040"><set attributeName="fill" to="#808080" begin="zoomplus.mouseover" end="zoomplus.mouseout"/></use>
    <path d="M-4,0h8M0,-4v8" fill="none" stroke="white" stroke-width="1.5" pointer-events="none"/>
  </g>
  <g id="zoomMin">
    <use xlink:href="#rim" fill="#404040"><set attributeName="fill" to="#808080" begin="zoomminus.mouseover" end="zoomminus.mouseout"/></use>
    <path d="M-4,0h8" fill="none" stroke="white" stroke-width="1.5" pointer-events="none"/>
  </g>
  <g id="arrowUp" transform="translate(30 24)">
    <use xlink:href="#rim"/>
    <path pointer-events="none" fill="none" stroke="white" stroke-width="1.5" d="M0,-3.0v7 M-2.5,-0.5L0,-3.0L2.5,-0.5"/>
  </g>
  <g id="arrowRight" transform="rotate(90) translate(36 -43)">
    <use xlink:href="#rim"/>
    <path pointer-events="none" fill="none" stroke="white" stroke-width="1.5" d="M0,-3.0v7 M-2.5,-0.5L0,-3.0L2.5,-0.5"/>
  </g>
  <g id="arrowDown" transform="rotate(180) translate(-30 -48)">
    <use xlink:href="#rim"/>
    <path pointer-events="none" fill="none" stroke="white" stroke-width="1.5" d="M0,-3.0v7 M-2.5,-0.5L0,-3.0L2.5,-0.5"/>
  </g>
  <g id="arrowLeft" transform="rotate(270) translate(-36 17)">
    <use xlink:href="#rim"/>
    <path pointer-events="none" fill="none" stroke="white" stroke-width="1.5" d="M0,-3.0v7 M-2.5,-0.5L0,-3.0L2.5,-0.5"/>
  </g>
  <g id="resetDef">
    <use xlink:href="#rim2" fill="#404040"><set attributeName="fill" to="#808080" begin="reset.mouseover" end="reset.mouseout"/></use>
  </g>
</defs>
<script type="application/ecmascript">
var viewWidth = 2295;
var viewHeight = 238;
var sectionId = 'dynsection-1';
</script>
<script type="application/ecmascript" xlink:href="svg.min.js"/>
<svg id="graph" class="graph">
<g id="viewport">
<title>OscProbCalcer/OscProbCalcerBase.h</title>
<!-- Node1 -->
<g id="Node000001" class="node">
<title>Node1</title>
<g id="a_Node000001"><a xlink:title=" ">
<polygon fill="#999999" stroke="#666666" points="1441.75,-230 1290.75,-230 1290.75,-199.5 1441.75,-199.5 1441.75,-230"/>
<text text-anchor="start" x="1298.75" y="-216.5" font-family="Helvetica,sans-Serif" font-size="10.00">OscProbCalcer/OscProbCalcer</text>
<text text-anchor="middle" x="1366.25" y="-205.25" font-family="Helvetica,sans-Serif" font-size="10.00">Base.h</text>
</a>
</g>
</g>
<!-- Node2 -->
<g id="Node000002" class="node">
<title>Node2</title>
<g id="a_Node000002"><a xlink:href="SingleOscProbCalcer_8cpp.html" target="_top" xlink:title=" ">
<polygon fill="white" stroke="#666666" points="152.5,-91.38 0,-91.38 0,-72.12 152.5,-72.12 152.5,-91.38"/>
<text text-anchor="middle" x="76.25" y="-77.88" font-family="Helvetica,sans-Serif" font-size="10.00">Apps/SingleOscProbCalcer.cpp</text>
</a>
</g>
</g>
<!-- Node1&#45;&gt;Node2 -->
<g id="edge1_Node000001_Node000002" class="edge">
<title>Node1&#45;&gt;Node2</title>
<g id="a_edge1_Node000001_Node000002"><a xlink:title=" ">
<path fill="none" stroke="#63b8ff" d="M1279.04,-213.7C1054.37,-212.94 460.02,-206.77 268.25,-163.5 199.46,-147.98 124.07,-109.25 92.04,-91.68"/>
<polygon fill="#63b8ff" stroke="#63b8ff" points="1278.89,-217.2 1288.9,-213.73 1278.91,-210.2 1278.89,-217.2"/>
</a>
</g>
</g>
<!-- Node3 -->
<g id="Node000003" class="node">
<title>Node3</title>
<g id="a_Node000003"><a xlink:href="OscProbCalcerBase_8cpp.html" target="_top" xlink:title=" ">
<polygon fill="white" stroke="#666666" points="1103.75,-163.5 952.75,-163.5 952.75,-133 1103.75,-133 1103.75,-163.5"/>
<text text-anchor="start" x="960.75" y="-150" font-family="Helvetica,sans-Serif" font-size="10.00">OscProbCalcer/OscProbCalcer</text>
<text text-anchor="middle" x="1028.25" y="-138.75" font-family="Helvetica,sans-Serif" font-size="10.00">Base.cpp</text>
</a>
</g>
</g>
<!-- Node1&#45;&gt;Node3 -->
<g id="edge2_Node000001_Node000003" class="edge">
<title>Node1&#45;&gt;Node3</title>
<g id="a_edge2_Node000001_Node000003"><a xlink:title=" ">
<path fill="none" stroke="#63b8ff" d="M1279.42,-197.18C1225.23,-186.84 1156.14,-173.65 1104.14,-163.73"/>
<polygon fill="#63b8ff" stroke="#63b8ff" points="1278.43,-200.55 1288.91,-198.99 1279.74,-193.68 1278.43,-200.55"/>
</a>
</g>
</g>
<!-- Node4 -->
<g id="Node000004" class="node">
<title>Node4</title>
<g id="a_Node000004"><a xlink:href="OscProbCalcerFactory_8h.html" target="_top" xlink:title=" ">
<polygon fill="white" stroke="#666666" points="428.75,-163.5 277.75,-163.5 277.75,-133 428.75,-133 428.75,-163.5"/>
<text text-anchor="start" x="285.75" y="-150" font-family="Helvetica,sans-Serif" font-size="10.00">OscProbCalcer/OscProbCalcer</text>
<text text-anchor="middle" x="353.25" y="-138.75" font-family="Helvetica,sans-Serif" font-size="10.00">Factory.h</text>
</a>
</g>
</g>
<!-- Node1&#45;&gt;Node4 -->
<g id="edge3_Node000001_Node000004" class="edge">
<title>Node1&#45;&gt;Node4</title>
<g id="a_edge3_Node000001_Node000004"><a xlink:title=" ">
<path fill="none" stroke="#63b8ff" d="M1279.18,-208.21C1083.8,-195.77 613.17,-165.8 428.97,-154.07"/>
<polygon fill="#63b8ff" stroke="#63b8ff" points="1278.81,-211.69 1289.01,-208.83 1279.26,-204.7 1278.81,-211.69"/>
</a>
</g>
</g>
<!-- Node7 -->
<g id="Node000007" class="node">
<title>Node7</title>
<g id="a_Node000007"><a xlink:href="OscProbCalcer__CUDAProb3_8h.html" target="_top" xlink:title=" ">
<polygon fill="white" stroke="#666666" points="1272.75,-163.5 1121.75,-163.5 1121.75,-133 1272.75,-133 1272.75,-163.5"/>
<text text-anchor="start" x="1129.75" y="-150" font-family="Helvetica,sans-Serif" font-size="10.00">OscProbCalcer/OscProbCalcer</text>
<text text-anchor="middle" x="1197.25" y="-138.75" font-family="Helvetica,sans-Serif" font-size="10.00">_CUDAProb3.h</text>
</a>
</g>
</g>
<!-- Node1&#45;&gt;Node7 -->
<g id="edge7_Node000001_Node000007" class="edge">
<title>Node1&#45;&gt;Node7</title>
<g id="a_edge7_Node000001_Node000007"><a xlink:title=" ">
<path fill="none" stroke="#63b8ff" d="M1317.16,-195.01C1291.24,-185.12 1259.88,-173.15 1235.74,-163.94"/>
<polygon fill="#63b8ff" stroke="#63b8ff" points="1315.9,-198.28 1326.49,-198.57 1318.39,-191.74 1315.9,-198.28"/>
</a>
</g>
</g>
<!-- Node9 -->
<g id="Node000009" class="node">
<title>Node9</title>
<g id="a_Node000009"><a xlink:href="OscProbCalcer__CUDAProb3Linear_8h.html" target="_top" xlink:title=" ">
<polygon fill="white" stroke="#666666" points="1441.75,-163.5 1290.75,-163.5 1290.75,-133 1441.75,-133 1441.75,-163.5"/>
<text text-anchor="start" x="1298.75" y="-150" font-family="Helvetica,sans-Serif" font-size="10.00">OscProbCalcer/OscProbCalcer</text>
<text text-anchor="middle" x="1366.25" y="-138.75" font-family="Helvetica,sans-Serif" font-size="10.00">_CUDAProb3Linear.h</text>
</a>
</g>
</g>
<!-- Node1&#45;&gt;Node9 -->
<g id="edge9_Node000001_Node000009" class="edge">
<title>Node1&#45;&gt;Node9</title>
<g id="a_edge9_Node000001_Node000009"><a xlink:title=" ">
<path fill="none" stroke="#63b8ff" d="M1366.25,-187.81C1366.25,-179.64 1366.25,-170.91 1366.25,-163.83"/>
<polygon fill="#63b8ff" stroke="#63b8ff" points="1362.75,-187.6 1366.25,-197.6 1369.75,-187.6 1362.75,-187.6"/>
</a>
</g>
</g>
<!-- Node11 -->
<g id="Node000011" class="node">
<title>Node11</title>
<g id="a_Node000011"><a xlink:href="OscProbCalcer__NuFASTLinear_8h.html" target="_top" xlink:title=" ">
<polygon fill="white" stroke="#666666" points="1610.75,-163.5 1459.75,-163.5 1459.75,-133 1610.75,-133 1610.75,-163.5"/>
<text text-anchor="start" x="1467.75" y="-150" font-family="Helvetica,sans-Serif" font-size="10.00">OscProbCalcer/OscProbCalcer</text>
<text text-anchor="middle" x="1535.25" y="-138.75" font-family="Helvetica,sans-Serif" font-size="10.00">_NuFASTLinear.h</text>
</a>
</g>
</g>
<!-- Node1&#45;&gt;Node11 -->
<g id="edge11_Node000001_Node000011" class="edge">
<title>Node1&#45;&gt;Node11</title>
<g id="a_edge11_Node000001_Node000011"><a xlink:title=" ">
<path fill="none" stroke="#63b8ff" d="M1415.34,-195.01C1441.26,-185.12 1472.62,-173.15 1496.76,-163.94"/>
<polygon fill="#63b8ff" stroke="#63b8ff" points="1414.11,-191.74 1406.01,-198.57 1416.6,-198.28 1414.11,-191.74"/>
</a>
</g>
</g>
<!-- Node13 -->
<g id="Node000013" class="node">
<title>Node13</title>
<g id="a_Node000013"><a xlink:href="OscProbCalcer__NuSQUIDSLinear_8h.html" target="_top" xlink:title=" ">
<polygon fill="white" stroke="#666666" points="1779.75,-163.5 1628.75,-163.5 1628.75,-133 1779.75,-133 1779.75,-163.5"/>
<text text-anchor="start" x="1636.75" y="-150" font-family="Helvetica,sans-Serif" font-size="10.00">OscProbCalcer/OscProbCalcer</text>
<text text-anchor="middle" x="1704.25" y="-138.75" font-family="Helvetica,sans-Serif" font-size="10.00">_NuSQUIDSLinear.h</text>
</a>
</g>
</g>
<!-- Node1&#45;&gt;Node13 -->
<g id="edge13_Node000001_Node000013" class="edge">
<title>Node1&#45;&gt;Node13</title>
<g id="a_edge13_Node000001_Node000013"><a xlink:title=" ">
<path fill="none" stroke="#63b8ff" d="M1453.08,-197.18C1507.27,-186.84 1576.36,-173.65 1628.36,-163.73"/>
<polygon fill="#63b8ff" stroke="#63b8ff" points="1452.76,-193.68 1443.59,-198.99 1454.07,-200.55 1452.76,-193.68"/>
</a>
</g>
</g>
<!-- Node15 -->
<g id="Node000015" class="node">
<title>Node15</title>
<g id="a_Node000015"><a xlink:href="OscProbCalcer__OscProb_8h.html" target="_top" xlink:title=" ">
<polygon fill="white" stroke="#666666" points="1948.75,-163.5 1797.75,-163.5 1797.75,-133 1948.75,-133 1948.75,-163.5"/>
<text text-anchor="start" x="1805.75" y="-150" font-family="Helvetica,sans-Serif" font-size="10.00">OscProbCalcer/OscProbCalcer</text>
<text text-anchor="middle" x="1873.25" y="-138.75" font-family="Helvetica,sans-Serif" font-size="10.00">_OscProb.h</text>
</a>
</g>
</g>
<!-- Node1&#45;&gt;Node15 -->
<g id="edge15_Node000001_Node000015" class="edge">
<title>Node1&#45;&gt;Node15</title>
<g id="a_edge15_Node000001_Node000015"><a xlink:title=" ">
<path fill="none" stroke="#63b8ff" d="M1453.45,-204.59C1538.9,-195.33 1672.74,-180.05 1788.25,-163.5 1791.21,-163.08 1794.23,-162.63 1797.28,-162.17"/>
<polygon fill="#63b8ff" stroke="#63b8ff" points="1453.31,-201.09 1443.75,-205.64 1454.07,-208.05 1453.31,-201.09"/>
</a>
</g>
</g>
<!-- Node17 -->
<g id="Node000017" class="node">
<title>Node17</title>
<g id="a_Node000017"><a xlink:href="OscProbCalcer__Prob3ppLinear_8h.html" target="_top" xlink:title=" ">
<polygon fill="white" stroke="#666666" points="2117.75,-163.5 1966.75,-163.5 1966.75,-133 2117.75,-133 2117.75,-163.5"/>
<text text-anchor="start" x="1974.75" y="-150" font-family="Helvetica,sans-Serif" font-size="10.00">OscProbCalcer/OscProbCalcer</text>
<text text-anchor="middle" x="2042.25" y="-138.75" font-family="Helvetica,sans-Serif" font-size="10.00">_Prob3ppLinear.h</text>
</a>
</g>
</g>
<!-- Node1&#45;&gt;Node17 -->
<g id="edge17_Node000001_Node000017" class="edge">
<title>Node1&#45;&gt;Node17</title>
<g id="a_edge17_Node000001_Node000017"><a xlink:title=" ">
<path fill="none" stroke="#63b8ff" d="M1453.24,-208.57C1568.7,-201.2 1778.79,-186.01 1957.25,-163.5 1960.22,-163.13 1963.24,-162.72 1966.3,-162.3"/>
<polygon fill="#63b8ff" stroke="#63b8ff" points="1453.29,-205.06 1443.53,-209.19 1453.74,-212.05 1453.29,-205.06"/>
</a>
</g>
</g>
<!-- Node19 -->
<g id="Node000019" class="node">
<title>Node19</title>
<g id="a_Node000019"><a xlink:href="OscProbCalcer__ProbGPULinear_8h.html" target="_top" xlink:title=" ">
<polygon fill="white" stroke="#666666" points="2286.75,-163.5 2135.75,-163.5 2135.75,-133 2286.75,-133 2286.75,-163.5"/>
<text text-anchor="start" x="2143.75" y="-150" font-family="Helvetica,sans-Serif" font-size="10.00">OscProbCalcer/OscProbCalcer</text>
<text text-anchor="middle" x="2211.25" y="-138.75" font-family="Helvetica,sans-Serif" font-size="10.00">_ProbGPULinear.h</text>
</a>
</g>
</g>
<!-- Node1&#45;&gt;Node19 -->
<g id="edge19_Node000001_Node000019" class="edge">
<title>Node1&#45;&gt;Node19</title>
<g id="a_edge19_Node000001_Node000019"><a xlink:title=" ">
<path fill="none" stroke="#63b8ff" d="M1453.27,-210.9C1594.92,-205.6 1883.99,-192.09 2127.25,-163.5 2129.89,-163.19 2132.58,-162.85 2135.29,-162.49"/>
<polygon fill="#63b8ff" stroke="#63b8ff" points="1453.47,-207.39 1443.61,-211.25 1453.73,-214.38 1453.47,-207.39"/>
</a>
</g>
</g>
<!-- Node21 -->
<g id="Node000021" class="node">
<title>Node21</title>
<g id="a_Node000021"><a xlink:href="OscillatorBase_8h.html" target="_top" xlink:title=" ">
<polygon fill="white" stroke="#666666" points="856,-157.88 724.5,-157.88 724.5,-138.62 856,-138.62 856,-157.88"/>
<text text-anchor="middle" x="790.25" y="-144.38" font-family="Helvetica,sans-Serif" font-size="10.00">Oscillator/OscillatorBase.h</text>
</a>
</g>
</g>
<!-- Node1&#45;&gt;Node21 -->
<g id="edge21_Node000001_Node000021" class="edge">
<title>Node1&#45;&gt;Node21</title>
<g id="a_edge21_Node000001_Node000021"><a xlink:title=" ">
<path fill="none" stroke="#63b8ff" d="M1279.07,-203.99C1163.13,-191 960.73,-168.34 856.49,-156.67"/>
<polygon fill="#63b8ff" stroke="#63b8ff" points="1278.52,-207.45 1288.85,-205.08 1279.3,-200.49 1278.52,-207.45"/>
</a>
</g>
</g>
<!-- Node4&#45;&gt;Node2 -->
<g id="edge4_Node000004_Node000002" class="edge">
<title>Node4&#45;&gt;Node2</title>
<g id="a_edge4_Node000004_Node000002"><a xlink:title=" ">
<path fill="none" stroke="#63b8ff" d="M279.05,-129.97C226.33,-117.7 157.62,-101.7 115.25,-91.83"/>
<polygon fill="#63b8ff" stroke="#63b8ff" points="278.04,-133.33 288.57,-132.19 279.63,-126.51 278.04,-133.33"/>
</a>
</g>
</g>
<!-- Node5 -->
<g id="Node000005" class="node">
<title>Node5</title>
<g id="a_Node000005"><a xlink:href="OscProbCalcerFactory_8cpp.html" target="_top" xlink:title=" ">
<polygon fill="white" stroke="#666666" points="321.75,-97 170.75,-97 170.75,-66.5 321.75,-66.5 321.75,-97"/>
<text text-anchor="start" x="178.75" y="-83.5" font-family="Helvetica,sans-Serif" font-size="10.00">OscProbCalcer/OscProbCalcer</text>
<text text-anchor="middle" x="246.25" y="-72.25" font-family="Helvetica,sans-Serif" font-size="10.00">Factory.cpp</text>
</a>
</g>
</g>
<!-- Node4&#45;&gt;Node5 -->
<g id="edge5_Node000004_Node000005" class="edge">
<title>Node4&#45;&gt;Node5</title>
<g id="a_edge5_Node000004_Node000005"><a xlink:title=" ">
<path fill="none" stroke="#63b8ff" d="M319.47,-126.89C303.55,-117.29 284.92,-106.06 270.43,-97.33"/>
<polygon fill="#63b8ff" stroke="#63b8ff" points="317.3,-129.67 327.67,-131.83 320.92,-123.67 317.3,-129.67"/>
</a>
</g>
</g>
<!-- Node6 -->
<g id="Node000006" class="node">
<title>Node6</title>
<g id="a_Node000006"><a xlink:href="OscillatorBase_8cpp.html" target="_top" xlink:title=" ">
<polygon fill="white" stroke="#666666" points="482.25,-91.38 340.25,-91.38 340.25,-72.12 482.25,-72.12 482.25,-91.38"/>
<text text-anchor="middle" x="411.25" y="-77.88" font-family="Helvetica,sans-Serif" font-size="10.00">Oscillator/OscillatorBase.cpp</text>
</a>
</g>
</g>
<!-- Node4&#45;&gt;Node6 -->
<g id="edge6_Node000004_Node000006" class="edge">
<title>Node4&#45;&gt;Node6</title>
<g id="a_edge6_Node000004_Node000006"><a xlink:title=" ">
<path fill="none" stroke="#63b8ff" d="M373.82,-124.37C384.02,-113.03 395.75,-99.99 403.32,-91.57"/>
<polygon fill="#63b8ff" stroke="#63b8ff" points="371.51,-121.71 367.42,-131.49 376.71,-126.39 371.51,-121.71"/>
</a>
</g>
</g>
<!-- Node8 -->
<g id="Node000008" class="node">
<title>Node8</title>
<g id="a_Node000008"><a xlink:href="OscProbCalcer__CUDAProb3_8cpp.html" target="_top" xlink:title=" ">
<polygon fill="white" stroke="#666666" points="1272.75,-97 1121.75,-97 1121.75,-66.5 1272.75,-66.5 1272.75,-97"/>
<text text-anchor="start" x="1129.75" y="-83.5" font-family="Helvetica,sans-Serif" font-size="10.00">OscProbCalcer/OscProbCalcer</text>
<text text-anchor="middle" x="1197.25" y="-72.25" font-family="Helvetica,sans-Serif" font-size="10.00">_CUDAProb3.cpp</text>
</a>
</g>
</g>
<!-- Node7&#45;&gt;Node8 -->
<g id="edge8_Node000007_Node000008" class="edge">
<title>Node7&#45;&gt;Node8</title>
<g id="a_edge8_Node000007_Node000008"><a xlink:title=" ">
<path fill="none" stroke="#63b8ff" d="M1197.25,-121.31C1197.25,-113.14 1197.25,-104.41 1197.25,-97.33"/>
<polygon fill="#63b8ff" stroke="#63b8ff" points="1193.75,-121.1 1197.25,-131.1 1200.75,-121.1 1193.75,-121.1"/>
</a>
</g>
</g>
<!-- Node10 -->
<g id="Node000010" class="node">
<title>Node10</title>
<g id="a_Node000010"><a xlink:href="OscProbCalcer__CUDAProb3Linear_8cpp.html" target="_top" xlink:title=" ">
<polygon fill="white" stroke="#666666" points="1441.75,-97 1290.75,-97 1290.75,-66.5 1441.75,-66.5 1441.75,-97"/>
<text text-anchor="start" x="1298.75" y="-83.5" font-family="Helvetica,sans-Serif" font-size="10.00">OscProbCalcer/OscProbCalcer</text>
<text text-anchor="middle" x="1366.25" y="-72.25" font-family="Helvetica,sans-Serif" font-size="10.00">_CUDAProb3Linear.cpp</text>
</a>
</g>
</g>
<!-- Node9&#45;&gt;Node10 -->
<g id="edge10_Node000009_Node000010" class="edge">
<title>Node9&#45;&gt;Node10</title>
<g id="a_edge10_Node000009_Node000010"><a xlink:title=" ">
<path fill="none" stroke="#63b8ff" d="M1366.25,-121.31C1366.25,-113.14 1366.25,-104.41 1366.25,-97.33"/>
<polygon fill="#63b8ff" stroke="#63b8ff" points="1362.75,-121.1 1366.25,-131.1 1369.75,-121.1 1362.75,-121.1"/>
</a>
</g>
</g>
<!-- Node12 -->
<g id="Node000012" class="node">
<title>Node12</title>
<g id="a_Node000012"><a xlink:href="OscProbCalcer__NuFASTLinear_8cpp.html" target="_top" xlink:title=" ">
<polygon fill="white" stroke="#666666" points="1610.75,-97 1459.75,-97 1459.75,-66.5 1610.75,-66.5 1610.75,-97"/>
<text text-anchor="start" x="1467.75" y="-83.5" font-family="Helvetica,sans-Serif" font-size="10.00">OscProbCalcer/OscProbCalcer</text>
<text text-anchor="middle" x="1535.25" y="-72.25" font-family="Helvetica,sans-Serif" font-size="10.00">_NuFASTLinear.cpp</text>
</a>
</g>
</g>
<!-- Node11&#45;&gt;Node12 -->
<g id="edge12_Node000011_Node000012" class="edge">
<title>Node11&#45;&gt;Node12</title>
<g id="a_edge12_Node000011_Node000012"><a xlink:title=" ">
<path fill="none" stroke="#63b8ff" d="M1535.25,-121.31C1535.25,-113.14 1535.25,-104.41 1535.25,-97.33"/>
<polygon fill="#63b8ff" stroke="#63b8ff" points="1531.75,-121.1 1535.25,-131.1 1538.75,-121.1 1531.75,-121.1"/>
</a>
</g>
</g>
<!-- Node14 -->
<g id="Node000014" class="node">
<title>Node14</title>
<g id="a_Node000014"><a xlink:href="OscProbCalcer__NuSQUIDSLinear_8cpp.html" target="_top" xlink:title=" ">
<polygon fill="white" stroke="#666666" points="1779.75,-97 1628.75,-97 1628.75,-66.5 1779.75,-66.5 1779.75,-97"/>
<text text-anchor="start" x="1636.75" y="-83.5" font-family="Helvetica,sans-Serif" font-size="10.00">OscProbCalcer/OscProbCalcer</text>
<text text-anchor="middle" x="1704.25" y="-72.25" font-family="Helvetica,sans-Serif" font-size="10.00">_NuSQUIDSLinear.cpp</text>
</a>
</g>
</g>
<!-- Node13&#45;&gt;Node14 -->
<g id="edge14_Node000013_Node000014" class="edge">
<title>Node13&#45;&gt;Node14</title>
<g id="a_edge14_Node000013_Node000014"><a xlink:title=" ">
<path fill="none" stroke="#63b8ff" d="M1704.25,-121.31C1704.25,-113.14 1704.25,-104.41 1704.25,-97.33"/>
<polygon fill="#63b8ff" stroke="#63b8ff" points="1700.75,-121.1 1704.25,-131.1 1707.75,-121.1 1700.75,-121.1"/>
</a>
</g>
</g>
<!-- Node16 -->
<g id="Node000016" class="node">
<title>Node16</title>
<g id="a_Node000016"><a xlink:href="OscProbCalcer__OscProb_8cpp.html" target="_top" xlink:title=" ">
<polygon fill="white" stroke="#666666" points="1948.75,-97 1797.75,-97 1797.75,-66.5 1948.75,-66.5 1948.75,-97"/>
<text text-anchor="start" x="1805.75" y="-83.5" font-family="Helvetica,sans-Serif" font-size="10.00">OscProbCalcer/OscProbCalcer</text>
<text text-anchor="middle" x="1873.25" y="-72.25" font-family="Helvetica,sans-Serif" font-size="10.00">_OscProb.cpp</text>
</a>
</g>
</g>
<!-- Node15&#45;&gt;Node16 -->
<g id="edge16_Node000015_Node000016" class="edge">
<title>Node15&#45;&gt;Node16</title>
<g id="a_edge16_Node000015_Node000016"><a xlink:title=" ">
<path fill="none" stroke="#63b8ff" d="M1873.25,-121.31C1873.25,-113.14 1873.25,-104.41 1873.25,-97.33"/>
<polygon fill="#63b8ff" stroke="#63b8ff" points="1869.75,-121.1 1873.25,-131.1 1876.75,-121.1 1869.75,-121.1"/>
</a>
</g>
</g>
<!-- Node18 -->
<g id="Node000018" class="node">
<title>Node18</title>
<g id="a_Node000018"><a xlink:href="OscProbCalcer__Prob3ppLinear_8cpp.html" target="_top" xlink:title=" ">
<polygon fill="white" stroke="#666666" points="2117.75,-97 1966.75,-97 1966.75,-66.5 2117.75,-66.5 2117.75,-97"/>
<text text-anchor="start" x="1974.75" y="-83.5" font-family="Helvetica,sans-Serif" font-size="10.00">OscProbCalcer/OscProbCalcer</text>
<text text-anchor="middle" x="2042.25" y="-72.25" font-family="Helvetica,sans-Serif" font-size="10.00">_Prob3ppLinear.cpp</text>
</a>
</g>
</g>
<!-- Node17&#45;&gt;Node18 -->
<g id="edge18_Node000017_Node000018" class="edge">
<title>Node17&#45;&gt;Node18</title>
<g id="a_edge18_Node000017_Node000018"><a xlink:title=" ">
<path fill="none" stroke="#63b8ff" d="M2042.25,-121.31C2042.25,-113.14 2042.25,-104.41 2042.25,-97.33"/>
<polygon fill="#63b8ff" stroke="#63b8ff" points="2038.75,-121.1 2042.25,-131.1 2045.75,-121.1 2038.75,-121.1"/>
</a>
</g>
</g>
<!-- Node20 -->
<g id="Node000020" class="node">
<title>Node20</title>
<g id="a_Node000020"><a xlink:href="OscProbCalcer__ProbGPULinear_8cpp.html" target="_top" xlink:title=" ">
<polygon fill="white" stroke="#666666" points="2286.75,-97 2135.75,-97 2135.75,-66.5 2286.75,-66.5 2286.75,-97"/>
<text text-anchor="start" x="2143.75" y="-83.5" font-family="Helvetica,sans-Serif" font-size="10.00">OscProbCalcer/OscProbCalcer</text>
<text text-anchor="middle" x="2211.25" y="-72.25" font-family="Helvetica,sans-Serif" font-size="10.00">_ProbGPULinear.cpp</text>
</a>
</g>
</g>
<!-- Node19&#45;&gt;Node20 -->
<g id="edge20_Node000019_Node000020" class="edge">
<title>Node19&#45;&gt;Node20</title>
<g id="a_edge20_Node000019_Node000020"><a xlink:title=" ">
<path fill="none" stroke="#63b8ff" d="M2211.25,-121.31C2211.25,-113.14 2211.25,-104.41 2211.25,-97.33"/>
<polygon fill="#63b8ff" stroke="#63b8ff" points="2207.75,-121.1 2211.25,-131.1 2214.75,-121.1 2207.75,-121.1"/>
</a>
</g>
</g>
<!-- Node21&#45;&gt;Node6 -->
<g id="edge22_Node000021_Node000006" class="edge">
<title>Node21&#45;&gt;Node6</title>
<g id="a_edge22_Node000021_Node000006"><a xlink:title=" ">
<path fill="none" stroke="#63b8ff" d="M723.8,-136.27C663.19,-126.22 571.16,-110.83 491.25,-97 481.8,-95.36 471.72,-93.59 462.02,-91.87"/>
<polygon fill="#63b8ff" stroke="#63b8ff" points="723.18,-139.72 733.62,-137.9 724.33,-132.81 723.18,-139.72"/>
</a>
</g>
</g>
<!-- Node22 -->
<g id="Node000022" class="node">
<title>Node22</title>
<g id="a_Node000022"><a xlink:href="OscillatorBinned_8h.html" target="_top" xlink:title=" ">
<polygon fill="white" stroke="#666666" points="944.75,-91.38 805.75,-91.38 805.75,-72.12 944.75,-72.12 944.75,-91.38"/>
<text text-anchor="middle" x="875.25" y="-77.88" font-family="Helvetica,sans-Serif" font-size="10.00">Oscillator/OscillatorBinned.h</text>
</a>
</g>
</g>
<!-- Node21&#45;&gt;Node22 -->
<g id="edge23_Node000021_Node000022" class="edge">
<title>Node21&#45;&gt;Node22</title>
<g id="a_edge23_Node000021_Node000022"><a xlink:title=" ">
<path fill="none" stroke="#63b8ff" d="M810.93,-131.56C827.33,-119.11 849.68,-102.15 863.26,-91.85"/>
<polygon fill="#63b8ff" stroke="#63b8ff" points="809.13,-128.53 803.27,-137.37 813.36,-134.11 809.13,-128.53"/>
</a>
</g>
</g>
<!-- Node25 -->
<g id="Node000025" class="node">
<title>Node25</title>
<g id="a_Node000025"><a xlink:href="OscillatorFactory_8h.html" target="_top" xlink:title=" ">
<polygon fill="white" stroke="#666666" points="1103.88,-91.38 962.62,-91.38 962.62,-72.12 1103.88,-72.12 1103.88,-91.38"/>
<text text-anchor="middle" x="1033.25" y="-77.88" font-family="Helvetica,sans-Serif" font-size="10.00">Oscillator/OscillatorFactory.h</text>
</a>
</g>
</g>
<!-- Node21&#45;&gt;Node25 -->
<g id="edge26_Node000021_Node000025" class="edge">
<title>Node21&#45;&gt;Node25</title>
<g id="a_edge26_Node000021_Node000025"><a xlink:title=" ">
<path fill="none" stroke="#63b8ff" d="M835.42,-135.26C882.84,-122.67 956.33,-103.17 999.12,-91.81"/>
<polygon fill="#63b8ff" stroke="#63b8ff" points="834.78,-131.81 826.01,-137.76 836.58,-138.57 834.78,-131.81"/>
</a>
</g>
</g>
<!-- Node30 -->
<g id="Node000030" class="node">
<title>Node30</title>
<g id="a_Node000030"><a xlink:href="OscillatorSubSampling_8h.html" target="_top" xlink:title=" ">
<polygon fill="white" stroke="#666666" points="618.62,-97 499.88,-97 499.88,-66.5 618.62,-66.5 618.62,-97"/>
<text text-anchor="start" x="507.88" y="-83.5" font-family="Helvetica,sans-Serif" font-size="10.00">Oscillator/OscillatorSub</text>
<text text-anchor="middle" x="559.25" y="-72.25" font-family="Helvetica,sans-Serif" font-size="10.00">Sampling.h</text>
</a>
</g>
</g>
<!-- Node21&#45;&gt;Node30 -->
<g id="edge32_Node000021_Node000030" class="edge">
<title>Node21&#45;&gt;Node30</title>
<g id="a_edge32_Node000021_Node000030"><a xlink:title=" ">
<path fill="none" stroke="#63b8ff" d="M746.84,-135.13C708.51,-124.43 652.54,-108.8 611.71,-97.4"/>
<polygon fill="#63b8ff" stroke="#63b8ff" points="745.61,-138.42 756.19,-137.74 747.5,-131.68 745.61,-138.42"/>
</a>
</g>
</g>
<!-- Node32 -->
<g id="Node000032" class="node">
<title>Node32</title>
<g id="a_Node000032"><a xlink:href="OscillatorUnbinned_8h.html" target="_top" xlink:title=" ">
<polygon fill="white" stroke="#666666" points="787.38,-91.38 637.12,-91.38 637.12,-72.12 787.38,-72.12 787.38,-91.38"/>
<text text-anchor="middle" x="712.25" y="-77.88" font-family="Helvetica,sans-Serif" font-size="10.00">Oscillator/OscillatorUnbinned.h</text>
</a>
</g>
</g>
<!-- Node21&#45;&gt;Node32 -->
<g id="edge35_Node000021_Node000032" class="edge">
<title>Node21&#45;&gt;Node32</title>
<g id="a_edge35_Node000021_Node000032"><a xlink:title=" ">
<path fill="none" stroke="#63b8ff" d="M770.8,-131.17C755.69,-118.67 735.3,-101.81 723,-91.64"/>
<polygon fill="#63b8ff" stroke="#63b8ff" points="768.3,-133.64 778.24,-137.32 772.76,-128.25 768.3,-133.64"/>
</a>
</g>
</g>
<!-- Node23 -->
<g id="Node000023" class="node">
<title>Node23</title>
<g id="a_Node000023"><a xlink:href="OscillatorBinned_8cpp.html" target="_top" xlink:title=" ">
<polygon fill="white" stroke="#666666" points="956,-24.88 806.5,-24.88 806.5,-5.63 956,-5.63 956,-24.88"/>
<text text-anchor="middle" x="881.25" y="-11.38" font-family="Helvetica,sans-Serif" font-size="10.00">Oscillator/OscillatorBinned.cpp</text>
</a>
</g>
</g>
<!-- Node22&#45;&gt;Node23 -->
<g id="edge24_Node000022_Node000023" class="edge">
<title>Node22&#45;&gt;Node23</title>
<g id="a_edge24_Node000022_Node000023"><a xlink:title=" ">
<path fill="none" stroke="#63b8ff" d="M877.12,-60.65C878.23,-48.75 879.57,-34.26 880.42,-25.14"/>
<polygon fill="#63b8ff" stroke="#63b8ff" points="873.67,-59.99 876.22,-70.27 880.64,-60.64 873.67,-59.99"/>
</a>
</g>
</g>
<!-- Node24 -->
<g id="Node000024" class="node">
<title>Node24</title>
<g id="a_Node000024"><a xlink:href="OscillatorFactory_8cpp.html" target="_top" xlink:title=" ">
<polygon fill="white" stroke="#666666" points="788.12,-24.88 636.38,-24.88 636.38,-5.63 788.12,-5.63 788.12,-24.88"/>
<text text-anchor="middle" x="712.25" y="-11.38" font-family="Helvetica,sans-Serif" font-size="10.00">Oscillator/OscillatorFactory.cpp</text>
</a>
</g>
</g>
<!-- Node22&#45;&gt;Node24 -->
<g id="edge25_Node000022_Node000024" class="edge">
<title>Node22&#45;&gt;Node24</title>
<g id="a_edge25_Node000022_Node000024"><a xlink:title=" ">
<path fill="none" stroke="#63b8ff" d="M841.67,-67.46C809.84,-54.87 762.88,-36.28 735.14,-25.31"/>
<polygon fill="#63b8ff" stroke="#63b8ff" points="840.25,-70.66 850.83,-71.09 842.82,-64.15 840.25,-70.66"/>
</a>
</g>
</g>
<!-- Node25&#45;&gt;Node24 -->
<g id="edge31_Node000025_Node000024" class="edge">
<title>Node25&#45;&gt;Node24</title>
<g id="a_edge31_Node000025_Node000024"><a xlink:title=" ">
<path fill="none" stroke="#63b8ff" d="M976.73,-69.39C914.33,-56.86 815.12,-36.92 757.59,-25.36"/>
<polygon fill="#63b8ff" stroke="#63b8ff" points="975.96,-72.81 986.46,-71.35 977.34,-65.95 975.96,-72.81"/>
</a>
</g>
</g>
<!-- Node26 -->
<g id="Node000026" class="node">
<title>Node26</title>
<g id="a_Node000026"><a xlink:href="Analysis_8cpp.html" target="_top" xlink:title=" ">
<polygon fill="white" stroke="#666666" points="1532.38,-24.88 1436.12,-24.88 1436.12,-5.63 1532.38,-5.63 1532.38,-24.88"/>
<text text-anchor="middle" x="1484.25" y="-11.38" font-family="Helvetica,sans-Serif" font-size="10.00">Apps/Analysis.cpp</text>
</a>
</g>
</g>
<!-- Node25&#45;&gt;Node26 -->
<g id="edge27_Node000025_Node000026" class="edge">
<title>Node25&#45;&gt;Node26</title>
<g id="a_edge27_Node000025_Node000026"><a xlink:title=" ">
<path fill="none" stroke="#63b8ff" d="M1092.11,-69.7C1098.89,-68.56 1105.71,-67.46 1112.25,-66.5 1251.66,-45.98 1288.6,-55.64 1427.25,-30.5 1434.98,-29.1 1443.21,-27.25 1450.95,-25.35"/>
<polygon fill="#63b8ff" stroke="#63b8ff" points="1091.54,-66.25 1082.28,-71.4 1092.73,-73.14 1091.54,-66.25"/>
</a>
</g>
</g>
<!-- Node27 -->
<g id="Node000027" class="node">
<title>Node27</title>
<g id="a_Node000027"><a xlink:href="DragRace_8cpp.html" target="_top" xlink:title=" ">
<polygon fill="white" stroke="#666666" points="1076.38,-24.88 974.12,-24.88 974.12,-5.63 1076.38,-5.63 1076.38,-24.88"/>
<text text-anchor="middle" x="1025.25" y="-11.38" font-family="Helvetica,sans-Serif" font-size="10.00">Apps/DragRace.cpp</text>
</a>
</g>
</g>
<!-- Node25&#45;&gt;Node27 -->
<g id="edge28_Node000025_Node000027" class="edge">
<title>Node25&#45;&gt;Node27</title>
<g id="a_edge28_Node000025_Node000027"><a xlink:title=" ">
<path fill="none" stroke="#63b8ff" d="M1030.76,-60.65C1029.28,-48.75 1027.48,-34.26 1026.35,-25.14"/>
<polygon fill="#63b8ff" stroke="#63b8ff" points="1027.25,-60.79 1031.95,-70.28 1034.19,-59.92 1027.25,-60.79"/>
</a>
</g>
</g>
<!-- Node28 -->
<g id="Node000028" class="node">
<title>Node28</title>
<g id="a_Node000028"><a xlink:href="OscProbCalcerComparison_8cpp.html" target="_top" xlink:title=" ">
<polygon fill="white" stroke="#666666" points="1271.88,-24.88 1094.62,-24.88 1094.62,-5.63 1271.88,-5.63 1271.88,-24.88"/>
<text text-anchor="middle" x="1183.25" y="-11.38" font-family="Helvetica,sans-Serif" font-size="10.00">Apps/OscProbCalcerComparison.cpp</text>
</a>
</g>
</g>
<!-- Node25&#45;&gt;Node28 -->
<g id="edge29_Node000025_Node000028" class="edge">
<title>Node25&#45;&gt;Node28</title>
<g id="a_edge29_Node000025_Node000028"><a xlink:title=" ">
<path fill="none" stroke="#63b8ff" d="M1064.92,-67.13C1094.2,-54.54 1136.88,-36.19 1162.18,-25.31"/>
<polygon fill="#63b8ff" stroke="#63b8ff" points="1063.62,-63.88 1055.81,-71.05 1066.38,-70.31 1063.62,-63.88"/>
</a>
</g>
</g>
<!-- Node29 -->
<g id="Node000029" class="node">
<title>Node29</title>
<g id="a_Node000029"><a xlink:href="SingleOscillator_8cpp.html" target="_top" xlink:title=" ">
<polygon fill="white" stroke="#666666" points="1418.12,-24.88 1290.38,-24.88 1290.38,-5.63 1418.12,-5.63 1418.12,-24.88"/>
<text text-anchor="middle" x="1354.25" y="-11.38" font-family="Helvetica,sans-Serif" font-size="10.00">Apps/SingleOscillator.cpp</text>
</a>
</g>
</g>
<!-- Node25&#45;&gt;Node29 -->
<g id="edge30_Node000025_Node000029" class="edge">
<title>Node25&#45;&gt;Node29</title>
<g id="a_edge30_Node000025_Node000029"><a xlink:title=" ">
<path fill="none" stroke="#63b8ff" d="M1089.77,-69.39C1152.17,-56.86 1251.38,-36.92 1308.91,-25.36"/>
<polygon fill="#63b8ff" stroke="#63b8ff" points="1089.16,-65.95 1080.04,-71.35 1090.54,-72.81 1089.16,-65.95"/>
</a>
</g>
</g>
<!-- Node30&#45;&gt;Node24 -->
<g id="edge33_Node000030_Node000024" class="edge">
<title>Node30&#45;&gt;Node24</title>
<g id="a_edge33_Node000030_Node000024"><a xlink:title=" ">
<path fill="none" stroke="#63b8ff" d="M604.52,-61.66C633.07,-49.63 668.62,-34.65 690.88,-25.26"/>
<polygon fill="#63b8ff" stroke="#63b8ff" points="603.22,-58.42 595.36,-65.53 605.94,-64.87 603.22,-58.42"/>
</a>
</g>
</g>
<!-- Node31 -->
<g id="Node000031" class="node">
<title>Node31</title>
<g id="a_Node000031"><a xlink:href="OscillatorSubSampling_8cpp.html" target="_top" xlink:title=" ">
<polygon fill="white" stroke="#666666" points="439.62,-30.5 320.88,-30.5 320.88,0 439.62,0 439.62,-30.5"/>
<text text-anchor="start" x="328.88" y="-17" font-family="Helvetica,sans-Serif" font-size="10.00">Oscillator/OscillatorSub</text>
<text text-anchor="middle" x="380.25" y="-5.75" font-family="Helvetica,sans-Serif" font-size="10.00">Sampling.cpp</text>
</a>
</g>
</g>
<!-- Node30&#45;&gt;Node31 -->
<g id="edge34_Node000030_Node000031" class="edge">
<title>Node30&#45;&gt;Node31</title>
<g id="a_edge34_Node000030_Node000031"><a xlink:title=" ">
<path fill="none" stroke="#63b8ff" d="M507.99,-62.28C480.39,-52.33 446.82,-40.24 421.02,-30.94"/>
<polygon fill="#63b8ff" stroke="#63b8ff" points="506.61,-65.5 517.21,-65.6 508.99,-58.92 506.61,-65.5"/>
</a>
</g>
</g>
<!-- Node32&#45;&gt;Node24 -->
<g id="edge36_Node000032_Node000024" class="edge">
<title>Node32&#45;&gt;Node24</title>
<g id="a_edge36_Node000032_Node000024"><a xlink:title=" ">
<path fill="none" stroke="#63b8ff" d="M712.25,-60.27C712.25,-48.44 712.25,-34.16 712.25,-25.14"/>
<polygon fill="#63b8ff" stroke="#63b8ff" points="708.75,-60.27 712.25,-70.27 715.75,-60.27 708.75,-60.27"/>
</a>
</g>
</g>
<!-- Node33 -->
<g id="Node000033" class="node">
<title>Node33</title>
<g id="a_Node000033"><a xlink:href="OscillatorUnbinned_8cpp.html" target="_top" xlink:title=" ">
<polygon fill="white" stroke="#666666" points="618.62,-24.88 457.88,-24.88 457.88,-5.63 618.62,-5.63 618.62,-24.88"/>
<text text-anchor="middle" x="538.25" y="-11.38" font-family="Helvetica,sans-Serif" font-size="10.00">Oscillator/OscillatorUnbinned.cpp</text>
</a>
</g>
</g>
<!-- Node32&#45;&gt;Node33 -->
<g id="edge37_Node000032_Node000033" class="edge">
<title>Node32&#45;&gt;Node33</title>
<g id="a_edge37_Node000032_Node000033"><a xlink:title=" ">
<path fill="none" stroke="#63b8ff" d="M677.29,-67.79C643.3,-55.19 592.55,-36.38 562.69,-25.31"/>
<polygon fill="#63b8ff" stroke="#63b8ff" points="675.68,-70.93 686.27,-71.12 678.11,-64.36 675.68,-70.93"/>
</a>
</g>
</g>
</g>
</svg>

<g id="navigator" transform="translate(0 0)" fill="#404254">
  <rect fill="#f2f5e9" fill-opacity="0.5" stroke="#606060" stroke-width=".5" x="0" y="0" width="60" height="60"/>
  <use id="zoomplus" xlink:href="#zoomPlus" x="17" y="9" onmousedown="handleZoom(evt,'in')"/>
  <use id="zoomminus" xlink:href="#zoomMin" x="42" y="9" onmousedown="handleZoom(evt,'out')"/>
  <use id="reset" xlink:href="#resetDef" x="30" y="36" onmousedown="handleReset()"/>
   <use id="arrowup" xlink:href="#arrowUp" x="0" y="0" onmousedown="handlePan(0,-1)"/>
  <use id="arrowright" xlink:href="#arrowRight" x="0" y="0" onmousedown="handlePan(1,0)"/>
  <use id="arrowdown" xlink:href="#arrowDown" x="0" y="0" onmousedown="handlePan(0,1)"/>
  <use id="arrowleft" xlink:href="#arrowLeft" x="0" y="0" onmousedown="handlePan(-1,0)"/>
</g>
<svg viewBox="0 0 15 15" width="100%" height="30px" preserveAspectRatio="xMaxYMin meet">
 <g id="arrow_out" transform="scale(0.3 0.3)">
  <a xlink:href="OscProbCalcerBase_8h__dep__incl_org.svg" target="_base">
   <rect id="button" ry="5" rx="5" y="6" x="6" height="38" width="38"
        fill="#f2f5e9" fill-opacity="0.5" stroke="#606060" stroke-width="1.0"/>
   <path id="arrow"
     d="M 11.500037,31.436501 C 11.940474,20.09759 22.043105,11.32322 32.158766,21.979434 L 37.068811,17.246167 C 37.068811,17.246167 37.088388,32 37.088388,32 L 22.160133,31.978069 C 22.160133,31.978069 26.997745,27.140456 26.997745,27.140456 C 18.528582,18.264221 13.291696,25.230495 11.500037,31.436501 z"
     style="fill:#404040;"/>
  </a>
 </g>
</svg>

<style type='text/css'>
<![CDATA[
[data-mouse-over-selected='false'] { opacity: 0.7; }
[data-mouse-over-selected='true']  { opacity: 1.0; }
]]>
</style>
<script type="application/ecmascript"><![CDATA[
document.addEventListener('DOMContentLoaded', (event) => {
  highlightEdges();
  highlightAdjacentNodes();
});
]]></script>
</svg>
