<?xml version="1.0" encoding="UTF-8" standalone="no"?>
<!DOCTYPE svg PUBLIC "-//W3C//DTD SVG 1.1//EN"
 "http://www.w3.org/Graphics/SVG/1.1/DTD/svg11.dtd">
<!-- Generated by graphviz version 12.2.0 (20241103.1931)
 -->
<!-- Title: OscProbCalcer/OscProbCalcer_CUDAProb3Linear.h Pages: 1 -->
<svg width="474pt" height="204pt"
 viewBox="0.00 0.00 474.12 204.25" xmlns="http://www.w3.org/2000/svg" xmlns:xlink="http://www.w3.org/1999/xlink">
<g id="graph0" class="graph" transform="scale(1 1) rotate(0) translate(4 200.25)">
<title>OscProbCalcer/OscProbCalcer_CUDAProb3Linear.h</title>
<!-- Node1 -->
<g id="Node000001" class="node">
<title>Node1</title>
<g id="a_Node000001"><a xlink:title=" ">
<polygon fill="#999999" stroke="#666666" points="417.38,-196.25 266.38,-196.25 266.38,-165.75 417.38,-165.75 417.38,-196.25"/>
<text text-anchor="start" x="274.38" y="-182.75" font-family="Helvetica,sans-Serif" font-size="10.00">OscProbCalcer/OscProbCalcer</text>
<text text-anchor="middle" x="341.88" y="-171.5" font-family="Helvetica,sans-Serif" font-size="10.00">_CUDAProb3Linear.h</text>
</a>
</g>
</g>
<!-- Node2 -->
<g id="Node000002" class="node">
<title>Node2</title>
<g id="a_Node000002"><a xlink:href="OscProbCalcerBase_8h.html" target="_top" xlink:title=" ">
<polygon fill="white" stroke="#666666" points="397.88,-129.75 285.88,-129.75 285.88,-110.5 397.88,-110.5 397.88,-129.75"/>
<text text-anchor="middle" x="341.88" y="-116.25" font-family="Helvetica,sans-Serif" font-size="10.00">OscProbCalcerBase.h</text>
</a>
</g>
</g>
<!-- Node1&#45;&gt;Node2 -->
<g id="edge1_Node000001_Node000002" class="edge">
<title>Node1&#45;&gt;Node2</title>
<g id="a_edge1_Node000001_Node000002"><a xlink:title=" ">
<path fill="none" stroke="#63b8ff" d="M341.88,-165.45C341.88,-158.21 341.88,-149.34 341.88,-141.44"/>
<polygon fill="#63b8ff" stroke="#63b8ff" points="345.38,-141.71 341.88,-131.71 338.38,-141.71 345.38,-141.71"/>
</a>
</g>
</g>
<!-- Node3 -->
<g id="Node000003" class="node">
<title>Node3</title>
<g id="a_Node000003"><a xlink:href="OscillatorConstants_8h.html" target="_top" xlink:title=" ">
<polygon fill="white" stroke="#666666" points="336,-74.5 179.75,-74.5 179.75,-55.25 336,-55.25 336,-74.5"/>
<text text-anchor="middle" x="257.88" y="-61" font-family="Helvetica,sans-Serif" font-size="10.00">Constants/OscillatorConstants.h</text>
</a>
</g>
</g>
<!-- Node1&#45;&gt;Node3 -->
<g id="edge13_Node000001_Node000003" class="edge">
<title>Node1&#45;&gt;Node3</title>
<g id="a_edge13_Node000001_Node000003"><a xlink:title=" ">
<path fill="none" stroke="#63b8ff" d="M315.83,-165.33C302.44,-156.58 286.88,-144.34 276.88,-129.75 267.95,-116.73 263.14,-99.45 260.6,-86.15"/>
<polygon fill="#63b8ff" stroke="#63b8ff" points="264.07,-85.69 259.03,-76.37 257.16,-86.8 264.07,-85.69"/>
</a>
</g>
</g>
<!-- Node11 -->
<g id="Node000011" class="node">
<title>Node11</title>
<g id="a_Node000011"><a xlink:title=" ">
<polygon fill="#e0e0e0" stroke="#999999" points="466.12,-129.75 415.62,-129.75 415.62,-110.5 466.12,-110.5 466.12,-129.75"/>
<text text-anchor="middle" x="440.88" y="-116.25" font-family="Helvetica,sans-Serif" font-size="10.00">memory</text>
</a>
</g>
</g>
<!-- Node1&#45;&gt;Node11 -->
<g id="edge14_Node000001_Node000011" class="edge">
<title>Node1&#45;&gt;Node11</title>
<g id="a_edge14_Node000001_Node000011"><a xlink:title=" ">
<path fill="none" stroke="#63b8ff" d="M366.6,-165.3C381.68,-156.33 400.89,-144.91 415.99,-135.92"/>
<polygon fill="#63b8ff" stroke="#63b8ff" points="417.59,-139.05 424.39,-130.93 414.01,-133.03 417.59,-139.05"/>
</a>
</g>
</g>
<!-- Node2&#45;&gt;Node3 -->
<g id="edge2_Node000002_Node000003" class="edge">
<title>Node2&#45;&gt;Node3</title>
<g id="a_edge2_Node000002_Node000003"><a xlink:title=" ">
<path fill="none" stroke="#63b8ff" d="M327.63,-110.09C315.08,-102.14 296.54,-90.39 281.73,-81"/>
<polygon fill="#63b8ff" stroke="#63b8ff" points="283.79,-78.16 273.47,-75.76 280.04,-84.07 283.79,-78.16"/>
</a>
</g>
</g>
<!-- Node5 -->
<g id="Node000005" class="node">
<title>Node5</title>
<g id="a_Node000005"><a xlink:title=" ">
<polygon fill="#e0e0e0" stroke="#999999" points="85.75,-19.25 0,-19.25 0,0 85.75,0 85.75,-19.25"/>
<text text-anchor="middle" x="42.88" y="-5.75" font-family="Helvetica,sans-Serif" font-size="10.00">yaml&#45;cpp/yaml.h</text>
</a>
</g>
</g>
<!-- Node2&#45;&gt;Node5 -->
<g id="edge12_Node000002_Node000005" class="edge">
<title>Node2&#45;&gt;Node5</title>
<g id="a_edge12_Node000002_Node000005"><a xlink:title=" ">
<path fill="none" stroke="#63b8ff" d="M296.8,-110.05C261.85,-102.37 212.53,-90.13 170.88,-74.5 133.85,-60.6 93.35,-39.28 68.04,-25.14"/>
<polygon fill="#63b8ff" stroke="#63b8ff" points="69.92,-22.19 59.49,-20.31 66.47,-28.28 69.92,-22.19"/>
</a>
</g>
</g>
<!-- Node8 -->
<g id="Node000008" class="node">
<title>Node8</title>
<g id="a_Node000008"><a xlink:title=" ">
<polygon fill="#e0e0e0" stroke="#999999" points="402.88,-19.25 362.88,-19.25 362.88,0 402.88,0 402.88,-19.25"/>
<text text-anchor="middle" x="382.88" y="-5.75" font-family="Helvetica,sans-Serif" font-size="10.00">string</text>
</a>
</g>
</g>
<!-- Node2&#45;&gt;Node8 -->
<g id="edge11_Node000002_Node000008" class="edge">
<title>Node2&#45;&gt;Node8</title>
<g id="a_edge11_Node000002_Node000008"><a xlink:title=" ">
<path fill="none" stroke="#63b8ff" d="M345.23,-110.25C351.81,-92.84 366.53,-53.87 375.49,-30.16"/>
<polygon fill="#63b8ff" stroke="#63b8ff" points="378.68,-31.63 378.94,-21.04 372.13,-29.16 378.68,-31.63"/>
</a>
</g>
</g>
<!-- Node10 -->
<g id="Node000010" class="node">
<title>Node10</title>
<g id="a_Node000010"><a xlink:title=" ">
<polygon fill="#e0e0e0" stroke="#999999" points="464.38,-19.25 421.38,-19.25 421.38,0 464.38,0 464.38,-19.25"/>
<text text-anchor="middle" x="442.88" y="-5.75" font-family="Helvetica,sans-Serif" font-size="10.00">vector</text>
</a>
</g>
</g>
<!-- Node2&#45;&gt;Node10 -->
<g id="edge10_Node000002_Node000010" class="edge">
<title>Node2&#45;&gt;Node10</title>
<g id="a_edge10_Node000002_Node000010"><a xlink:title=" ">
<path fill="none" stroke="#63b8ff" d="M350.14,-110.25C366.86,-92.28 404.96,-51.36 426.76,-27.94"/>
<polygon fill="#63b8ff" stroke="#63b8ff" points="429.21,-30.44 433.46,-20.73 424.09,-25.67 429.21,-30.44"/>
</a>
</g>
</g>
<!-- Node4 -->
<g id="Node000004" class="node">
<title>Node4</title>
<g id="a_Node000004"><a xlink:title=" ">
<polygon fill="#e0e0e0" stroke="#999999" points="149.5,-19.25 104.25,-19.25 104.25,0 149.5,0 149.5,-19.25"/>
<text text-anchor="middle" x="126.88" y="-5.75" font-family="Helvetica,sans-Serif" font-size="10.00">math.h</text>
</a>
</g>
</g>
<!-- Node3&#45;&gt;Node4 -->
<g id="edge3_Node000003_Node000004" class="edge">
<title>Node3&#45;&gt;Node4</title>
<g id="a_edge3_Node000003_Node000004"><a xlink:title=" ">
<path fill="none" stroke="#63b8ff" d="M235.65,-54.84C214.86,-46.39 183.53,-33.65 159.82,-24.02"/>
<polygon fill="#63b8ff" stroke="#63b8ff" points="161.19,-20.8 150.61,-20.27 158.55,-27.28 161.19,-20.8"/>
</a>
</g>
</g>
<!-- Node3&#45;&gt;Node5 -->
<g id="edge4_Node000003_Node000005" class="edge">
<title>Node3&#45;&gt;Node5</title>
<g id="a_edge4_Node000003_Node000005"><a xlink:title=" ">
<path fill="none" stroke="#63b8ff" d="M221.4,-54.84C185.34,-45.91 129.98,-32.2 90.47,-22.41"/>
<polygon fill="#63b8ff" stroke="#63b8ff" points="91.54,-19.07 80.99,-20.07 89.86,-25.87 91.54,-19.07"/>
</a>
</g>
</g>
<!-- Node6 -->
<g id="Node000006" class="node">
<title>Node6</title>
<g id="a_Node000006"><a xlink:title=" ">
<polygon fill="#e0e0e0" stroke="#999999" points="212.5,-19.25 167.25,-19.25 167.25,0 212.5,0 212.5,-19.25"/>
<text text-anchor="middle" x="189.88" y="-5.75" font-family="Helvetica,sans-Serif" font-size="10.00">TFile.h</text>
</a>
</g>
</g>
<!-- Node3&#45;&gt;Node6 -->
<g id="edge5_Node000003_Node000006" class="edge">
<title>Node3&#45;&gt;Node6</title>
<g id="a_edge5_Node000003_Node000006"><a xlink:title=" ">
<path fill="none" stroke="#63b8ff" d="M246.34,-54.84C236.41,-47.07 221.86,-35.67 210.02,-26.4"/>
<polygon fill="#63b8ff" stroke="#63b8ff" points="212.46,-23.87 202.43,-20.46 208.15,-29.38 212.46,-23.87"/>
</a>
</g>
</g>
<!-- Node7 -->
<g id="Node000007" class="node">
<title>Node7</title>
<g id="a_Node000007"><a xlink:title=" ">
<polygon fill="#e0e0e0" stroke="#999999" points="273,-19.25 230.75,-19.25 230.75,0 273,0 273,-19.25"/>
<text text-anchor="middle" x="251.88" y="-5.75" font-family="Helvetica,sans-Serif" font-size="10.00">TH1.h</text>
</a>
</g>
</g>
<!-- Node3&#45;&gt;Node7 -->
<g id="edge6_Node000003_Node000007" class="edge">
<title>Node3&#45;&gt;Node7</title>
<g id="a_edge6_Node000003_Node000007"><a xlink:title=" ">
<path fill="none" stroke="#63b8ff" d="M256.88,-55.08C256.14,-48.49 255.1,-39.21 254.15,-30.82"/>
<polygon fill="#63b8ff" stroke="#63b8ff" points="257.65,-30.66 253.06,-21.11 250.7,-31.44 257.65,-30.66"/>
</a>
</g>
</g>
<!-- Node3&#45;&gt;Node8 -->
<g id="edge7_Node000003_Node000008" class="edge">
<title>Node3&#45;&gt;Node8</title>
<g id="a_edge7_Node000003_Node000008"><a xlink:title=" ">
<path fill="none" stroke="#63b8ff" d="M279.08,-54.84C299.07,-46.32 329.27,-33.46 351.95,-23.8"/>
<polygon fill="#63b8ff" stroke="#63b8ff" points="353.18,-27.08 361.01,-19.94 350.43,-20.64 353.18,-27.08"/>
</a>
</g>
</g>
<!-- Node9 -->
<g id="Node000009" class="node">
<title>Node9</title>
<g id="a_Node000009"><a xlink:title=" ">
<polygon fill="#e0e0e0" stroke="#999999" points="344.62,-19.25 291.12,-19.25 291.12,0 344.62,0 344.62,-19.25"/>
<text text-anchor="middle" x="317.88" y="-5.75" font-family="Helvetica,sans-Serif" font-size="10.00">iostream</text>
</a>
</g>
</g>
<!-- Node3&#45;&gt;Node9 -->
<g id="edge8_Node000003_Node000009" class="edge">
<title>Node3&#45;&gt;Node9</title>
<g id="a_edge8_Node000003_Node000009"><a xlink:title=" ">
<path fill="none" stroke="#63b8ff" d="M268.05,-54.84C276.64,-47.22 289.14,-36.12 299.48,-26.95"/>
<polygon fill="#63b8ff" stroke="#63b8ff" points="301.56,-29.79 306.72,-20.53 296.91,-24.55 301.56,-29.79"/>
</a>
</g>
</g>
<!-- Node3&#45;&gt;Node10 -->
<g id="edge9_Node000003_Node000010" class="edge">
<title>Node3&#45;&gt;Node10</title>
<g id="a_edge9_Node000003_Node000010"><a xlink:title=" ">
<path fill="none" stroke="#63b8ff" d="M289.26,-54.84C322.88,-45.16 376,-29.88 410.13,-20.05"/>
<polygon fill="#63b8ff" stroke="#63b8ff" points="410.83,-23.49 419.47,-17.36 408.89,-16.76 410.83,-23.49"/>
</a>
</g>
</g>
</g>
</svg>
