<?xml version="1.0" encoding="UTF-8" standalone="no"?>
<!DOCTYPE svg PUBLIC "-//W3C//DTD SVG 1.1//EN"
 "http://www.w3.org/Graphics/SVG/1.1/DTD/svg11.dtd">
<!-- Generated by graphviz version 9.0.0 (20230911.1827)
 -->
<!-- Title: Apps/OscProbCalcerComparison.cpp Pages: 1 -->
<svg width="923pt" height="315pt"
 viewBox="0.00 0.00 922.62 314.75" xmlns="http://www.w3.org/2000/svg" xmlns:xlink="http://www.w3.org/1999/xlink">
<g id="graph0" class="graph" transform="scale(1 1) rotate(0) translate(4 310.75)">
<title>Apps/OscProbCalcerComparison.cpp</title>
<!-- Node1 -->
<g id="Node000001" class="node">
<title>Node1</title>
<g id="a_Node000001"><a xlink:title=" ">
<polygon fill="#999999" stroke="#666666" points="609.5,-306.75 432.25,-306.75 432.25,-287.5 609.5,-287.5 609.5,-306.75"/>
<text text-anchor="middle" x="520.88" y="-293.25" font-family="Helvetica,sans-Serif" font-size="10.00">Apps/OscProbCalcerComparison.cpp</text>
</a>
</g>
</g>
<!-- Node2 -->
<g id="Node000002" class="node">
<title>Node2</title>
<g id="a_Node000002"><a xlink:href="OscillatorFactory_8h.html" target="_top" xlink:title=" ">
<polygon fill="white" stroke="#666666" points="223.5,-251.5 82.25,-251.5 82.25,-232.25 223.5,-232.25 223.5,-251.5"/>
<text text-anchor="middle" x="152.88" y="-238" font-family="Helvetica,sans-Serif" font-size="10.00">Oscillator/OscillatorFactory.h</text>
</a>
</g>
</g>
<!-- Node1&#45;&gt;Node2 -->
<g id="edge1_Node000001_Node000002" class="edge">
<title>Node1&#45;&gt;Node2</title>
<g id="a_edge1_Node000001_Node000002"><a xlink:title=" ">
<path fill="none" stroke="#63b8ff" d="M458.03,-287.03C393.96,-277.76 294.6,-263.38 226.79,-253.57"/>
<polygon fill="#63b8ff" stroke="#63b8ff" points="227.66,-250.16 217.26,-252.19 226.66,-257.09 227.66,-250.16"/>
</a>
</g>
</g>
<!-- Node5 -->
<g id="Node000005" class="node">
<title>Node5</title>
<g id="a_Node000005"><a xlink:href="OscillatorConstants_8h.html" target="_top" xlink:title=" ">
<polygon fill="white" stroke="#666666" points="336,-74.5 179.75,-74.5 179.75,-55.25 336,-55.25 336,-74.5"/>
<text text-anchor="middle" x="257.88" y="-61" font-family="Helvetica,sans-Serif" font-size="10.00">Constants/OscillatorConstants.h</text>
</a>
</g>
</g>
<!-- Node1&#45;&gt;Node5 -->
<g id="edge17_Node000001_Node000005" class="edge">
<title>Node1&#45;&gt;Node5</title>
<g id="a_edge17_Node000001_Node000005"><a xlink:title=" ">
<path fill="none" stroke="#63b8ff" d="M432.08,-287.7C403.41,-281.35 373.08,-270.38 349.88,-251.5 295.98,-207.65 271.04,-124.29 262.04,-86.01"/>
<polygon fill="#63b8ff" stroke="#63b8ff" points="265.48,-85.37 259.91,-76.36 258.65,-86.88 265.48,-85.37"/>
</a>
</g>
</g>
<!-- Node6 -->
<g id="Node000006" class="node">
<title>Node6</title>
<g id="a_Node000006"><a xlink:title=" ">
<polygon fill="#e0e0e0" stroke="#999999" points="371.5,-19.25 326.25,-19.25 326.25,0 371.5,0 371.5,-19.25"/>
<text text-anchor="middle" x="348.88" y="-5.75" font-family="Helvetica,sans-Serif" font-size="10.00">math.h</text>
</a>
</g>
</g>
<!-- Node1&#45;&gt;Node6 -->
<g id="edge20_Node000001_Node000006" class="edge">
<title>Node1&#45;&gt;Node6</title>
<g id="a_edge20_Node000001_Node000006"><a xlink:title=" ">
<path fill="none" stroke="#63b8ff" d="M480.85,-287.04C434.34,-273.83 363.88,-244.45 363.88,-187.62 363.88,-187.62 363.88,-187.62 363.88,-124.75 363.88,-91.69 357.61,-53.69 353.18,-30.95"/>
<polygon fill="#63b8ff" stroke="#63b8ff" points="356.62,-30.33 351.2,-21.23 349.76,-31.72 356.62,-30.33"/>
</a>
</g>
</g>
<!-- Node10 -->
<g id="Node000010" class="node">
<title>Node10</title>
<g id="a_Node000010"><a xlink:title=" ">
<polygon fill="#e0e0e0" stroke="#999999" points="442.62,-19.25 389.12,-19.25 389.12,0 442.62,0 442.62,-19.25"/>
<text text-anchor="middle" x="415.88" y="-5.75" font-family="Helvetica,sans-Serif" font-size="10.00">iostream</text>
</a>
</g>
</g>
<!-- Node1&#45;&gt;Node10 -->
<g id="edge18_Node000001_Node000010" class="edge">
<title>Node1&#45;&gt;Node10</title>
<g id="a_edge18_Node000001_Node000010"><a xlink:title=" ">
<path fill="none" stroke="#63b8ff" d="M481.43,-287.06C460.76,-280.42 436.55,-269.36 420.88,-251.5 401.34,-229.23 401.88,-217.24 401.88,-187.62 401.88,-187.62 401.88,-187.62 401.88,-124.75 401.88,-91.56 407.78,-53.33 411.92,-30.62"/>
<polygon fill="#63b8ff" stroke="#63b8ff" points="415.33,-31.42 413.76,-20.95 408.46,-30.12 415.33,-31.42"/>
</a>
</g>
</g>
<!-- Node13 -->
<g id="Node000013" class="node">
<title>Node13</title>
<g id="a_Node000013"><a xlink:title=" ">
<polygon fill="#e0e0e0" stroke="#999999" points="479.75,-251.5 430,-251.5 430,-232.25 479.75,-232.25 479.75,-251.5"/>
<text text-anchor="middle" x="454.88" y="-238" font-family="Helvetica,sans-Serif" font-size="10.00">iomanip</text>
</a>
</g>
</g>
<!-- Node1&#45;&gt;Node13 -->
<g id="edge19_Node000001_Node000013" class="edge">
<title>Node1&#45;&gt;Node13</title>
<g id="a_edge19_Node000001_Node000013"><a xlink:title=" ">
<path fill="none" stroke="#63b8ff" d="M509.68,-287.09C500.14,-279.4 486.2,-268.15 474.77,-258.93"/>
<polygon fill="#63b8ff" stroke="#63b8ff" points="477.06,-256.28 467.08,-252.73 472.67,-261.73 477.06,-256.28"/>
</a>
</g>
</g>
<!-- Node14 -->
<g id="Node000014" class="node">
<title>Node14</title>
<g id="a_Node000014"><a xlink:title=" ">
<polygon fill="#e0e0e0" stroke="#999999" points="543.5,-251.5 498.25,-251.5 498.25,-232.25 543.5,-232.25 543.5,-251.5"/>
<text text-anchor="middle" x="520.88" y="-238" font-family="Helvetica,sans-Serif" font-size="10.00">chrono</text>
</a>
</g>
</g>
<!-- Node1&#45;&gt;Node14 -->
<g id="edge21_Node000001_Node000014" class="edge">
<title>Node1&#45;&gt;Node14</title>
<g id="a_edge21_Node000001_Node000014"><a xlink:title=" ">
<path fill="none" stroke="#63b8ff" d="M520.88,-287.33C520.88,-280.82 520.88,-271.67 520.88,-263.37"/>
<polygon fill="#63b8ff" stroke="#63b8ff" points="524.38,-263.37 520.88,-253.37 517.38,-263.37 524.38,-263.37"/>
</a>
</g>
</g>
<!-- Node15 -->
<g id="Node000015" class="node">
<title>Node15</title>
<g id="a_Node000015"><a xlink:title=" ">
<polygon fill="#e0e0e0" stroke="#999999" points="617.75,-251.5 562,-251.5 562,-232.25 617.75,-232.25 617.75,-251.5"/>
<text text-anchor="middle" x="589.88" y="-238" font-family="Helvetica,sans-Serif" font-size="10.00">TGraph.h</text>
</a>
</g>
</g>
<!-- Node1&#45;&gt;Node15 -->
<g id="edge22_Node000001_Node000015" class="edge">
<title>Node1&#45;&gt;Node15</title>
<g id="a_edge22_Node000001_Node000015"><a xlink:title=" ">
<path fill="none" stroke="#63b8ff" d="M532.58,-287.09C542.65,-279.32 557.42,-267.92 569.44,-258.65"/>
<polygon fill="#63b8ff" stroke="#63b8ff" points="571.37,-261.58 577.14,-252.7 567.09,-256.04 571.37,-261.58"/>
</a>
</g>
</g>
<!-- Node16 -->
<g id="Node000016" class="node">
<title>Node16</title>
<g id="a_Node000016"><a xlink:title=" ">
<polygon fill="#e0e0e0" stroke="#999999" points="698.12,-251.5 635.62,-251.5 635.62,-232.25 698.12,-232.25 698.12,-251.5"/>
<text text-anchor="middle" x="666.88" y="-238" font-family="Helvetica,sans-Serif" font-size="10.00">TCanvas.h</text>
</a>
</g>
</g>
<!-- Node1&#45;&gt;Node16 -->
<g id="edge23_Node000001_Node000016" class="edge">
<title>Node1&#45;&gt;Node16</title>
<g id="a_edge23_Node000001_Node000016"><a xlink:title=" ">
<path fill="none" stroke="#63b8ff" d="M545.64,-287.09C569.13,-278.52 604.69,-265.56 631.23,-255.88"/>
<polygon fill="#63b8ff" stroke="#63b8ff" points="632.37,-259.19 640.56,-252.47 629.97,-252.61 632.37,-259.19"/>
</a>
</g>
</g>
<!-- Node17 -->
<g id="Node000017" class="node">
<title>Node17</title>
<g id="a_Node000017"><a xlink:title=" ">
<polygon fill="#e0e0e0" stroke="#999999" points="763.25,-251.5 716.5,-251.5 716.5,-232.25 763.25,-232.25 763.25,-251.5"/>
<text text-anchor="middle" x="739.88" y="-238" font-family="Helvetica,sans-Serif" font-size="10.00">TPad.h</text>
</a>
</g>
</g>
<!-- Node1&#45;&gt;Node17 -->
<g id="edge24_Node000001_Node000017" class="edge">
<title>Node1&#45;&gt;Node17</title>
<g id="a_edge24_Node000001_Node000017"><a xlink:title=" ">
<path fill="none" stroke="#63b8ff" d="M559.76,-287.04C595.15,-278.71 649.11,-265.89 705.22,-251.87"/>
<polygon fill="#63b8ff" stroke="#63b8ff" points="705.78,-255.34 714.63,-249.52 704.08,-248.55 705.78,-255.34"/>
</a>
</g>
</g>
<!-- Node18 -->
<g id="Node000018" class="node">
<title>Node18</title>
<g id="a_Node000018"><a xlink:title=" ">
<polygon fill="#e0e0e0" stroke="#999999" points="842.75,-251.5 781,-251.5 781,-232.25 842.75,-232.25 842.75,-251.5"/>
<text text-anchor="middle" x="811.88" y="-238" font-family="Helvetica,sans-Serif" font-size="10.00">TLegend.h</text>
</a>
</g>
</g>
<!-- Node1&#45;&gt;Node18 -->
<g id="edge25_Node000001_Node000018" class="edge">
<title>Node1&#45;&gt;Node18</title>
<g id="a_edge25_Node000001_Node000018"><a xlink:title=" ">
<path fill="none" stroke="#63b8ff" d="M575.33,-287.03C623.76,-278.81 696.78,-266.1 769.67,-251.87"/>
<polygon fill="#63b8ff" stroke="#63b8ff" points="770.27,-255.32 779.4,-249.96 768.92,-248.46 770.27,-255.32"/>
</a>
</g>
</g>
<!-- Node19 -->
<g id="Node000019" class="node">
<title>Node19</title>
<g id="a_Node000019"><a xlink:title=" ">
<polygon fill="#e0e0e0" stroke="#999999" points="914.62,-251.5 861.12,-251.5 861.12,-232.25 914.62,-232.25 914.62,-251.5"/>
<text text-anchor="middle" x="887.88" y="-238" font-family="Helvetica,sans-Serif" font-size="10.00">TLatex.h</text>
</a>
</g>
</g>
<!-- Node1&#45;&gt;Node19 -->
<g id="edge26_Node000001_Node000019" class="edge">
<title>Node1&#45;&gt;Node19</title>
<g id="a_edge26_Node000001_Node000019"><a xlink:title=" ">
<path fill="none" stroke="#63b8ff" d="M606.29,-287.01C670.67,-279.59 761.33,-267.96 849.76,-251.73"/>
<polygon fill="#63b8ff" stroke="#63b8ff" points="850.13,-255.22 859.32,-249.95 848.85,-248.33 850.13,-255.22"/>
</a>
</g>
</g>
<!-- Node3 -->
<g id="Node000003" class="node">
<title>Node3</title>
<g id="a_Node000003"><a xlink:href="OscillatorBase_8h.html" target="_top" xlink:title=" ">
<polygon fill="white" stroke="#666666" points="196.5,-196.25 109.25,-196.25 109.25,-177 196.5,-177 196.5,-196.25"/>
<text text-anchor="middle" x="152.88" y="-182.75" font-family="Helvetica,sans-Serif" font-size="10.00">OscillatorBase.h</text>
</a>
</g>
</g>
<!-- Node2&#45;&gt;Node3 -->
<g id="edge2_Node000002_Node000003" class="edge">
<title>Node2&#45;&gt;Node3</title>
<g id="a_edge2_Node000002_Node000003"><a xlink:title=" ">
<path fill="none" stroke="#63b8ff" d="M152.88,-232.08C152.88,-225.57 152.88,-216.42 152.88,-208.12"/>
<polygon fill="#63b8ff" stroke="#63b8ff" points="156.38,-208.12 152.88,-198.12 149.38,-208.12 156.38,-208.12"/>
</a>
</g>
</g>
<!-- Node12 -->
<g id="Node000012" class="node">
<title>Node12</title>
<g id="a_Node000012"><a xlink:title=" ">
<polygon fill="#e0e0e0" stroke="#999999" points="85.75,-74.5 0,-74.5 0,-55.25 85.75,-55.25 85.75,-74.5"/>
<text text-anchor="middle" x="42.88" y="-61" font-family="Helvetica,sans-Serif" font-size="10.00">yaml&#45;cpp/yaml.h</text>
</a>
</g>
</g>
<!-- Node2&#45;&gt;Node12 -->
<g id="edge16_Node000002_Node000012" class="edge">
<title>Node2&#45;&gt;Node12</title>
<g id="a_edge16_Node000002_Node000012"><a xlink:title=" ">
<path fill="none" stroke="#63b8ff" d="M137.41,-231.94C113.02,-216.83 66.46,-183.67 47.88,-141 40.29,-123.59 39.7,-101.74 40.62,-86.1"/>
<polygon fill="#63b8ff" stroke="#63b8ff" points="44.1,-86.43 41.48,-76.16 37.13,-85.82 44.1,-86.43"/>
</a>
</g>
</g>
<!-- Node4 -->
<g id="Node000004" class="node">
<title>Node4</title>
<g id="a_Node000004"><a xlink:href="OscProbCalcerBase_8h.html" target="_top" xlink:title=" ">
<polygon fill="white" stroke="#666666" points="228.38,-141 77.38,-141 77.38,-110.5 228.38,-110.5 228.38,-141"/>
<text text-anchor="start" x="85.38" y="-127.5" font-family="Helvetica,sans-Serif" font-size="10.00">OscProbCalcer/OscProbCalcer</text>
<text text-anchor="middle" x="152.88" y="-116.25" font-family="Helvetica,sans-Serif" font-size="10.00">Base.h</text>
</a>
</g>
</g>
<!-- Node3&#45;&gt;Node4 -->
<g id="edge3_Node000003_Node000004" class="edge">
<title>Node3&#45;&gt;Node4</title>
<g id="a_edge3_Node000003_Node000004"><a xlink:title=" ">
<path fill="none" stroke="#63b8ff" d="M152.88,-176.68C152.88,-170.23 152.88,-161.16 152.88,-152.51"/>
<polygon fill="#63b8ff" stroke="#63b8ff" points="156.38,-152.8 152.88,-142.8 149.38,-152.8 156.38,-152.8"/>
</a>
</g>
</g>
<!-- Node3&#45;&gt;Node5 -->
<g id="edge14_Node000003_Node000005" class="edge">
<title>Node3&#45;&gt;Node5</title>
<g id="a_edge14_Node000003_Node000005"><a xlink:title=" ">
<path fill="none" stroke="#63b8ff" d="M182.47,-176.63C200.64,-169.66 223,-158.24 236.88,-141 249.59,-125.19 254.62,-102.16 256.6,-85.77"/>
<polygon fill="#63b8ff" stroke="#63b8ff" points="260.04,-86.54 257.46,-76.27 253.07,-85.91 260.04,-86.54"/>
</a>
</g>
</g>
<!-- Node3&#45;&gt;Node12 -->
<g id="edge15_Node000003_Node000012" class="edge">
<title>Node3&#45;&gt;Node12</title>
<g id="a_edge15_Node000003_Node000012"><a xlink:title=" ">
<path fill="none" stroke="#63b8ff" d="M123.62,-176.63C105.29,-169.62 82.44,-158.15 67.88,-141 54.54,-125.31 48.25,-102.25 45.33,-85.83"/>
<polygon fill="#63b8ff" stroke="#63b8ff" points="48.84,-85.67 43.91,-76.29 41.92,-86.7 48.84,-85.67"/>
</a>
</g>
</g>
<!-- Node4&#45;&gt;Node5 -->
<g id="edge4_Node000004_Node000005" class="edge">
<title>Node4&#45;&gt;Node5</title>
<g id="a_edge4_Node000004_Node000005"><a xlink:title=" ">
<path fill="none" stroke="#63b8ff" d="M179.1,-110.05C195.24,-100.99 215.85,-89.44 231.94,-80.41"/>
<polygon fill="#63b8ff" stroke="#63b8ff" points="233.44,-83.59 240.45,-75.64 230.02,-77.48 233.44,-83.59"/>
</a>
</g>
</g>
<!-- Node9 -->
<g id="Node000009" class="node">
<title>Node9</title>
<g id="a_Node000009"><a xlink:title=" ">
<polygon fill="#e0e0e0" stroke="#999999" points="122.88,-19.25 82.88,-19.25 82.88,0 122.88,0 122.88,-19.25"/>
<text text-anchor="middle" x="102.88" y="-5.75" font-family="Helvetica,sans-Serif" font-size="10.00">string</text>
</a>
</g>
</g>
<!-- Node4&#45;&gt;Node9 -->
<g id="edge12_Node000004_Node000009" class="edge">
<title>Node4&#45;&gt;Node9</title>
<g id="a_edge12_Node000004_Node000009"><a xlink:title=" ">
<path fill="none" stroke="#63b8ff" d="M146.54,-110.3C137.64,-89.97 121.39,-52.88 111.42,-30.12"/>
<polygon fill="#63b8ff" stroke="#63b8ff" points="114.68,-28.84 107.46,-21.08 108.26,-31.65 114.68,-28.84"/>
</a>
</g>
</g>
<!-- Node11 -->
<g id="Node000011" class="node">
<title>Node11</title>
<g id="a_Node000011"><a xlink:title=" ">
<polygon fill="#e0e0e0" stroke="#999999" points="184.38,-19.25 141.38,-19.25 141.38,0 184.38,0 184.38,-19.25"/>
<text text-anchor="middle" x="162.88" y="-5.75" font-family="Helvetica,sans-Serif" font-size="10.00">vector</text>
</a>
</g>
</g>
<!-- Node4&#45;&gt;Node11 -->
<g id="edge11_Node000004_Node000011" class="edge">
<title>Node4&#45;&gt;Node11</title>
<g id="a_edge11_Node000004_Node000011"><a xlink:title=" ">
<path fill="none" stroke="#63b8ff" d="M154.14,-110.3C155.9,-90.25 159.08,-53.9 161.08,-31.07"/>
<polygon fill="#63b8ff" stroke="#63b8ff" points="164.56,-31.47 161.95,-21.21 157.59,-30.86 164.56,-31.47"/>
</a>
</g>
</g>
<!-- Node4&#45;&gt;Node12 -->
<g id="edge13_Node000004_Node000012" class="edge">
<title>Node4&#45;&gt;Node12</title>
<g id="a_edge13_Node000004_Node000012"><a xlink:title=" ">
<path fill="none" stroke="#63b8ff" d="M125.4,-110.05C108.33,-100.91 86.48,-89.22 69.56,-80.16"/>
<polygon fill="#63b8ff" stroke="#63b8ff" points="71.55,-77.25 61.08,-75.62 68.24,-83.42 71.55,-77.25"/>
</a>
</g>
</g>
<!-- Node5&#45;&gt;Node6 -->
<g id="edge5_Node000005_Node000006" class="edge">
<title>Node5&#45;&gt;Node6</title>
<g id="a_edge5_Node000005_Node000006"><a xlink:title=" ">
<path fill="none" stroke="#63b8ff" d="M273.31,-54.84C287.04,-46.81 307.37,-34.91 323.49,-25.48"/>
<polygon fill="#63b8ff" stroke="#63b8ff" points="325.19,-28.54 332.06,-20.47 321.66,-22.5 325.19,-28.54"/>
</a>
</g>
</g>
<!-- Node7 -->
<g id="Node000007" class="node">
<title>Node7</title>
<g id="a_Node000007"><a xlink:title=" ">
<polygon fill="#e0e0e0" stroke="#999999" points="247.5,-19.25 202.25,-19.25 202.25,0 247.5,0 247.5,-19.25"/>
<text text-anchor="middle" x="224.88" y="-5.75" font-family="Helvetica,sans-Serif" font-size="10.00">TFile.h</text>
</a>
</g>
</g>
<!-- Node5&#45;&gt;Node7 -->
<g id="edge6_Node000005_Node000007" class="edge">
<title>Node5&#45;&gt;Node7</title>
<g id="a_edge6_Node000005_Node000007"><a xlink:title=" ">
<path fill="none" stroke="#63b8ff" d="M252.43,-55.08C248.1,-48.11 241.91,-38.12 236.49,-29.37"/>
<polygon fill="#63b8ff" stroke="#63b8ff" points="239.48,-27.55 231.24,-20.9 233.53,-31.24 239.48,-27.55"/>
</a>
</g>
</g>
<!-- Node8 -->
<g id="Node000008" class="node">
<title>Node8</title>
<g id="a_Node000008"><a xlink:title=" ">
<polygon fill="#e0e0e0" stroke="#999999" points="308,-19.25 265.75,-19.25 265.75,0 308,0 308,-19.25"/>
<text text-anchor="middle" x="286.88" y="-5.75" font-family="Helvetica,sans-Serif" font-size="10.00">TH1.h</text>
</a>
</g>
</g>
<!-- Node5&#45;&gt;Node8 -->
<g id="edge7_Node000005_Node000008" class="edge">
<title>Node5&#45;&gt;Node8</title>
<g id="a_edge7_Node000005_Node000008"><a xlink:title=" ">
<path fill="none" stroke="#63b8ff" d="M262.66,-55.08C266.42,-48.19 271.78,-38.34 276.51,-29.66"/>
<polygon fill="#63b8ff" stroke="#63b8ff" points="279.55,-31.39 281.26,-20.94 273.4,-28.05 279.55,-31.39"/>
</a>
</g>
</g>
<!-- Node5&#45;&gt;Node9 -->
<g id="edge8_Node000005_Node000009" class="edge">
<title>Node5&#45;&gt;Node9</title>
<g id="a_edge8_Node000005_Node000009"><a xlink:title=" ">
<path fill="none" stroke="#63b8ff" d="M231.58,-54.84C204.59,-45.57 162.6,-31.14 133.97,-21.31"/>
<polygon fill="#63b8ff" stroke="#63b8ff" points="135.37,-18.09 124.78,-18.15 133.1,-24.71 135.37,-18.09"/>
</a>
</g>
</g>
<!-- Node5&#45;&gt;Node10 -->
<g id="edge9_Node000005_Node000010" class="edge">
<title>Node5&#45;&gt;Node10</title>
<g id="a_edge9_Node000005_Node000010"><a xlink:title=" ">
<path fill="none" stroke="#63b8ff" d="M284.68,-54.84C310.33,-46.2 349.26,-33.07 378.06,-23.37"/>
<polygon fill="#63b8ff" stroke="#63b8ff" points="379.15,-26.7 387.51,-20.19 376.91,-20.06 379.15,-26.7"/>
</a>
</g>
</g>
<!-- Node5&#45;&gt;Node11 -->
<g id="edge10_Node000005_Node000011" class="edge">
<title>Node5&#45;&gt;Node11</title>
<g id="a_edge10_Node000005_Node000011"><a xlink:title=" ">
<path fill="none" stroke="#63b8ff" d="M241.76,-54.84C227.29,-46.73 205.8,-34.68 188.89,-25.21"/>
<polygon fill="#63b8ff" stroke="#63b8ff" points="190.82,-22.28 180.39,-20.44 187.4,-28.39 190.82,-22.28"/>
</a>
</g>
</g>
</g>
</svg>
