<?xml version="1.0" encoding="UTF-8" standalone="no"?>
<!DOCTYPE svg PUBLIC "-//W3C//DTD SVG 1.1//EN"
 "http://www.w3.org/Graphics/SVG/1.1/DTD/svg11.dtd">
<!-- Generated by graphviz version 9.0.0 (20230911.1827)
 -->
<!-- Title: OscProbCalcer/OscProbCalcer_CUDAProb3.h Pages: 1 -->
<svg width="395pt" height="204pt"
 viewBox="0.00 0.00 394.62 204.25" xmlns="http://www.w3.org/2000/svg" xmlns:xlink="http://www.w3.org/1999/xlink">
<g id="graph0" class="graph" transform="scale(1 1) rotate(0) translate(4 200.25)">
<title>OscProbCalcer/OscProbCalcer_CUDAProb3.h</title>
<!-- Node1 -->
<g id="Node000001" class="node">
<title>Node1</title>
<g id="a_Node000001"><a xlink:title=" ">
<polygon fill="#999999" stroke="#666666" points="296.12,-196.25 145.12,-196.25 145.12,-165.75 296.12,-165.75 296.12,-196.25"/>
<text text-anchor="start" x="153.12" y="-182.75" font-family="Helvetica,sans-Serif" font-size="10.00">OscProbCalcer/OscProbCalcer</text>
<text text-anchor="middle" x="220.62" y="-171.5" font-family="Helvetica,sans-Serif" font-size="10.00">_CUDAProb3.h</text>
</a>
</g>
</g>
<!-- Node2 -->
<g id="Node000002" class="node">
<title>Node2</title>
<g id="a_Node000002"><a xlink:href="OscProbCalcerBase_8h.html" target="_top" xlink:title=" ">
<polygon fill="white" stroke="#666666" points="177.62,-129.75 65.62,-129.75 65.62,-110.5 177.62,-110.5 177.62,-129.75"/>
<text text-anchor="middle" x="121.62" y="-116.25" font-family="Helvetica,sans-Serif" font-size="10.00">OscProbCalcerBase.h</text>
</a>
</g>
</g>
<!-- Node1&#45;&gt;Node2 -->
<g id="edge1_Node000001_Node000002" class="edge">
<title>Node1&#45;&gt;Node2</title>
<g id="a_edge1_Node000001_Node000002"><a xlink:title=" ">
<path fill="none" stroke="#63b8ff" d="M195.9,-165.3C180.82,-156.33 161.61,-144.91 146.51,-135.92"/>
<polygon fill="#63b8ff" stroke="#63b8ff" points="148.49,-133.03 138.11,-130.93 144.91,-139.05 148.49,-133.03"/>
</a>
</g>
</g>
<!-- Node5 -->
<g id="Node000005" class="node">
<title>Node5</title>
<g id="a_Node000005"><a xlink:title=" ">
<polygon fill="#e0e0e0" stroke="#999999" points="45.25,-19.25 0,-19.25 0,0 45.25,0 45.25,-19.25"/>
<text text-anchor="middle" x="22.62" y="-5.75" font-family="Helvetica,sans-Serif" font-size="10.00">TFile.h</text>
</a>
</g>
</g>
<!-- Node1&#45;&gt;Node5 -->
<g id="edge14_Node000001_Node000005" class="edge">
<title>Node1&#45;&gt;Node5</title>
<g id="a_edge14_Node000001_Node000005"><a xlink:title=" ">
<path fill="none" stroke="#63b8ff" d="M144.66,-172.61C113.68,-165.93 79.77,-153.35 56.62,-129.75 30.34,-102.95 24.09,-57.33 22.78,-31"/>
<polygon fill="#63b8ff" stroke="#63b8ff" points="26.28,-30.91 22.5,-21.01 19.28,-31.1 26.28,-30.91"/>
</a>
</g>
</g>
<!-- Node11 -->
<g id="Node000011" class="node">
<title>Node11</title>
<g id="a_Node000011"><a xlink:title=" ">
<polygon fill="#e0e0e0" stroke="#999999" points="245.12,-129.75 196.12,-129.75 196.12,-110.5 245.12,-110.5 245.12,-129.75"/>
<text text-anchor="middle" x="220.62" y="-116.25" font-family="Helvetica,sans-Serif" font-size="10.00">TH2D.h</text>
</a>
</g>
</g>
<!-- Node1&#45;&gt;Node11 -->
<g id="edge12_Node000001_Node000011" class="edge">
<title>Node1&#45;&gt;Node11</title>
<g id="a_edge12_Node000001_Node000011"><a xlink:title=" ">
<path fill="none" stroke="#63b8ff" d="M220.62,-165.45C220.62,-158.21 220.62,-149.34 220.62,-141.44"/>
<polygon fill="#63b8ff" stroke="#63b8ff" points="224.13,-141.71 220.63,-131.71 217.13,-141.71 224.13,-141.71"/>
</a>
</g>
</g>
<!-- Node12 -->
<g id="Node000012" class="node">
<title>Node12</title>
<g id="a_Node000012"><a xlink:title=" ">
<polygon fill="#e0e0e0" stroke="#999999" points="312.12,-129.75 263.12,-129.75 263.12,-110.5 312.12,-110.5 312.12,-129.75"/>
<text text-anchor="middle" x="287.62" y="-116.25" font-family="Helvetica,sans-Serif" font-size="10.00">TH3D.h</text>
</a>
</g>
</g>
<!-- Node1&#45;&gt;Node12 -->
<g id="edge13_Node000001_Node000012" class="edge">
<title>Node1&#45;&gt;Node12</title>
<g id="a_edge13_Node000001_Node000012"><a xlink:title=" ">
<path fill="none" stroke="#63b8ff" d="M237.19,-165.45C246.8,-157 258.94,-146.33 268.9,-137.58"/>
<polygon fill="#63b8ff" stroke="#63b8ff" points="270.96,-140.43 276.16,-131.2 266.34,-135.17 270.96,-140.43"/>
</a>
</g>
</g>
<!-- Node13 -->
<g id="Node000013" class="node">
<title>Node13</title>
<g id="a_Node000013"><a xlink:title=" ">
<polygon fill="#e0e0e0" stroke="#999999" points="380.88,-129.75 330.38,-129.75 330.38,-110.5 380.88,-110.5 380.88,-129.75"/>
<text text-anchor="middle" x="355.62" y="-116.25" font-family="Helvetica,sans-Serif" font-size="10.00">memory</text>
</a>
</g>
</g>
<!-- Node1&#45;&gt;Node13 -->
<g id="edge15_Node000001_Node000013" class="edge">
<title>Node1&#45;&gt;Node13</title>
<g id="a_edge15_Node000001_Node000013"><a xlink:title=" ">
<path fill="none" stroke="#63b8ff" d="M254.34,-165.3C275.89,-155.9 303.63,-143.8 324.62,-134.64"/>
<polygon fill="#63b8ff" stroke="#63b8ff" points="325.77,-137.96 333.53,-130.76 322.97,-131.55 325.77,-137.96"/>
</a>
</g>
</g>
<!-- Node3 -->
<g id="Node000003" class="node">
<title>Node3</title>
<g id="a_Node000003"><a xlink:href="OscillatorConstants_8h.html" target="_top" xlink:title=" ">
<polygon fill="white" stroke="#666666" points="338.75,-74.5 182.5,-74.5 182.5,-55.25 338.75,-55.25 338.75,-74.5"/>
<text text-anchor="middle" x="260.62" y="-61" font-family="Helvetica,sans-Serif" font-size="10.00">Constants/OscillatorConstants.h</text>
</a>
</g>
</g>
<!-- Node2&#45;&gt;Node3 -->
<g id="edge2_Node000002_Node000003" class="edge">
<title>Node2&#45;&gt;Node3</title>
<g id="a_edge2_Node000002_Node000003"><a xlink:title=" ">
<path fill="none" stroke="#63b8ff" d="M145.2,-110.09C167.47,-101.56 201.12,-88.67 226.35,-79.01"/>
<polygon fill="#63b8ff" stroke="#63b8ff" points="227.43,-82.34 235.52,-75.49 224.93,-75.8 227.43,-82.34"/>
</a>
</g>
</g>
<!-- Node7 -->
<g id="Node000007" class="node">
<title>Node7</title>
<g id="a_Node000007"><a xlink:title=" ">
<polygon fill="#e0e0e0" stroke="#999999" points="386.62,-19.25 346.62,-19.25 346.62,0 386.62,0 386.62,-19.25"/>
<text text-anchor="middle" x="366.62" y="-5.75" font-family="Helvetica,sans-Serif" font-size="10.00">string</text>
</a>
</g>
</g>
<!-- Node2&#45;&gt;Node7 -->
<g id="edge10_Node000002_Node000007" class="edge">
<title>Node2&#45;&gt;Node7</title>
<g id="a_edge10_Node000002_Node000007"><a xlink:title=" ">
<path fill="none" stroke="#63b8ff" d="M177.86,-111.11C240.64,-101.68 335.13,-85.87 347.62,-74.5 359.8,-63.42 364.31,-44.92 365.92,-30.67"/>
<polygon fill="#63b8ff" stroke="#63b8ff" points="369.38,-31.27 366.59,-21.05 362.4,-30.78 369.38,-31.27"/>
</a>
</g>
</g>
<!-- Node9 -->
<g id="Node000009" class="node">
<title>Node9</title>
<g id="a_Node000009"><a xlink:title=" ">
<polygon fill="#e0e0e0" stroke="#999999" points="125.12,-19.25 82.12,-19.25 82.12,0 125.12,0 125.12,-19.25"/>
<text text-anchor="middle" x="103.62" y="-5.75" font-family="Helvetica,sans-Serif" font-size="10.00">vector</text>
</a>
</g>
</g>
<!-- Node2&#45;&gt;Node9 -->
<g id="edge9_Node000002_Node000009" class="edge">
<title>Node2&#45;&gt;Node9</title>
<g id="a_edge9_Node000002_Node000009"><a xlink:title=" ">
<path fill="none" stroke="#63b8ff" d="M104.84,-110.07C92.55,-102.41 76.83,-90.17 69.62,-74.5 62.12,-58.18 73.61,-40.16 85.21,-27.43"/>
<polygon fill="#63b8ff" stroke="#63b8ff" points="87.41,-30.19 91.97,-20.63 82.44,-25.26 87.41,-30.19"/>
</a>
</g>
</g>
<!-- Node10 -->
<g id="Node000010" class="node">
<title>Node10</title>
<g id="a_Node000010"><a xlink:title=" ">
<polygon fill="#e0e0e0" stroke="#999999" points="164.5,-74.5 78.75,-74.5 78.75,-55.25 164.5,-55.25 164.5,-74.5"/>
<text text-anchor="middle" x="121.62" y="-61" font-family="Helvetica,sans-Serif" font-size="10.00">yaml&#45;cpp/yaml.h</text>
</a>
</g>
</g>
<!-- Node2&#45;&gt;Node10 -->
<g id="edge11_Node000002_Node000010" class="edge">
<title>Node2&#45;&gt;Node10</title>
<g id="a_edge11_Node000002_Node000010"><a xlink:title=" ">
<path fill="none" stroke="#63b8ff" d="M121.62,-110.33C121.62,-103.82 121.62,-94.67 121.62,-86.37"/>
<polygon fill="#63b8ff" stroke="#63b8ff" points="125.13,-86.37 121.63,-76.37 118.13,-86.37 125.13,-86.37"/>
</a>
</g>
</g>
<!-- Node4 -->
<g id="Node000004" class="node">
<title>Node4</title>
<g id="a_Node000004"><a xlink:title=" ">
<polygon fill="#e0e0e0" stroke="#999999" points="268.25,-19.25 223,-19.25 223,0 268.25,0 268.25,-19.25"/>
<text text-anchor="middle" x="245.62" y="-5.75" font-family="Helvetica,sans-Serif" font-size="10.00">math.h</text>
</a>
</g>
</g>
<!-- Node3&#45;&gt;Node4 -->
<g id="edge3_Node000003_Node000004" class="edge">
<title>Node3&#45;&gt;Node4</title>
<g id="a_edge3_Node000003_Node000004"><a xlink:title=" ">
<path fill="none" stroke="#63b8ff" d="M258.15,-55.08C256.27,-48.42 253.62,-38.99 251.23,-30.53"/>
<polygon fill="#63b8ff" stroke="#63b8ff" points="254.65,-29.74 248.57,-21.07 247.91,-31.64 254.65,-29.74"/>
</a>
</g>
</g>
<!-- Node3&#45;&gt;Node5 -->
<g id="edge4_Node000003_Node000005" class="edge">
<title>Node3&#45;&gt;Node5</title>
<g id="a_edge4_Node000003_Node000005"><a xlink:title=" ">
<path fill="none" stroke="#63b8ff" d="M219.98,-54.78C173.89,-44.47 99.57,-27.84 56.49,-18.2"/>
<polygon fill="#63b8ff" stroke="#63b8ff" points="57.47,-14.84 46.95,-16.07 55.94,-21.67 57.47,-14.84"/>
</a>
</g>
</g>
<!-- Node6 -->
<g id="Node000006" class="node">
<title>Node6</title>
<g id="a_Node000006"><a xlink:title=" ">
<polygon fill="#e0e0e0" stroke="#999999" points="328.75,-19.25 286.5,-19.25 286.5,0 328.75,0 328.75,-19.25"/>
<text text-anchor="middle" x="307.62" y="-5.75" font-family="Helvetica,sans-Serif" font-size="10.00">TH1.h</text>
</a>
</g>
</g>
<!-- Node3&#45;&gt;Node6 -->
<g id="edge5_Node000003_Node000006" class="edge">
<title>Node3&#45;&gt;Node6</title>
<g id="a_edge5_Node000003_Node000006"><a xlink:title=" ">
<path fill="none" stroke="#63b8ff" d="M268.39,-55.08C274.81,-47.8 284.14,-37.23 292.09,-28.23"/>
<polygon fill="#63b8ff" stroke="#63b8ff" points="294.7,-30.56 298.69,-20.74 289.45,-25.93 294.7,-30.56"/>
</a>
</g>
</g>
<!-- Node3&#45;&gt;Node7 -->
<g id="edge6_Node000003_Node000007" class="edge">
<title>Node3&#45;&gt;Node7</title>
<g id="a_edge6_Node000003_Node000007"><a xlink:title=" ">
<path fill="none" stroke="#63b8ff" d="M278.61,-54.84C294.98,-46.62 319.41,-34.34 338.39,-24.81"/>
<polygon fill="#63b8ff" stroke="#63b8ff" points="339.84,-28 347.2,-20.38 336.7,-21.74 339.84,-28"/>
</a>
</g>
</g>
<!-- Node8 -->
<g id="Node000008" class="node">
<title>Node8</title>
<g id="a_Node000008"><a xlink:title=" ">
<polygon fill="#e0e0e0" stroke="#999999" points="205.38,-19.25 151.88,-19.25 151.88,0 205.38,0 205.38,-19.25"/>
<text text-anchor="middle" x="178.62" y="-5.75" font-family="Helvetica,sans-Serif" font-size="10.00">iostream</text>
</a>
</g>
</g>
<!-- Node3&#45;&gt;Node8 -->
<g id="edge7_Node000003_Node000008" class="edge">
<title>Node3&#45;&gt;Node8</title>
<g id="a_edge7_Node000003_Node000008"><a xlink:title=" ">
<path fill="none" stroke="#63b8ff" d="M246.71,-54.84C234.46,-46.89 216.37,-35.14 201.91,-25.75"/>
<polygon fill="#63b8ff" stroke="#63b8ff" points="204.17,-23.04 193.87,-20.53 200.35,-28.91 204.17,-23.04"/>
</a>
</g>
</g>
<!-- Node3&#45;&gt;Node9 -->
<g id="edge8_Node000003_Node000009" class="edge">
<title>Node3&#45;&gt;Node9</title>
<g id="a_edge8_Node000003_Node000009"><a xlink:title=" ">
<path fill="none" stroke="#63b8ff" d="M233.99,-54.84C206.96,-45.67 165.08,-31.47 136.11,-21.64"/>
<polygon fill="#63b8ff" stroke="#63b8ff" points="137.35,-18.37 126.76,-18.47 135.1,-25 137.35,-18.37"/>
</a>
</g>
</g>
</g>
</svg>
