<?xml version="1.0" encoding="UTF-8" standalone="no"?>
<!DOCTYPE svg PUBLIC "-//W3C//DTD SVG 1.1//EN"
 "http://www.w3.org/Graphics/SVG/1.1/DTD/svg11.dtd">
<!-- Generated by graphviz version 9.0.0 (20230911.1827)
 -->
<!-- Title: OscProbCalcer/OscProbCalcer_Prob3ppLinear.cpp Pages: 1 -->
<svg width="444pt" height="260pt"
 viewBox="0.00 0.00 444.38 259.50" xmlns="http://www.w3.org/2000/svg" xmlns:xlink="http://www.w3.org/1999/xlink">
<g id="graph0" class="graph" transform="scale(1 1) rotate(0) translate(4 255.5)">
<title>OscProbCalcer/OscProbCalcer_Prob3ppLinear.cpp</title>
<!-- Node1 -->
<g id="Node000001" class="node">
<title>Node1</title>
<g id="a_Node000001"><a xlink:title=" ">
<polygon fill="#999999" stroke="#666666" points="367.12,-251.5 216.12,-251.5 216.12,-221 367.12,-221 367.12,-251.5"/>
<text text-anchor="start" x="224.12" y="-238" font-family="Helvetica,sans-Serif" font-size="10.00">OscProbCalcer/OscProbCalcer</text>
<text text-anchor="middle" x="291.62" y="-226.75" font-family="Helvetica,sans-Serif" font-size="10.00">_Prob3ppLinear.cpp</text>
</a>
</g>
</g>
<!-- Node2 -->
<g id="Node000002" class="node">
<title>Node2</title>
<g id="a_Node000002"><a xlink:href="OscProbCalcer__Prob3ppLinear_8h.html" target="_top" xlink:title=" ">
<polygon fill="white" stroke="#666666" points="252.5,-185 94.75,-185 94.75,-165.75 252.5,-165.75 252.5,-185"/>
<text text-anchor="middle" x="173.62" y="-171.5" font-family="Helvetica,sans-Serif" font-size="10.00">OscProbCalcer_Prob3ppLinear.h</text>
</a>
</g>
</g>
<!-- Node1&#45;&gt;Node2 -->
<g id="edge1_Node000001_Node000002" class="edge">
<title>Node1&#45;&gt;Node2</title>
<g id="a_edge1_Node000001_Node000002"><a xlink:title=" ">
<path fill="none" stroke="#63b8ff" d="M262.15,-220.55C243.75,-211.36 220.18,-199.61 201.99,-190.53"/>
<polygon fill="#63b8ff" stroke="#63b8ff" points="203.59,-187.41 193.08,-186.08 200.46,-193.68 203.59,-187.41"/>
</a>
</g>
</g>
<!-- Node9 -->
<g id="Node000009" class="node">
<title>Node9</title>
<g id="a_Node000009"><a xlink:title=" ">
<polygon fill="#e0e0e0" stroke="#999999" points="436.38,-19.25 382.88,-19.25 382.88,0 436.38,0 436.38,-19.25"/>
<text text-anchor="middle" x="409.62" y="-5.75" font-family="Helvetica,sans-Serif" font-size="10.00">iostream</text>
</a>
</g>
</g>
<!-- Node1&#45;&gt;Node9 -->
<g id="edge14_Node000001_Node000009" class="edge">
<title>Node1&#45;&gt;Node9</title>
<g id="a_edge14_Node000001_Node000009"><a xlink:title=" ">
<path fill="none" stroke="#63b8ff" d="M299.37,-220.51C320.08,-181.09 376.73,-73.25 399.73,-29.47"/>
<polygon fill="#63b8ff" stroke="#63b8ff" points="402.78,-31.18 404.33,-20.7 396.58,-27.93 402.78,-31.18"/>
</a>
</g>
</g>
<!-- Node3 -->
<g id="Node000003" class="node">
<title>Node3</title>
<g id="a_Node000003"><a xlink:href="OscProbCalcerBase_8h.html" target="_top" xlink:title=" ">
<polygon fill="white" stroke="#666666" points="229.62,-129.75 117.62,-129.75 117.62,-110.5 229.62,-110.5 229.62,-129.75"/>
<text text-anchor="middle" x="173.62" y="-116.25" font-family="Helvetica,sans-Serif" font-size="10.00">OscProbCalcerBase.h</text>
</a>
</g>
</g>
<!-- Node2&#45;&gt;Node3 -->
<g id="edge2_Node000002_Node000003" class="edge">
<title>Node2&#45;&gt;Node3</title>
<g id="a_edge2_Node000002_Node000003"><a xlink:title=" ">
<path fill="none" stroke="#63b8ff" d="M173.62,-165.58C173.62,-159.07 173.62,-149.92 173.62,-141.62"/>
<polygon fill="#63b8ff" stroke="#63b8ff" points="177.13,-141.62 173.63,-131.62 170.13,-141.62 177.13,-141.62"/>
</a>
</g>
</g>
<!-- Node12 -->
<g id="Node000012" class="node">
<title>Node12</title>
<g id="a_Node000012"><a xlink:title=" ">
<polygon fill="#e0e0e0" stroke="#999999" points="99.25,-129.75 0,-129.75 0,-110.5 99.25,-110.5 99.25,-129.75"/>
<text text-anchor="middle" x="49.62" y="-116.25" font-family="Helvetica,sans-Serif" font-size="10.00">BargerPropagator.h</text>
</a>
</g>
</g>
<!-- Node2&#45;&gt;Node12 -->
<g id="edge13_Node000002_Node000012" class="edge">
<title>Node2&#45;&gt;Node12</title>
<g id="a_edge13_Node000002_Node000012"><a xlink:title=" ">
<path fill="none" stroke="#63b8ff" d="M152.59,-165.34C132.99,-156.93 103.52,-144.27 81.12,-134.65"/>
<polygon fill="#63b8ff" stroke="#63b8ff" points="82.72,-131.53 72.15,-130.8 79.96,-137.96 82.72,-131.53"/>
</a>
</g>
</g>
<!-- Node4 -->
<g id="Node000004" class="node">
<title>Node4</title>
<g id="a_Node000004"><a xlink:href="OscillatorConstants_8h.html" target="_top" xlink:title=" ">
<polygon fill="white" stroke="#666666" points="357.75,-74.5 201.5,-74.5 201.5,-55.25 357.75,-55.25 357.75,-74.5"/>
<text text-anchor="middle" x="279.62" y="-61" font-family="Helvetica,sans-Serif" font-size="10.00">Constants/OscillatorConstants.h</text>
</a>
</g>
</g>
<!-- Node3&#45;&gt;Node4 -->
<g id="edge3_Node000003_Node000004" class="edge">
<title>Node3&#45;&gt;Node4</title>
<g id="a_edge3_Node000003_Node000004"><a xlink:title=" ">
<path fill="none" stroke="#63b8ff" d="M191.61,-110.09C207.98,-101.87 232.41,-89.59 251.39,-80.06"/>
<polygon fill="#63b8ff" stroke="#63b8ff" points="252.84,-83.25 260.2,-75.63 249.7,-76.99 252.84,-83.25"/>
</a>
</g>
</g>
<!-- Node8 -->
<g id="Node000008" class="node">
<title>Node8</title>
<g id="a_Node000008"><a xlink:title=" ">
<polygon fill="#e0e0e0" stroke="#999999" points="178.62,-19.25 138.62,-19.25 138.62,0 178.62,0 178.62,-19.25"/>
<text text-anchor="middle" x="158.62" y="-5.75" font-family="Helvetica,sans-Serif" font-size="10.00">string</text>
</a>
</g>
</g>
<!-- Node3&#45;&gt;Node8 -->
<g id="edge11_Node000003_Node000008" class="edge">
<title>Node3&#45;&gt;Node8</title>
<g id="a_edge11_Node000003_Node000008"><a xlink:title=" ">
<path fill="none" stroke="#63b8ff" d="M172.4,-110.25C170.01,-93 164.7,-54.58 161.42,-30.81"/>
<polygon fill="#63b8ff" stroke="#63b8ff" points="164.91,-30.55 160.08,-21.13 157.98,-31.51 164.91,-30.55"/>
</a>
</g>
</g>
<!-- Node10 -->
<g id="Node000010" class="node">
<title>Node10</title>
<g id="a_Node000010"><a xlink:title=" ">
<polygon fill="#e0e0e0" stroke="#999999" points="87.12,-19.25 44.12,-19.25 44.12,0 87.12,0 87.12,-19.25"/>
<text text-anchor="middle" x="65.62" y="-5.75" font-family="Helvetica,sans-Serif" font-size="10.00">vector</text>
</a>
</g>
</g>
<!-- Node3&#45;&gt;Node10 -->
<g id="edge10_Node000003_Node000010" class="edge">
<title>Node3&#45;&gt;Node10</title>
<g id="a_edge10_Node000003_Node000010"><a xlink:title=" ">
<path fill="none" stroke="#63b8ff" d="M134.13,-110.01C102.04,-101.72 60.53,-88.64 50.62,-74.5 41.34,-61.25 46.97,-43.04 53.83,-29.45"/>
<polygon fill="#63b8ff" stroke="#63b8ff" points="56.71,-31.48 58.59,-21.05 50.62,-28.03 56.71,-31.48"/>
</a>
</g>
</g>
<!-- Node11 -->
<g id="Node000011" class="node">
<title>Node11</title>
<g id="a_Node000011"><a xlink:title=" ">
<polygon fill="#e0e0e0" stroke="#999999" points="145.5,-74.5 59.75,-74.5 59.75,-55.25 145.5,-55.25 145.5,-74.5"/>
<text text-anchor="middle" x="102.62" y="-61" font-family="Helvetica,sans-Serif" font-size="10.00">yaml&#45;cpp/yaml.h</text>
</a>
</g>
</g>
<!-- Node3&#45;&gt;Node11 -->
<g id="edge12_Node000003_Node000011" class="edge">
<title>Node3&#45;&gt;Node11</title>
<g id="a_edge12_Node000003_Node000011"><a xlink:title=" ">
<path fill="none" stroke="#63b8ff" d="M161.58,-110.09C151.22,-102.32 136.02,-90.92 123.66,-81.65"/>
<polygon fill="#63b8ff" stroke="#63b8ff" points="125.8,-78.88 115.7,-75.68 121.6,-84.48 125.8,-78.88"/>
</a>
</g>
</g>
<!-- Node5 -->
<g id="Node000005" class="node">
<title>Node5</title>
<g id="a_Node000005"><a xlink:title=" ">
<polygon fill="#e0e0e0" stroke="#999999" points="302.25,-19.25 257,-19.25 257,0 302.25,0 302.25,-19.25"/>
<text text-anchor="middle" x="279.62" y="-5.75" font-family="Helvetica,sans-Serif" font-size="10.00">math.h</text>
</a>
</g>
</g>
<!-- Node4&#45;&gt;Node5 -->
<g id="edge4_Node000004_Node000005" class="edge">
<title>Node4&#45;&gt;Node5</title>
<g id="a_edge4_Node000004_Node000005"><a xlink:title=" ">
<path fill="none" stroke="#63b8ff" d="M279.62,-55.08C279.62,-48.57 279.62,-39.42 279.62,-31.12"/>
<polygon fill="#63b8ff" stroke="#63b8ff" points="283.13,-31.12 279.63,-21.12 276.13,-31.12 283.13,-31.12"/>
</a>
</g>
</g>
<!-- Node6 -->
<g id="Node000006" class="node">
<title>Node6</title>
<g id="a_Node000006"><a xlink:title=" ">
<polygon fill="#e0e0e0" stroke="#999999" points="365.25,-19.25 320,-19.25 320,0 365.25,0 365.25,-19.25"/>
<text text-anchor="middle" x="342.62" y="-5.75" font-family="Helvetica,sans-Serif" font-size="10.00">TFile.h</text>
</a>
</g>
</g>
<!-- Node4&#45;&gt;Node6 -->
<g id="edge5_Node000004_Node000006" class="edge">
<title>Node4&#45;&gt;Node6</title>
<g id="a_edge5_Node000004_Node000006"><a xlink:title=" ">
<path fill="none" stroke="#63b8ff" d="M290.31,-54.84C299.33,-47.22 312.46,-36.12 323.31,-26.95"/>
<polygon fill="#63b8ff" stroke="#63b8ff" points="325.56,-29.63 330.94,-20.5 321.04,-24.28 325.56,-29.63"/>
</a>
</g>
</g>
<!-- Node7 -->
<g id="Node000007" class="node">
<title>Node7</title>
<g id="a_Node000007"><a xlink:title=" ">
<polygon fill="#e0e0e0" stroke="#999999" points="238.75,-19.25 196.5,-19.25 196.5,0 238.75,0 238.75,-19.25"/>
<text text-anchor="middle" x="217.62" y="-5.75" font-family="Helvetica,sans-Serif" font-size="10.00">TH1.h</text>
</a>
</g>
</g>
<!-- Node4&#45;&gt;Node7 -->
<g id="edge6_Node000004_Node000007" class="edge">
<title>Node4&#45;&gt;Node7</title>
<g id="a_edge6_Node000004_Node000007"><a xlink:title=" ">
<path fill="none" stroke="#63b8ff" d="M269.11,-54.84C260.24,-47.22 247.31,-36.12 236.64,-26.95"/>
<polygon fill="#63b8ff" stroke="#63b8ff" points="239,-24.37 229.14,-20.51 234.44,-29.68 239,-24.37"/>
</a>
</g>
</g>
<!-- Node4&#45;&gt;Node8 -->
<g id="edge7_Node000004_Node000008" class="edge">
<title>Node4&#45;&gt;Node8</title>
<g id="a_edge7_Node000004_Node000008"><a xlink:title=" ">
<path fill="none" stroke="#63b8ff" d="M259.1,-54.84C239.95,-46.41 211.13,-33.73 189.26,-24.11"/>
<polygon fill="#63b8ff" stroke="#63b8ff" points="190.8,-20.96 180.23,-20.13 187.98,-27.37 190.8,-20.96"/>
</a>
</g>
</g>
<!-- Node4&#45;&gt;Node9 -->
<g id="edge8_Node000004_Node000009" class="edge">
<title>Node4&#45;&gt;Node9</title>
<g id="a_edge8_Node000004_Node000009"><a xlink:title=" ">
<path fill="none" stroke="#63b8ff" d="M301.68,-54.84C322.31,-46.39 353.41,-33.65 376.93,-24.02"/>
<polygon fill="#63b8ff" stroke="#63b8ff" points="378.14,-27.31 386.06,-20.28 375.48,-20.83 378.14,-27.31"/>
</a>
</g>
</g>
<!-- Node4&#45;&gt;Node10 -->
<g id="edge9_Node000004_Node000010" class="edge">
<title>Node4&#45;&gt;Node10</title>
<g id="a_edge9_Node000004_Node000010"><a xlink:title=" ">
<path fill="none" stroke="#63b8ff" d="M243.32,-54.84C202.71,-44.74 137.5,-28.51 98.39,-18.78"/>
<polygon fill="#63b8ff" stroke="#63b8ff" points="99.4,-15.42 88.85,-16.4 97.71,-22.21 99.4,-15.42"/>
</a>
</g>
</g>
</g>
</svg>
