<?xml version="1.0" encoding="UTF-8" standalone="no"?>
<!DOCTYPE svg PUBLIC "-//W3C//DTD SVG 1.1//EN"
 "http://www.w3.org/Graphics/SVG/1.1/DTD/svg11.dtd">
<!-- Generated by graphviz version 9.0.0 (20230911.1827)
 -->
<!-- Title: OscProbCalcer/OscProbCalcer_NuSQUIDSLinear.h Pages: 1 -->
<svg width="887pt" height="216pt"
 viewBox="0.00 0.00 887.00 215.50" xmlns="http://www.w3.org/2000/svg" xmlns:xlink="http://www.w3.org/1999/xlink">
<g id="graph0" class="graph" transform="scale(1 1) rotate(0) translate(4 211.5)">
<title>OscProbCalcer/OscProbCalcer_NuSQUIDSLinear.h</title>
<!-- Node1 -->
<g id="Node000001" class="node">
<title>Node1</title>
<g id="a_Node000001"><a xlink:title=" ">
<polygon fill="#999999" stroke="#666666" points="658.38,-207.5 507.38,-207.5 507.38,-177 658.38,-177 658.38,-207.5"/>
<text text-anchor="start" x="515.38" y="-194" font-family="Helvetica,sans-Serif" font-size="10.00">OscProbCalcer/OscProbCalcer</text>
<text text-anchor="middle" x="582.88" y="-182.75" font-family="Helvetica,sans-Serif" font-size="10.00">_NuSQUIDSLinear.h</text>
</a>
</g>
</g>
<!-- Node2 -->
<g id="Node000002" class="node">
<title>Node2</title>
<g id="a_Node000002"><a xlink:href="OscProbCalcerBase_8h.html" target="_top" xlink:title=" ">
<polygon fill="white" stroke="#666666" points="368.88,-135.38 256.88,-135.38 256.88,-116.12 368.88,-116.12 368.88,-135.38"/>
<text text-anchor="middle" x="312.88" y="-121.88" font-family="Helvetica,sans-Serif" font-size="10.00">OscProbCalcerBase.h</text>
</a>
</g>
</g>
<!-- Node1&#45;&gt;Node2 -->
<g id="edge1_Node000001_Node000002" class="edge">
<title>Node1&#45;&gt;Node2</title>
<g id="a_edge1_Node000001_Node000002"><a xlink:title=" ">
<path fill="none" stroke="#63b8ff" d="M521.27,-176.53C473.02,-165.01 406.8,-149.19 362.06,-138.5"/>
<polygon fill="#63b8ff" stroke="#63b8ff" points="362.9,-135.1 352.36,-136.18 361.27,-141.91 362.9,-135.1"/>
</a>
</g>
</g>
<!-- Node11 -->
<g id="Node000011" class="node">
<title>Node11</title>
<g id="a_Node000011"><a xlink:title=" ">
<polygon fill="#e0e0e0" stroke="#999999" points="506.62,-135.38 387.12,-135.38 387.12,-116.12 506.62,-116.12 506.62,-135.38"/>
<text text-anchor="middle" x="446.88" y="-121.88" font-family="Helvetica,sans-Serif" font-size="10.00">nuSQuIDS/nuSQuIDS.h</text>
</a>
</g>
</g>
<!-- Node1&#45;&gt;Node11 -->
<g id="edge13_Node000001_Node000011" class="edge">
<title>Node1&#45;&gt;Node11</title>
<g id="a_edge13_Node000001_Node000011"><a xlink:title=" ">
<path fill="none" stroke="#63b8ff" d="M552.01,-176.61C529.25,-165.82 498.48,-151.22 476.11,-140.61"/>
<polygon fill="#63b8ff" stroke="#63b8ff" points="477.78,-137.53 467.24,-136.41 474.78,-143.86 477.78,-137.53"/>
</a>
</g>
</g>
<!-- Node12 -->
<g id="Node000012" class="node">
<title>Node12</title>
<g id="a_Node000012"><a xlink:title=" ">
<polygon fill="#e0e0e0" stroke="#999999" points="641.5,-141 524.25,-141 524.25,-110.5 641.5,-110.5 641.5,-141"/>
<text text-anchor="start" x="532.25" y="-127.5" font-family="Helvetica,sans-Serif" font-size="10.00">examples/Decoherence</text>
<text text-anchor="middle" x="582.88" y="-116.25" font-family="Helvetica,sans-Serif" font-size="10.00">/nuSQUIDSDecoh.h</text>
</a>
</g>
</g>
<!-- Node1&#45;&gt;Node12 -->
<g id="edge14_Node000001_Node000012" class="edge">
<title>Node1&#45;&gt;Node12</title>
<g id="a_edge14_Node000001_Node000012"><a xlink:title=" ">
<path fill="none" stroke="#63b8ff" d="M582.88,-176.61C582.88,-169.52 582.88,-160.79 582.88,-152.63"/>
<polygon fill="#63b8ff" stroke="#63b8ff" points="586.38,-152.84 582.88,-142.84 579.38,-152.84 586.38,-152.84"/>
</a>
</g>
</g>
<!-- Node13 -->
<g id="Node000013" class="node">
<title>Node13</title>
<g id="a_Node000013"><a xlink:title=" ">
<polygon fill="#e0e0e0" stroke="#999999" points="764.5,-135.38 659.25,-135.38 659.25,-116.12 764.5,-116.12 764.5,-135.38"/>
<text text-anchor="middle" x="711.88" y="-121.88" font-family="Helvetica,sans-Serif" font-size="10.00">examples/NSI/NSI.h</text>
</a>
</g>
</g>
<!-- Node1&#45;&gt;Node13 -->
<g id="edge15_Node000001_Node000013" class="edge">
<title>Node1&#45;&gt;Node13</title>
<g id="a_edge15_Node000001_Node000013"><a xlink:title=" ">
<path fill="none" stroke="#63b8ff" d="M612.15,-176.61C633.54,-165.92 662.4,-151.49 683.57,-140.9"/>
<polygon fill="#63b8ff" stroke="#63b8ff" points="685.12,-144.04 692.5,-136.44 681.99,-137.78 685.12,-144.04"/>
</a>
</g>
</g>
<!-- Node14 -->
<g id="Node000014" class="node">
<title>Node14</title>
<g id="a_Node000014"><a xlink:title=" ">
<polygon fill="#e0e0e0" stroke="#999999" points="879,-135.38 782.75,-135.38 782.75,-116.12 879,-116.12 879,-135.38"/>
<text text-anchor="middle" x="830.88" y="-121.88" font-family="Helvetica,sans-Serif" font-size="10.00">examples/LV/LV.h</text>
</a>
</g>
</g>
<!-- Node1&#45;&gt;Node14 -->
<g id="edge16_Node000001_Node000014" class="edge">
<title>Node1&#45;&gt;Node14</title>
<g id="a_edge16_Node000001_Node000014"><a xlink:title=" ">
<path fill="none" stroke="#63b8ff" d="M639.46,-176.53C683.5,-165.08 743.83,-149.39 784.91,-138.7"/>
<polygon fill="#63b8ff" stroke="#63b8ff" points="785.7,-142.12 794.5,-136.21 783.94,-135.34 785.7,-142.12"/>
</a>
</g>
</g>
<!-- Node3 -->
<g id="Node000003" class="node">
<title>Node3</title>
<g id="a_Node000003"><a xlink:href="OscillatorConstants_8h.html" target="_top" xlink:title=" ">
<polygon fill="white" stroke="#666666" points="338,-74.5 181.75,-74.5 181.75,-55.25 338,-55.25 338,-74.5"/>
<text text-anchor="middle" x="259.88" y="-61" font-family="Helvetica,sans-Serif" font-size="10.00">Constants/OscillatorConstants.h</text>
</a>
</g>
</g>
<!-- Node2&#45;&gt;Node3 -->
<g id="edge2_Node000002_Node000003" class="edge">
<title>Node2&#45;&gt;Node3</title>
<g id="a_edge2_Node000002_Node000003"><a xlink:title=" ">
<path fill="none" stroke="#63b8ff" d="M304.83,-115.81C297.12,-107.25 285.29,-94.1 275.69,-83.45"/>
<polygon fill="#63b8ff" stroke="#63b8ff" points="278.3,-81.12 269.01,-76.03 273.1,-85.8 278.3,-81.12"/>
</a>
</g>
</g>
<!-- Node5 -->
<g id="Node000005" class="node">
<title>Node5</title>
<g id="a_Node000005"><a xlink:title=" ">
<polygon fill="#e0e0e0" stroke="#999999" points="85.75,-19.25 0,-19.25 0,0 85.75,0 85.75,-19.25"/>
<text text-anchor="middle" x="42.88" y="-5.75" font-family="Helvetica,sans-Serif" font-size="10.00">yaml&#45;cpp/yaml.h</text>
</a>
</g>
</g>
<!-- Node2&#45;&gt;Node5 -->
<g id="edge12_Node000002_Node000005" class="edge">
<title>Node2&#45;&gt;Node5</title>
<g id="a_edge12_Node000002_Node000005"><a xlink:title=" ">
<path fill="none" stroke="#63b8ff" d="M284.63,-115.65C256.1,-106.22 210.92,-90.61 172.88,-74.5 136.45,-59.07 95.69,-38.48 69.69,-24.9"/>
<polygon fill="#63b8ff" stroke="#63b8ff" points="71.65,-21.98 61.17,-20.42 68.4,-28.18 71.65,-21.98"/>
</a>
</g>
</g>
<!-- Node8 -->
<g id="Node000008" class="node">
<title>Node8</title>
<g id="a_Node000008"><a xlink:title=" ">
<polygon fill="#e0e0e0" stroke="#999999" points="402.88,-19.25 362.88,-19.25 362.88,0 402.88,0 402.88,-19.25"/>
<text text-anchor="middle" x="382.88" y="-5.75" font-family="Helvetica,sans-Serif" font-size="10.00">string</text>
</a>
</g>
</g>
<!-- Node2&#45;&gt;Node8 -->
<g id="edge11_Node000002_Node000008" class="edge">
<title>Node2&#45;&gt;Node8</title>
<g id="a_edge11_Node000002_Node000008"><a xlink:title=" ">
<path fill="none" stroke="#63b8ff" d="M319.37,-115.64C326.39,-105.68 337.79,-89.19 346.88,-74.5 356.1,-59.6 365.81,-42.25 372.82,-29.4"/>
<polygon fill="#63b8ff" stroke="#63b8ff" points="375.81,-31.23 377.49,-20.77 369.65,-27.9 375.81,-31.23"/>
</a>
</g>
</g>
<!-- Node10 -->
<g id="Node000010" class="node">
<title>Node10</title>
<g id="a_Node000010"><a xlink:title=" ">
<polygon fill="#e0e0e0" stroke="#999999" points="464.38,-19.25 421.38,-19.25 421.38,0 464.38,0 464.38,-19.25"/>
<text text-anchor="middle" x="442.88" y="-5.75" font-family="Helvetica,sans-Serif" font-size="10.00">vector</text>
</a>
</g>
</g>
<!-- Node2&#45;&gt;Node10 -->
<g id="edge10_Node000002_Node000010" class="edge">
<title>Node2&#45;&gt;Node10</title>
<g id="a_edge10_Node000002_Node000010"><a xlink:title=" ">
<path fill="none" stroke="#63b8ff" d="M323.08,-115.79C344.91,-96.63 396.44,-51.39 424.27,-26.96"/>
<polygon fill="#63b8ff" stroke="#63b8ff" points="426.38,-29.76 431.58,-20.54 421.76,-24.5 426.38,-29.76"/>
</a>
</g>
</g>
<!-- Node4 -->
<g id="Node000004" class="node">
<title>Node4</title>
<g id="a_Node000004"><a xlink:title=" ">
<polygon fill="#e0e0e0" stroke="#999999" points="344.5,-19.25 299.25,-19.25 299.25,0 344.5,0 344.5,-19.25"/>
<text text-anchor="middle" x="321.88" y="-5.75" font-family="Helvetica,sans-Serif" font-size="10.00">math.h</text>
</a>
</g>
</g>
<!-- Node3&#45;&gt;Node4 -->
<g id="edge3_Node000003_Node000004" class="edge">
<title>Node3&#45;&gt;Node4</title>
<g id="a_edge3_Node000003_Node000004"><a xlink:title=" ">
<path fill="none" stroke="#63b8ff" d="M270.39,-54.84C279.26,-47.22 292.19,-36.12 302.86,-26.95"/>
<polygon fill="#63b8ff" stroke="#63b8ff" points="305.06,-29.68 310.36,-20.51 300.5,-24.37 305.06,-29.68"/>
</a>
</g>
</g>
<!-- Node3&#45;&gt;Node5 -->
<g id="edge4_Node000003_Node000005" class="edge">
<title>Node3&#45;&gt;Node5</title>
<g id="a_edge4_Node000003_Node000005"><a xlink:title=" ">
<path fill="none" stroke="#63b8ff" d="M223.06,-54.84C186.67,-45.91 130.79,-32.2 90.92,-22.41"/>
<polygon fill="#63b8ff" stroke="#63b8ff" points="91.88,-19.05 81.34,-20.06 90.21,-25.85 91.88,-19.05"/>
</a>
</g>
</g>
<!-- Node6 -->
<g id="Node000006" class="node">
<title>Node6</title>
<g id="a_Node000006"><a xlink:title=" ">
<polygon fill="#e0e0e0" stroke="#999999" points="149.5,-19.25 104.25,-19.25 104.25,0 149.5,0 149.5,-19.25"/>
<text text-anchor="middle" x="126.88" y="-5.75" font-family="Helvetica,sans-Serif" font-size="10.00">TFile.h</text>
</a>
</g>
</g>
<!-- Node3&#45;&gt;Node6 -->
<g id="edge5_Node000003_Node000006" class="edge">
<title>Node3&#45;&gt;Node6</title>
<g id="a_edge5_Node000003_Node000006"><a xlink:title=" ">
<path fill="none" stroke="#63b8ff" d="M237.31,-54.84C216.1,-46.35 184.1,-33.54 160,-23.89"/>
<polygon fill="#63b8ff" stroke="#63b8ff" points="161.54,-20.73 150.95,-20.27 158.94,-27.23 161.54,-20.73"/>
</a>
</g>
</g>
<!-- Node7 -->
<g id="Node000007" class="node">
<title>Node7</title>
<g id="a_Node000007"><a xlink:title=" ">
<polygon fill="#e0e0e0" stroke="#999999" points="210,-19.25 167.75,-19.25 167.75,0 210,0 210,-19.25"/>
<text text-anchor="middle" x="188.88" y="-5.75" font-family="Helvetica,sans-Serif" font-size="10.00">TH1.h</text>
</a>
</g>
</g>
<!-- Node3&#45;&gt;Node7 -->
<g id="edge6_Node000003_Node000007" class="edge">
<title>Node3&#45;&gt;Node7</title>
<g id="a_edge6_Node000003_Node000007"><a xlink:title=" ">
<path fill="none" stroke="#63b8ff" d="M247.83,-54.84C237.47,-47.07 222.27,-35.67 209.91,-26.4"/>
<polygon fill="#63b8ff" stroke="#63b8ff" points="212.05,-23.63 201.95,-20.43 207.85,-29.23 212.05,-23.63"/>
</a>
</g>
</g>
<!-- Node3&#45;&gt;Node8 -->
<g id="edge7_Node000003_Node000008" class="edge">
<title>Node3&#45;&gt;Node8</title>
<g id="a_edge7_Node000003_Node000008"><a xlink:title=" ">
<path fill="none" stroke="#63b8ff" d="M280.74,-54.84C300.41,-46.32 330.13,-33.46 352.44,-23.8"/>
<polygon fill="#63b8ff" stroke="#63b8ff" points="353.55,-27.13 361.34,-19.95 350.77,-20.71 353.55,-27.13"/>
</a>
</g>
</g>
<!-- Node9 -->
<g id="Node000009" class="node">
<title>Node9</title>
<g id="a_Node000009"><a xlink:title=" ">
<polygon fill="#e0e0e0" stroke="#999999" points="281.62,-19.25 228.12,-19.25 228.12,0 281.62,0 281.62,-19.25"/>
<text text-anchor="middle" x="254.88" y="-5.75" font-family="Helvetica,sans-Serif" font-size="10.00">iostream</text>
</a>
</g>
</g>
<!-- Node3&#45;&gt;Node9 -->
<g id="edge8_Node000003_Node000009" class="edge">
<title>Node3&#45;&gt;Node9</title>
<g id="a_edge8_Node000003_Node000009"><a xlink:title=" ">
<path fill="none" stroke="#63b8ff" d="M259.05,-55.08C258.43,-48.49 257.56,-39.21 256.77,-30.82"/>
<polygon fill="#63b8ff" stroke="#63b8ff" points="260.28,-30.75 255.86,-21.12 253.31,-31.4 260.28,-30.75"/>
</a>
</g>
</g>
<!-- Node3&#45;&gt;Node10 -->
<g id="edge9_Node000003_Node000010" class="edge">
<title>Node3&#45;&gt;Node10</title>
<g id="a_edge9_Node000003_Node000010"><a xlink:title=" ">
<path fill="none" stroke="#63b8ff" d="M290.92,-54.84C324.08,-45.19 376.43,-29.96 410.21,-20.13"/>
<polygon fill="#63b8ff" stroke="#63b8ff" points="410.82,-23.6 419.44,-17.44 408.86,-16.88 410.82,-23.6"/>
</a>
</g>
</g>
</g>
</svg>
