<?xml version="1.0" encoding="UTF-8" standalone="no"?>
<!DOCTYPE svg PUBLIC "-//W3C//DTD SVG 1.1//EN"
 "http://www.w3.org/Graphics/SVG/1.1/DTD/svg11.dtd">
<!-- Generated by graphviz version 9.0.0 (20230911.1827)
 -->
<!-- Title: OscProbCalcer/OscProbCalcerBase.h Pages: 1 -->
<svg width="2977pt" height="238pt"
 viewBox="0.00 0.00 2976.75 238.00" xmlns="http://www.w3.org/2000/svg" xmlns:xlink="http://www.w3.org/1999/xlink">
<g id="graph0" class="graph" transform="scale(1 1) rotate(0) translate(4 234)">
<title>OscProbCalcer/OscProbCalcerBase.h</title>
<!-- Node1 -->
<g id="Node000001" class="node">
<title>Node1</title>
<g id="a_Node000001"><a xlink:title=" ">
<polygon fill="#999999" stroke="#666666" points="1785.75,-230 1634.75,-230 1634.75,-199.5 1785.75,-199.5 1785.75,-230"/>
<text text-anchor="start" x="1642.75" y="-216.5" font-family="Helvetica,sans-Serif" font-size="10.00">OscProbCalcer/OscProbCalcer</text>
<text text-anchor="middle" x="1710.25" y="-205.25" font-family="Helvetica,sans-Serif" font-size="10.00">Base.h</text>
</a>
</g>
</g>
<!-- Node2 -->
<g id="Node000002" class="node">
<title>Node2</title>
<g id="a_Node000002"><a xlink:href="SingleOscProbCalcer_8cpp.html" target="_top" xlink:title=" ">
<polygon fill="white" stroke="#666666" points="152.5,-91.38 0,-91.38 0,-72.12 152.5,-72.12 152.5,-91.38"/>
<text text-anchor="middle" x="76.25" y="-77.88" font-family="Helvetica,sans-Serif" font-size="10.00">Apps/SingleOscProbCalcer.cpp</text>
</a>
</g>
</g>
<!-- Node1&#45;&gt;Node2 -->
<g id="edge1_Node000001_Node000002" class="edge">
<title>Node1&#45;&gt;Node2</title>
<g id="a_edge1_Node000001_Node000002"><a xlink:title=" ">
<path fill="none" stroke="#63b8ff" d="M1623.28,-212.55C1331.75,-208.28 400.05,-192.49 268.25,-163.5 199.38,-148.35 124.03,-109.43 92.03,-91.74"/>
<polygon fill="#63b8ff" stroke="#63b8ff" points="1623.05,-216.05 1633.1,-212.69 1623.15,-209.05 1623.05,-216.05"/>
</a>
</g>
</g>
<!-- Node3 -->
<g id="Node000003" class="node">
<title>Node3</title>
<g id="a_Node000003"><a xlink:href="OscProbCalcerBase_8cpp.html" target="_top" xlink:title=" ">
<polygon fill="white" stroke="#666666" points="1109.75,-163.5 958.75,-163.5 958.75,-133 1109.75,-133 1109.75,-163.5"/>
<text text-anchor="start" x="966.75" y="-150" font-family="Helvetica,sans-Serif" font-size="10.00">OscProbCalcer/OscProbCalcer</text>
<text text-anchor="middle" x="1034.25" y="-138.75" font-family="Helvetica,sans-Serif" font-size="10.00">Base.cpp</text>
</a>
</g>
</g>
<!-- Node1&#45;&gt;Node3 -->
<g id="edge2_Node000001_Node000003" class="edge">
<title>Node1&#45;&gt;Node3</title>
<g id="a_edge2_Node000001_Node000003"><a xlink:title=" ">
<path fill="none" stroke="#63b8ff" d="M1623.11,-208.63C1507.45,-201.32 1296.99,-186.21 1118.25,-163.5 1115.61,-163.16 1112.92,-162.81 1110.21,-162.43"/>
<polygon fill="#63b8ff" stroke="#63b8ff" points="1622.63,-212.11 1632.83,-209.24 1623.07,-205.12 1622.63,-212.11"/>
</a>
</g>
</g>
<!-- Node4 -->
<g id="Node000004" class="node">
<title>Node4</title>
<g id="a_Node000004"><a xlink:href="OscProbCalcerFactory_8h.html" target="_top" xlink:title=" ">
<polygon fill="white" stroke="#666666" points="428.75,-163.5 277.75,-163.5 277.75,-133 428.75,-133 428.75,-163.5"/>
<text text-anchor="start" x="285.75" y="-150" font-family="Helvetica,sans-Serif" font-size="10.00">OscProbCalcer/OscProbCalcer</text>
<text text-anchor="middle" x="353.25" y="-138.75" font-family="Helvetica,sans-Serif" font-size="10.00">Factory.h</text>
</a>
</g>
</g>
<!-- Node1&#45;&gt;Node4 -->
<g id="edge3_Node000001_Node000004" class="edge">
<title>Node1&#45;&gt;Node4</title>
<g id="a_edge3_Node000001_Node000004"><a xlink:title=" ">
<path fill="none" stroke="#63b8ff" d="M1623.25,-209.61C1374.49,-197.79 663.15,-163.98 429,-152.85"/>
<polygon fill="#63b8ff" stroke="#63b8ff" points="1622.72,-213.09 1632.87,-210.07 1623.05,-206.1 1622.72,-213.09"/>
</a>
</g>
</g>
<!-- Node7 -->
<g id="Node000007" class="node">
<title>Node7</title>
<g id="a_Node000007"><a xlink:href="OscProbCalcer__CHICLinear_8h.html" target="_top" xlink:title=" ">
<polygon fill="white" stroke="#666666" points="1278.75,-163.5 1127.75,-163.5 1127.75,-133 1278.75,-133 1278.75,-163.5"/>
<text text-anchor="start" x="1135.75" y="-150" font-family="Helvetica,sans-Serif" font-size="10.00">OscProbCalcer/OscProbCalcer</text>
<text text-anchor="middle" x="1203.25" y="-138.75" font-family="Helvetica,sans-Serif" font-size="10.00">_CHICLinear.h</text>
</a>
</g>
</g>
<!-- Node1&#45;&gt;Node7 -->
<g id="edge7_Node000001_Node000007" class="edge">
<title>Node1&#45;&gt;Node7</title>
<g id="a_edge7_Node000001_Node000007"><a xlink:title=" ">
<path fill="none" stroke="#63b8ff" d="M1623.22,-204.69C1537.58,-195.48 1403.19,-180.21 1287.25,-163.5 1284.61,-163.12 1281.93,-162.72 1279.23,-162.31"/>
<polygon fill="#63b8ff" stroke="#63b8ff" points="1622.63,-208.15 1632.95,-205.74 1623.38,-201.19 1622.63,-208.15"/>
</a>
</g>
</g>
<!-- Node9 -->
<g id="Node000009" class="node">
<title>Node9</title>
<g id="a_Node000009"><a xlink:href="OscProbCalcer__CUDAProb3_8h.html" target="_top" xlink:title=" ">
<polygon fill="white" stroke="#666666" points="1447.75,-163.5 1296.75,-163.5 1296.75,-133 1447.75,-133 1447.75,-163.5"/>
<text text-anchor="start" x="1304.75" y="-150" font-family="Helvetica,sans-Serif" font-size="10.00">OscProbCalcer/OscProbCalcer</text>
<text text-anchor="middle" x="1372.25" y="-138.75" font-family="Helvetica,sans-Serif" font-size="10.00">_CUDAProb3.h</text>
</a>
</g>
</g>
<!-- Node1&#45;&gt;Node9 -->
<g id="edge9_Node000001_Node000009" class="edge">
<title>Node1&#45;&gt;Node9</title>
<g id="a_edge9_Node000001_Node000009"><a xlink:title=" ">
<path fill="none" stroke="#63b8ff" d="M1623.42,-197.18C1569.23,-186.84 1500.14,-173.65 1448.14,-163.73"/>
<polygon fill="#63b8ff" stroke="#63b8ff" points="1622.43,-200.55 1632.91,-198.99 1623.74,-193.68 1622.43,-200.55"/>
</a>
</g>
</g>
<!-- Node11 -->
<g id="Node000011" class="node">
<title>Node11</title>
<g id="a_Node000011"><a xlink:href="OscProbCalcer__CUDAProb3Linear_8h.html" target="_top" xlink:title=" ">
<polygon fill="white" stroke="#666666" points="1616.75,-163.5 1465.75,-163.5 1465.75,-133 1616.75,-133 1616.75,-163.5"/>
<text text-anchor="start" x="1473.75" y="-150" font-family="Helvetica,sans-Serif" font-size="10.00">OscProbCalcer/OscProbCalcer</text>
<text text-anchor="middle" x="1541.25" y="-138.75" font-family="Helvetica,sans-Serif" font-size="10.00">_CUDAProb3Linear.h</text>
</a>
</g>
</g>
<!-- Node1&#45;&gt;Node11 -->
<g id="edge11_Node000001_Node000011" class="edge">
<title>Node1&#45;&gt;Node11</title>
<g id="a_edge11_Node000001_Node000011"><a xlink:title=" ">
<path fill="none" stroke="#63b8ff" d="M1661.16,-195.01C1635.24,-185.12 1603.88,-173.15 1579.74,-163.94"/>
<polygon fill="#63b8ff" stroke="#63b8ff" points="1659.9,-198.28 1670.49,-198.57 1662.39,-191.74 1659.9,-198.28"/>
</a>
</g>
</g>
<!-- Node13 -->
<g id="Node000013" class="node">
<title>Node13</title>
<g id="a_Node000013"><a xlink:href="OscProbCalcer__GLoBESLinear_8h.html" target="_top" xlink:title=" ">
<polygon fill="white" stroke="#666666" points="1785.75,-163.5 1634.75,-163.5 1634.75,-133 1785.75,-133 1785.75,-163.5"/>
<text text-anchor="start" x="1642.75" y="-150" font-family="Helvetica,sans-Serif" font-size="10.00">OscProbCalcer/OscProbCalcer</text>
<text text-anchor="middle" x="1710.25" y="-138.75" font-family="Helvetica,sans-Serif" font-size="10.00">_GLoBESLinear.h</text>
</a>
</g>
</g>
<!-- Node1&#45;&gt;Node13 -->
<g id="edge13_Node000001_Node000013" class="edge">
<title>Node1&#45;&gt;Node13</title>
<g id="a_edge13_Node000001_Node000013"><a xlink:title=" ">
<path fill="none" stroke="#63b8ff" d="M1710.25,-187.81C1710.25,-179.64 1710.25,-170.91 1710.25,-163.83"/>
<polygon fill="#63b8ff" stroke="#63b8ff" points="1706.75,-187.6 1710.25,-197.6 1713.75,-187.6 1706.75,-187.6"/>
</a>
</g>
</g>
<!-- Node15 -->
<g id="Node000015" class="node">
<title>Node15</title>
<g id="a_Node000015"><a xlink:href="OscProbCalcer__NuFASTEarth_8h.html" target="_top" xlink:title=" ">
<polygon fill="white" stroke="#666666" points="1954.75,-163.5 1803.75,-163.5 1803.75,-133 1954.75,-133 1954.75,-163.5"/>
<text text-anchor="start" x="1811.75" y="-150" font-family="Helvetica,sans-Serif" font-size="10.00">OscProbCalcer/OscProbCalcer</text>
<text text-anchor="middle" x="1879.25" y="-138.75" font-family="Helvetica,sans-Serif" font-size="10.00">_NuFASTEarth.h</text>
</a>
</g>
</g>
<!-- Node1&#45;&gt;Node15 -->
<g id="edge15_Node000001_Node000015" class="edge">
<title>Node1&#45;&gt;Node15</title>
<g id="a_edge15_Node000001_Node000015"><a xlink:title=" ">
<path fill="none" stroke="#63b8ff" d="M1759.34,-195.01C1785.26,-185.12 1816.62,-173.15 1840.76,-163.94"/>
<polygon fill="#63b8ff" stroke="#63b8ff" points="1758.11,-191.74 1750.01,-198.57 1760.6,-198.28 1758.11,-191.74"/>
</a>
</g>
</g>
<!-- Node17 -->
<g id="Node000017" class="node">
<title>Node17</title>
<g id="a_Node000017"><a xlink:href="OscProbCalcer__NuFASTLinear_8h.html" target="_top" xlink:title=" ">
<polygon fill="white" stroke="#666666" points="2123.75,-163.5 1972.75,-163.5 1972.75,-133 2123.75,-133 2123.75,-163.5"/>
<text text-anchor="start" x="1980.75" y="-150" font-family="Helvetica,sans-Serif" font-size="10.00">OscProbCalcer/OscProbCalcer</text>
<text text-anchor="middle" x="2048.25" y="-138.75" font-family="Helvetica,sans-Serif" font-size="10.00">_NuFASTLinear.h</text>
</a>
</g>
</g>
<!-- Node1&#45;&gt;Node17 -->
<g id="edge17_Node000001_Node000017" class="edge">
<title>Node1&#45;&gt;Node17</title>
<g id="a_edge17_Node000001_Node000017"><a xlink:title=" ">
<path fill="none" stroke="#63b8ff" d="M1797.08,-197.18C1851.27,-186.84 1920.36,-173.65 1972.36,-163.73"/>
<polygon fill="#63b8ff" stroke="#63b8ff" points="1796.76,-193.68 1787.59,-198.99 1798.07,-200.55 1796.76,-193.68"/>
</a>
</g>
</g>
<!-- Node19 -->
<g id="Node000019" class="node">
<title>Node19</title>
<g id="a_Node000019"><a xlink:href="OscProbCalcer__NuSQUIDSLinear_8h.html" target="_top" xlink:title=" ">
<polygon fill="white" stroke="#666666" points="2292.75,-163.5 2141.75,-163.5 2141.75,-133 2292.75,-133 2292.75,-163.5"/>
<text text-anchor="start" x="2149.75" y="-150" font-family="Helvetica,sans-Serif" font-size="10.00">OscProbCalcer/OscProbCalcer</text>
<text text-anchor="middle" x="2217.25" y="-138.75" font-family="Helvetica,sans-Serif" font-size="10.00">_NuSQUIDSLinear.h</text>
</a>
</g>
</g>
<!-- Node1&#45;&gt;Node19 -->
<g id="edge19_Node000001_Node000019" class="edge">
<title>Node1&#45;&gt;Node19</title>
<g id="a_edge19_Node000001_Node000019"><a xlink:title=" ">
<path fill="none" stroke="#63b8ff" d="M1797.45,-204.59C1882.9,-195.33 2016.74,-180.05 2132.25,-163.5 2135.21,-163.08 2138.23,-162.63 2141.28,-162.17"/>
<polygon fill="#63b8ff" stroke="#63b8ff" points="1797.31,-201.09 1787.75,-205.64 1798.07,-208.05 1797.31,-201.09"/>
</a>
</g>
</g>
<!-- Node21 -->
<g id="Node000021" class="node">
<title>Node21</title>
<g id="a_Node000021"><a xlink:href="OscProbCalcer__OscLibLinear_8h.html" target="_top" xlink:title=" ">
<polygon fill="white" stroke="#666666" points="2461.75,-163.5 2310.75,-163.5 2310.75,-133 2461.75,-133 2461.75,-163.5"/>
<text text-anchor="start" x="2318.75" y="-150" font-family="Helvetica,sans-Serif" font-size="10.00">OscProbCalcer/OscProbCalcer</text>
<text text-anchor="middle" x="2386.25" y="-138.75" font-family="Helvetica,sans-Serif" font-size="10.00">_OscLibLinear.h</text>
</a>
</g>
</g>
<!-- Node1&#45;&gt;Node21 -->
<g id="edge21_Node000001_Node000021" class="edge">
<title>Node1&#45;&gt;Node21</title>
<g id="a_edge21_Node000001_Node000021"><a xlink:title=" ">
<path fill="none" stroke="#63b8ff" d="M1797.24,-208.57C1912.7,-201.2 2122.79,-186.01 2301.25,-163.5 2304.22,-163.13 2307.24,-162.72 2310.3,-162.3"/>
<polygon fill="#63b8ff" stroke="#63b8ff" points="1797.29,-205.06 1787.53,-209.19 1797.74,-212.05 1797.29,-205.06"/>
</a>
</g>
</g>
<!-- Node23 -->
<g id="Node000023" class="node">
<title>Node23</title>
<g id="a_Node000023"><a xlink:href="OscProbCalcer__OscProb_8h.html" target="_top" xlink:title=" ">
<polygon fill="white" stroke="#666666" points="2630.75,-163.5 2479.75,-163.5 2479.75,-133 2630.75,-133 2630.75,-163.5"/>
<text text-anchor="start" x="2487.75" y="-150" font-family="Helvetica,sans-Serif" font-size="10.00">OscProbCalcer/OscProbCalcer</text>
<text text-anchor="middle" x="2555.25" y="-138.75" font-family="Helvetica,sans-Serif" font-size="10.00">_OscProb.h</text>
</a>
</g>
</g>
<!-- Node1&#45;&gt;Node23 -->
<g id="edge23_Node000001_Node000023" class="edge">
<title>Node1&#45;&gt;Node23</title>
<g id="a_edge23_Node000001_Node000023"><a xlink:title=" ">
<path fill="none" stroke="#63b8ff" d="M1797.15,-210.83C1938.6,-205.45 2227.28,-191.83 2470.25,-163.5 2473.22,-163.15 2476.25,-162.77 2479.3,-162.37"/>
<polygon fill="#63b8ff" stroke="#63b8ff" points="1797.36,-207.32 1787.5,-211.2 1797.62,-214.32 1797.36,-207.32"/>
</a>
</g>
</g>
<!-- Node25 -->
<g id="Node000025" class="node">
<title>Node25</title>
<g id="a_Node000025"><a xlink:href="OscProbCalcer__Prob3ppLinear_8h.html" target="_top" xlink:title=" ">
<polygon fill="white" stroke="#666666" points="2799.75,-163.5 2648.75,-163.5 2648.75,-133 2799.75,-133 2799.75,-163.5"/>
<text text-anchor="start" x="2656.75" y="-150" font-family="Helvetica,sans-Serif" font-size="10.00">OscProbCalcer/OscProbCalcer</text>
<text text-anchor="middle" x="2724.25" y="-138.75" font-family="Helvetica,sans-Serif" font-size="10.00">_Prob3ppLinear.h</text>
</a>
</g>
</g>
<!-- Node1&#45;&gt;Node25 -->
<g id="edge25_Node000001_Node000025" class="edge">
<title>Node1&#45;&gt;Node25</title>
<g id="a_edge25_Node000001_Node000025"><a xlink:title=" ">
<path fill="none" stroke="#63b8ff" d="M1797.07,-212.3C1961.77,-208.82 2330.67,-197.6 2639.25,-163.5 2642.22,-163.17 2645.25,-162.81 2648.31,-162.41"/>
<polygon fill="#63b8ff" stroke="#63b8ff" points="1797.49,-208.79 1787.56,-212.49 1797.63,-215.79 1797.49,-208.79"/>
</a>
</g>
</g>
<!-- Node27 -->
<g id="Node000027" class="node">
<title>Node27</title>
<g id="a_Node000027"><a xlink:href="OscProbCalcer__ProbGPULinear_8h.html" target="_top" xlink:title=" ">
<polygon fill="white" stroke="#666666" points="2968.75,-163.5 2817.75,-163.5 2817.75,-133 2968.75,-133 2968.75,-163.5"/>
<text text-anchor="start" x="2825.75" y="-150" font-family="Helvetica,sans-Serif" font-size="10.00">OscProbCalcer/OscProbCalcer</text>
<text text-anchor="middle" x="2893.25" y="-138.75" font-family="Helvetica,sans-Serif" font-size="10.00">_ProbGPULinear.h</text>
</a>
</g>
</g>
<!-- Node1&#45;&gt;Node27 -->
<g id="edge27_Node000001_Node000027" class="edge">
<title>Node1&#45;&gt;Node27</title>
<g id="a_edge27_Node000001_Node000027"><a xlink:title=" ">
<path fill="none" stroke="#63b8ff" d="M1797.46,-213.38C1983.77,-211.8 2434.2,-203.73 2809.25,-163.5 2811.9,-163.22 2814.59,-162.9 2817.3,-162.56"/>
<polygon fill="#63b8ff" stroke="#63b8ff" points="1797.59,-209.88 1787.62,-213.46 1797.65,-216.88 1797.59,-209.88"/>
</a>
</g>
</g>
<!-- Node29 -->
<g id="Node000029" class="node">
<title>Node29</title>
<g id="a_Node000029"><a xlink:href="OscillatorBase_8h.html" target="_top" xlink:title=" ">
<polygon fill="white" stroke="#666666" points="859,-157.88 727.5,-157.88 727.5,-138.62 859,-138.62 859,-157.88"/>
<text text-anchor="middle" x="793.25" y="-144.38" font-family="Helvetica,sans-Serif" font-size="10.00">Oscillator/OscillatorBase.h</text>
</a>
</g>
</g>
<!-- Node1&#45;&gt;Node29 -->
<g id="edge29_Node000001_Node000029" class="edge">
<title>Node1&#45;&gt;Node29</title>
<g id="a_edge29_Node000001_Node000029"><a xlink:title=" ">
<path fill="none" stroke="#63b8ff" d="M1623.16,-208.71C1481.71,-200.37 1193.27,-182.7 949.25,-163.5 919.7,-161.17 887.03,-158.25 859.26,-155.65"/>
<polygon fill="#63b8ff" stroke="#63b8ff" points="1622.63,-212.19 1632.81,-209.28 1623.04,-205.2 1622.63,-212.19"/>
</a>
</g>
</g>
<!-- Node4&#45;&gt;Node2 -->
<g id="edge4_Node000004_Node000002" class="edge">
<title>Node4&#45;&gt;Node2</title>
<g id="a_edge4_Node000004_Node000002"><a xlink:title=" ">
<path fill="none" stroke="#63b8ff" d="M279.05,-129.97C226.33,-117.7 157.62,-101.7 115.25,-91.83"/>
<polygon fill="#63b8ff" stroke="#63b8ff" points="278.04,-133.33 288.57,-132.19 279.63,-126.51 278.04,-133.33"/>
</a>
</g>
</g>
<!-- Node5 -->
<g id="Node000005" class="node">
<title>Node5</title>
<g id="a_Node000005"><a xlink:href="OscProbCalcerFactory_8cpp.html" target="_top" xlink:title=" ">
<polygon fill="white" stroke="#666666" points="321.75,-97 170.75,-97 170.75,-66.5 321.75,-66.5 321.75,-97"/>
<text text-anchor="start" x="178.75" y="-83.5" font-family="Helvetica,sans-Serif" font-size="10.00">OscProbCalcer/OscProbCalcer</text>
<text text-anchor="middle" x="246.25" y="-72.25" font-family="Helvetica,sans-Serif" font-size="10.00">Factory.cpp</text>
</a>
</g>
</g>
<!-- Node4&#45;&gt;Node5 -->
<g id="edge5_Node000004_Node000005" class="edge">
<title>Node4&#45;&gt;Node5</title>
<g id="a_edge5_Node000004_Node000005"><a xlink:title=" ">
<path fill="none" stroke="#63b8ff" d="M319.47,-126.89C303.55,-117.29 284.92,-106.06 270.43,-97.33"/>
<polygon fill="#63b8ff" stroke="#63b8ff" points="317.3,-129.67 327.67,-131.83 320.92,-123.67 317.3,-129.67"/>
</a>
</g>
</g>
<!-- Node6 -->
<g id="Node000006" class="node">
<title>Node6</title>
<g id="a_Node000006"><a xlink:href="OscillatorBase_8cpp.html" target="_top" xlink:title=" ">
<polygon fill="white" stroke="#666666" points="482.25,-91.38 340.25,-91.38 340.25,-72.12 482.25,-72.12 482.25,-91.38"/>
<text text-anchor="middle" x="411.25" y="-77.88" font-family="Helvetica,sans-Serif" font-size="10.00">Oscillator/OscillatorBase.cpp</text>
</a>
</g>
</g>
<!-- Node4&#45;&gt;Node6 -->
<g id="edge6_Node000004_Node000006" class="edge">
<title>Node4&#45;&gt;Node6</title>
<g id="a_edge6_Node000004_Node000006"><a xlink:title=" ">
<path fill="none" stroke="#63b8ff" d="M373.82,-124.37C384.02,-113.03 395.75,-99.99 403.32,-91.57"/>
<polygon fill="#63b8ff" stroke="#63b8ff" points="371.51,-121.71 367.42,-131.49 376.71,-126.39 371.51,-121.71"/>
</a>
</g>
</g>
<!-- Node8 -->
<g id="Node000008" class="node">
<title>Node8</title>
<g id="a_Node000008"><a xlink:href="OscProbCalcer__CHICLinear_8cpp.html" target="_top" xlink:title=" ">
<polygon fill="white" stroke="#666666" points="1278.75,-97 1127.75,-97 1127.75,-66.5 1278.75,-66.5 1278.75,-97"/>
<text text-anchor="start" x="1135.75" y="-83.5" font-family="Helvetica,sans-Serif" font-size="10.00">OscProbCalcer/OscProbCalcer</text>
<text text-anchor="middle" x="1203.25" y="-72.25" font-family="Helvetica,sans-Serif" font-size="10.00">_CHICLinear.cpp</text>
</a>
</g>
</g>
<!-- Node7&#45;&gt;Node8 -->
<g id="edge8_Node000007_Node000008" class="edge">
<title>Node7&#45;&gt;Node8</title>
<g id="a_edge8_Node000007_Node000008"><a xlink:title=" ">
<path fill="none" stroke="#63b8ff" d="M1203.25,-121.31C1203.25,-113.14 1203.25,-104.41 1203.25,-97.33"/>
<polygon fill="#63b8ff" stroke="#63b8ff" points="1199.75,-121.1 1203.25,-131.1 1206.75,-121.1 1199.75,-121.1"/>
</a>
</g>
</g>
<!-- Node10 -->
<g id="Node000010" class="node">
<title>Node10</title>
<g id="a_Node000010"><a xlink:href="OscProbCalcer__CUDAProb3_8cpp.html" target="_top" xlink:title=" ">
<polygon fill="white" stroke="#666666" points="1447.75,-97 1296.75,-97 1296.75,-66.5 1447.75,-66.5 1447.75,-97"/>
<text text-anchor="start" x="1304.75" y="-83.5" font-family="Helvetica,sans-Serif" font-size="10.00">OscProbCalcer/OscProbCalcer</text>
<text text-anchor="middle" x="1372.25" y="-72.25" font-family="Helvetica,sans-Serif" font-size="10.00">_CUDAProb3.cpp</text>
</a>
</g>
</g>
<!-- Node9&#45;&gt;Node10 -->
<g id="edge10_Node000009_Node000010" class="edge">
<title>Node9&#45;&gt;Node10</title>
<g id="a_edge10_Node000009_Node000010"><a xlink:title=" ">
<path fill="none" stroke="#63b8ff" d="M1372.25,-121.31C1372.25,-113.14 1372.25,-104.41 1372.25,-97.33"/>
<polygon fill="#63b8ff" stroke="#63b8ff" points="1368.75,-121.1 1372.25,-131.1 1375.75,-121.1 1368.75,-121.1"/>
</a>
</g>
</g>
<!-- Node12 -->
<g id="Node000012" class="node">
<title>Node12</title>
<g id="a_Node000012"><a xlink:href="OscProbCalcer__CUDAProb3Linear_8cpp.html" target="_top" xlink:title=" ">
<polygon fill="white" stroke="#666666" points="1616.75,-97 1465.75,-97 1465.75,-66.5 1616.75,-66.5 1616.75,-97"/>
<text text-anchor="start" x="1473.75" y="-83.5" font-family="Helvetica,sans-Serif" font-size="10.00">OscProbCalcer/OscProbCalcer</text>
<text text-anchor="middle" x="1541.25" y="-72.25" font-family="Helvetica,sans-Serif" font-size="10.00">_CUDAProb3Linear.cpp</text>
</a>
</g>
</g>
<!-- Node11&#45;&gt;Node12 -->
<g id="edge12_Node000011_Node000012" class="edge">
<title>Node11&#45;&gt;Node12</title>
<g id="a_edge12_Node000011_Node000012"><a xlink:title=" ">
<path fill="none" stroke="#63b8ff" d="M1541.25,-121.31C1541.25,-113.14 1541.25,-104.41 1541.25,-97.33"/>
<polygon fill="#63b8ff" stroke="#63b8ff" points="1537.75,-121.1 1541.25,-131.1 1544.75,-121.1 1537.75,-121.1"/>
</a>
</g>
</g>
<!-- Node14 -->
<g id="Node000014" class="node">
<title>Node14</title>
<g id="a_Node000014"><a xlink:href="OscProbCalcer__GLoBESLinear_8cpp.html" target="_top" xlink:title=" ">
<polygon fill="white" stroke="#666666" points="1785.75,-97 1634.75,-97 1634.75,-66.5 1785.75,-66.5 1785.75,-97"/>
<text text-anchor="start" x="1642.75" y="-83.5" font-family="Helvetica,sans-Serif" font-size="10.00">OscProbCalcer/OscProbCalcer</text>
<text text-anchor="middle" x="1710.25" y="-72.25" font-family="Helvetica,sans-Serif" font-size="10.00">_GLoBESLinear.cpp</text>
</a>
</g>
</g>
<!-- Node13&#45;&gt;Node14 -->
<g id="edge14_Node000013_Node000014" class="edge">
<title>Node13&#45;&gt;Node14</title>
<g id="a_edge14_Node000013_Node000014"><a xlink:title=" ">
<path fill="none" stroke="#63b8ff" d="M1710.25,-121.31C1710.25,-113.14 1710.25,-104.41 1710.25,-97.33"/>
<polygon fill="#63b8ff" stroke="#63b8ff" points="1706.75,-121.1 1710.25,-131.1 1713.75,-121.1 1706.75,-121.1"/>
</a>
</g>
</g>
<!-- Node16 -->
<g id="Node000016" class="node">
<title>Node16</title>
<g id="a_Node000016"><a xlink:href="OscProbCalcer__NuFASTEarth_8cpp.html" target="_top" xlink:title=" ">
<polygon fill="white" stroke="#666666" points="1954.75,-97 1803.75,-97 1803.75,-66.5 1954.75,-66.5 1954.75,-97"/>
<text text-anchor="start" x="1811.75" y="-83.5" font-family="Helvetica,sans-Serif" font-size="10.00">OscProbCalcer/OscProbCalcer</text>
<text text-anchor="middle" x="1879.25" y="-72.25" font-family="Helvetica,sans-Serif" font-size="10.00">_NuFASTEarth.cpp</text>
</a>
</g>
</g>
<!-- Node15&#45;&gt;Node16 -->
<g id="edge16_Node000015_Node000016" class="edge">
<title>Node15&#45;&gt;Node16</title>
<g id="a_edge16_Node000015_Node000016"><a xlink:title=" ">
<path fill="none" stroke="#63b8ff" d="M1879.25,-121.31C1879.25,-113.14 1879.25,-104.41 1879.25,-97.33"/>
<polygon fill="#63b8ff" stroke="#63b8ff" points="1875.75,-121.1 1879.25,-131.1 1882.75,-121.1 1875.75,-121.1"/>
</a>
</g>
</g>
<!-- Node18 -->
<g id="Node000018" class="node">
<title>Node18</title>
<g id="a_Node000018"><a xlink:href="OscProbCalcer__NuFASTLinear_8cpp.html" target="_top" xlink:title=" ">
<polygon fill="white" stroke="#666666" points="2123.75,-97 1972.75,-97 1972.75,-66.5 2123.75,-66.5 2123.75,-97"/>
<text text-anchor="start" x="1980.75" y="-83.5" font-family="Helvetica,sans-Serif" font-size="10.00">OscProbCalcer/OscProbCalcer</text>
<text text-anchor="middle" x="2048.25" y="-72.25" font-family="Helvetica,sans-Serif" font-size="10.00">_NuFASTLinear.cpp</text>
</a>
</g>
</g>
<!-- Node17&#45;&gt;Node18 -->
<g id="edge18_Node000017_Node000018" class="edge">
<title>Node17&#45;&gt;Node18</title>
<g id="a_edge18_Node000017_Node000018"><a xlink:title=" ">
<path fill="none" stroke="#63b8ff" d="M2048.25,-121.31C2048.25,-113.14 2048.25,-104.41 2048.25,-97.33"/>
<polygon fill="#63b8ff" stroke="#63b8ff" points="2044.75,-121.1 2048.25,-131.1 2051.75,-121.1 2044.75,-121.1"/>
</a>
</g>
</g>
<!-- Node20 -->
<g id="Node000020" class="node">
<title>Node20</title>
<g id="a_Node000020"><a xlink:href="OscProbCalcer__NuSQUIDSLinear_8cpp.html" target="_top" xlink:title=" ">
<polygon fill="white" stroke="#666666" points="2292.75,-97 2141.75,-97 2141.75,-66.5 2292.75,-66.5 2292.75,-97"/>
<text text-anchor="start" x="2149.75" y="-83.5" font-family="Helvetica,sans-Serif" font-size="10.00">OscProbCalcer/OscProbCalcer</text>
<text text-anchor="middle" x="2217.25" y="-72.25" font-family="Helvetica,sans-Serif" font-size="10.00">_NuSQUIDSLinear.cpp</text>
</a>
</g>
</g>
<!-- Node19&#45;&gt;Node20 -->
<g id="edge20_Node000019_Node000020" class="edge">
<title>Node19&#45;&gt;Node20</title>
<g id="a_edge20_Node000019_Node000020"><a xlink:title=" ">
<path fill="none" stroke="#63b8ff" d="M2217.25,-121.31C2217.25,-113.14 2217.25,-104.41 2217.25,-97.33"/>
<polygon fill="#63b8ff" stroke="#63b8ff" points="2213.75,-121.1 2217.25,-131.1 2220.75,-121.1 2213.75,-121.1"/>
</a>
</g>
</g>
<!-- Node22 -->
<g id="Node000022" class="node">
<title>Node22</title>
<g id="a_Node000022"><a xlink:href="OscProbCalcer__OscLibLinear_8cpp.html" target="_top" xlink:title=" ">
<polygon fill="white" stroke="#666666" points="2461.75,-97 2310.75,-97 2310.75,-66.5 2461.75,-66.5 2461.75,-97"/>
<text text-anchor="start" x="2318.75" y="-83.5" font-family="Helvetica,sans-Serif" font-size="10.00">OscProbCalcer/OscProbCalcer</text>
<text text-anchor="middle" x="2386.25" y="-72.25" font-family="Helvetica,sans-Serif" font-size="10.00">_OscLibLinear.cpp</text>
</a>
</g>
</g>
<!-- Node21&#45;&gt;Node22 -->
<g id="edge22_Node000021_Node000022" class="edge">
<title>Node21&#45;&gt;Node22</title>
<g id="a_edge22_Node000021_Node000022"><a xlink:title=" ">
<path fill="none" stroke="#63b8ff" d="M2386.25,-121.31C2386.25,-113.14 2386.25,-104.41 2386.25,-97.33"/>
<polygon fill="#63b8ff" stroke="#63b8ff" points="2382.75,-121.1 2386.25,-131.1 2389.75,-121.1 2382.75,-121.1"/>
</a>
</g>
</g>
<!-- Node24 -->
<g id="Node000024" class="node">
<title>Node24</title>
<g id="a_Node000024"><a xlink:href="OscProbCalcer__OscProb_8cpp.html" target="_top" xlink:title=" ">
<polygon fill="white" stroke="#666666" points="2630.75,-97 2479.75,-97 2479.75,-66.5 2630.75,-66.5 2630.75,-97"/>
<text text-anchor="start" x="2487.75" y="-83.5" font-family="Helvetica,sans-Serif" font-size="10.00">OscProbCalcer/OscProbCalcer</text>
<text text-anchor="middle" x="2555.25" y="-72.25" font-family="Helvetica,sans-Serif" font-size="10.00">_OscProb.cpp</text>
</a>
</g>
</g>
<!-- Node23&#45;&gt;Node24 -->
<g id="edge24_Node000023_Node000024" class="edge">
<title>Node23&#45;&gt;Node24</title>
<g id="a_edge24_Node000023_Node000024"><a xlink:title=" ">
<path fill="none" stroke="#63b8ff" d="M2555.25,-121.31C2555.25,-113.14 2555.25,-104.41 2555.25,-97.33"/>
<polygon fill="#63b8ff" stroke="#63b8ff" points="2551.75,-121.1 2555.25,-131.1 2558.75,-121.1 2551.75,-121.1"/>
</a>
</g>
</g>
<!-- Node26 -->
<g id="Node000026" class="node">
<title>Node26</title>
<g id="a_Node000026"><a xlink:href="OscProbCalcer__Prob3ppLinear_8cpp.html" target="_top" xlink:title=" ">
<polygon fill="white" stroke="#666666" points="2799.75,-97 2648.75,-97 2648.75,-66.5 2799.75,-66.5 2799.75,-97"/>
<text text-anchor="start" x="2656.75" y="-83.5" font-family="Helvetica,sans-Serif" font-size="10.00">OscProbCalcer/OscProbCalcer</text>
<text text-anchor="middle" x="2724.25" y="-72.25" font-family="Helvetica,sans-Serif" font-size="10.00">_Prob3ppLinear.cpp</text>
</a>
</g>
</g>
<!-- Node25&#45;&gt;Node26 -->
<g id="edge26_Node000025_Node000026" class="edge">
<title>Node25&#45;&gt;Node26</title>
<g id="a_edge26_Node000025_Node000026"><a xlink:title=" ">
<path fill="none" stroke="#63b8ff" d="M2724.25,-121.31C2724.25,-113.14 2724.25,-104.41 2724.25,-97.33"/>
<polygon fill="#63b8ff" stroke="#63b8ff" points="2720.75,-121.1 2724.25,-131.1 2727.75,-121.1 2720.75,-121.1"/>
</a>
</g>
</g>
<!-- Node28 -->
<g id="Node000028" class="node">
<title>Node28</title>
<g id="a_Node000028"><a xlink:href="OscProbCalcer__ProbGPULinear_8cpp.html" target="_top" xlink:title=" ">
<polygon fill="white" stroke="#666666" points="2968.75,-97 2817.75,-97 2817.75,-66.5 2968.75,-66.5 2968.75,-97"/>
<text text-anchor="start" x="2825.75" y="-83.5" font-family="Helvetica,sans-Serif" font-size="10.00">OscProbCalcer/OscProbCalcer</text>
<text text-anchor="middle" x="2893.25" y="-72.25" font-family="Helvetica,sans-Serif" font-size="10.00">_ProbGPULinear.cpp</text>
</a>
</g>
</g>
<!-- Node27&#45;&gt;Node28 -->
<g id="edge28_Node000027_Node000028" class="edge">
<title>Node27&#45;&gt;Node28</title>
<g id="a_edge28_Node000027_Node000028"><a xlink:title=" ">
<path fill="none" stroke="#63b8ff" d="M2893.25,-121.31C2893.25,-113.14 2893.25,-104.41 2893.25,-97.33"/>
<polygon fill="#63b8ff" stroke="#63b8ff" points="2889.75,-121.1 2893.25,-131.1 2896.75,-121.1 2889.75,-121.1"/>
</a>
</g>
</g>
<!-- Node29&#45;&gt;Node6 -->
<g id="edge30_Node000029_Node000006" class="edge">
<title>Node29&#45;&gt;Node6</title>
<g id="a_edge30_Node000029_Node000006"><a xlink:title=" ">
<path fill="none" stroke="#63b8ff" d="M726.23,-136.32C665,-126.29 572,-110.91 491.25,-97 481.66,-95.35 471.42,-93.55 461.59,-91.81"/>
<polygon fill="#63b8ff" stroke="#63b8ff" points="725.35,-139.73 735.79,-137.89 726.48,-132.82 725.35,-139.73"/>
</a>
</g>
</g>
<!-- Node30 -->
<g id="Node000030" class="node">
<title>Node30</title>
<g id="a_Node000030"><a xlink:href="OscillatorBinned_8h.html" target="_top" xlink:title=" ">
<polygon fill="white" stroke="#666666" points="944.75,-91.38 805.75,-91.38 805.75,-72.12 944.75,-72.12 944.75,-91.38"/>
<text text-anchor="middle" x="875.25" y="-77.88" font-family="Helvetica,sans-Serif" font-size="10.00">Oscillator/OscillatorBinned.h</text>
</a>
</g>
</g>
<!-- Node29&#45;&gt;Node30 -->
<g id="edge31_Node000029_Node000030" class="edge">
<title>Node29&#45;&gt;Node30</title>
<g id="a_edge31_Node000029_Node000030"><a xlink:title=" ">
<path fill="none" stroke="#63b8ff" d="M813.64,-131.21C829.42,-118.8 850.71,-102.05 863.68,-91.85"/>
<polygon fill="#63b8ff" stroke="#63b8ff" points="811.54,-128.41 805.84,-137.35 815.87,-133.91 811.54,-128.41"/>
</a>
</g>
</g>
<!-- Node33 -->
<g id="Node000033" class="node">
<title>Node33</title>
<g id="a_Node000033"><a xlink:href="OscillatorFactory_8h.html" target="_top" xlink:title=" ">
<polygon fill="white" stroke="#666666" points="1109.88,-91.38 968.62,-91.38 968.62,-72.12 1109.88,-72.12 1109.88,-91.38"/>
<text text-anchor="middle" x="1039.25" y="-77.88" font-family="Helvetica,sans-Serif" font-size="10.00">Oscillator/OscillatorFactory.h</text>
</a>
</g>
</g>
<!-- Node29&#45;&gt;Node33 -->
<g id="edge34_Node000029_Node000033" class="edge">
<title>Node29&#45;&gt;Node33</title>
<g id="a_edge34_Node000029_Node000033"><a xlink:title=" ">
<path fill="none" stroke="#63b8ff" d="M838.98,-135.26C886.99,-122.67 961.38,-103.17 1004.7,-91.81"/>
<polygon fill="#63b8ff" stroke="#63b8ff" points="838.22,-131.84 829.44,-137.76 840,-138.61 838.22,-131.84"/>
</a>
</g>
</g>
<!-- Node40 -->
<g id="Node000040" class="node">
<title>Node40</title>
<g id="a_Node000040"><a xlink:href="OscillatorSubSampling_8h.html" target="_top" xlink:title=" ">
<polygon fill="white" stroke="#666666" points="618.62,-97 499.88,-97 499.88,-66.5 618.62,-66.5 618.62,-97"/>
<text text-anchor="start" x="507.88" y="-83.5" font-family="Helvetica,sans-Serif" font-size="10.00">Oscillator/OscillatorSub</text>
<text text-anchor="middle" x="559.25" y="-72.25" font-family="Helvetica,sans-Serif" font-size="10.00">Sampling.h</text>
</a>
</g>
</g>
<!-- Node29&#45;&gt;Node40 -->
<g id="edge42_Node000029_Node000040" class="edge">
<title>Node29&#45;&gt;Node40</title>
<g id="a_edge42_Node000029_Node000040"><a xlink:title=" ">
<path fill="none" stroke="#63b8ff" d="M749.28,-135.13C710.45,-124.43 653.75,-108.8 612.4,-97.4"/>
<polygon fill="#63b8ff" stroke="#63b8ff" points="748.19,-138.46 758.76,-137.74 750.05,-131.71 748.19,-138.46"/>
</a>
</g>
</g>
<!-- Node42 -->
<g id="Node000042" class="node">
<title>Node42</title>
<g id="a_Node000042"><a xlink:href="OscillatorUnbinned_8h.html" target="_top" xlink:title=" ">
<polygon fill="white" stroke="#666666" points="787.38,-91.38 637.12,-91.38 637.12,-72.12 787.38,-72.12 787.38,-91.38"/>
<text text-anchor="middle" x="712.25" y="-77.88" font-family="Helvetica,sans-Serif" font-size="10.00">Oscillator/OscillatorUnbinned.h</text>
</a>
</g>
</g>
<!-- Node29&#45;&gt;Node42 -->
<g id="edge45_Node000029_Node000042" class="edge">
<title>Node29&#45;&gt;Node42</title>
<g id="a_edge45_Node000029_Node000042"><a xlink:title=" ">
<path fill="none" stroke="#63b8ff" d="M773.11,-131.21C757.52,-118.8 736.49,-102.05 723.68,-91.85"/>
<polygon fill="#63b8ff" stroke="#63b8ff" points="770.8,-133.85 780.8,-137.34 775.16,-128.37 770.8,-133.85"/>
</a>
</g>
</g>
<!-- Node31 -->
<g id="Node000031" class="node">
<title>Node31</title>
<g id="a_Node000031"><a xlink:href="OscillatorBinned_8cpp.html" target="_top" xlink:title=" ">
<polygon fill="white" stroke="#666666" points="945,-24.88 795.5,-24.88 795.5,-5.63 945,-5.63 945,-24.88"/>
<text text-anchor="middle" x="870.25" y="-11.38" font-family="Helvetica,sans-Serif" font-size="10.00">Oscillator/OscillatorBinned.cpp</text>
</a>
</g>
</g>
<!-- Node30&#45;&gt;Node31 -->
<g id="edge32_Node000030_Node000031" class="edge">
<title>Node30&#45;&gt;Node31</title>
<g id="a_edge32_Node000030_Node000031"><a xlink:title=" ">
<path fill="none" stroke="#63b8ff" d="M873.69,-60.65C872.77,-48.75 871.65,-34.26 870.94,-25.14"/>
<polygon fill="#63b8ff" stroke="#63b8ff" points="870.18,-60.57 874.44,-70.27 877.15,-60.03 870.18,-60.57"/>
</a>
</g>
</g>
<!-- Node32 -->
<g id="Node000032" class="node">
<title>Node32</title>
<g id="a_Node000032"><a xlink:href="OscillatorFactory_8cpp.html" target="_top" xlink:title=" ">
<polygon fill="white" stroke="#666666" points="777.12,-24.88 625.38,-24.88 625.38,-5.63 777.12,-5.63 777.12,-24.88"/>
<text text-anchor="middle" x="701.25" y="-11.38" font-family="Helvetica,sans-Serif" font-size="10.00">Oscillator/OscillatorFactory.cpp</text>
</a>
</g>
</g>
<!-- Node30&#45;&gt;Node32 -->
<g id="edge33_Node000030_Node000032" class="edge">
<title>Node30&#45;&gt;Node32</title>
<g id="a_edge33_Node000030_Node000032"><a xlink:title=" ">
<path fill="none" stroke="#63b8ff" d="M840.29,-67.79C806.3,-55.19 755.55,-36.38 725.69,-25.31"/>
<polygon fill="#63b8ff" stroke="#63b8ff" points="838.68,-70.93 849.27,-71.12 841.11,-64.36 838.68,-70.93"/>
</a>
</g>
</g>
<!-- Node33&#45;&gt;Node32 -->
<g id="edge41_Node000033_Node000032" class="edge">
<title>Node33&#45;&gt;Node32</title>
<g id="a_edge41_Node000033_Node000032"><a xlink:title=" ">
<path fill="none" stroke="#63b8ff" d="M980.56,-69.55C914.91,-57.02 809.81,-36.97 748.99,-25.36"/>
<polygon fill="#63b8ff" stroke="#63b8ff" points="979.57,-72.93 990.05,-71.36 980.89,-66.05 979.57,-72.93"/>
</a>
</g>
</g>
<!-- Node34 -->
<g id="Node000034" class="node">
<title>Node34</title>
<g id="a_Node000034"><a xlink:href="Analysis_8cpp.html" target="_top" xlink:title=" ">
<polygon fill="white" stroke="#666666" points="1571.38,-24.88 1475.12,-24.88 1475.12,-5.63 1571.38,-5.63 1571.38,-24.88"/>
<text text-anchor="middle" x="1523.25" y="-11.38" font-family="Helvetica,sans-Serif" font-size="10.00">Apps/Analysis.cpp</text>
</a>
</g>
</g>
<!-- Node33&#45;&gt;Node34 -->
<g id="edge35_Node000033_Node000034" class="edge">
<title>Node33&#45;&gt;Node34</title>
<g id="a_edge35_Node000033_Node000034"><a xlink:title=" ">
<path fill="none" stroke="#63b8ff" d="M1097.57,-69.72C1104.53,-68.55 1111.54,-67.45 1118.25,-66.5 1272.2,-44.68 1313.11,-57.42 1466.25,-30.5 1474.09,-29.12 1482.44,-27.26 1490.27,-25.34"/>
<polygon fill="#63b8ff" stroke="#63b8ff" points="1097.11,-66.25 1087.85,-71.39 1098.3,-73.14 1097.11,-66.25"/>
</a>
</g>
</g>
<!-- Node35 -->
<g id="Node000035" class="node">
<title>Node35</title>
<g id="a_Node000035"><a xlink:href="CompareOscillationProbabilities_8cpp.html" target="_top" xlink:title=" ">
<polygon fill="white" stroke="#666666" points="1787,-24.88 1589.5,-24.88 1589.5,-5.63 1787,-5.63 1787,-24.88"/>
<text text-anchor="middle" x="1688.25" y="-11.38" font-family="Helvetica,sans-Serif" font-size="10.00">Apps/CompareOscillationProbabilities.cpp</text>
</a>
</g>
</g>
<!-- Node33&#45;&gt;Node35 -->
<g id="edge36_Node000033_Node000035" class="edge">
<title>Node33&#45;&gt;Node35</title>
<g id="a_edge36_Node000033_Node000035"><a xlink:title=" ">
<path fill="none" stroke="#63b8ff" d="M1096.19,-69.77C1103.59,-68.55 1111.09,-67.42 1118.25,-66.5 1322.52,-40.19 1375.42,-51.98 1580.25,-30.5 1594.26,-29.03 1609.27,-27.21 1623.5,-25.37"/>
<polygon fill="#63b8ff" stroke="#63b8ff" points="1095.84,-66.28 1086.57,-71.42 1097.02,-73.18 1095.84,-66.28"/>
</a>
</g>
</g>
<!-- Node36 -->
<g id="Node000036" class="node">
<title>Node36</title>
<g id="a_Node000036"><a xlink:href="DragRace_8cpp.html" target="_top" xlink:title=" ">
<polygon fill="white" stroke="#666666" points="1907.38,-24.88 1805.12,-24.88 1805.12,-5.63 1907.38,-5.63 1907.38,-24.88"/>
<text text-anchor="middle" x="1856.25" y="-11.38" font-family="Helvetica,sans-Serif" font-size="10.00">Apps/DragRace.cpp</text>
</a>
</g>
</g>
<!-- Node33&#45;&gt;Node36 -->
<g id="edge37_Node000033_Node000036" class="edge">
<title>Node33&#45;&gt;Node36</title>
<g id="a_edge37_Node000033_Node000036"><a xlink:title=" ">
<path fill="none" stroke="#63b8ff" d="M1095.33,-69.74C1103.01,-68.5 1110.81,-67.37 1118.25,-66.5 1417.99,-31.65 1497.58,-73.54 1796.25,-30.5 1804.94,-29.25 1814.22,-27.34 1822.82,-25.32"/>
<polygon fill="#63b8ff" stroke="#63b8ff" points="1094.99,-66.25 1085.72,-71.38 1096.16,-73.15 1094.99,-66.25"/>
</a>
</g>
</g>
<!-- Node37 -->
<g id="Node000037" class="node">
<title>Node37</title>
<g id="a_Node000037"><a xlink:href="LegacyModeExample_8cpp.html" target="_top" xlink:title=" ">
<polygon fill="white" stroke="#666666" points="1115.12,-24.88 963.38,-24.88 963.38,-5.63 1115.12,-5.63 1115.12,-24.88"/>
<text text-anchor="middle" x="1039.25" y="-11.38" font-family="Helvetica,sans-Serif" font-size="10.00">Apps/LegacyModeExample.cpp</text>
</a>
</g>
</g>
<!-- Node33&#45;&gt;Node37 -->
<g id="edge38_Node000033_Node000037" class="edge">
<title>Node33&#45;&gt;Node37</title>
<g id="a_edge38_Node000033_Node000037"><a xlink:title=" ">
<path fill="none" stroke="#63b8ff" d="M1039.25,-60.27C1039.25,-48.44 1039.25,-34.16 1039.25,-25.14"/>
<polygon fill="#63b8ff" stroke="#63b8ff" points="1035.75,-60.27 1039.25,-70.27 1042.75,-60.27 1035.75,-60.27"/>
</a>
</g>
</g>
<!-- Node38 -->
<g id="Node000038" class="node">
<title>Node38</title>
<g id="a_Node000038"><a xlink:href="OscProbCalcerComparison_8cpp.html" target="_top" xlink:title=" ">
<polygon fill="white" stroke="#666666" points="1310.88,-24.88 1133.62,-24.88 1133.62,-5.63 1310.88,-5.63 1310.88,-24.88"/>
<text text-anchor="middle" x="1222.25" y="-11.38" font-family="Helvetica,sans-Serif" font-size="10.00">Apps/OscProbCalcerComparison.cpp</text>
</a>
</g>
</g>
<!-- Node33&#45;&gt;Node38 -->
<g id="edge39_Node000033_Node000038" class="edge">
<title>Node33&#45;&gt;Node38</title>
<g id="a_edge39_Node000033_Node000038"><a xlink:title=" ">
<path fill="none" stroke="#63b8ff" d="M1075.56,-67.95C1111.31,-55.35 1165,-36.43 1196.55,-25.31"/>
<polygon fill="#63b8ff" stroke="#63b8ff" points="1074.78,-64.52 1066.51,-71.14 1077.1,-71.12 1074.78,-64.52"/>
</a>
</g>
</g>
<!-- Node39 -->
<g id="Node000039" class="node">
<title>Node39</title>
<g id="a_Node000039"><a xlink:href="SingleOscillator_8cpp.html" target="_top" xlink:title=" ">
<polygon fill="white" stroke="#666666" points="1457.12,-24.88 1329.38,-24.88 1329.38,-5.63 1457.12,-5.63 1457.12,-24.88"/>
<text text-anchor="middle" x="1393.25" y="-11.38" font-family="Helvetica,sans-Serif" font-size="10.00">Apps/SingleOscillator.cpp</text>
</a>
</g>
</g>
<!-- Node33&#45;&gt;Node39 -->
<g id="edge40_Node000033_Node000039" class="edge">
<title>Node33&#45;&gt;Node39</title>
<g id="a_edge40_Node000033_Node000039"><a xlink:title=" ">
<path fill="none" stroke="#63b8ff" d="M1100.28,-69.73C1106.35,-68.64 1112.42,-67.55 1118.25,-66.5 1208.01,-50.41 1230.61,-47.24 1320.25,-30.5 1329.01,-28.86 1338.35,-27.08 1347.32,-25.33"/>
<polygon fill="#63b8ff" stroke="#63b8ff" points="1100.11,-66.2 1090.89,-71.42 1101.35,-73.09 1100.11,-66.2"/>
</a>
</g>
</g>
<!-- Node40&#45;&gt;Node32 -->
<g id="edge43_Node000040_Node000032" class="edge">
<title>Node40&#45;&gt;Node32</title>
<g id="a_edge43_Node000040_Node000032"><a xlink:title=" ">
<path fill="none" stroke="#63b8ff" d="M601.62,-61.51C628.05,-49.5 660.84,-34.6 681.41,-25.26"/>
<polygon fill="#63b8ff" stroke="#63b8ff" points="600.51,-58.17 592.85,-65.49 603.4,-64.54 600.51,-58.17"/>
</a>
</g>
</g>
<!-- Node41 -->
<g id="Node000041" class="node">
<title>Node41</title>
<g id="a_Node000041"><a xlink:href="OscillatorSubSampling_8cpp.html" target="_top" xlink:title=" ">
<polygon fill="white" stroke="#666666" points="428.62,-30.5 309.88,-30.5 309.88,0 428.62,0 428.62,-30.5"/>
<text text-anchor="start" x="317.88" y="-17" font-family="Helvetica,sans-Serif" font-size="10.00">Oscillator/OscillatorSub</text>
<text text-anchor="middle" x="369.25" y="-5.75" font-family="Helvetica,sans-Serif" font-size="10.00">Sampling.cpp</text>
</a>
</g>
</g>
<!-- Node40&#45;&gt;Node41 -->
<g id="edge44_Node000040_Node000041" class="edge">
<title>Node40&#45;&gt;Node41</title>
<g id="a_edge44_Node000040_Node000041"><a xlink:title=" ">
<path fill="none" stroke="#63b8ff" d="M505.62,-62.54C476.18,-52.55 440.15,-40.32 412.52,-30.94"/>
<polygon fill="#63b8ff" stroke="#63b8ff" points="504.11,-65.73 514.7,-65.63 506.36,-59.1 504.11,-65.73"/>
</a>
</g>
</g>
<!-- Node42&#45;&gt;Node32 -->
<g id="edge46_Node000042_Node000032" class="edge">
<title>Node42&#45;&gt;Node32</title>
<g id="a_edge46_Node000042_Node000032"><a xlink:title=" ">
<path fill="none" stroke="#63b8ff" d="M708.82,-60.65C706.79,-48.75 704.32,-34.26 702.77,-25.14"/>
<polygon fill="#63b8ff" stroke="#63b8ff" points="705.33,-61.02 710.47,-70.29 712.23,-59.84 705.33,-61.02"/>
</a>
</g>
</g>
<!-- Node43 -->
<g id="Node000043" class="node">
<title>Node43</title>
<g id="a_Node000043"><a xlink:href="OscillatorUnbinned_8cpp.html" target="_top" xlink:title=" ">
<polygon fill="white" stroke="#666666" points="607.62,-24.88 446.88,-24.88 446.88,-5.63 607.62,-5.63 607.62,-24.88"/>
<text text-anchor="middle" x="527.25" y="-11.38" font-family="Helvetica,sans-Serif" font-size="10.00">Oscillator/OscillatorUnbinned.cpp</text>
</a>
</g>
</g>
<!-- Node42&#45;&gt;Node43 -->
<g id="edge47_Node000042_Node000043" class="edge">
<title>Node42&#45;&gt;Node43</title>
<g id="a_edge47_Node000042_Node000043"><a xlink:title=" ">
<path fill="none" stroke="#63b8ff" d="M675.55,-67.95C639.41,-55.35 585.12,-36.43 553.23,-25.31"/>
<polygon fill="#63b8ff" stroke="#63b8ff" points="674.11,-71.16 684.71,-71.15 676.42,-64.55 674.11,-71.16"/>
</a>
</g>
</g>
</g>
</svg>
