<?xml version="1.0" encoding="UTF-8" standalone="no"?>
<!DOCTYPE svg PUBLIC "-//W3C//DTD SVG 1.1//EN"
 "http://www.w3.org/Graphics/SVG/1.1/DTD/svg11.dtd">
<!-- Generated by graphviz version 9.0.0 (20230911.1827)
 -->
<!-- Title: OscProbCalcer/OscProbCalcer_CUDAProb3Linear.h Pages: 1 -->
<svg width="449pt" height="204pt"
 viewBox="0.00 0.00 449.00 204.25" xmlns="http://www.w3.org/2000/svg" xmlns:xlink="http://www.w3.org/1999/xlink">

<svg id="main" version="1.1" xmlns="http://www.w3.org/2000/svg" xmlns:xlink="http://www.w3.org/1999/xlink" xml:space="preserve" onload="init(evt)">
<style type="text/css"><![CDATA[
.node, .edge {opacity: 0.7;}
.node.selected, .edge.selected {opacity: 1;}
.edge:hover path { stroke: red; }
.edge:hover polygon { stroke: red; fill: red; }
]]></style>
<script type="application/ecmascript" xlink:href="svg.min.js"/>
<svg id="graph" class="graph">
<g id="graph0" class="graph" transform="scale(1 1) rotate(0) translate(4 200.25)">
<title>OscProbCalcer/OscProbCalcer_CUDAProb3Linear.h</title>
<!-- Node1 -->
<g id="Node000001" class="node">
<title>Node1</title>
<g id="a_Node000001"><a xlink:title=" ">
<polygon fill="#999999" stroke="#666666" points="364.62,-196.25 213.62,-196.25 213.62,-165.75 364.62,-165.75 364.62,-196.25"/>
<text text-anchor="start" x="221.62" y="-182.75" font-family="Helvetica,sans-Serif" font-size="10.00">OscProbCalcer/OscProbCalcer</text>
<text text-anchor="middle" x="289.12" y="-171.5" font-family="Helvetica,sans-Serif" font-size="10.00">_CUDAProb3Linear.h</text>
</a>
</g>
</g>
<!-- Node2 -->
<g id="Node000002" class="node">
<title>Node2</title>
<g id="a_Node000002"><a xlink:href="OscProbCalcerBase_8h.html" target="_top" xlink:title=" ">
<polygon fill="white" stroke="#666666" points="345.12,-129.75 233.12,-129.75 233.12,-110.5 345.12,-110.5 345.12,-129.75"/>
<text text-anchor="middle" x="289.12" y="-116.25" font-family="Helvetica,sans-Serif" font-size="10.00">OscProbCalcerBase.h</text>
</a>
</g>
</g>
<!-- Node1&#45;&gt;Node2 -->
<g id="edge1_Node000001_Node000002" class="edge">
<title>Node1&#45;&gt;Node2</title>
<g id="a_edge1_Node000001_Node000002"><a xlink:title=" ">
<path fill="none" stroke="#63b8ff" d="M289.12,-165.45C289.12,-158.21 289.12,-149.34 289.12,-141.44"/>
<polygon fill="#63b8ff" stroke="#63b8ff" points="292.63,-141.71 289.13,-131.71 285.63,-141.71 292.63,-141.71"/>
</a>
</g>
</g>
<!-- Node3 -->
<g id="Node000003" class="node">
<title>Node3</title>
<g id="a_Node000003"><a xlink:href="OscillatorConstants_8h.html" target="_top" xlink:title=" ">
<polygon fill="white" stroke="#666666" points="261.25,-74.5 105,-74.5 105,-55.25 261.25,-55.25 261.25,-74.5"/>
<text text-anchor="middle" x="183.12" y="-61" font-family="Helvetica,sans-Serif" font-size="10.00">Constants/OscillatorConstants.h</text>
</a>
</g>
</g>
<!-- Node1&#45;&gt;Node3 -->
<g id="edge12_Node000001_Node000003" class="edge">
<title>Node1&#45;&gt;Node3</title>
<g id="a_edge12_Node000001_Node000003"><a xlink:title=" ">
<path fill="none" stroke="#63b8ff" d="M266.49,-165.4C253.22,-156.17 236.65,-143.42 224.12,-129.75 211.61,-116.09 200.47,-98.16 192.97,-84.78"/>
<polygon fill="#63b8ff" stroke="#63b8ff" points="196.13,-83.26 188.3,-76.13 189.98,-86.59 196.13,-83.26"/>
</a>
</g>
</g>
<!-- Node11 -->
<g id="Node000011" class="node">
<title>Node11</title>
<g id="a_Node000011"><a xlink:title=" ">
<polygon fill="#e0e0e0" stroke="#999999" points="413.38,-129.75 362.88,-129.75 362.88,-110.5 413.38,-110.5 413.38,-129.75"/>
<text text-anchor="middle" x="388.12" y="-116.25" font-family="Helvetica,sans-Serif" font-size="10.00">memory</text>
</a>
</g>
</g>
<!-- Node1&#45;&gt;Node11 -->
<g id="edge13_Node000001_Node000011" class="edge">
<title>Node1&#45;&gt;Node11</title>
<g id="a_edge13_Node000001_Node000011"><a xlink:title=" ">
<path fill="none" stroke="#63b8ff" d="M313.85,-165.3C328.93,-156.33 348.14,-144.91 363.24,-135.92"/>
<polygon fill="#63b8ff" stroke="#63b8ff" points="364.84,-139.05 371.64,-130.93 361.26,-133.03 364.84,-139.05"/>
</a>
</g>
</g>
<!-- Node2&#45;&gt;Node3 -->
<g id="edge2_Node000002_Node000003" class="edge">
<title>Node2&#45;&gt;Node3</title>
<g id="a_edge2_Node000002_Node000003"><a xlink:title=" ">
<path fill="none" stroke="#63b8ff" d="M271.14,-110.09C254.77,-101.87 230.34,-89.59 211.36,-80.06"/>
<polygon fill="#63b8ff" stroke="#63b8ff" points="213.05,-76.99 202.55,-75.63 209.91,-83.25 213.05,-76.99"/>
</a>
</g>
</g>
<!-- Node7 -->
<g id="Node000007" class="node">
<title>Node7</title>
<g id="a_Node000007"><a xlink:title=" ">
<polygon fill="#e0e0e0" stroke="#999999" points="298.12,-19.25 258.12,-19.25 258.12,0 298.12,0 298.12,-19.25"/>
<text text-anchor="middle" x="278.12" y="-5.75" font-family="Helvetica,sans-Serif" font-size="10.00">string</text>
</a>
</g>
</g>
<!-- Node2&#45;&gt;Node7 -->
<g id="edge10_Node000002_Node000007" class="edge">
<title>Node2&#45;&gt;Node7</title>
<g id="a_edge10_Node000002_Node000007"><a xlink:title=" ">
<path fill="none" stroke="#63b8ff" d="M288.22,-110.25C286.48,-93 282.58,-54.58 280.17,-30.81"/>
<polygon fill="#63b8ff" stroke="#63b8ff" points="283.68,-30.73 279.19,-21.13 276.72,-31.43 283.68,-30.73"/>
</a>
</g>
</g>
<!-- Node9 -->
<g id="Node000009" class="node">
<title>Node9</title>
<g id="a_Node000009"><a xlink:title=" ">
<polygon fill="#e0e0e0" stroke="#999999" points="359.62,-19.25 316.62,-19.25 316.62,0 359.62,0 359.62,-19.25"/>
<text text-anchor="middle" x="338.12" y="-5.75" font-family="Helvetica,sans-Serif" font-size="10.00">vector</text>
</a>
</g>
</g>
<!-- Node2&#45;&gt;Node9 -->
<g id="edge9_Node000002_Node000009" class="edge">
<title>Node2&#45;&gt;Node9</title>
<g id="a_edge9_Node000002_Node000009"><a xlink:title=" ">
<path fill="none" stroke="#63b8ff" d="M293.13,-110.25C301.03,-92.76 318.75,-53.52 329.45,-29.84"/>
<polygon fill="#63b8ff" stroke="#63b8ff" points="332.51,-31.56 333.44,-21.01 326.13,-28.68 332.51,-31.56"/>
</a>
</g>
</g>
<!-- Node10 -->
<g id="Node000010" class="node">
<title>Node10</title>
<g id="a_Node000010"><a xlink:title=" ">
<polygon fill="#e0e0e0" stroke="#999999" points="441,-74.5 355.25,-74.5 355.25,-55.25 441,-55.25 441,-74.5"/>
<text text-anchor="middle" x="398.12" y="-61" font-family="Helvetica,sans-Serif" font-size="10.00">yaml&#45;cpp/yaml.h</text>
</a>
</g>
</g>
<!-- Node2&#45;&gt;Node10 -->
<g id="edge11_Node000002_Node000010" class="edge">
<title>Node2&#45;&gt;Node10</title>
<g id="a_edge11_Node000002_Node000010"><a xlink:title=" ">
<path fill="none" stroke="#63b8ff" d="M307.62,-110.09C324.53,-101.83 349.81,-89.48 369.36,-79.93"/>
<polygon fill="#63b8ff" stroke="#63b8ff" points="370.74,-83.15 378.18,-75.62 367.66,-76.86 370.74,-83.15"/>
</a>
</g>
</g>
<!-- Node4 -->
<g id="Node000004" class="node">
<title>Node4</title>
<g id="a_Node000004"><a xlink:title=" ">
<polygon fill="#e0e0e0" stroke="#999999" points="176.75,-19.25 131.5,-19.25 131.5,0 176.75,0 176.75,-19.25"/>
<text text-anchor="middle" x="154.12" y="-5.75" font-family="Helvetica,sans-Serif" font-size="10.00">math.h</text>
</a>
</g>
</g>
<!-- Node3&#45;&gt;Node4 -->
<g id="edge3_Node000003_Node000004" class="edge">
<title>Node3&#45;&gt;Node4</title>
<g id="a_edge3_Node000003_Node000004"><a xlink:title=" ">
<path fill="none" stroke="#63b8ff" d="M178.34,-55.08C174.58,-48.19 169.22,-38.34 164.49,-29.66"/>
<polygon fill="#63b8ff" stroke="#63b8ff" points="167.6,-28.05 159.74,-20.94 161.45,-31.39 167.6,-28.05"/>
</a>
</g>
</g>
<!-- Node5 -->
<g id="Node000005" class="node">
<title>Node5</title>
<g id="a_Node000005"><a xlink:title=" ">
<polygon fill="#e0e0e0" stroke="#999999" points="239.75,-19.25 194.5,-19.25 194.5,0 239.75,0 239.75,-19.25"/>
<text text-anchor="middle" x="217.12" y="-5.75" font-family="Helvetica,sans-Serif" font-size="10.00">TFile.h</text>
</a>
</g>
</g>
<!-- Node3&#45;&gt;Node5 -->
<g id="edge4_Node000003_Node000005" class="edge">
<title>Node3&#45;&gt;Node5</title>
<g id="a_edge4_Node000003_Node000005"><a xlink:title=" ">
<path fill="none" stroke="#63b8ff" d="M188.74,-55.08C193.24,-48.03 199.71,-37.9 205.34,-29.08"/>
<polygon fill="#63b8ff" stroke="#63b8ff" points="208.14,-31.2 210.57,-20.88 202.24,-27.43 208.14,-31.2"/>
</a>
</g>
</g>
<!-- Node6 -->
<g id="Node000006" class="node">
<title>Node6</title>
<g id="a_Node000006"><a xlink:title=" ">
<polygon fill="#e0e0e0" stroke="#999999" points="42.25,-19.25 0,-19.25 0,0 42.25,0 42.25,-19.25"/>
<text text-anchor="middle" x="21.12" y="-5.75" font-family="Helvetica,sans-Serif" font-size="10.00">TH1.h</text>
</a>
</g>
</g>
<!-- Node3&#45;&gt;Node6 -->
<g id="edge5_Node000003_Node000006" class="edge">
<title>Node3&#45;&gt;Node6</title>
<g id="a_edge5_Node000003_Node000006"><a xlink:title=" ">
<path fill="none" stroke="#63b8ff" d="M155.64,-54.84C127.31,-45.53 83.15,-31.01 53.23,-21.18"/>
<polygon fill="#63b8ff" stroke="#63b8ff" points="54.55,-17.93 43.96,-18.13 52.36,-24.58 54.55,-17.93"/>
</a>
</g>
</g>
<!-- Node3&#45;&gt;Node7 -->
<g id="edge6_Node000003_Node000007" class="edge">
<title>Node3&#45;&gt;Node7</title>
<g id="a_edge6_Node000003_Node000007"><a xlink:title=" ">
<path fill="none" stroke="#63b8ff" d="M199.24,-54.84C213.71,-46.73 235.2,-34.68 252.11,-25.21"/>
<polygon fill="#63b8ff" stroke="#63b8ff" points="253.6,-28.39 260.61,-20.44 250.18,-22.28 253.6,-28.39"/>
</a>
</g>
</g>
<!-- Node8 -->
<g id="Node000008" class="node">
<title>Node8</title>
<g id="a_Node000008"><a xlink:title=" ">
<polygon fill="#e0e0e0" stroke="#999999" points="113.88,-19.25 60.38,-19.25 60.38,0 113.88,0 113.88,-19.25"/>
<text text-anchor="middle" x="87.12" y="-5.75" font-family="Helvetica,sans-Serif" font-size="10.00">iostream</text>
</a>
</g>
</g>
<!-- Node3&#45;&gt;Node8 -->
<g id="edge7_Node000003_Node000008" class="edge">
<title>Node3&#45;&gt;Node8</title>
<g id="a_edge7_Node000003_Node000008"><a xlink:title=" ">
<path fill="none" stroke="#63b8ff" d="M166.84,-54.84C152.22,-46.73 130.5,-34.68 113.42,-25.21"/>
<polygon fill="#63b8ff" stroke="#63b8ff" points="115.26,-22.23 104.81,-20.44 111.86,-28.35 115.26,-22.23"/>
</a>
</g>
</g>
<!-- Node3&#45;&gt;Node9 -->
<g id="edge8_Node000003_Node000009" class="edge">
<title>Node3&#45;&gt;Node9</title>
<g id="a_edge8_Node000003_Node000009"><a xlink:title=" ">
<path fill="none" stroke="#63b8ff" d="M209.42,-54.84C235.95,-45.73 276.98,-31.63 305.56,-21.81"/>
<polygon fill="#63b8ff" stroke="#63b8ff" points="306.47,-25.2 314.79,-18.64 304.19,-18.58 306.47,-25.2"/>
</a>
</g>
</g>
</g>
</svg>
</svg>

<style type='text/css'>
<![CDATA[
[data-mouse-over-selected='false'] { opacity: 0.7; }
[data-mouse-over-selected='true']  { opacity: 1.0; }
]]>
</style>
<script type="application/ecmascript"><![CDATA[
document.addEventListener('DOMContentLoaded', (event) => {
  highlightEdges();
  highlightAdjacentNodes();
});
]]></script>
</svg>
