<?xml version="1.0" encoding="UTF-8" standalone="no"?>
<!DOCTYPE svg PUBLIC "-//W3C//DTD SVG 1.1//EN"
 "http://www.w3.org/Graphics/SVG/1.1/DTD/svg11.dtd">
<!-- Generated by graphviz version 9.0.0 (20230911.1827)
 -->
<!-- Title: OscProbCalcer/OscProbCalcer_CUDAProb3Linear.cpp Pages: 1 -->
<svg width="519pt" height="260pt"
 viewBox="0.00 0.00 518.75 259.50" xmlns="http://www.w3.org/2000/svg" xmlns:xlink="http://www.w3.org/1999/xlink">
<g id="graph0" class="graph" transform="scale(1 1) rotate(0) translate(4 255.5)">
<title>OscProbCalcer/OscProbCalcer_CUDAProb3Linear.cpp</title>
<!-- Node1 -->
<g id="Node000001" class="node">
<title>Node1</title>
<g id="a_Node000001"><a xlink:title=" ">
<polygon fill="#999999" stroke="#666666" points="438.5,-251.5 287.5,-251.5 287.5,-221 438.5,-221 438.5,-251.5"/>
<text text-anchor="start" x="295.5" y="-238" font-family="Helvetica,sans-Serif" font-size="10.00">OscProbCalcer/OscProbCalcer</text>
<text text-anchor="middle" x="363" y="-226.75" font-family="Helvetica,sans-Serif" font-size="10.00">_CUDAProb3Linear.cpp</text>
</a>
</g>
</g>
<!-- Node2 -->
<g id="Node000002" class="node">
<title>Node2</title>
<g id="a_Node000002"><a xlink:href="OscProbCalcer__CUDAProb3Linear_8h.html" target="_top" xlink:title=" ">
<polygon fill="white" stroke="#666666" points="313.5,-185 138.5,-185 138.5,-165.75 313.5,-165.75 313.5,-185"/>
<text text-anchor="middle" x="226" y="-171.5" font-family="Helvetica,sans-Serif" font-size="10.00">OscProbCalcer_CUDAProb3Linear.h</text>
</a>
</g>
</g>
<!-- Node1&#45;&gt;Node2 -->
<g id="edge1_Node000001_Node000002" class="edge">
<title>Node1&#45;&gt;Node2</title>
<g id="a_edge1_Node000001_Node000002"><a xlink:title=" ">
<path fill="none" stroke="#63b8ff" d="M328.78,-220.55C306.92,-211.15 278.77,-199.05 257.46,-189.89"/>
<polygon fill="#63b8ff" stroke="#63b8ff" points="258.97,-186.73 248.4,-186 256.21,-193.17 258.97,-186.73"/>
</a>
</g>
</g>
<!-- Node9 -->
<g id="Node000009" class="node">
<title>Node9</title>
<g id="a_Node000009"><a xlink:title=" ">
<polygon fill="#e0e0e0" stroke="#999999" points="389.75,-19.25 336.25,-19.25 336.25,0 389.75,0 389.75,-19.25"/>
<text text-anchor="middle" x="363" y="-5.75" font-family="Helvetica,sans-Serif" font-size="10.00">iostream</text>
</a>
</g>
</g>
<!-- Node1&#45;&gt;Node9 -->
<g id="edge16_Node000001_Node000009" class="edge">
<title>Node1&#45;&gt;Node9</title>
<g id="a_edge16_Node000001_Node000009"><a xlink:title=" ">
<path fill="none" stroke="#63b8ff" d="M363,-220.51C363,-181.42 363,-75.08 363,-30.6"/>
<polygon fill="#63b8ff" stroke="#63b8ff" points="366.5,-30.88 363,-20.88 359.5,-30.88 366.5,-30.88"/>
</a>
</g>
</g>
<!-- Node13 -->
<g id="Node000013" class="node">
<title>Node13</title>
<g id="a_Node000013"><a xlink:title=" ">
<polygon fill="#e0e0e0" stroke="#999999" points="510.75,-185 391.25,-185 391.25,-165.75 510.75,-165.75 510.75,-185"/>
<text text-anchor="middle" x="451" y="-171.5" font-family="Helvetica,sans-Serif" font-size="10.00">beamcpupropagator.hpp</text>
</a>
</g>
</g>
<!-- Node1&#45;&gt;Node13 -->
<g id="edge15_Node000001_Node000013" class="edge">
<title>Node1&#45;&gt;Node13</title>
<g id="a_edge15_Node000001_Node000013"><a xlink:title=" ">
<path fill="none" stroke="#63b8ff" d="M384.75,-220.7C397.89,-211.9 414.63,-200.71 427.99,-191.77"/>
<polygon fill="#63b8ff" stroke="#63b8ff" points="429.81,-194.76 436.18,-186.29 425.92,-188.94 429.81,-194.76"/>
</a>
</g>
</g>
<!-- Node3 -->
<g id="Node000003" class="node">
<title>Node3</title>
<g id="a_Node000003"><a xlink:href="OscProbCalcerBase_8h.html" target="_top" xlink:title=" ">
<polygon fill="white" stroke="#666666" points="167,-129.75 55,-129.75 55,-110.5 167,-110.5 167,-129.75"/>
<text text-anchor="middle" x="111" y="-116.25" font-family="Helvetica,sans-Serif" font-size="10.00">OscProbCalcerBase.h</text>
</a>
</g>
</g>
<!-- Node2&#45;&gt;Node3 -->
<g id="edge2_Node000002_Node000003" class="edge">
<title>Node2&#45;&gt;Node3</title>
<g id="a_edge2_Node000002_Node000003"><a xlink:title=" ">
<path fill="none" stroke="#63b8ff" d="M206.49,-165.34C188.48,-157 161.48,-144.5 140.77,-134.91"/>
<polygon fill="#63b8ff" stroke="#63b8ff" points="142.52,-131.86 131.98,-130.84 139.58,-138.22 142.52,-131.86"/>
</a>
</g>
</g>
<!-- Node4 -->
<g id="Node000004" class="node">
<title>Node4</title>
<g id="a_Node000004"><a xlink:href="OscillatorConstants_8h.html" target="_top" xlink:title=" ">
<polygon fill="white" stroke="#666666" points="335.12,-74.5 178.88,-74.5 178.88,-55.25 335.12,-55.25 335.12,-74.5"/>
<text text-anchor="middle" x="257" y="-61" font-family="Helvetica,sans-Serif" font-size="10.00">Constants/OscillatorConstants.h</text>
</a>
</g>
</g>
<!-- Node2&#45;&gt;Node4 -->
<g id="edge13_Node000002_Node000004" class="edge">
<title>Node2&#45;&gt;Node4</title>
<g id="a_edge13_Node000002_Node000004"><a xlink:title=" ">
<path fill="none" stroke="#63b8ff" d="M230.22,-165.32C234.23,-156.43 240.2,-142.39 244,-129.75 248.35,-115.28 251.7,-98.53 253.91,-85.82"/>
<polygon fill="#63b8ff" stroke="#63b8ff" points="257.32,-86.61 255.49,-76.17 250.42,-85.48 257.32,-86.61"/>
</a>
</g>
</g>
<!-- Node12 -->
<g id="Node000012" class="node">
<title>Node12</title>
<g id="a_Node000012"><a xlink:title=" ">
<polygon fill="#e0e0e0" stroke="#999999" points="235.25,-129.75 184.75,-129.75 184.75,-110.5 235.25,-110.5 235.25,-129.75"/>
<text text-anchor="middle" x="210" y="-116.25" font-family="Helvetica,sans-Serif" font-size="10.00">memory</text>
</a>
</g>
</g>
<!-- Node2&#45;&gt;Node12 -->
<g id="edge14_Node000002_Node000012" class="edge">
<title>Node2&#45;&gt;Node12</title>
<g id="a_edge14_Node000002_Node000012"><a xlink:title=" ">
<path fill="none" stroke="#63b8ff" d="M223.36,-165.58C221.36,-158.92 218.52,-149.49 215.98,-141.03"/>
<polygon fill="#63b8ff" stroke="#63b8ff" points="219.36,-140.13 213.14,-131.56 212.66,-142.14 219.36,-140.13"/>
</a>
</g>
</g>
<!-- Node3&#45;&gt;Node4 -->
<g id="edge3_Node000003_Node000004" class="edge">
<title>Node3&#45;&gt;Node4</title>
<g id="a_edge3_Node000003_Node000004"><a xlink:title=" ">
<path fill="none" stroke="#63b8ff" d="M135.77,-110.09C159.26,-101.52 194.81,-88.56 221.35,-78.88"/>
<polygon fill="#63b8ff" stroke="#63b8ff" points="222.49,-82.19 230.69,-75.47 220.1,-75.61 222.49,-82.19"/>
</a>
</g>
</g>
<!-- Node8 -->
<g id="Node000008" class="node">
<title>Node8</title>
<g id="a_Node000008"><a xlink:title=" ">
<polygon fill="#e0e0e0" stroke="#999999" points="40,-19.25 0,-19.25 0,0 40,0 40,-19.25"/>
<text text-anchor="middle" x="20" y="-5.75" font-family="Helvetica,sans-Serif" font-size="10.00">string</text>
</a>
</g>
</g>
<!-- Node3&#45;&gt;Node8 -->
<g id="edge11_Node000003_Node000008" class="edge">
<title>Node3&#45;&gt;Node8</title>
<g id="a_edge11_Node000003_Node000008"><a xlink:title=" ">
<path fill="none" stroke="#63b8ff" d="M98.76,-110.09C87.82,-101.64 71.75,-88.29 60,-74.5 48.07,-60.5 37.17,-42.6 29.78,-29.32"/>
<polygon fill="#63b8ff" stroke="#63b8ff" points="32.99,-27.9 25.16,-20.76 26.83,-31.23 32.99,-27.9"/>
</a>
</g>
</g>
<!-- Node10 -->
<g id="Node000010" class="node">
<title>Node10</title>
<g id="a_Node000010"><a xlink:title=" ">
<polygon fill="#e0e0e0" stroke="#999999" points="121.5,-19.25 78.5,-19.25 78.5,0 121.5,0 121.5,-19.25"/>
<text text-anchor="middle" x="100" y="-5.75" font-family="Helvetica,sans-Serif" font-size="10.00">vector</text>
</a>
</g>
</g>
<!-- Node3&#45;&gt;Node10 -->
<g id="edge10_Node000003_Node000010" class="edge">
<title>Node3&#45;&gt;Node10</title>
<g id="a_edge10_Node000003_Node000010"><a xlink:title=" ">
<path fill="none" stroke="#63b8ff" d="M97.07,-110.03C86.32,-102.1 72.26,-89.53 66,-74.5 59.16,-58.08 70.29,-40.28 81.61,-27.65"/>
<polygon fill="#63b8ff" stroke="#63b8ff" points="84.07,-30.14 88.56,-20.54 79.07,-25.24 84.07,-30.14"/>
</a>
</g>
</g>
<!-- Node11 -->
<g id="Node000011" class="node">
<title>Node11</title>
<g id="a_Node000011"><a xlink:title=" ">
<polygon fill="#e0e0e0" stroke="#999999" points="160.88,-74.5 75.12,-74.5 75.12,-55.25 160.88,-55.25 160.88,-74.5"/>
<text text-anchor="middle" x="118" y="-61" font-family="Helvetica,sans-Serif" font-size="10.00">yaml&#45;cpp/yaml.h</text>
</a>
</g>
</g>
<!-- Node3&#45;&gt;Node11 -->
<g id="edge12_Node000003_Node000011" class="edge">
<title>Node3&#45;&gt;Node11</title>
<g id="a_edge12_Node000003_Node000011"><a xlink:title=" ">
<path fill="none" stroke="#63b8ff" d="M112.16,-110.33C113.02,-103.74 114.24,-94.46 115.34,-86.07"/>
<polygon fill="#63b8ff" stroke="#63b8ff" points="118.79,-86.73 116.62,-76.36 111.85,-85.82 118.79,-86.73"/>
</a>
</g>
</g>
<!-- Node5 -->
<g id="Node000005" class="node">
<title>Node5</title>
<g id="a_Node000005"><a xlink:title=" ">
<polygon fill="#e0e0e0" stroke="#999999" points="194.62,-19.25 149.38,-19.25 149.38,0 194.62,0 194.62,-19.25"/>
<text text-anchor="middle" x="172" y="-5.75" font-family="Helvetica,sans-Serif" font-size="10.00">math.h</text>
</a>
</g>
</g>
<!-- Node4&#45;&gt;Node5 -->
<g id="edge4_Node000004_Node000005" class="edge">
<title>Node4&#45;&gt;Node5</title>
<g id="a_edge4_Node000004_Node000005"><a xlink:title=" ">
<path fill="none" stroke="#63b8ff" d="M242.58,-54.84C229.88,-46.89 211.13,-35.14 196.14,-25.75"/>
<polygon fill="#63b8ff" stroke="#63b8ff" points="198.1,-22.85 187.77,-20.51 194.39,-28.78 198.1,-22.85"/>
</a>
</g>
</g>
<!-- Node6 -->
<g id="Node000006" class="node">
<title>Node6</title>
<g id="a_Node000006"><a xlink:title=" ">
<polygon fill="#e0e0e0" stroke="#999999" points="257.62,-19.25 212.38,-19.25 212.38,0 257.62,0 257.62,-19.25"/>
<text text-anchor="middle" x="235" y="-5.75" font-family="Helvetica,sans-Serif" font-size="10.00">TFile.h</text>
</a>
</g>
</g>
<!-- Node4&#45;&gt;Node6 -->
<g id="edge5_Node000004_Node000006" class="edge">
<title>Node4&#45;&gt;Node6</title>
<g id="a_edge5_Node000004_Node000006"><a xlink:title=" ">
<path fill="none" stroke="#63b8ff" d="M253.37,-55.08C250.58,-48.34 246.63,-38.77 243.1,-30.24"/>
<polygon fill="#63b8ff" stroke="#63b8ff" points="246.34,-28.91 239.29,-21.01 239.87,-31.59 246.34,-28.91"/>
</a>
</g>
</g>
<!-- Node7 -->
<g id="Node000007" class="node">
<title>Node7</title>
<g id="a_Node000007"><a xlink:title=" ">
<polygon fill="#e0e0e0" stroke="#999999" points="318.12,-19.25 275.88,-19.25 275.88,0 318.12,0 318.12,-19.25"/>
<text text-anchor="middle" x="297" y="-5.75" font-family="Helvetica,sans-Serif" font-size="10.00">TH1.h</text>
</a>
</g>
</g>
<!-- Node4&#45;&gt;Node7 -->
<g id="edge6_Node000004_Node000007" class="edge">
<title>Node4&#45;&gt;Node7</title>
<g id="a_edge6_Node000004_Node000007"><a xlink:title=" ">
<path fill="none" stroke="#63b8ff" d="M263.61,-55.08C268.96,-47.96 276.68,-37.68 283.35,-28.8"/>
<polygon fill="#63b8ff" stroke="#63b8ff" points="286.13,-30.92 289.34,-20.82 280.54,-26.71 286.13,-30.92"/>
</a>
</g>
</g>
<!-- Node4&#45;&gt;Node8 -->
<g id="edge7_Node000004_Node000008" class="edge">
<title>Node4&#45;&gt;Node8</title>
<g id="a_edge7_Node000004_Node000008"><a xlink:title=" ">
<path fill="none" stroke="#63b8ff" d="M216.53,-54.78C169.76,-44.27 93.8,-27.21 51.32,-17.66"/>
<polygon fill="#63b8ff" stroke="#63b8ff" points="52.27,-14.29 41.75,-15.51 50.74,-21.12 52.27,-14.29"/>
</a>
</g>
</g>
<!-- Node4&#45;&gt;Node9 -->
<g id="edge8_Node000004_Node000009" class="edge">
<title>Node4&#45;&gt;Node9</title>
<g id="a_edge8_Node000004_Node000009"><a xlink:title=" ">
<path fill="none" stroke="#63b8ff" d="M274.98,-54.84C291.35,-46.62 315.79,-34.34 334.76,-24.81"/>
<polygon fill="#63b8ff" stroke="#63b8ff" points="336.21,-28 343.58,-20.38 333.07,-21.74 336.21,-28"/>
</a>
</g>
</g>
<!-- Node4&#45;&gt;Node10 -->
<g id="edge9_Node000004_Node000010" class="edge">
<title>Node4&#45;&gt;Node10</title>
<g id="a_edge9_Node000004_Node000010"><a xlink:title=" ">
<path fill="none" stroke="#63b8ff" d="M230.37,-54.84C203.34,-45.67 161.45,-31.47 132.49,-21.64"/>
<polygon fill="#63b8ff" stroke="#63b8ff" points="133.73,-18.37 123.13,-18.47 131.48,-25 133.73,-18.37"/>
</a>
</g>
</g>
</g>
</svg>
