<?xml version="1.0" encoding="UTF-8" standalone="no"?>
<!DOCTYPE svg PUBLIC "-//W3C//DTD SVG 1.1//EN"
 "http://www.w3.org/Graphics/SVG/1.1/DTD/svg11.dtd">
<!-- Generated by graphviz version 9.0.0 (20230911.1827)
 -->
<!-- Title: Apps/SingleOscillator.cpp Pages: 1 -->
<!--zoomable 315 -->

<svg id="main" version="1.1" xmlns="http://www.w3.org/2000/svg" xmlns:xlink="http://www.w3.org/1999/xlink" xml:space="preserve" onload="init(evt)">
<style type="text/css"><![CDATA[
.node, .edge {opacity: 0.7;}
.node.selected, .edge.selected {opacity: 1;}
.edge:hover path { stroke: red; }
.edge:hover polygon { stroke: red; fill: red; }
]]></style>

<defs>
  <circle id="rim" cx="0" cy="0" r="7"/>
  <circle id="rim2" cx="0" cy="0" r="3.5"/>
  <g id="zoomPlus">
    <use xlink:href="#rim" fill="#404040"><set attributeName="fill" to="#808080" begin="zoomplus.mouseover" end="zoomplus.mouseout"/></use>
    <path d="M-4,0h8M0,-4v8" fill="none" stroke="white" stroke-width="1.5" pointer-events="none"/>
  </g>
  <g id="zoomMin">
    <use xlink:href="#rim" fill="#404040"><set attributeName="fill" to="#808080" begin="zoomminus.mouseover" end="zoomminus.mouseout"/></use>
    <path d="M-4,0h8" fill="none" stroke="white" stroke-width="1.5" pointer-events="none"/>
  </g>
  <g id="arrowUp" transform="translate(30 24)">
    <use xlink:href="#rim"/>
    <path pointer-events="none" fill="none" stroke="white" stroke-width="1.5" d="M0,-3.0v7 M-2.5,-0.5L0,-3.0L2.5,-0.5"/>
  </g>
  <g id="arrowRight" transform="rotate(90) translate(36 -43)">
    <use xlink:href="#rim"/>
    <path pointer-events="none" fill="none" stroke="white" stroke-width="1.5" d="M0,-3.0v7 M-2.5,-0.5L0,-3.0L2.5,-0.5"/>
  </g>
  <g id="arrowDown" transform="rotate(180) translate(-30 -48)">
    <use xlink:href="#rim"/>
    <path pointer-events="none" fill="none" stroke="white" stroke-width="1.5" d="M0,-3.0v7 M-2.5,-0.5L0,-3.0L2.5,-0.5"/>
  </g>
  <g id="arrowLeft" transform="rotate(270) translate(-36 17)">
    <use xlink:href="#rim"/>
    <path pointer-events="none" fill="none" stroke="white" stroke-width="1.5" d="M0,-3.0v7 M-2.5,-0.5L0,-3.0L2.5,-0.5"/>
  </g>
  <g id="resetDef">
    <use xlink:href="#rim2" fill="#404040"><set attributeName="fill" to="#808080" begin="reset.mouseover" end="reset.mouseout"/></use>
  </g>
</defs>
<script type="application/ecmascript">
var viewWidth = 722;
var viewHeight = 315;
var sectionId = 'dynsection-0';
</script>
<script type="application/ecmascript" xlink:href="svg.min.js"/>
<svg id="graph" class="graph">
<g id="viewport">
<title>Apps/SingleOscillator.cpp</title>
<!-- Node1 -->
<g id="Node000001" class="node">
<title>Node1</title>
<g id="a_Node000001"><a xlink:title=" ">
<polygon fill="#999999" stroke="#666666" points="493.88,-306.75 366.12,-306.75 366.12,-287.5 493.88,-287.5 493.88,-306.75"/>
<text text-anchor="middle" x="430" y="-293.25" font-family="Helvetica,sans-Serif" font-size="10.00">Apps/SingleOscillator.cpp</text>
</a>
</g>
</g>
<!-- Node2 -->
<g id="Node000002" class="node">
<title>Node2</title>
<g id="a_Node000002"><a xlink:href="OscillatorFactory_8h.html" target="_top" xlink:title=" ">
<polygon fill="white" stroke="#666666" points="250.62,-251.5 109.38,-251.5 109.38,-232.25 250.62,-232.25 250.62,-251.5"/>
<text text-anchor="middle" x="180" y="-238" font-family="Helvetica,sans-Serif" font-size="10.00">Oscillator/OscillatorFactory.h</text>
</a>
</g>
</g>
<!-- Node1&#45;&gt;Node2 -->
<g id="edge1_Node000001_Node000002" class="edge">
<title>Node1&#45;&gt;Node2</title>
<g id="a_edge1_Node000001_Node000002"><a xlink:title=" ">
<path fill="none" stroke="#63b8ff" d="M387.31,-287.03C344.88,-277.99 279.68,-264.11 233.75,-254.32"/>
<polygon fill="#63b8ff" stroke="#63b8ff" points="234.51,-250.91 224,-252.25 233.05,-257.75 234.51,-250.91"/>
</a>
</g>
</g>
<!-- Node5 -->
<g id="Node000005" class="node">
<title>Node5</title>
<g id="a_Node000005"><a xlink:href="OscillatorConstants_8h.html" target="_top" xlink:title=" ">
<polygon fill="white" stroke="#666666" points="364.12,-74.5 207.88,-74.5 207.88,-55.25 364.12,-55.25 364.12,-74.5"/>
<text text-anchor="middle" x="286" y="-61" font-family="Helvetica,sans-Serif" font-size="10.00">Constants/OscillatorConstants.h</text>
</a>
</g>
</g>
<!-- Node1&#45;&gt;Node5 -->
<g id="edge17_Node000001_Node000005" class="edge">
<title>Node1&#45;&gt;Node5</title>
<g id="a_edge17_Node000001_Node000005"><a xlink:title=" ">
<path fill="none" stroke="#63b8ff" d="M416.72,-287.08C405.35,-278.83 389.1,-265.78 378,-251.5 335.94,-197.4 305.52,-121 292.72,-85.47"/>
<polygon fill="#63b8ff" stroke="#63b8ff" points="296.06,-84.41 289.44,-76.14 289.45,-86.73 296.06,-84.41"/>
</a>
</g>
</g>
<!-- Node6 -->
<g id="Node000006" class="node">
<title>Node6</title>
<g id="a_Node000006"><a xlink:title=" ">
<polygon fill="#e0e0e0" stroke="#999999" points="68.62,-19.25 23.38,-19.25 23.38,0 68.62,0 68.62,-19.25"/>
<text text-anchor="middle" x="46" y="-5.75" font-family="Helvetica,sans-Serif" font-size="10.00">math.h</text>
</a>
</g>
</g>
<!-- Node1&#45;&gt;Node6 -->
<g id="edge23_Node000001_Node000006" class="edge">
<title>Node1&#45;&gt;Node6</title>
<g id="a_edge23_Node000001_Node000006"><a xlink:title=" ">
<path fill="none" stroke="#63b8ff" d="M366.09,-293.23C246.3,-286.05 0,-262.21 0,-187.62 0,-187.62 0,-187.62 0,-124.75 0,-88.93 19.73,-51.08 33.35,-29.22"/>
<polygon fill="#63b8ff" stroke="#63b8ff" points="36.26,-31.15 38.78,-20.86 30.4,-27.34 36.26,-31.15"/>
</a>
</g>
</g>
<!-- Node8 -->
<g id="Node000008" class="node">
<title>Node8</title>
<g id="a_Node000008"><a xlink:title=" ">
<polygon fill="#e0e0e0" stroke="#999999" points="377.12,-19.25 334.88,-19.25 334.88,0 377.12,0 377.12,-19.25"/>
<text text-anchor="middle" x="356" y="-5.75" font-family="Helvetica,sans-Serif" font-size="10.00">TH1.h</text>
</a>
</g>
</g>
<!-- Node1&#45;&gt;Node8 -->
<g id="edge20_Node000001_Node000008" class="edge">
<title>Node1&#45;&gt;Node8</title>
<g id="a_edge20_Node000001_Node000008"><a xlink:title=" ">
<path fill="none" stroke="#63b8ff" d="M424.56,-287.21C414.05,-269.13 392,-226.54 392,-187.62 392,-187.62 392,-187.62 392,-124.75 392,-89.9 376.54,-51.71 365.88,-29.53"/>
<polygon fill="#63b8ff" stroke="#63b8ff" points="369.14,-28.22 361.53,-20.85 362.88,-31.36 369.14,-28.22"/>
</a>
</g>
</g>
<!-- Node10 -->
<g id="Node000010" class="node">
<title>Node10</title>
<g id="a_Node000010"><a xlink:title=" ">
<polygon fill="#e0e0e0" stroke="#999999" points="452.75,-19.25 399.25,-19.25 399.25,0 452.75,0 452.75,-19.25"/>
<text text-anchor="middle" x="426" y="-5.75" font-family="Helvetica,sans-Serif" font-size="10.00">iostream</text>
</a>
</g>
</g>
<!-- Node1&#45;&gt;Node10 -->
<g id="edge22_Node000001_Node000010" class="edge">
<title>Node1&#45;&gt;Node10</title>
<g id="a_edge22_Node000001_Node000010"><a xlink:title=" ">
<path fill="none" stroke="#63b8ff" d="M430,-287.12C430,-268.53 430,-224.55 430,-187.62 430,-187.62 430,-187.62 430,-124.75 430,-91.78 428.31,-53.49 427.13,-30.7"/>
<polygon fill="#63b8ff" stroke="#63b8ff" points="430.64,-30.81 426.6,-21.01 423.65,-31.19 430.64,-30.81"/>
</a>
</g>
</g>
<!-- Node13 -->
<g id="Node000013" class="node">
<title>Node13</title>
<g id="a_Node000013"><a xlink:title=" ">
<polygon fill="#e0e0e0" stroke="#999999" points="509.62,-251.5 458.38,-251.5 458.38,-232.25 509.62,-232.25 509.62,-251.5"/>
<text text-anchor="middle" x="484" y="-238" font-family="Helvetica,sans-Serif" font-size="10.00">TStyle.h</text>
</a>
</g>
</g>
<!-- Node1&#45;&gt;Node13 -->
<g id="edge18_Node000001_Node000013" class="edge">
<title>Node1&#45;&gt;Node13</title>
<g id="a_edge18_Node000001_Node000013"><a xlink:title=" ">
<path fill="none" stroke="#63b8ff" d="M438.92,-287.33C446.45,-279.9 457.47,-269.04 466.73,-259.91"/>
<polygon fill="#63b8ff" stroke="#63b8ff" points="469.15,-262.44 473.81,-252.92 464.23,-257.45 469.15,-262.44"/>
</a>
</g>
</g>
<!-- Node14 -->
<g id="Node000014" class="node">
<title>Node14</title>
<g id="a_Node000014"><a xlink:title=" ">
<polygon fill="#e0e0e0" stroke="#999999" points="590.25,-251.5 527.75,-251.5 527.75,-232.25 590.25,-232.25 590.25,-251.5"/>
<text text-anchor="middle" x="559" y="-238" font-family="Helvetica,sans-Serif" font-size="10.00">TCanvas.h</text>
</a>
</g>
</g>
<!-- Node1&#45;&gt;Node14 -->
<g id="edge19_Node000001_Node000014" class="edge">
<title>Node1&#45;&gt;Node14</title>
<g id="a_edge19_Node000001_Node000014"><a xlink:title=" ">
<path fill="none" stroke="#63b8ff" d="M451.88,-287.09C472.36,-278.64 503.21,-265.9 526.56,-256.27"/>
<polygon fill="#63b8ff" stroke="#63b8ff" points="527.7,-259.58 535.61,-252.53 525.03,-253.11 527.7,-259.58"/>
</a>
</g>
</g>
<!-- Node15 -->
<g id="Node000015" class="node">
<title>Node15</title>
<g id="a_Node000015"><a xlink:title=" ">
<polygon fill="#e0e0e0" stroke="#999999" points="650.12,-251.5 607.88,-251.5 607.88,-232.25 650.12,-232.25 650.12,-251.5"/>
<text text-anchor="middle" x="629" y="-238" font-family="Helvetica,sans-Serif" font-size="10.00">TH2.h</text>
</a>
</g>
</g>
<!-- Node1&#45;&gt;Node15 -->
<g id="edge21_Node000001_Node000015" class="edge">
<title>Node1&#45;&gt;Node15</title>
<g id="a_edge21_Node000001_Node000015"><a xlink:title=" ">
<path fill="none" stroke="#63b8ff" d="M465.34,-287.03C497.3,-278.76 545.92,-266.04 596.56,-252.13"/>
<polygon fill="#63b8ff" stroke="#63b8ff" points="597.22,-255.58 605.93,-249.55 595.36,-248.83 597.22,-255.58"/>
</a>
</g>
</g>
<!-- Node16 -->
<g id="Node000016" class="node">
<title>Node16</title>
<g id="a_Node000016"><a xlink:title=" ">
<polygon fill="#e0e0e0" stroke="#999999" points="713.62,-251.5 668.38,-251.5 668.38,-232.25 713.62,-232.25 713.62,-251.5"/>
<text text-anchor="middle" x="691" y="-238" font-family="Helvetica,sans-Serif" font-size="10.00">chrono</text>
</a>
</g>
</g>
<!-- Node1&#45;&gt;Node16 -->
<g id="edge24_Node000001_Node000016" class="edge">
<title>Node1&#45;&gt;Node16</title>
<g id="a_edge24_Node000001_Node000016"><a xlink:title=" ">
<path fill="none" stroke="#63b8ff" d="M482.06,-287.06C526.17,-279.15 591.31,-266.88 657,-251.83"/>
<polygon fill="#63b8ff" stroke="#63b8ff" points="657.55,-255.3 666.5,-249.63 655.97,-248.48 657.55,-255.3"/>
</a>
</g>
</g>
<!-- Node3 -->
<g id="Node000003" class="node">
<title>Node3</title>
<g id="a_Node000003"><a xlink:href="OscillatorBase_8h.html" target="_top" xlink:title=" ">
<polygon fill="white" stroke="#666666" points="223.62,-196.25 136.38,-196.25 136.38,-177 223.62,-177 223.62,-196.25"/>
<text text-anchor="middle" x="180" y="-182.75" font-family="Helvetica,sans-Serif" font-size="10.00">OscillatorBase.h</text>
</a>
</g>
</g>
<!-- Node2&#45;&gt;Node3 -->
<g id="edge2_Node000002_Node000003" class="edge">
<title>Node2&#45;&gt;Node3</title>
<g id="a_edge2_Node000002_Node000003"><a xlink:title=" ">
<path fill="none" stroke="#63b8ff" d="M180,-232.08C180,-225.57 180,-216.42 180,-208.12"/>
<polygon fill="#63b8ff" stroke="#63b8ff" points="183.5,-208.12 180,-198.12 176.5,-208.12 183.5,-208.12"/>
</a>
</g>
</g>
<!-- Node12 -->
<g id="Node000012" class="node">
<title>Node12</title>
<g id="a_Node000012"><a xlink:title=" ">
<polygon fill="#e0e0e0" stroke="#999999" points="113.88,-74.5 28.12,-74.5 28.12,-55.25 113.88,-55.25 113.88,-74.5"/>
<text text-anchor="middle" x="71" y="-61" font-family="Helvetica,sans-Serif" font-size="10.00">yaml&#45;cpp/yaml.h</text>
</a>
</g>
</g>
<!-- Node2&#45;&gt;Node12 -->
<g id="edge16_Node000002_Node000012" class="edge">
<title>Node2&#45;&gt;Node12</title>
<g id="a_edge16_Node000002_Node000012"><a xlink:title=" ">
<path fill="none" stroke="#63b8ff" d="M164.47,-231.96C139.99,-216.9 93.3,-183.79 75,-141 67.54,-123.55 67.26,-101.7 68.41,-86.08"/>
<polygon fill="#63b8ff" stroke="#63b8ff" points="71.89,-86.46 69.44,-76.15 64.93,-85.74 71.89,-86.46"/>
</a>
</g>
</g>
<!-- Node4 -->
<g id="Node000004" class="node">
<title>Node4</title>
<g id="a_Node000004"><a xlink:href="OscProbCalcerBase_8h.html" target="_top" xlink:title=" ">
<polygon fill="white" stroke="#666666" points="255.5,-141 104.5,-141 104.5,-110.5 255.5,-110.5 255.5,-141"/>
<text text-anchor="start" x="112.5" y="-127.5" font-family="Helvetica,sans-Serif" font-size="10.00">OscProbCalcer/OscProbCalcer</text>
<text text-anchor="middle" x="180" y="-116.25" font-family="Helvetica,sans-Serif" font-size="10.00">Base.h</text>
</a>
</g>
</g>
<!-- Node3&#45;&gt;Node4 -->
<g id="edge3_Node000003_Node000004" class="edge">
<title>Node3&#45;&gt;Node4</title>
<g id="a_edge3_Node000003_Node000004"><a xlink:title=" ">
<path fill="none" stroke="#63b8ff" d="M180,-176.68C180,-170.23 180,-161.16 180,-152.51"/>
<polygon fill="#63b8ff" stroke="#63b8ff" points="183.5,-152.8 180,-142.8 176.5,-152.8 183.5,-152.8"/>
</a>
</g>
</g>
<!-- Node3&#45;&gt;Node5 -->
<g id="edge14_Node000003_Node000005" class="edge">
<title>Node3&#45;&gt;Node5</title>
<g id="a_edge14_Node000003_Node000005"><a xlink:title=" ">
<path fill="none" stroke="#63b8ff" d="M210.36,-176.56C228.66,-169.61 251.06,-158.24 265,-141 277.76,-125.22 282.77,-102.18 284.74,-85.79"/>
<polygon fill="#63b8ff" stroke="#63b8ff" points="288.19,-86.55 285.6,-76.28 281.22,-85.93 288.19,-86.55"/>
</a>
</g>
</g>
<!-- Node3&#45;&gt;Node12 -->
<g id="edge15_Node000003_Node000012" class="edge">
<title>Node3&#45;&gt;Node12</title>
<g id="a_edge15_Node000003_Node000012"><a xlink:title=" ">
<path fill="none" stroke="#63b8ff" d="M151.09,-176.55C132.97,-169.5 110.39,-158.02 96,-141 82.7,-125.27 76.41,-102.23 73.47,-85.81"/>
<polygon fill="#63b8ff" stroke="#63b8ff" points="76.99,-85.65 72.05,-76.28 70.07,-86.69 76.99,-85.65"/>
</a>
</g>
</g>
<!-- Node4&#45;&gt;Node5 -->
<g id="edge4_Node000004_Node000005" class="edge">
<title>Node4&#45;&gt;Node5</title>
<g id="a_edge4_Node000004_Node000005"><a xlink:title=" ">
<path fill="none" stroke="#63b8ff" d="M206.47,-110.05C222.77,-100.99 243.58,-89.44 259.82,-80.41"/>
<polygon fill="#63b8ff" stroke="#63b8ff" points="261.38,-83.55 268.42,-75.64 257.98,-77.43 261.38,-83.55"/>
</a>
</g>
</g>
<!-- Node9 -->
<g id="Node000009" class="node">
<title>Node9</title>
<g id="a_Node000009"><a xlink:title=" ">
<polygon fill="#e0e0e0" stroke="#999999" points="234,-19.25 194,-19.25 194,0 234,0 234,-19.25"/>
<text text-anchor="middle" x="214" y="-5.75" font-family="Helvetica,sans-Serif" font-size="10.00">string</text>
</a>
</g>
</g>
<!-- Node4&#45;&gt;Node9 -->
<g id="edge12_Node000004_Node000009" class="edge">
<title>Node4&#45;&gt;Node9</title>
<g id="a_edge12_Node000004_Node000009"><a xlink:title=" ">
<path fill="none" stroke="#63b8ff" d="M183.76,-110.04C187.43,-95.92 193.28,-74.04 199,-55.25 201.5,-47.04 204.47,-38.06 207.11,-30.32"/>
<polygon fill="#63b8ff" stroke="#63b8ff" points="210.41,-31.49 210.37,-20.9 203.79,-29.2 210.41,-31.49"/>
</a>
</g>
</g>
<!-- Node11 -->
<g id="Node000011" class="node">
<title>Node11</title>
<g id="a_Node000011"><a xlink:title=" ">
<polygon fill="#e0e0e0" stroke="#999999" points="169.5,-19.25 126.5,-19.25 126.5,0 169.5,0 169.5,-19.25"/>
<text text-anchor="middle" x="148" y="-5.75" font-family="Helvetica,sans-Serif" font-size="10.00">vector</text>
</a>
</g>
</g>
<!-- Node4&#45;&gt;Node11 -->
<g id="edge11_Node000004_Node000011" class="edge">
<title>Node4&#45;&gt;Node11</title>
<g id="a_edge11_Node000004_Node000011"><a xlink:title=" ">
<path fill="none" stroke="#63b8ff" d="M175.95,-110.3C170.3,-90.15 160.04,-53.56 153.64,-30.75"/>
<polygon fill="#63b8ff" stroke="#63b8ff" points="157.02,-29.84 150.95,-21.16 150.28,-31.73 157.02,-29.84"/>
</a>
</g>
</g>
<!-- Node4&#45;&gt;Node12 -->
<g id="edge13_Node000004_Node000012" class="edge">
<title>Node4&#45;&gt;Node12</title>
<g id="a_edge13_Node000004_Node000012"><a xlink:title=" ">
<path fill="none" stroke="#63b8ff" d="M152.78,-110.05C135.86,-100.91 114.21,-89.22 97.44,-80.16"/>
<polygon fill="#63b8ff" stroke="#63b8ff" points="99.51,-77.3 89.05,-75.62 96.18,-83.46 99.51,-77.3"/>
</a>
</g>
</g>
<!-- Node5&#45;&gt;Node6 -->
<g id="edge5_Node000005_Node000006" class="edge">
<title>Node5&#45;&gt;Node6</title>
<g id="a_edge5_Node000005_Node000006"><a xlink:title=" ">
<path fill="none" stroke="#63b8ff" d="M245.02,-54.78C198.54,-44.47 123.59,-27.84 80.15,-18.2"/>
<polygon fill="#63b8ff" stroke="#63b8ff" points="81.04,-14.81 70.52,-16.06 79.52,-21.65 81.04,-14.81"/>
</a>
</g>
</g>
<!-- Node7 -->
<g id="Node000007" class="node">
<title>Node7</title>
<g id="a_Node000007"><a xlink:title=" ">
<polygon fill="#e0e0e0" stroke="#999999" points="308.62,-19.25 263.38,-19.25 263.38,0 308.62,0 308.62,-19.25"/>
<text text-anchor="middle" x="286" y="-5.75" font-family="Helvetica,sans-Serif" font-size="10.00">TFile.h</text>
</a>
</g>
</g>
<!-- Node5&#45;&gt;Node7 -->
<g id="edge6_Node000005_Node000007" class="edge">
<title>Node5&#45;&gt;Node7</title>
<g id="a_edge6_Node000005_Node000007"><a xlink:title=" ">
<path fill="none" stroke="#63b8ff" d="M286,-55.08C286,-48.57 286,-39.42 286,-31.12"/>
<polygon fill="#63b8ff" stroke="#63b8ff" points="289.5,-31.12 286,-21.12 282.5,-31.12 289.5,-31.12"/>
</a>
</g>
</g>
<!-- Node5&#45;&gt;Node8 -->
<g id="edge7_Node000005_Node000008" class="edge">
<title>Node5&#45;&gt;Node8</title>
<g id="a_edge7_Node000005_Node000008"><a xlink:title=" ">
<path fill="none" stroke="#63b8ff" d="M297.87,-54.84C308.09,-47.07 323.07,-35.67 335.26,-26.4"/>
<polygon fill="#63b8ff" stroke="#63b8ff" points="337.26,-29.28 343.1,-20.44 333.02,-23.71 337.26,-29.28"/>
</a>
</g>
</g>
<!-- Node5&#45;&gt;Node9 -->
<g id="edge8_Node000005_Node000009" class="edge">
<title>Node5&#45;&gt;Node9</title>
<g id="a_edge8_Node000005_Node000009"><a xlink:title=" ">
<path fill="none" stroke="#63b8ff" d="M273.79,-54.84C263.17,-46.99 247.56,-35.45 234.96,-26.12"/>
<polygon fill="#63b8ff" stroke="#63b8ff" points="237.37,-23.56 227.25,-20.42 233.21,-29.19 237.37,-23.56"/>
</a>
</g>
</g>
<!-- Node5&#45;&gt;Node10 -->
<g id="edge9_Node000005_Node000010" class="edge">
<title>Node5&#45;&gt;Node10</title>
<g id="a_edge9_Node000005_Node000010"><a xlink:title=" ">
<path fill="none" stroke="#63b8ff" d="M309.75,-54.84C332.17,-46.31 366.06,-33.42 391.47,-23.76"/>
<polygon fill="#63b8ff" stroke="#63b8ff" points="392.62,-27.07 400.72,-20.24 390.13,-20.52 392.62,-27.07"/>
</a>
</g>
</g>
<!-- Node5&#45;&gt;Node11 -->
<g id="edge10_Node000005_Node000011" class="edge">
<title>Node5&#45;&gt;Node11</title>
<g id="a_edge10_Node000005_Node000011"><a xlink:title=" ">
<path fill="none" stroke="#63b8ff" d="M262.59,-54.84C239.95,-46.11 205.45,-32.79 180.23,-23.06"/>
<polygon fill="#63b8ff" stroke="#63b8ff" points="181.7,-19.88 171.11,-19.54 179.18,-26.41 181.7,-19.88"/>
</a>
</g>
</g>
</g>
</svg>

<g id="navigator" transform="translate(0 0)" fill="#404254">
  <rect fill="#f2f5e9" fill-opacity="0.5" stroke="#606060" stroke-width=".5" x="0" y="0" width="60" height="60"/>
  <use id="zoomplus" xlink:href="#zoomPlus" x="17" y="9" onmousedown="handleZoom(evt,'in')"/>
  <use id="zoomminus" xlink:href="#zoomMin" x="42" y="9" onmousedown="handleZoom(evt,'out')"/>
  <use id="reset" xlink:href="#resetDef" x="30" y="36" onmousedown="handleReset()"/>
   <use id="arrowup" xlink:href="#arrowUp" x="0" y="0" onmousedown="handlePan(0,-1)"/>
  <use id="arrowright" xlink:href="#arrowRight" x="0" y="0" onmousedown="handlePan(1,0)"/>
  <use id="arrowdown" xlink:href="#arrowDown" x="0" y="0" onmousedown="handlePan(0,1)"/>
  <use id="arrowleft" xlink:href="#arrowLeft" x="0" y="0" onmousedown="handlePan(-1,0)"/>
</g>
<svg viewBox="0 0 15 15" width="100%" height="30px" preserveAspectRatio="xMaxYMin meet">
 <g id="arrow_out" transform="scale(0.3 0.3)">
  <a xlink:href="SingleOscillator_8cpp__incl_org.svg" target="_base">
   <rect id="button" ry="5" rx="5" y="6" x="6" height="38" width="38"
        fill="#f2f5e9" fill-opacity="0.5" stroke="#606060" stroke-width="1.0"/>
   <path id="arrow"
     d="M 11.500037,31.436501 C 11.940474,20.09759 22.043105,11.32322 32.158766,21.979434 L 37.068811,17.246167 C 37.068811,17.246167 37.088388,32 37.088388,32 L 22.160133,31.978069 C 22.160133,31.978069 26.997745,27.140456 26.997745,27.140456 C 18.528582,18.264221 13.291696,25.230495 11.500037,31.436501 z"
     style="fill:#404040;"/>
  </a>
 </g>
</svg>

<style type='text/css'>
<![CDATA[
[data-mouse-over-selected='false'] { opacity: 0.7; }
[data-mouse-over-selected='true']  { opacity: 1.0; }
]]>
</style>
<script type="application/ecmascript"><![CDATA[
document.addEventListener('DOMContentLoaded', (event) => {
  highlightEdges();
  highlightAdjacentNodes();
});
]]></script>
</svg>
