<?xml version="1.0" encoding="UTF-8" standalone="no"?>
<!DOCTYPE svg PUBLIC "-//W3C//DTD SVG 1.1//EN"
 "http://www.w3.org/Graphics/SVG/1.1/DTD/svg11.dtd">
<!-- Generated by graphviz version 9.0.0 (20230911.1827)
 -->
<!-- Title: Apps/SingleOscProbCalcer.cpp Pages: 1 -->
<svg width="472pt" height="271pt"
 viewBox="0.00 0.00 472.12 270.75" xmlns="http://www.w3.org/2000/svg" xmlns:xlink="http://www.w3.org/1999/xlink">

<svg id="main" version="1.1" xmlns="http://www.w3.org/2000/svg" xmlns:xlink="http://www.w3.org/1999/xlink" xml:space="preserve" onload="init(evt)">
<style type="text/css"><![CDATA[
.node, .edge {opacity: 0.7;}
.node.selected, .edge.selected {opacity: 1;}
.edge:hover path { stroke: red; }
.edge:hover polygon { stroke: red; fill: red; }
]]></style>
<script type="application/ecmascript" xlink:href="svg.min.js"/>
<svg id="graph" class="graph">
<g id="graph0" class="graph" transform="scale(1 1) rotate(0) translate(4 266.75)">
<title>Apps/SingleOscProbCalcer.cpp</title>
<!-- Node1 -->
<g id="Node000001" class="node">
<title>Node1</title>
<g id="a_Node000001"><a xlink:title=" ">
<polygon fill="#999999" stroke="#666666" points="265.88,-262.75 113.38,-262.75 113.38,-243.5 265.88,-243.5 265.88,-262.75"/>
<text text-anchor="middle" x="189.62" y="-249.25" font-family="Helvetica,sans-Serif" font-size="10.00">Apps/SingleOscProbCalcer.cpp</text>
</a>
</g>
</g>
<!-- Node2 -->
<g id="Node000002" class="node">
<title>Node2</title>
<g id="a_Node000002"><a xlink:href="OscillatorConstants_8h.html" target="_top" xlink:title=" ">
<polygon fill="white" stroke="#666666" points="284.75,-74.5 128.5,-74.5 128.5,-55.25 284.75,-55.25 284.75,-74.5"/>
<text text-anchor="middle" x="206.62" y="-61" font-family="Helvetica,sans-Serif" font-size="10.00">Constants/OscillatorConstants.h</text>
</a>
</g>
</g>
<!-- Node1&#45;&gt;Node2 -->
<g id="edge1_Node000001_Node000002" class="edge">
<title>Node1&#45;&gt;Node2</title>
<g id="a_edge1_Node000001_Node000002"><a xlink:title=" ">
<path fill="none" stroke="#63b8ff" d="M190.44,-243.14C193.04,-214.75 201.1,-126.44 204.77,-86.21"/>
<polygon fill="#63b8ff" stroke="#63b8ff" points="208.25,-86.55 205.68,-76.28 201.28,-85.92 208.25,-86.55"/>
</a>
</g>
</g>
<!-- Node3 -->
<g id="Node000003" class="node">
<title>Node3</title>
<g id="a_Node000003"><a xlink:title=" ">
<polygon fill="#e0e0e0" stroke="#999999" points="45.25,-19.25 0,-19.25 0,0 45.25,0 45.25,-19.25"/>
<text text-anchor="middle" x="22.62" y="-5.75" font-family="Helvetica,sans-Serif" font-size="10.00">math.h</text>
</a>
</g>
</g>
<!-- Node1&#45;&gt;Node3 -->
<g id="edge17_Node000001_Node000003" class="edge">
<title>Node1&#45;&gt;Node3</title>
<g id="a_edge17_Node000001_Node000003"><a xlink:title=" ">
<path fill="none" stroke="#63b8ff" d="M182.18,-243.05C174.95,-234.14 163.76,-220.09 154.62,-207.5 107.96,-143.21 56.62,-63.94 34.19,-28.83"/>
<polygon fill="#63b8ff" stroke="#63b8ff" points="37.33,-27.25 29,-20.7 31.42,-31.01 37.33,-27.25"/>
</a>
</g>
</g>
<!-- Node8 -->
<g id="Node000008" class="node">
<title>Node8</title>
<g id="a_Node000008"><a xlink:title=" ">
<polygon fill="#e0e0e0" stroke="#999999" points="116.38,-19.25 62.88,-19.25 62.88,0 116.38,0 116.38,-19.25"/>
<text text-anchor="middle" x="89.62" y="-5.75" font-family="Helvetica,sans-Serif" font-size="10.00">iostream</text>
</a>
</g>
</g>
<!-- Node1&#45;&gt;Node8 -->
<g id="edge16_Node000001_Node000008" class="edge">
<title>Node1&#45;&gt;Node8</title>
<g id="a_edge16_Node000001_Node000008"><a xlink:title=" ">
<path fill="none" stroke="#63b8ff" d="M185.95,-243.24C171.46,-208.26 118.14,-79.48 97.68,-30.09"/>
<polygon fill="#63b8ff" stroke="#63b8ff" points="100.97,-28.89 93.92,-20.99 94.51,-31.56 100.97,-28.89"/>
</a>
</g>
</g>
<!-- Node10 -->
<g id="Node000010" class="node">
<title>Node10</title>
<g id="a_Node000010"><a xlink:href="OscProbCalcerBase_8h.html" target="_top" xlink:title=" ">
<polygon fill="white" stroke="#666666" points="388.12,-141 237.12,-141 237.12,-110.5 388.12,-110.5 388.12,-141"/>
<text text-anchor="start" x="245.12" y="-127.5" font-family="Helvetica,sans-Serif" font-size="10.00">OscProbCalcer/OscProbCalcer</text>
<text text-anchor="middle" x="312.62" y="-116.25" font-family="Helvetica,sans-Serif" font-size="10.00">Base.h</text>
</a>
</g>
</g>
<!-- Node1&#45;&gt;Node10 -->
<g id="edge9_Node000001_Node000010" class="edge">
<title>Node1&#45;&gt;Node10</title>
<g id="a_edge9_Node000001_Node000010"><a xlink:title=" ">
<path fill="none" stroke="#63b8ff" d="M192.41,-243.3C197.53,-228.2 209.69,-197.12 228.62,-177 239.97,-164.95 254.83,-154.8 268.9,-146.84"/>
<polygon fill="#63b8ff" stroke="#63b8ff" points="270.46,-149.98 277.61,-142.16 267.14,-143.82 270.46,-149.98"/>
</a>
</g>
</g>
<!-- Node11 -->
<g id="Node000011" class="node">
<title>Node11</title>
<g id="a_Node000011"><a xlink:href="OscProbCalcerFactory_8h.html" target="_top" xlink:title=" ">
<polygon fill="white" stroke="#666666" points="388.12,-207.5 237.12,-207.5 237.12,-177 388.12,-177 388.12,-207.5"/>
<text text-anchor="start" x="245.12" y="-194" font-family="Helvetica,sans-Serif" font-size="10.00">OscProbCalcer/OscProbCalcer</text>
<text text-anchor="middle" x="312.62" y="-182.75" font-family="Helvetica,sans-Serif" font-size="10.00">Factory.h</text>
</a>
</g>
</g>
<!-- Node1&#45;&gt;Node11 -->
<g id="edge14_Node000001_Node000011" class="edge">
<title>Node1&#45;&gt;Node11</title>
<g id="a_edge14_Node000001_Node000011"><a xlink:title=" ">
<path fill="none" stroke="#63b8ff" d="M208.57,-243.05C225.37,-235.02 250.47,-223 271.8,-212.79"/>
<polygon fill="#63b8ff" stroke="#63b8ff" points="273.05,-216.07 280.56,-208.6 270.03,-209.76 273.05,-216.07"/>
</a>
</g>
</g>
<!-- Node12 -->
<g id="Node000012" class="node">
<title>Node12</title>
<g id="a_Node000012"><a xlink:title=" ">
<polygon fill="#e0e0e0" stroke="#999999" points="451.25,-201.88 406,-201.88 406,-182.62 451.25,-182.62 451.25,-201.88"/>
<text text-anchor="middle" x="428.62" y="-188.38" font-family="Helvetica,sans-Serif" font-size="10.00">chrono</text>
</a>
</g>
</g>
<!-- Node1&#45;&gt;Node12 -->
<g id="edge18_Node000001_Node000012" class="edge">
<title>Node1&#45;&gt;Node12</title>
<g id="a_edge18_Node000001_Node000012"><a xlink:title=" ">
<path fill="none" stroke="#63b8ff" d="M248.37,-243.07C290.54,-235.72 348.39,-223.88 397.62,-207.5 398.43,-207.23 399.23,-206.95 400.05,-206.66"/>
<polygon fill="#63b8ff" stroke="#63b8ff" points="401.2,-209.97 409.13,-202.94 398.55,-203.49 401.2,-209.97"/>
</a>
</g>
</g>
<!-- Node2&#45;&gt;Node3 -->
<g id="edge2_Node000002_Node000003" class="edge">
<title>Node2&#45;&gt;Node3</title>
<g id="a_edge2_Node000002_Node000003"><a xlink:title=" ">
<path fill="none" stroke="#63b8ff" d="M175.41,-54.84C142.34,-45.27 90.3,-30.21 56.32,-20.38"/>
<polygon fill="#63b8ff" stroke="#63b8ff" points="57.57,-17.1 46.99,-17.68 55.63,-23.82 57.57,-17.1"/>
</a>
</g>
</g>
<!-- Node4 -->
<g id="Node000004" class="node">
<title>Node4</title>
<g id="a_Node000004"><a xlink:title=" ">
<polygon fill="#e0e0e0" stroke="#999999" points="344.5,-19.25 258.75,-19.25 258.75,0 344.5,0 344.5,-19.25"/>
<text text-anchor="middle" x="301.62" y="-5.75" font-family="Helvetica,sans-Serif" font-size="10.00">yaml&#45;cpp/yaml.h</text>
</a>
</g>
</g>
<!-- Node2&#45;&gt;Node4 -->
<g id="edge3_Node000002_Node000004" class="edge">
<title>Node2&#45;&gt;Node4</title>
<g id="a_edge3_Node000002_Node000004"><a xlink:title=" ">
<path fill="none" stroke="#63b8ff" d="M222.74,-54.84C237.21,-46.73 258.7,-34.68 275.61,-25.21"/>
<polygon fill="#63b8ff" stroke="#63b8ff" points="277.1,-28.39 284.11,-20.44 273.68,-22.28 277.1,-28.39"/>
</a>
</g>
</g>
<!-- Node5 -->
<g id="Node000005" class="node">
<title>Node5</title>
<g id="a_Node000005"><a xlink:title=" ">
<polygon fill="#e0e0e0" stroke="#999999" points="240.25,-19.25 195,-19.25 195,0 240.25,0 240.25,-19.25"/>
<text text-anchor="middle" x="217.62" y="-5.75" font-family="Helvetica,sans-Serif" font-size="10.00">TFile.h</text>
</a>
</g>
</g>
<!-- Node2&#45;&gt;Node5 -->
<g id="edge4_Node000002_Node000005" class="edge">
<title>Node2&#45;&gt;Node5</title>
<g id="a_edge4_Node000002_Node000005"><a xlink:title=" ">
<path fill="none" stroke="#63b8ff" d="M208.44,-55.08C209.8,-48.49 211.72,-39.21 213.45,-30.82"/>
<polygon fill="#63b8ff" stroke="#63b8ff" points="216.87,-31.59 215.46,-21.09 210.01,-30.18 216.87,-31.59"/>
</a>
</g>
</g>
<!-- Node6 -->
<g id="Node000006" class="node">
<title>Node6</title>
<g id="a_Node000006"><a xlink:title=" ">
<polygon fill="#e0e0e0" stroke="#999999" points="176.75,-19.25 134.5,-19.25 134.5,0 176.75,0 176.75,-19.25"/>
<text text-anchor="middle" x="155.62" y="-5.75" font-family="Helvetica,sans-Serif" font-size="10.00">TH1.h</text>
</a>
</g>
</g>
<!-- Node2&#45;&gt;Node6 -->
<g id="edge5_Node000002_Node000006" class="edge">
<title>Node2&#45;&gt;Node6</title>
<g id="a_edge5_Node000002_Node000006"><a xlink:title=" ">
<path fill="none" stroke="#63b8ff" d="M198.2,-55.08C191.09,-47.65 180.68,-36.79 171.94,-27.66"/>
<polygon fill="#63b8ff" stroke="#63b8ff" points="174.72,-25.5 165.28,-20.7 169.67,-30.35 174.72,-25.5"/>
</a>
</g>
</g>
<!-- Node7 -->
<g id="Node000007" class="node">
<title>Node7</title>
<g id="a_Node000007"><a xlink:title=" ">
<polygon fill="#e0e0e0" stroke="#999999" points="402.62,-19.25 362.62,-19.25 362.62,0 402.62,0 402.62,-19.25"/>
<text text-anchor="middle" x="382.62" y="-5.75" font-family="Helvetica,sans-Serif" font-size="10.00">string</text>
</a>
</g>
</g>
<!-- Node2&#45;&gt;Node7 -->
<g id="edge6_Node000002_Node000007" class="edge">
<title>Node2&#45;&gt;Node7</title>
<g id="a_edge6_Node000002_Node000007"><a xlink:title=" ">
<path fill="none" stroke="#63b8ff" d="M236.48,-54.84C268.5,-45.15 319.12,-29.84 351.59,-20.02"/>
<polygon fill="#63b8ff" stroke="#63b8ff" points="352.25,-23.47 360.81,-17.23 350.22,-16.77 352.25,-23.47"/>
</a>
</g>
</g>
<!-- Node2&#45;&gt;Node8 -->
<g id="edge7_Node000002_Node000008" class="edge">
<title>Node2&#45;&gt;Node8</title>
<g id="a_edge7_Node000002_Node000008"><a xlink:title=" ">
<path fill="none" stroke="#63b8ff" d="M186.78,-54.84C168.46,-46.5 140.98,-34 119.92,-24.41"/>
<polygon fill="#63b8ff" stroke="#63b8ff" points="121.5,-21.29 110.95,-20.33 118.6,-27.66 121.5,-21.29"/>
</a>
</g>
</g>
<!-- Node9 -->
<g id="Node000009" class="node">
<title>Node9</title>
<g id="a_Node000009"><a xlink:title=" ">
<polygon fill="#e0e0e0" stroke="#999999" points="464.12,-19.25 421.12,-19.25 421.12,0 464.12,0 464.12,-19.25"/>
<text text-anchor="middle" x="442.62" y="-5.75" font-family="Helvetica,sans-Serif" font-size="10.00">vector</text>
</a>
</g>
</g>
<!-- Node2&#45;&gt;Node9 -->
<g id="edge8_Node000002_Node000009" class="edge">
<title>Node2&#45;&gt;Node9</title>
<g id="a_edge8_Node000002_Node000009"><a xlink:title=" ">
<path fill="none" stroke="#63b8ff" d="M251.99,-54.77C291.28,-46.72 349.89,-34.29 409.84,-19.58"/>
<polygon fill="#63b8ff" stroke="#63b8ff" points="410.31,-23.07 419.18,-17.27 408.63,-16.27 410.31,-23.07"/>
</a>
</g>
</g>
<!-- Node10&#45;&gt;Node2 -->
<g id="edge10_Node000010_Node000002" class="edge">
<title>Node10&#45;&gt;Node2</title>
<g id="a_edge10_Node000010_Node000002"><a xlink:title=" ">
<path fill="none" stroke="#63b8ff" d="M286.15,-110.05C269.85,-100.99 249.05,-89.44 232.8,-80.41"/>
<polygon fill="#63b8ff" stroke="#63b8ff" points="234.65,-77.43 224.2,-75.64 231.25,-83.55 234.65,-77.43"/>
</a>
</g>
</g>
<!-- Node10&#45;&gt;Node4 -->
<g id="edge13_Node000010_Node000004" class="edge">
<title>Node10&#45;&gt;Node4</title>
<g id="a_edge13_Node000010_Node000004"><a xlink:title=" ">
<path fill="none" stroke="#63b8ff" d="M311.23,-110.3C309.3,-90.25 305.8,-53.9 303.6,-31.07"/>
<polygon fill="#63b8ff" stroke="#63b8ff" points="307.09,-30.82 302.64,-21.2 300.12,-31.49 307.09,-30.82"/>
</a>
</g>
</g>
<!-- Node10&#45;&gt;Node7 -->
<g id="edge12_Node000010_Node000007" class="edge">
<title>Node10&#45;&gt;Node7</title>
<g id="a_edge12_Node000010_Node000007"><a xlink:title=" ">
<path fill="none" stroke="#63b8ff" d="M321.49,-110.3C334.07,-89.78 357.13,-52.2 371.05,-29.5"/>
<polygon fill="#63b8ff" stroke="#63b8ff" points="374.02,-31.34 376.27,-20.99 368.06,-27.68 374.02,-31.34"/>
</a>
</g>
</g>
<!-- Node10&#45;&gt;Node9 -->
<g id="edge11_Node000010_Node000009" class="edge">
<title>Node10&#45;&gt;Node9</title>
<g id="a_edge11_Node000010_Node000009"><a xlink:title=" ">
<path fill="none" stroke="#63b8ff" d="M329.35,-110.06C353.66,-88.72 398.6,-49.27 423.96,-27.01"/>
<polygon fill="#63b8ff" stroke="#63b8ff" points="426,-29.88 431.2,-20.65 421.38,-24.62 426,-29.88"/>
</a>
</g>
</g>
<!-- Node11&#45;&gt;Node10 -->
<g id="edge15_Node000011_Node000010" class="edge">
<title>Node11&#45;&gt;Node10</title>
<g id="a_edge15_Node000011_Node000010"><a xlink:title=" ">
<path fill="none" stroke="#63b8ff" d="M312.62,-176.61C312.62,-169.52 312.62,-160.79 312.62,-152.63"/>
<polygon fill="#63b8ff" stroke="#63b8ff" points="316.13,-152.84 312.63,-142.84 309.13,-152.84 316.13,-152.84"/>
</a>
</g>
</g>
</g>
</svg>
</svg>

<style type='text/css'>
<![CDATA[
[data-mouse-over-selected='false'] { opacity: 0.7; }
[data-mouse-over-selected='true']  { opacity: 1.0; }
]]>
</style>
<script type="application/ecmascript"><![CDATA[
document.addEventListener('DOMContentLoaded', (event) => {
  highlightEdges();
  highlightAdjacentNodes();
});
]]></script>
</svg>
