<?xml version="1.0" encoding="UTF-8" standalone="no"?>
<!DOCTYPE svg PUBLIC "-//W3C//DTD SVG 1.1//EN"
 "http://www.w3.org/Graphics/SVG/1.1/DTD/svg11.dtd">
<!-- Generated by graphviz version 9.0.0 (20230911.1827)
 -->
<!-- Title: Apps/SingleOscProbCalcer.cpp Pages: 1 -->
<svg width="493pt" height="271pt"
 viewBox="0.00 0.00 493.25 270.75" xmlns="http://www.w3.org/2000/svg" xmlns:xlink="http://www.w3.org/1999/xlink">
<g id="graph0" class="graph" transform="scale(1 1) rotate(0) translate(4 266.75)">
<title>Apps/SingleOscProbCalcer.cpp</title>
<!-- Node1 -->
<g id="Node000001" class="node">
<title>Node1</title>
<g id="a_Node000001"><a xlink:title=" ">
<polygon fill="#999999" stroke="#666666" points="311.88,-262.75 159.38,-262.75 159.38,-243.5 311.88,-243.5 311.88,-262.75"/>
<text text-anchor="middle" x="235.62" y="-249.25" font-family="Helvetica,sans-Serif" font-size="10.00">Apps/SingleOscProbCalcer.cpp</text>
</a>
</g>
</g>
<!-- Node2 -->
<g id="Node000002" class="node">
<title>Node2</title>
<g id="a_Node000002"><a xlink:href="OscillatorConstants_8h.html" target="_top" xlink:title=" ">
<polygon fill="white" stroke="#666666" points="203.75,-74.5 47.5,-74.5 47.5,-55.25 203.75,-55.25 203.75,-74.5"/>
<text text-anchor="middle" x="125.62" y="-61" font-family="Helvetica,sans-Serif" font-size="10.00">Constants/OscillatorConstants.h</text>
</a>
</g>
</g>
<!-- Node1&#45;&gt;Node2 -->
<g id="edge1_Node000001_Node000002" class="edge">
<title>Node1&#45;&gt;Node2</title>
<g id="a_edge1_Node000001_Node000002"><a xlink:title=" ">
<path fill="none" stroke="#63b8ff" d="M226.25,-243.17C217.59,-234.57 204.72,-220.94 195.62,-207.5 168.05,-166.76 144.75,-113.58 133.27,-85.39"/>
<polygon fill="#63b8ff" stroke="#63b8ff" points="136.62,-84.35 129.66,-76.36 130.12,-86.94 136.62,-84.35"/>
</a>
</g>
</g>
<!-- Node3 -->
<g id="Node000003" class="node">
<title>Node3</title>
<g id="a_Node000003"><a xlink:title=" ">
<polygon fill="#e0e0e0" stroke="#999999" points="45.25,-19.25 0,-19.25 0,0 45.25,0 45.25,-19.25"/>
<text text-anchor="middle" x="22.62" y="-5.75" font-family="Helvetica,sans-Serif" font-size="10.00">math.h</text>
</a>
</g>
</g>
<!-- Node1&#45;&gt;Node3 -->
<g id="edge16_Node000001_Node000003" class="edge">
<title>Node1&#45;&gt;Node3</title>
<g id="a_edge16_Node000001_Node000003"><a xlink:title=" ">
<path fill="none" stroke="#63b8ff" d="M220.05,-243.03C182.24,-220.08 85.27,-155.78 38.62,-74.5 30.86,-60.97 26.83,-43.73 24.76,-30.57"/>
<polygon fill="#63b8ff" stroke="#63b8ff" points="28.27,-30.42 23.51,-20.95 21.33,-31.32 28.27,-30.42"/>
</a>
</g>
</g>
<!-- Node7 -->
<g id="Node000007" class="node">
<title>Node7</title>
<g id="a_Node000007"><a xlink:title=" ">
<polygon fill="#e0e0e0" stroke="#999999" points="399.38,-19.25 345.88,-19.25 345.88,0 399.38,0 399.38,-19.25"/>
<text text-anchor="middle" x="372.62" y="-5.75" font-family="Helvetica,sans-Serif" font-size="10.00">iostream</text>
</a>
</g>
</g>
<!-- Node1&#45;&gt;Node7 -->
<g id="edge15_Node000001_Node000007" class="edge">
<title>Node1&#45;&gt;Node7</title>
<g id="a_edge15_Node000001_Node000007"><a xlink:title=" ">
<path fill="none" stroke="#63b8ff" d="M310.12,-243.01C332.93,-236.6 356.08,-225.76 371.62,-207.5 415.9,-155.48 406.91,-122.05 392.62,-55.25 390.74,-46.44 386.98,-37.26 383.22,-29.54"/>
<polygon fill="#63b8ff" stroke="#63b8ff" points="386.39,-28.04 378.64,-20.81 380.19,-31.29 386.39,-28.04"/>
</a>
</g>
</g>
<!-- Node9 -->
<g id="Node000009" class="node">
<title>Node9</title>
<g id="a_Node000009"><a xlink:href="OscProbCalcerBase_8h.html" target="_top" xlink:title=" ">
<polygon fill="white" stroke="#666666" points="326.12,-141 175.12,-141 175.12,-110.5 326.12,-110.5 326.12,-141"/>
<text text-anchor="start" x="183.12" y="-127.5" font-family="Helvetica,sans-Serif" font-size="10.00">OscProbCalcer/OscProbCalcer</text>
<text text-anchor="middle" x="250.62" y="-116.25" font-family="Helvetica,sans-Serif" font-size="10.00">Base.h</text>
</a>
</g>
</g>
<!-- Node1&#45;&gt;Node9 -->
<g id="edge8_Node000001_Node000009" class="edge">
<title>Node1&#45;&gt;Node9</title>
<g id="a_edge8_Node000001_Node000009"><a xlink:title=" ">
<path fill="none" stroke="#63b8ff" d="M226.3,-243.23C218.27,-234.88 207.27,-221.59 202.62,-207.5 198.38,-194.63 197.58,-189.58 202.62,-177 206.89,-166.36 214.6,-156.7 222.61,-148.75"/>
<polygon fill="#63b8ff" stroke="#63b8ff" points="224.81,-151.48 229.82,-142.15 220.08,-146.32 224.81,-151.48"/>
</a>
</g>
</g>
<!-- Node11 -->
<g id="Node000011" class="node">
<title>Node11</title>
<g id="a_Node000011"><a xlink:href="OscProbCalcerFactory_8h.html" target="_top" xlink:title=" ">
<polygon fill="white" stroke="#666666" points="363.12,-207.5 212.12,-207.5 212.12,-177 363.12,-177 363.12,-207.5"/>
<text text-anchor="start" x="220.12" y="-194" font-family="Helvetica,sans-Serif" font-size="10.00">OscProbCalcer/OscProbCalcer</text>
<text text-anchor="middle" x="287.62" y="-182.75" font-family="Helvetica,sans-Serif" font-size="10.00">Factory.h</text>
</a>
</g>
</g>
<!-- Node1&#45;&gt;Node11 -->
<g id="edge13_Node000001_Node000011" class="edge">
<title>Node1&#45;&gt;Node11</title>
<g id="a_edge13_Node000001_Node000011"><a xlink:title=" ">
<path fill="none" stroke="#63b8ff" d="M243.52,-243.18C249.81,-236.06 258.9,-225.77 267.2,-216.38"/>
<polygon fill="#63b8ff" stroke="#63b8ff" points="269.79,-218.73 273.79,-208.92 264.54,-214.09 269.79,-218.73"/>
</a>
</g>
</g>
<!-- Node12 -->
<g id="Node000012" class="node">
<title>Node12</title>
<g id="a_Node000012"><a xlink:title=" ">
<polygon fill="#e0e0e0" stroke="#999999" points="485.25,-201.88 440,-201.88 440,-182.62 485.25,-182.62 485.25,-201.88"/>
<text text-anchor="middle" x="462.62" y="-188.38" font-family="Helvetica,sans-Serif" font-size="10.00">chrono</text>
</a>
</g>
</g>
<!-- Node1&#45;&gt;Node12 -->
<g id="edge17_Node000001_Node000012" class="edge">
<title>Node1&#45;&gt;Node12</title>
<g id="a_edge17_Node000001_Node000012"><a xlink:title=" ">
<path fill="none" stroke="#63b8ff" d="M282.17,-243.05C320.93,-235.06 377.38,-222.38 425.62,-207.5 426.99,-207.08 428.38,-206.63 429.79,-206.16"/>
<polygon fill="#63b8ff" stroke="#63b8ff" points="430.83,-209.51 439.07,-202.85 428.47,-202.92 430.83,-209.51"/>
</a>
</g>
</g>
<!-- Node2&#45;&gt;Node3 -->
<g id="edge2_Node000002_Node000003" class="edge">
<title>Node2&#45;&gt;Node3</title>
<g id="a_edge2_Node000002_Node000003"><a xlink:title=" ">
<path fill="none" stroke="#63b8ff" d="M108.15,-54.84C92.32,-46.66 68.72,-34.46 50.32,-24.94"/>
<polygon fill="#63b8ff" stroke="#63b8ff" points="52.02,-21.88 41.53,-20.4 48.8,-28.1 52.02,-21.88"/>
</a>
</g>
</g>
<!-- Node4 -->
<g id="Node000004" class="node">
<title>Node4</title>
<g id="a_Node000004"><a xlink:title=" ">
<polygon fill="#e0e0e0" stroke="#999999" points="109.25,-19.25 64,-19.25 64,0 109.25,0 109.25,-19.25"/>
<text text-anchor="middle" x="86.62" y="-5.75" font-family="Helvetica,sans-Serif" font-size="10.00">TFile.h</text>
</a>
</g>
</g>
<!-- Node2&#45;&gt;Node4 -->
<g id="edge3_Node000002_Node000004" class="edge">
<title>Node2&#45;&gt;Node4</title>
<g id="a_edge3_Node000002_Node000004"><a xlink:title=" ">
<path fill="none" stroke="#63b8ff" d="M119.18,-55.08C113.97,-47.96 106.44,-37.68 99.93,-28.8"/>
<polygon fill="#63b8ff" stroke="#63b8ff" points="102.83,-26.83 94.1,-20.83 97.18,-30.97 102.83,-26.83"/>
</a>
</g>
</g>
<!-- Node5 -->
<g id="Node000005" class="node">
<title>Node5</title>
<g id="a_Node000005"><a xlink:title=" ">
<polygon fill="#e0e0e0" stroke="#999999" points="169.75,-19.25 127.5,-19.25 127.5,0 169.75,0 169.75,-19.25"/>
<text text-anchor="middle" x="148.62" y="-5.75" font-family="Helvetica,sans-Serif" font-size="10.00">TH1.h</text>
</a>
</g>
</g>
<!-- Node2&#45;&gt;Node5 -->
<g id="edge4_Node000002_Node000005" class="edge">
<title>Node2&#45;&gt;Node5</title>
<g id="a_edge4_Node000002_Node000005"><a xlink:title=" ">
<path fill="none" stroke="#63b8ff" d="M129.42,-55.08C132.37,-48.26 136.56,-38.56 140.28,-29.95"/>
<polygon fill="#63b8ff" stroke="#63b8ff" points="143.39,-31.57 144.14,-21 136.97,-28.79 143.39,-31.57"/>
</a>
</g>
</g>
<!-- Node6 -->
<g id="Node000006" class="node">
<title>Node6</title>
<g id="a_Node000006"><a xlink:title=" ">
<polygon fill="#e0e0e0" stroke="#999999" points="228.62,-19.25 188.62,-19.25 188.62,0 228.62,0 228.62,-19.25"/>
<text text-anchor="middle" x="208.62" y="-5.75" font-family="Helvetica,sans-Serif" font-size="10.00">string</text>
</a>
</g>
</g>
<!-- Node2&#45;&gt;Node6 -->
<g id="edge5_Node000002_Node000006" class="edge">
<title>Node2&#45;&gt;Node6</title>
<g id="a_edge5_Node000002_Node000006"><a xlink:title=" ">
<path fill="none" stroke="#63b8ff" d="M139.7,-54.84C152.11,-46.89 170.42,-35.14 185.05,-25.75"/>
<polygon fill="#63b8ff" stroke="#63b8ff" points="186.68,-28.87 193.2,-20.52 182.9,-22.97 186.68,-28.87"/>
</a>
</g>
</g>
<!-- Node2&#45;&gt;Node7 -->
<g id="edge6_Node000002_Node000007" class="edge">
<title>Node2&#45;&gt;Node7</title>
<g id="a_edge6_Node000002_Node000007"><a xlink:title=" ">
<path fill="none" stroke="#63b8ff" d="M167.81,-54.78C214.58,-44.7 289.36,-28.58 334.45,-18.85"/>
<polygon fill="#63b8ff" stroke="#63b8ff" points="335,-22.32 344.04,-16.79 333.52,-15.47 335,-22.32"/>
</a>
</g>
</g>
<!-- Node8 -->
<g id="Node000008" class="node">
<title>Node8</title>
<g id="a_Node000008"><a xlink:title=" ">
<polygon fill="#e0e0e0" stroke="#999999" points="290.12,-19.25 247.12,-19.25 247.12,0 290.12,0 290.12,-19.25"/>
<text text-anchor="middle" x="268.62" y="-5.75" font-family="Helvetica,sans-Serif" font-size="10.00">vector</text>
</a>
</g>
</g>
<!-- Node2&#45;&gt;Node8 -->
<g id="edge7_Node000002_Node000008" class="edge">
<title>Node2&#45;&gt;Node8</title>
<g id="a_edge7_Node000002_Node000008"><a xlink:title=" ">
<path fill="none" stroke="#63b8ff" d="M149.88,-54.84C173.73,-45.96 210.26,-32.36 236.51,-22.58"/>
<polygon fill="#63b8ff" stroke="#63b8ff" points="237.49,-25.95 245.64,-19.18 235.05,-19.39 237.49,-25.95"/>
</a>
</g>
</g>
<!-- Node9&#45;&gt;Node2 -->
<g id="edge9_Node000009_Node000002" class="edge">
<title>Node9&#45;&gt;Node2</title>
<g id="a_edge9_Node000009_Node000002"><a xlink:title=" ">
<path fill="none" stroke="#63b8ff" d="M219.4,-110.05C199.73,-100.78 174.48,-88.88 155.14,-79.77"/>
<polygon fill="#63b8ff" stroke="#63b8ff" points="156.7,-76.64 146.16,-75.55 153.72,-82.98 156.7,-76.64"/>
</a>
</g>
</g>
<!-- Node9&#45;&gt;Node6 -->
<g id="edge11_Node000009_Node000006" class="edge">
<title>Node9&#45;&gt;Node6</title>
<g id="a_edge11_Node000009_Node000006"><a xlink:title=" ">
<path fill="none" stroke="#63b8ff" d="M245.31,-110.3C237.86,-90.06 224.3,-53.22 215.92,-30.44"/>
<polygon fill="#63b8ff" stroke="#63b8ff" points="219.23,-29.29 212.49,-21.12 212.66,-31.71 219.23,-29.29"/>
</a>
</g>
</g>
<!-- Node9&#45;&gt;Node8 -->
<g id="edge10_Node000009_Node000008" class="edge">
<title>Node9&#45;&gt;Node8</title>
<g id="a_edge10_Node000009_Node000008"><a xlink:title=" ">
<path fill="none" stroke="#63b8ff" d="M252.9,-110.3C256.08,-90.15 261.85,-53.56 265.45,-30.75"/>
<polygon fill="#63b8ff" stroke="#63b8ff" points="268.86,-31.62 266.96,-21.19 261.94,-30.53 268.86,-31.62"/>
</a>
</g>
</g>
<!-- Node10 -->
<g id="Node000010" class="node">
<title>Node10</title>
<g id="a_Node000010"><a xlink:title=" ">
<polygon fill="#e0e0e0" stroke="#999999" points="383.5,-74.5 297.75,-74.5 297.75,-55.25 383.5,-55.25 383.5,-74.5"/>
<text text-anchor="middle" x="340.62" y="-61" font-family="Helvetica,sans-Serif" font-size="10.00">yaml&#45;cpp/yaml.h</text>
</a>
</g>
</g>
<!-- Node9&#45;&gt;Node10 -->
<g id="edge12_Node000009_Node000010" class="edge">
<title>Node9&#45;&gt;Node10</title>
<g id="a_edge12_Node000009_Node000010"><a xlink:title=" ">
<path fill="none" stroke="#63b8ff" d="M272.87,-110.2C286.44,-101.32 303.76,-89.99 317.49,-81.01"/>
<polygon fill="#63b8ff" stroke="#63b8ff" points="319.03,-84.18 325.48,-75.78 315.2,-78.33 319.03,-84.18"/>
</a>
</g>
</g>
<!-- Node11&#45;&gt;Node9 -->
<g id="edge14_Node000011_Node000009" class="edge">
<title>Node11&#45;&gt;Node9</title>
<g id="a_edge14_Node000011_Node000009"><a xlink:title=" ">
<path fill="none" stroke="#63b8ff" d="M279.23,-176.61C274.92,-169.11 269.57,-159.77 264.66,-151.21"/>
<polygon fill="#63b8ff" stroke="#63b8ff" points="267.75,-149.57 259.74,-142.64 261.68,-153.06 267.75,-149.57"/>
</a>
</g>
</g>
</g>
</svg>
